<?xml version="1.0" encoding="utf-8" standalone="no"?>
<!DOCTYPE svg PUBLIC "-//W3C//DTD SVG 1.1//EN"
  "http://www.w3.org/Graphics/SVG/1.1/DTD/svg11.dtd">
<svg xmlns:xlink="http://www.w3.org/1999/xlink" width="608.98125pt" height="392.514375pt" viewBox="0 0 608.98125 392.514375" xmlns="http://www.w3.org/2000/svg" version="1.1">
 <metadata>
  <rdf:RDF xmlns:dc="http://purl.org/dc/elements/1.1/" xmlns:cc="http://creativecommons.org/ns#" xmlns:rdf="http://www.w3.org/1999/02/22-rdf-syntax-ns#">
   <cc:Work>
    <dc:type rdf:resource="http://purl.org/dc/dcmitype/StillImage"/>
    <dc:date>2023-09-12T17:28:01.280485</dc:date>
    <dc:format>image/svg+xml</dc:format>
    <dc:creator>
     <cc:Agent>
      <dc:title>Matplotlib v3.7.1, https://matplotlib.org/</dc:title>
     </cc:Agent>
    </dc:creator>
   </cc:Work>
  </rdf:RDF>
 </metadata>
 <defs>
  <style type="text/css">*{stroke-linejoin: round; stroke-linecap: butt}</style>
 </defs>
 <g id="figure_1">
  <g id="patch_1">
   <path d="M 0 392.514375 
L 608.98125 392.514375 
L 608.98125 0 
L 0 0 
z
" style="fill: #ffffff"/>
  </g>
  <g id="axes_1">
   <g id="patch_2">
    <path d="M 43.78125 354.958125 
L 601.78125 354.958125 
L 601.78125 22.318125 
L 43.78125 22.318125 
z
" style="fill: #ffffff"/>
   </g>
   <g id="matplotlib.axis_1">
    <g id="xtick_1">
     <g id="line2d_1">
      <defs>
       <path id="m8a6ee6f42f" d="M 0 0 
L 0 3.5 
" style="stroke: #000000; stroke-width: 0.8"/>
      </defs>
      <g>
       <use xlink:href="#m8a6ee6f42f" x="81.688813" y="354.958125" style="stroke: #000000; stroke-width: 0.8"/>
      </g>
     </g>
     <g id="text_1">
      <!-- 40 -->
      <g transform="translate(75.326313 369.556562) scale(0.1 -0.1)">
       <defs>
        <path id="DejaVuSans-34" d="M 2419 4116 
L 825 1625 
L 2419 1625 
L 2419 4116 
z
M 2253 4666 
L 3047 4666 
L 3047 1625 
L 3713 1625 
L 3713 1100 
L 3047 1100 
L 3047 0 
L 2419 0 
L 2419 1100 
L 313 1100 
L 313 1709 
L 2253 4666 
z
" transform="scale(0.015625)"/>
        <path id="DejaVuSans-30" d="M 2034 4250 
Q 1547 4250 1301 3770 
Q 1056 3291 1056 2328 
Q 1056 1369 1301 889 
Q 1547 409 2034 409 
Q 2525 409 2770 889 
Q 3016 1369 3016 2328 
Q 3016 3291 2770 3770 
Q 2525 4250 2034 4250 
z
M 2034 4750 
Q 2819 4750 3233 4129 
Q 3647 3509 3647 2328 
Q 3647 1150 3233 529 
Q 2819 -91 2034 -91 
Q 1250 -91 836 529 
Q 422 1150 422 2328 
Q 422 3509 836 4129 
Q 1250 4750 2034 4750 
z
" transform="scale(0.015625)"/>
       </defs>
       <use xlink:href="#DejaVuSans-34"/>
       <use xlink:href="#DejaVuSans-30" x="63.623047"/>
      </g>
     </g>
    </g>
    <g id="xtick_2">
     <g id="line2d_2">
      <g>
       <use xlink:href="#m8a6ee6f42f" x="150.52112" y="354.958125" style="stroke: #000000; stroke-width: 0.8"/>
      </g>
     </g>
     <g id="text_2">
      <!-- 60 -->
      <g transform="translate(144.15862 369.556562) scale(0.1 -0.1)">
       <defs>
        <path id="DejaVuSans-36" d="M 2113 2584 
Q 1688 2584 1439 2293 
Q 1191 2003 1191 1497 
Q 1191 994 1439 701 
Q 1688 409 2113 409 
Q 2538 409 2786 701 
Q 3034 994 3034 1497 
Q 3034 2003 2786 2293 
Q 2538 2584 2113 2584 
z
M 3366 4563 
L 3366 3988 
Q 3128 4100 2886 4159 
Q 2644 4219 2406 4219 
Q 1781 4219 1451 3797 
Q 1122 3375 1075 2522 
Q 1259 2794 1537 2939 
Q 1816 3084 2150 3084 
Q 2853 3084 3261 2657 
Q 3669 2231 3669 1497 
Q 3669 778 3244 343 
Q 2819 -91 2113 -91 
Q 1303 -91 875 529 
Q 447 1150 447 2328 
Q 447 3434 972 4092 
Q 1497 4750 2381 4750 
Q 2619 4750 2861 4703 
Q 3103 4656 3366 4563 
z
" transform="scale(0.015625)"/>
       </defs>
       <use xlink:href="#DejaVuSans-36"/>
       <use xlink:href="#DejaVuSans-30" x="63.623047"/>
      </g>
     </g>
    </g>
    <g id="xtick_3">
     <g id="line2d_3">
      <g>
       <use xlink:href="#m8a6ee6f42f" x="219.353426" y="354.958125" style="stroke: #000000; stroke-width: 0.8"/>
      </g>
     </g>
     <g id="text_3">
      <!-- 80 -->
      <g transform="translate(212.990926 369.556562) scale(0.1 -0.1)">
       <defs>
        <path id="DejaVuSans-38" d="M 2034 2216 
Q 1584 2216 1326 1975 
Q 1069 1734 1069 1313 
Q 1069 891 1326 650 
Q 1584 409 2034 409 
Q 2484 409 2743 651 
Q 3003 894 3003 1313 
Q 3003 1734 2745 1975 
Q 2488 2216 2034 2216 
z
M 1403 2484 
Q 997 2584 770 2862 
Q 544 3141 544 3541 
Q 544 4100 942 4425 
Q 1341 4750 2034 4750 
Q 2731 4750 3128 4425 
Q 3525 4100 3525 3541 
Q 3525 3141 3298 2862 
Q 3072 2584 2669 2484 
Q 3125 2378 3379 2068 
Q 3634 1759 3634 1313 
Q 3634 634 3220 271 
Q 2806 -91 2034 -91 
Q 1263 -91 848 271 
Q 434 634 434 1313 
Q 434 1759 690 2068 
Q 947 2378 1403 2484 
z
M 1172 3481 
Q 1172 3119 1398 2916 
Q 1625 2713 2034 2713 
Q 2441 2713 2670 2916 
Q 2900 3119 2900 3481 
Q 2900 3844 2670 4047 
Q 2441 4250 2034 4250 
Q 1625 4250 1398 4047 
Q 1172 3844 1172 3481 
z
" transform="scale(0.015625)"/>
       </defs>
       <use xlink:href="#DejaVuSans-38"/>
       <use xlink:href="#DejaVuSans-30" x="63.623047"/>
      </g>
     </g>
    </g>
    <g id="xtick_4">
     <g id="line2d_4">
      <g>
       <use xlink:href="#m8a6ee6f42f" x="288.185733" y="354.958125" style="stroke: #000000; stroke-width: 0.8"/>
      </g>
     </g>
     <g id="text_4">
      <!-- 100 -->
      <g transform="translate(278.641983 369.556562) scale(0.1 -0.1)">
       <defs>
        <path id="DejaVuSans-31" d="M 794 531 
L 1825 531 
L 1825 4091 
L 703 3866 
L 703 4441 
L 1819 4666 
L 2450 4666 
L 2450 531 
L 3481 531 
L 3481 0 
L 794 0 
L 794 531 
z
" transform="scale(0.015625)"/>
       </defs>
       <use xlink:href="#DejaVuSans-31"/>
       <use xlink:href="#DejaVuSans-30" x="63.623047"/>
       <use xlink:href="#DejaVuSans-30" x="127.246094"/>
      </g>
     </g>
    </g>
    <g id="xtick_5">
     <g id="line2d_5">
      <g>
       <use xlink:href="#m8a6ee6f42f" x="357.01804" y="354.958125" style="stroke: #000000; stroke-width: 0.8"/>
      </g>
     </g>
     <g id="text_5">
      <!-- 120 -->
      <g transform="translate(347.47429 369.556562) scale(0.1 -0.1)">
       <defs>
        <path id="DejaVuSans-32" d="M 1228 531 
L 3431 531 
L 3431 0 
L 469 0 
L 469 531 
Q 828 903 1448 1529 
Q 2069 2156 2228 2338 
Q 2531 2678 2651 2914 
Q 2772 3150 2772 3378 
Q 2772 3750 2511 3984 
Q 2250 4219 1831 4219 
Q 1534 4219 1204 4116 
Q 875 4013 500 3803 
L 500 4441 
Q 881 4594 1212 4672 
Q 1544 4750 1819 4750 
Q 2544 4750 2975 4387 
Q 3406 4025 3406 3419 
Q 3406 3131 3298 2873 
Q 3191 2616 2906 2266 
Q 2828 2175 2409 1742 
Q 1991 1309 1228 531 
z
" transform="scale(0.015625)"/>
       </defs>
       <use xlink:href="#DejaVuSans-31"/>
       <use xlink:href="#DejaVuSans-32" x="63.623047"/>
       <use xlink:href="#DejaVuSans-30" x="127.246094"/>
      </g>
     </g>
    </g>
    <g id="xtick_6">
     <g id="line2d_6">
      <g>
       <use xlink:href="#m8a6ee6f42f" x="425.850346" y="354.958125" style="stroke: #000000; stroke-width: 0.8"/>
      </g>
     </g>
     <g id="text_6">
      <!-- 140 -->
      <g transform="translate(416.306596 369.556562) scale(0.1 -0.1)">
       <use xlink:href="#DejaVuSans-31"/>
       <use xlink:href="#DejaVuSans-34" x="63.623047"/>
       <use xlink:href="#DejaVuSans-30" x="127.246094"/>
      </g>
     </g>
    </g>
    <g id="xtick_7">
     <g id="line2d_7">
      <g>
       <use xlink:href="#m8a6ee6f42f" x="494.682653" y="354.958125" style="stroke: #000000; stroke-width: 0.8"/>
      </g>
     </g>
     <g id="text_7">
      <!-- 160 -->
      <g transform="translate(485.138903 369.556562) scale(0.1 -0.1)">
       <use xlink:href="#DejaVuSans-31"/>
       <use xlink:href="#DejaVuSans-36" x="63.623047"/>
       <use xlink:href="#DejaVuSans-30" x="127.246094"/>
      </g>
     </g>
    </g>
    <g id="xtick_8">
     <g id="line2d_8">
      <g>
       <use xlink:href="#m8a6ee6f42f" x="563.51496" y="354.958125" style="stroke: #000000; stroke-width: 0.8"/>
      </g>
     </g>
     <g id="text_8">
      <!-- 180 -->
      <g transform="translate(553.97121 369.556562) scale(0.1 -0.1)">
       <use xlink:href="#DejaVuSans-31"/>
       <use xlink:href="#DejaVuSans-38" x="63.623047"/>
       <use xlink:href="#DejaVuSans-30" x="127.246094"/>
      </g>
     </g>
    </g>
    <g id="text_9">
     <!-- Purchase Amount -->
     <g transform="translate(278.842188 383.234687) scale(0.1 -0.1)">
      <defs>
       <path id="DejaVuSans-50" d="M 1259 4147 
L 1259 2394 
L 2053 2394 
Q 2494 2394 2734 2622 
Q 2975 2850 2975 3272 
Q 2975 3691 2734 3919 
Q 2494 4147 2053 4147 
L 1259 4147 
z
M 628 4666 
L 2053 4666 
Q 2838 4666 3239 4311 
Q 3641 3956 3641 3272 
Q 3641 2581 3239 2228 
Q 2838 1875 2053 1875 
L 1259 1875 
L 1259 0 
L 628 0 
L 628 4666 
z
" transform="scale(0.015625)"/>
       <path id="DejaVuSans-75" d="M 544 1381 
L 544 3500 
L 1119 3500 
L 1119 1403 
Q 1119 906 1312 657 
Q 1506 409 1894 409 
Q 2359 409 2629 706 
Q 2900 1003 2900 1516 
L 2900 3500 
L 3475 3500 
L 3475 0 
L 2900 0 
L 2900 538 
Q 2691 219 2414 64 
Q 2138 -91 1772 -91 
Q 1169 -91 856 284 
Q 544 659 544 1381 
z
M 1991 3584 
L 1991 3584 
z
" transform="scale(0.015625)"/>
       <path id="DejaVuSans-72" d="M 2631 2963 
Q 2534 3019 2420 3045 
Q 2306 3072 2169 3072 
Q 1681 3072 1420 2755 
Q 1159 2438 1159 1844 
L 1159 0 
L 581 0 
L 581 3500 
L 1159 3500 
L 1159 2956 
Q 1341 3275 1631 3429 
Q 1922 3584 2338 3584 
Q 2397 3584 2469 3576 
Q 2541 3569 2628 3553 
L 2631 2963 
z
" transform="scale(0.015625)"/>
       <path id="DejaVuSans-63" d="M 3122 3366 
L 3122 2828 
Q 2878 2963 2633 3030 
Q 2388 3097 2138 3097 
Q 1578 3097 1268 2742 
Q 959 2388 959 1747 
Q 959 1106 1268 751 
Q 1578 397 2138 397 
Q 2388 397 2633 464 
Q 2878 531 3122 666 
L 3122 134 
Q 2881 22 2623 -34 
Q 2366 -91 2075 -91 
Q 1284 -91 818 406 
Q 353 903 353 1747 
Q 353 2603 823 3093 
Q 1294 3584 2113 3584 
Q 2378 3584 2631 3529 
Q 2884 3475 3122 3366 
z
" transform="scale(0.015625)"/>
       <path id="DejaVuSans-68" d="M 3513 2113 
L 3513 0 
L 2938 0 
L 2938 2094 
Q 2938 2591 2744 2837 
Q 2550 3084 2163 3084 
Q 1697 3084 1428 2787 
Q 1159 2491 1159 1978 
L 1159 0 
L 581 0 
L 581 4863 
L 1159 4863 
L 1159 2956 
Q 1366 3272 1645 3428 
Q 1925 3584 2291 3584 
Q 2894 3584 3203 3211 
Q 3513 2838 3513 2113 
z
" transform="scale(0.015625)"/>
       <path id="DejaVuSans-61" d="M 2194 1759 
Q 1497 1759 1228 1600 
Q 959 1441 959 1056 
Q 959 750 1161 570 
Q 1363 391 1709 391 
Q 2188 391 2477 730 
Q 2766 1069 2766 1631 
L 2766 1759 
L 2194 1759 
z
M 3341 1997 
L 3341 0 
L 2766 0 
L 2766 531 
Q 2569 213 2275 61 
Q 1981 -91 1556 -91 
Q 1019 -91 701 211 
Q 384 513 384 1019 
Q 384 1609 779 1909 
Q 1175 2209 1959 2209 
L 2766 2209 
L 2766 2266 
Q 2766 2663 2505 2880 
Q 2244 3097 1772 3097 
Q 1472 3097 1187 3025 
Q 903 2953 641 2809 
L 641 3341 
Q 956 3463 1253 3523 
Q 1550 3584 1831 3584 
Q 2591 3584 2966 3190 
Q 3341 2797 3341 1997 
z
" transform="scale(0.015625)"/>
       <path id="DejaVuSans-73" d="M 2834 3397 
L 2834 2853 
Q 2591 2978 2328 3040 
Q 2066 3103 1784 3103 
Q 1356 3103 1142 2972 
Q 928 2841 928 2578 
Q 928 2378 1081 2264 
Q 1234 2150 1697 2047 
L 1894 2003 
Q 2506 1872 2764 1633 
Q 3022 1394 3022 966 
Q 3022 478 2636 193 
Q 2250 -91 1575 -91 
Q 1294 -91 989 -36 
Q 684 19 347 128 
L 347 722 
Q 666 556 975 473 
Q 1284 391 1588 391 
Q 1994 391 2212 530 
Q 2431 669 2431 922 
Q 2431 1156 2273 1281 
Q 2116 1406 1581 1522 
L 1381 1569 
Q 847 1681 609 1914 
Q 372 2147 372 2553 
Q 372 3047 722 3315 
Q 1072 3584 1716 3584 
Q 2034 3584 2315 3537 
Q 2597 3491 2834 3397 
z
" transform="scale(0.015625)"/>
       <path id="DejaVuSans-65" d="M 3597 1894 
L 3597 1613 
L 953 1613 
Q 991 1019 1311 708 
Q 1631 397 2203 397 
Q 2534 397 2845 478 
Q 3156 559 3463 722 
L 3463 178 
Q 3153 47 2828 -22 
Q 2503 -91 2169 -91 
Q 1331 -91 842 396 
Q 353 884 353 1716 
Q 353 2575 817 3079 
Q 1281 3584 2069 3584 
Q 2775 3584 3186 3129 
Q 3597 2675 3597 1894 
z
M 3022 2063 
Q 3016 2534 2758 2815 
Q 2500 3097 2075 3097 
Q 1594 3097 1305 2825 
Q 1016 2553 972 2059 
L 3022 2063 
z
" transform="scale(0.015625)"/>
       <path id="DejaVuSans-20" transform="scale(0.015625)"/>
       <path id="DejaVuSans-41" d="M 2188 4044 
L 1331 1722 
L 3047 1722 
L 2188 4044 
z
M 1831 4666 
L 2547 4666 
L 4325 0 
L 3669 0 
L 3244 1197 
L 1141 1197 
L 716 0 
L 50 0 
L 1831 4666 
z
" transform="scale(0.015625)"/>
       <path id="DejaVuSans-6d" d="M 3328 2828 
Q 3544 3216 3844 3400 
Q 4144 3584 4550 3584 
Q 5097 3584 5394 3201 
Q 5691 2819 5691 2113 
L 5691 0 
L 5113 0 
L 5113 2094 
Q 5113 2597 4934 2840 
Q 4756 3084 4391 3084 
Q 3944 3084 3684 2787 
Q 3425 2491 3425 1978 
L 3425 0 
L 2847 0 
L 2847 2094 
Q 2847 2600 2669 2842 
Q 2491 3084 2119 3084 
Q 1678 3084 1418 2786 
Q 1159 2488 1159 1978 
L 1159 0 
L 581 0 
L 581 3500 
L 1159 3500 
L 1159 2956 
Q 1356 3278 1631 3431 
Q 1906 3584 2284 3584 
Q 2666 3584 2933 3390 
Q 3200 3197 3328 2828 
z
" transform="scale(0.015625)"/>
       <path id="DejaVuSans-6f" d="M 1959 3097 
Q 1497 3097 1228 2736 
Q 959 2375 959 1747 
Q 959 1119 1226 758 
Q 1494 397 1959 397 
Q 2419 397 2687 759 
Q 2956 1122 2956 1747 
Q 2956 2369 2687 2733 
Q 2419 3097 1959 3097 
z
M 1959 3584 
Q 2709 3584 3137 3096 
Q 3566 2609 3566 1747 
Q 3566 888 3137 398 
Q 2709 -91 1959 -91 
Q 1206 -91 779 398 
Q 353 888 353 1747 
Q 353 2609 779 3096 
Q 1206 3584 1959 3584 
z
" transform="scale(0.015625)"/>
       <path id="DejaVuSans-6e" d="M 3513 2113 
L 3513 0 
L 2938 0 
L 2938 2094 
Q 2938 2591 2744 2837 
Q 2550 3084 2163 3084 
Q 1697 3084 1428 2787 
Q 1159 2491 1159 1978 
L 1159 0 
L 581 0 
L 581 3500 
L 1159 3500 
L 1159 2956 
Q 1366 3272 1645 3428 
Q 1925 3584 2291 3584 
Q 2894 3584 3203 3211 
Q 3513 2838 3513 2113 
z
" transform="scale(0.015625)"/>
       <path id="DejaVuSans-74" d="M 1172 4494 
L 1172 3500 
L 2356 3500 
L 2356 3053 
L 1172 3053 
L 1172 1153 
Q 1172 725 1289 603 
Q 1406 481 1766 481 
L 2356 481 
L 2356 0 
L 1766 0 
Q 1100 0 847 248 
Q 594 497 594 1153 
L 594 3053 
L 172 3053 
L 172 3500 
L 594 3500 
L 594 4494 
L 1172 4494 
z
" transform="scale(0.015625)"/>
      </defs>
      <use xlink:href="#DejaVuSans-50"/>
      <use xlink:href="#DejaVuSans-75" x="58.552734"/>
      <use xlink:href="#DejaVuSans-72" x="121.931641"/>
      <use xlink:href="#DejaVuSans-63" x="160.794922"/>
      <use xlink:href="#DejaVuSans-68" x="215.775391"/>
      <use xlink:href="#DejaVuSans-61" x="279.154297"/>
      <use xlink:href="#DejaVuSans-73" x="340.433594"/>
      <use xlink:href="#DejaVuSans-65" x="392.533203"/>
      <use xlink:href="#DejaVuSans-20" x="454.056641"/>
      <use xlink:href="#DejaVuSans-41" x="485.84375"/>
      <use xlink:href="#DejaVuSans-6d" x="554.251953"/>
      <use xlink:href="#DejaVuSans-6f" x="651.664062"/>
      <use xlink:href="#DejaVuSans-75" x="712.845703"/>
      <use xlink:href="#DejaVuSans-6e" x="776.224609"/>
      <use xlink:href="#DejaVuSans-74" x="839.603516"/>
     </g>
    </g>
   </g>
   <g id="matplotlib.axis_2">
    <g id="ytick_1">
     <g id="line2d_9">
      <defs>
       <path id="mf5afd16695" d="M 0 0 
L -3.5 0 
" style="stroke: #000000; stroke-width: 0.8"/>
      </defs>
      <g>
       <use xlink:href="#mf5afd16695" x="43.78125" y="339.844173" style="stroke: #000000; stroke-width: 0.8"/>
      </g>
     </g>
     <g id="text_10">
      <!-- 0.0 -->
      <g transform="translate(20.878125 343.643392) scale(0.1 -0.1)">
       <defs>
        <path id="DejaVuSans-2e" d="M 684 794 
L 1344 794 
L 1344 0 
L 684 0 
L 684 794 
z
" transform="scale(0.015625)"/>
       </defs>
       <use xlink:href="#DejaVuSans-30"/>
       <use xlink:href="#DejaVuSans-2e" x="63.623047"/>
       <use xlink:href="#DejaVuSans-30" x="95.410156"/>
      </g>
     </g>
    </g>
    <g id="ytick_2">
     <g id="line2d_10">
      <g>
       <use xlink:href="#mf5afd16695" x="43.78125" y="279.362963" style="stroke: #000000; stroke-width: 0.8"/>
      </g>
     </g>
     <g id="text_11">
      <!-- 0.2 -->
      <g transform="translate(20.878125 283.162182) scale(0.1 -0.1)">
       <use xlink:href="#DejaVuSans-30"/>
       <use xlink:href="#DejaVuSans-2e" x="63.623047"/>
       <use xlink:href="#DejaVuSans-32" x="95.410156"/>
      </g>
     </g>
    </g>
    <g id="ytick_3">
     <g id="line2d_11">
      <g>
       <use xlink:href="#mf5afd16695" x="43.78125" y="218.881754" style="stroke: #000000; stroke-width: 0.8"/>
      </g>
     </g>
     <g id="text_12">
      <!-- 0.4 -->
      <g transform="translate(20.878125 222.680973) scale(0.1 -0.1)">
       <use xlink:href="#DejaVuSans-30"/>
       <use xlink:href="#DejaVuSans-2e" x="63.623047"/>
       <use xlink:href="#DejaVuSans-34" x="95.410156"/>
      </g>
     </g>
    </g>
    <g id="ytick_4">
     <g id="line2d_12">
      <g>
       <use xlink:href="#mf5afd16695" x="43.78125" y="158.400544" style="stroke: #000000; stroke-width: 0.8"/>
      </g>
     </g>
     <g id="text_13">
      <!-- 0.6 -->
      <g transform="translate(20.878125 162.199763) scale(0.1 -0.1)">
       <use xlink:href="#DejaVuSans-30"/>
       <use xlink:href="#DejaVuSans-2e" x="63.623047"/>
       <use xlink:href="#DejaVuSans-36" x="95.410156"/>
      </g>
     </g>
    </g>
    <g id="ytick_5">
     <g id="line2d_13">
      <g>
       <use xlink:href="#mf5afd16695" x="43.78125" y="97.919335" style="stroke: #000000; stroke-width: 0.8"/>
      </g>
     </g>
     <g id="text_14">
      <!-- 0.8 -->
      <g transform="translate(20.878125 101.718553) scale(0.1 -0.1)">
       <use xlink:href="#DejaVuSans-30"/>
       <use xlink:href="#DejaVuSans-2e" x="63.623047"/>
       <use xlink:href="#DejaVuSans-38" x="95.410156"/>
      </g>
     </g>
    </g>
    <g id="ytick_6">
     <g id="line2d_14">
      <g>
       <use xlink:href="#mf5afd16695" x="43.78125" y="37.438125" style="stroke: #000000; stroke-width: 0.8"/>
      </g>
     </g>
     <g id="text_15">
      <!-- 1.0 -->
      <g transform="translate(20.878125 41.237344) scale(0.1 -0.1)">
       <use xlink:href="#DejaVuSans-31"/>
       <use xlink:href="#DejaVuSans-2e" x="63.623047"/>
       <use xlink:href="#DejaVuSans-30" x="95.410156"/>
      </g>
     </g>
    </g>
    <g id="text_16">
     <!-- Cumulative Frequency -->
     <g transform="translate(14.798438 244.594375) rotate(-90) scale(0.1 -0.1)">
      <defs>
       <path id="DejaVuSans-43" d="M 4122 4306 
L 4122 3641 
Q 3803 3938 3442 4084 
Q 3081 4231 2675 4231 
Q 1875 4231 1450 3742 
Q 1025 3253 1025 2328 
Q 1025 1406 1450 917 
Q 1875 428 2675 428 
Q 3081 428 3442 575 
Q 3803 722 4122 1019 
L 4122 359 
Q 3791 134 3420 21 
Q 3050 -91 2638 -91 
Q 1578 -91 968 557 
Q 359 1206 359 2328 
Q 359 3453 968 4101 
Q 1578 4750 2638 4750 
Q 3056 4750 3426 4639 
Q 3797 4528 4122 4306 
z
" transform="scale(0.015625)"/>
       <path id="DejaVuSans-6c" d="M 603 4863 
L 1178 4863 
L 1178 0 
L 603 0 
L 603 4863 
z
" transform="scale(0.015625)"/>
       <path id="DejaVuSans-69" d="M 603 3500 
L 1178 3500 
L 1178 0 
L 603 0 
L 603 3500 
z
M 603 4863 
L 1178 4863 
L 1178 4134 
L 603 4134 
L 603 4863 
z
" transform="scale(0.015625)"/>
       <path id="DejaVuSans-76" d="M 191 3500 
L 800 3500 
L 1894 563 
L 2988 3500 
L 3597 3500 
L 2284 0 
L 1503 0 
L 191 3500 
z
" transform="scale(0.015625)"/>
       <path id="DejaVuSans-46" d="M 628 4666 
L 3309 4666 
L 3309 4134 
L 1259 4134 
L 1259 2759 
L 3109 2759 
L 3109 2228 
L 1259 2228 
L 1259 0 
L 628 0 
L 628 4666 
z
" transform="scale(0.015625)"/>
       <path id="DejaVuSans-71" d="M 947 1747 
Q 947 1113 1208 752 
Q 1469 391 1925 391 
Q 2381 391 2643 752 
Q 2906 1113 2906 1747 
Q 2906 2381 2643 2742 
Q 2381 3103 1925 3103 
Q 1469 3103 1208 2742 
Q 947 2381 947 1747 
z
M 2906 525 
Q 2725 213 2448 61 
Q 2172 -91 1784 -91 
Q 1150 -91 751 415 
Q 353 922 353 1747 
Q 353 2572 751 3078 
Q 1150 3584 1784 3584 
Q 2172 3584 2448 3432 
Q 2725 3281 2906 2969 
L 2906 3500 
L 3481 3500 
L 3481 -1331 
L 2906 -1331 
L 2906 525 
z
" transform="scale(0.015625)"/>
       <path id="DejaVuSans-79" d="M 2059 -325 
Q 1816 -950 1584 -1140 
Q 1353 -1331 966 -1331 
L 506 -1331 
L 506 -850 
L 844 -850 
Q 1081 -850 1212 -737 
Q 1344 -625 1503 -206 
L 1606 56 
L 191 3500 
L 800 3500 
L 1894 763 
L 2988 3500 
L 3597 3500 
L 2059 -325 
z
" transform="scale(0.015625)"/>
      </defs>
      <use xlink:href="#DejaVuSans-43"/>
      <use xlink:href="#DejaVuSans-75" x="69.824219"/>
      <use xlink:href="#DejaVuSans-6d" x="133.203125"/>
      <use xlink:href="#DejaVuSans-75" x="230.615234"/>
      <use xlink:href="#DejaVuSans-6c" x="293.994141"/>
      <use xlink:href="#DejaVuSans-61" x="321.777344"/>
      <use xlink:href="#DejaVuSans-74" x="383.056641"/>
      <use xlink:href="#DejaVuSans-69" x="422.265625"/>
      <use xlink:href="#DejaVuSans-76" x="450.048828"/>
      <use xlink:href="#DejaVuSans-65" x="509.228516"/>
      <use xlink:href="#DejaVuSans-20" x="570.751953"/>
      <use xlink:href="#DejaVuSans-46" x="602.539062"/>
      <use xlink:href="#DejaVuSans-72" x="652.808594"/>
      <use xlink:href="#DejaVuSans-65" x="691.671875"/>
      <use xlink:href="#DejaVuSans-71" x="753.195312"/>
      <use xlink:href="#DejaVuSans-75" x="816.671875"/>
      <use xlink:href="#DejaVuSans-65" x="880.050781"/>
      <use xlink:href="#DejaVuSans-6e" x="941.574219"/>
      <use xlink:href="#DejaVuSans-63" x="1004.953125"/>
      <use xlink:href="#DejaVuSans-79" x="1059.933594"/>
     </g>
    </g>
   </g>
   <g id="line2d_15">
    <path d="M 155.893004 339.813933 
L 158.594203 339.783692 
L 161.295402 339.753451 
L 163.996601 339.753451 
L 166.697801 339.723211 
L 169.399 339.723211 
L 172.100199 339.723211 
L 174.801399 339.723211 
L 177.502598 339.632489 
L 180.203797 339.541767 
L 182.904996 339.541767 
L 185.606196 339.420805 
L 188.307395 339.20912 
L 191.008594 338.876474 
L 193.709793 338.755511 
L 196.410993 338.513587 
L 199.112192 338.21118 
L 201.813391 337.908774 
L 204.514591 337.485406 
L 207.21579 336.880594 
L 209.916989 336.547947 
L 212.618188 335.70121 
L 215.319388 334.67303 
L 218.020587 333.402924 
L 220.721786 332.042097 
L 223.422986 330.560307 
L 226.124185 328.776112 
L 228.825384 326.477826 
L 231.526583 324.66339 
L 234.227783 322.213901 
L 236.928982 318.887434 
L 239.630181 315.772652 
L 242.33138 311.418005 
L 245.03258 307.789132 
L 247.733779 303.374004 
L 250.434978 298.565748 
L 253.136178 293.273642 
L 255.837377 287.104558 
L 258.538576 281.086678 
L 261.239775 273.67773 
L 263.940975 266.631669 
L 266.642174 259.525127 
L 269.343373 251.17872 
L 272.044573 242.802072 
L 274.745772 234.546387 
L 277.446971 225.534687 
L 280.14817 216.371784 
L 282.84937 206.845993 
L 285.550569 198.227421 
L 288.251768 188.066578 
L 290.952967 178.661749 
L 293.654167 169.559327 
L 296.355366 159.973056 
L 299.056565 150.931115 
L 301.757765 141.979896 
L 304.458964 133.149639 
L 307.160163 124.803232 
L 309.861362 116.940675 
L 312.562562 108.896674 
L 315.263761 102.062297 
L 317.96496 95.651289 
L 320.666159 90.17774 
L 323.367359 84.432025 
L 326.068558 78.746791 
L 328.769757 73.908294 
L 331.470957 69.009316 
L 334.172156 65.229241 
L 336.873355 61.418925 
L 339.574554 58.213421 
L 342.275754 55.401044 
L 344.976953 52.407224 
L 347.678152 49.897254 
L 350.379352 48.082818 
L 353.080551 46.570788 
L 355.78175 45.149479 
L 358.482949 43.970096 
L 361.184149 42.548787 
L 363.885348 41.520607 
L 366.586547 40.946035 
L 369.287746 40.341223 
L 371.988946 39.857373 
L 374.690145 39.403764 
L 377.391344 38.950155 
L 380.092544 38.647749 
L 382.793743 38.436065 
L 385.494942 38.19414 
L 388.196141 38.133659 
L 390.897341 37.952215 
L 393.59854 37.891734 
L 396.299739 37.68005 
L 399.000938 37.589328 
L 401.702138 37.559087 
L 404.403337 37.559087 
L 407.104536 37.528847 
L 409.805736 37.498606 
L 412.506935 37.498606 
L 415.208134 37.498606 
L 417.909333 37.498606 
L 420.610533 37.498606 
L 423.311732 37.438125 
" clip-path="url(#p3e5b19d557)" style="fill: none; stroke: #0000ff; stroke-width: 1.5; stroke-linecap: square"/>
   </g>
   <g id="line2d_16">
    <path d="M 210.701605 339.838125 
L 214.395706 339.832077 
L 218.089807 339.832077 
L 221.783909 339.826029 
L 225.47801 339.826029 
L 229.172111 339.826029 
L 232.866212 339.819981 
L 236.560313 339.819981 
L 240.254414 339.819981 
L 243.948515 339.801836 
L 247.642616 339.78974 
L 251.336717 339.729259 
L 255.030818 339.662729 
L 258.724919 339.590152 
L 262.419021 339.517575 
L 266.113122 339.420805 
L 269.807223 339.257505 
L 273.501324 339.063966 
L 277.195425 338.882522 
L 280.889526 338.66479 
L 284.583627 338.241421 
L 288.277728 337.787812 
L 291.971829 337.237433 
L 295.66593 336.553995 
L 299.360032 335.743547 
L 303.054133 334.818185 
L 306.748234 333.783956 
L 310.442335 332.1933 
L 314.136436 330.493778 
L 317.830537 328.479754 
L 321.524638 326.048409 
L 325.218739 323.490054 
L 328.91284 320.514379 
L 332.606941 316.67987 
L 336.301042 312.379656 
L 339.995144 307.547207 
L 343.689245 302.249053 
L 347.383346 296.297702 
L 351.077447 290.346351 
L 354.771548 283.239809 
L 358.465649 275.195808 
L 362.15975 267.061085 
L 365.853851 258.8054 
L 369.547952 249.751363 
L 373.242053 240.273958 
L 376.936155 230.082874 
L 380.630256 219.710346 
L 384.324357 209.537407 
L 388.018458 198.898762 
L 391.712559 188.296406 
L 395.40666 177.228345 
L 399.100761 166.238909 
L 402.794862 155.836141 
L 406.488963 145.79626 
L 410.183064 136.161603 
L 413.877165 126.490658 
L 417.571267 117.533391 
L 421.265368 109.368428 
L 424.959469 101.003876 
L 428.65357 93.473966 
L 432.347671 86.306942 
L 436.041772 80.077378 
L 439.735873 74.174412 
L 443.429974 68.912546 
L 447.124075 64.086146 
L 450.818176 60.312118 
L 454.512277 56.665102 
L 458.206379 53.38702 
L 461.90048 50.792376 
L 465.594581 48.49409 
L 469.288682 46.486114 
L 472.982783 44.641437 
L 476.676884 43.232225 
L 480.370985 42.107274 
L 484.065086 41.054901 
L 487.759187 40.377512 
L 491.453288 39.748507 
L 495.14739 39.137647 
L 498.841491 38.768712 
L 502.535592 38.411872 
L 506.229693 38.169948 
L 509.923794 37.982456 
L 513.617895 37.819157 
L 517.311996 37.71029 
L 521.006097 37.655857 
L 524.700198 37.589328 
L 528.394299 37.540943 
L 532.0884 37.504654 
L 535.782502 37.492558 
L 539.476603 37.48651 
L 543.170704 37.468366 
L 546.864805 37.450221 
L 550.558906 37.450221 
L 554.253007 37.444173 
L 557.947108 37.444173 
L 561.641209 37.444173 
L 565.33531 37.444173 
L 569.029411 37.444173 
L 572.723513 37.444173 
L 576.417614 37.438125 
" clip-path="url(#p3e5b19d557)" style="fill: none; stroke: #ff0000; stroke-width: 1.5; stroke-linecap: square"/>
   </g>
   <g id="line2d_17">
    <path d="M 69.144886 339.838125 
L 73.618123 339.838125 
L 78.09136 339.838125 
L 82.564596 339.838125 
L 87.037833 339.838125 
L 91.51107 339.838125 
L 95.984306 339.832077 
L 100.457543 339.819981 
L 104.93078 339.801836 
L 109.404016 339.795788 
L 113.877253 339.78974 
L 118.35049 339.777644 
L 122.823726 339.747403 
L 127.296963 339.723211 
L 131.7702 339.686922 
L 136.243436 339.620393 
L 140.716673 339.517575 
L 145.18991 339.378468 
L 149.663146 339.245409 
L 154.136383 339.051869 
L 158.609619 338.719223 
L 163.082856 338.313999 
L 167.556093 337.836197 
L 172.029329 337.364444 
L 176.502566 336.711246 
L 180.975803 335.870558 
L 185.449039 334.836329 
L 189.922276 333.60856 
L 194.395513 332.277974 
L 198.868749 330.5845 
L 203.341986 328.534187 
L 207.815223 326.084698 
L 212.288459 323.562631 
L 216.761696 320.441801 
L 221.234933 316.97018 
L 225.708169 313.057045 
L 230.181406 308.629821 
L 234.654643 303.60988 
L 239.127879 298.015369 
L 243.601116 291.937007 
L 248.074353 285.356651 
L 252.547589 278.322687 
L 257.020826 270.823017 
L 261.494063 262.652005 
L 265.967299 253.537487 
L 270.440536 244.549979 
L 274.913773 234.752023 
L 279.387009 225.183896 
L 283.860246 215.089582 
L 288.333483 204.898498 
L 292.806719 194.695318 
L 297.279956 183.881278 
L 301.753192 173.448269 
L 306.226429 163.057597 
L 310.699666 152.763696 
L 315.172902 143.110894 
L 319.646139 133.282698 
L 324.119376 124.059313 
L 328.592612 115.434693 
L 333.065849 107.535847 
L 337.539086 100.042225 
L 342.012322 92.711902 
L 346.485559 86.198076 
L 350.958796 80.028993 
L 355.432032 74.271182 
L 359.905269 69.48107 
L 364.378506 64.799824 
L 368.851742 60.40284 
L 373.324979 56.907026 
L 377.798216 54.06441 
L 382.271452 51.403236 
L 386.744689 49.10495 
L 391.217926 47.024397 
L 395.691162 45.270442 
L 400.164399 43.861229 
L 404.637636 42.760471 
L 409.110872 41.696002 
L 413.584109 40.758543 
L 418.057346 40.081154 
L 422.530582 39.561015 
L 427.003819 39.016685 
L 431.477056 38.702182 
L 435.950292 38.375584 
L 440.423529 38.188092 
L 444.896765 38.012696 
L 449.370002 37.90383 
L 453.843239 37.770772 
L 458.316475 37.698194 
L 462.789712 37.643761 
L 467.262949 37.589328 
L 471.736185 37.565136 
L 476.209422 37.522799 
L 480.682659 37.492558 
L 485.155895 37.480462 
L 489.629132 37.450221 
L 494.102369 37.444173 
L 498.575605 37.444173 
L 503.048842 37.444173 
L 507.522079 37.444173 
L 511.995315 37.438125 
" clip-path="url(#p3e5b19d557)" style="fill: none; stroke: #008000; stroke-width: 1.5; stroke-linecap: square"/>
   </g>
   <g id="patch_3">
    <path d="M 43.78125 354.958125 
L 43.78125 22.318125 
" style="fill: none; stroke: #000000; stroke-width: 0.8; stroke-linejoin: miter; stroke-linecap: square"/>
   </g>
   <g id="patch_4">
    <path d="M 601.78125 354.958125 
L 601.78125 22.318125 
" style="fill: none; stroke: #000000; stroke-width: 0.8; stroke-linejoin: miter; stroke-linecap: square"/>
   </g>
   <g id="patch_5">
    <path d="M 43.78125 354.958125 
L 601.78125 354.958125 
" style="fill: none; stroke: #000000; stroke-width: 0.8; stroke-linejoin: miter; stroke-linecap: square"/>
   </g>
   <g id="patch_6">
    <path d="M 43.78125 22.318125 
L 601.78125 22.318125 
" style="fill: none; stroke: #000000; stroke-width: 0.8; stroke-linejoin: miter; stroke-linecap: square"/>
   </g>
   <g id="text_17">
    <!-- Cumulative Plots of Purchase Amounts for Three Treatment Groups -->
    <g transform="translate(121.77375 16.318125) scale(0.12 -0.12)">
     <defs>
      <path id="DejaVuSans-66" d="M 2375 4863 
L 2375 4384 
L 1825 4384 
Q 1516 4384 1395 4259 
Q 1275 4134 1275 3809 
L 1275 3500 
L 2222 3500 
L 2222 3053 
L 1275 3053 
L 1275 0 
L 697 0 
L 697 3053 
L 147 3053 
L 147 3500 
L 697 3500 
L 697 3744 
Q 697 4328 969 4595 
Q 1241 4863 1831 4863 
L 2375 4863 
z
" transform="scale(0.015625)"/>
      <path id="DejaVuSans-54" d="M -19 4666 
L 3928 4666 
L 3928 4134 
L 2272 4134 
L 2272 0 
L 1638 0 
L 1638 4134 
L -19 4134 
L -19 4666 
z
" transform="scale(0.015625)"/>
      <path id="DejaVuSans-47" d="M 3809 666 
L 3809 1919 
L 2778 1919 
L 2778 2438 
L 4434 2438 
L 4434 434 
Q 4069 175 3628 42 
Q 3188 -91 2688 -91 
Q 1594 -91 976 548 
Q 359 1188 359 2328 
Q 359 3472 976 4111 
Q 1594 4750 2688 4750 
Q 3144 4750 3555 4637 
Q 3966 4525 4313 4306 
L 4313 3634 
Q 3963 3931 3569 4081 
Q 3175 4231 2741 4231 
Q 1884 4231 1454 3753 
Q 1025 3275 1025 2328 
Q 1025 1384 1454 906 
Q 1884 428 2741 428 
Q 3075 428 3337 486 
Q 3600 544 3809 666 
z
" transform="scale(0.015625)"/>
      <path id="DejaVuSans-70" d="M 1159 525 
L 1159 -1331 
L 581 -1331 
L 581 3500 
L 1159 3500 
L 1159 2969 
Q 1341 3281 1617 3432 
Q 1894 3584 2278 3584 
Q 2916 3584 3314 3078 
Q 3713 2572 3713 1747 
Q 3713 922 3314 415 
Q 2916 -91 2278 -91 
Q 1894 -91 1617 61 
Q 1341 213 1159 525 
z
M 3116 1747 
Q 3116 2381 2855 2742 
Q 2594 3103 2138 3103 
Q 1681 3103 1420 2742 
Q 1159 2381 1159 1747 
Q 1159 1113 1420 752 
Q 1681 391 2138 391 
Q 2594 391 2855 752 
Q 3116 1113 3116 1747 
z
" transform="scale(0.015625)"/>
     </defs>
     <use xlink:href="#DejaVuSans-43"/>
     <use xlink:href="#DejaVuSans-75" x="69.824219"/>
     <use xlink:href="#DejaVuSans-6d" x="133.203125"/>
     <use xlink:href="#DejaVuSans-75" x="230.615234"/>
     <use xlink:href="#DejaVuSans-6c" x="293.994141"/>
     <use xlink:href="#DejaVuSans-61" x="321.777344"/>
     <use xlink:href="#DejaVuSans-74" x="383.056641"/>
     <use xlink:href="#DejaVuSans-69" x="422.265625"/>
     <use xlink:href="#DejaVuSans-76" x="450.048828"/>
     <use xlink:href="#DejaVuSans-65" x="509.228516"/>
     <use xlink:href="#DejaVuSans-20" x="570.751953"/>
     <use xlink:href="#DejaVuSans-50" x="602.539062"/>
     <use xlink:href="#DejaVuSans-6c" x="662.841797"/>
     <use xlink:href="#DejaVuSans-6f" x="690.625"/>
     <use xlink:href="#DejaVuSans-74" x="751.806641"/>
     <use xlink:href="#DejaVuSans-73" x="791.015625"/>
     <use xlink:href="#DejaVuSans-20" x="843.115234"/>
     <use xlink:href="#DejaVuSans-6f" x="874.902344"/>
     <use xlink:href="#DejaVuSans-66" x="936.083984"/>
     <use xlink:href="#DejaVuSans-20" x="971.289062"/>
     <use xlink:href="#DejaVuSans-50" x="1003.076172"/>
     <use xlink:href="#DejaVuSans-75" x="1061.628906"/>
     <use xlink:href="#DejaVuSans-72" x="1125.007812"/>
     <use xlink:href="#DejaVuSans-63" x="1163.871094"/>
     <use xlink:href="#DejaVuSans-68" x="1218.851562"/>
     <use xlink:href="#DejaVuSans-61" x="1282.230469"/>
     <use xlink:href="#DejaVuSans-73" x="1343.509766"/>
     <use xlink:href="#DejaVuSans-65" x="1395.609375"/>
     <use xlink:href="#DejaVuSans-20" x="1457.132812"/>
     <use xlink:href="#DejaVuSans-41" x="1488.919922"/>
     <use xlink:href="#DejaVuSans-6d" x="1557.328125"/>
     <use xlink:href="#DejaVuSans-6f" x="1654.740234"/>
     <use xlink:href="#DejaVuSans-75" x="1715.921875"/>
     <use xlink:href="#DejaVuSans-6e" x="1779.300781"/>
     <use xlink:href="#DejaVuSans-74" x="1842.679688"/>
     <use xlink:href="#DejaVuSans-73" x="1881.888672"/>
     <use xlink:href="#DejaVuSans-20" x="1933.988281"/>
     <use xlink:href="#DejaVuSans-66" x="1965.775391"/>
     <use xlink:href="#DejaVuSans-6f" x="2000.980469"/>
     <use xlink:href="#DejaVuSans-72" x="2062.162109"/>
     <use xlink:href="#DejaVuSans-20" x="2103.275391"/>
     <use xlink:href="#DejaVuSans-54" x="2135.0625"/>
     <use xlink:href="#DejaVuSans-68" x="2196.146484"/>
     <use xlink:href="#DejaVuSans-72" x="2259.525391"/>
     <use xlink:href="#DejaVuSans-65" x="2298.388672"/>
     <use xlink:href="#DejaVuSans-65" x="2359.912109"/>
     <use xlink:href="#DejaVuSans-20" x="2421.435547"/>
     <use xlink:href="#DejaVuSans-54" x="2453.222656"/>
     <use xlink:href="#DejaVuSans-72" x="2499.556641"/>
     <use xlink:href="#DejaVuSans-65" x="2538.419922"/>
     <use xlink:href="#DejaVuSans-61" x="2599.943359"/>
     <use xlink:href="#DejaVuSans-74" x="2661.222656"/>
     <use xlink:href="#DejaVuSans-6d" x="2700.431641"/>
     <use xlink:href="#DejaVuSans-65" x="2797.84375"/>
     <use xlink:href="#DejaVuSans-6e" x="2859.367188"/>
     <use xlink:href="#DejaVuSans-74" x="2922.746094"/>
     <use xlink:href="#DejaVuSans-20" x="2961.955078"/>
     <use xlink:href="#DejaVuSans-47" x="2993.742188"/>
     <use xlink:href="#DejaVuSans-72" x="3071.232422"/>
     <use xlink:href="#DejaVuSans-6f" x="3110.095703"/>
     <use xlink:href="#DejaVuSans-75" x="3171.277344"/>
     <use xlink:href="#DejaVuSans-70" x="3234.65625"/>
     <use xlink:href="#DejaVuSans-73" x="3298.132812"/>
    </g>
   </g>
   <g id="legend_1">
    <g id="patch_7">
     <path d="M 50.78125 75.186875 
L 123.16875 75.186875 
Q 125.16875 75.186875 125.16875 73.186875 
L 125.16875 29.318125 
Q 125.16875 27.318125 123.16875 27.318125 
L 50.78125 27.318125 
Q 48.78125 27.318125 48.78125 29.318125 
L 48.78125 73.186875 
Q 48.78125 75.186875 50.78125 75.186875 
z
" style="fill: #ffffff; opacity: 0.8; stroke: #cccccc; stroke-linejoin: miter"/>
    </g>
    <g id="line2d_18">
     <path d="M 52.78125 35.416562 
L 62.78125 35.416562 
L 72.78125 35.416562 
" style="fill: none; stroke: #0000ff; stroke-width: 1.5; stroke-linecap: square"/>
    </g>
    <g id="text_18">
     <!-- group_a -->
     <g transform="translate(80.78125 38.916562) scale(0.1 -0.1)">
      <defs>
       <path id="DejaVuSans-67" d="M 2906 1791 
Q 2906 2416 2648 2759 
Q 2391 3103 1925 3103 
Q 1463 3103 1205 2759 
Q 947 2416 947 1791 
Q 947 1169 1205 825 
Q 1463 481 1925 481 
Q 2391 481 2648 825 
Q 2906 1169 2906 1791 
z
M 3481 434 
Q 3481 -459 3084 -895 
Q 2688 -1331 1869 -1331 
Q 1566 -1331 1297 -1286 
Q 1028 -1241 775 -1147 
L 775 -588 
Q 1028 -725 1275 -790 
Q 1522 -856 1778 -856 
Q 2344 -856 2625 -561 
Q 2906 -266 2906 331 
L 2906 616 
Q 2728 306 2450 153 
Q 2172 0 1784 0 
Q 1141 0 747 490 
Q 353 981 353 1791 
Q 353 2603 747 3093 
Q 1141 3584 1784 3584 
Q 2172 3584 2450 3431 
Q 2728 3278 2906 2969 
L 2906 3500 
L 3481 3500 
L 3481 434 
z
" transform="scale(0.015625)"/>
       <path id="DejaVuSans-5f" d="M 3263 -1063 
L 3263 -1509 
L -63 -1509 
L -63 -1063 
L 3263 -1063 
z
" transform="scale(0.015625)"/>
      </defs>
      <use xlink:href="#DejaVuSans-67"/>
      <use xlink:href="#DejaVuSans-72" x="63.476562"/>
      <use xlink:href="#DejaVuSans-6f" x="102.339844"/>
      <use xlink:href="#DejaVuSans-75" x="163.521484"/>
      <use xlink:href="#DejaVuSans-70" x="226.900391"/>
      <use xlink:href="#DejaVuSans-5f" x="290.376953"/>
      <use xlink:href="#DejaVuSans-61" x="340.376953"/>
     </g>
    </g>
    <g id="line2d_19">
     <path d="M 52.78125 50.372813 
L 62.78125 50.372813 
L 72.78125 50.372813 
" style="fill: none; stroke: #ff0000; stroke-width: 1.5; stroke-linecap: square"/>
    </g>
    <g id="text_19">
     <!-- group_b -->
     <g transform="translate(80.78125 53.872813) scale(0.1 -0.1)">
      <defs>
       <path id="DejaVuSans-62" d="M 3116 1747 
Q 3116 2381 2855 2742 
Q 2594 3103 2138 3103 
Q 1681 3103 1420 2742 
Q 1159 2381 1159 1747 
Q 1159 1113 1420 752 
Q 1681 391 2138 391 
Q 2594 391 2855 752 
Q 3116 1113 3116 1747 
z
M 1159 2969 
Q 1341 3281 1617 3432 
Q 1894 3584 2278 3584 
Q 2916 3584 3314 3078 
Q 3713 2572 3713 1747 
Q 3713 922 3314 415 
Q 2916 -91 2278 -91 
Q 1894 -91 1617 61 
Q 1341 213 1159 525 
L 1159 0 
L 581 0 
L 581 4863 
L 1159 4863 
L 1159 2969 
z
" transform="scale(0.015625)"/>
      </defs>
      <use xlink:href="#DejaVuSans-67"/>
      <use xlink:href="#DejaVuSans-72" x="63.476562"/>
      <use xlink:href="#DejaVuSans-6f" x="102.339844"/>
      <use xlink:href="#DejaVuSans-75" x="163.521484"/>
      <use xlink:href="#DejaVuSans-70" x="226.900391"/>
      <use xlink:href="#DejaVuSans-5f" x="290.376953"/>
      <use xlink:href="#DejaVuSans-62" x="340.376953"/>
     </g>
    </g>
    <g id="line2d_20">
     <path d="M 52.78125 65.329063 
L 62.78125 65.329063 
L 72.78125 65.329063 
" style="fill: none; stroke: #008000; stroke-width: 1.5; stroke-linecap: square"/>
    </g>
    <g id="text_20">
     <!-- group_c -->
     <g transform="translate(80.78125 68.829063) scale(0.1 -0.1)">
      <use xlink:href="#DejaVuSans-67"/>
      <use xlink:href="#DejaVuSans-72" x="63.476562"/>
      <use xlink:href="#DejaVuSans-6f" x="102.339844"/>
      <use xlink:href="#DejaVuSans-75" x="163.521484"/>
      <use xlink:href="#DejaVuSans-70" x="226.900391"/>
      <use xlink:href="#DejaVuSans-5f" x="290.376953"/>
      <use xlink:href="#DejaVuSans-63" x="340.376953"/>
     </g>
    </g>
   </g>
  </g>
 </g>
 <defs>
  <clipPath id="p3e5b19d557">
   <rect x="43.78125" y="22.318125" width="558" height="332.64"/>
  </clipPath>
 </defs>
</svg>
