<?xml version="1.0" encoding="utf-8" standalone="no"?>
<!DOCTYPE svg PUBLIC "-//W3C//DTD SVG 1.1//EN"
  "http://www.w3.org/Graphics/SVG/1.1/DTD/svg11.dtd">
<svg xmlns:xlink="http://www.w3.org/1999/xlink" width="720.58125pt" height="261.474375pt" viewBox="0 0 720.58125 261.474375" xmlns="http://www.w3.org/2000/svg" version="1.1">
 <metadata>
  <rdf:RDF xmlns:dc="http://purl.org/dc/elements/1.1/" xmlns:cc="http://creativecommons.org/ns#" xmlns:rdf="http://www.w3.org/1999/02/22-rdf-syntax-ns#">
   <cc:Work>
    <dc:type rdf:resource="http://purl.org/dc/dcmitype/StillImage"/>
    <dc:date>2023-09-12T00:15:14.506617</dc:date>
    <dc:format>image/svg+xml</dc:format>
    <dc:creator>
     <cc:Agent>
      <dc:title>Matplotlib v3.7.1, https://matplotlib.org/</dc:title>
     </cc:Agent>
    </dc:creator>
   </cc:Work>
  </rdf:RDF>
 </metadata>
 <defs>
  <style type="text/css">*{stroke-linejoin: round; stroke-linecap: butt}</style>
 </defs>
 <g id="figure_1">
  <g id="patch_1">
   <path d="M 0 261.474375 
L 720.58125 261.474375 
L 720.58125 0 
L 0 0 
z
" style="fill: #ffffff"/>
  </g>
  <g id="axes_1">
   <g id="patch_2">
    <path d="M 43.78125 223.918125 
L 348.144886 223.918125 
L 348.144886 22.318125 
L 43.78125 22.318125 
z
" style="fill: #ffffff"/>
   </g>
   <g id="PolyCollection_1">
    <defs>
     <path id="m1f3cf2faf2" d="M 57.615961 -37.55625 
L 57.615961 -37.55625 
L 64.05071 -37.55625 
L 64.05071 -37.55625 
L 70.485459 -37.55625 
L 70.485459 -37.55625 
L 76.920208 -37.55625 
L 76.920208 -37.55625 
L 83.354957 -37.55625 
L 83.354957 -37.55625 
L 89.789707 -37.55625 
L 89.789707 -37.55625 
L 96.224456 -37.55625 
L 96.224456 -37.55625 
L 102.659205 -37.55625 
L 102.659205 -37.55625 
L 109.093954 -37.55625 
L 109.093954 -37.55625 
L 115.528703 -37.55625 
L 115.528703 -37.55625 
L 121.963453 -37.55625 
L 121.963453 -37.55625 
L 128.398202 -37.55625 
L 128.398202 -37.55625 
L 134.832951 -37.55625 
L 134.832951 -37.55625 
L 141.2677 -37.55625 
L 141.2677 -37.55625 
L 147.702449 -37.55625 
L 147.702449 -37.55625 
L 154.137198 -37.55625 
L 154.137198 -37.55625 
L 160.571948 -37.55625 
L 160.571948 -37.55625 
L 167.006697 -37.55625 
L 167.006697 -37.55625 
L 173.441446 -37.55625 
L 173.441446 -37.55625 
L 179.876195 -37.55625 
L 179.876195 -37.55625 
L 186.310944 -37.55625 
L 186.310944 -37.55625 
L 192.745694 -37.55625 
L 192.745694 -37.55625 
L 199.180443 -37.55625 
L 199.180443 -37.55625 
L 205.615192 -37.55625 
L 205.615192 -37.55625 
L 212.049941 -37.55625 
L 212.049941 -37.55625 
L 218.48469 -37.55625 
L 218.48469 -37.55625 
L 224.91944 -37.55625 
L 224.91944 -37.55625 
L 231.354189 -37.55625 
L 231.354189 -37.55625 
L 237.788938 -37.55625 
L 237.788938 -37.55625 
L 244.223687 -37.55625 
L 244.223687 -37.55625 
L 250.658436 -37.55625 
L 250.658436 -37.55625 
L 257.093185 -37.55625 
L 257.093185 -37.55625 
L 263.527935 -37.55625 
L 263.527935 -37.55625 
L 269.962684 -37.55625 
L 269.962684 -37.55625 
L 276.397433 -37.55625 
L 276.397433 -37.55625 
L 282.832182 -37.55625 
L 282.832182 -37.55625 
L 289.266931 -37.55625 
L 289.266931 -37.55625 
L 295.701681 -37.55625 
L 295.701681 -37.55625 
L 302.13643 -37.55625 
L 302.13643 -37.55625 
L 308.571179 -37.55625 
L 308.571179 -37.55625 
L 315.005928 -37.55625 
L 315.005928 -37.55625 
L 321.440677 -37.55625 
L 321.440677 -37.55625 
L 327.875426 -37.55625 
L 327.875426 -37.55625 
L 334.310176 -37.55625 
L 334.310176 -37.55625 
L 334.310176 -40.276308 
L 334.310176 -40.276308 
L 334.310176 -40.276308 
L 327.875426 -40.276308 
L 327.875426 -37.55625 
L 321.440677 -37.55625 
L 321.440677 -40.276308 
L 315.005928 -40.276308 
L 315.005928 -40.276308 
L 308.571179 -40.276308 
L 308.571179 -45.716425 
L 302.13643 -45.716425 
L 302.13643 -45.716425 
L 295.701681 -45.716425 
L 295.701681 -45.716425 
L 289.266931 -45.716425 
L 289.266931 -53.876599 
L 282.832182 -53.876599 
L 282.832182 -48.436483 
L 276.397433 -48.436483 
L 276.397433 -67.47689 
L 269.962684 -67.47689 
L 269.962684 -72.917007 
L 263.527935 -72.917007 
L 263.527935 -59.316716 
L 257.093185 -59.316716 
L 257.093185 -94.677473 
L 250.658436 -94.677473 
L 250.658436 -119.157997 
L 244.223687 -119.157997 
L 244.223687 -110.997822 
L 237.788938 -110.997822 
L 237.788938 -119.157997 
L 231.354189 -119.157997 
L 231.354189 -110.997822 
L 224.91944 -110.997822 
L 224.91944 -102.837647 
L 218.48469 -102.837647 
L 218.48469 -116.437938 
L 212.049941 -116.437938 
L 212.049941 -121.878055 
L 205.615192 -121.878055 
L 205.615192 -127.318171 
L 199.180443 -127.318171 
L 199.180443 -132.758288 
L 192.745694 -132.758288 
L 192.745694 -110.997822 
L 186.310944 -110.997822 
L 186.310944 -100.117589 
L 179.876195 -100.117589 
L 179.876195 -102.837647 
L 173.441446 -102.837647 
L 173.441446 -108.277764 
L 167.006697 -108.277764 
L 167.006697 -105.557705 
L 160.571948 -105.557705 
L 160.571948 -67.47689 
L 154.137198 -67.47689 
L 154.137198 -83.79724 
L 147.702449 -83.79724 
L 147.702449 -72.917007 
L 141.2677 -72.917007 
L 141.2677 -51.156541 
L 134.832951 -51.156541 
L 134.832951 -56.596658 
L 128.398202 -56.596658 
L 128.398202 -53.876599 
L 121.963453 -53.876599 
L 121.963453 -51.156541 
L 115.528703 -51.156541 
L 115.528703 -45.716425 
L 109.093954 -45.716425 
L 109.093954 -42.996366 
L 102.659205 -42.996366 
L 102.659205 -40.276308 
L 96.224456 -40.276308 
L 96.224456 -37.55625 
L 89.789707 -37.55625 
L 89.789707 -37.55625 
L 83.354957 -37.55625 
L 83.354957 -40.276308 
L 76.920208 -40.276308 
L 76.920208 -42.996366 
L 70.485459 -42.996366 
L 70.485459 -37.55625 
L 64.05071 -37.55625 
L 64.05071 -37.55625 
L 57.615961 -37.55625 
z
" style="stroke: #ff7f0e"/>
    </defs>
    <g clip-path="url(#p0dac0de93b)">
     <use xlink:href="#m1f3cf2faf2" x="0" y="261.474375" style="fill: #ff7f0e; fill-opacity: 0.25; stroke: #ff7f0e"/>
    </g>
   </g>
   <g id="PolyCollection_2">
    <defs>
     <path id="m2c1b488f27" d="M 57.615961 -37.711214 
L 57.615961 -37.55625 
L 64.05071 -37.55625 
L 64.05071 -37.55625 
L 70.485459 -37.55625 
L 70.485459 -37.55625 
L 76.920208 -37.55625 
L 76.920208 -37.55625 
L 83.354957 -37.55625 
L 83.354957 -37.55625 
L 89.789707 -37.55625 
L 89.789707 -37.55625 
L 96.224456 -37.55625 
L 96.224456 -37.55625 
L 102.659205 -37.55625 
L 102.659205 -37.55625 
L 109.093954 -37.55625 
L 109.093954 -37.55625 
L 115.528703 -37.55625 
L 115.528703 -37.55625 
L 121.963453 -37.55625 
L 121.963453 -37.55625 
L 128.398202 -37.55625 
L 128.398202 -37.55625 
L 134.832951 -37.55625 
L 134.832951 -37.55625 
L 141.2677 -37.55625 
L 141.2677 -37.55625 
L 147.702449 -37.55625 
L 147.702449 -37.55625 
L 154.137198 -37.55625 
L 154.137198 -37.55625 
L 160.571948 -37.55625 
L 160.571948 -37.55625 
L 167.006697 -37.55625 
L 167.006697 -37.55625 
L 173.441446 -37.55625 
L 173.441446 -37.55625 
L 179.876195 -37.55625 
L 179.876195 -37.55625 
L 186.310944 -37.55625 
L 186.310944 -37.55625 
L 192.745694 -37.55625 
L 192.745694 -37.55625 
L 199.180443 -37.55625 
L 199.180443 -37.55625 
L 205.615192 -37.55625 
L 205.615192 -37.55625 
L 212.049941 -37.55625 
L 212.049941 -37.55625 
L 218.48469 -37.55625 
L 218.48469 -37.55625 
L 224.91944 -37.55625 
L 224.91944 -37.55625 
L 231.354189 -37.55625 
L 231.354189 -37.55625 
L 237.788938 -37.55625 
L 237.788938 -37.55625 
L 244.223687 -37.55625 
L 244.223687 -37.55625 
L 250.658436 -37.55625 
L 250.658436 -37.55625 
L 257.093185 -37.55625 
L 257.093185 -37.55625 
L 263.527935 -37.55625 
L 263.527935 -37.55625 
L 269.962684 -37.55625 
L 269.962684 -37.55625 
L 276.397433 -37.55625 
L 276.397433 -37.55625 
L 282.832182 -37.55625 
L 282.832182 -37.55625 
L 289.266931 -37.55625 
L 289.266931 -37.55625 
L 295.701681 -37.55625 
L 295.701681 -37.55625 
L 302.13643 -37.55625 
L 302.13643 -37.55625 
L 308.571179 -37.55625 
L 308.571179 -37.55625 
L 315.005928 -37.55625 
L 315.005928 -37.55625 
L 321.440677 -37.55625 
L 321.440677 -37.55625 
L 327.875426 -37.55625 
L 327.875426 -37.55625 
L 334.310176 -37.55625 
L 334.310176 -37.55625 
L 334.310176 -37.55625 
L 334.310176 -37.55625 
L 334.310176 -37.55625 
L 327.875426 -37.55625 
L 327.875426 -37.55625 
L 321.440677 -37.55625 
L 321.440677 -37.55625 
L 315.005928 -37.55625 
L 315.005928 -37.55625 
L 308.571179 -37.55625 
L 308.571179 -37.55625 
L 302.13643 -37.55625 
L 302.13643 -37.55625 
L 295.701681 -37.55625 
L 295.701681 -37.55625 
L 289.266931 -37.55625 
L 289.266931 -37.55625 
L 282.832182 -37.55625 
L 282.832182 -37.711214 
L 276.397433 -37.711214 
L 276.397433 -37.711214 
L 269.962684 -37.711214 
L 269.962684 -38.176105 
L 263.527935 -38.176105 
L 263.527935 -42.979979 
L 257.093185 -42.979979 
L 257.093185 -66.534458 
L 250.658436 -66.534458 
L 250.658436 -120.771746 
L 244.223687 -120.771746 
L 244.223687 -204.917025 
L 237.788938 -204.917025 
L 237.788938 -229.55625 
L 231.354189 -229.55625 
L 231.354189 -195.774168 
L 224.91944 -195.774168 
L 224.91944 -118.912182 
L 218.48469 -118.912182 
L 218.48469 -71.028405 
L 212.049941 -71.028405 
L 212.049941 -60.335911 
L 205.615192 -60.335911 
L 205.615192 -60.490875 
L 199.180443 -60.490875 
L 199.180443 -68.858913 
L 192.745694 -68.858913 
L 192.745694 -81.565935 
L 186.310944 -81.565935 
L 186.310944 -93.343175 
L 179.876195 -93.343175 
L 179.876195 -98.766904 
L 173.441446 -98.766904 
L 173.441446 -108.684579 
L 167.006697 -108.684579 
L 167.006697 -112.868599 
L 160.571948 -112.868599 
L 160.571948 -110.079252 
L 154.137198 -110.079252 
L 154.137198 -101.246323 
L 147.702449 -101.246323 
L 147.702449 -92.413393 
L 141.2677 -92.413393 
L 141.2677 -82.030826 
L 134.832951 -82.030826 
L 134.832951 -70.873441 
L 128.398202 -70.873441 
L 128.398202 -62.81533 
L 121.963453 -62.81533 
L 121.963453 -53.827436 
L 115.528703 -53.827436 
L 115.528703 -46.699107 
L 109.093954 -46.699107 
L 109.093954 -42.050197 
L 102.659205 -42.050197 
L 102.659205 -40.655524 
L 96.224456 -40.655524 
L 96.224456 -39.415814 
L 89.789707 -39.415814 
L 89.789707 -38.640996 
L 83.354957 -38.640996 
L 83.354957 -37.866177 
L 76.920208 -37.866177 
L 76.920208 -37.711214 
L 70.485459 -37.711214 
L 70.485459 -37.55625 
L 64.05071 -37.55625 
L 64.05071 -37.711214 
L 57.615961 -37.711214 
z
" style="stroke: #1f77b4"/>
    </defs>
    <g clip-path="url(#p0dac0de93b)">
     <use xlink:href="#m2c1b488f27" x="0" y="261.474375" style="fill: #1f77b4; fill-opacity: 0.25; stroke: #1f77b4"/>
    </g>
   </g>
   <g id="matplotlib.axis_1">
    <g id="xtick_1">
     <g id="line2d_1">
      <defs>
       <path id="m77235669c0" d="M 0 0 
L 0 3.5 
" style="stroke: #000000; stroke-width: 0.8"/>
      </defs>
      <g>
       <use xlink:href="#m77235669c0" x="72.633912" y="223.918125" style="stroke: #000000; stroke-width: 0.8"/>
      </g>
     </g>
     <g id="text_1">
      <!-- 26 -->
      <g transform="translate(66.271412 238.516562) scale(0.1 -0.1)">
       <defs>
        <path id="DejaVuSans-32" d="M 1228 531 
L 3431 531 
L 3431 0 
L 469 0 
L 469 531 
Q 828 903 1448 1529 
Q 2069 2156 2228 2338 
Q 2531 2678 2651 2914 
Q 2772 3150 2772 3378 
Q 2772 3750 2511 3984 
Q 2250 4219 1831 4219 
Q 1534 4219 1204 4116 
Q 875 4013 500 3803 
L 500 4441 
Q 881 4594 1212 4672 
Q 1544 4750 1819 4750 
Q 2544 4750 2975 4387 
Q 3406 4025 3406 3419 
Q 3406 3131 3298 2873 
Q 3191 2616 2906 2266 
Q 2828 2175 2409 1742 
Q 1991 1309 1228 531 
z
" transform="scale(0.015625)"/>
        <path id="DejaVuSans-36" d="M 2113 2584 
Q 1688 2584 1439 2293 
Q 1191 2003 1191 1497 
Q 1191 994 1439 701 
Q 1688 409 2113 409 
Q 2538 409 2786 701 
Q 3034 994 3034 1497 
Q 3034 2003 2786 2293 
Q 2538 2584 2113 2584 
z
M 3366 4563 
L 3366 3988 
Q 3128 4100 2886 4159 
Q 2644 4219 2406 4219 
Q 1781 4219 1451 3797 
Q 1122 3375 1075 2522 
Q 1259 2794 1537 2939 
Q 1816 3084 2150 3084 
Q 2853 3084 3261 2657 
Q 3669 2231 3669 1497 
Q 3669 778 3244 343 
Q 2819 -91 2113 -91 
Q 1303 -91 875 529 
Q 447 1150 447 2328 
Q 447 3434 972 4092 
Q 1497 4750 2381 4750 
Q 2619 4750 2861 4703 
Q 3103 4656 3366 4563 
z
" transform="scale(0.015625)"/>
       </defs>
       <use xlink:href="#DejaVuSans-32"/>
       <use xlink:href="#DejaVuSans-36" x="63.623047"/>
      </g>
     </g>
    </g>
    <g id="xtick_2">
     <g id="line2d_2">
      <g>
       <use xlink:href="#m77235669c0" x="123.400309" y="223.918125" style="stroke: #000000; stroke-width: 0.8"/>
      </g>
     </g>
     <g id="text_2">
      <!-- 28 -->
      <g transform="translate(117.037809 238.516562) scale(0.1 -0.1)">
       <defs>
        <path id="DejaVuSans-38" d="M 2034 2216 
Q 1584 2216 1326 1975 
Q 1069 1734 1069 1313 
Q 1069 891 1326 650 
Q 1584 409 2034 409 
Q 2484 409 2743 651 
Q 3003 894 3003 1313 
Q 3003 1734 2745 1975 
Q 2488 2216 2034 2216 
z
M 1403 2484 
Q 997 2584 770 2862 
Q 544 3141 544 3541 
Q 544 4100 942 4425 
Q 1341 4750 2034 4750 
Q 2731 4750 3128 4425 
Q 3525 4100 3525 3541 
Q 3525 3141 3298 2862 
Q 3072 2584 2669 2484 
Q 3125 2378 3379 2068 
Q 3634 1759 3634 1313 
Q 3634 634 3220 271 
Q 2806 -91 2034 -91 
Q 1263 -91 848 271 
Q 434 634 434 1313 
Q 434 1759 690 2068 
Q 947 2378 1403 2484 
z
M 1172 3481 
Q 1172 3119 1398 2916 
Q 1625 2713 2034 2713 
Q 2441 2713 2670 2916 
Q 2900 3119 2900 3481 
Q 2900 3844 2670 4047 
Q 2441 4250 2034 4250 
Q 1625 4250 1398 4047 
Q 1172 3844 1172 3481 
z
" transform="scale(0.015625)"/>
       </defs>
       <use xlink:href="#DejaVuSans-32"/>
       <use xlink:href="#DejaVuSans-38" x="63.623047"/>
      </g>
     </g>
    </g>
    <g id="xtick_3">
     <g id="line2d_3">
      <g>
       <use xlink:href="#m77235669c0" x="174.166707" y="223.918125" style="stroke: #000000; stroke-width: 0.8"/>
      </g>
     </g>
     <g id="text_3">
      <!-- 30 -->
      <g transform="translate(167.804207 238.516562) scale(0.1 -0.1)">
       <defs>
        <path id="DejaVuSans-33" d="M 2597 2516 
Q 3050 2419 3304 2112 
Q 3559 1806 3559 1356 
Q 3559 666 3084 287 
Q 2609 -91 1734 -91 
Q 1441 -91 1130 -33 
Q 819 25 488 141 
L 488 750 
Q 750 597 1062 519 
Q 1375 441 1716 441 
Q 2309 441 2620 675 
Q 2931 909 2931 1356 
Q 2931 1769 2642 2001 
Q 2353 2234 1838 2234 
L 1294 2234 
L 1294 2753 
L 1863 2753 
Q 2328 2753 2575 2939 
Q 2822 3125 2822 3475 
Q 2822 3834 2567 4026 
Q 2313 4219 1838 4219 
Q 1578 4219 1281 4162 
Q 984 4106 628 3988 
L 628 4550 
Q 988 4650 1302 4700 
Q 1616 4750 1894 4750 
Q 2613 4750 3031 4423 
Q 3450 4097 3450 3541 
Q 3450 3153 3228 2886 
Q 3006 2619 2597 2516 
z
" transform="scale(0.015625)"/>
        <path id="DejaVuSans-30" d="M 2034 4250 
Q 1547 4250 1301 3770 
Q 1056 3291 1056 2328 
Q 1056 1369 1301 889 
Q 1547 409 2034 409 
Q 2525 409 2770 889 
Q 3016 1369 3016 2328 
Q 3016 3291 2770 3770 
Q 2525 4250 2034 4250 
z
M 2034 4750 
Q 2819 4750 3233 4129 
Q 3647 3509 3647 2328 
Q 3647 1150 3233 529 
Q 2819 -91 2034 -91 
Q 1250 -91 836 529 
Q 422 1150 422 2328 
Q 422 3509 836 4129 
Q 1250 4750 2034 4750 
z
" transform="scale(0.015625)"/>
       </defs>
       <use xlink:href="#DejaVuSans-33"/>
       <use xlink:href="#DejaVuSans-30" x="63.623047"/>
      </g>
     </g>
    </g>
    <g id="xtick_4">
     <g id="line2d_4">
      <g>
       <use xlink:href="#m77235669c0" x="224.933104" y="223.918125" style="stroke: #000000; stroke-width: 0.8"/>
      </g>
     </g>
     <g id="text_4">
      <!-- 32 -->
      <g transform="translate(218.570604 238.516562) scale(0.1 -0.1)">
       <use xlink:href="#DejaVuSans-33"/>
       <use xlink:href="#DejaVuSans-32" x="63.623047"/>
      </g>
     </g>
    </g>
    <g id="xtick_5">
     <g id="line2d_5">
      <g>
       <use xlink:href="#m77235669c0" x="275.699501" y="223.918125" style="stroke: #000000; stroke-width: 0.8"/>
      </g>
     </g>
     <g id="text_5">
      <!-- 34 -->
      <g transform="translate(269.337001 238.516562) scale(0.1 -0.1)">
       <defs>
        <path id="DejaVuSans-34" d="M 2419 4116 
L 825 1625 
L 2419 1625 
L 2419 4116 
z
M 2253 4666 
L 3047 4666 
L 3047 1625 
L 3713 1625 
L 3713 1100 
L 3047 1100 
L 3047 0 
L 2419 0 
L 2419 1100 
L 313 1100 
L 313 1709 
L 2253 4666 
z
" transform="scale(0.015625)"/>
       </defs>
       <use xlink:href="#DejaVuSans-33"/>
       <use xlink:href="#DejaVuSans-34" x="63.623047"/>
      </g>
     </g>
    </g>
    <g id="xtick_6">
     <g id="line2d_6">
      <g>
       <use xlink:href="#m77235669c0" x="326.465898" y="223.918125" style="stroke: #000000; stroke-width: 0.8"/>
      </g>
     </g>
     <g id="text_6">
      <!-- 36 -->
      <g transform="translate(320.103398 238.516562) scale(0.1 -0.1)">
       <use xlink:href="#DejaVuSans-33"/>
       <use xlink:href="#DejaVuSans-36" x="63.623047"/>
      </g>
     </g>
    </g>
    <g id="text_7">
     <!-- LengthofRelationshipDays -->
     <g transform="translate(130.725568 252.194687) scale(0.1 -0.1)">
      <defs>
       <path id="DejaVuSans-4c" d="M 628 4666 
L 1259 4666 
L 1259 531 
L 3531 531 
L 3531 0 
L 628 0 
L 628 4666 
z
" transform="scale(0.015625)"/>
       <path id="DejaVuSans-65" d="M 3597 1894 
L 3597 1613 
L 953 1613 
Q 991 1019 1311 708 
Q 1631 397 2203 397 
Q 2534 397 2845 478 
Q 3156 559 3463 722 
L 3463 178 
Q 3153 47 2828 -22 
Q 2503 -91 2169 -91 
Q 1331 -91 842 396 
Q 353 884 353 1716 
Q 353 2575 817 3079 
Q 1281 3584 2069 3584 
Q 2775 3584 3186 3129 
Q 3597 2675 3597 1894 
z
M 3022 2063 
Q 3016 2534 2758 2815 
Q 2500 3097 2075 3097 
Q 1594 3097 1305 2825 
Q 1016 2553 972 2059 
L 3022 2063 
z
" transform="scale(0.015625)"/>
       <path id="DejaVuSans-6e" d="M 3513 2113 
L 3513 0 
L 2938 0 
L 2938 2094 
Q 2938 2591 2744 2837 
Q 2550 3084 2163 3084 
Q 1697 3084 1428 2787 
Q 1159 2491 1159 1978 
L 1159 0 
L 581 0 
L 581 3500 
L 1159 3500 
L 1159 2956 
Q 1366 3272 1645 3428 
Q 1925 3584 2291 3584 
Q 2894 3584 3203 3211 
Q 3513 2838 3513 2113 
z
" transform="scale(0.015625)"/>
       <path id="DejaVuSans-67" d="M 2906 1791 
Q 2906 2416 2648 2759 
Q 2391 3103 1925 3103 
Q 1463 3103 1205 2759 
Q 947 2416 947 1791 
Q 947 1169 1205 825 
Q 1463 481 1925 481 
Q 2391 481 2648 825 
Q 2906 1169 2906 1791 
z
M 3481 434 
Q 3481 -459 3084 -895 
Q 2688 -1331 1869 -1331 
Q 1566 -1331 1297 -1286 
Q 1028 -1241 775 -1147 
L 775 -588 
Q 1028 -725 1275 -790 
Q 1522 -856 1778 -856 
Q 2344 -856 2625 -561 
Q 2906 -266 2906 331 
L 2906 616 
Q 2728 306 2450 153 
Q 2172 0 1784 0 
Q 1141 0 747 490 
Q 353 981 353 1791 
Q 353 2603 747 3093 
Q 1141 3584 1784 3584 
Q 2172 3584 2450 3431 
Q 2728 3278 2906 2969 
L 2906 3500 
L 3481 3500 
L 3481 434 
z
" transform="scale(0.015625)"/>
       <path id="DejaVuSans-74" d="M 1172 4494 
L 1172 3500 
L 2356 3500 
L 2356 3053 
L 1172 3053 
L 1172 1153 
Q 1172 725 1289 603 
Q 1406 481 1766 481 
L 2356 481 
L 2356 0 
L 1766 0 
Q 1100 0 847 248 
Q 594 497 594 1153 
L 594 3053 
L 172 3053 
L 172 3500 
L 594 3500 
L 594 4494 
L 1172 4494 
z
" transform="scale(0.015625)"/>
       <path id="DejaVuSans-68" d="M 3513 2113 
L 3513 0 
L 2938 0 
L 2938 2094 
Q 2938 2591 2744 2837 
Q 2550 3084 2163 3084 
Q 1697 3084 1428 2787 
Q 1159 2491 1159 1978 
L 1159 0 
L 581 0 
L 581 4863 
L 1159 4863 
L 1159 2956 
Q 1366 3272 1645 3428 
Q 1925 3584 2291 3584 
Q 2894 3584 3203 3211 
Q 3513 2838 3513 2113 
z
" transform="scale(0.015625)"/>
       <path id="DejaVuSans-6f" d="M 1959 3097 
Q 1497 3097 1228 2736 
Q 959 2375 959 1747 
Q 959 1119 1226 758 
Q 1494 397 1959 397 
Q 2419 397 2687 759 
Q 2956 1122 2956 1747 
Q 2956 2369 2687 2733 
Q 2419 3097 1959 3097 
z
M 1959 3584 
Q 2709 3584 3137 3096 
Q 3566 2609 3566 1747 
Q 3566 888 3137 398 
Q 2709 -91 1959 -91 
Q 1206 -91 779 398 
Q 353 888 353 1747 
Q 353 2609 779 3096 
Q 1206 3584 1959 3584 
z
" transform="scale(0.015625)"/>
       <path id="DejaVuSans-66" d="M 2375 4863 
L 2375 4384 
L 1825 4384 
Q 1516 4384 1395 4259 
Q 1275 4134 1275 3809 
L 1275 3500 
L 2222 3500 
L 2222 3053 
L 1275 3053 
L 1275 0 
L 697 0 
L 697 3053 
L 147 3053 
L 147 3500 
L 697 3500 
L 697 3744 
Q 697 4328 969 4595 
Q 1241 4863 1831 4863 
L 2375 4863 
z
" transform="scale(0.015625)"/>
       <path id="DejaVuSans-52" d="M 2841 2188 
Q 3044 2119 3236 1894 
Q 3428 1669 3622 1275 
L 4263 0 
L 3584 0 
L 2988 1197 
Q 2756 1666 2539 1819 
Q 2322 1972 1947 1972 
L 1259 1972 
L 1259 0 
L 628 0 
L 628 4666 
L 2053 4666 
Q 2853 4666 3247 4331 
Q 3641 3997 3641 3322 
Q 3641 2881 3436 2590 
Q 3231 2300 2841 2188 
z
M 1259 4147 
L 1259 2491 
L 2053 2491 
Q 2509 2491 2742 2702 
Q 2975 2913 2975 3322 
Q 2975 3731 2742 3939 
Q 2509 4147 2053 4147 
L 1259 4147 
z
" transform="scale(0.015625)"/>
       <path id="DejaVuSans-6c" d="M 603 4863 
L 1178 4863 
L 1178 0 
L 603 0 
L 603 4863 
z
" transform="scale(0.015625)"/>
       <path id="DejaVuSans-61" d="M 2194 1759 
Q 1497 1759 1228 1600 
Q 959 1441 959 1056 
Q 959 750 1161 570 
Q 1363 391 1709 391 
Q 2188 391 2477 730 
Q 2766 1069 2766 1631 
L 2766 1759 
L 2194 1759 
z
M 3341 1997 
L 3341 0 
L 2766 0 
L 2766 531 
Q 2569 213 2275 61 
Q 1981 -91 1556 -91 
Q 1019 -91 701 211 
Q 384 513 384 1019 
Q 384 1609 779 1909 
Q 1175 2209 1959 2209 
L 2766 2209 
L 2766 2266 
Q 2766 2663 2505 2880 
Q 2244 3097 1772 3097 
Q 1472 3097 1187 3025 
Q 903 2953 641 2809 
L 641 3341 
Q 956 3463 1253 3523 
Q 1550 3584 1831 3584 
Q 2591 3584 2966 3190 
Q 3341 2797 3341 1997 
z
" transform="scale(0.015625)"/>
       <path id="DejaVuSans-69" d="M 603 3500 
L 1178 3500 
L 1178 0 
L 603 0 
L 603 3500 
z
M 603 4863 
L 1178 4863 
L 1178 4134 
L 603 4134 
L 603 4863 
z
" transform="scale(0.015625)"/>
       <path id="DejaVuSans-73" d="M 2834 3397 
L 2834 2853 
Q 2591 2978 2328 3040 
Q 2066 3103 1784 3103 
Q 1356 3103 1142 2972 
Q 928 2841 928 2578 
Q 928 2378 1081 2264 
Q 1234 2150 1697 2047 
L 1894 2003 
Q 2506 1872 2764 1633 
Q 3022 1394 3022 966 
Q 3022 478 2636 193 
Q 2250 -91 1575 -91 
Q 1294 -91 989 -36 
Q 684 19 347 128 
L 347 722 
Q 666 556 975 473 
Q 1284 391 1588 391 
Q 1994 391 2212 530 
Q 2431 669 2431 922 
Q 2431 1156 2273 1281 
Q 2116 1406 1581 1522 
L 1381 1569 
Q 847 1681 609 1914 
Q 372 2147 372 2553 
Q 372 3047 722 3315 
Q 1072 3584 1716 3584 
Q 2034 3584 2315 3537 
Q 2597 3491 2834 3397 
z
" transform="scale(0.015625)"/>
       <path id="DejaVuSans-70" d="M 1159 525 
L 1159 -1331 
L 581 -1331 
L 581 3500 
L 1159 3500 
L 1159 2969 
Q 1341 3281 1617 3432 
Q 1894 3584 2278 3584 
Q 2916 3584 3314 3078 
Q 3713 2572 3713 1747 
Q 3713 922 3314 415 
Q 2916 -91 2278 -91 
Q 1894 -91 1617 61 
Q 1341 213 1159 525 
z
M 3116 1747 
Q 3116 2381 2855 2742 
Q 2594 3103 2138 3103 
Q 1681 3103 1420 2742 
Q 1159 2381 1159 1747 
Q 1159 1113 1420 752 
Q 1681 391 2138 391 
Q 2594 391 2855 752 
Q 3116 1113 3116 1747 
z
" transform="scale(0.015625)"/>
       <path id="DejaVuSans-44" d="M 1259 4147 
L 1259 519 
L 2022 519 
Q 2988 519 3436 956 
Q 3884 1394 3884 2338 
Q 3884 3275 3436 3711 
Q 2988 4147 2022 4147 
L 1259 4147 
z
M 628 4666 
L 1925 4666 
Q 3281 4666 3915 4102 
Q 4550 3538 4550 2338 
Q 4550 1131 3912 565 
Q 3275 0 1925 0 
L 628 0 
L 628 4666 
z
" transform="scale(0.015625)"/>
       <path id="DejaVuSans-79" d="M 2059 -325 
Q 1816 -950 1584 -1140 
Q 1353 -1331 966 -1331 
L 506 -1331 
L 506 -850 
L 844 -850 
Q 1081 -850 1212 -737 
Q 1344 -625 1503 -206 
L 1606 56 
L 191 3500 
L 800 3500 
L 1894 763 
L 2988 3500 
L 3597 3500 
L 2059 -325 
z
" transform="scale(0.015625)"/>
      </defs>
      <use xlink:href="#DejaVuSans-4c"/>
      <use xlink:href="#DejaVuSans-65" x="53.962891"/>
      <use xlink:href="#DejaVuSans-6e" x="115.486328"/>
      <use xlink:href="#DejaVuSans-67" x="178.865234"/>
      <use xlink:href="#DejaVuSans-74" x="242.341797"/>
      <use xlink:href="#DejaVuSans-68" x="281.550781"/>
      <use xlink:href="#DejaVuSans-6f" x="344.929688"/>
      <use xlink:href="#DejaVuSans-66" x="406.111328"/>
      <use xlink:href="#DejaVuSans-52" x="441.316406"/>
      <use xlink:href="#DejaVuSans-65" x="506.298828"/>
      <use xlink:href="#DejaVuSans-6c" x="567.822266"/>
      <use xlink:href="#DejaVuSans-61" x="595.605469"/>
      <use xlink:href="#DejaVuSans-74" x="656.884766"/>
      <use xlink:href="#DejaVuSans-69" x="696.09375"/>
      <use xlink:href="#DejaVuSans-6f" x="723.876953"/>
      <use xlink:href="#DejaVuSans-6e" x="785.058594"/>
      <use xlink:href="#DejaVuSans-73" x="848.4375"/>
      <use xlink:href="#DejaVuSans-68" x="900.537109"/>
      <use xlink:href="#DejaVuSans-69" x="963.916016"/>
      <use xlink:href="#DejaVuSans-70" x="991.699219"/>
      <use xlink:href="#DejaVuSans-44" x="1055.175781"/>
      <use xlink:href="#DejaVuSans-61" x="1132.177734"/>
      <use xlink:href="#DejaVuSans-79" x="1193.457031"/>
      <use xlink:href="#DejaVuSans-73" x="1252.636719"/>
     </g>
    </g>
   </g>
   <g id="matplotlib.axis_2">
    <g id="ytick_1">
     <g id="line2d_7">
      <defs>
       <path id="m8aa7878259" d="M 0 0 
L -3.5 0 
" style="stroke: #000000; stroke-width: 0.8"/>
      </defs>
      <g>
       <use xlink:href="#m8aa7878259" x="43.78125" y="223.918125" style="stroke: #000000; stroke-width: 0.8"/>
      </g>
     </g>
     <g id="text_8">
      <!-- 0.0 -->
      <g transform="translate(20.878125 227.717344) scale(0.1 -0.1)">
       <defs>
        <path id="DejaVuSans-2e" d="M 684 794 
L 1344 794 
L 1344 0 
L 684 0 
L 684 794 
z
" transform="scale(0.015625)"/>
       </defs>
       <use xlink:href="#DejaVuSans-30"/>
       <use xlink:href="#DejaVuSans-2e" x="63.623047"/>
       <use xlink:href="#DejaVuSans-30" x="95.410156"/>
      </g>
     </g>
    </g>
    <g id="ytick_2">
     <g id="line2d_8">
      <g>
       <use xlink:href="#m8aa7878259" x="43.78125" y="186.751576" style="stroke: #000000; stroke-width: 0.8"/>
      </g>
     </g>
     <g id="text_9">
      <!-- 0.1 -->
      <g transform="translate(20.878125 190.550794) scale(0.1 -0.1)">
       <defs>
        <path id="DejaVuSans-31" d="M 794 531 
L 1825 531 
L 1825 4091 
L 703 3866 
L 703 4441 
L 1819 4666 
L 2450 4666 
L 2450 531 
L 3481 531 
L 3481 0 
L 794 0 
L 794 531 
z
" transform="scale(0.015625)"/>
       </defs>
       <use xlink:href="#DejaVuSans-30"/>
       <use xlink:href="#DejaVuSans-2e" x="63.623047"/>
       <use xlink:href="#DejaVuSans-31" x="95.410156"/>
      </g>
     </g>
    </g>
    <g id="ytick_3">
     <g id="line2d_9">
      <g>
       <use xlink:href="#m8aa7878259" x="43.78125" y="149.585026" style="stroke: #000000; stroke-width: 0.8"/>
      </g>
     </g>
     <g id="text_10">
      <!-- 0.2 -->
      <g transform="translate(20.878125 153.384245) scale(0.1 -0.1)">
       <use xlink:href="#DejaVuSans-30"/>
       <use xlink:href="#DejaVuSans-2e" x="63.623047"/>
       <use xlink:href="#DejaVuSans-32" x="95.410156"/>
      </g>
     </g>
    </g>
    <g id="ytick_4">
     <g id="line2d_10">
      <g>
       <use xlink:href="#m8aa7878259" x="43.78125" y="112.418477" style="stroke: #000000; stroke-width: 0.8"/>
      </g>
     </g>
     <g id="text_11">
      <!-- 0.3 -->
      <g transform="translate(20.878125 116.217696) scale(0.1 -0.1)">
       <use xlink:href="#DejaVuSans-30"/>
       <use xlink:href="#DejaVuSans-2e" x="63.623047"/>
       <use xlink:href="#DejaVuSans-33" x="95.410156"/>
      </g>
     </g>
    </g>
    <g id="ytick_5">
     <g id="line2d_11">
      <g>
       <use xlink:href="#m8aa7878259" x="43.78125" y="75.251928" style="stroke: #000000; stroke-width: 0.8"/>
      </g>
     </g>
     <g id="text_12">
      <!-- 0.4 -->
      <g transform="translate(20.878125 79.051147) scale(0.1 -0.1)">
       <use xlink:href="#DejaVuSans-30"/>
       <use xlink:href="#DejaVuSans-2e" x="63.623047"/>
       <use xlink:href="#DejaVuSans-34" x="95.410156"/>
      </g>
     </g>
    </g>
    <g id="ytick_6">
     <g id="line2d_12">
      <g>
       <use xlink:href="#m8aa7878259" x="43.78125" y="38.085379" style="stroke: #000000; stroke-width: 0.8"/>
      </g>
     </g>
     <g id="text_13">
      <!-- 0.5 -->
      <g transform="translate(20.878125 41.884597) scale(0.1 -0.1)">
       <defs>
        <path id="DejaVuSans-35" d="M 691 4666 
L 3169 4666 
L 3169 4134 
L 1269 4134 
L 1269 2991 
Q 1406 3038 1543 3061 
Q 1681 3084 1819 3084 
Q 2600 3084 3056 2656 
Q 3513 2228 3513 1497 
Q 3513 744 3044 326 
Q 2575 -91 1722 -91 
Q 1428 -91 1123 -41 
Q 819 9 494 109 
L 494 744 
Q 775 591 1075 516 
Q 1375 441 1709 441 
Q 2250 441 2565 725 
Q 2881 1009 2881 1497 
Q 2881 1984 2565 2268 
Q 2250 2553 1709 2553 
Q 1456 2553 1204 2497 
Q 953 2441 691 2322 
L 691 4666 
z
" transform="scale(0.015625)"/>
       </defs>
       <use xlink:href="#DejaVuSans-30"/>
       <use xlink:href="#DejaVuSans-2e" x="63.623047"/>
       <use xlink:href="#DejaVuSans-35" x="95.410156"/>
      </g>
     </g>
    </g>
    <g id="text_14">
     <!-- Density -->
     <g transform="translate(14.798438 142.126719) rotate(-90) scale(0.1 -0.1)">
      <use xlink:href="#DejaVuSans-44"/>
      <use xlink:href="#DejaVuSans-65" x="77.001953"/>
      <use xlink:href="#DejaVuSans-6e" x="138.525391"/>
      <use xlink:href="#DejaVuSans-73" x="201.904297"/>
      <use xlink:href="#DejaVuSans-69" x="254.003906"/>
      <use xlink:href="#DejaVuSans-74" x="281.787109"/>
      <use xlink:href="#DejaVuSans-79" x="320.996094"/>
     </g>
    </g>
   </g>
   <g id="line2d_13">
    <path d="M 174.166707 223.918125 
L 174.166707 22.318125 
" clip-path="url(#p0dac0de93b)" style="fill: none; stroke: #ff0000; stroke-width: 1.5; stroke-linecap: square"/>
   </g>
   <g id="patch_3">
    <path d="M 43.78125 223.918125 
L 43.78125 22.318125 
" style="fill: none; stroke: #000000; stroke-width: 0.8; stroke-linejoin: miter; stroke-linecap: square"/>
   </g>
   <g id="patch_4">
    <path d="M 348.144886 223.918125 
L 348.144886 22.318125 
" style="fill: none; stroke: #000000; stroke-width: 0.8; stroke-linejoin: miter; stroke-linecap: square"/>
   </g>
   <g id="patch_5">
    <path d="M 43.78125 223.918125 
L 348.144886 223.918125 
" style="fill: none; stroke: #000000; stroke-width: 0.8; stroke-linejoin: miter; stroke-linecap: square"/>
   </g>
   <g id="patch_6">
    <path d="M 43.78125 22.318125 
L 348.144886 22.318125 
" style="fill: none; stroke: #000000; stroke-width: 0.8; stroke-linejoin: miter; stroke-linecap: square"/>
   </g>
   <g id="text_15">
    <!-- Distribution of Length of Relationship -->
    <g transform="translate(84.238381 16.318125) scale(0.12 -0.12)">
     <defs>
      <path id="DejaVuSans-72" d="M 2631 2963 
Q 2534 3019 2420 3045 
Q 2306 3072 2169 3072 
Q 1681 3072 1420 2755 
Q 1159 2438 1159 1844 
L 1159 0 
L 581 0 
L 581 3500 
L 1159 3500 
L 1159 2956 
Q 1341 3275 1631 3429 
Q 1922 3584 2338 3584 
Q 2397 3584 2469 3576 
Q 2541 3569 2628 3553 
L 2631 2963 
z
" transform="scale(0.015625)"/>
      <path id="DejaVuSans-62" d="M 3116 1747 
Q 3116 2381 2855 2742 
Q 2594 3103 2138 3103 
Q 1681 3103 1420 2742 
Q 1159 2381 1159 1747 
Q 1159 1113 1420 752 
Q 1681 391 2138 391 
Q 2594 391 2855 752 
Q 3116 1113 3116 1747 
z
M 1159 2969 
Q 1341 3281 1617 3432 
Q 1894 3584 2278 3584 
Q 2916 3584 3314 3078 
Q 3713 2572 3713 1747 
Q 3713 922 3314 415 
Q 2916 -91 2278 -91 
Q 1894 -91 1617 61 
Q 1341 213 1159 525 
L 1159 0 
L 581 0 
L 581 4863 
L 1159 4863 
L 1159 2969 
z
" transform="scale(0.015625)"/>
      <path id="DejaVuSans-75" d="M 544 1381 
L 544 3500 
L 1119 3500 
L 1119 1403 
Q 1119 906 1312 657 
Q 1506 409 1894 409 
Q 2359 409 2629 706 
Q 2900 1003 2900 1516 
L 2900 3500 
L 3475 3500 
L 3475 0 
L 2900 0 
L 2900 538 
Q 2691 219 2414 64 
Q 2138 -91 1772 -91 
Q 1169 -91 856 284 
Q 544 659 544 1381 
z
M 1991 3584 
L 1991 3584 
z
" transform="scale(0.015625)"/>
      <path id="DejaVuSans-20" transform="scale(0.015625)"/>
     </defs>
     <use xlink:href="#DejaVuSans-44"/>
     <use xlink:href="#DejaVuSans-69" x="77.001953"/>
     <use xlink:href="#DejaVuSans-73" x="104.785156"/>
     <use xlink:href="#DejaVuSans-74" x="156.884766"/>
     <use xlink:href="#DejaVuSans-72" x="196.09375"/>
     <use xlink:href="#DejaVuSans-69" x="237.207031"/>
     <use xlink:href="#DejaVuSans-62" x="264.990234"/>
     <use xlink:href="#DejaVuSans-75" x="328.466797"/>
     <use xlink:href="#DejaVuSans-74" x="391.845703"/>
     <use xlink:href="#DejaVuSans-69" x="431.054688"/>
     <use xlink:href="#DejaVuSans-6f" x="458.837891"/>
     <use xlink:href="#DejaVuSans-6e" x="520.019531"/>
     <use xlink:href="#DejaVuSans-20" x="583.398438"/>
     <use xlink:href="#DejaVuSans-6f" x="615.185547"/>
     <use xlink:href="#DejaVuSans-66" x="676.367188"/>
     <use xlink:href="#DejaVuSans-20" x="711.572266"/>
     <use xlink:href="#DejaVuSans-4c" x="743.359375"/>
     <use xlink:href="#DejaVuSans-65" x="797.322266"/>
     <use xlink:href="#DejaVuSans-6e" x="858.845703"/>
     <use xlink:href="#DejaVuSans-67" x="922.224609"/>
     <use xlink:href="#DejaVuSans-74" x="985.701172"/>
     <use xlink:href="#DejaVuSans-68" x="1024.910156"/>
     <use xlink:href="#DejaVuSans-20" x="1088.289062"/>
     <use xlink:href="#DejaVuSans-6f" x="1120.076172"/>
     <use xlink:href="#DejaVuSans-66" x="1181.257812"/>
     <use xlink:href="#DejaVuSans-20" x="1216.462891"/>
     <use xlink:href="#DejaVuSans-52" x="1248.25"/>
     <use xlink:href="#DejaVuSans-65" x="1313.232422"/>
     <use xlink:href="#DejaVuSans-6c" x="1374.755859"/>
     <use xlink:href="#DejaVuSans-61" x="1402.539062"/>
     <use xlink:href="#DejaVuSans-74" x="1463.818359"/>
     <use xlink:href="#DejaVuSans-69" x="1503.027344"/>
     <use xlink:href="#DejaVuSans-6f" x="1530.810547"/>
     <use xlink:href="#DejaVuSans-6e" x="1591.992188"/>
     <use xlink:href="#DejaVuSans-73" x="1655.371094"/>
     <use xlink:href="#DejaVuSans-68" x="1707.470703"/>
     <use xlink:href="#DejaVuSans-69" x="1770.849609"/>
     <use xlink:href="#DejaVuSans-70" x="1798.632812"/>
    </g>
   </g>
   <g id="legend_1">
    <g id="patch_7">
     <path d="M 302.782386 74.3525 
L 341.144886 74.3525 
Q 343.144886 74.3525 343.144886 72.3525 
L 343.144886 29.318125 
Q 343.144886 27.318125 341.144886 27.318125 
L 302.782386 27.318125 
Q 300.782386 27.318125 300.782386 29.318125 
L 300.782386 72.3525 
Q 300.782386 74.3525 302.782386 74.3525 
z
" style="fill: #ffffff; opacity: 0.8; stroke: #cccccc; stroke-linejoin: miter"/>
    </g>
    <g id="text_16">
     <!-- Churn -->
     <g transform="translate(306.998011 38.916562) scale(0.1 -0.1)">
      <defs>
       <path id="DejaVuSans-43" d="M 4122 4306 
L 4122 3641 
Q 3803 3938 3442 4084 
Q 3081 4231 2675 4231 
Q 1875 4231 1450 3742 
Q 1025 3253 1025 2328 
Q 1025 1406 1450 917 
Q 1875 428 2675 428 
Q 3081 428 3442 575 
Q 3803 722 4122 1019 
L 4122 359 
Q 3791 134 3420 21 
Q 3050 -91 2638 -91 
Q 1578 -91 968 557 
Q 359 1206 359 2328 
Q 359 3453 968 4101 
Q 1578 4750 2638 4750 
Q 3056 4750 3426 4639 
Q 3797 4528 4122 4306 
z
" transform="scale(0.015625)"/>
      </defs>
      <use xlink:href="#DejaVuSans-43"/>
      <use xlink:href="#DejaVuSans-68" x="69.824219"/>
      <use xlink:href="#DejaVuSans-75" x="133.203125"/>
      <use xlink:href="#DejaVuSans-72" x="196.582031"/>
      <use xlink:href="#DejaVuSans-6e" x="235.945312"/>
     </g>
    </g>
    <g id="patch_8">
     <path d="M 304.782386 53.594687 
L 324.782386 53.594687 
L 324.782386 46.594687 
L 304.782386 46.594687 
z
" style="fill: #1f77b4; fill-opacity: 0.25; stroke: #1f77b4; stroke-linejoin: miter"/>
    </g>
    <g id="text_17">
     <!-- 0 -->
     <g transform="translate(332.782386 53.594687) scale(0.1 -0.1)">
      <use xlink:href="#DejaVuSans-30"/>
     </g>
    </g>
    <g id="patch_9">
     <path d="M 304.782386 68.272812 
L 324.782386 68.272812 
L 324.782386 61.272812 
L 304.782386 61.272812 
z
" style="fill: #ff7f0e; fill-opacity: 0.25; stroke: #ff7f0e; stroke-linejoin: miter"/>
    </g>
    <g id="text_18">
     <!-- 1 -->
     <g transform="translate(332.782386 68.272812) scale(0.1 -0.1)">
      <use xlink:href="#DejaVuSans-31"/>
     </g>
    </g>
   </g>
  </g>
  <g id="axes_2">
   <g id="patch_10">
    <path d="M 409.017614 223.918125 
L 713.38125 223.918125 
L 713.38125 22.318125 
L 409.017614 22.318125 
z
" style="fill: #ffffff"/>
   </g>
   <g id="PolyCollection_3">
    <defs>
     <path id="me6a8df871d" d="M 422.852324 -42.35625 
L 422.852324 -37.55625 
L 428.867416 -37.55625 
L 428.867416 -37.55625 
L 434.882508 -37.55625 
L 434.882508 -37.55625 
L 440.897599 -37.55625 
L 440.897599 -37.55625 
L 446.912691 -37.55625 
L 446.912691 -37.55625 
L 452.927783 -37.55625 
L 452.927783 -37.55625 
L 458.942874 -37.55625 
L 458.942874 -37.55625 
L 464.957966 -37.55625 
L 464.957966 -37.55625 
L 470.973057 -37.55625 
L 470.973057 -37.55625 
L 476.988149 -37.55625 
L 476.988149 -37.55625 
L 483.003241 -37.55625 
L 483.003241 -37.55625 
L 489.018332 -37.55625 
L 489.018332 -37.55625 
L 495.033424 -37.55625 
L 495.033424 -37.55625 
L 501.048516 -37.55625 
L 501.048516 -37.55625 
L 507.063607 -37.55625 
L 507.063607 -37.55625 
L 513.078699 -37.55625 
L 513.078699 -37.55625 
L 519.09379 -37.55625 
L 519.09379 -37.55625 
L 525.108882 -37.55625 
L 525.108882 -37.55625 
L 531.123974 -37.55625 
L 531.123974 -37.55625 
L 537.139065 -37.55625 
L 537.139065 -37.55625 
L 543.154157 -37.55625 
L 543.154157 -37.55625 
L 549.169249 -37.55625 
L 549.169249 -37.55625 
L 555.18434 -37.55625 
L 555.18434 -37.55625 
L 561.199432 -37.55625 
L 561.199432 -37.55625 
L 567.214523 -37.55625 
L 567.214523 -37.55625 
L 573.229615 -37.55625 
L 573.229615 -37.55625 
L 579.244707 -37.55625 
L 579.244707 -37.55625 
L 585.259798 -37.55625 
L 585.259798 -37.55625 
L 591.27489 -37.55625 
L 591.27489 -37.55625 
L 597.289982 -37.55625 
L 597.289982 -37.55625 
L 603.305073 -37.55625 
L 603.305073 -37.55625 
L 609.320165 -37.55625 
L 609.320165 -37.55625 
L 615.335256 -37.55625 
L 615.335256 -37.55625 
L 621.350348 -37.55625 
L 621.350348 -37.55625 
L 627.36544 -37.55625 
L 627.36544 -37.55625 
L 633.380531 -37.55625 
L 633.380531 -37.55625 
L 639.395623 -37.55625 
L 639.395623 -37.55625 
L 645.410715 -37.55625 
L 645.410715 -37.55625 
L 651.425806 -37.55625 
L 651.425806 -37.55625 
L 657.440898 -37.55625 
L 657.440898 -37.55625 
L 663.455989 -37.55625 
L 663.455989 -37.55625 
L 669.471081 -37.55625 
L 669.471081 -37.55625 
L 675.486173 -37.55625 
L 675.486173 -37.55625 
L 681.501264 -37.55625 
L 681.501264 -37.55625 
L 687.516356 -37.55625 
L 687.516356 -37.55625 
L 693.531448 -37.55625 
L 693.531448 -37.55625 
L 699.546539 -37.55625 
L 699.546539 -37.55625 
L 699.546539 -37.55625 
L 699.546539 -37.55625 
L 699.546539 -37.55625 
L 693.531448 -37.55625 
L 693.531448 -37.55625 
L 687.516356 -37.55625 
L 687.516356 -42.35625 
L 681.501264 -42.35625 
L 681.501264 -37.55625 
L 675.486173 -37.55625 
L 675.486173 -42.35625 
L 669.471081 -42.35625 
L 669.471081 -37.55625 
L 663.455989 -37.55625 
L 663.455989 -47.15625 
L 657.440898 -47.15625 
L 657.440898 -37.55625 
L 651.425806 -37.55625 
L 651.425806 -51.95625 
L 645.410715 -51.95625 
L 645.410715 -47.15625 
L 639.395623 -47.15625 
L 639.395623 -51.95625 
L 633.380531 -51.95625 
L 633.380531 -61.55625 
L 627.36544 -61.55625 
L 627.36544 -61.55625 
L 621.350348 -61.55625 
L 621.350348 -75.95625 
L 615.335256 -75.95625 
L 615.335256 -61.55625 
L 609.320165 -61.55625 
L 609.320165 -80.75625 
L 603.305073 -80.75625 
L 603.305073 -99.95625 
L 597.289982 -99.95625 
L 597.289982 -71.15625 
L 591.27489 -71.15625 
L 591.27489 -123.95625 
L 585.259798 -123.95625 
L 585.259798 -75.95625 
L 579.244707 -75.95625 
L 579.244707 -167.15625 
L 573.229615 -167.15625 
L 573.229615 -128.75625 
L 567.214523 -128.75625 
L 567.214523 -200.75625 
L 561.199432 -200.75625 
L 561.199432 -171.95625 
L 555.18434 -171.95625 
L 555.18434 -200.75625 
L 549.169249 -200.75625 
L 549.169249 -205.55625 
L 543.154157 -205.55625 
L 543.154157 -215.15625 
L 537.139065 -215.15625 
L 537.139065 -210.35625 
L 531.123974 -210.35625 
L 531.123974 -219.95625 
L 525.108882 -219.95625 
L 525.108882 -229.55625 
L 519.09379 -229.55625 
L 519.09379 -176.75625 
L 513.078699 -176.75625 
L 513.078699 -143.15625 
L 507.063607 -143.15625 
L 507.063607 -99.95625 
L 501.048516 -99.95625 
L 501.048516 -75.95625 
L 495.033424 -75.95625 
L 495.033424 -90.35625 
L 489.018332 -90.35625 
L 489.018332 -95.15625 
L 483.003241 -95.15625 
L 483.003241 -95.15625 
L 476.988149 -95.15625 
L 476.988149 -56.75625 
L 470.973057 -56.75625 
L 470.973057 -42.35625 
L 464.957966 -42.35625 
L 464.957966 -42.35625 
L 458.942874 -42.35625 
L 458.942874 -47.15625 
L 452.927783 -47.15625 
L 452.927783 -42.35625 
L 446.912691 -42.35625 
L 446.912691 -47.15625 
L 440.897599 -47.15625 
L 440.897599 -47.15625 
L 434.882508 -47.15625 
L 434.882508 -37.55625 
L 428.867416 -37.55625 
L 428.867416 -42.35625 
L 422.852324 -42.35625 
z
" style="stroke: #ff7f0e"/>
    </defs>
    <g clip-path="url(#pcfc600910d)">
     <use xlink:href="#me6a8df871d" x="0" y="261.474375" style="fill: #ff7f0e; fill-opacity: 0.25; stroke: #ff7f0e"/>
    </g>
   </g>
   <g id="PolyCollection_4">
    <defs>
     <path id="m14fdac95bb" d="M 422.852324 -37.55625 
L 422.852324 -37.55625 
L 428.867416 -37.55625 
L 428.867416 -37.55625 
L 434.882508 -37.55625 
L 434.882508 -37.55625 
L 440.897599 -37.55625 
L 440.897599 -37.55625 
L 446.912691 -37.55625 
L 446.912691 -37.55625 
L 452.927783 -37.55625 
L 452.927783 -37.55625 
L 458.942874 -37.55625 
L 458.942874 -37.55625 
L 464.957966 -37.55625 
L 464.957966 -37.55625 
L 470.973057 -37.55625 
L 470.973057 -37.55625 
L 476.988149 -37.55625 
L 476.988149 -37.55625 
L 483.003241 -37.55625 
L 483.003241 -37.55625 
L 489.018332 -37.55625 
L 489.018332 -37.55625 
L 495.033424 -37.55625 
L 495.033424 -37.55625 
L 501.048516 -37.55625 
L 501.048516 -37.55625 
L 507.063607 -37.55625 
L 507.063607 -37.55625 
L 513.078699 -37.55625 
L 513.078699 -37.55625 
L 519.09379 -37.55625 
L 519.09379 -37.55625 
L 525.108882 -37.55625 
L 525.108882 -37.55625 
L 531.123974 -37.55625 
L 531.123974 -37.55625 
L 537.139065 -37.55625 
L 537.139065 -37.55625 
L 543.154157 -37.55625 
L 543.154157 -37.55625 
L 549.169249 -37.55625 
L 549.169249 -37.55625 
L 555.18434 -37.55625 
L 555.18434 -37.55625 
L 561.199432 -37.55625 
L 561.199432 -37.55625 
L 567.214523 -37.55625 
L 567.214523 -37.55625 
L 573.229615 -37.55625 
L 573.229615 -37.55625 
L 579.244707 -37.55625 
L 579.244707 -37.55625 
L 585.259798 -37.55625 
L 585.259798 -37.55625 
L 591.27489 -37.55625 
L 591.27489 -37.55625 
L 597.289982 -37.55625 
L 597.289982 -37.55625 
L 603.305073 -37.55625 
L 603.305073 -37.55625 
L 609.320165 -37.55625 
L 609.320165 -37.55625 
L 615.335256 -37.55625 
L 615.335256 -37.55625 
L 621.350348 -37.55625 
L 621.350348 -37.55625 
L 627.36544 -37.55625 
L 627.36544 -37.55625 
L 633.380531 -37.55625 
L 633.380531 -37.55625 
L 639.395623 -37.55625 
L 639.395623 -37.55625 
L 645.410715 -37.55625 
L 645.410715 -37.55625 
L 651.425806 -37.55625 
L 651.425806 -37.55625 
L 657.440898 -37.55625 
L 657.440898 -37.55625 
L 663.455989 -37.55625 
L 663.455989 -37.55625 
L 669.471081 -37.55625 
L 669.471081 -37.55625 
L 675.486173 -37.55625 
L 675.486173 -37.55625 
L 681.501264 -37.55625 
L 681.501264 -37.55625 
L 687.516356 -37.55625 
L 687.516356 -37.55625 
L 693.531448 -37.55625 
L 693.531448 -37.55625 
L 699.546539 -37.55625 
L 699.546539 -37.55625 
L 699.546539 -37.829709 
L 699.546539 -37.829709 
L 699.546539 -37.829709 
L 693.531448 -37.829709 
L 693.531448 -39.743926 
L 687.516356 -39.743926 
L 687.516356 -40.017385 
L 681.501264 -40.017385 
L 681.501264 -40.290845 
L 675.486173 -40.290845 
L 675.486173 -44.666196 
L 669.471081 -44.666196 
L 669.471081 -46.580412 
L 663.455989 -46.580412 
L 663.455989 -50.682304 
L 657.440898 -50.682304 
L 657.440898 -59.433007 
L 651.425806 -59.433007 
L 651.425806 -74.199818 
L 645.410715 -74.199818 
L 645.410715 -83.7709 
L 639.395623 -83.7709 
L 639.395623 -96.896954 
L 633.380531 -96.896954 
L 633.380531 -122.055225 
L 627.36544 -122.055225 
L 627.36544 -131.626306 
L 621.350348 -131.626306 
L 621.350348 -137.368955 
L 615.335256 -137.368955 
L 615.335256 -157.058036 
L 609.320165 -157.058036 
L 609.320165 -166.082199 
L 603.305073 -166.082199 
L 603.305073 -160.33955 
L 597.289982 -160.33955 
L 597.289982 -155.14382 
L 591.27489 -155.14382 
L 591.27489 -141.744306 
L 585.259798 -141.744306 
L 585.259798 -142.838144 
L 579.244707 -142.838144 
L 579.244707 -141.197387 
L 573.229615 -141.197387 
L 573.229615 -140.650468 
L 567.214523 -140.650468 
L 567.214523 -151.588847 
L 561.199432 -151.588847 
L 561.199432 -159.245712 
L 555.18434 -159.245712 
L 555.18434 -177.840956 
L 549.169249 -177.840956 
L 549.169249 -174.832902 
L 543.154157 -174.832902 
L 543.154157 -167.449496 
L 537.139065 -167.449496 
L 537.139065 -161.980307 
L 531.123974 -161.980307 
L 531.123974 -158.698793 
L 525.108882 -158.698793 
L 525.108882 -137.095495 
L 519.09379 -137.095495 
L 519.09379 -110.569927 
L 513.078699 -110.569927 
L 513.078699 -90.333927 
L 507.063607 -90.333927 
L 507.063607 -72.285602 
L 501.048516 -72.285602 
L 501.048516 -62.98798 
L 495.033424 -62.98798 
L 495.033424 -49.588466 
L 489.018332 -49.588466 
L 489.018332 -46.306953 
L 483.003241 -46.306953 
L 483.003241 -41.111223 
L 476.988149 -41.111223 
L 476.988149 -40.837764 
L 470.973057 -40.837764 
L 470.973057 -38.376628 
L 464.957966 -38.376628 
L 464.957966 -38.103169 
L 458.942874 -38.103169 
L 458.942874 -37.55625 
L 452.927783 -37.55625 
L 452.927783 -37.55625 
L 446.912691 -37.55625 
L 446.912691 -37.55625 
L 440.897599 -37.55625 
L 440.897599 -37.55625 
L 434.882508 -37.55625 
L 434.882508 -37.55625 
L 428.867416 -37.55625 
L 428.867416 -37.55625 
L 422.852324 -37.55625 
z
" style="stroke: #1f77b4"/>
    </defs>
    <g clip-path="url(#pcfc600910d)">
     <use xlink:href="#m14fdac95bb" x="0" y="261.474375" style="fill: #1f77b4; fill-opacity: 0.25; stroke: #1f77b4"/>
    </g>
   </g>
   <g id="matplotlib.axis_3">
    <g id="xtick_7">
     <g id="line2d_14">
      <g>
       <use xlink:href="#m77235669c0" x="422.852324" y="223.918125" style="stroke: #000000; stroke-width: 0.8"/>
      </g>
     </g>
     <g id="text_19">
      <!-- 0 -->
      <g transform="translate(419.671074 238.516562) scale(0.1 -0.1)">
       <use xlink:href="#DejaVuSans-30"/>
      </g>
     </g>
    </g>
    <g id="xtick_8">
     <g id="line2d_15">
      <g>
       <use xlink:href="#m77235669c0" x="487.593963" y="223.918125" style="stroke: #000000; stroke-width: 0.8"/>
      </g>
     </g>
     <g id="text_20">
      <!-- 2 -->
      <g transform="translate(484.412713 238.516562) scale(0.1 -0.1)">
       <use xlink:href="#DejaVuSans-32"/>
      </g>
     </g>
    </g>
    <g id="xtick_9">
     <g id="line2d_16">
      <g>
       <use xlink:href="#m77235669c0" x="552.335602" y="223.918125" style="stroke: #000000; stroke-width: 0.8"/>
      </g>
     </g>
     <g id="text_21">
      <!-- 4 -->
      <g transform="translate(549.154352 238.516562) scale(0.1 -0.1)">
       <use xlink:href="#DejaVuSans-34"/>
      </g>
     </g>
    </g>
    <g id="xtick_10">
     <g id="line2d_17">
      <g>
       <use xlink:href="#m77235669c0" x="617.07724" y="223.918125" style="stroke: #000000; stroke-width: 0.8"/>
      </g>
     </g>
     <g id="text_22">
      <!-- 6 -->
      <g transform="translate(613.89599 238.516562) scale(0.1 -0.1)">
       <use xlink:href="#DejaVuSans-36"/>
      </g>
     </g>
    </g>
    <g id="xtick_11">
     <g id="line2d_18">
      <g>
       <use xlink:href="#m77235669c0" x="681.818879" y="223.918125" style="stroke: #000000; stroke-width: 0.8"/>
      </g>
     </g>
     <g id="text_23">
      <!-- 8 -->
      <g transform="translate(678.637629 238.516562) scale(0.1 -0.1)">
       <use xlink:href="#DejaVuSans-38"/>
      </g>
     </g>
    </g>
    <g id="text_24">
     <!-- Balance -->
     <g transform="translate(541.257244 252.194687) scale(0.1 -0.1)">
      <defs>
       <path id="DejaVuSans-42" d="M 1259 2228 
L 1259 519 
L 2272 519 
Q 2781 519 3026 730 
Q 3272 941 3272 1375 
Q 3272 1813 3026 2020 
Q 2781 2228 2272 2228 
L 1259 2228 
z
M 1259 4147 
L 1259 2741 
L 2194 2741 
Q 2656 2741 2882 2914 
Q 3109 3088 3109 3444 
Q 3109 3797 2882 3972 
Q 2656 4147 2194 4147 
L 1259 4147 
z
M 628 4666 
L 2241 4666 
Q 2963 4666 3353 4366 
Q 3744 4066 3744 3513 
Q 3744 3084 3544 2831 
Q 3344 2578 2956 2516 
Q 3422 2416 3680 2098 
Q 3938 1781 3938 1306 
Q 3938 681 3513 340 
Q 3088 0 2303 0 
L 628 0 
L 628 4666 
z
" transform="scale(0.015625)"/>
       <path id="DejaVuSans-63" d="M 3122 3366 
L 3122 2828 
Q 2878 2963 2633 3030 
Q 2388 3097 2138 3097 
Q 1578 3097 1268 2742 
Q 959 2388 959 1747 
Q 959 1106 1268 751 
Q 1578 397 2138 397 
Q 2388 397 2633 464 
Q 2878 531 3122 666 
L 3122 134 
Q 2881 22 2623 -34 
Q 2366 -91 2075 -91 
Q 1284 -91 818 406 
Q 353 903 353 1747 
Q 353 2603 823 3093 
Q 1294 3584 2113 3584 
Q 2378 3584 2631 3529 
Q 2884 3475 3122 3366 
z
" transform="scale(0.015625)"/>
      </defs>
      <use xlink:href="#DejaVuSans-42"/>
      <use xlink:href="#DejaVuSans-61" x="68.603516"/>
      <use xlink:href="#DejaVuSans-6c" x="129.882812"/>
      <use xlink:href="#DejaVuSans-61" x="157.666016"/>
      <use xlink:href="#DejaVuSans-6e" x="218.945312"/>
      <use xlink:href="#DejaVuSans-63" x="282.324219"/>
      <use xlink:href="#DejaVuSans-65" x="337.304688"/>
     </g>
    </g>
   </g>
   <g id="matplotlib.axis_4">
    <g id="ytick_7">
     <g id="line2d_19">
      <g>
       <use xlink:href="#m8aa7878259" x="409.017614" y="223.918125" style="stroke: #000000; stroke-width: 0.8"/>
      </g>
     </g>
     <g id="text_25">
      <!-- 0.00 -->
      <g transform="translate(379.751989 227.717344) scale(0.1 -0.1)">
       <use xlink:href="#DejaVuSans-30"/>
       <use xlink:href="#DejaVuSans-2e" x="63.623047"/>
       <use xlink:href="#DejaVuSans-30" x="95.410156"/>
       <use xlink:href="#DejaVuSans-30" x="159.033203"/>
      </g>
     </g>
    </g>
    <g id="ytick_8">
     <g id="line2d_20">
      <g>
       <use xlink:href="#m8aa7878259" x="409.017614" y="199.880666" style="stroke: #000000; stroke-width: 0.8"/>
      </g>
     </g>
     <g id="text_26">
      <!-- 0.05 -->
      <g transform="translate(379.751989 203.679884) scale(0.1 -0.1)">
       <use xlink:href="#DejaVuSans-30"/>
       <use xlink:href="#DejaVuSans-2e" x="63.623047"/>
       <use xlink:href="#DejaVuSans-30" x="95.410156"/>
       <use xlink:href="#DejaVuSans-35" x="159.033203"/>
      </g>
     </g>
    </g>
    <g id="ytick_9">
     <g id="line2d_21">
      <g>
       <use xlink:href="#m8aa7878259" x="409.017614" y="175.843206" style="stroke: #000000; stroke-width: 0.8"/>
      </g>
     </g>
     <g id="text_27">
      <!-- 0.10 -->
      <g transform="translate(379.751989 179.642425) scale(0.1 -0.1)">
       <use xlink:href="#DejaVuSans-30"/>
       <use xlink:href="#DejaVuSans-2e" x="63.623047"/>
       <use xlink:href="#DejaVuSans-31" x="95.410156"/>
       <use xlink:href="#DejaVuSans-30" x="159.033203"/>
      </g>
     </g>
    </g>
    <g id="ytick_10">
     <g id="line2d_22">
      <g>
       <use xlink:href="#m8aa7878259" x="409.017614" y="151.805747" style="stroke: #000000; stroke-width: 0.8"/>
      </g>
     </g>
     <g id="text_28">
      <!-- 0.15 -->
      <g transform="translate(379.751989 155.604966) scale(0.1 -0.1)">
       <use xlink:href="#DejaVuSans-30"/>
       <use xlink:href="#DejaVuSans-2e" x="63.623047"/>
       <use xlink:href="#DejaVuSans-31" x="95.410156"/>
       <use xlink:href="#DejaVuSans-35" x="159.033203"/>
      </g>
     </g>
    </g>
    <g id="ytick_11">
     <g id="line2d_23">
      <g>
       <use xlink:href="#m8aa7878259" x="409.017614" y="127.768288" style="stroke: #000000; stroke-width: 0.8"/>
      </g>
     </g>
     <g id="text_29">
      <!-- 0.20 -->
      <g transform="translate(379.751989 131.567506) scale(0.1 -0.1)">
       <use xlink:href="#DejaVuSans-30"/>
       <use xlink:href="#DejaVuSans-2e" x="63.623047"/>
       <use xlink:href="#DejaVuSans-32" x="95.410156"/>
       <use xlink:href="#DejaVuSans-30" x="159.033203"/>
      </g>
     </g>
    </g>
    <g id="ytick_12">
     <g id="line2d_24">
      <g>
       <use xlink:href="#m8aa7878259" x="409.017614" y="103.730828" style="stroke: #000000; stroke-width: 0.8"/>
      </g>
     </g>
     <g id="text_30">
      <!-- 0.25 -->
      <g transform="translate(379.751989 107.530047) scale(0.1 -0.1)">
       <use xlink:href="#DejaVuSans-30"/>
       <use xlink:href="#DejaVuSans-2e" x="63.623047"/>
       <use xlink:href="#DejaVuSans-32" x="95.410156"/>
       <use xlink:href="#DejaVuSans-35" x="159.033203"/>
      </g>
     </g>
    </g>
    <g id="ytick_13">
     <g id="line2d_25">
      <g>
       <use xlink:href="#m8aa7878259" x="409.017614" y="79.693369" style="stroke: #000000; stroke-width: 0.8"/>
      </g>
     </g>
     <g id="text_31">
      <!-- 0.30 -->
      <g transform="translate(379.751989 83.492588) scale(0.1 -0.1)">
       <use xlink:href="#DejaVuSans-30"/>
       <use xlink:href="#DejaVuSans-2e" x="63.623047"/>
       <use xlink:href="#DejaVuSans-33" x="95.410156"/>
       <use xlink:href="#DejaVuSans-30" x="159.033203"/>
      </g>
     </g>
    </g>
    <g id="ytick_14">
     <g id="line2d_26">
      <g>
       <use xlink:href="#m8aa7878259" x="409.017614" y="55.65591" style="stroke: #000000; stroke-width: 0.8"/>
      </g>
     </g>
     <g id="text_32">
      <!-- 0.35 -->
      <g transform="translate(379.751989 59.455129) scale(0.1 -0.1)">
       <use xlink:href="#DejaVuSans-30"/>
       <use xlink:href="#DejaVuSans-2e" x="63.623047"/>
       <use xlink:href="#DejaVuSans-33" x="95.410156"/>
       <use xlink:href="#DejaVuSans-35" x="159.033203"/>
      </g>
     </g>
    </g>
    <g id="ytick_15">
     <g id="line2d_27">
      <g>
       <use xlink:href="#m8aa7878259" x="409.017614" y="31.61845" style="stroke: #000000; stroke-width: 0.8"/>
      </g>
     </g>
     <g id="text_33">
      <!-- 0.40 -->
      <g transform="translate(379.751989 35.417669) scale(0.1 -0.1)">
       <use xlink:href="#DejaVuSans-30"/>
       <use xlink:href="#DejaVuSans-2e" x="63.623047"/>
       <use xlink:href="#DejaVuSans-34" x="95.410156"/>
       <use xlink:href="#DejaVuSans-30" x="159.033203"/>
      </g>
     </g>
    </g>
    <g id="text_34">
     <!-- Density -->
     <g transform="translate(373.672301 142.126719) rotate(-90) scale(0.1 -0.1)">
      <use xlink:href="#DejaVuSans-44"/>
      <use xlink:href="#DejaVuSans-65" x="77.001953"/>
      <use xlink:href="#DejaVuSans-6e" x="138.525391"/>
      <use xlink:href="#DejaVuSans-73" x="201.904297"/>
      <use xlink:href="#DejaVuSans-69" x="254.003906"/>
      <use xlink:href="#DejaVuSans-74" x="281.787109"/>
      <use xlink:href="#DejaVuSans-79" x="320.996094"/>
     </g>
    </g>
   </g>
   <g id="line2d_28">
    <path d="M 584.706421 223.918125 
L 584.706421 22.318125 
" clip-path="url(#pcfc600910d)" style="fill: none; stroke: #ff0000; stroke-width: 1.5; stroke-linecap: square"/>
   </g>
   <g id="patch_11">
    <path d="M 409.017614 223.918125 
L 409.017614 22.318125 
" style="fill: none; stroke: #000000; stroke-width: 0.8; stroke-linejoin: miter; stroke-linecap: square"/>
   </g>
   <g id="patch_12">
    <path d="M 713.38125 223.918125 
L 713.38125 22.318125 
" style="fill: none; stroke: #000000; stroke-width: 0.8; stroke-linejoin: miter; stroke-linecap: square"/>
   </g>
   <g id="patch_13">
    <path d="M 409.017614 223.918125 
L 713.38125 223.918125 
" style="fill: none; stroke: #000000; stroke-width: 0.8; stroke-linejoin: miter; stroke-linecap: square"/>
   </g>
   <g id="patch_14">
    <path d="M 409.017614 22.318125 
L 713.38125 22.318125 
" style="fill: none; stroke: #000000; stroke-width: 0.8; stroke-linejoin: miter; stroke-linecap: square"/>
   </g>
   <g id="text_35">
    <!-- Distribution of Balance -->
    <g transform="translate(492.669119 16.318125) scale(0.12 -0.12)">
     <use xlink:href="#DejaVuSans-44"/>
     <use xlink:href="#DejaVuSans-69" x="77.001953"/>
     <use xlink:href="#DejaVuSans-73" x="104.785156"/>
     <use xlink:href="#DejaVuSans-74" x="156.884766"/>
     <use xlink:href="#DejaVuSans-72" x="196.09375"/>
     <use xlink:href="#DejaVuSans-69" x="237.207031"/>
     <use xlink:href="#DejaVuSans-62" x="264.990234"/>
     <use xlink:href="#DejaVuSans-75" x="328.466797"/>
     <use xlink:href="#DejaVuSans-74" x="391.845703"/>
     <use xlink:href="#DejaVuSans-69" x="431.054688"/>
     <use xlink:href="#DejaVuSans-6f" x="458.837891"/>
     <use xlink:href="#DejaVuSans-6e" x="520.019531"/>
     <use xlink:href="#DejaVuSans-20" x="583.398438"/>
     <use xlink:href="#DejaVuSans-6f" x="615.185547"/>
     <use xlink:href="#DejaVuSans-66" x="676.367188"/>
     <use xlink:href="#DejaVuSans-20" x="711.572266"/>
     <use xlink:href="#DejaVuSans-42" x="743.359375"/>
     <use xlink:href="#DejaVuSans-61" x="811.962891"/>
     <use xlink:href="#DejaVuSans-6c" x="873.242188"/>
     <use xlink:href="#DejaVuSans-61" x="901.025391"/>
     <use xlink:href="#DejaVuSans-6e" x="962.304688"/>
     <use xlink:href="#DejaVuSans-63" x="1025.683594"/>
     <use xlink:href="#DejaVuSans-65" x="1080.664062"/>
    </g>
   </g>
   <g id="legend_2">
    <g id="patch_15">
     <path d="M 668.01875 74.3525 
L 706.38125 74.3525 
Q 708.38125 74.3525 708.38125 72.3525 
L 708.38125 29.318125 
Q 708.38125 27.318125 706.38125 27.318125 
L 668.01875 27.318125 
Q 666.01875 27.318125 666.01875 29.318125 
L 666.01875 72.3525 
Q 666.01875 74.3525 668.01875 74.3525 
z
" style="fill: #ffffff; opacity: 0.8; stroke: #cccccc; stroke-linejoin: miter"/>
    </g>
    <g id="text_36">
     <!-- Churn -->
     <g transform="translate(672.234375 38.916562) scale(0.1 -0.1)">
      <use xlink:href="#DejaVuSans-43"/>
      <use xlink:href="#DejaVuSans-68" x="69.824219"/>
      <use xlink:href="#DejaVuSans-75" x="133.203125"/>
      <use xlink:href="#DejaVuSans-72" x="196.582031"/>
      <use xlink:href="#DejaVuSans-6e" x="235.945312"/>
     </g>
    </g>
    <g id="patch_16">
     <path d="M 670.01875 53.594687 
L 690.01875 53.594687 
L 690.01875 46.594687 
L 670.01875 46.594687 
z
" style="fill: #1f77b4; fill-opacity: 0.25; stroke: #1f77b4; stroke-linejoin: miter"/>
    </g>
    <g id="text_37">
     <!-- 0 -->
     <g transform="translate(698.01875 53.594687) scale(0.1 -0.1)">
      <use xlink:href="#DejaVuSans-30"/>
     </g>
    </g>
    <g id="patch_17">
     <path d="M 670.01875 68.272812 
L 690.01875 68.272812 
L 690.01875 61.272812 
L 670.01875 61.272812 
z
" style="fill: #ff7f0e; fill-opacity: 0.25; stroke: #ff7f0e; stroke-linejoin: miter"/>
    </g>
    <g id="text_38">
     <!-- 1 -->
     <g transform="translate(698.01875 68.272812) scale(0.1 -0.1)">
      <use xlink:href="#DejaVuSans-31"/>
     </g>
    </g>
   </g>
  </g>
 </g>
 <defs>
  <clipPath id="p0dac0de93b">
   <rect x="43.78125" y="22.318125" width="304.363636" height="201.6"/>
  </clipPath>
  <clipPath id="pcfc600910d">
   <rect x="409.017614" y="22.318125" width="304.363636" height="201.6"/>
  </clipPath>
 </defs>
</svg>
