<?xml version="1.0" encoding="utf-8" standalone="no"?>
<!DOCTYPE svg PUBLIC "-//W3C//DTD SVG 1.1//EN"
  "http://www.w3.org/Graphics/SVG/1.1/DTD/svg11.dtd">
<svg xmlns:xlink="http://www.w3.org/1999/xlink" width="505.332812pt" height="392.514375pt" viewBox="0 0 505.332812 392.514375" xmlns="http://www.w3.org/2000/svg" version="1.1">
 <metadata>
  <rdf:RDF xmlns:dc="http://purl.org/dc/elements/1.1/" xmlns:cc="http://creativecommons.org/ns#" xmlns:rdf="http://www.w3.org/1999/02/22-rdf-syntax-ns#">
   <cc:Work>
    <dc:type rdf:resource="http://purl.org/dc/dcmitype/StillImage"/>
    <dc:date>2023-09-11T13:31:22.752101</dc:date>
    <dc:format>image/svg+xml</dc:format>
    <dc:creator>
     <cc:Agent>
      <dc:title>Matplotlib v3.7.1, https://matplotlib.org/</dc:title>
     </cc:Agent>
    </dc:creator>
   </cc:Work>
  </rdf:RDF>
 </metadata>
 <defs>
  <style type="text/css">*{stroke-linejoin: round; stroke-linecap: butt}</style>
 </defs>
 <g id="figure_1">
  <g id="patch_1">
   <path d="M 0 392.514375 
L 505.332812 392.514375 
L 505.332812 0 
L 0 0 
z
" style="fill: #ffffff"/>
  </g>
  <g id="axes_1">
   <g id="patch_2">
    <path d="M 43.78125 354.958125 
L 490.18125 354.958125 
L 490.18125 22.318125 
L 43.78125 22.318125 
z
" style="fill: #ffffff"/>
   </g>
   <g id="matplotlib.axis_1">
    <g id="xtick_1">
     <g id="line2d_1">
      <defs>
       <path id="m79256a3ccd" d="M 0 0 
L 0 3.5 
" style="stroke: #000000; stroke-width: 0.8"/>
      </defs>
      <g>
       <use xlink:href="#m79256a3ccd" x="43.78125" y="354.958125" style="stroke: #000000; stroke-width: 0.8"/>
      </g>
     </g>
     <g id="text_1">
      <!-- 0.0 -->
      <g transform="translate(35.829688 369.556562) scale(0.1 -0.1)">
       <defs>
        <path id="DejaVuSans-30" d="M 2034 4250 
Q 1547 4250 1301 3770 
Q 1056 3291 1056 2328 
Q 1056 1369 1301 889 
Q 1547 409 2034 409 
Q 2525 409 2770 889 
Q 3016 1369 3016 2328 
Q 3016 3291 2770 3770 
Q 2525 4250 2034 4250 
z
M 2034 4750 
Q 2819 4750 3233 4129 
Q 3647 3509 3647 2328 
Q 3647 1150 3233 529 
Q 2819 -91 2034 -91 
Q 1250 -91 836 529 
Q 422 1150 422 2328 
Q 422 3509 836 4129 
Q 1250 4750 2034 4750 
z
" transform="scale(0.015625)"/>
        <path id="DejaVuSans-2e" d="M 684 794 
L 1344 794 
L 1344 0 
L 684 0 
L 684 794 
z
" transform="scale(0.015625)"/>
       </defs>
       <use xlink:href="#DejaVuSans-30"/>
       <use xlink:href="#DejaVuSans-2e" x="63.623047"/>
       <use xlink:href="#DejaVuSans-30" x="95.410156"/>
      </g>
     </g>
    </g>
    <g id="xtick_2">
     <g id="line2d_2">
      <g>
       <use xlink:href="#m79256a3ccd" x="133.06125" y="354.958125" style="stroke: #000000; stroke-width: 0.8"/>
      </g>
     </g>
     <g id="text_2">
      <!-- 0.2 -->
      <g transform="translate(125.109688 369.556562) scale(0.1 -0.1)">
       <defs>
        <path id="DejaVuSans-32" d="M 1228 531 
L 3431 531 
L 3431 0 
L 469 0 
L 469 531 
Q 828 903 1448 1529 
Q 2069 2156 2228 2338 
Q 2531 2678 2651 2914 
Q 2772 3150 2772 3378 
Q 2772 3750 2511 3984 
Q 2250 4219 1831 4219 
Q 1534 4219 1204 4116 
Q 875 4013 500 3803 
L 500 4441 
Q 881 4594 1212 4672 
Q 1544 4750 1819 4750 
Q 2544 4750 2975 4387 
Q 3406 4025 3406 3419 
Q 3406 3131 3298 2873 
Q 3191 2616 2906 2266 
Q 2828 2175 2409 1742 
Q 1991 1309 1228 531 
z
" transform="scale(0.015625)"/>
       </defs>
       <use xlink:href="#DejaVuSans-30"/>
       <use xlink:href="#DejaVuSans-2e" x="63.623047"/>
       <use xlink:href="#DejaVuSans-32" x="95.410156"/>
      </g>
     </g>
    </g>
    <g id="xtick_3">
     <g id="line2d_3">
      <g>
       <use xlink:href="#m79256a3ccd" x="222.34125" y="354.958125" style="stroke: #000000; stroke-width: 0.8"/>
      </g>
     </g>
     <g id="text_3">
      <!-- 0.4 -->
      <g transform="translate(214.389688 369.556562) scale(0.1 -0.1)">
       <defs>
        <path id="DejaVuSans-34" d="M 2419 4116 
L 825 1625 
L 2419 1625 
L 2419 4116 
z
M 2253 4666 
L 3047 4666 
L 3047 1625 
L 3713 1625 
L 3713 1100 
L 3047 1100 
L 3047 0 
L 2419 0 
L 2419 1100 
L 313 1100 
L 313 1709 
L 2253 4666 
z
" transform="scale(0.015625)"/>
       </defs>
       <use xlink:href="#DejaVuSans-30"/>
       <use xlink:href="#DejaVuSans-2e" x="63.623047"/>
       <use xlink:href="#DejaVuSans-34" x="95.410156"/>
      </g>
     </g>
    </g>
    <g id="xtick_4">
     <g id="line2d_4">
      <g>
       <use xlink:href="#m79256a3ccd" x="311.62125" y="354.958125" style="stroke: #000000; stroke-width: 0.8"/>
      </g>
     </g>
     <g id="text_4">
      <!-- 0.6 -->
      <g transform="translate(303.669688 369.556562) scale(0.1 -0.1)">
       <defs>
        <path id="DejaVuSans-36" d="M 2113 2584 
Q 1688 2584 1439 2293 
Q 1191 2003 1191 1497 
Q 1191 994 1439 701 
Q 1688 409 2113 409 
Q 2538 409 2786 701 
Q 3034 994 3034 1497 
Q 3034 2003 2786 2293 
Q 2538 2584 2113 2584 
z
M 3366 4563 
L 3366 3988 
Q 3128 4100 2886 4159 
Q 2644 4219 2406 4219 
Q 1781 4219 1451 3797 
Q 1122 3375 1075 2522 
Q 1259 2794 1537 2939 
Q 1816 3084 2150 3084 
Q 2853 3084 3261 2657 
Q 3669 2231 3669 1497 
Q 3669 778 3244 343 
Q 2819 -91 2113 -91 
Q 1303 -91 875 529 
Q 447 1150 447 2328 
Q 447 3434 972 4092 
Q 1497 4750 2381 4750 
Q 2619 4750 2861 4703 
Q 3103 4656 3366 4563 
z
" transform="scale(0.015625)"/>
       </defs>
       <use xlink:href="#DejaVuSans-30"/>
       <use xlink:href="#DejaVuSans-2e" x="63.623047"/>
       <use xlink:href="#DejaVuSans-36" x="95.410156"/>
      </g>
     </g>
    </g>
    <g id="xtick_5">
     <g id="line2d_5">
      <g>
       <use xlink:href="#m79256a3ccd" x="400.90125" y="354.958125" style="stroke: #000000; stroke-width: 0.8"/>
      </g>
     </g>
     <g id="text_5">
      <!-- 0.8 -->
      <g transform="translate(392.949687 369.556562) scale(0.1 -0.1)">
       <defs>
        <path id="DejaVuSans-38" d="M 2034 2216 
Q 1584 2216 1326 1975 
Q 1069 1734 1069 1313 
Q 1069 891 1326 650 
Q 1584 409 2034 409 
Q 2484 409 2743 651 
Q 3003 894 3003 1313 
Q 3003 1734 2745 1975 
Q 2488 2216 2034 2216 
z
M 1403 2484 
Q 997 2584 770 2862 
Q 544 3141 544 3541 
Q 544 4100 942 4425 
Q 1341 4750 2034 4750 
Q 2731 4750 3128 4425 
Q 3525 4100 3525 3541 
Q 3525 3141 3298 2862 
Q 3072 2584 2669 2484 
Q 3125 2378 3379 2068 
Q 3634 1759 3634 1313 
Q 3634 634 3220 271 
Q 2806 -91 2034 -91 
Q 1263 -91 848 271 
Q 434 634 434 1313 
Q 434 1759 690 2068 
Q 947 2378 1403 2484 
z
M 1172 3481 
Q 1172 3119 1398 2916 
Q 1625 2713 2034 2713 
Q 2441 2713 2670 2916 
Q 2900 3119 2900 3481 
Q 2900 3844 2670 4047 
Q 2441 4250 2034 4250 
Q 1625 4250 1398 4047 
Q 1172 3844 1172 3481 
z
" transform="scale(0.015625)"/>
       </defs>
       <use xlink:href="#DejaVuSans-30"/>
       <use xlink:href="#DejaVuSans-2e" x="63.623047"/>
       <use xlink:href="#DejaVuSans-38" x="95.410156"/>
      </g>
     </g>
    </g>
    <g id="xtick_6">
     <g id="line2d_6">
      <g>
       <use xlink:href="#m79256a3ccd" x="490.18125" y="354.958125" style="stroke: #000000; stroke-width: 0.8"/>
      </g>
     </g>
     <g id="text_6">
      <!-- 1.0 -->
      <g transform="translate(482.229687 369.556562) scale(0.1 -0.1)">
       <defs>
        <path id="DejaVuSans-31" d="M 794 531 
L 1825 531 
L 1825 4091 
L 703 3866 
L 703 4441 
L 1819 4666 
L 2450 4666 
L 2450 531 
L 3481 531 
L 3481 0 
L 794 0 
L 794 531 
z
" transform="scale(0.015625)"/>
       </defs>
       <use xlink:href="#DejaVuSans-31"/>
       <use xlink:href="#DejaVuSans-2e" x="63.623047"/>
       <use xlink:href="#DejaVuSans-30" x="95.410156"/>
      </g>
     </g>
    </g>
    <g id="text_7">
     <!-- False Positive Rate -->
     <g transform="translate(220.514844 383.234687) scale(0.1 -0.1)">
      <defs>
       <path id="DejaVuSans-46" d="M 628 4666 
L 3309 4666 
L 3309 4134 
L 1259 4134 
L 1259 2759 
L 3109 2759 
L 3109 2228 
L 1259 2228 
L 1259 0 
L 628 0 
L 628 4666 
z
" transform="scale(0.015625)"/>
       <path id="DejaVuSans-61" d="M 2194 1759 
Q 1497 1759 1228 1600 
Q 959 1441 959 1056 
Q 959 750 1161 570 
Q 1363 391 1709 391 
Q 2188 391 2477 730 
Q 2766 1069 2766 1631 
L 2766 1759 
L 2194 1759 
z
M 3341 1997 
L 3341 0 
L 2766 0 
L 2766 531 
Q 2569 213 2275 61 
Q 1981 -91 1556 -91 
Q 1019 -91 701 211 
Q 384 513 384 1019 
Q 384 1609 779 1909 
Q 1175 2209 1959 2209 
L 2766 2209 
L 2766 2266 
Q 2766 2663 2505 2880 
Q 2244 3097 1772 3097 
Q 1472 3097 1187 3025 
Q 903 2953 641 2809 
L 641 3341 
Q 956 3463 1253 3523 
Q 1550 3584 1831 3584 
Q 2591 3584 2966 3190 
Q 3341 2797 3341 1997 
z
" transform="scale(0.015625)"/>
       <path id="DejaVuSans-6c" d="M 603 4863 
L 1178 4863 
L 1178 0 
L 603 0 
L 603 4863 
z
" transform="scale(0.015625)"/>
       <path id="DejaVuSans-73" d="M 2834 3397 
L 2834 2853 
Q 2591 2978 2328 3040 
Q 2066 3103 1784 3103 
Q 1356 3103 1142 2972 
Q 928 2841 928 2578 
Q 928 2378 1081 2264 
Q 1234 2150 1697 2047 
L 1894 2003 
Q 2506 1872 2764 1633 
Q 3022 1394 3022 966 
Q 3022 478 2636 193 
Q 2250 -91 1575 -91 
Q 1294 -91 989 -36 
Q 684 19 347 128 
L 347 722 
Q 666 556 975 473 
Q 1284 391 1588 391 
Q 1994 391 2212 530 
Q 2431 669 2431 922 
Q 2431 1156 2273 1281 
Q 2116 1406 1581 1522 
L 1381 1569 
Q 847 1681 609 1914 
Q 372 2147 372 2553 
Q 372 3047 722 3315 
Q 1072 3584 1716 3584 
Q 2034 3584 2315 3537 
Q 2597 3491 2834 3397 
z
" transform="scale(0.015625)"/>
       <path id="DejaVuSans-65" d="M 3597 1894 
L 3597 1613 
L 953 1613 
Q 991 1019 1311 708 
Q 1631 397 2203 397 
Q 2534 397 2845 478 
Q 3156 559 3463 722 
L 3463 178 
Q 3153 47 2828 -22 
Q 2503 -91 2169 -91 
Q 1331 -91 842 396 
Q 353 884 353 1716 
Q 353 2575 817 3079 
Q 1281 3584 2069 3584 
Q 2775 3584 3186 3129 
Q 3597 2675 3597 1894 
z
M 3022 2063 
Q 3016 2534 2758 2815 
Q 2500 3097 2075 3097 
Q 1594 3097 1305 2825 
Q 1016 2553 972 2059 
L 3022 2063 
z
" transform="scale(0.015625)"/>
       <path id="DejaVuSans-20" transform="scale(0.015625)"/>
       <path id="DejaVuSans-50" d="M 1259 4147 
L 1259 2394 
L 2053 2394 
Q 2494 2394 2734 2622 
Q 2975 2850 2975 3272 
Q 2975 3691 2734 3919 
Q 2494 4147 2053 4147 
L 1259 4147 
z
M 628 4666 
L 2053 4666 
Q 2838 4666 3239 4311 
Q 3641 3956 3641 3272 
Q 3641 2581 3239 2228 
Q 2838 1875 2053 1875 
L 1259 1875 
L 1259 0 
L 628 0 
L 628 4666 
z
" transform="scale(0.015625)"/>
       <path id="DejaVuSans-6f" d="M 1959 3097 
Q 1497 3097 1228 2736 
Q 959 2375 959 1747 
Q 959 1119 1226 758 
Q 1494 397 1959 397 
Q 2419 397 2687 759 
Q 2956 1122 2956 1747 
Q 2956 2369 2687 2733 
Q 2419 3097 1959 3097 
z
M 1959 3584 
Q 2709 3584 3137 3096 
Q 3566 2609 3566 1747 
Q 3566 888 3137 398 
Q 2709 -91 1959 -91 
Q 1206 -91 779 398 
Q 353 888 353 1747 
Q 353 2609 779 3096 
Q 1206 3584 1959 3584 
z
" transform="scale(0.015625)"/>
       <path id="DejaVuSans-69" d="M 603 3500 
L 1178 3500 
L 1178 0 
L 603 0 
L 603 3500 
z
M 603 4863 
L 1178 4863 
L 1178 4134 
L 603 4134 
L 603 4863 
z
" transform="scale(0.015625)"/>
       <path id="DejaVuSans-74" d="M 1172 4494 
L 1172 3500 
L 2356 3500 
L 2356 3053 
L 1172 3053 
L 1172 1153 
Q 1172 725 1289 603 
Q 1406 481 1766 481 
L 2356 481 
L 2356 0 
L 1766 0 
Q 1100 0 847 248 
Q 594 497 594 1153 
L 594 3053 
L 172 3053 
L 172 3500 
L 594 3500 
L 594 4494 
L 1172 4494 
z
" transform="scale(0.015625)"/>
       <path id="DejaVuSans-76" d="M 191 3500 
L 800 3500 
L 1894 563 
L 2988 3500 
L 3597 3500 
L 2284 0 
L 1503 0 
L 191 3500 
z
" transform="scale(0.015625)"/>
       <path id="DejaVuSans-52" d="M 2841 2188 
Q 3044 2119 3236 1894 
Q 3428 1669 3622 1275 
L 4263 0 
L 3584 0 
L 2988 1197 
Q 2756 1666 2539 1819 
Q 2322 1972 1947 1972 
L 1259 1972 
L 1259 0 
L 628 0 
L 628 4666 
L 2053 4666 
Q 2853 4666 3247 4331 
Q 3641 3997 3641 3322 
Q 3641 2881 3436 2590 
Q 3231 2300 2841 2188 
z
M 1259 4147 
L 1259 2491 
L 2053 2491 
Q 2509 2491 2742 2702 
Q 2975 2913 2975 3322 
Q 2975 3731 2742 3939 
Q 2509 4147 2053 4147 
L 1259 4147 
z
" transform="scale(0.015625)"/>
      </defs>
      <use xlink:href="#DejaVuSans-46"/>
      <use xlink:href="#DejaVuSans-61" x="48.394531"/>
      <use xlink:href="#DejaVuSans-6c" x="109.673828"/>
      <use xlink:href="#DejaVuSans-73" x="137.457031"/>
      <use xlink:href="#DejaVuSans-65" x="189.556641"/>
      <use xlink:href="#DejaVuSans-20" x="251.080078"/>
      <use xlink:href="#DejaVuSans-50" x="282.867188"/>
      <use xlink:href="#DejaVuSans-6f" x="339.544922"/>
      <use xlink:href="#DejaVuSans-73" x="400.726562"/>
      <use xlink:href="#DejaVuSans-69" x="452.826172"/>
      <use xlink:href="#DejaVuSans-74" x="480.609375"/>
      <use xlink:href="#DejaVuSans-69" x="519.818359"/>
      <use xlink:href="#DejaVuSans-76" x="547.601562"/>
      <use xlink:href="#DejaVuSans-65" x="606.78125"/>
      <use xlink:href="#DejaVuSans-20" x="668.304688"/>
      <use xlink:href="#DejaVuSans-52" x="700.091797"/>
      <use xlink:href="#DejaVuSans-61" x="767.324219"/>
      <use xlink:href="#DejaVuSans-74" x="828.603516"/>
      <use xlink:href="#DejaVuSans-65" x="867.8125"/>
     </g>
    </g>
   </g>
   <g id="matplotlib.axis_2">
    <g id="ytick_1">
     <g id="line2d_7">
      <defs>
       <path id="m1ccb83b1dc" d="M 0 0 
L -3.5 0 
" style="stroke: #000000; stroke-width: 0.8"/>
      </defs>
      <g>
       <use xlink:href="#m1ccb83b1dc" x="43.78125" y="354.958125" style="stroke: #000000; stroke-width: 0.8"/>
      </g>
     </g>
     <g id="text_8">
      <!-- 0.0 -->
      <g transform="translate(20.878125 358.757344) scale(0.1 -0.1)">
       <use xlink:href="#DejaVuSans-30"/>
       <use xlink:href="#DejaVuSans-2e" x="63.623047"/>
       <use xlink:href="#DejaVuSans-30" x="95.410156"/>
      </g>
     </g>
    </g>
    <g id="ytick_2">
     <g id="line2d_8">
      <g>
       <use xlink:href="#m1ccb83b1dc" x="43.78125" y="291.598125" style="stroke: #000000; stroke-width: 0.8"/>
      </g>
     </g>
     <g id="text_9">
      <!-- 0.2 -->
      <g transform="translate(20.878125 295.397344) scale(0.1 -0.1)">
       <use xlink:href="#DejaVuSans-30"/>
       <use xlink:href="#DejaVuSans-2e" x="63.623047"/>
       <use xlink:href="#DejaVuSans-32" x="95.410156"/>
      </g>
     </g>
    </g>
    <g id="ytick_3">
     <g id="line2d_9">
      <g>
       <use xlink:href="#m1ccb83b1dc" x="43.78125" y="228.238125" style="stroke: #000000; stroke-width: 0.8"/>
      </g>
     </g>
     <g id="text_10">
      <!-- 0.4 -->
      <g transform="translate(20.878125 232.037344) scale(0.1 -0.1)">
       <use xlink:href="#DejaVuSans-30"/>
       <use xlink:href="#DejaVuSans-2e" x="63.623047"/>
       <use xlink:href="#DejaVuSans-34" x="95.410156"/>
      </g>
     </g>
    </g>
    <g id="ytick_4">
     <g id="line2d_10">
      <g>
       <use xlink:href="#m1ccb83b1dc" x="43.78125" y="164.878125" style="stroke: #000000; stroke-width: 0.8"/>
      </g>
     </g>
     <g id="text_11">
      <!-- 0.6 -->
      <g transform="translate(20.878125 168.677344) scale(0.1 -0.1)">
       <use xlink:href="#DejaVuSans-30"/>
       <use xlink:href="#DejaVuSans-2e" x="63.623047"/>
       <use xlink:href="#DejaVuSans-36" x="95.410156"/>
      </g>
     </g>
    </g>
    <g id="ytick_5">
     <g id="line2d_11">
      <g>
       <use xlink:href="#m1ccb83b1dc" x="43.78125" y="101.518125" style="stroke: #000000; stroke-width: 0.8"/>
      </g>
     </g>
     <g id="text_12">
      <!-- 0.8 -->
      <g transform="translate(20.878125 105.317344) scale(0.1 -0.1)">
       <use xlink:href="#DejaVuSans-30"/>
       <use xlink:href="#DejaVuSans-2e" x="63.623047"/>
       <use xlink:href="#DejaVuSans-38" x="95.410156"/>
      </g>
     </g>
    </g>
    <g id="ytick_6">
     <g id="line2d_12">
      <g>
       <use xlink:href="#m1ccb83b1dc" x="43.78125" y="38.158125" style="stroke: #000000; stroke-width: 0.8"/>
      </g>
     </g>
     <g id="text_13">
      <!-- 1.0 -->
      <g transform="translate(20.878125 41.957344) scale(0.1 -0.1)">
       <use xlink:href="#DejaVuSans-31"/>
       <use xlink:href="#DejaVuSans-2e" x="63.623047"/>
       <use xlink:href="#DejaVuSans-30" x="95.410156"/>
      </g>
     </g>
    </g>
    <g id="text_14">
     <!-- True Positive Rate -->
     <g transform="translate(14.798438 233.167812) rotate(-90) scale(0.1 -0.1)">
      <defs>
       <path id="DejaVuSans-54" d="M -19 4666 
L 3928 4666 
L 3928 4134 
L 2272 4134 
L 2272 0 
L 1638 0 
L 1638 4134 
L -19 4134 
L -19 4666 
z
" transform="scale(0.015625)"/>
       <path id="DejaVuSans-72" d="M 2631 2963 
Q 2534 3019 2420 3045 
Q 2306 3072 2169 3072 
Q 1681 3072 1420 2755 
Q 1159 2438 1159 1844 
L 1159 0 
L 581 0 
L 581 3500 
L 1159 3500 
L 1159 2956 
Q 1341 3275 1631 3429 
Q 1922 3584 2338 3584 
Q 2397 3584 2469 3576 
Q 2541 3569 2628 3553 
L 2631 2963 
z
" transform="scale(0.015625)"/>
       <path id="DejaVuSans-75" d="M 544 1381 
L 544 3500 
L 1119 3500 
L 1119 1403 
Q 1119 906 1312 657 
Q 1506 409 1894 409 
Q 2359 409 2629 706 
Q 2900 1003 2900 1516 
L 2900 3500 
L 3475 3500 
L 3475 0 
L 2900 0 
L 2900 538 
Q 2691 219 2414 64 
Q 2138 -91 1772 -91 
Q 1169 -91 856 284 
Q 544 659 544 1381 
z
M 1991 3584 
L 1991 3584 
z
" transform="scale(0.015625)"/>
      </defs>
      <use xlink:href="#DejaVuSans-54"/>
      <use xlink:href="#DejaVuSans-72" x="46.333984"/>
      <use xlink:href="#DejaVuSans-75" x="87.447266"/>
      <use xlink:href="#DejaVuSans-65" x="150.826172"/>
      <use xlink:href="#DejaVuSans-20" x="212.349609"/>
      <use xlink:href="#DejaVuSans-50" x="244.136719"/>
      <use xlink:href="#DejaVuSans-6f" x="300.814453"/>
      <use xlink:href="#DejaVuSans-73" x="361.996094"/>
      <use xlink:href="#DejaVuSans-69" x="414.095703"/>
      <use xlink:href="#DejaVuSans-74" x="441.878906"/>
      <use xlink:href="#DejaVuSans-69" x="481.087891"/>
      <use xlink:href="#DejaVuSans-76" x="508.871094"/>
      <use xlink:href="#DejaVuSans-65" x="568.050781"/>
      <use xlink:href="#DejaVuSans-20" x="629.574219"/>
      <use xlink:href="#DejaVuSans-52" x="661.361328"/>
      <use xlink:href="#DejaVuSans-61" x="728.59375"/>
      <use xlink:href="#DejaVuSans-74" x="789.873047"/>
      <use xlink:href="#DejaVuSans-65" x="829.082031"/>
     </g>
    </g>
   </g>
   <g id="line2d_13">
    <path d="M 43.78125 354.958125 
L 43.78125 351.882397 
L 44.957845 351.882397 
L 44.957845 348.806669 
L 45.193164 348.806669 
L 45.193164 345.730941 
L 46.369758 345.730941 
L 46.369758 342.655212 
L 47.075715 342.655212 
L 47.075715 339.579484 
L 48.722947 339.579484 
L 48.722947 336.503756 
L 48.958266 336.503756 
L 48.958266 330.3523 
L 49.193585 330.3523 
L 49.193585 327.276572 
L 50.134861 327.276572 
L 50.134861 324.200843 
L 50.37018 324.200843 
L 50.37018 321.125115 
L 51.311456 321.125115 
L 51.311456 318.049387 
L 53.899964 318.049387 
L 53.899964 314.973659 
L 55.076558 314.973659 
L 55.076558 311.897931 
L 55.782515 311.897931 
L 55.782515 308.822203 
L 56.253153 308.822203 
L 56.253153 305.746475 
L 56.488472 305.746475 
L 56.488472 302.670746 
L 57.194429 302.670746 
L 57.194429 296.51929 
L 57.665067 296.51929 
L 57.665067 293.443562 
L 60.488894 293.443562 
L 60.488894 284.216377 
L 60.959531 284.216377 
L 60.959531 281.140649 
L 63.077402 281.140649 
L 63.077402 278.064921 
L 63.312721 278.064921 
L 63.312721 274.989193 
L 63.783359 274.989193 
L 63.783359 271.913465 
L 65.901229 271.913465 
L 65.901229 268.837737 
L 68.489737 268.837737 
L 68.489737 265.762008 
L 69.195694 265.762008 
L 69.195694 259.610552 
L 69.666332 259.610552 
L 69.666332 253.459096 
L 71.548883 253.459096 
L 71.548883 250.383368 
L 71.784202 250.383368 
L 71.784202 247.30764 
L 73.431435 247.30764 
L 73.431435 244.231911 
L 74.843348 244.231911 
L 74.843348 241.156183 
L 77.431856 241.156183 
L 77.431856 238.080455 
L 78.84377 238.080455 
L 78.84377 235.004727 
L 80.020364 235.004727 
L 80.020364 231.928999 
L 82.138235 231.928999 
L 82.138235 222.701814 
L 82.844191 222.701814 
L 82.844191 219.626086 
L 85.903338 219.626086 
L 85.903338 216.550358 
L 88.256527 216.550358 
L 88.256527 213.47463 
L 88.727165 213.47463 
L 88.727165 210.398902 
L 90.374397 210.398902 
L 90.374397 207.323174 
L 91.080354 207.323174 
L 91.080354 204.247445 
L 92.256948 204.247445 
L 92.256948 201.171717 
L 92.492267 201.171717 
L 92.492267 185.793076 
L 96.022051 185.793076 
L 96.022051 182.717348 
L 103.316938 182.717348 
L 103.316938 179.64162 
L 106.846722 179.64162 
L 106.846722 176.565892 
L 111.082462 176.565892 
L 111.082462 173.490164 
L 117.436073 173.490164 
L 117.436073 167.338708 
L 121.436495 167.338708 
L 121.436495 161.187251 
L 126.378193 161.187251 
L 126.378193 158.111523 
L 130.849252 158.111523 
L 130.849252 155.035795 
L 132.025847 155.035795 
L 132.025847 151.960067 
L 132.731804 151.960067 
L 132.731804 148.884339 
L 134.143717 148.884339 
L 134.143717 142.732882 
L 144.968388 142.732882 
L 144.968388 139.657154 
L 147.321577 139.657154 
L 147.321577 136.581426 
L 151.08668 136.581426 
L 151.08668 133.505698 
L 162.381988 133.505698 
L 162.381988 130.42997 
L 173.677296 130.42997 
L 173.677296 127.354242 
L 177.20708 127.354242 
L 177.20708 124.278513 
L 177.677718 124.278513 
L 177.677718 121.202785 
L 180.972183 121.202785 
L 180.972183 118.127057 
L 182.384097 118.127057 
L 182.384097 115.051329 
L 184.501967 115.051329 
L 184.501967 111.975601 
L 185.207924 111.975601 
L 185.207924 108.899873 
L 190.149621 108.899873 
L 190.149621 105.824144 
L 190.620259 105.824144 
L 190.620259 102.748416 
L 209.916411 102.748416 
L 209.916411 99.672688 
L 212.504919 99.672688 
L 212.504919 96.59696 
L 212.740238 96.59696 
L 212.740238 93.521232 
L 214.622789 93.521232 
L 214.622789 90.445504 
L 218.623211 90.445504 
L 218.623211 87.369775 
L 221.917676 87.369775 
L 221.917676 84.294047 
L 222.858952 84.294047 
L 222.858952 81.218319 
L 228.977244 81.218319 
L 228.977244 78.142591 
L 233.918941 78.142591 
L 233.918941 75.066863 
L 251.332542 75.066863 
L 251.332542 71.991135 
L 264.510401 71.991135 
L 264.510401 68.915407 
L 276.982304 68.915407 
L 276.982304 65.839678 
L 282.159321 65.839678 
L 282.159321 62.76395 
L 293.689948 62.76395 
L 293.689948 59.688222 
L 327.811192 59.688222 
L 327.811192 56.612494 
L 337.694587 56.612494 
L 337.694587 53.536766 
L 352.049041 53.536766 
L 352.049041 50.461038 
L 364.520944 50.461038 
L 364.520944 47.385309 
L 367.109452 47.385309 
L 367.109452 44.309581 
L 455.824687 44.309581 
L 455.824687 41.233853 
L 479.121261 41.233853 
L 479.121261 38.158125 
L 490.18125 38.158125 
L 490.18125 38.158125 
" clip-path="url(#p5b638e27df)" style="fill: none; stroke: #1f77b4; stroke-width: 2; stroke-linecap: square"/>
   </g>
   <g id="line2d_14">
    <path d="M 43.78125 354.958125 
L 490.18125 38.158125 
" clip-path="url(#p5b638e27df)" style="fill: none; stroke-dasharray: 7.4,3.2; stroke-dashoffset: 0; stroke: #ff7f0e; stroke-width: 2"/>
   </g>
   <g id="line2d_15">
    <path d="M 43.78125 354.958125 
L 43.78125 351.882397 
L 43.78125 348.806669 
L 43.78125 342.655212 
L 43.78125 330.3523 
L 44.016569 327.276572 
L 44.016569 321.125115 
L 44.016569 308.822203 
L 44.016569 302.670746 
L 44.016569 296.51929 
L 44.722526 290.367834 
L 44.957845 287.292106 
L 44.957845 281.140649 
L 45.193164 281.140649 
L 45.193164 274.989193 
L 45.193164 268.837737 
L 45.428482 262.68628 
L 45.428482 259.610552 
L 45.663801 256.534824 
L 45.89912 256.534824 
L 46.369758 253.459096 
L 46.369758 241.156183 
L 46.605077 235.004727 
L 46.840396 231.928999 
L 47.075715 231.928999 
L 47.546353 225.777542 
L 48.016991 225.777542 
L 48.487628 222.701814 
L 48.487628 219.626086 
L 48.487628 207.323174 
L 48.722947 204.247445 
L 49.193585 204.247445 
L 49.193585 201.171717 
L 49.428904 201.171717 
L 49.428904 198.095989 
L 50.134861 191.944533 
L 50.605499 188.868805 
L 51.076137 188.868805 
L 51.311456 185.793076 
L 52.252731 182.717348 
L 52.723369 176.565892 
L 53.194007 173.490164 
L 53.899964 173.490164 
L 54.370602 170.414436 
L 55.076558 170.414436 
L 55.547196 170.414436 
L 56.017834 170.414436 
L 57.194429 167.338708 
L 57.900385 167.338708 
L 58.841661 167.338708 
L 59.312299 167.338708 
L 59.782937 164.262979 
L 60.488894 164.262979 
L 61.430169 164.262979 
L 62.136126 164.262979 
L 63.077402 164.262979 
L 64.253996 158.111523 
L 64.489315 158.111523 
L 65.430591 158.111523 
L 67.78378 158.111523 
L 69.195694 155.035795 
L 71.078245 148.884339 
L 71.548883 148.884339 
L 72.725478 148.884339 
L 74.137391 145.80861 
L 76.961218 145.80861 
L 79.079089 145.80861 
L 80.726321 145.80861 
L 83.314829 142.732882 
L 84.962062 139.657154 
L 88.021208 139.657154 
L 89.903759 136.581426 
L 94.1395 133.505698 
L 100.022473 127.354242 
L 106.846722 127.354242 
L 113.670971 115.051329 
L 122.848409 105.824144 
L 132.967122 99.672688 
L 145.203707 96.59696 
L 162.146669 90.445504 
L 186.855156 75.066863 
L 245.920206 65.839678 
L 490.18125 38.158125 
" clip-path="url(#p5b638e27df)" style="fill: none; stroke: #2ca02c; stroke-width: 2; stroke-linecap: square"/>
   </g>
   <g id="line2d_16">
    <path d="M 43.78125 354.958125 
L 490.18125 38.158125 
" clip-path="url(#p5b638e27df)" style="fill: none; stroke-dasharray: 7.4,3.2; stroke-dashoffset: 0; stroke: #d62728; stroke-width: 2"/>
   </g>
   <g id="line2d_17">
    <path d="M 43.78125 354.958125 
L 43.78125 342.655212 
L 44.016569 342.655212 
L 44.016569 305.746475 
L 44.722526 305.746475 
L 44.722526 278.064921 
L 44.957845 278.064921 
L 44.957845 256.534824 
L 45.663801 256.534824 
L 45.663801 247.30764 
L 45.89912 247.30764 
L 45.89912 241.156183 
L 46.369758 241.156183 
L 46.369758 228.853271 
L 46.840396 228.853271 
L 46.840396 219.626086 
L 47.311034 219.626086 
L 47.311034 216.550358 
L 47.546353 216.550358 
L 47.546353 210.398902 
L 47.781672 210.398902 
L 47.781672 207.323174 
L 48.487628 207.323174 
L 48.487628 204.247445 
L 48.958266 204.247445 
L 48.958266 198.095989 
L 49.664223 198.095989 
L 49.664223 195.020261 
L 50.605499 195.020261 
L 50.605499 191.944533 
L 51.076137 191.944533 
L 51.076137 188.868805 
L 52.958688 188.868805 
L 52.958688 185.793076 
L 53.429326 185.793076 
L 53.429326 182.717348 
L 54.135283 182.717348 
L 54.135283 179.64162 
L 55.311877 179.64162 
L 55.311877 167.338708 
L 60.018256 167.338708 
L 60.018256 164.262979 
L 61.19485 164.262979 
L 61.19485 161.187251 
L 64.253996 161.187251 
L 64.253996 158.111523 
L 65.66591 158.111523 
L 65.66591 155.035795 
L 66.607186 155.035795 
L 66.607186 151.960067 
L 71.313564 151.960067 
L 71.313564 145.80861 
L 72.019521 145.80861 
L 72.019521 142.732882 
L 74.843348 142.732882 
L 74.843348 139.657154 
L 76.490581 139.657154 
L 76.490581 133.505698 
L 80.020364 133.505698 
L 80.020364 130.42997 
L 81.667597 130.42997 
L 81.667597 127.354242 
L 84.020786 127.354242 
L 84.020786 124.278513 
L 87.079932 124.278513 
L 87.079932 121.202785 
L 88.727165 121.202785 
L 88.727165 118.127057 
L 96.022051 118.127057 
L 96.022051 115.051329 
L 102.8463 115.051329 
L 102.8463 111.975601 
L 105.905446 111.975601 
L 105.905446 108.899873 
L 108.964592 108.899873 
L 108.964592 105.824144 
L 118.377349 105.824144 
L 118.377349 102.748416 
L 124.260322 102.748416 
L 124.260322 99.672688 
L 145.674344 99.672688 
L 145.674344 96.59696 
L 153.675188 96.59696 
L 153.675188 93.521232 
L 168.735599 93.521232 
L 168.735599 90.445504 
L 180.501545 90.445504 
L 180.501545 87.369775 
L 199.562378 87.369775 
L 199.562378 84.294047 
L 206.621946 84.294047 
L 206.621946 81.218319 
L 208.975135 81.218319 
L 208.975135 78.142591 
L 219.329168 78.142591 
L 219.329168 75.066863 
L 236.036811 75.066863 
L 236.036811 71.991135 
L 244.743612 71.991135 
L 244.743612 68.915407 
L 248.979352 68.915407 
L 248.979352 65.839678 
L 261.921893 65.839678 
L 261.921893 62.76395 
L 281.453364 62.76395 
L 281.453364 59.688222 
L 285.453786 59.688222 
L 285.453786 56.612494 
L 314.868651 56.612494 
L 314.868651 53.536766 
L 350.16649 53.536766 
L 350.16649 50.461038 
L 360.755841 50.461038 
L 360.755841 47.385309 
L 368.521366 47.385309 
L 368.521366 44.309581 
L 425.468546 44.309581 
L 425.468546 41.233853 
L 469.002547 41.233853 
L 469.002547 38.158125 
L 490.18125 38.158125 
L 490.18125 38.158125 
" clip-path="url(#p5b638e27df)" style="fill: none; stroke: #9467bd; stroke-width: 2; stroke-linecap: square"/>
   </g>
   <g id="line2d_18">
    <path d="M 43.78125 354.958125 
L 490.18125 38.158125 
" clip-path="url(#p5b638e27df)" style="fill: none; stroke-dasharray: 7.4,3.2; stroke-dashoffset: 0; stroke: #8c564b; stroke-width: 2"/>
   </g>
   <g id="patch_3">
    <path d="M 43.78125 354.958125 
L 43.78125 22.318125 
" style="fill: none; stroke: #000000; stroke-width: 0.8; stroke-linejoin: miter; stroke-linecap: square"/>
   </g>
   <g id="patch_4">
    <path d="M 490.18125 354.958125 
L 490.18125 22.318125 
" style="fill: none; stroke: #000000; stroke-width: 0.8; stroke-linejoin: miter; stroke-linecap: square"/>
   </g>
   <g id="patch_5">
    <path d="M 43.78125 354.958125 
L 490.18125 354.958125 
" style="fill: none; stroke: #000000; stroke-width: 0.8; stroke-linejoin: miter; stroke-linecap: square"/>
   </g>
   <g id="patch_6">
    <path d="M 43.78125 22.318125 
L 490.18125 22.318125 
" style="fill: none; stroke: #000000; stroke-width: 0.8; stroke-linejoin: miter; stroke-linecap: square"/>
   </g>
   <g id="text_15">
    <!-- ROC Curves -->
    <g transform="translate(231.165 16.318125) scale(0.12 -0.12)">
     <defs>
      <path id="DejaVuSans-4f" d="M 2522 4238 
Q 1834 4238 1429 3725 
Q 1025 3213 1025 2328 
Q 1025 1447 1429 934 
Q 1834 422 2522 422 
Q 3209 422 3611 934 
Q 4013 1447 4013 2328 
Q 4013 3213 3611 3725 
Q 3209 4238 2522 4238 
z
M 2522 4750 
Q 3503 4750 4090 4092 
Q 4678 3434 4678 2328 
Q 4678 1225 4090 567 
Q 3503 -91 2522 -91 
Q 1538 -91 948 565 
Q 359 1222 359 2328 
Q 359 3434 948 4092 
Q 1538 4750 2522 4750 
z
" transform="scale(0.015625)"/>
      <path id="DejaVuSans-43" d="M 4122 4306 
L 4122 3641 
Q 3803 3938 3442 4084 
Q 3081 4231 2675 4231 
Q 1875 4231 1450 3742 
Q 1025 3253 1025 2328 
Q 1025 1406 1450 917 
Q 1875 428 2675 428 
Q 3081 428 3442 575 
Q 3803 722 4122 1019 
L 4122 359 
Q 3791 134 3420 21 
Q 3050 -91 2638 -91 
Q 1578 -91 968 557 
Q 359 1206 359 2328 
Q 359 3453 968 4101 
Q 1578 4750 2638 4750 
Q 3056 4750 3426 4639 
Q 3797 4528 4122 4306 
z
" transform="scale(0.015625)"/>
     </defs>
     <use xlink:href="#DejaVuSans-52"/>
     <use xlink:href="#DejaVuSans-4f" x="69.482422"/>
     <use xlink:href="#DejaVuSans-43" x="148.193359"/>
     <use xlink:href="#DejaVuSans-20" x="218.017578"/>
     <use xlink:href="#DejaVuSans-43" x="249.804688"/>
     <use xlink:href="#DejaVuSans-75" x="319.628906"/>
     <use xlink:href="#DejaVuSans-72" x="383.007812"/>
     <use xlink:href="#DejaVuSans-76" x="424.121094"/>
     <use xlink:href="#DejaVuSans-65" x="483.300781"/>
     <use xlink:href="#DejaVuSans-73" x="544.824219"/>
    </g>
   </g>
   <g id="legend_1">
    <g id="patch_7">
     <path d="M 286.1375 349.958125 
L 483.18125 349.958125 
Q 485.18125 349.958125 485.18125 347.958125 
L 485.18125 304.92375 
Q 485.18125 302.92375 483.18125 302.92375 
L 286.1375 302.92375 
Q 284.1375 302.92375 284.1375 304.92375 
L 284.1375 347.958125 
Q 284.1375 349.958125 286.1375 349.958125 
z
" style="fill: #ffffff; opacity: 0.8; stroke: #cccccc; stroke-linejoin: miter"/>
    </g>
    <g id="line2d_19">
     <path d="M 288.1375 311.022187 
L 298.1375 311.022187 
L 308.1375 311.022187 
" style="fill: none; stroke: #1f77b4; stroke-width: 2; stroke-linecap: square"/>
    </g>
    <g id="text_16">
     <!-- Logistic Regression (AUC = 0.80) -->
     <g transform="translate(316.1375 314.522187) scale(0.1 -0.1)">
      <defs>
       <path id="DejaVuSans-4c" d="M 628 4666 
L 1259 4666 
L 1259 531 
L 3531 531 
L 3531 0 
L 628 0 
L 628 4666 
z
" transform="scale(0.015625)"/>
       <path id="DejaVuSans-67" d="M 2906 1791 
Q 2906 2416 2648 2759 
Q 2391 3103 1925 3103 
Q 1463 3103 1205 2759 
Q 947 2416 947 1791 
Q 947 1169 1205 825 
Q 1463 481 1925 481 
Q 2391 481 2648 825 
Q 2906 1169 2906 1791 
z
M 3481 434 
Q 3481 -459 3084 -895 
Q 2688 -1331 1869 -1331 
Q 1566 -1331 1297 -1286 
Q 1028 -1241 775 -1147 
L 775 -588 
Q 1028 -725 1275 -790 
Q 1522 -856 1778 -856 
Q 2344 -856 2625 -561 
Q 2906 -266 2906 331 
L 2906 616 
Q 2728 306 2450 153 
Q 2172 0 1784 0 
Q 1141 0 747 490 
Q 353 981 353 1791 
Q 353 2603 747 3093 
Q 1141 3584 1784 3584 
Q 2172 3584 2450 3431 
Q 2728 3278 2906 2969 
L 2906 3500 
L 3481 3500 
L 3481 434 
z
" transform="scale(0.015625)"/>
       <path id="DejaVuSans-63" d="M 3122 3366 
L 3122 2828 
Q 2878 2963 2633 3030 
Q 2388 3097 2138 3097 
Q 1578 3097 1268 2742 
Q 959 2388 959 1747 
Q 959 1106 1268 751 
Q 1578 397 2138 397 
Q 2388 397 2633 464 
Q 2878 531 3122 666 
L 3122 134 
Q 2881 22 2623 -34 
Q 2366 -91 2075 -91 
Q 1284 -91 818 406 
Q 353 903 353 1747 
Q 353 2603 823 3093 
Q 1294 3584 2113 3584 
Q 2378 3584 2631 3529 
Q 2884 3475 3122 3366 
z
" transform="scale(0.015625)"/>
       <path id="DejaVuSans-6e" d="M 3513 2113 
L 3513 0 
L 2938 0 
L 2938 2094 
Q 2938 2591 2744 2837 
Q 2550 3084 2163 3084 
Q 1697 3084 1428 2787 
Q 1159 2491 1159 1978 
L 1159 0 
L 581 0 
L 581 3500 
L 1159 3500 
L 1159 2956 
Q 1366 3272 1645 3428 
Q 1925 3584 2291 3584 
Q 2894 3584 3203 3211 
Q 3513 2838 3513 2113 
z
" transform="scale(0.015625)"/>
       <path id="DejaVuSans-28" d="M 1984 4856 
Q 1566 4138 1362 3434 
Q 1159 2731 1159 2009 
Q 1159 1288 1364 580 
Q 1569 -128 1984 -844 
L 1484 -844 
Q 1016 -109 783 600 
Q 550 1309 550 2009 
Q 550 2706 781 3412 
Q 1013 4119 1484 4856 
L 1984 4856 
z
" transform="scale(0.015625)"/>
       <path id="DejaVuSans-41" d="M 2188 4044 
L 1331 1722 
L 3047 1722 
L 2188 4044 
z
M 1831 4666 
L 2547 4666 
L 4325 0 
L 3669 0 
L 3244 1197 
L 1141 1197 
L 716 0 
L 50 0 
L 1831 4666 
z
" transform="scale(0.015625)"/>
       <path id="DejaVuSans-55" d="M 556 4666 
L 1191 4666 
L 1191 1831 
Q 1191 1081 1462 751 
Q 1734 422 2344 422 
Q 2950 422 3222 751 
Q 3494 1081 3494 1831 
L 3494 4666 
L 4128 4666 
L 4128 1753 
Q 4128 841 3676 375 
Q 3225 -91 2344 -91 
Q 1459 -91 1007 375 
Q 556 841 556 1753 
L 556 4666 
z
" transform="scale(0.015625)"/>
       <path id="DejaVuSans-3d" d="M 678 2906 
L 4684 2906 
L 4684 2381 
L 678 2381 
L 678 2906 
z
M 678 1631 
L 4684 1631 
L 4684 1100 
L 678 1100 
L 678 1631 
z
" transform="scale(0.015625)"/>
       <path id="DejaVuSans-29" d="M 513 4856 
L 1013 4856 
Q 1481 4119 1714 3412 
Q 1947 2706 1947 2009 
Q 1947 1309 1714 600 
Q 1481 -109 1013 -844 
L 513 -844 
Q 928 -128 1133 580 
Q 1338 1288 1338 2009 
Q 1338 2731 1133 3434 
Q 928 4138 513 4856 
z
" transform="scale(0.015625)"/>
      </defs>
      <use xlink:href="#DejaVuSans-4c"/>
      <use xlink:href="#DejaVuSans-6f" x="53.962891"/>
      <use xlink:href="#DejaVuSans-67" x="115.144531"/>
      <use xlink:href="#DejaVuSans-69" x="178.621094"/>
      <use xlink:href="#DejaVuSans-73" x="206.404297"/>
      <use xlink:href="#DejaVuSans-74" x="258.503906"/>
      <use xlink:href="#DejaVuSans-69" x="297.712891"/>
      <use xlink:href="#DejaVuSans-63" x="325.496094"/>
      <use xlink:href="#DejaVuSans-20" x="380.476562"/>
      <use xlink:href="#DejaVuSans-52" x="412.263672"/>
      <use xlink:href="#DejaVuSans-65" x="477.246094"/>
      <use xlink:href="#DejaVuSans-67" x="538.769531"/>
      <use xlink:href="#DejaVuSans-72" x="602.246094"/>
      <use xlink:href="#DejaVuSans-65" x="641.109375"/>
      <use xlink:href="#DejaVuSans-73" x="702.632812"/>
      <use xlink:href="#DejaVuSans-73" x="754.732422"/>
      <use xlink:href="#DejaVuSans-69" x="806.832031"/>
      <use xlink:href="#DejaVuSans-6f" x="834.615234"/>
      <use xlink:href="#DejaVuSans-6e" x="895.796875"/>
      <use xlink:href="#DejaVuSans-20" x="959.175781"/>
      <use xlink:href="#DejaVuSans-28" x="990.962891"/>
      <use xlink:href="#DejaVuSans-41" x="1029.976562"/>
      <use xlink:href="#DejaVuSans-55" x="1098.384766"/>
      <use xlink:href="#DejaVuSans-43" x="1171.578125"/>
      <use xlink:href="#DejaVuSans-20" x="1241.402344"/>
      <use xlink:href="#DejaVuSans-3d" x="1273.189453"/>
      <use xlink:href="#DejaVuSans-20" x="1356.978516"/>
      <use xlink:href="#DejaVuSans-30" x="1388.765625"/>
      <use xlink:href="#DejaVuSans-2e" x="1452.388672"/>
      <use xlink:href="#DejaVuSans-38" x="1484.175781"/>
      <use xlink:href="#DejaVuSans-30" x="1547.798828"/>
      <use xlink:href="#DejaVuSans-29" x="1611.421875"/>
     </g>
    </g>
    <g id="line2d_20">
     <path d="M 288.1375 325.700312 
L 298.1375 325.700312 
L 308.1375 325.700312 
" style="fill: none; stroke: #2ca02c; stroke-width: 2; stroke-linecap: square"/>
    </g>
    <g id="text_17">
     <!-- Random Forest (AUC = 0.88) -->
     <g transform="translate(316.1375 329.200312) scale(0.1 -0.1)">
      <defs>
       <path id="DejaVuSans-64" d="M 2906 2969 
L 2906 4863 
L 3481 4863 
L 3481 0 
L 2906 0 
L 2906 525 
Q 2725 213 2448 61 
Q 2172 -91 1784 -91 
Q 1150 -91 751 415 
Q 353 922 353 1747 
Q 353 2572 751 3078 
Q 1150 3584 1784 3584 
Q 2172 3584 2448 3432 
Q 2725 3281 2906 2969 
z
M 947 1747 
Q 947 1113 1208 752 
Q 1469 391 1925 391 
Q 2381 391 2643 752 
Q 2906 1113 2906 1747 
Q 2906 2381 2643 2742 
Q 2381 3103 1925 3103 
Q 1469 3103 1208 2742 
Q 947 2381 947 1747 
z
" transform="scale(0.015625)"/>
       <path id="DejaVuSans-6d" d="M 3328 2828 
Q 3544 3216 3844 3400 
Q 4144 3584 4550 3584 
Q 5097 3584 5394 3201 
Q 5691 2819 5691 2113 
L 5691 0 
L 5113 0 
L 5113 2094 
Q 5113 2597 4934 2840 
Q 4756 3084 4391 3084 
Q 3944 3084 3684 2787 
Q 3425 2491 3425 1978 
L 3425 0 
L 2847 0 
L 2847 2094 
Q 2847 2600 2669 2842 
Q 2491 3084 2119 3084 
Q 1678 3084 1418 2786 
Q 1159 2488 1159 1978 
L 1159 0 
L 581 0 
L 581 3500 
L 1159 3500 
L 1159 2956 
Q 1356 3278 1631 3431 
Q 1906 3584 2284 3584 
Q 2666 3584 2933 3390 
Q 3200 3197 3328 2828 
z
" transform="scale(0.015625)"/>
      </defs>
      <use xlink:href="#DejaVuSans-52"/>
      <use xlink:href="#DejaVuSans-61" x="67.232422"/>
      <use xlink:href="#DejaVuSans-6e" x="128.511719"/>
      <use xlink:href="#DejaVuSans-64" x="191.890625"/>
      <use xlink:href="#DejaVuSans-6f" x="255.367188"/>
      <use xlink:href="#DejaVuSans-6d" x="316.548828"/>
      <use xlink:href="#DejaVuSans-20" x="413.960938"/>
      <use xlink:href="#DejaVuSans-46" x="445.748047"/>
      <use xlink:href="#DejaVuSans-6f" x="499.642578"/>
      <use xlink:href="#DejaVuSans-72" x="560.824219"/>
      <use xlink:href="#DejaVuSans-65" x="599.6875"/>
      <use xlink:href="#DejaVuSans-73" x="661.210938"/>
      <use xlink:href="#DejaVuSans-74" x="713.310547"/>
      <use xlink:href="#DejaVuSans-20" x="752.519531"/>
      <use xlink:href="#DejaVuSans-28" x="784.306641"/>
      <use xlink:href="#DejaVuSans-41" x="823.320312"/>
      <use xlink:href="#DejaVuSans-55" x="891.728516"/>
      <use xlink:href="#DejaVuSans-43" x="964.921875"/>
      <use xlink:href="#DejaVuSans-20" x="1034.746094"/>
      <use xlink:href="#DejaVuSans-3d" x="1066.533203"/>
      <use xlink:href="#DejaVuSans-20" x="1150.322266"/>
      <use xlink:href="#DejaVuSans-30" x="1182.109375"/>
      <use xlink:href="#DejaVuSans-2e" x="1245.732422"/>
      <use xlink:href="#DejaVuSans-38" x="1277.519531"/>
      <use xlink:href="#DejaVuSans-38" x="1341.142578"/>
      <use xlink:href="#DejaVuSans-29" x="1404.765625"/>
     </g>
    </g>
    <g id="line2d_21">
     <path d="M 288.1375 340.378437 
L 298.1375 340.378437 
L 308.1375 340.378437 
" style="fill: none; stroke: #9467bd; stroke-width: 2; stroke-linecap: square"/>
    </g>
    <g id="text_18">
     <!-- XGBoost (AUC = 0.88) -->
     <g transform="translate(316.1375 343.878437) scale(0.1 -0.1)">
      <defs>
       <path id="DejaVuSans-58" d="M 403 4666 
L 1081 4666 
L 2241 2931 
L 3406 4666 
L 4084 4666 
L 2584 2425 
L 4184 0 
L 3506 0 
L 2194 1984 
L 872 0 
L 191 0 
L 1856 2491 
L 403 4666 
z
" transform="scale(0.015625)"/>
       <path id="DejaVuSans-47" d="M 3809 666 
L 3809 1919 
L 2778 1919 
L 2778 2438 
L 4434 2438 
L 4434 434 
Q 4069 175 3628 42 
Q 3188 -91 2688 -91 
Q 1594 -91 976 548 
Q 359 1188 359 2328 
Q 359 3472 976 4111 
Q 1594 4750 2688 4750 
Q 3144 4750 3555 4637 
Q 3966 4525 4313 4306 
L 4313 3634 
Q 3963 3931 3569 4081 
Q 3175 4231 2741 4231 
Q 1884 4231 1454 3753 
Q 1025 3275 1025 2328 
Q 1025 1384 1454 906 
Q 1884 428 2741 428 
Q 3075 428 3337 486 
Q 3600 544 3809 666 
z
" transform="scale(0.015625)"/>
       <path id="DejaVuSans-42" d="M 1259 2228 
L 1259 519 
L 2272 519 
Q 2781 519 3026 730 
Q 3272 941 3272 1375 
Q 3272 1813 3026 2020 
Q 2781 2228 2272 2228 
L 1259 2228 
z
M 1259 4147 
L 1259 2741 
L 2194 2741 
Q 2656 2741 2882 2914 
Q 3109 3088 3109 3444 
Q 3109 3797 2882 3972 
Q 2656 4147 2194 4147 
L 1259 4147 
z
M 628 4666 
L 2241 4666 
Q 2963 4666 3353 4366 
Q 3744 4066 3744 3513 
Q 3744 3084 3544 2831 
Q 3344 2578 2956 2516 
Q 3422 2416 3680 2098 
Q 3938 1781 3938 1306 
Q 3938 681 3513 340 
Q 3088 0 2303 0 
L 628 0 
L 628 4666 
z
" transform="scale(0.015625)"/>
      </defs>
      <use xlink:href="#DejaVuSans-58"/>
      <use xlink:href="#DejaVuSans-47" x="68.505859"/>
      <use xlink:href="#DejaVuSans-42" x="145.996094"/>
      <use xlink:href="#DejaVuSans-6f" x="214.599609"/>
      <use xlink:href="#DejaVuSans-6f" x="275.78125"/>
      <use xlink:href="#DejaVuSans-73" x="336.962891"/>
      <use xlink:href="#DejaVuSans-74" x="389.0625"/>
      <use xlink:href="#DejaVuSans-20" x="428.271484"/>
      <use xlink:href="#DejaVuSans-28" x="460.058594"/>
      <use xlink:href="#DejaVuSans-41" x="499.072266"/>
      <use xlink:href="#DejaVuSans-55" x="567.480469"/>
      <use xlink:href="#DejaVuSans-43" x="640.673828"/>
      <use xlink:href="#DejaVuSans-20" x="710.498047"/>
      <use xlink:href="#DejaVuSans-3d" x="742.285156"/>
      <use xlink:href="#DejaVuSans-20" x="826.074219"/>
      <use xlink:href="#DejaVuSans-30" x="857.861328"/>
      <use xlink:href="#DejaVuSans-2e" x="921.484375"/>
      <use xlink:href="#DejaVuSans-38" x="953.271484"/>
      <use xlink:href="#DejaVuSans-38" x="1016.894531"/>
      <use xlink:href="#DejaVuSans-29" x="1080.517578"/>
     </g>
    </g>
   </g>
  </g>
 </g>
 <defs>
  <clipPath id="p5b638e27df">
   <rect x="43.78125" y="22.318125" width="446.4" height="332.64"/>
  </clipPath>
 </defs>
</svg>
