<?xml version="1.0" encoding="utf-8" standalone="no"?>
<!DOCTYPE svg PUBLIC "-//W3C//DTD SVG 1.1//EN"
  "http://www.w3.org/Graphics/SVG/1.1/DTD/svg11.dtd">
<!-- Created with matplotlib (https://matplotlib.org/) -->
<svg height="352.55625pt" version="1.1" viewBox="0 0 887.98125 352.55625" width="887.98125pt" xmlns="http://www.w3.org/2000/svg" xmlns:xlink="http://www.w3.org/1999/xlink">
 <defs>
  <style type="text/css">
*{stroke-linecap:butt;stroke-linejoin:round;}
  </style>
 </defs>
 <g id="figure_1">
  <g id="patch_1">
   <path d="M 0 352.55625 
L 887.98125 352.55625 
L 887.98125 0 
L 0 0 
z
" style="fill:#ffffff;"/>
  </g>
  <g id="axes_1">
   <g id="patch_2">
    <path d="M 43.78125 315 
L 289.957721 315 
L 289.957721 43.2 
L 43.78125 43.2 
z
" style="fill:#ffffff;"/>
   </g>
   <g id="matplotlib.axis_1">
    <g id="xtick_1">
     <g id="line2d_1">
      <defs>
       <path d="M 0 0 
L 0 3.5 
" id="m02024a594b" style="stroke:#000000;stroke-width:0.8;"/>
      </defs>
      <g>
       <use style="stroke:#000000;stroke-width:0.8;" x="50.269476" xlink:href="#m02024a594b" y="315"/>
      </g>
     </g>
     <g id="text_1">
      <!-- 0 -->
      <defs>
       <path d="M 31.78125 66.40625 
Q 24.171875 66.40625 20.328125 58.90625 
Q 16.5 51.421875 16.5 36.375 
Q 16.5 21.390625 20.328125 13.890625 
Q 24.171875 6.390625 31.78125 6.390625 
Q 39.453125 6.390625 43.28125 13.890625 
Q 47.125 21.390625 47.125 36.375 
Q 47.125 51.421875 43.28125 58.90625 
Q 39.453125 66.40625 31.78125 66.40625 
z
M 31.78125 74.21875 
Q 44.046875 74.21875 50.515625 64.515625 
Q 56.984375 54.828125 56.984375 36.375 
Q 56.984375 17.96875 50.515625 8.265625 
Q 44.046875 -1.421875 31.78125 -1.421875 
Q 19.53125 -1.421875 13.0625 8.265625 
Q 6.59375 17.96875 6.59375 36.375 
Q 6.59375 54.828125 13.0625 64.515625 
Q 19.53125 74.21875 31.78125 74.21875 
z
" id="DejaVuSans-48"/>
      </defs>
      <g transform="translate(47.088226 329.598437)scale(0.1 -0.1)">
       <use xlink:href="#DejaVuSans-48"/>
      </g>
     </g>
    </g>
    <g id="xtick_2">
     <g id="line2d_2">
      <g>
       <use style="stroke:#000000;stroke-width:0.8;" x="97.285609" xlink:href="#m02024a594b" y="315"/>
      </g>
     </g>
     <g id="text_2">
      <!-- 50 -->
      <defs>
       <path d="M 10.796875 72.90625 
L 49.515625 72.90625 
L 49.515625 64.59375 
L 19.828125 64.59375 
L 19.828125 46.734375 
Q 21.96875 47.46875 24.109375 47.828125 
Q 26.265625 48.1875 28.421875 48.1875 
Q 40.625 48.1875 47.75 41.5 
Q 54.890625 34.8125 54.890625 23.390625 
Q 54.890625 11.625 47.5625 5.09375 
Q 40.234375 -1.421875 26.90625 -1.421875 
Q 22.3125 -1.421875 17.546875 -0.640625 
Q 12.796875 0.140625 7.71875 1.703125 
L 7.71875 11.625 
Q 12.109375 9.234375 16.796875 8.0625 
Q 21.484375 6.890625 26.703125 6.890625 
Q 35.15625 6.890625 40.078125 11.328125 
Q 45.015625 15.765625 45.015625 23.390625 
Q 45.015625 31 40.078125 35.4375 
Q 35.15625 39.890625 26.703125 39.890625 
Q 22.75 39.890625 18.8125 39.015625 
Q 14.890625 38.140625 10.796875 36.28125 
z
" id="DejaVuSans-53"/>
      </defs>
      <g transform="translate(90.923109 329.598437)scale(0.1 -0.1)">
       <use xlink:href="#DejaVuSans-53"/>
       <use x="63.623047" xlink:href="#DejaVuSans-48"/>
      </g>
     </g>
    </g>
    <g id="xtick_3">
     <g id="line2d_3">
      <g>
       <use style="stroke:#000000;stroke-width:0.8;" x="144.301742" xlink:href="#m02024a594b" y="315"/>
      </g>
     </g>
     <g id="text_3">
      <!-- 100 -->
      <defs>
       <path d="M 12.40625 8.296875 
L 28.515625 8.296875 
L 28.515625 63.921875 
L 10.984375 60.40625 
L 10.984375 69.390625 
L 28.421875 72.90625 
L 38.28125 72.90625 
L 38.28125 8.296875 
L 54.390625 8.296875 
L 54.390625 0 
L 12.40625 0 
z
" id="DejaVuSans-49"/>
      </defs>
      <g transform="translate(134.757992 329.598437)scale(0.1 -0.1)">
       <use xlink:href="#DejaVuSans-49"/>
       <use x="63.623047" xlink:href="#DejaVuSans-48"/>
       <use x="127.246094" xlink:href="#DejaVuSans-48"/>
      </g>
     </g>
    </g>
    <g id="xtick_4">
     <g id="line2d_4">
      <g>
       <use style="stroke:#000000;stroke-width:0.8;" x="191.317874" xlink:href="#m02024a594b" y="315"/>
      </g>
     </g>
     <g id="text_4">
      <!-- 150 -->
      <g transform="translate(181.774124 329.598437)scale(0.1 -0.1)">
       <use xlink:href="#DejaVuSans-49"/>
       <use x="63.623047" xlink:href="#DejaVuSans-53"/>
       <use x="127.246094" xlink:href="#DejaVuSans-48"/>
      </g>
     </g>
    </g>
    <g id="xtick_5">
     <g id="line2d_5">
      <g>
       <use style="stroke:#000000;stroke-width:0.8;" x="238.334007" xlink:href="#m02024a594b" y="315"/>
      </g>
     </g>
     <g id="text_5">
      <!-- 200 -->
      <defs>
       <path d="M 19.1875 8.296875 
L 53.609375 8.296875 
L 53.609375 0 
L 7.328125 0 
L 7.328125 8.296875 
Q 12.9375 14.109375 22.625 23.890625 
Q 32.328125 33.6875 34.8125 36.53125 
Q 39.546875 41.84375 41.421875 45.53125 
Q 43.3125 49.21875 43.3125 52.78125 
Q 43.3125 58.59375 39.234375 62.25 
Q 35.15625 65.921875 28.609375 65.921875 
Q 23.96875 65.921875 18.8125 64.3125 
Q 13.671875 62.703125 7.8125 59.421875 
L 7.8125 69.390625 
Q 13.765625 71.78125 18.9375 73 
Q 24.125 74.21875 28.421875 74.21875 
Q 39.75 74.21875 46.484375 68.546875 
Q 53.21875 62.890625 53.21875 53.421875 
Q 53.21875 48.921875 51.53125 44.890625 
Q 49.859375 40.875 45.40625 35.40625 
Q 44.1875 33.984375 37.640625 27.21875 
Q 31.109375 20.453125 19.1875 8.296875 
z
" id="DejaVuSans-50"/>
      </defs>
      <g transform="translate(228.790257 329.598437)scale(0.1 -0.1)">
       <use xlink:href="#DejaVuSans-50"/>
       <use x="63.623047" xlink:href="#DejaVuSans-48"/>
       <use x="127.246094" xlink:href="#DejaVuSans-48"/>
      </g>
     </g>
    </g>
    <g id="xtick_6">
     <g id="line2d_6">
      <g>
       <use style="stroke:#000000;stroke-width:0.8;" x="285.35014" xlink:href="#m02024a594b" y="315"/>
      </g>
     </g>
     <g id="text_6">
      <!-- 250 -->
      <g transform="translate(275.80639 329.598437)scale(0.1 -0.1)">
       <use xlink:href="#DejaVuSans-50"/>
       <use x="63.623047" xlink:href="#DejaVuSans-53"/>
       <use x="127.246094" xlink:href="#DejaVuSans-48"/>
      </g>
     </g>
    </g>
    <g id="text_7">
     <!-- Frequency -->
     <defs>
      <path d="M 9.8125 72.90625 
L 51.703125 72.90625 
L 51.703125 64.59375 
L 19.671875 64.59375 
L 19.671875 43.109375 
L 48.578125 43.109375 
L 48.578125 34.8125 
L 19.671875 34.8125 
L 19.671875 0 
L 9.8125 0 
z
" id="DejaVuSans-70"/>
      <path d="M 41.109375 46.296875 
Q 39.59375 47.171875 37.8125 47.578125 
Q 36.03125 48 33.890625 48 
Q 26.265625 48 22.1875 43.046875 
Q 18.109375 38.09375 18.109375 28.8125 
L 18.109375 0 
L 9.078125 0 
L 9.078125 54.6875 
L 18.109375 54.6875 
L 18.109375 46.1875 
Q 20.953125 51.171875 25.484375 53.578125 
Q 30.03125 56 36.53125 56 
Q 37.453125 56 38.578125 55.875 
Q 39.703125 55.765625 41.0625 55.515625 
z
" id="DejaVuSans-114"/>
      <path d="M 56.203125 29.59375 
L 56.203125 25.203125 
L 14.890625 25.203125 
Q 15.484375 15.921875 20.484375 11.0625 
Q 25.484375 6.203125 34.421875 6.203125 
Q 39.59375 6.203125 44.453125 7.46875 
Q 49.3125 8.734375 54.109375 11.28125 
L 54.109375 2.78125 
Q 49.265625 0.734375 44.1875 -0.34375 
Q 39.109375 -1.421875 33.890625 -1.421875 
Q 20.796875 -1.421875 13.15625 6.1875 
Q 5.515625 13.8125 5.515625 26.8125 
Q 5.515625 40.234375 12.765625 48.109375 
Q 20.015625 56 32.328125 56 
Q 43.359375 56 49.78125 48.890625 
Q 56.203125 41.796875 56.203125 29.59375 
z
M 47.21875 32.234375 
Q 47.125 39.59375 43.09375 43.984375 
Q 39.0625 48.390625 32.421875 48.390625 
Q 24.90625 48.390625 20.390625 44.140625 
Q 15.875 39.890625 15.1875 32.171875 
z
" id="DejaVuSans-101"/>
      <path d="M 14.796875 27.296875 
Q 14.796875 17.390625 18.875 11.75 
Q 22.953125 6.109375 30.078125 6.109375 
Q 37.203125 6.109375 41.296875 11.75 
Q 45.40625 17.390625 45.40625 27.296875 
Q 45.40625 37.203125 41.296875 42.84375 
Q 37.203125 48.484375 30.078125 48.484375 
Q 22.953125 48.484375 18.875 42.84375 
Q 14.796875 37.203125 14.796875 27.296875 
z
M 45.40625 8.203125 
Q 42.578125 3.328125 38.25 0.953125 
Q 33.9375 -1.421875 27.875 -1.421875 
Q 17.96875 -1.421875 11.734375 6.484375 
Q 5.515625 14.40625 5.515625 27.296875 
Q 5.515625 40.1875 11.734375 48.09375 
Q 17.96875 56 27.875 56 
Q 33.9375 56 38.25 53.625 
Q 42.578125 51.265625 45.40625 46.390625 
L 45.40625 54.6875 
L 54.390625 54.6875 
L 54.390625 -20.796875 
L 45.40625 -20.796875 
z
" id="DejaVuSans-113"/>
      <path d="M 8.5 21.578125 
L 8.5 54.6875 
L 17.484375 54.6875 
L 17.484375 21.921875 
Q 17.484375 14.15625 20.5 10.265625 
Q 23.53125 6.390625 29.59375 6.390625 
Q 36.859375 6.390625 41.078125 11.03125 
Q 45.3125 15.671875 45.3125 23.6875 
L 45.3125 54.6875 
L 54.296875 54.6875 
L 54.296875 0 
L 45.3125 0 
L 45.3125 8.40625 
Q 42.046875 3.421875 37.71875 1 
Q 33.40625 -1.421875 27.6875 -1.421875 
Q 18.265625 -1.421875 13.375 4.4375 
Q 8.5 10.296875 8.5 21.578125 
z
M 31.109375 56 
z
" id="DejaVuSans-117"/>
      <path d="M 54.890625 33.015625 
L 54.890625 0 
L 45.90625 0 
L 45.90625 32.71875 
Q 45.90625 40.484375 42.875 44.328125 
Q 39.84375 48.1875 33.796875 48.1875 
Q 26.515625 48.1875 22.3125 43.546875 
Q 18.109375 38.921875 18.109375 30.90625 
L 18.109375 0 
L 9.078125 0 
L 9.078125 54.6875 
L 18.109375 54.6875 
L 18.109375 46.1875 
Q 21.34375 51.125 25.703125 53.5625 
Q 30.078125 56 35.796875 56 
Q 45.21875 56 50.046875 50.171875 
Q 54.890625 44.34375 54.890625 33.015625 
z
" id="DejaVuSans-110"/>
      <path d="M 48.78125 52.59375 
L 48.78125 44.1875 
Q 44.96875 46.296875 41.140625 47.34375 
Q 37.3125 48.390625 33.40625 48.390625 
Q 24.65625 48.390625 19.8125 42.84375 
Q 14.984375 37.3125 14.984375 27.296875 
Q 14.984375 17.28125 19.8125 11.734375 
Q 24.65625 6.203125 33.40625 6.203125 
Q 37.3125 6.203125 41.140625 7.25 
Q 44.96875 8.296875 48.78125 10.40625 
L 48.78125 2.09375 
Q 45.015625 0.34375 40.984375 -0.53125 
Q 36.96875 -1.421875 32.421875 -1.421875 
Q 20.0625 -1.421875 12.78125 6.34375 
Q 5.515625 14.109375 5.515625 27.296875 
Q 5.515625 40.671875 12.859375 48.328125 
Q 20.21875 56 33.015625 56 
Q 37.15625 56 41.109375 55.140625 
Q 45.0625 54.296875 48.78125 52.59375 
z
" id="DejaVuSans-99"/>
      <path d="M 32.171875 -5.078125 
Q 28.375 -14.84375 24.75 -17.8125 
Q 21.140625 -20.796875 15.09375 -20.796875 
L 7.90625 -20.796875 
L 7.90625 -13.28125 
L 13.1875 -13.28125 
Q 16.890625 -13.28125 18.9375 -11.515625 
Q 21 -9.765625 23.484375 -3.21875 
L 25.09375 0.875 
L 2.984375 54.6875 
L 12.5 54.6875 
L 29.59375 11.921875 
L 46.6875 54.6875 
L 56.203125 54.6875 
z
" id="DejaVuSans-121"/>
     </defs>
     <g transform="translate(141.039798 343.276562)scale(0.1 -0.1)">
      <use xlink:href="#DejaVuSans-70"/>
      <use x="50.269531" xlink:href="#DejaVuSans-114"/>
      <use x="89.132812" xlink:href="#DejaVuSans-101"/>
      <use x="150.65625" xlink:href="#DejaVuSans-113"/>
      <use x="214.132812" xlink:href="#DejaVuSans-117"/>
      <use x="277.511719" xlink:href="#DejaVuSans-101"/>
      <use x="339.035156" xlink:href="#DejaVuSans-110"/>
      <use x="402.414062" xlink:href="#DejaVuSans-99"/>
      <use x="457.394531" xlink:href="#DejaVuSans-121"/>
     </g>
    </g>
   </g>
   <g id="matplotlib.axis_2">
    <g id="ytick_1">
     <g id="line2d_7">
      <defs>
       <path d="M 0 0 
L -3.5 0 
" id="mc73a44b83e" style="stroke:#000000;stroke-width:0.8;"/>
      </defs>
      <g>
       <use style="stroke:#000000;stroke-width:0.8;" x="43.78125" xlink:href="#mc73a44b83e" y="315"/>
      </g>
     </g>
     <g id="text_8">
      <!-- 0.0 -->
      <defs>
       <path d="M 10.6875 12.40625 
L 21 12.40625 
L 21 0 
L 10.6875 0 
z
" id="DejaVuSans-46"/>
      </defs>
      <g transform="translate(20.878125 318.799219)scale(0.1 -0.1)">
       <use xlink:href="#DejaVuSans-48"/>
       <use x="63.623047" xlink:href="#DejaVuSans-46"/>
       <use x="95.410156" xlink:href="#DejaVuSans-48"/>
      </g>
     </g>
    </g>
    <g id="ytick_2">
     <g id="line2d_8">
      <g>
       <use style="stroke:#000000;stroke-width:0.8;" x="43.78125" xlink:href="#mc73a44b83e" y="260.64"/>
      </g>
     </g>
     <g id="text_9">
      <!-- 0.2 -->
      <g transform="translate(20.878125 264.439219)scale(0.1 -0.1)">
       <use xlink:href="#DejaVuSans-48"/>
       <use x="63.623047" xlink:href="#DejaVuSans-46"/>
       <use x="95.410156" xlink:href="#DejaVuSans-50"/>
      </g>
     </g>
    </g>
    <g id="ytick_3">
     <g id="line2d_9">
      <g>
       <use style="stroke:#000000;stroke-width:0.8;" x="43.78125" xlink:href="#mc73a44b83e" y="206.28"/>
      </g>
     </g>
     <g id="text_10">
      <!-- 0.4 -->
      <defs>
       <path d="M 37.796875 64.3125 
L 12.890625 25.390625 
L 37.796875 25.390625 
z
M 35.203125 72.90625 
L 47.609375 72.90625 
L 47.609375 25.390625 
L 58.015625 25.390625 
L 58.015625 17.1875 
L 47.609375 17.1875 
L 47.609375 0 
L 37.796875 0 
L 37.796875 17.1875 
L 4.890625 17.1875 
L 4.890625 26.703125 
z
" id="DejaVuSans-52"/>
      </defs>
      <g transform="translate(20.878125 210.079219)scale(0.1 -0.1)">
       <use xlink:href="#DejaVuSans-48"/>
       <use x="63.623047" xlink:href="#DejaVuSans-46"/>
       <use x="95.410156" xlink:href="#DejaVuSans-52"/>
      </g>
     </g>
    </g>
    <g id="ytick_4">
     <g id="line2d_10">
      <g>
       <use style="stroke:#000000;stroke-width:0.8;" x="43.78125" xlink:href="#mc73a44b83e" y="151.92"/>
      </g>
     </g>
     <g id="text_11">
      <!-- 0.6 -->
      <defs>
       <path d="M 33.015625 40.375 
Q 26.375 40.375 22.484375 35.828125 
Q 18.609375 31.296875 18.609375 23.390625 
Q 18.609375 15.53125 22.484375 10.953125 
Q 26.375 6.390625 33.015625 6.390625 
Q 39.65625 6.390625 43.53125 10.953125 
Q 47.40625 15.53125 47.40625 23.390625 
Q 47.40625 31.296875 43.53125 35.828125 
Q 39.65625 40.375 33.015625 40.375 
z
M 52.59375 71.296875 
L 52.59375 62.3125 
Q 48.875 64.0625 45.09375 64.984375 
Q 41.3125 65.921875 37.59375 65.921875 
Q 27.828125 65.921875 22.671875 59.328125 
Q 17.53125 52.734375 16.796875 39.40625 
Q 19.671875 43.65625 24.015625 45.921875 
Q 28.375 48.1875 33.59375 48.1875 
Q 44.578125 48.1875 50.953125 41.515625 
Q 57.328125 34.859375 57.328125 23.390625 
Q 57.328125 12.15625 50.6875 5.359375 
Q 44.046875 -1.421875 33.015625 -1.421875 
Q 20.359375 -1.421875 13.671875 8.265625 
Q 6.984375 17.96875 6.984375 36.375 
Q 6.984375 53.65625 15.1875 63.9375 
Q 23.390625 74.21875 37.203125 74.21875 
Q 40.921875 74.21875 44.703125 73.484375 
Q 48.484375 72.75 52.59375 71.296875 
z
" id="DejaVuSans-54"/>
      </defs>
      <g transform="translate(20.878125 155.719219)scale(0.1 -0.1)">
       <use xlink:href="#DejaVuSans-48"/>
       <use x="63.623047" xlink:href="#DejaVuSans-46"/>
       <use x="95.410156" xlink:href="#DejaVuSans-54"/>
      </g>
     </g>
    </g>
    <g id="ytick_5">
     <g id="line2d_11">
      <g>
       <use style="stroke:#000000;stroke-width:0.8;" x="43.78125" xlink:href="#mc73a44b83e" y="97.56"/>
      </g>
     </g>
     <g id="text_12">
      <!-- 0.8 -->
      <defs>
       <path d="M 31.78125 34.625 
Q 24.75 34.625 20.71875 30.859375 
Q 16.703125 27.09375 16.703125 20.515625 
Q 16.703125 13.921875 20.71875 10.15625 
Q 24.75 6.390625 31.78125 6.390625 
Q 38.8125 6.390625 42.859375 10.171875 
Q 46.921875 13.96875 46.921875 20.515625 
Q 46.921875 27.09375 42.890625 30.859375 
Q 38.875 34.625 31.78125 34.625 
z
M 21.921875 38.8125 
Q 15.578125 40.375 12.03125 44.71875 
Q 8.5 49.078125 8.5 55.328125 
Q 8.5 64.0625 14.71875 69.140625 
Q 20.953125 74.21875 31.78125 74.21875 
Q 42.671875 74.21875 48.875 69.140625 
Q 55.078125 64.0625 55.078125 55.328125 
Q 55.078125 49.078125 51.53125 44.71875 
Q 48 40.375 41.703125 38.8125 
Q 48.828125 37.15625 52.796875 32.3125 
Q 56.78125 27.484375 56.78125 20.515625 
Q 56.78125 9.90625 50.3125 4.234375 
Q 43.84375 -1.421875 31.78125 -1.421875 
Q 19.734375 -1.421875 13.25 4.234375 
Q 6.78125 9.90625 6.78125 20.515625 
Q 6.78125 27.484375 10.78125 32.3125 
Q 14.796875 37.15625 21.921875 38.8125 
z
M 18.3125 54.390625 
Q 18.3125 48.734375 21.84375 45.5625 
Q 25.390625 42.390625 31.78125 42.390625 
Q 38.140625 42.390625 41.71875 45.5625 
Q 45.3125 48.734375 45.3125 54.390625 
Q 45.3125 60.0625 41.71875 63.234375 
Q 38.140625 66.40625 31.78125 66.40625 
Q 25.390625 66.40625 21.84375 63.234375 
Q 18.3125 60.0625 18.3125 54.390625 
z
" id="DejaVuSans-56"/>
      </defs>
      <g transform="translate(20.878125 101.359219)scale(0.1 -0.1)">
       <use xlink:href="#DejaVuSans-48"/>
       <use x="63.623047" xlink:href="#DejaVuSans-46"/>
       <use x="95.410156" xlink:href="#DejaVuSans-56"/>
      </g>
     </g>
    </g>
    <g id="ytick_6">
     <g id="line2d_12">
      <g>
       <use style="stroke:#000000;stroke-width:0.8;" x="43.78125" xlink:href="#mc73a44b83e" y="43.2"/>
      </g>
     </g>
     <g id="text_13">
      <!-- 1.0 -->
      <g transform="translate(20.878125 46.999219)scale(0.1 -0.1)">
       <use xlink:href="#DejaVuSans-49"/>
       <use x="63.623047" xlink:href="#DejaVuSans-46"/>
       <use x="95.410156" xlink:href="#DejaVuSans-48"/>
      </g>
     </g>
    </g>
    <g id="text_14">
     <!-- Proportion -->
     <defs>
      <path d="M 19.671875 64.796875 
L 19.671875 37.40625 
L 32.078125 37.40625 
Q 38.96875 37.40625 42.71875 40.96875 
Q 46.484375 44.53125 46.484375 51.125 
Q 46.484375 57.671875 42.71875 61.234375 
Q 38.96875 64.796875 32.078125 64.796875 
z
M 9.8125 72.90625 
L 32.078125 72.90625 
Q 44.34375 72.90625 50.609375 67.359375 
Q 56.890625 61.8125 56.890625 51.125 
Q 56.890625 40.328125 50.609375 34.8125 
Q 44.34375 29.296875 32.078125 29.296875 
L 19.671875 29.296875 
L 19.671875 0 
L 9.8125 0 
z
" id="DejaVuSans-80"/>
      <path d="M 30.609375 48.390625 
Q 23.390625 48.390625 19.1875 42.75 
Q 14.984375 37.109375 14.984375 27.296875 
Q 14.984375 17.484375 19.15625 11.84375 
Q 23.34375 6.203125 30.609375 6.203125 
Q 37.796875 6.203125 41.984375 11.859375 
Q 46.1875 17.53125 46.1875 27.296875 
Q 46.1875 37.015625 41.984375 42.703125 
Q 37.796875 48.390625 30.609375 48.390625 
z
M 30.609375 56 
Q 42.328125 56 49.015625 48.375 
Q 55.71875 40.765625 55.71875 27.296875 
Q 55.71875 13.875 49.015625 6.21875 
Q 42.328125 -1.421875 30.609375 -1.421875 
Q 18.84375 -1.421875 12.171875 6.21875 
Q 5.515625 13.875 5.515625 27.296875 
Q 5.515625 40.765625 12.171875 48.375 
Q 18.84375 56 30.609375 56 
z
" id="DejaVuSans-111"/>
      <path d="M 18.109375 8.203125 
L 18.109375 -20.796875 
L 9.078125 -20.796875 
L 9.078125 54.6875 
L 18.109375 54.6875 
L 18.109375 46.390625 
Q 20.953125 51.265625 25.265625 53.625 
Q 29.59375 56 35.59375 56 
Q 45.5625 56 51.78125 48.09375 
Q 58.015625 40.1875 58.015625 27.296875 
Q 58.015625 14.40625 51.78125 6.484375 
Q 45.5625 -1.421875 35.59375 -1.421875 
Q 29.59375 -1.421875 25.265625 0.953125 
Q 20.953125 3.328125 18.109375 8.203125 
z
M 48.6875 27.296875 
Q 48.6875 37.203125 44.609375 42.84375 
Q 40.53125 48.484375 33.40625 48.484375 
Q 26.265625 48.484375 22.1875 42.84375 
Q 18.109375 37.203125 18.109375 27.296875 
Q 18.109375 17.390625 22.1875 11.75 
Q 26.265625 6.109375 33.40625 6.109375 
Q 40.53125 6.109375 44.609375 11.75 
Q 48.6875 17.390625 48.6875 27.296875 
z
" id="DejaVuSans-112"/>
      <path d="M 18.3125 70.21875 
L 18.3125 54.6875 
L 36.8125 54.6875 
L 36.8125 47.703125 
L 18.3125 47.703125 
L 18.3125 18.015625 
Q 18.3125 11.328125 20.140625 9.421875 
Q 21.96875 7.515625 27.59375 7.515625 
L 36.8125 7.515625 
L 36.8125 0 
L 27.59375 0 
Q 17.1875 0 13.234375 3.875 
Q 9.28125 7.765625 9.28125 18.015625 
L 9.28125 47.703125 
L 2.6875 47.703125 
L 2.6875 54.6875 
L 9.28125 54.6875 
L 9.28125 70.21875 
z
" id="DejaVuSans-116"/>
      <path d="M 9.421875 54.6875 
L 18.40625 54.6875 
L 18.40625 0 
L 9.421875 0 
z
M 9.421875 75.984375 
L 18.40625 75.984375 
L 18.40625 64.59375 
L 9.421875 64.59375 
z
" id="DejaVuSans-105"/>
     </defs>
     <g transform="translate(14.798438 204.896094)rotate(-90)scale(0.1 -0.1)">
      <use xlink:href="#DejaVuSans-80"/>
      <use x="58.552734" xlink:href="#DejaVuSans-114"/>
      <use x="97.416016" xlink:href="#DejaVuSans-111"/>
      <use x="158.597656" xlink:href="#DejaVuSans-112"/>
      <use x="222.074219" xlink:href="#DejaVuSans-111"/>
      <use x="283.255859" xlink:href="#DejaVuSans-114"/>
      <use x="324.369141" xlink:href="#DejaVuSans-116"/>
      <use x="363.578125" xlink:href="#DejaVuSans-105"/>
      <use x="391.361328" xlink:href="#DejaVuSans-111"/>
      <use x="452.542969" xlink:href="#DejaVuSans-110"/>
     </g>
    </g>
   </g>
   <g id="line2d_13">
    <path clip-path="url(#p068b1ab554)" d="M 55.911412 315 
L 55.911412 314.546244 
L 58.73238 314.546244 
L 58.73238 314.092487 
L 59.672703 314.092487 
L 59.672703 313.638731 
L 60.613025 313.638731 
L 60.613025 313.184975 
L 69.075929 313.184975 
L 69.075929 312.731219 
L 72.83722 312.731219 
L 72.83722 312.277462 
L 76.598511 312.277462 
L 76.598511 311.36995 
L 78.479156 311.36995 
L 78.479156 310.008681 
L 79.419479 310.008681 
L 79.419479 308.193656 
L 81.300124 308.193656 
L 81.300124 307.7399 
L 84.121092 307.7399 
L 84.121092 307.286144 
L 85.061414 307.286144 
L 85.061414 306.832387 
L 88.822705 306.832387 
L 88.822705 306.378631 
L 89.763028 306.378631 
L 89.763028 305.471119 
L 90.70335 305.471119 
L 90.70335 304.10985 
L 93.524318 304.10985 
L 93.524318 303.202337 
L 94.464641 303.202337 
L 94.464641 302.748581 
L 95.404964 302.748581 
L 95.404964 302.294825 
L 96.345286 302.294825 
L 96.345286 300.933556 
L 98.225932 300.933556 
L 98.225932 300.4798 
L 99.166254 300.4798 
L 99.166254 300.026043 
L 100.106577 300.026043 
L 100.106577 299.572287 
L 102.927545 299.572287 
L 102.927545 299.118531 
L 105.748513 299.118531 
L 105.748513 297.757262 
L 107.629158 297.757262 
L 107.629158 296.84975 
L 108.569481 296.84975 
L 108.569481 295.942237 
L 109.509803 295.942237 
L 109.509803 295.488481 
L 111.390449 295.488481 
L 111.390449 295.034725 
L 112.330771 295.034725 
L 112.330771 293.673456 
L 113.271094 293.673456 
L 113.271094 292.765943 
L 114.211417 292.765943 
L 114.211417 291.858431 
L 115.151739 291.858431 
L 115.151739 290.497162 
L 116.092062 290.497162 
L 116.092062 289.589649 
L 117.032385 289.589649 
L 117.032385 288.228381 
L 117.972707 288.228381 
L 117.972707 286.867112 
L 118.91303 286.867112 
L 118.91303 285.505843 
L 119.853353 285.505843 
L 119.853353 283.237062 
L 120.793675 283.237062 
L 120.793675 282.783306 
L 121.733998 282.783306 
L 121.733998 280.514524 
L 122.674321 280.514524 
L 122.674321 279.607012 
L 123.614643 279.607012 
L 123.614643 276.430718 
L 124.554966 276.430718 
L 124.554966 275.069449 
L 125.495289 275.069449 
L 125.495289 272.800668 
L 126.435611 272.800668 
L 126.435611 270.531886 
L 127.375934 270.531886 
L 127.375934 267.355593 
L 128.316257 267.355593 
L 128.316257 265.086811 
L 129.256579 265.086811 
L 129.256579 262.364274 
L 130.196902 262.364274 
L 130.196902 259.641736 
L 131.137224 259.641736 
L 131.137224 258.280467 
L 132.077547 258.280467 
L 132.077547 256.465442 
L 133.01787 256.465442 
L 133.01787 254.650417 
L 133.958192 254.650417 
L 133.958192 251.020367 
L 134.898515 251.020367 
L 134.898515 247.844073 
L 135.838838 247.844073 
L 135.838838 245.575292 
L 136.77916 245.575292 
L 136.77916 244.214023 
L 137.719483 244.214023 
L 137.719483 241.945242 
L 138.659806 241.945242 
L 138.659806 239.676461 
L 139.600128 239.676461 
L 139.600128 237.861436 
L 140.540451 237.861436 
L 140.540451 235.138898 
L 141.480774 235.138898 
L 141.480774 232.870117 
L 142.421096 232.870117 
L 142.421096 231.055092 
L 143.361419 231.055092 
L 143.361419 230.147579 
L 144.301742 230.147579 
L 144.301742 227.425042 
L 145.242064 227.425042 
L 145.242064 224.248748 
L 146.182387 224.248748 
L 146.182387 222.887479 
L 147.12271 222.887479 
L 147.12271 221.52621 
L 148.063032 221.52621 
L 148.063032 219.257429 
L 149.003355 219.257429 
L 149.003355 216.534891 
L 149.943678 216.534891 
L 149.943678 215.173623 
L 150.884 215.173623 
L 150.884 211.997329 
L 151.824323 211.997329 
L 151.824323 208.821035 
L 152.764645 208.821035 
L 152.764645 207.459766 
L 153.704968 207.459766 
L 153.704968 206.098497 
L 154.645291 206.098497 
L 154.645291 203.37596 
L 155.585613 203.37596 
L 155.585613 201.560935 
L 156.525936 201.560935 
L 156.525936 199.292154 
L 157.466259 199.292154 
L 157.466259 195.208347 
L 158.406581 195.208347 
L 158.406581 193.847078 
L 159.346904 193.847078 
L 159.346904 189.763272 
L 160.287227 189.763272 
L 160.287227 186.133222 
L 161.227549 186.133222 
L 161.227549 182.956928 
L 162.167872 182.956928 
L 162.167872 181.595659 
L 163.108195 181.595659 
L 163.108195 180.234391 
L 164.048517 180.234391 
L 164.048517 177.965609 
L 164.98884 177.965609 
L 164.98884 175.243072 
L 165.929163 175.243072 
L 165.929163 172.97429 
L 166.869485 172.97429 
L 166.869485 171.613022 
L 167.809808 171.613022 
L 167.809808 168.890484 
L 168.750131 168.890484 
L 168.750131 168.436728 
L 169.690453 168.436728 
L 169.690453 166.167947 
L 170.630776 166.167947 
L 170.630776 163.899165 
L 171.571099 163.899165 
L 171.571099 162.08414 
L 172.511421 162.08414 
L 172.511421 161.630384 
L 173.451744 161.630384 
L 173.451744 160.722871 
L 174.392067 160.722871 
L 174.392067 158.907846 
L 175.332389 158.907846 
L 175.332389 155.731553 
L 176.272712 155.731553 
L 176.272712 154.82404 
L 177.213034 154.82404 
L 177.213034 152.101503 
L 178.153357 152.101503 
L 178.153357 149.832721 
L 179.09368 149.832721 
L 179.09368 148.925209 
L 180.034002 148.925209 
L 180.034002 147.56394 
L 180.974325 147.56394 
L 180.974325 146.202671 
L 181.914648 146.202671 
L 181.914648 143.93389 
L 182.85497 143.93389 
L 182.85497 141.211352 
L 183.795293 141.211352 
L 183.795293 138.942571 
L 184.735616 138.942571 
L 184.735616 137.581302 
L 185.675938 137.581302 
L 185.675938 134.858765 
L 186.616261 134.858765 
L 186.616261 132.589983 
L 187.556584 132.589983 
L 187.556584 131.228715 
L 188.496906 131.228715 
L 188.496906 130.321202 
L 189.437229 130.321202 
L 189.437229 128.506177 
L 190.377552 128.506177 
L 190.377552 126.691152 
L 191.317874 126.691152 
L 191.317874 125.329883 
L 192.258197 125.329883 
L 192.258197 124.422371 
L 193.19852 124.422371 
L 193.19852 123.061102 
L 195.079165 123.061102 
L 195.079165 121.246077 
L 196.019488 121.246077 
L 196.019488 120.338564 
L 196.95981 120.338564 
L 196.95981 119.431052 
L 197.900133 119.431052 
L 197.900133 117.616027 
L 198.840456 117.616027 
L 198.840456 115.347245 
L 199.780778 115.347245 
L 199.780778 113.985977 
L 200.721101 113.985977 
L 200.721101 112.624708 
L 201.661423 112.624708 
L 201.661423 111.263439 
L 202.601746 111.263439 
L 202.601746 109.90217 
L 203.542069 109.90217 
L 203.542069 108.540902 
L 204.482391 108.540902 
L 204.482391 108.087145 
L 205.422714 108.087145 
L 205.422714 105.364608 
L 206.363037 105.364608 
L 206.363037 103.549583 
L 207.303359 103.549583 
L 207.303359 103.095826 
L 208.243682 103.095826 
L 208.243682 102.64207 
L 209.184005 102.64207 
L 209.184005 101.280801 
L 210.124327 101.280801 
L 210.124327 99.919533 
L 211.06465 99.919533 
L 211.06465 98.104508 
L 212.004973 98.104508 
L 212.004973 96.289482 
L 212.945295 96.289482 
L 212.945295 95.38197 
L 213.885618 95.38197 
L 213.885618 94.020701 
L 214.825941 94.020701 
L 214.825941 93.566945 
L 215.766263 93.566945 
L 215.766263 92.205676 
L 217.646909 92.205676 
L 217.646909 91.75192 
L 218.587231 91.75192 
L 218.587231 90.844407 
L 219.527554 90.844407 
L 219.527554 89.936895 
L 220.467877 89.936895 
L 220.467877 89.483139 
L 221.408199 89.483139 
L 221.408199 88.575626 
L 222.348522 88.575626 
L 222.348522 88.12187 
L 223.288844 88.12187 
L 223.288844 86.760601 
L 224.229167 86.760601 
L 224.229167 85.853088 
L 225.16949 85.853088 
L 225.16949 84.945576 
L 226.109812 84.945576 
L 226.109812 82.676795 
L 227.050135 82.676795 
L 227.050135 81.315526 
L 227.990458 81.315526 
L 227.990458 79.954257 
L 228.93078 79.954257 
L 228.93078 78.592988 
L 230.811426 78.592988 
L 230.811426 76.777963 
L 231.751748 76.777963 
L 231.751748 74.055426 
L 232.692071 74.055426 
L 232.692071 73.147913 
L 233.632394 73.147913 
L 233.632394 72.240401 
L 235.513039 72.240401 
L 235.513039 71.332888 
L 236.453362 71.332888 
L 236.453362 70.879132 
L 237.393684 70.879132 
L 237.393684 70.425376 
L 238.334007 70.425376 
L 238.334007 69.971619 
L 239.27433 69.971619 
L 239.27433 68.610351 
L 240.214652 68.610351 
L 240.214652 66.341569 
L 241.154975 66.341569 
L 241.154975 65.434057 
L 242.095298 65.434057 
L 242.095298 64.072788 
L 243.03562 64.072788 
L 243.03562 63.165275 
L 243.975943 63.165275 
L 243.975943 62.257763 
L 246.796911 62.257763 
L 246.796911 61.35025 
L 247.737233 61.35025 
L 247.737233 60.442738 
L 248.677556 60.442738 
L 248.677556 59.988982 
L 249.617879 59.988982 
L 249.617879 59.535225 
L 250.558201 59.535225 
L 250.558201 58.173957 
L 251.498524 58.173957 
L 251.498524 57.7202 
L 253.379169 57.7202 
L 253.379169 57.266444 
L 254.319492 57.266444 
L 254.319492 56.812688 
L 255.259815 56.812688 
L 255.259815 55.451419 
L 256.200137 55.451419 
L 256.200137 54.997663 
L 257.14046 54.997663 
L 257.14046 54.543907 
L 258.080783 54.543907 
L 258.080783 52.728881 
L 259.021105 52.728881 
L 259.021105 52.275125 
L 259.961428 52.275125 
L 259.961428 51.821369 
L 260.901751 51.821369 
L 260.901751 50.4601 
L 261.842073 50.4601 
L 261.842073 50.006344 
L 262.782396 50.006344 
L 262.782396 49.552588 
L 264.663041 49.552588 
L 264.663041 48.645075 
L 265.603364 48.645075 
L 265.603364 47.737563 
L 266.543687 47.737563 
L 266.543687 47.283806 
L 267.484009 47.283806 
L 267.484009 46.83005 
L 268.424332 46.83005 
L 268.424332 46.376294 
L 269.364654 46.376294 
L 269.364654 45.922538 
L 270.304977 45.922538 
L 270.304977 45.468781 
L 272.185622 45.468781 
L 272.185622 45.015025 
L 274.066268 45.015025 
L 274.066268 44.561269 
L 278.767881 44.561269 
L 278.767881 43.2 
L 278.767881 43.2 
" style="fill:none;stroke:#1ac938;stroke-linecap:square;stroke-width:1.5;"/>
   </g>
   <g id="line2d_14">
    <path clip-path="url(#p068b1ab554)" d="M 54.97109 315 
L 54.97109 307.547419 
L 55.911412 307.547419 
L 55.911412 301.848387 
L 56.851735 301.848387 
L 56.851735 294.834194 
L 57.792058 294.834194 
L 57.792058 284.75129 
L 58.73238 284.75129 
L 58.73238 275.983548 
L 59.672703 275.983548 
L 59.672703 265.023871 
L 60.613025 265.023871 
L 60.613025 258.448065 
L 61.553348 258.448065 
L 61.553348 251.872258 
L 62.493671 251.872258 
L 62.493671 243.542903 
L 63.433993 243.542903 
L 63.433993 233.021613 
L 64.374316 233.021613 
L 64.374316 222.500323 
L 65.314639 222.500323 
L 65.314639 215.486129 
L 66.254961 215.486129 
L 66.254961 208.033548 
L 67.195284 208.033548 
L 67.195284 200.580968 
L 68.135607 200.580968 
L 68.135607 190.059677 
L 69.075929 190.059677 
L 69.075929 181.730323 
L 70.016252 181.730323 
L 70.016252 175.154516 
L 70.956575 175.154516 
L 70.956575 170.332258 
L 71.896897 170.332258 
L 71.896897 162.44129 
L 72.83722 162.44129 
L 72.83722 157.619032 
L 73.777543 157.619032 
L 73.777543 150.604839 
L 74.717865 150.604839 
L 74.717865 145.344194 
L 75.658188 145.344194 
L 75.658188 141.837097 
L 76.598511 141.837097 
L 76.598511 134.822903 
L 77.538833 134.822903 
L 77.538833 128.247097 
L 78.479156 128.247097 
L 78.479156 125.178387 
L 79.419479 125.178387 
L 79.419479 119.917742 
L 80.359801 119.917742 
L 80.359801 119.479355 
L 81.300124 119.479355 
L 81.300124 114.21871 
L 82.240447 114.21871 
L 82.240447 110.711613 
L 83.180769 110.711613 
L 83.180769 105.889355 
L 84.121092 105.889355 
L 84.121092 104.574194 
L 85.061414 104.574194 
L 85.061414 101.505484 
L 86.001737 101.505484 
L 86.001737 98.875161 
L 86.94206 98.875161 
L 86.94206 96.244839 
L 87.882382 96.244839 
L 87.882382 94.49129 
L 88.822705 94.49129 
L 88.822705 89.669032 
L 89.763028 89.669032 
L 89.763028 87.915484 
L 90.70335 87.915484 
L 90.70335 86.161935 
L 91.643673 86.161935 
L 91.643673 85.285161 
L 92.583996 85.285161 
L 92.583996 83.093226 
L 93.524318 83.093226 
L 93.524318 82.654839 
L 94.464641 82.654839 
L 94.464641 81.339677 
L 95.404964 81.339677 
L 95.404964 79.147742 
L 96.345286 79.147742 
L 96.345286 78.709355 
L 97.285609 78.709355 
L 97.285609 76.955806 
L 98.225932 76.955806 
L 98.225932 76.079032 
L 99.166254 76.079032 
L 99.166254 73.887097 
L 100.106577 73.887097 
L 100.106577 73.010323 
L 101.0469 73.010323 
L 101.0469 71.256774 
L 101.987222 71.256774 
L 101.987222 69.503226 
L 102.927545 69.503226 
L 102.927545 67.749677 
L 103.867868 67.749677 
L 103.867868 65.119355 
L 104.80819 65.119355 
L 104.80819 63.804194 
L 105.748513 63.804194 
L 105.748513 63.365806 
L 106.688835 63.365806 
L 106.688835 62.050645 
L 107.629158 62.050645 
L 107.629158 60.297097 
L 108.569481 60.297097 
L 108.569481 59.420323 
L 109.509803 59.420323 
L 109.509803 58.981935 
L 110.450126 58.981935 
L 110.450126 58.543548 
L 111.390449 58.543548 
L 111.390449 57.666774 
L 112.330771 57.666774 
L 112.330771 56.79 
L 113.271094 56.79 
L 113.271094 55.913226 
L 114.211417 55.913226 
L 114.211417 54.159677 
L 115.151739 54.159677 
L 115.151739 53.72129 
L 116.092062 53.72129 
L 116.092062 52.844516 
L 117.032385 52.844516 
L 117.032385 51.967742 
L 118.91303 51.967742 
L 118.91303 51.529355 
L 119.853353 51.529355 
L 119.853353 50.214194 
L 120.793675 50.214194 
L 120.793675 49.337419 
L 121.733998 49.337419 
L 121.733998 48.899032 
L 122.674321 48.899032 
L 122.674321 48.460645 
L 123.614643 48.460645 
L 123.614643 48.022258 
L 125.495289 48.022258 
L 125.495289 46.707097 
L 126.435611 46.707097 
L 126.435611 46.26871 
L 127.375934 46.26871 
L 127.375934 44.953548 
L 128.316257 44.953548 
L 128.316257 44.515161 
L 129.256579 44.515161 
L 129.256579 44.076774 
L 131.137224 44.076774 
L 131.137224 43.2 
L 131.137224 43.2 
" style="fill:none;stroke:#ff7c00;stroke-linecap:square;stroke-width:1.5;"/>
   </g>
   <g id="line2d_15">
    <path clip-path="url(#p068b1ab554)" d="M 54.97109 315 
L 54.97109 311.416612 
L 55.911412 311.416612 
L 55.911412 306.220699 
L 56.851735 306.220699 
L 56.851735 301.920633 
L 57.792058 301.920633 
L 57.792058 298.695583 
L 58.73238 298.695583 
L 58.73238 294.037179 
L 59.672703 294.037179 
L 59.672703 287.945419 
L 60.613025 287.945419 
L 60.613025 282.032828 
L 61.553348 282.032828 
L 61.553348 276.120237 
L 62.493671 276.120237 
L 62.493671 271.103494 
L 63.433993 271.103494 
L 63.433993 266.26592 
L 64.374316 266.26592 
L 64.374316 259.815821 
L 65.314639 259.815821 
L 65.314639 254.440738 
L 66.254961 254.440738 
L 66.254961 250.499011 
L 67.195284 250.499011 
L 67.195284 246.019776 
L 68.135607 246.019776 
L 68.135607 241.182202 
L 69.075929 241.182202 
L 69.075929 234.911272 
L 70.016252 234.911272 
L 70.016252 231.148715 
L 70.956575 231.148715 
L 70.956575 227.206987 
L 71.896897 227.206987 
L 71.896897 222.906922 
L 72.83722 222.906922 
L 72.83722 218.965194 
L 73.777543 218.965194 
L 73.777543 213.948451 
L 74.717865 213.948451 
L 74.717865 209.648385 
L 75.658188 209.648385 
L 75.658188 204.273303 
L 76.598511 204.273303 
L 76.598511 197.106526 
L 77.538833 197.106526 
L 77.538833 192.627291 
L 78.479156 192.627291 
L 78.479156 187.789717 
L 79.419479 187.789717 
L 79.419479 183.66882 
L 80.359801 183.66882 
L 80.359801 180.802109 
L 81.300124 180.802109 
L 81.300124 176.860382 
L 82.240447 176.860382 
L 82.240447 172.739486 
L 83.180769 172.739486 
L 83.180769 168.43942 
L 84.121092 168.43942 
L 84.121092 166.468556 
L 85.061414 166.468556 
L 85.061414 162.34766 
L 86.001737 162.34766 
L 86.001737 158.764272 
L 86.94206 158.764272 
L 86.94206 154.285036 
L 87.882382 154.285036 
L 87.882382 152.135003 
L 88.822705 152.135003 
L 88.822705 148.014107 
L 89.763028 148.014107 
L 89.763028 144.07238 
L 90.70335 144.07238 
L 90.70335 140.668161 
L 91.643673 140.668161 
L 91.643673 137.622281 
L 92.583996 137.622281 
L 92.583996 134.93474 
L 93.524318 134.93474 
L 93.524318 130.993013 
L 94.464641 130.993013 
L 94.464641 126.692947 
L 95.404964 126.692947 
L 95.404964 124.363744 
L 96.345286 124.363744 
L 96.345286 122.034542 
L 97.285609 122.034542 
L 97.285609 119.167831 
L 98.225932 119.167831 
L 98.225932 116.48029 
L 99.166254 116.48029 
L 99.166254 112.538563 
L 100.106577 112.538563 
L 100.106577 110.567699 
L 101.0469 110.567699 
L 101.0469 108.059328 
L 101.987222 108.059328 
L 101.987222 104.117601 
L 102.927545 104.117601 
L 102.927545 101.609229 
L 103.867868 101.609229 
L 103.867868 99.280026 
L 104.80819 99.280026 
L 104.80819 97.667502 
L 105.748513 97.667502 
L 105.748513 95.15913 
L 106.688835 95.15913 
L 106.688835 92.829927 
L 107.629158 92.829927 
L 107.629158 90.142386 
L 108.569481 90.142386 
L 108.569481 87.454845 
L 109.509803 87.454845 
L 109.509803 84.767304 
L 110.450126 84.767304 
L 110.450126 83.692287 
L 111.390449 83.692287 
L 111.390449 81.363085 
L 112.330771 81.363085 
L 112.330771 79.571391 
L 113.271094 79.571391 
L 113.271094 77.779697 
L 114.211417 77.779697 
L 114.211417 75.629664 
L 115.151739 75.629664 
L 115.151739 74.017139 
L 116.092062 74.017139 
L 116.092062 72.046276 
L 117.032385 72.046276 
L 117.032385 69.358734 
L 117.972707 69.358734 
L 117.972707 68.104548 
L 118.91303 68.104548 
L 118.91303 67.56704 
L 119.853353 67.56704 
L 119.853353 66.133685 
L 120.793675 66.133685 
L 120.793675 65.237838 
L 121.733998 65.237838 
L 121.733998 64.162821 
L 122.674321 64.162821 
L 122.674321 62.191958 
L 123.614643 62.191958 
L 123.614643 60.937772 
L 124.554966 60.937772 
L 124.554966 59.683586 
L 125.495289 59.683586 
L 125.495289 58.966908 
L 126.435611 58.966908 
L 126.435611 58.250231 
L 127.375934 58.250231 
L 127.375934 56.637706 
L 128.316257 56.637706 
L 128.316257 55.38352 
L 129.256579 55.38352 
L 129.256579 55.025181 
L 130.196902 55.025181 
L 130.196902 53.950165 
L 131.137224 53.950165 
L 131.137224 52.695979 
L 132.077547 52.695979 
L 132.077547 52.33764 
L 133.01787 52.33764 
L 133.01787 52.158471 
L 133.958192 52.158471 
L 133.958192 51.620962 
L 134.898515 51.620962 
L 134.898515 51.083454 
L 135.838838 51.083454 
L 135.838838 50.725115 
L 136.77916 50.725115 
L 136.77916 50.008438 
L 137.719483 50.008438 
L 137.719483 49.29176 
L 138.659806 49.29176 
L 138.659806 48.395913 
L 139.600128 48.395913 
L 139.600128 47.320897 
L 140.540451 47.320897 
L 140.540451 46.066711 
L 141.480774 46.066711 
L 141.480774 45.170864 
L 142.421096 45.170864 
L 142.421096 44.454186 
L 143.361419 44.454186 
L 143.361419 44.275016 
L 144.301742 44.275016 
L 144.301742 44.095847 
L 145.242064 44.095847 
L 145.242064 43.2 
L 145.242064 43.2 
" style="fill:none;stroke:#023eff;stroke-linecap:square;stroke-width:1.5;"/>
   </g>
   <g id="patch_3">
    <path d="M 43.78125 315 
L 43.78125 43.2 
" style="fill:none;stroke:#000000;stroke-linecap:square;stroke-linejoin:miter;stroke-width:0.8;"/>
   </g>
   <g id="patch_4">
    <path d="M 289.957721 315 
L 289.957721 43.2 
" style="fill:none;stroke:#000000;stroke-linecap:square;stroke-linejoin:miter;stroke-width:0.8;"/>
   </g>
   <g id="patch_5">
    <path d="M 43.78125 315 
L 289.957721 315 
" style="fill:none;stroke:#000000;stroke-linecap:square;stroke-linejoin:miter;stroke-width:0.8;"/>
   </g>
   <g id="patch_6">
    <path d="M 43.78125 43.2 
L 289.957721 43.2 
" style="fill:none;stroke:#000000;stroke-linecap:square;stroke-linejoin:miter;stroke-width:0.8;"/>
   </g>
   <g id="legend_1">
    <g id="patch_7">
     <path d="M 244.595221 310 
L 282.957721 310 
Q 284.957721 310 284.957721 308 
L 284.957721 250.2875 
Q 284.957721 248.2875 282.957721 248.2875 
L 244.595221 248.2875 
Q 242.595221 248.2875 242.595221 250.2875 
L 242.595221 308 
Q 242.595221 310 244.595221 310 
z
" style="fill:#ffffff;opacity:0.8;stroke:#cccccc;stroke-linejoin:miter;"/>
    </g>
    <g id="text_15">
     <!-- cluster -->
     <defs>
      <path d="M 9.421875 75.984375 
L 18.40625 75.984375 
L 18.40625 0 
L 9.421875 0 
z
" id="DejaVuSans-108"/>
      <path d="M 44.28125 53.078125 
L 44.28125 44.578125 
Q 40.484375 46.53125 36.375 47.5 
Q 32.28125 48.484375 27.875 48.484375 
Q 21.1875 48.484375 17.84375 46.4375 
Q 14.5 44.390625 14.5 40.28125 
Q 14.5 37.15625 16.890625 35.375 
Q 19.28125 33.59375 26.515625 31.984375 
L 29.59375 31.296875 
Q 39.15625 29.25 43.1875 25.515625 
Q 47.21875 21.78125 47.21875 15.09375 
Q 47.21875 7.46875 41.1875 3.015625 
Q 35.15625 -1.421875 24.609375 -1.421875 
Q 20.21875 -1.421875 15.453125 -0.5625 
Q 10.6875 0.296875 5.421875 2 
L 5.421875 11.28125 
Q 10.40625 8.6875 15.234375 7.390625 
Q 20.0625 6.109375 24.8125 6.109375 
Q 31.15625 6.109375 34.5625 8.28125 
Q 37.984375 10.453125 37.984375 14.40625 
Q 37.984375 18.0625 35.515625 20.015625 
Q 33.0625 21.96875 24.703125 23.78125 
L 21.578125 24.515625 
Q 13.234375 26.265625 9.515625 29.90625 
Q 5.8125 33.546875 5.8125 39.890625 
Q 5.8125 47.609375 11.28125 51.796875 
Q 16.75 56 26.8125 56 
Q 31.78125 56 36.171875 55.265625 
Q 40.578125 54.546875 44.28125 53.078125 
z
" id="DejaVuSans-115"/>
     </defs>
     <g transform="translate(246.772564 259.885937)scale(0.1 -0.1)">
      <use xlink:href="#DejaVuSans-99"/>
      <use x="54.980469" xlink:href="#DejaVuSans-108"/>
      <use x="82.763672" xlink:href="#DejaVuSans-117"/>
      <use x="146.142578" xlink:href="#DejaVuSans-115"/>
      <use x="198.242188" xlink:href="#DejaVuSans-116"/>
      <use x="237.451172" xlink:href="#DejaVuSans-101"/>
      <use x="298.974609" xlink:href="#DejaVuSans-114"/>
     </g>
    </g>
    <g id="line2d_16">
     <path d="M 246.595221 271.064062 
L 266.595221 271.064062 
" style="fill:none;stroke:#023eff;stroke-linecap:square;stroke-width:1.5;"/>
    </g>
    <g id="line2d_17"/>
    <g id="text_16">
     <!-- 0 -->
     <g transform="translate(274.595221 274.564062)scale(0.1 -0.1)">
      <use xlink:href="#DejaVuSans-48"/>
     </g>
    </g>
    <g id="line2d_18">
     <path d="M 246.595221 285.742187 
L 266.595221 285.742187 
" style="fill:none;stroke:#ff7c00;stroke-linecap:square;stroke-width:1.5;"/>
    </g>
    <g id="line2d_19"/>
    <g id="text_17">
     <!-- 1 -->
     <g transform="translate(274.595221 289.242187)scale(0.1 -0.1)">
      <use xlink:href="#DejaVuSans-49"/>
     </g>
    </g>
    <g id="line2d_20">
     <path d="M 246.595221 300.420312 
L 266.595221 300.420312 
" style="fill:none;stroke:#1ac938;stroke-linecap:square;stroke-width:1.5;"/>
    </g>
    <g id="line2d_21"/>
    <g id="text_18">
     <!-- 2 -->
     <g transform="translate(274.595221 303.920312)scale(0.1 -0.1)">
      <use xlink:href="#DejaVuSans-50"/>
     </g>
    </g>
   </g>
  </g>
  <g id="axes_2">
   <g id="patch_8">
    <path d="M 339.193015 315 
L 585.369485 315 
L 585.369485 43.2 
L 339.193015 43.2 
z
" style="fill:#ffffff;"/>
   </g>
   <g id="patch_9">
    <path clip-path="url(#p0d40f106aa)" d="M 350.382854 315 
L 356.777048 315 
L 356.777048 309.848614 
L 350.382854 309.848614 
z
" style="fill:#1ac938;fill-opacity:0.5;stroke:#000000;stroke-linejoin:miter;stroke-width:0.639419;"/>
   </g>
   <g id="patch_10">
    <path clip-path="url(#p0d40f106aa)" d="M 356.777048 315 
L 363.171242 315 
L 363.171242 315 
L 356.777048 315 
z
" style="fill:#1ac938;fill-opacity:0.5;stroke:#000000;stroke-linejoin:miter;stroke-width:0.639419;"/>
   </g>
   <g id="patch_11">
    <path clip-path="url(#p0d40f106aa)" d="M 363.171242 315 
L 369.565436 315 
L 369.565436 312.424307 
L 363.171242 312.424307 
z
" style="fill:#1ac938;fill-opacity:0.5;stroke:#000000;stroke-linejoin:miter;stroke-width:0.639419;"/>
   </g>
   <g id="patch_12">
    <path clip-path="url(#p0d40f106aa)" d="M 369.565436 315 
L 375.95963 315 
L 375.95963 303.409382 
L 369.565436 303.409382 
z
" style="fill:#1ac938;fill-opacity:0.5;stroke:#000000;stroke-linejoin:miter;stroke-width:0.639419;"/>
   </g>
   <g id="patch_13">
    <path clip-path="url(#p0d40f106aa)" d="M 375.95963 315 
L 382.353824 315 
L 382.353824 311.136461 
L 375.95963 311.136461 
z
" style="fill:#1ac938;fill-opacity:0.5;stroke:#000000;stroke-linejoin:miter;stroke-width:0.639419;"/>
   </g>
   <g id="patch_14">
    <path clip-path="url(#p0d40f106aa)" d="M 382.353824 315 
L 388.748019 315 
L 388.748019 307.272921 
L 382.353824 307.272921 
z
" style="fill:#1ac938;fill-opacity:0.5;stroke:#000000;stroke-linejoin:miter;stroke-width:0.639419;"/>
   </g>
   <g id="patch_15">
    <path clip-path="url(#p0d40f106aa)" d="M 388.748019 315 
L 395.142213 315 
L 395.142213 303.409382 
L 388.748019 303.409382 
z
" style="fill:#1ac938;fill-opacity:0.5;stroke:#000000;stroke-linejoin:miter;stroke-width:0.639419;"/>
   </g>
   <g id="patch_16">
    <path clip-path="url(#p0d40f106aa)" d="M 395.142213 315 
L 401.536407 315 
L 401.536407 308.560768 
L 395.142213 308.560768 
z
" style="fill:#1ac938;fill-opacity:0.5;stroke:#000000;stroke-linejoin:miter;stroke-width:0.639419;"/>
   </g>
   <g id="patch_17">
    <path clip-path="url(#p0d40f106aa)" d="M 401.536407 315 
L 407.930601 315 
L 407.930601 303.409382 
L 401.536407 303.409382 
z
" style="fill:#1ac938;fill-opacity:0.5;stroke:#000000;stroke-linejoin:miter;stroke-width:0.639419;"/>
   </g>
   <g id="patch_18">
    <path clip-path="url(#p0d40f106aa)" d="M 407.930601 315 
L 414.324795 315 
L 414.324795 295.682303 
L 407.930601 295.682303 
z
" style="fill:#1ac938;fill-opacity:0.5;stroke:#000000;stroke-linejoin:miter;stroke-width:0.639419;"/>
   </g>
   <g id="patch_19">
    <path clip-path="url(#p0d40f106aa)" d="M 414.324795 315 
L 420.718989 315 
L 420.718989 281.515991 
L 414.324795 281.515991 
z
" style="fill:#1ac938;fill-opacity:0.5;stroke:#000000;stroke-linejoin:miter;stroke-width:0.639419;"/>
   </g>
   <g id="patch_20">
    <path clip-path="url(#p0d40f106aa)" d="M 420.718989 315 
L 427.113183 315 
L 427.113183 267.34968 
L 420.718989 267.34968 
z
" style="fill:#1ac938;fill-opacity:0.5;stroke:#000000;stroke-linejoin:miter;stroke-width:0.639419;"/>
   </g>
   <g id="patch_21">
    <path clip-path="url(#p0d40f106aa)" d="M 427.113183 315 
L 433.507377 315 
L 433.507377 268.637527 
L 427.113183 268.637527 
z
" style="fill:#1ac938;fill-opacity:0.5;stroke:#000000;stroke-linejoin:miter;stroke-width:0.639419;"/>
   </g>
   <g id="patch_22">
    <path clip-path="url(#p0d40f106aa)" d="M 433.507377 315 
L 439.901571 315 
L 439.901571 273.788913 
L 433.507377 273.788913 
z
" style="fill:#1ac938;fill-opacity:0.5;stroke:#000000;stroke-linejoin:miter;stroke-width:0.639419;"/>
   </g>
   <g id="patch_23">
    <path clip-path="url(#p0d40f106aa)" d="M 439.901571 315 
L 446.295765 315 
L 446.295765 280.228145 
L 439.901571 280.228145 
z
" style="fill:#1ac938;fill-opacity:0.5;stroke:#000000;stroke-linejoin:miter;stroke-width:0.639419;"/>
   </g>
   <g id="patch_24">
    <path clip-path="url(#p0d40f106aa)" d="M 446.295765 315 
L 452.689959 315 
L 452.689959 269.925373 
L 446.295765 269.925373 
z
" style="fill:#1ac938;fill-opacity:0.5;stroke:#000000;stroke-linejoin:miter;stroke-width:0.639419;"/>
   </g>
   <g id="patch_25">
    <path clip-path="url(#p0d40f106aa)" d="M 452.689959 315 
L 459.084153 315 
L 459.084153 260.910448 
L 452.689959 260.910448 
z
" style="fill:#1ac938;fill-opacity:0.5;stroke:#000000;stroke-linejoin:miter;stroke-width:0.639419;"/>
   </g>
   <g id="patch_26">
    <path clip-path="url(#p0d40f106aa)" d="M 459.084153 315 
L 465.478347 315 
L 465.478347 275.076759 
L 459.084153 275.076759 
z
" style="fill:#1ac938;fill-opacity:0.5;stroke:#000000;stroke-linejoin:miter;stroke-width:0.639419;"/>
   </g>
   <g id="patch_27">
    <path clip-path="url(#p0d40f106aa)" d="M 465.478347 315 
L 471.872541 315 
L 471.872541 282.803838 
L 465.478347 282.803838 
z
" style="fill:#1ac938;fill-opacity:0.5;stroke:#000000;stroke-linejoin:miter;stroke-width:0.639419;"/>
   </g>
   <g id="patch_28">
    <path clip-path="url(#p0d40f106aa)" d="M 471.872541 315 
L 478.266735 315 
L 478.266735 284.091684 
L 471.872541 284.091684 
z
" style="fill:#1ac938;fill-opacity:0.5;stroke:#000000;stroke-linejoin:miter;stroke-width:0.639419;"/>
   </g>
   <g id="patch_29">
    <path clip-path="url(#p0d40f106aa)" d="M 478.266735 315 
L 484.660929 315 
L 484.660929 276.364606 
L 478.266735 276.364606 
z
" style="fill:#1ac938;fill-opacity:0.5;stroke:#000000;stroke-linejoin:miter;stroke-width:0.639419;"/>
   </g>
   <g id="patch_30">
    <path clip-path="url(#p0d40f106aa)" d="M 484.660929 315 
L 491.055123 315 
L 491.055123 289.24307 
L 484.660929 289.24307 
z
" style="fill:#1ac938;fill-opacity:0.5;stroke:#000000;stroke-linejoin:miter;stroke-width:0.639419;"/>
   </g>
   <g id="patch_31">
    <path clip-path="url(#p0d40f106aa)" d="M 491.055123 315 
L 497.449317 315 
L 497.449317 286.667377 
L 491.055123 286.667377 
z
" style="fill:#1ac938;fill-opacity:0.5;stroke:#000000;stroke-linejoin:miter;stroke-width:0.639419;"/>
   </g>
   <g id="patch_32">
    <path clip-path="url(#p0d40f106aa)" d="M 497.449317 315 
L 503.843511 315 
L 503.843511 290.530917 
L 497.449317 290.530917 
z
" style="fill:#1ac938;fill-opacity:0.5;stroke:#000000;stroke-linejoin:miter;stroke-width:0.639419;"/>
   </g>
   <g id="patch_33">
    <path clip-path="url(#p0d40f106aa)" d="M 503.843511 315 
L 510.237705 315 
L 510.237705 290.530917 
L 503.843511 290.530917 
z
" style="fill:#1ac938;fill-opacity:0.5;stroke:#000000;stroke-linejoin:miter;stroke-width:0.639419;"/>
   </g>
   <g id="patch_34">
    <path clip-path="url(#p0d40f106aa)" d="M 510.237705 315 
L 516.631899 315 
L 516.631899 302.121535 
L 510.237705 302.121535 
z
" style="fill:#1ac938;fill-opacity:0.5;stroke:#000000;stroke-linejoin:miter;stroke-width:0.639419;"/>
   </g>
   <g id="patch_35">
    <path clip-path="url(#p0d40f106aa)" d="M 516.631899 315 
L 523.026093 315 
L 523.026093 291.818763 
L 516.631899 291.818763 
z
" style="fill:#1ac938;fill-opacity:0.5;stroke:#000000;stroke-linejoin:miter;stroke-width:0.639419;"/>
   </g>
   <g id="patch_36">
    <path clip-path="url(#p0d40f106aa)" d="M 523.026093 315 
L 529.420287 315 
L 529.420287 289.24307 
L 523.026093 289.24307 
z
" style="fill:#1ac938;fill-opacity:0.5;stroke:#000000;stroke-linejoin:miter;stroke-width:0.639419;"/>
   </g>
   <g id="patch_37">
    <path clip-path="url(#p0d40f106aa)" d="M 529.420287 315 
L 535.814481 315 
L 535.814481 298.257996 
L 529.420287 298.257996 
z
" style="fill:#1ac938;fill-opacity:0.5;stroke:#000000;stroke-linejoin:miter;stroke-width:0.639419;"/>
   </g>
   <g id="patch_38">
    <path clip-path="url(#p0d40f106aa)" d="M 535.814481 315 
L 542.208676 315 
L 542.208676 303.409382 
L 535.814481 303.409382 
z
" style="fill:#1ac938;fill-opacity:0.5;stroke:#000000;stroke-linejoin:miter;stroke-width:0.639419;"/>
   </g>
   <g id="patch_39">
    <path clip-path="url(#p0d40f106aa)" d="M 542.208676 315 
L 548.60287 315 
L 548.60287 302.121535 
L 542.208676 302.121535 
z
" style="fill:#1ac938;fill-opacity:0.5;stroke:#000000;stroke-linejoin:miter;stroke-width:0.639419;"/>
   </g>
   <g id="patch_40">
    <path clip-path="url(#p0d40f106aa)" d="M 548.60287 315 
L 554.997064 315 
L 554.997064 299.545842 
L 548.60287 299.545842 
z
" style="fill:#1ac938;fill-opacity:0.5;stroke:#000000;stroke-linejoin:miter;stroke-width:0.639419;"/>
   </g>
   <g id="patch_41">
    <path clip-path="url(#p0d40f106aa)" d="M 554.997064 315 
L 561.391258 315 
L 561.391258 302.121535 
L 554.997064 302.121535 
z
" style="fill:#1ac938;fill-opacity:0.5;stroke:#000000;stroke-linejoin:miter;stroke-width:0.639419;"/>
   </g>
   <g id="patch_42">
    <path clip-path="url(#p0d40f106aa)" d="M 561.391258 315 
L 567.785452 315 
L 567.785452 307.272921 
L 561.391258 307.272921 
z
" style="fill:#1ac938;fill-opacity:0.5;stroke:#000000;stroke-linejoin:miter;stroke-width:0.639419;"/>
   </g>
   <g id="patch_43">
    <path clip-path="url(#p0d40f106aa)" d="M 567.785452 315 
L 574.179646 315 
L 574.179646 309.848614 
L 567.785452 309.848614 
z
" style="fill:#1ac938;fill-opacity:0.5;stroke:#000000;stroke-linejoin:miter;stroke-width:0.639419;"/>
   </g>
   <g id="patch_44">
    <path clip-path="url(#p0d40f106aa)" d="M 350.382854 315 
L 356.777048 315 
L 356.777048 148.867804 
L 350.382854 148.867804 
z
" style="fill:#ff7c00;fill-opacity:0.5;stroke:#000000;stroke-linejoin:miter;stroke-width:0.639419;"/>
   </g>
   <g id="patch_45">
    <path clip-path="url(#p0d40f106aa)" d="M 356.777048 315 
L 363.171242 315 
L 363.171242 145.004264 
L 356.777048 145.004264 
z
" style="fill:#ff7c00;fill-opacity:0.5;stroke:#000000;stroke-linejoin:miter;stroke-width:0.639419;"/>
   </g>
   <g id="patch_46">
    <path clip-path="url(#p0d40f106aa)" d="M 363.171242 315 
L 369.565436 315 
L 369.565436 168.185501 
L 363.171242 168.185501 
z
" style="fill:#ff7c00;fill-opacity:0.5;stroke:#000000;stroke-linejoin:miter;stroke-width:0.639419;"/>
   </g>
   <g id="patch_47">
    <path clip-path="url(#p0d40f106aa)" d="M 369.565436 315 
L 375.95963 315 
L 375.95963 223.5629 
L 369.565436 223.5629 
z
" style="fill:#ff7c00;fill-opacity:0.5;stroke:#000000;stroke-linejoin:miter;stroke-width:0.639419;"/>
   </g>
   <g id="patch_48">
    <path clip-path="url(#p0d40f106aa)" d="M 375.95963 315 
L 382.353824 315 
L 382.353824 254.471215 
L 375.95963 254.471215 
z
" style="fill:#ff7c00;fill-opacity:0.5;stroke:#000000;stroke-linejoin:miter;stroke-width:0.639419;"/>
   </g>
   <g id="patch_49">
    <path clip-path="url(#p0d40f106aa)" d="M 382.353824 315 
L 388.748019 315 
L 388.748019 268.637527 
L 382.353824 268.637527 
z
" style="fill:#ff7c00;fill-opacity:0.5;stroke:#000000;stroke-linejoin:miter;stroke-width:0.639419;"/>
   </g>
   <g id="patch_50">
    <path clip-path="url(#p0d40f106aa)" d="M 388.748019 315 
L 395.142213 315 
L 395.142213 287.955224 
L 388.748019 287.955224 
z
" style="fill:#ff7c00;fill-opacity:0.5;stroke:#000000;stroke-linejoin:miter;stroke-width:0.639419;"/>
   </g>
   <g id="patch_51">
    <path clip-path="url(#p0d40f106aa)" d="M 395.142213 315 
L 401.536407 315 
L 401.536407 284.091684 
L 395.142213 284.091684 
z
" style="fill:#ff7c00;fill-opacity:0.5;stroke:#000000;stroke-linejoin:miter;stroke-width:0.639419;"/>
   </g>
   <g id="patch_52">
    <path clip-path="url(#p0d40f106aa)" d="M 401.536407 315 
L 407.930601 315 
L 407.930601 295.682303 
L 401.536407 295.682303 
z
" style="fill:#ff7c00;fill-opacity:0.5;stroke:#000000;stroke-linejoin:miter;stroke-width:0.639419;"/>
   </g>
   <g id="patch_53">
    <path clip-path="url(#p0d40f106aa)" d="M 407.930601 315 
L 414.324795 315 
L 414.324795 300.833689 
L 407.930601 300.833689 
z
" style="fill:#ff7c00;fill-opacity:0.5;stroke:#000000;stroke-linejoin:miter;stroke-width:0.639419;"/>
   </g>
   <g id="patch_54">
    <path clip-path="url(#p0d40f106aa)" d="M 414.324795 315 
L 420.718989 315 
L 420.718989 303.409382 
L 414.324795 303.409382 
z
" style="fill:#ff7c00;fill-opacity:0.5;stroke:#000000;stroke-linejoin:miter;stroke-width:0.639419;"/>
   </g>
   <g id="patch_55">
    <path clip-path="url(#p0d40f106aa)" d="M 420.718989 315 
L 427.113183 315 
L 427.113183 300.833689 
L 420.718989 300.833689 
z
" style="fill:#ff7c00;fill-opacity:0.5;stroke:#000000;stroke-linejoin:miter;stroke-width:0.639419;"/>
   </g>
   <g id="patch_56">
    <path clip-path="url(#p0d40f106aa)" d="M 427.113183 315 
L 433.507377 315 
L 433.507377 315 
L 427.113183 315 
z
" style="fill:#ff7c00;fill-opacity:0.5;stroke:#000000;stroke-linejoin:miter;stroke-width:0.639419;"/>
   </g>
   <g id="patch_57">
    <path clip-path="url(#p0d40f106aa)" d="M 433.507377 315 
L 439.901571 315 
L 439.901571 315 
L 433.507377 315 
z
" style="fill:#ff7c00;fill-opacity:0.5;stroke:#000000;stroke-linejoin:miter;stroke-width:0.639419;"/>
   </g>
   <g id="patch_58">
    <path clip-path="url(#p0d40f106aa)" d="M 439.901571 315 
L 446.295765 315 
L 446.295765 315 
L 439.901571 315 
z
" style="fill:#ff7c00;fill-opacity:0.5;stroke:#000000;stroke-linejoin:miter;stroke-width:0.639419;"/>
   </g>
   <g id="patch_59">
    <path clip-path="url(#p0d40f106aa)" d="M 446.295765 315 
L 452.689959 315 
L 452.689959 315 
L 446.295765 315 
z
" style="fill:#ff7c00;fill-opacity:0.5;stroke:#000000;stroke-linejoin:miter;stroke-width:0.639419;"/>
   </g>
   <g id="patch_60">
    <path clip-path="url(#p0d40f106aa)" d="M 452.689959 315 
L 459.084153 315 
L 459.084153 315 
L 452.689959 315 
z
" style="fill:#ff7c00;fill-opacity:0.5;stroke:#000000;stroke-linejoin:miter;stroke-width:0.639419;"/>
   </g>
   <g id="patch_61">
    <path clip-path="url(#p0d40f106aa)" d="M 459.084153 315 
L 465.478347 315 
L 465.478347 315 
L 459.084153 315 
z
" style="fill:#ff7c00;fill-opacity:0.5;stroke:#000000;stroke-linejoin:miter;stroke-width:0.639419;"/>
   </g>
   <g id="patch_62">
    <path clip-path="url(#p0d40f106aa)" d="M 465.478347 315 
L 471.872541 315 
L 471.872541 315 
L 465.478347 315 
z
" style="fill:#ff7c00;fill-opacity:0.5;stroke:#000000;stroke-linejoin:miter;stroke-width:0.639419;"/>
   </g>
   <g id="patch_63">
    <path clip-path="url(#p0d40f106aa)" d="M 471.872541 315 
L 478.266735 315 
L 478.266735 315 
L 471.872541 315 
z
" style="fill:#ff7c00;fill-opacity:0.5;stroke:#000000;stroke-linejoin:miter;stroke-width:0.639419;"/>
   </g>
   <g id="patch_64">
    <path clip-path="url(#p0d40f106aa)" d="M 478.266735 315 
L 484.660929 315 
L 484.660929 315 
L 478.266735 315 
z
" style="fill:#ff7c00;fill-opacity:0.5;stroke:#000000;stroke-linejoin:miter;stroke-width:0.639419;"/>
   </g>
   <g id="patch_65">
    <path clip-path="url(#p0d40f106aa)" d="M 484.660929 315 
L 491.055123 315 
L 491.055123 315 
L 484.660929 315 
z
" style="fill:#ff7c00;fill-opacity:0.5;stroke:#000000;stroke-linejoin:miter;stroke-width:0.639419;"/>
   </g>
   <g id="patch_66">
    <path clip-path="url(#p0d40f106aa)" d="M 491.055123 315 
L 497.449317 315 
L 497.449317 315 
L 491.055123 315 
z
" style="fill:#ff7c00;fill-opacity:0.5;stroke:#000000;stroke-linejoin:miter;stroke-width:0.639419;"/>
   </g>
   <g id="patch_67">
    <path clip-path="url(#p0d40f106aa)" d="M 497.449317 315 
L 503.843511 315 
L 503.843511 315 
L 497.449317 315 
z
" style="fill:#ff7c00;fill-opacity:0.5;stroke:#000000;stroke-linejoin:miter;stroke-width:0.639419;"/>
   </g>
   <g id="patch_68">
    <path clip-path="url(#p0d40f106aa)" d="M 503.843511 315 
L 510.237705 315 
L 510.237705 315 
L 503.843511 315 
z
" style="fill:#ff7c00;fill-opacity:0.5;stroke:#000000;stroke-linejoin:miter;stroke-width:0.639419;"/>
   </g>
   <g id="patch_69">
    <path clip-path="url(#p0d40f106aa)" d="M 510.237705 315 
L 516.631899 315 
L 516.631899 315 
L 510.237705 315 
z
" style="fill:#ff7c00;fill-opacity:0.5;stroke:#000000;stroke-linejoin:miter;stroke-width:0.639419;"/>
   </g>
   <g id="patch_70">
    <path clip-path="url(#p0d40f106aa)" d="M 516.631899 315 
L 523.026093 315 
L 523.026093 315 
L 516.631899 315 
z
" style="fill:#ff7c00;fill-opacity:0.5;stroke:#000000;stroke-linejoin:miter;stroke-width:0.639419;"/>
   </g>
   <g id="patch_71">
    <path clip-path="url(#p0d40f106aa)" d="M 523.026093 315 
L 529.420287 315 
L 529.420287 315 
L 523.026093 315 
z
" style="fill:#ff7c00;fill-opacity:0.5;stroke:#000000;stroke-linejoin:miter;stroke-width:0.639419;"/>
   </g>
   <g id="patch_72">
    <path clip-path="url(#p0d40f106aa)" d="M 529.420287 315 
L 535.814481 315 
L 535.814481 315 
L 529.420287 315 
z
" style="fill:#ff7c00;fill-opacity:0.5;stroke:#000000;stroke-linejoin:miter;stroke-width:0.639419;"/>
   </g>
   <g id="patch_73">
    <path clip-path="url(#p0d40f106aa)" d="M 535.814481 315 
L 542.208676 315 
L 542.208676 315 
L 535.814481 315 
z
" style="fill:#ff7c00;fill-opacity:0.5;stroke:#000000;stroke-linejoin:miter;stroke-width:0.639419;"/>
   </g>
   <g id="patch_74">
    <path clip-path="url(#p0d40f106aa)" d="M 542.208676 315 
L 548.60287 315 
L 548.60287 315 
L 542.208676 315 
z
" style="fill:#ff7c00;fill-opacity:0.5;stroke:#000000;stroke-linejoin:miter;stroke-width:0.639419;"/>
   </g>
   <g id="patch_75">
    <path clip-path="url(#p0d40f106aa)" d="M 548.60287 315 
L 554.997064 315 
L 554.997064 315 
L 548.60287 315 
z
" style="fill:#ff7c00;fill-opacity:0.5;stroke:#000000;stroke-linejoin:miter;stroke-width:0.639419;"/>
   </g>
   <g id="patch_76">
    <path clip-path="url(#p0d40f106aa)" d="M 554.997064 315 
L 561.391258 315 
L 561.391258 315 
L 554.997064 315 
z
" style="fill:#ff7c00;fill-opacity:0.5;stroke:#000000;stroke-linejoin:miter;stroke-width:0.639419;"/>
   </g>
   <g id="patch_77">
    <path clip-path="url(#p0d40f106aa)" d="M 561.391258 315 
L 567.785452 315 
L 567.785452 315 
L 561.391258 315 
z
" style="fill:#ff7c00;fill-opacity:0.5;stroke:#000000;stroke-linejoin:miter;stroke-width:0.639419;"/>
   </g>
   <g id="patch_78">
    <path clip-path="url(#p0d40f106aa)" d="M 567.785452 315 
L 574.179646 315 
L 574.179646 315 
L 567.785452 315 
z
" style="fill:#ff7c00;fill-opacity:0.5;stroke:#000000;stroke-linejoin:miter;stroke-width:0.639419;"/>
   </g>
   <g id="patch_79">
    <path clip-path="url(#p0d40f106aa)" d="M 350.382854 315 
L 356.777048 315 
L 356.777048 78.036247 
L 350.382854 78.036247 
z
" style="fill:#023eff;fill-opacity:0.5;stroke:#000000;stroke-linejoin:miter;stroke-width:0.639419;"/>
   </g>
   <g id="patch_80">
    <path clip-path="url(#p0d40f106aa)" d="M 356.777048 315 
L 363.171242 315 
L 363.171242 56.142857 
L 356.777048 56.142857 
z
" style="fill:#023eff;fill-opacity:0.5;stroke:#000000;stroke-linejoin:miter;stroke-width:0.639419;"/>
   </g>
   <g id="patch_81">
    <path clip-path="url(#p0d40f106aa)" d="M 363.171242 315 
L 369.565436 315 
L 369.565436 84.47548 
L 363.171242 84.47548 
z
" style="fill:#023eff;fill-opacity:0.5;stroke:#000000;stroke-linejoin:miter;stroke-width:0.639419;"/>
   </g>
   <g id="patch_82">
    <path clip-path="url(#p0d40f106aa)" d="M 369.565436 315 
L 375.95963 315 
L 375.95963 76.748401 
L 369.565436 76.748401 
z
" style="fill:#023eff;fill-opacity:0.5;stroke:#000000;stroke-linejoin:miter;stroke-width:0.639419;"/>
   </g>
   <g id="patch_83">
    <path clip-path="url(#p0d40f106aa)" d="M 375.95963 315 
L 382.353824 315 
L 382.353824 156.594883 
L 375.95963 156.594883 
z
" style="fill:#023eff;fill-opacity:0.5;stroke:#000000;stroke-linejoin:miter;stroke-width:0.639419;"/>
   </g>
   <g id="patch_84">
    <path clip-path="url(#p0d40f106aa)" d="M 382.353824 315 
L 388.748019 315 
L 388.748019 143.716418 
L 382.353824 143.716418 
z
" style="fill:#023eff;fill-opacity:0.5;stroke:#000000;stroke-linejoin:miter;stroke-width:0.639419;"/>
   </g>
   <g id="patch_85">
    <path clip-path="url(#p0d40f106aa)" d="M 388.748019 315 
L 395.142213 315 
L 395.142213 154.01919 
L 388.748019 154.01919 
z
" style="fill:#023eff;fill-opacity:0.5;stroke:#000000;stroke-linejoin:miter;stroke-width:0.639419;"/>
   </g>
   <g id="patch_86">
    <path clip-path="url(#p0d40f106aa)" d="M 395.142213 315 
L 401.536407 315 
L 401.536407 190.078891 
L 395.142213 190.078891 
z
" style="fill:#023eff;fill-opacity:0.5;stroke:#000000;stroke-linejoin:miter;stroke-width:0.639419;"/>
   </g>
   <g id="patch_87">
    <path clip-path="url(#p0d40f106aa)" d="M 401.536407 315 
L 407.930601 315 
L 407.930601 202.957356 
L 401.536407 202.957356 
z
" style="fill:#023eff;fill-opacity:0.5;stroke:#000000;stroke-linejoin:miter;stroke-width:0.639419;"/>
   </g>
   <g id="patch_88">
    <path clip-path="url(#p0d40f106aa)" d="M 407.930601 315 
L 414.324795 315 
L 414.324795 232.577825 
L 407.930601 232.577825 
z
" style="fill:#023eff;fill-opacity:0.5;stroke:#000000;stroke-linejoin:miter;stroke-width:0.639419;"/>
   </g>
   <g id="patch_89">
    <path clip-path="url(#p0d40f106aa)" d="M 414.324795 315 
L 420.718989 315 
L 420.718989 254.471215 
L 414.324795 254.471215 
z
" style="fill:#023eff;fill-opacity:0.5;stroke:#000000;stroke-linejoin:miter;stroke-width:0.639419;"/>
   </g>
   <g id="patch_90">
    <path clip-path="url(#p0d40f106aa)" d="M 420.718989 315 
L 427.113183 315 
L 427.113183 264.773987 
L 420.718989 264.773987 
z
" style="fill:#023eff;fill-opacity:0.5;stroke:#000000;stroke-linejoin:miter;stroke-width:0.639419;"/>
   </g>
   <g id="patch_91">
    <path clip-path="url(#p0d40f106aa)" d="M 427.113183 315 
L 433.507377 315 
L 433.507377 290.530917 
L 427.113183 290.530917 
z
" style="fill:#023eff;fill-opacity:0.5;stroke:#000000;stroke-linejoin:miter;stroke-width:0.639419;"/>
   </g>
   <g id="patch_92">
    <path clip-path="url(#p0d40f106aa)" d="M 433.507377 315 
L 439.901571 315 
L 439.901571 277.652452 
L 433.507377 277.652452 
z
" style="fill:#023eff;fill-opacity:0.5;stroke:#000000;stroke-linejoin:miter;stroke-width:0.639419;"/>
   </g>
   <g id="patch_93">
    <path clip-path="url(#p0d40f106aa)" d="M 439.901571 315 
L 446.295765 315 
L 446.295765 308.560768 
L 439.901571 308.560768 
z
" style="fill:#023eff;fill-opacity:0.5;stroke:#000000;stroke-linejoin:miter;stroke-width:0.639419;"/>
   </g>
   <g id="patch_94">
    <path clip-path="url(#p0d40f106aa)" d="M 446.295765 315 
L 452.689959 315 
L 452.689959 315 
L 446.295765 315 
z
" style="fill:#023eff;fill-opacity:0.5;stroke:#000000;stroke-linejoin:miter;stroke-width:0.639419;"/>
   </g>
   <g id="patch_95">
    <path clip-path="url(#p0d40f106aa)" d="M 452.689959 315 
L 459.084153 315 
L 459.084153 315 
L 452.689959 315 
z
" style="fill:#023eff;fill-opacity:0.5;stroke:#000000;stroke-linejoin:miter;stroke-width:0.639419;"/>
   </g>
   <g id="patch_96">
    <path clip-path="url(#p0d40f106aa)" d="M 459.084153 315 
L 465.478347 315 
L 465.478347 315 
L 459.084153 315 
z
" style="fill:#023eff;fill-opacity:0.5;stroke:#000000;stroke-linejoin:miter;stroke-width:0.639419;"/>
   </g>
   <g id="patch_97">
    <path clip-path="url(#p0d40f106aa)" d="M 465.478347 315 
L 471.872541 315 
L 471.872541 315 
L 465.478347 315 
z
" style="fill:#023eff;fill-opacity:0.5;stroke:#000000;stroke-linejoin:miter;stroke-width:0.639419;"/>
   </g>
   <g id="patch_98">
    <path clip-path="url(#p0d40f106aa)" d="M 471.872541 315 
L 478.266735 315 
L 478.266735 315 
L 471.872541 315 
z
" style="fill:#023eff;fill-opacity:0.5;stroke:#000000;stroke-linejoin:miter;stroke-width:0.639419;"/>
   </g>
   <g id="patch_99">
    <path clip-path="url(#p0d40f106aa)" d="M 478.266735 315 
L 484.660929 315 
L 484.660929 315 
L 478.266735 315 
z
" style="fill:#023eff;fill-opacity:0.5;stroke:#000000;stroke-linejoin:miter;stroke-width:0.639419;"/>
   </g>
   <g id="patch_100">
    <path clip-path="url(#p0d40f106aa)" d="M 484.660929 315 
L 491.055123 315 
L 491.055123 315 
L 484.660929 315 
z
" style="fill:#023eff;fill-opacity:0.5;stroke:#000000;stroke-linejoin:miter;stroke-width:0.639419;"/>
   </g>
   <g id="patch_101">
    <path clip-path="url(#p0d40f106aa)" d="M 491.055123 315 
L 497.449317 315 
L 497.449317 315 
L 491.055123 315 
z
" style="fill:#023eff;fill-opacity:0.5;stroke:#000000;stroke-linejoin:miter;stroke-width:0.639419;"/>
   </g>
   <g id="patch_102">
    <path clip-path="url(#p0d40f106aa)" d="M 497.449317 315 
L 503.843511 315 
L 503.843511 315 
L 497.449317 315 
z
" style="fill:#023eff;fill-opacity:0.5;stroke:#000000;stroke-linejoin:miter;stroke-width:0.639419;"/>
   </g>
   <g id="patch_103">
    <path clip-path="url(#p0d40f106aa)" d="M 503.843511 315 
L 510.237705 315 
L 510.237705 315 
L 503.843511 315 
z
" style="fill:#023eff;fill-opacity:0.5;stroke:#000000;stroke-linejoin:miter;stroke-width:0.639419;"/>
   </g>
   <g id="patch_104">
    <path clip-path="url(#p0d40f106aa)" d="M 510.237705 315 
L 516.631899 315 
L 516.631899 315 
L 510.237705 315 
z
" style="fill:#023eff;fill-opacity:0.5;stroke:#000000;stroke-linejoin:miter;stroke-width:0.639419;"/>
   </g>
   <g id="patch_105">
    <path clip-path="url(#p0d40f106aa)" d="M 516.631899 315 
L 523.026093 315 
L 523.026093 315 
L 516.631899 315 
z
" style="fill:#023eff;fill-opacity:0.5;stroke:#000000;stroke-linejoin:miter;stroke-width:0.639419;"/>
   </g>
   <g id="patch_106">
    <path clip-path="url(#p0d40f106aa)" d="M 523.026093 315 
L 529.420287 315 
L 529.420287 315 
L 523.026093 315 
z
" style="fill:#023eff;fill-opacity:0.5;stroke:#000000;stroke-linejoin:miter;stroke-width:0.639419;"/>
   </g>
   <g id="patch_107">
    <path clip-path="url(#p0d40f106aa)" d="M 529.420287 315 
L 535.814481 315 
L 535.814481 315 
L 529.420287 315 
z
" style="fill:#023eff;fill-opacity:0.5;stroke:#000000;stroke-linejoin:miter;stroke-width:0.639419;"/>
   </g>
   <g id="patch_108">
    <path clip-path="url(#p0d40f106aa)" d="M 535.814481 315 
L 542.208676 315 
L 542.208676 315 
L 535.814481 315 
z
" style="fill:#023eff;fill-opacity:0.5;stroke:#000000;stroke-linejoin:miter;stroke-width:0.639419;"/>
   </g>
   <g id="patch_109">
    <path clip-path="url(#p0d40f106aa)" d="M 542.208676 315 
L 548.60287 315 
L 548.60287 315 
L 542.208676 315 
z
" style="fill:#023eff;fill-opacity:0.5;stroke:#000000;stroke-linejoin:miter;stroke-width:0.639419;"/>
   </g>
   <g id="patch_110">
    <path clip-path="url(#p0d40f106aa)" d="M 548.60287 315 
L 554.997064 315 
L 554.997064 315 
L 548.60287 315 
z
" style="fill:#023eff;fill-opacity:0.5;stroke:#000000;stroke-linejoin:miter;stroke-width:0.639419;"/>
   </g>
   <g id="patch_111">
    <path clip-path="url(#p0d40f106aa)" d="M 554.997064 315 
L 561.391258 315 
L 561.391258 315 
L 554.997064 315 
z
" style="fill:#023eff;fill-opacity:0.5;stroke:#000000;stroke-linejoin:miter;stroke-width:0.639419;"/>
   </g>
   <g id="patch_112">
    <path clip-path="url(#p0d40f106aa)" d="M 561.391258 315 
L 567.785452 315 
L 567.785452 315 
L 561.391258 315 
z
" style="fill:#023eff;fill-opacity:0.5;stroke:#000000;stroke-linejoin:miter;stroke-width:0.639419;"/>
   </g>
   <g id="patch_113">
    <path clip-path="url(#p0d40f106aa)" d="M 567.785452 315 
L 574.179646 315 
L 574.179646 315 
L 567.785452 315 
z
" style="fill:#023eff;fill-opacity:0.5;stroke:#000000;stroke-linejoin:miter;stroke-width:0.639419;"/>
   </g>
   <g id="matplotlib.axis_3">
    <g id="xtick_7">
     <g id="line2d_22">
      <g>
       <use style="stroke:#000000;stroke-width:0.8;" x="345.681241" xlink:href="#m02024a594b" y="315"/>
      </g>
     </g>
     <g id="text_19">
      <!-- 0 -->
      <g transform="translate(342.499991 329.598437)scale(0.1 -0.1)">
       <use xlink:href="#DejaVuSans-48"/>
      </g>
     </g>
    </g>
    <g id="xtick_8">
     <g id="line2d_23">
      <g>
       <use style="stroke:#000000;stroke-width:0.8;" x="392.697374" xlink:href="#m02024a594b" y="315"/>
      </g>
     </g>
     <g id="text_20">
      <!-- 50 -->
      <g transform="translate(386.334874 329.598437)scale(0.1 -0.1)">
       <use xlink:href="#DejaVuSans-53"/>
       <use x="63.623047" xlink:href="#DejaVuSans-48"/>
      </g>
     </g>
    </g>
    <g id="xtick_9">
     <g id="line2d_24">
      <g>
       <use style="stroke:#000000;stroke-width:0.8;" x="439.713506" xlink:href="#m02024a594b" y="315"/>
      </g>
     </g>
     <g id="text_21">
      <!-- 100 -->
      <g transform="translate(430.169756 329.598437)scale(0.1 -0.1)">
       <use xlink:href="#DejaVuSans-49"/>
       <use x="63.623047" xlink:href="#DejaVuSans-48"/>
       <use x="127.246094" xlink:href="#DejaVuSans-48"/>
      </g>
     </g>
    </g>
    <g id="xtick_10">
     <g id="line2d_25">
      <g>
       <use style="stroke:#000000;stroke-width:0.8;" x="486.729639" xlink:href="#m02024a594b" y="315"/>
      </g>
     </g>
     <g id="text_22">
      <!-- 150 -->
      <g transform="translate(477.185889 329.598437)scale(0.1 -0.1)">
       <use xlink:href="#DejaVuSans-49"/>
       <use x="63.623047" xlink:href="#DejaVuSans-53"/>
       <use x="127.246094" xlink:href="#DejaVuSans-48"/>
      </g>
     </g>
    </g>
    <g id="xtick_11">
     <g id="line2d_26">
      <g>
       <use style="stroke:#000000;stroke-width:0.8;" x="533.745772" xlink:href="#m02024a594b" y="315"/>
      </g>
     </g>
     <g id="text_23">
      <!-- 200 -->
      <g transform="translate(524.202022 329.598437)scale(0.1 -0.1)">
       <use xlink:href="#DejaVuSans-50"/>
       <use x="63.623047" xlink:href="#DejaVuSans-48"/>
       <use x="127.246094" xlink:href="#DejaVuSans-48"/>
      </g>
     </g>
    </g>
    <g id="xtick_12">
     <g id="line2d_27">
      <g>
       <use style="stroke:#000000;stroke-width:0.8;" x="580.761904" xlink:href="#m02024a594b" y="315"/>
      </g>
     </g>
     <g id="text_24">
      <!-- 250 -->
      <g transform="translate(571.218154 329.598437)scale(0.1 -0.1)">
       <use xlink:href="#DejaVuSans-50"/>
       <use x="63.623047" xlink:href="#DejaVuSans-53"/>
       <use x="127.246094" xlink:href="#DejaVuSans-48"/>
      </g>
     </g>
    </g>
    <g id="text_25">
     <!-- Frequency -->
     <g transform="translate(436.451563 343.276562)scale(0.1 -0.1)">
      <use xlink:href="#DejaVuSans-70"/>
      <use x="50.269531" xlink:href="#DejaVuSans-114"/>
      <use x="89.132812" xlink:href="#DejaVuSans-101"/>
      <use x="150.65625" xlink:href="#DejaVuSans-113"/>
      <use x="214.132812" xlink:href="#DejaVuSans-117"/>
      <use x="277.511719" xlink:href="#DejaVuSans-101"/>
      <use x="339.035156" xlink:href="#DejaVuSans-110"/>
      <use x="402.414062" xlink:href="#DejaVuSans-99"/>
      <use x="457.394531" xlink:href="#DejaVuSans-121"/>
     </g>
    </g>
   </g>
   <g id="matplotlib.axis_4">
    <g id="ytick_7">
     <g id="line2d_28">
      <g>
       <use style="stroke:#000000;stroke-width:0.8;" x="339.193015" xlink:href="#mc73a44b83e" y="315"/>
      </g>
     </g>
     <g id="text_26">
      <!-- 0 -->
      <g transform="translate(325.830515 318.799219)scale(0.1 -0.1)">
       <use xlink:href="#DejaVuSans-48"/>
      </g>
     </g>
    </g>
    <g id="ytick_8">
     <g id="line2d_29">
      <g>
       <use style="stroke:#000000;stroke-width:0.8;" x="339.193015" xlink:href="#mc73a44b83e" y="279.76452"/>
      </g>
     </g>
     <g id="text_27">
      <!-- 1 -->
      <g transform="translate(325.830515 283.563739)scale(0.1 -0.1)">
       <use xlink:href="#DejaVuSans-49"/>
      </g>
     </g>
    </g>
    <g id="ytick_9">
     <g id="line2d_30">
      <g>
       <use style="stroke:#000000;stroke-width:0.8;" x="339.193015" xlink:href="#mc73a44b83e" y="244.529041"/>
      </g>
     </g>
     <g id="text_28">
      <!-- 2 -->
      <g transform="translate(325.830515 248.328259)scale(0.1 -0.1)">
       <use xlink:href="#DejaVuSans-50"/>
      </g>
     </g>
    </g>
    <g id="ytick_10">
     <g id="line2d_31">
      <g>
       <use style="stroke:#000000;stroke-width:0.8;" x="339.193015" xlink:href="#mc73a44b83e" y="209.293561"/>
      </g>
     </g>
     <g id="text_29">
      <!-- 3 -->
      <defs>
       <path d="M 40.578125 39.3125 
Q 47.65625 37.796875 51.625 33 
Q 55.609375 28.21875 55.609375 21.1875 
Q 55.609375 10.40625 48.1875 4.484375 
Q 40.765625 -1.421875 27.09375 -1.421875 
Q 22.515625 -1.421875 17.65625 -0.515625 
Q 12.796875 0.390625 7.625 2.203125 
L 7.625 11.71875 
Q 11.71875 9.328125 16.59375 8.109375 
Q 21.484375 6.890625 26.8125 6.890625 
Q 36.078125 6.890625 40.9375 10.546875 
Q 45.796875 14.203125 45.796875 21.1875 
Q 45.796875 27.640625 41.28125 31.265625 
Q 36.765625 34.90625 28.71875 34.90625 
L 20.21875 34.90625 
L 20.21875 43.015625 
L 29.109375 43.015625 
Q 36.375 43.015625 40.234375 45.921875 
Q 44.09375 48.828125 44.09375 54.296875 
Q 44.09375 59.90625 40.109375 62.90625 
Q 36.140625 65.921875 28.71875 65.921875 
Q 24.65625 65.921875 20.015625 65.03125 
Q 15.375 64.15625 9.8125 62.3125 
L 9.8125 71.09375 
Q 15.4375 72.65625 20.34375 73.4375 
Q 25.25 74.21875 29.59375 74.21875 
Q 40.828125 74.21875 47.359375 69.109375 
Q 53.90625 64.015625 53.90625 55.328125 
Q 53.90625 49.265625 50.4375 45.09375 
Q 46.96875 40.921875 40.578125 39.3125 
z
" id="DejaVuSans-51"/>
      </defs>
      <g transform="translate(325.830515 213.09278)scale(0.1 -0.1)">
       <use xlink:href="#DejaVuSans-51"/>
      </g>
     </g>
    </g>
    <g id="ytick_11">
     <g id="line2d_32">
      <g>
       <use style="stroke:#000000;stroke-width:0.8;" x="339.193015" xlink:href="#mc73a44b83e" y="174.058081"/>
      </g>
     </g>
     <g id="text_30">
      <!-- 4 -->
      <g transform="translate(325.830515 177.8573)scale(0.1 -0.1)">
       <use xlink:href="#DejaVuSans-52"/>
      </g>
     </g>
    </g>
    <g id="ytick_12">
     <g id="line2d_33">
      <g>
       <use style="stroke:#000000;stroke-width:0.8;" x="339.193015" xlink:href="#mc73a44b83e" y="138.822601"/>
      </g>
     </g>
     <g id="text_31">
      <!-- 5 -->
      <g transform="translate(325.830515 142.62182)scale(0.1 -0.1)">
       <use xlink:href="#DejaVuSans-53"/>
      </g>
     </g>
    </g>
    <g id="ytick_13">
     <g id="line2d_34">
      <g>
       <use style="stroke:#000000;stroke-width:0.8;" x="339.193015" xlink:href="#mc73a44b83e" y="103.587122"/>
      </g>
     </g>
     <g id="text_32">
      <!-- 6 -->
      <g transform="translate(325.830515 107.38634)scale(0.1 -0.1)">
       <use xlink:href="#DejaVuSans-54"/>
      </g>
     </g>
    </g>
    <g id="ytick_14">
     <g id="line2d_35">
      <g>
       <use style="stroke:#000000;stroke-width:0.8;" x="339.193015" xlink:href="#mc73a44b83e" y="68.351642"/>
      </g>
     </g>
     <g id="text_33">
      <!-- 7 -->
      <defs>
       <path d="M 8.203125 72.90625 
L 55.078125 72.90625 
L 55.078125 68.703125 
L 28.609375 0 
L 18.3125 0 
L 43.21875 64.59375 
L 8.203125 64.59375 
z
" id="DejaVuSans-55"/>
      </defs>
      <g transform="translate(325.830515 72.150861)scale(0.1 -0.1)">
       <use xlink:href="#DejaVuSans-55"/>
      </g>
     </g>
    </g>
    <g id="text_34">
     <!-- Percent -->
     <g transform="translate(319.750827 197.907812)rotate(-90)scale(0.1 -0.1)">
      <use xlink:href="#DejaVuSans-80"/>
      <use x="56.677734" xlink:href="#DejaVuSans-101"/>
      <use x="118.201172" xlink:href="#DejaVuSans-114"/>
      <use x="157.064453" xlink:href="#DejaVuSans-99"/>
      <use x="212.044922" xlink:href="#DejaVuSans-101"/>
      <use x="273.568359" xlink:href="#DejaVuSans-110"/>
      <use x="336.947266" xlink:href="#DejaVuSans-116"/>
     </g>
    </g>
   </g>
   <g id="patch_114">
    <path d="M 339.193015 315 
L 339.193015 43.2 
" style="fill:none;stroke:#000000;stroke-linecap:square;stroke-linejoin:miter;stroke-width:0.8;"/>
   </g>
   <g id="patch_115">
    <path d="M 585.369485 315 
L 585.369485 43.2 
" style="fill:none;stroke:#000000;stroke-linecap:square;stroke-linejoin:miter;stroke-width:0.8;"/>
   </g>
   <g id="patch_116">
    <path d="M 339.193015 315 
L 585.369485 315 
" style="fill:none;stroke:#000000;stroke-linecap:square;stroke-linejoin:miter;stroke-width:0.8;"/>
   </g>
   <g id="patch_117">
    <path d="M 339.193015 43.2 
L 585.369485 43.2 
" style="fill:none;stroke:#000000;stroke-linecap:square;stroke-linejoin:miter;stroke-width:0.8;"/>
   </g>
   <g id="legend_2">
    <g id="patch_118">
     <path d="M 540.006985 109.9125 
L 578.369485 109.9125 
Q 580.369485 109.9125 580.369485 107.9125 
L 580.369485 50.2 
Q 580.369485 48.2 578.369485 48.2 
L 540.006985 48.2 
Q 538.006985 48.2 538.006985 50.2 
L 538.006985 107.9125 
Q 538.006985 109.9125 540.006985 109.9125 
z
" style="fill:#ffffff;opacity:0.8;stroke:#cccccc;stroke-linejoin:miter;"/>
    </g>
    <g id="text_35">
     <!-- cluster -->
     <g transform="translate(542.184329 59.798437)scale(0.1 -0.1)">
      <use xlink:href="#DejaVuSans-99"/>
      <use x="54.980469" xlink:href="#DejaVuSans-108"/>
      <use x="82.763672" xlink:href="#DejaVuSans-117"/>
      <use x="146.142578" xlink:href="#DejaVuSans-115"/>
      <use x="198.242188" xlink:href="#DejaVuSans-116"/>
      <use x="237.451172" xlink:href="#DejaVuSans-101"/>
      <use x="298.974609" xlink:href="#DejaVuSans-114"/>
     </g>
    </g>
    <g id="patch_119">
     <path d="M 542.006985 74.476562 
L 562.006985 74.476562 
L 562.006985 67.476562 
L 542.006985 67.476562 
z
" style="fill:#023eff;fill-opacity:0.5;stroke:#000000;stroke-linejoin:miter;"/>
    </g>
    <g id="text_36">
     <!-- 0 -->
     <g transform="translate(570.006985 74.476562)scale(0.1 -0.1)">
      <use xlink:href="#DejaVuSans-48"/>
     </g>
    </g>
    <g id="patch_120">
     <path d="M 542.006985 89.154688 
L 562.006985 89.154688 
L 562.006985 82.154688 
L 542.006985 82.154688 
z
" style="fill:#ff7c00;fill-opacity:0.5;stroke:#000000;stroke-linejoin:miter;"/>
    </g>
    <g id="text_37">
     <!-- 1 -->
     <g transform="translate(570.006985 89.154688)scale(0.1 -0.1)">
      <use xlink:href="#DejaVuSans-49"/>
     </g>
    </g>
    <g id="patch_121">
     <path d="M 542.006985 103.832812 
L 562.006985 103.832812 
L 562.006985 96.832812 
L 542.006985 96.832812 
z
" style="fill:#1ac938;fill-opacity:0.5;stroke:#000000;stroke-linejoin:miter;"/>
    </g>
    <g id="text_38">
     <!-- 2 -->
     <g transform="translate(570.006985 103.832812)scale(0.1 -0.1)">
      <use xlink:href="#DejaVuSans-50"/>
     </g>
    </g>
   </g>
  </g>
  <g id="axes_3">
   <g id="patch_122">
    <path d="M 634.604779 315 
L 880.78125 315 
L 880.78125 43.2 
L 634.604779 43.2 
z
" style="fill:#ffffff;"/>
   </g>
   <g id="patch_123">
    <path clip-path="url(#pbcf0ea3ce3)" d="M 642.810662 289.148892 
L 708.457721 289.148892 
L 708.457721 252.811994 
L 642.810662 252.811994 
L 642.810662 289.148892 
z
" style="fill:#224fdf;stroke:#444444;stroke-linejoin:miter;stroke-width:1.5;"/>
   </g>
   <g id="patch_124">
    <path clip-path="url(#pbcf0ea3ce3)" d="M 724.869485 294.339878 
L 790.516544 294.339878 
L 790.516544 272.537739 
L 724.869485 272.537739 
L 724.869485 294.339878 
z
" style="fill:#df7d20;stroke:#444444;stroke-linejoin:miter;stroke-width:1.5;"/>
   </g>
   <g id="patch_125">
    <path clip-path="url(#pbcf0ea3ce3)" d="M 806.928309 213.360504 
L 872.575368 213.360504 
L 872.575368 140.167609 
L 806.928309 140.167609 
L 806.928309 213.360504 
z
" style="fill:#30b346;stroke:#444444;stroke-linejoin:miter;stroke-width:1.5;"/>
   </g>
   <g id="matplotlib.axis_5">
    <g id="xtick_13">
     <g id="line2d_36">
      <g>
       <use style="stroke:#000000;stroke-width:0.8;" x="675.634191" xlink:href="#m02024a594b" y="315"/>
      </g>
     </g>
     <g id="text_39">
      <!-- 0 -->
      <g transform="translate(672.452941 329.598437)scale(0.1 -0.1)">
       <use xlink:href="#DejaVuSans-48"/>
      </g>
     </g>
    </g>
    <g id="xtick_14">
     <g id="line2d_37">
      <g>
       <use style="stroke:#000000;stroke-width:0.8;" x="757.693015" xlink:href="#m02024a594b" y="315"/>
      </g>
     </g>
     <g id="text_40">
      <!-- 1 -->
      <g transform="translate(754.511765 329.598437)scale(0.1 -0.1)">
       <use xlink:href="#DejaVuSans-49"/>
      </g>
     </g>
    </g>
    <g id="xtick_15">
     <g id="line2d_38">
      <g>
       <use style="stroke:#000000;stroke-width:0.8;" x="839.751838" xlink:href="#m02024a594b" y="315"/>
      </g>
     </g>
     <g id="text_41">
      <!-- 2 -->
      <g transform="translate(836.570588 329.598437)scale(0.1 -0.1)">
       <use xlink:href="#DejaVuSans-50"/>
      </g>
     </g>
    </g>
    <g id="text_42">
     <!-- cluster -->
     <g transform="translate(740.689108 343.276562)scale(0.1 -0.1)">
      <use xlink:href="#DejaVuSans-99"/>
      <use x="54.980469" xlink:href="#DejaVuSans-108"/>
      <use x="82.763672" xlink:href="#DejaVuSans-117"/>
      <use x="146.142578" xlink:href="#DejaVuSans-115"/>
      <use x="198.242188" xlink:href="#DejaVuSans-116"/>
      <use x="237.451172" xlink:href="#DejaVuSans-101"/>
      <use x="298.974609" xlink:href="#DejaVuSans-114"/>
     </g>
    </g>
   </g>
   <g id="matplotlib.axis_6">
    <g id="ytick_15">
     <g id="line2d_39">
      <g>
       <use style="stroke:#000000;stroke-width:0.8;" x="634.604779" xlink:href="#mc73a44b83e" y="307.83644"/>
      </g>
     </g>
     <g id="text_43">
      <!-- 0 -->
      <g transform="translate(621.242279 311.635659)scale(0.1 -0.1)">
       <use xlink:href="#DejaVuSans-48"/>
      </g>
     </g>
    </g>
    <g id="ytick_16">
     <g id="line2d_40">
      <g>
       <use style="stroke:#000000;stroke-width:0.8;" x="634.604779" xlink:href="#mc73a44b83e" y="255.926585"/>
      </g>
     </g>
     <g id="text_44">
      <!-- 50 -->
      <g transform="translate(614.879779 259.725804)scale(0.1 -0.1)">
       <use xlink:href="#DejaVuSans-53"/>
       <use x="63.623047" xlink:href="#DejaVuSans-48"/>
      </g>
     </g>
    </g>
    <g id="ytick_17">
     <g id="line2d_41">
      <g>
       <use style="stroke:#000000;stroke-width:0.8;" x="634.604779" xlink:href="#mc73a44b83e" y="204.01673"/>
      </g>
     </g>
     <g id="text_45">
      <!-- 100 -->
      <g transform="translate(608.517279 207.815949)scale(0.1 -0.1)">
       <use xlink:href="#DejaVuSans-49"/>
       <use x="63.623047" xlink:href="#DejaVuSans-48"/>
       <use x="127.246094" xlink:href="#DejaVuSans-48"/>
      </g>
     </g>
    </g>
    <g id="ytick_18">
     <g id="line2d_42">
      <g>
       <use style="stroke:#000000;stroke-width:0.8;" x="634.604779" xlink:href="#mc73a44b83e" y="152.106875"/>
      </g>
     </g>
     <g id="text_46">
      <!-- 150 -->
      <g transform="translate(608.517279 155.906094)scale(0.1 -0.1)">
       <use xlink:href="#DejaVuSans-49"/>
       <use x="63.623047" xlink:href="#DejaVuSans-53"/>
       <use x="127.246094" xlink:href="#DejaVuSans-48"/>
      </g>
     </g>
    </g>
    <g id="ytick_19">
     <g id="line2d_43">
      <g>
       <use style="stroke:#000000;stroke-width:0.8;" x="634.604779" xlink:href="#mc73a44b83e" y="100.197021"/>
      </g>
     </g>
     <g id="text_47">
      <!-- 200 -->
      <g transform="translate(608.517279 103.996239)scale(0.1 -0.1)">
       <use xlink:href="#DejaVuSans-50"/>
       <use x="63.623047" xlink:href="#DejaVuSans-48"/>
       <use x="127.246094" xlink:href="#DejaVuSans-48"/>
      </g>
     </g>
    </g>
    <g id="ytick_20">
     <g id="line2d_44">
      <g>
       <use style="stroke:#000000;stroke-width:0.8;" x="634.604779" xlink:href="#mc73a44b83e" y="48.287166"/>
      </g>
     </g>
     <g id="text_48">
      <!-- 250 -->
      <g transform="translate(608.517279 52.086385)scale(0.1 -0.1)">
       <use xlink:href="#DejaVuSans-50"/>
       <use x="63.623047" xlink:href="#DejaVuSans-53"/>
       <use x="127.246094" xlink:href="#DejaVuSans-48"/>
      </g>
     </g>
    </g>
    <g id="text_49">
     <!-- Frequency -->
     <g transform="translate(602.437592 204.929687)rotate(-90)scale(0.1 -0.1)">
      <use xlink:href="#DejaVuSans-70"/>
      <use x="50.269531" xlink:href="#DejaVuSans-114"/>
      <use x="89.132812" xlink:href="#DejaVuSans-101"/>
      <use x="150.65625" xlink:href="#DejaVuSans-113"/>
      <use x="214.132812" xlink:href="#DejaVuSans-117"/>
      <use x="277.511719" xlink:href="#DejaVuSans-101"/>
      <use x="339.035156" xlink:href="#DejaVuSans-110"/>
      <use x="402.414062" xlink:href="#DejaVuSans-99"/>
      <use x="457.394531" xlink:href="#DejaVuSans-121"/>
     </g>
    </g>
   </g>
   <g id="line2d_45">
    <path clip-path="url(#pbcf0ea3ce3)" d="M 675.634191 289.148892 
L 675.634191 302.645455 
" style="fill:none;stroke:#444444;stroke-linecap:square;stroke-width:1.5;"/>
   </g>
   <g id="line2d_46">
    <path clip-path="url(#pbcf0ea3ce3)" d="M 675.634191 252.811994 
L 675.634191 202.978533 
" style="fill:none;stroke:#444444;stroke-linecap:square;stroke-width:1.5;"/>
   </g>
   <g id="line2d_47">
    <path clip-path="url(#pbcf0ea3ce3)" d="M 659.222426 302.645455 
L 692.045956 302.645455 
" style="fill:none;stroke:#444444;stroke-linecap:square;stroke-width:1.5;"/>
   </g>
   <g id="line2d_48">
    <path clip-path="url(#pbcf0ea3ce3)" d="M 659.222426 202.978533 
L 692.045956 202.978533 
" style="fill:none;stroke:#444444;stroke-linecap:square;stroke-width:1.5;"/>
   </g>
   <g id="line2d_49"/>
   <g id="line2d_50">
    <path clip-path="url(#pbcf0ea3ce3)" d="M 757.693015 294.339878 
L 757.693015 302.645455 
" style="fill:none;stroke:#444444;stroke-linecap:square;stroke-width:1.5;"/>
   </g>
   <g id="line2d_51">
    <path clip-path="url(#pbcf0ea3ce3)" d="M 757.693015 272.537739 
L 757.693015 240.353629 
" style="fill:none;stroke:#444444;stroke-linecap:square;stroke-width:1.5;"/>
   </g>
   <g id="line2d_52">
    <path clip-path="url(#pbcf0ea3ce3)" d="M 741.28125 302.645455 
L 774.104779 302.645455 
" style="fill:none;stroke:#444444;stroke-linecap:square;stroke-width:1.5;"/>
   </g>
   <g id="line2d_53">
    <path clip-path="url(#pbcf0ea3ce3)" d="M 741.28125 240.353629 
L 774.104779 240.353629 
" style="fill:none;stroke:#444444;stroke-linecap:square;stroke-width:1.5;"/>
   </g>
   <g id="line2d_54">
    <defs>
     <path d="M -0 3.535534 
L 2.12132 0 
L -0 -3.535534 
L -2.12132 -0 
z
" id="mce8d4bc052" style="stroke:#444444;stroke-linejoin:miter;"/>
    </defs>
    <g clip-path="url(#pbcf0ea3ce3)">
     <use style="fill:#444444;stroke:#444444;stroke-linejoin:miter;" x="757.693015" xlink:href="#mce8d4bc052" y="226.857066"/>
     <use style="fill:#444444;stroke:#444444;stroke-linejoin:miter;" x="757.693015" xlink:href="#mce8d4bc052" y="231.009855"/>
     <use style="fill:#444444;stroke:#444444;stroke-linejoin:miter;" x="757.693015" xlink:href="#mce8d4bc052" y="239.315432"/>
     <use style="fill:#444444;stroke:#444444;stroke-linejoin:miter;" x="757.693015" xlink:href="#mce8d4bc052" y="218.55149"/>
     <use style="fill:#444444;stroke:#444444;stroke-linejoin:miter;" x="757.693015" xlink:href="#mce8d4bc052" y="229.971658"/>
     <use style="fill:#444444;stroke:#444444;stroke-linejoin:miter;" x="757.693015" xlink:href="#mce8d4bc052" y="221.666081"/>
     <use style="fill:#444444;stroke:#444444;stroke-linejoin:miter;" x="757.693015" xlink:href="#mce8d4bc052" y="222.704278"/>
     <use style="fill:#444444;stroke:#444444;stroke-linejoin:miter;" x="757.693015" xlink:href="#mce8d4bc052" y="231.009855"/>
     <use style="fill:#444444;stroke:#444444;stroke-linejoin:miter;" x="757.693015" xlink:href="#mce8d4bc052" y="224.780672"/>
     <use style="fill:#444444;stroke:#444444;stroke-linejoin:miter;" x="757.693015" xlink:href="#mce8d4bc052" y="237.239037"/>
     <use style="fill:#444444;stroke:#444444;stroke-linejoin:miter;" x="757.693015" xlink:href="#mce8d4bc052" y="234.124446"/>
     <use style="fill:#444444;stroke:#444444;stroke-linejoin:miter;" x="757.693015" xlink:href="#mce8d4bc052" y="235.162643"/>
     <use style="fill:#444444;stroke:#444444;stroke-linejoin:miter;" x="757.693015" xlink:href="#mce8d4bc052" y="224.780672"/>
     <use style="fill:#444444;stroke:#444444;stroke-linejoin:miter;" x="757.693015" xlink:href="#mce8d4bc052" y="232.048052"/>
     <use style="fill:#444444;stroke:#444444;stroke-linejoin:miter;" x="757.693015" xlink:href="#mce8d4bc052" y="237.239037"/>
     <use style="fill:#444444;stroke:#444444;stroke-linejoin:miter;" x="757.693015" xlink:href="#mce8d4bc052" y="238.277235"/>
     <use style="fill:#444444;stroke:#444444;stroke-linejoin:miter;" x="757.693015" xlink:href="#mce8d4bc052" y="222.704278"/>
     <use style="fill:#444444;stroke:#444444;stroke-linejoin:miter;" x="757.693015" xlink:href="#mce8d4bc052" y="234.124446"/>
     <use style="fill:#444444;stroke:#444444;stroke-linejoin:miter;" x="757.693015" xlink:href="#mce8d4bc052" y="222.704278"/>
     <use style="fill:#444444;stroke:#444444;stroke-linejoin:miter;" x="757.693015" xlink:href="#mce8d4bc052" y="239.315432"/>
     <use style="fill:#444444;stroke:#444444;stroke-linejoin:miter;" x="757.693015" xlink:href="#mce8d4bc052" y="218.55149"/>
     <use style="fill:#444444;stroke:#444444;stroke-linejoin:miter;" x="757.693015" xlink:href="#mce8d4bc052" y="224.780672"/>
     <use style="fill:#444444;stroke:#444444;stroke-linejoin:miter;" x="757.693015" xlink:href="#mce8d4bc052" y="220.627884"/>
     <use style="fill:#444444;stroke:#444444;stroke-linejoin:miter;" x="757.693015" xlink:href="#mce8d4bc052" y="227.895264"/>
     <use style="fill:#444444;stroke:#444444;stroke-linejoin:miter;" x="757.693015" xlink:href="#mce8d4bc052" y="235.162643"/>
     <use style="fill:#444444;stroke:#444444;stroke-linejoin:miter;" x="757.693015" xlink:href="#mce8d4bc052" y="236.20084"/>
     <use style="fill:#444444;stroke:#444444;stroke-linejoin:miter;" x="757.693015" xlink:href="#mce8d4bc052" y="229.971658"/>
     <use style="fill:#444444;stroke:#444444;stroke-linejoin:miter;" x="757.693015" xlink:href="#mce8d4bc052" y="231.009855"/>
     <use style="fill:#444444;stroke:#444444;stroke-linejoin:miter;" x="757.693015" xlink:href="#mce8d4bc052" y="238.277235"/>
     <use style="fill:#444444;stroke:#444444;stroke-linejoin:miter;" x="757.693015" xlink:href="#mce8d4bc052" y="223.742475"/>
     <use style="fill:#444444;stroke:#444444;stroke-linejoin:miter;" x="757.693015" xlink:href="#mce8d4bc052" y="228.933461"/>
     <use style="fill:#444444;stroke:#444444;stroke-linejoin:miter;" x="757.693015" xlink:href="#mce8d4bc052" y="237.239037"/>
     <use style="fill:#444444;stroke:#444444;stroke-linejoin:miter;" x="757.693015" xlink:href="#mce8d4bc052" y="237.239037"/>
    </g>
   </g>
   <g id="line2d_55">
    <path clip-path="url(#pbcf0ea3ce3)" d="M 839.751838 213.360504 
L 839.751838 301.607257 
" style="fill:none;stroke:#444444;stroke-linecap:square;stroke-width:1.5;"/>
   </g>
   <g id="line2d_56">
    <path clip-path="url(#pbcf0ea3ce3)" d="M 839.751838 140.167609 
L 839.751838 55.554545 
" style="fill:none;stroke:#444444;stroke-linecap:square;stroke-width:1.5;"/>
   </g>
   <g id="line2d_57">
    <path clip-path="url(#pbcf0ea3ce3)" d="M 823.340074 301.607257 
L 856.163603 301.607257 
" style="fill:none;stroke:#444444;stroke-linecap:square;stroke-width:1.5;"/>
   </g>
   <g id="line2d_58">
    <path clip-path="url(#pbcf0ea3ce3)" d="M 823.340074 55.554545 
L 856.163603 55.554545 
" style="fill:none;stroke:#444444;stroke-linecap:square;stroke-width:1.5;"/>
   </g>
   <g id="line2d_59"/>
   <g id="line2d_60">
    <path clip-path="url(#pbcf0ea3ce3)" d="M 642.810662 273.575936 
L 708.457721 273.575936 
" style="fill:none;stroke:#444444;stroke-linecap:square;stroke-width:1.5;"/>
   </g>
   <g id="line2d_61">
    <path clip-path="url(#pbcf0ea3ce3)" d="M 724.869485 286.034301 
L 790.516544 286.034301 
" style="fill:none;stroke:#444444;stroke-linecap:square;stroke-width:1.5;"/>
   </g>
   <g id="line2d_62">
    <path clip-path="url(#pbcf0ea3ce3)" d="M 806.928309 182.214591 
L 872.575368 182.214591 
" style="fill:none;stroke:#444444;stroke-linecap:square;stroke-width:1.5;"/>
   </g>
   <g id="patch_126">
    <path d="M 634.604779 315 
L 634.604779 43.2 
" style="fill:none;stroke:#000000;stroke-linecap:square;stroke-linejoin:miter;stroke-width:0.8;"/>
   </g>
   <g id="patch_127">
    <path d="M 880.78125 315 
L 880.78125 43.2 
" style="fill:none;stroke:#000000;stroke-linecap:square;stroke-linejoin:miter;stroke-width:0.8;"/>
   </g>
   <g id="patch_128">
    <path d="M 634.604779 315 
L 880.78125 315 
" style="fill:none;stroke:#000000;stroke-linecap:square;stroke-linejoin:miter;stroke-width:0.8;"/>
   </g>
   <g id="patch_129">
    <path d="M 634.604779 43.2 
L 880.78125 43.2 
" style="fill:none;stroke:#000000;stroke-linecap:square;stroke-linejoin:miter;stroke-width:0.8;"/>
   </g>
  </g>
  <g id="text_50">
   <!-- Frequency -->
   <g transform="translate(397.121875 22.396875)scale(0.2 -0.2)">
    <use xlink:href="#DejaVuSans-70"/>
    <use x="50.269531" xlink:href="#DejaVuSans-114"/>
    <use x="89.132812" xlink:href="#DejaVuSans-101"/>
    <use x="150.65625" xlink:href="#DejaVuSans-113"/>
    <use x="214.132812" xlink:href="#DejaVuSans-117"/>
    <use x="277.511719" xlink:href="#DejaVuSans-101"/>
    <use x="339.035156" xlink:href="#DejaVuSans-110"/>
    <use x="402.414062" xlink:href="#DejaVuSans-99"/>
    <use x="457.394531" xlink:href="#DejaVuSans-121"/>
   </g>
  </g>
 </g>
 <defs>
  <clipPath id="p068b1ab554">
   <rect height="271.8" width="246.176471" x="43.78125" y="43.2"/>
  </clipPath>
  <clipPath id="p0d40f106aa">
   <rect height="271.8" width="246.176471" x="339.193015" y="43.2"/>
  </clipPath>
  <clipPath id="pbcf0ea3ce3">
   <rect height="271.8" width="246.176471" x="634.604779" y="43.2"/>
  </clipPath>
 </defs>
</svg>
