<?xml version="1.0" encoding="utf-8" standalone="no"?>
<!DOCTYPE svg PUBLIC "-//W3C//DTD SVG 1.1//EN"
  "http://www.w3.org/Graphics/SVG/1.1/DTD/svg11.dtd">
<!-- Created with matplotlib (https://matplotlib.org/) -->
<svg height="352.55625pt" version="1.1" viewBox="0 0 887.98125 352.55625" width="887.98125pt" xmlns="http://www.w3.org/2000/svg" xmlns:xlink="http://www.w3.org/1999/xlink">
 <defs>
  <style type="text/css">
*{stroke-linecap:butt;stroke-linejoin:round;}
  </style>
 </defs>
 <g id="figure_1">
  <g id="patch_1">
   <path d="M 0 352.55625 
L 887.98125 352.55625 
L 887.98125 0 
L 0 0 
z
" style="fill:#ffffff;"/>
  </g>
  <g id="axes_1">
   <g id="patch_2">
    <path d="M 43.78125 315 
L 289.957721 315 
L 289.957721 43.2 
L 43.78125 43.2 
z
" style="fill:#ffffff;"/>
   </g>
   <g id="matplotlib.axis_1">
    <g id="xtick_1">
     <g id="line2d_1">
      <defs>
       <path d="M 0 0 
L 0 3.5 
" id="me796891981" style="stroke:#000000;stroke-width:0.8;"/>
      </defs>
      <g>
       <use style="stroke:#000000;stroke-width:0.8;" x="52.702879" xlink:href="#me796891981" y="315"/>
      </g>
     </g>
     <g id="text_1">
      <!-- 0 -->
      <defs>
       <path d="M 31.78125 66.40625 
Q 24.171875 66.40625 20.328125 58.90625 
Q 16.5 51.421875 16.5 36.375 
Q 16.5 21.390625 20.328125 13.890625 
Q 24.171875 6.390625 31.78125 6.390625 
Q 39.453125 6.390625 43.28125 13.890625 
Q 47.125 21.390625 47.125 36.375 
Q 47.125 51.421875 43.28125 58.90625 
Q 39.453125 66.40625 31.78125 66.40625 
z
M 31.78125 74.21875 
Q 44.046875 74.21875 50.515625 64.515625 
Q 56.984375 54.828125 56.984375 36.375 
Q 56.984375 17.96875 50.515625 8.265625 
Q 44.046875 -1.421875 31.78125 -1.421875 
Q 19.53125 -1.421875 13.0625 8.265625 
Q 6.59375 17.96875 6.59375 36.375 
Q 6.59375 54.828125 13.0625 64.515625 
Q 19.53125 74.21875 31.78125 74.21875 
z
" id="DejaVuSans-48"/>
      </defs>
      <g transform="translate(49.521629 329.598437)scale(0.1 -0.1)">
       <use xlink:href="#DejaVuSans-48"/>
      </g>
     </g>
    </g>
    <g id="xtick_2">
     <g id="line2d_2">
      <g>
       <use style="stroke:#000000;stroke-width:0.8;" x="90.506391" xlink:href="#me796891981" y="315"/>
      </g>
     </g>
     <g id="text_2">
      <!-- 50 -->
      <defs>
       <path d="M 10.796875 72.90625 
L 49.515625 72.90625 
L 49.515625 64.59375 
L 19.828125 64.59375 
L 19.828125 46.734375 
Q 21.96875 47.46875 24.109375 47.828125 
Q 26.265625 48.1875 28.421875 48.1875 
Q 40.625 48.1875 47.75 41.5 
Q 54.890625 34.8125 54.890625 23.390625 
Q 54.890625 11.625 47.5625 5.09375 
Q 40.234375 -1.421875 26.90625 -1.421875 
Q 22.3125 -1.421875 17.546875 -0.640625 
Q 12.796875 0.140625 7.71875 1.703125 
L 7.71875 11.625 
Q 12.109375 9.234375 16.796875 8.0625 
Q 21.484375 6.890625 26.703125 6.890625 
Q 35.15625 6.890625 40.078125 11.328125 
Q 45.015625 15.765625 45.015625 23.390625 
Q 45.015625 31 40.078125 35.4375 
Q 35.15625 39.890625 26.703125 39.890625 
Q 22.75 39.890625 18.8125 39.015625 
Q 14.890625 38.140625 10.796875 36.28125 
z
" id="DejaVuSans-53"/>
      </defs>
      <g transform="translate(84.143891 329.598437)scale(0.1 -0.1)">
       <use xlink:href="#DejaVuSans-53"/>
       <use x="63.623047" xlink:href="#DejaVuSans-48"/>
      </g>
     </g>
    </g>
    <g id="xtick_3">
     <g id="line2d_3">
      <g>
       <use style="stroke:#000000;stroke-width:0.8;" x="128.309903" xlink:href="#me796891981" y="315"/>
      </g>
     </g>
     <g id="text_3">
      <!-- 100 -->
      <defs>
       <path d="M 12.40625 8.296875 
L 28.515625 8.296875 
L 28.515625 63.921875 
L 10.984375 60.40625 
L 10.984375 69.390625 
L 28.421875 72.90625 
L 38.28125 72.90625 
L 38.28125 8.296875 
L 54.390625 8.296875 
L 54.390625 0 
L 12.40625 0 
z
" id="DejaVuSans-49"/>
      </defs>
      <g transform="translate(118.766153 329.598437)scale(0.1 -0.1)">
       <use xlink:href="#DejaVuSans-49"/>
       <use x="63.623047" xlink:href="#DejaVuSans-48"/>
       <use x="127.246094" xlink:href="#DejaVuSans-48"/>
      </g>
     </g>
    </g>
    <g id="xtick_4">
     <g id="line2d_4">
      <g>
       <use style="stroke:#000000;stroke-width:0.8;" x="166.113415" xlink:href="#me796891981" y="315"/>
      </g>
     </g>
     <g id="text_4">
      <!-- 150 -->
      <g transform="translate(156.569665 329.598437)scale(0.1 -0.1)">
       <use xlink:href="#DejaVuSans-49"/>
       <use x="63.623047" xlink:href="#DejaVuSans-53"/>
       <use x="127.246094" xlink:href="#DejaVuSans-48"/>
      </g>
     </g>
    </g>
    <g id="xtick_5">
     <g id="line2d_5">
      <g>
       <use style="stroke:#000000;stroke-width:0.8;" x="203.916927" xlink:href="#me796891981" y="315"/>
      </g>
     </g>
     <g id="text_5">
      <!-- 200 -->
      <defs>
       <path d="M 19.1875 8.296875 
L 53.609375 8.296875 
L 53.609375 0 
L 7.328125 0 
L 7.328125 8.296875 
Q 12.9375 14.109375 22.625 23.890625 
Q 32.328125 33.6875 34.8125 36.53125 
Q 39.546875 41.84375 41.421875 45.53125 
Q 43.3125 49.21875 43.3125 52.78125 
Q 43.3125 58.59375 39.234375 62.25 
Q 35.15625 65.921875 28.609375 65.921875 
Q 23.96875 65.921875 18.8125 64.3125 
Q 13.671875 62.703125 7.8125 59.421875 
L 7.8125 69.390625 
Q 13.765625 71.78125 18.9375 73 
Q 24.125 74.21875 28.421875 74.21875 
Q 39.75 74.21875 46.484375 68.546875 
Q 53.21875 62.890625 53.21875 53.421875 
Q 53.21875 48.921875 51.53125 44.890625 
Q 49.859375 40.875 45.40625 35.40625 
Q 44.1875 33.984375 37.640625 27.21875 
Q 31.109375 20.453125 19.1875 8.296875 
z
" id="DejaVuSans-50"/>
      </defs>
      <g transform="translate(194.373177 329.598437)scale(0.1 -0.1)">
       <use xlink:href="#DejaVuSans-50"/>
       <use x="63.623047" xlink:href="#DejaVuSans-48"/>
       <use x="127.246094" xlink:href="#DejaVuSans-48"/>
      </g>
     </g>
    </g>
    <g id="xtick_6">
     <g id="line2d_6">
      <g>
       <use style="stroke:#000000;stroke-width:0.8;" x="241.720439" xlink:href="#me796891981" y="315"/>
      </g>
     </g>
     <g id="text_6">
      <!-- 250 -->
      <g transform="translate(232.176689 329.598437)scale(0.1 -0.1)">
       <use xlink:href="#DejaVuSans-50"/>
       <use x="63.623047" xlink:href="#DejaVuSans-53"/>
       <use x="127.246094" xlink:href="#DejaVuSans-48"/>
      </g>
     </g>
    </g>
    <g id="xtick_7">
     <g id="line2d_7">
      <g>
       <use style="stroke:#000000;stroke-width:0.8;" x="279.523951" xlink:href="#me796891981" y="315"/>
      </g>
     </g>
     <g id="text_7">
      <!-- 300 -->
      <defs>
       <path d="M 40.578125 39.3125 
Q 47.65625 37.796875 51.625 33 
Q 55.609375 28.21875 55.609375 21.1875 
Q 55.609375 10.40625 48.1875 4.484375 
Q 40.765625 -1.421875 27.09375 -1.421875 
Q 22.515625 -1.421875 17.65625 -0.515625 
Q 12.796875 0.390625 7.625 2.203125 
L 7.625 11.71875 
Q 11.71875 9.328125 16.59375 8.109375 
Q 21.484375 6.890625 26.8125 6.890625 
Q 36.078125 6.890625 40.9375 10.546875 
Q 45.796875 14.203125 45.796875 21.1875 
Q 45.796875 27.640625 41.28125 31.265625 
Q 36.765625 34.90625 28.71875 34.90625 
L 20.21875 34.90625 
L 20.21875 43.015625 
L 29.109375 43.015625 
Q 36.375 43.015625 40.234375 45.921875 
Q 44.09375 48.828125 44.09375 54.296875 
Q 44.09375 59.90625 40.109375 62.90625 
Q 36.140625 65.921875 28.71875 65.921875 
Q 24.65625 65.921875 20.015625 65.03125 
Q 15.375 64.15625 9.8125 62.3125 
L 9.8125 71.09375 
Q 15.4375 72.65625 20.34375 73.4375 
Q 25.25 74.21875 29.59375 74.21875 
Q 40.828125 74.21875 47.359375 69.109375 
Q 53.90625 64.015625 53.90625 55.328125 
Q 53.90625 49.265625 50.4375 45.09375 
Q 46.96875 40.921875 40.578125 39.3125 
z
" id="DejaVuSans-51"/>
      </defs>
      <g transform="translate(269.980201 329.598437)scale(0.1 -0.1)">
       <use xlink:href="#DejaVuSans-51"/>
       <use x="63.623047" xlink:href="#DejaVuSans-48"/>
       <use x="127.246094" xlink:href="#DejaVuSans-48"/>
      </g>
     </g>
    </g>
    <g id="text_8">
     <!-- Recency -->
     <defs>
      <path d="M 44.390625 34.1875 
Q 47.5625 33.109375 50.5625 29.59375 
Q 53.5625 26.078125 56.59375 19.921875 
L 66.609375 0 
L 56 0 
L 46.6875 18.703125 
Q 43.0625 26.03125 39.671875 28.421875 
Q 36.28125 30.8125 30.421875 30.8125 
L 19.671875 30.8125 
L 19.671875 0 
L 9.8125 0 
L 9.8125 72.90625 
L 32.078125 72.90625 
Q 44.578125 72.90625 50.734375 67.671875 
Q 56.890625 62.453125 56.890625 51.90625 
Q 56.890625 45.015625 53.6875 40.46875 
Q 50.484375 35.9375 44.390625 34.1875 
z
M 19.671875 64.796875 
L 19.671875 38.921875 
L 32.078125 38.921875 
Q 39.203125 38.921875 42.84375 42.21875 
Q 46.484375 45.515625 46.484375 51.90625 
Q 46.484375 58.296875 42.84375 61.546875 
Q 39.203125 64.796875 32.078125 64.796875 
z
" id="DejaVuSans-82"/>
      <path d="M 56.203125 29.59375 
L 56.203125 25.203125 
L 14.890625 25.203125 
Q 15.484375 15.921875 20.484375 11.0625 
Q 25.484375 6.203125 34.421875 6.203125 
Q 39.59375 6.203125 44.453125 7.46875 
Q 49.3125 8.734375 54.109375 11.28125 
L 54.109375 2.78125 
Q 49.265625 0.734375 44.1875 -0.34375 
Q 39.109375 -1.421875 33.890625 -1.421875 
Q 20.796875 -1.421875 13.15625 6.1875 
Q 5.515625 13.8125 5.515625 26.8125 
Q 5.515625 40.234375 12.765625 48.109375 
Q 20.015625 56 32.328125 56 
Q 43.359375 56 49.78125 48.890625 
Q 56.203125 41.796875 56.203125 29.59375 
z
M 47.21875 32.234375 
Q 47.125 39.59375 43.09375 43.984375 
Q 39.0625 48.390625 32.421875 48.390625 
Q 24.90625 48.390625 20.390625 44.140625 
Q 15.875 39.890625 15.1875 32.171875 
z
" id="DejaVuSans-101"/>
      <path d="M 48.78125 52.59375 
L 48.78125 44.1875 
Q 44.96875 46.296875 41.140625 47.34375 
Q 37.3125 48.390625 33.40625 48.390625 
Q 24.65625 48.390625 19.8125 42.84375 
Q 14.984375 37.3125 14.984375 27.296875 
Q 14.984375 17.28125 19.8125 11.734375 
Q 24.65625 6.203125 33.40625 6.203125 
Q 37.3125 6.203125 41.140625 7.25 
Q 44.96875 8.296875 48.78125 10.40625 
L 48.78125 2.09375 
Q 45.015625 0.34375 40.984375 -0.53125 
Q 36.96875 -1.421875 32.421875 -1.421875 
Q 20.0625 -1.421875 12.78125 6.34375 
Q 5.515625 14.109375 5.515625 27.296875 
Q 5.515625 40.671875 12.859375 48.328125 
Q 20.21875 56 33.015625 56 
Q 37.15625 56 41.109375 55.140625 
Q 45.0625 54.296875 48.78125 52.59375 
z
" id="DejaVuSans-99"/>
      <path d="M 54.890625 33.015625 
L 54.890625 0 
L 45.90625 0 
L 45.90625 32.71875 
Q 45.90625 40.484375 42.875 44.328125 
Q 39.84375 48.1875 33.796875 48.1875 
Q 26.515625 48.1875 22.3125 43.546875 
Q 18.109375 38.921875 18.109375 30.90625 
L 18.109375 0 
L 9.078125 0 
L 9.078125 54.6875 
L 18.109375 54.6875 
L 18.109375 46.1875 
Q 21.34375 51.125 25.703125 53.5625 
Q 30.078125 56 35.796875 56 
Q 45.21875 56 50.046875 50.171875 
Q 54.890625 44.34375 54.890625 33.015625 
z
" id="DejaVuSans-110"/>
      <path d="M 32.171875 -5.078125 
Q 28.375 -14.84375 24.75 -17.8125 
Q 21.140625 -20.796875 15.09375 -20.796875 
L 7.90625 -20.796875 
L 7.90625 -13.28125 
L 13.1875 -13.28125 
Q 16.890625 -13.28125 18.9375 -11.515625 
Q 21 -9.765625 23.484375 -3.21875 
L 25.09375 0.875 
L 2.984375 54.6875 
L 12.5 54.6875 
L 29.59375 11.921875 
L 46.6875 54.6875 
L 56.203125 54.6875 
z
" id="DejaVuSans-121"/>
     </defs>
     <g transform="translate(145.840579 343.276562)scale(0.1 -0.1)">
      <use xlink:href="#DejaVuSans-82"/>
      <use x="64.982422" xlink:href="#DejaVuSans-101"/>
      <use x="126.505859" xlink:href="#DejaVuSans-99"/>
      <use x="181.486328" xlink:href="#DejaVuSans-101"/>
      <use x="243.009766" xlink:href="#DejaVuSans-110"/>
      <use x="306.388672" xlink:href="#DejaVuSans-99"/>
      <use x="361.369141" xlink:href="#DejaVuSans-121"/>
     </g>
    </g>
   </g>
   <g id="matplotlib.axis_2">
    <g id="ytick_1">
     <g id="line2d_8">
      <defs>
       <path d="M 0 0 
L -3.5 0 
" id="meb03d5cc2d" style="stroke:#000000;stroke-width:0.8;"/>
      </defs>
      <g>
       <use style="stroke:#000000;stroke-width:0.8;" x="43.78125" xlink:href="#meb03d5cc2d" y="315"/>
      </g>
     </g>
     <g id="text_9">
      <!-- 0.0 -->
      <defs>
       <path d="M 10.6875 12.40625 
L 21 12.40625 
L 21 0 
L 10.6875 0 
z
" id="DejaVuSans-46"/>
      </defs>
      <g transform="translate(20.878125 318.799219)scale(0.1 -0.1)">
       <use xlink:href="#DejaVuSans-48"/>
       <use x="63.623047" xlink:href="#DejaVuSans-46"/>
       <use x="95.410156" xlink:href="#DejaVuSans-48"/>
      </g>
     </g>
    </g>
    <g id="ytick_2">
     <g id="line2d_9">
      <g>
       <use style="stroke:#000000;stroke-width:0.8;" x="43.78125" xlink:href="#meb03d5cc2d" y="260.64"/>
      </g>
     </g>
     <g id="text_10">
      <!-- 0.2 -->
      <g transform="translate(20.878125 264.439219)scale(0.1 -0.1)">
       <use xlink:href="#DejaVuSans-48"/>
       <use x="63.623047" xlink:href="#DejaVuSans-46"/>
       <use x="95.410156" xlink:href="#DejaVuSans-50"/>
      </g>
     </g>
    </g>
    <g id="ytick_3">
     <g id="line2d_10">
      <g>
       <use style="stroke:#000000;stroke-width:0.8;" x="43.78125" xlink:href="#meb03d5cc2d" y="206.28"/>
      </g>
     </g>
     <g id="text_11">
      <!-- 0.4 -->
      <defs>
       <path d="M 37.796875 64.3125 
L 12.890625 25.390625 
L 37.796875 25.390625 
z
M 35.203125 72.90625 
L 47.609375 72.90625 
L 47.609375 25.390625 
L 58.015625 25.390625 
L 58.015625 17.1875 
L 47.609375 17.1875 
L 47.609375 0 
L 37.796875 0 
L 37.796875 17.1875 
L 4.890625 17.1875 
L 4.890625 26.703125 
z
" id="DejaVuSans-52"/>
      </defs>
      <g transform="translate(20.878125 210.079219)scale(0.1 -0.1)">
       <use xlink:href="#DejaVuSans-48"/>
       <use x="63.623047" xlink:href="#DejaVuSans-46"/>
       <use x="95.410156" xlink:href="#DejaVuSans-52"/>
      </g>
     </g>
    </g>
    <g id="ytick_4">
     <g id="line2d_11">
      <g>
       <use style="stroke:#000000;stroke-width:0.8;" x="43.78125" xlink:href="#meb03d5cc2d" y="151.92"/>
      </g>
     </g>
     <g id="text_12">
      <!-- 0.6 -->
      <defs>
       <path d="M 33.015625 40.375 
Q 26.375 40.375 22.484375 35.828125 
Q 18.609375 31.296875 18.609375 23.390625 
Q 18.609375 15.53125 22.484375 10.953125 
Q 26.375 6.390625 33.015625 6.390625 
Q 39.65625 6.390625 43.53125 10.953125 
Q 47.40625 15.53125 47.40625 23.390625 
Q 47.40625 31.296875 43.53125 35.828125 
Q 39.65625 40.375 33.015625 40.375 
z
M 52.59375 71.296875 
L 52.59375 62.3125 
Q 48.875 64.0625 45.09375 64.984375 
Q 41.3125 65.921875 37.59375 65.921875 
Q 27.828125 65.921875 22.671875 59.328125 
Q 17.53125 52.734375 16.796875 39.40625 
Q 19.671875 43.65625 24.015625 45.921875 
Q 28.375 48.1875 33.59375 48.1875 
Q 44.578125 48.1875 50.953125 41.515625 
Q 57.328125 34.859375 57.328125 23.390625 
Q 57.328125 12.15625 50.6875 5.359375 
Q 44.046875 -1.421875 33.015625 -1.421875 
Q 20.359375 -1.421875 13.671875 8.265625 
Q 6.984375 17.96875 6.984375 36.375 
Q 6.984375 53.65625 15.1875 63.9375 
Q 23.390625 74.21875 37.203125 74.21875 
Q 40.921875 74.21875 44.703125 73.484375 
Q 48.484375 72.75 52.59375 71.296875 
z
" id="DejaVuSans-54"/>
      </defs>
      <g transform="translate(20.878125 155.719219)scale(0.1 -0.1)">
       <use xlink:href="#DejaVuSans-48"/>
       <use x="63.623047" xlink:href="#DejaVuSans-46"/>
       <use x="95.410156" xlink:href="#DejaVuSans-54"/>
      </g>
     </g>
    </g>
    <g id="ytick_5">
     <g id="line2d_12">
      <g>
       <use style="stroke:#000000;stroke-width:0.8;" x="43.78125" xlink:href="#meb03d5cc2d" y="97.56"/>
      </g>
     </g>
     <g id="text_13">
      <!-- 0.8 -->
      <defs>
       <path d="M 31.78125 34.625 
Q 24.75 34.625 20.71875 30.859375 
Q 16.703125 27.09375 16.703125 20.515625 
Q 16.703125 13.921875 20.71875 10.15625 
Q 24.75 6.390625 31.78125 6.390625 
Q 38.8125 6.390625 42.859375 10.171875 
Q 46.921875 13.96875 46.921875 20.515625 
Q 46.921875 27.09375 42.890625 30.859375 
Q 38.875 34.625 31.78125 34.625 
z
M 21.921875 38.8125 
Q 15.578125 40.375 12.03125 44.71875 
Q 8.5 49.078125 8.5 55.328125 
Q 8.5 64.0625 14.71875 69.140625 
Q 20.953125 74.21875 31.78125 74.21875 
Q 42.671875 74.21875 48.875 69.140625 
Q 55.078125 64.0625 55.078125 55.328125 
Q 55.078125 49.078125 51.53125 44.71875 
Q 48 40.375 41.703125 38.8125 
Q 48.828125 37.15625 52.796875 32.3125 
Q 56.78125 27.484375 56.78125 20.515625 
Q 56.78125 9.90625 50.3125 4.234375 
Q 43.84375 -1.421875 31.78125 -1.421875 
Q 19.734375 -1.421875 13.25 4.234375 
Q 6.78125 9.90625 6.78125 20.515625 
Q 6.78125 27.484375 10.78125 32.3125 
Q 14.796875 37.15625 21.921875 38.8125 
z
M 18.3125 54.390625 
Q 18.3125 48.734375 21.84375 45.5625 
Q 25.390625 42.390625 31.78125 42.390625 
Q 38.140625 42.390625 41.71875 45.5625 
Q 45.3125 48.734375 45.3125 54.390625 
Q 45.3125 60.0625 41.71875 63.234375 
Q 38.140625 66.40625 31.78125 66.40625 
Q 25.390625 66.40625 21.84375 63.234375 
Q 18.3125 60.0625 18.3125 54.390625 
z
" id="DejaVuSans-56"/>
      </defs>
      <g transform="translate(20.878125 101.359219)scale(0.1 -0.1)">
       <use xlink:href="#DejaVuSans-48"/>
       <use x="63.623047" xlink:href="#DejaVuSans-46"/>
       <use x="95.410156" xlink:href="#DejaVuSans-56"/>
      </g>
     </g>
    </g>
    <g id="ytick_6">
     <g id="line2d_13">
      <g>
       <use style="stroke:#000000;stroke-width:0.8;" x="43.78125" xlink:href="#meb03d5cc2d" y="43.2"/>
      </g>
     </g>
     <g id="text_14">
      <!-- 1.0 -->
      <g transform="translate(20.878125 46.999219)scale(0.1 -0.1)">
       <use xlink:href="#DejaVuSans-49"/>
       <use x="63.623047" xlink:href="#DejaVuSans-46"/>
       <use x="95.410156" xlink:href="#DejaVuSans-48"/>
      </g>
     </g>
    </g>
    <g id="text_15">
     <!-- Proportion -->
     <defs>
      <path d="M 19.671875 64.796875 
L 19.671875 37.40625 
L 32.078125 37.40625 
Q 38.96875 37.40625 42.71875 40.96875 
Q 46.484375 44.53125 46.484375 51.125 
Q 46.484375 57.671875 42.71875 61.234375 
Q 38.96875 64.796875 32.078125 64.796875 
z
M 9.8125 72.90625 
L 32.078125 72.90625 
Q 44.34375 72.90625 50.609375 67.359375 
Q 56.890625 61.8125 56.890625 51.125 
Q 56.890625 40.328125 50.609375 34.8125 
Q 44.34375 29.296875 32.078125 29.296875 
L 19.671875 29.296875 
L 19.671875 0 
L 9.8125 0 
z
" id="DejaVuSans-80"/>
      <path d="M 41.109375 46.296875 
Q 39.59375 47.171875 37.8125 47.578125 
Q 36.03125 48 33.890625 48 
Q 26.265625 48 22.1875 43.046875 
Q 18.109375 38.09375 18.109375 28.8125 
L 18.109375 0 
L 9.078125 0 
L 9.078125 54.6875 
L 18.109375 54.6875 
L 18.109375 46.1875 
Q 20.953125 51.171875 25.484375 53.578125 
Q 30.03125 56 36.53125 56 
Q 37.453125 56 38.578125 55.875 
Q 39.703125 55.765625 41.0625 55.515625 
z
" id="DejaVuSans-114"/>
      <path d="M 30.609375 48.390625 
Q 23.390625 48.390625 19.1875 42.75 
Q 14.984375 37.109375 14.984375 27.296875 
Q 14.984375 17.484375 19.15625 11.84375 
Q 23.34375 6.203125 30.609375 6.203125 
Q 37.796875 6.203125 41.984375 11.859375 
Q 46.1875 17.53125 46.1875 27.296875 
Q 46.1875 37.015625 41.984375 42.703125 
Q 37.796875 48.390625 30.609375 48.390625 
z
M 30.609375 56 
Q 42.328125 56 49.015625 48.375 
Q 55.71875 40.765625 55.71875 27.296875 
Q 55.71875 13.875 49.015625 6.21875 
Q 42.328125 -1.421875 30.609375 -1.421875 
Q 18.84375 -1.421875 12.171875 6.21875 
Q 5.515625 13.875 5.515625 27.296875 
Q 5.515625 40.765625 12.171875 48.375 
Q 18.84375 56 30.609375 56 
z
" id="DejaVuSans-111"/>
      <path d="M 18.109375 8.203125 
L 18.109375 -20.796875 
L 9.078125 -20.796875 
L 9.078125 54.6875 
L 18.109375 54.6875 
L 18.109375 46.390625 
Q 20.953125 51.265625 25.265625 53.625 
Q 29.59375 56 35.59375 56 
Q 45.5625 56 51.78125 48.09375 
Q 58.015625 40.1875 58.015625 27.296875 
Q 58.015625 14.40625 51.78125 6.484375 
Q 45.5625 -1.421875 35.59375 -1.421875 
Q 29.59375 -1.421875 25.265625 0.953125 
Q 20.953125 3.328125 18.109375 8.203125 
z
M 48.6875 27.296875 
Q 48.6875 37.203125 44.609375 42.84375 
Q 40.53125 48.484375 33.40625 48.484375 
Q 26.265625 48.484375 22.1875 42.84375 
Q 18.109375 37.203125 18.109375 27.296875 
Q 18.109375 17.390625 22.1875 11.75 
Q 26.265625 6.109375 33.40625 6.109375 
Q 40.53125 6.109375 44.609375 11.75 
Q 48.6875 17.390625 48.6875 27.296875 
z
" id="DejaVuSans-112"/>
      <path d="M 18.3125 70.21875 
L 18.3125 54.6875 
L 36.8125 54.6875 
L 36.8125 47.703125 
L 18.3125 47.703125 
L 18.3125 18.015625 
Q 18.3125 11.328125 20.140625 9.421875 
Q 21.96875 7.515625 27.59375 7.515625 
L 36.8125 7.515625 
L 36.8125 0 
L 27.59375 0 
Q 17.1875 0 13.234375 3.875 
Q 9.28125 7.765625 9.28125 18.015625 
L 9.28125 47.703125 
L 2.6875 47.703125 
L 2.6875 54.6875 
L 9.28125 54.6875 
L 9.28125 70.21875 
z
" id="DejaVuSans-116"/>
      <path d="M 9.421875 54.6875 
L 18.40625 54.6875 
L 18.40625 0 
L 9.421875 0 
z
M 9.421875 75.984375 
L 18.40625 75.984375 
L 18.40625 64.59375 
L 9.421875 64.59375 
z
" id="DejaVuSans-105"/>
     </defs>
     <g transform="translate(14.798438 204.896094)rotate(-90)scale(0.1 -0.1)">
      <use xlink:href="#DejaVuSans-80"/>
      <use x="58.552734" xlink:href="#DejaVuSans-114"/>
      <use x="97.416016" xlink:href="#DejaVuSans-111"/>
      <use x="158.597656" xlink:href="#DejaVuSans-112"/>
      <use x="222.074219" xlink:href="#DejaVuSans-111"/>
      <use x="283.255859" xlink:href="#DejaVuSans-114"/>
      <use x="324.369141" xlink:href="#DejaVuSans-116"/>
      <use x="363.578125" xlink:href="#DejaVuSans-105"/>
      <use x="391.361328" xlink:href="#DejaVuSans-111"/>
      <use x="452.542969" xlink:href="#DejaVuSans-110"/>
     </g>
    </g>
   </g>
   <g id="line2d_14">
    <path clip-path="url(#pe0870c736b)" d="M 54.97109 315 
L 54.97109 303.656093 
L 55.72716 303.656093 
L 55.72716 292.765943 
L 56.48323 292.765943 
L 56.48323 285.052087 
L 57.2393 285.052087 
L 57.2393 281.875793 
L 57.995371 281.875793 
L 57.995371 276.430718 
L 58.751441 276.430718 
L 58.751441 265.086811 
L 59.507511 265.086811 
L 59.507511 257.826711 
L 60.263581 257.826711 
L 60.263581 248.29783 
L 61.019652 248.29783 
L 61.019652 239.676461 
L 61.775722 239.676461 
L 61.775722 232.870117 
L 62.531792 232.870117 
L 62.531792 230.147579 
L 63.287862 230.147579 
L 63.287862 228.786311 
L 64.043932 228.786311 
L 64.043932 223.794992 
L 64.800003 223.794992 
L 64.800003 215.627379 
L 65.556073 215.627379 
L 65.556073 210.182304 
L 66.312143 210.182304 
L 66.312143 203.37596 
L 67.068213 203.37596 
L 67.068213 199.74591 
L 67.824284 199.74591 
L 67.824284 198.838397 
L 68.580354 198.838397 
L 68.580354 196.569616 
L 69.336424 196.569616 
L 69.336424 192.032053 
L 70.092494 192.032053 
L 70.092494 186.133222 
L 70.848565 186.133222 
L 70.848565 182.503172 
L 71.604635 182.503172 
L 71.604635 176.150584 
L 72.360705 176.150584 
L 72.360705 171.159265 
L 73.116775 171.159265 
L 73.116775 168.436728 
L 73.872846 168.436728 
L 73.872846 165.71419 
L 74.628916 165.71419 
L 74.628916 159.815359 
L 75.384986 159.815359 
L 75.384986 156.185309 
L 76.141056 156.185309 
L 76.141056 150.740234 
L 76.897127 150.740234 
L 76.897127 146.656427 
L 77.653197 146.656427 
L 77.653197 142.118865 
L 78.409267 142.118865 
L 78.409267 138.942571 
L 79.165337 138.942571 
L 79.165337 136.67379 
L 79.921408 136.67379 
L 79.921408 134.858765 
L 80.677478 134.858765 
L 80.677478 133.951252 
L 81.433548 133.951252 
L 81.433548 133.04374 
L 82.189618 133.04374 
L 82.189618 131.228715 
L 82.945689 131.228715 
L 82.945689 128.052421 
L 83.701759 128.052421 
L 83.701759 123.514858 
L 84.457829 123.514858 
L 84.457829 121.699833 
L 85.213899 121.699833 
L 85.213899 117.16227 
L 85.969969 117.16227 
L 85.969969 116.254758 
L 86.72604 116.254758 
L 86.72604 113.985977 
L 87.48211 113.985977 
L 87.48211 112.624708 
L 88.23818 112.624708 
L 88.23818 112.170952 
L 89.750321 112.170952 
L 89.750321 110.809683 
L 90.506391 110.809683 
L 90.506391 107.633389 
L 91.262461 107.633389 
L 91.262461 105.818364 
L 92.018531 105.818364 
L 92.018531 102.188314 
L 92.774602 102.188314 
L 92.774602 98.558264 
L 93.530672 98.558264 
L 93.530672 97.650751 
L 95.042812 97.650751 
L 95.042812 96.289482 
L 95.798883 96.289482 
L 95.798883 93.566945 
L 96.554953 93.566945 
L 96.554953 93.113189 
L 97.311023 93.113189 
L 97.311023 89.936895 
L 98.067093 89.936895 
L 98.067093 86.306845 
L 98.823164 86.306845 
L 98.823164 84.038063 
L 101.091374 84.038063 
L 101.091374 79.954257 
L 102.603515 79.954257 
L 102.603515 77.23172 
L 103.359585 77.23172 
L 103.359585 75.416694 
L 104.115655 75.416694 
L 104.115655 74.962938 
L 105.627796 74.962938 
L 105.627796 74.055426 
L 106.383866 74.055426 
L 106.383866 71.786644 
L 107.139936 71.786644 
L 107.139936 69.517863 
L 107.896006 69.517863 
L 107.896006 67.702838 
L 108.652077 67.702838 
L 108.652077 67.249082 
L 109.408147 67.249082 
L 109.408147 66.795326 
L 110.920287 66.795326 
L 110.920287 66.341569 
L 111.676358 66.341569 
L 111.676358 64.526544 
L 112.432428 64.526544 
L 112.432428 62.711519 
L 113.188498 62.711519 
L 113.188498 61.804007 
L 114.700639 61.804007 
L 114.700639 59.535225 
L 116.212779 59.535225 
L 116.212779 59.081469 
L 116.968849 59.081469 
L 116.968849 58.173957 
L 117.72492 58.173957 
L 117.72492 57.7202 
L 118.48099 57.7202 
L 118.48099 56.812688 
L 119.23706 56.812688 
L 119.23706 55.451419 
L 119.99313 55.451419 
L 119.99313 54.09015 
L 120.749201 54.09015 
L 120.749201 53.182638 
L 122.261341 53.182638 
L 122.261341 52.275125 
L 123.017411 52.275125 
L 123.017411 51.821369 
L 124.529552 51.821369 
L 124.529552 51.367613 
L 125.285622 51.367613 
L 125.285622 50.006344 
L 126.041692 50.006344 
L 126.041692 49.552588 
L 127.553833 49.552588 
L 127.553833 49.098831 
L 128.309903 49.098831 
L 128.309903 48.191319 
L 131.334184 48.191319 
L 131.334184 47.737563 
L 132.090254 47.737563 
L 132.090254 47.283806 
L 132.846324 47.283806 
L 132.846324 46.83005 
L 133.602395 46.83005 
L 133.602395 46.376294 
L 134.358465 46.376294 
L 134.358465 45.468781 
L 135.114535 45.468781 
L 135.114535 44.561269 
L 138.894886 44.561269 
L 138.894886 43.653756 
L 140.407027 43.653756 
L 140.407027 43.2 
L 140.407027 43.2 
" style="fill:none;stroke:#1ac938;stroke-linecap:square;stroke-width:1.5;"/>
   </g>
   <g id="line2d_15">
    <path clip-path="url(#pe0870c736b)" d="M 148.7238 315 
L 148.7238 313.682714 
L 149.47987 313.682714 
L 149.47987 313.243619 
L 150.99201 313.243619 
L 150.99201 312.365428 
L 151.74808 312.365428 
L 151.74808 311.487237 
L 152.504151 311.487237 
L 152.504151 311.048142 
L 153.260221 311.048142 
L 153.260221 309.730856 
L 154.016291 309.730856 
L 154.016291 306.657189 
L 154.772361 306.657189 
L 154.772361 305.339903 
L 155.528432 305.339903 
L 155.528432 304.461712 
L 156.284502 304.461712 
L 156.284502 303.144426 
L 157.040572 303.144426 
L 157.040572 300.070759 
L 157.796642 300.070759 
L 157.796642 298.314378 
L 159.308783 298.314378 
L 159.308783 296.118901 
L 160.064853 296.118901 
L 160.064853 295.679806 
L 160.820923 295.679806 
L 160.820923 293.923425 
L 162.333064 293.923425 
L 162.333064 291.288853 
L 163.089134 291.288853 
L 163.089134 290.849758 
L 163.845204 290.849758 
L 163.845204 289.971567 
L 164.601275 289.971567 
L 164.601275 289.093376 
L 165.357345 289.093376 
L 165.357345 286.458805 
L 166.113415 286.458805 
L 166.113415 285.141519 
L 166.869485 285.141519 
L 166.869485 283.824233 
L 167.625556 283.824233 
L 167.625556 282.067851 
L 168.381626 282.067851 
L 168.381626 281.628756 
L 169.137696 281.628756 
L 169.137696 279.872375 
L 169.893766 279.872375 
L 169.893766 277.237803 
L 170.649837 277.237803 
L 170.649837 276.359612 
L 171.405907 276.359612 
L 171.405907 270.651373 
L 172.161977 270.651373 
L 172.161977 268.016801 
L 172.918047 268.016801 
L 172.918047 265.382229 
L 174.430188 265.382229 
L 174.430188 263.625848 
L 175.186258 263.625848 
L 175.186258 261.430372 
L 175.942328 261.430372 
L 175.942328 260.113086 
L 177.454469 260.113086 
L 177.454469 257.039418 
L 178.210539 257.039418 
L 178.210539 255.283037 
L 180.47875 255.283037 
L 180.47875 251.770275 
L 181.23482 251.770275 
L 181.23482 247.379321 
L 181.99089 247.379321 
L 181.99089 246.062036 
L 182.74696 246.062036 
L 182.74696 244.305654 
L 183.503031 244.305654 
L 183.503031 240.792892 
L 184.259101 240.792892 
L 184.259101 237.280129 
L 185.015171 237.280129 
L 185.015171 236.401939 
L 185.771241 236.401939 
L 185.771241 234.206462 
L 186.527312 234.206462 
L 186.527312 232.010985 
L 187.283382 232.010985 
L 187.283382 228.937318 
L 188.039452 228.937318 
L 188.039452 227.620032 
L 188.795522 227.620032 
L 188.795522 226.302746 
L 189.551593 226.302746 
L 189.551593 225.863651 
L 191.063733 225.863651 
L 191.063733 223.668174 
L 191.819803 223.668174 
L 191.819803 220.594507 
L 192.575874 220.594507 
L 192.575874 216.203554 
L 193.331944 216.203554 
L 193.331944 213.568982 
L 194.088014 213.568982 
L 194.088014 212.690792 
L 194.844084 212.690792 
L 194.844084 211.812601 
L 195.600154 211.812601 
L 195.600154 210.05622 
L 196.356225 210.05622 
L 196.356225 207.421648 
L 197.112295 207.421648 
L 197.112295 204.787076 
L 197.868365 204.787076 
L 197.868365 201.713409 
L 199.380506 201.713409 
L 199.380506 199.957027 
L 200.136576 199.957027 
L 200.136576 199.078837 
L 200.892646 199.078837 
L 200.892646 197.761551 
L 201.648716 197.761551 
L 201.648716 194.687884 
L 202.404787 194.687884 
L 202.404787 192.053312 
L 203.160857 192.053312 
L 203.160857 188.979645 
L 203.916927 188.979645 
L 203.916927 187.223263 
L 204.672997 187.223263 
L 204.672997 184.588691 
L 205.429068 184.588691 
L 205.429068 183.271405 
L 206.185138 183.271405 
L 206.185138 181.95412 
L 206.941208 181.95412 
L 206.941208 180.197738 
L 207.697278 180.197738 
L 207.697278 178.441357 
L 208.453349 178.441357 
L 208.453349 176.684976 
L 209.209419 176.684976 
L 209.209419 174.928595 
L 209.965489 174.928595 
L 209.965489 174.050404 
L 211.47763 174.050404 
L 211.47763 173.611309 
L 212.2337 173.611309 
L 212.2337 171.854927 
L 212.98977 171.854927 
L 212.98977 167.463974 
L 213.74584 167.463974 
L 213.74584 164.829402 
L 214.501911 164.829402 
L 214.501911 162.633926 
L 215.257981 162.633926 
L 215.257981 161.755735 
L 216.014051 161.755735 
L 216.014051 160.438449 
L 216.770121 160.438449 
L 216.770121 159.560258 
L 217.526191 159.560258 
L 217.526191 157.364782 
L 218.282262 157.364782 
L 218.282262 153.852019 
L 219.038332 153.852019 
L 219.038332 153.412924 
L 219.794402 153.412924 
L 219.794402 152.095638 
L 221.306543 152.095638 
L 221.306543 151.217447 
L 222.818683 151.217447 
L 222.818683 149.900162 
L 223.574753 149.900162 
L 223.574753 148.582876 
L 224.330824 148.582876 
L 224.330824 146.387399 
L 225.086894 146.387399 
L 225.086894 145.070113 
L 228.111175 145.070113 
L 228.111175 142.874637 
L 228.867245 142.874637 
L 228.867245 141.118255 
L 229.623315 141.118255 
L 229.623315 140.240065 
L 230.379386 140.240065 
L 230.379386 138.483683 
L 231.135456 138.483683 
L 231.135456 135.410016 
L 231.891526 135.410016 
L 231.891526 134.09273 
L 232.647596 134.09273 
L 232.647596 133.21454 
L 233.403667 133.21454 
L 233.403667 129.262682 
L 234.159737 129.262682 
L 234.159737 127.5063 
L 234.915807 127.5063 
L 234.915807 125.749919 
L 235.671877 125.749919 
L 235.671877 124.432633 
L 236.427947 124.432633 
L 236.427947 121.358966 
L 238.696158 121.358966 
L 238.696158 117.407108 
L 239.452228 117.407108 
L 239.452228 114.772536 
L 240.208299 114.772536 
L 240.208299 113.894346 
L 240.964369 113.894346 
L 240.964369 112.137964 
L 241.720439 112.137964 
L 241.720439 111.259774 
L 242.476509 111.259774 
L 242.476509 110.820679 
L 243.98865 110.820679 
L 243.98865 108.625202 
L 244.74472 108.625202 
L 244.74472 105.551535 
L 245.50079 105.551535 
L 245.50079 103.795153 
L 246.256861 103.795153 
L 246.256861 103.356058 
L 247.012931 103.356058 
L 247.012931 101.160582 
L 247.769001 101.160582 
L 247.769001 100.721486 
L 249.281142 100.721486 
L 249.281142 98.086914 
L 250.037212 98.086914 
L 250.037212 95.891438 
L 250.793282 95.891438 
L 250.793282 92.378675 
L 251.549352 92.378675 
L 251.549352 91.061389 
L 252.305423 91.061389 
L 252.305423 87.548627 
L 253.061493 87.548627 
L 253.061493 86.231341 
L 253.817563 86.231341 
L 253.817563 84.914055 
L 254.573633 84.914055 
L 254.573633 80.523102 
L 255.329704 80.523102 
L 255.329704 79.644911 
L 256.085774 79.644911 
L 256.085774 77.010339 
L 256.841844 77.010339 
L 256.841844 75.693053 
L 257.597914 75.693053 
L 257.597914 74.814863 
L 259.110055 74.814863 
L 259.110055 73.936672 
L 259.866125 73.936672 
L 259.866125 71.3021 
L 260.622195 71.3021 
L 260.622195 70.42391 
L 261.378265 70.42391 
L 261.378265 69.545719 
L 262.134336 69.545719 
L 262.134336 66.911147 
L 262.890406 66.911147 
L 262.890406 65.154766 
L 264.402546 65.154766 
L 264.402546 64.276575 
L 265.158617 64.276575 
L 265.158617 62.081099 
L 265.914687 62.081099 
L 265.914687 60.763813 
L 266.670757 60.763813 
L 266.670757 58.129241 
L 267.426827 58.129241 
L 267.426827 56.372859 
L 268.182898 56.372859 
L 268.182898 55.933764 
L 268.938968 55.933764 
L 268.938968 55.494669 
L 269.695038 55.494669 
L 269.695038 55.055574 
L 270.451108 55.055574 
L 270.451108 51.981906 
L 271.207179 51.981906 
L 271.207179 51.542811 
L 271.963249 51.542811 
L 271.963249 50.225525 
L 272.719319 50.225525 
L 272.719319 49.347334 
L 273.475389 49.347334 
L 273.475389 48.908239 
L 275.7436 48.908239 
L 275.7436 47.590953 
L 276.49967 47.590953 
L 276.49967 47.151858 
L 277.255741 47.151858 
L 277.255741 44.956381 
L 278.011811 44.956381 
L 278.011811 44.517286 
L 278.767881 44.517286 
L 278.767881 43.2 
L 278.767881 43.2 
" style="fill:none;stroke:#ff7c00;stroke-linecap:square;stroke-width:1.5;"/>
   </g>
   <g id="line2d_16">
    <path clip-path="url(#pe0870c736b)" d="M 54.97109 315 
L 54.97109 309.277895 
L 55.72716 309.277895 
L 55.72716 302.840526 
L 56.48323 302.840526 
L 56.48323 299.621842 
L 57.2393 299.621842 
L 57.2393 297.476053 
L 57.995371 297.476053 
L 57.995371 295.151447 
L 58.751441 295.151447 
L 58.751441 291.038684 
L 59.507511 291.038684 
L 59.507511 286.389474 
L 60.263581 286.389474 
L 60.263581 282.097895 
L 61.019652 282.097895 
L 61.019652 276.554605 
L 61.775722 276.554605 
L 61.775722 272.084211 
L 62.531792 272.084211 
L 62.531792 270.474868 
L 63.287862 270.474868 
L 63.287862 269.044342 
L 64.043932 269.044342 
L 64.043932 263.679868 
L 64.800003 263.679868 
L 64.800003 259.745921 
L 65.556073 259.745921 
L 65.556073 254.560263 
L 66.312143 254.560263 
L 66.312143 249.016974 
L 67.068213 249.016974 
L 67.068213 242.400789 
L 67.824284 242.400789 
L 67.824284 239.897368 
L 68.580354 239.897368 
L 68.580354 236.678684 
L 69.336424 236.678684 
L 69.336424 230.777763 
L 70.092494 230.777763 
L 70.092494 225.770921 
L 70.848565 225.770921 
L 70.848565 220.764079 
L 71.604635 220.764079 
L 71.604635 215.936053 
L 72.360705 215.936053 
L 72.360705 212.180921 
L 73.116775 212.180921 
L 73.116775 210.750395 
L 73.872846 210.750395 
L 73.872846 208.425789 
L 74.628916 208.425789 
L 74.628916 203.776579 
L 75.384986 203.776579 
L 75.384986 200.915526 
L 76.141056 200.915526 
L 76.141056 196.266316 
L 76.897127 196.266316 
L 76.897127 192.69 
L 77.653197 192.69 
L 77.653197 189.113684 
L 78.409267 189.113684 
L 78.409267 188.219605 
L 79.165337 188.219605 
L 79.165337 186.967895 
L 79.921408 186.967895 
L 79.921408 182.4975 
L 80.677478 182.4975 
L 80.677478 178.742368 
L 81.433548 178.742368 
L 81.433548 176.596579 
L 82.189618 176.596579 
L 82.189618 173.556711 
L 82.945689 173.556711 
L 82.945689 169.980395 
L 83.701759 169.980395 
L 83.701759 168.549868 
L 84.457829 168.549868 
L 84.457829 167.834605 
L 85.213899 167.834605 
L 85.213899 165.152368 
L 85.969969 165.152368 
L 85.969969 161.754868 
L 86.72604 161.754868 
L 86.72604 158.715 
L 87.48211 158.715 
L 87.48211 155.138684 
L 88.23818 155.138684 
L 88.23818 152.992895 
L 88.99425 152.992895 
L 88.99425 152.635263 
L 89.750321 152.635263 
L 89.750321 151.741184 
L 90.506391 151.741184 
L 90.506391 147.986053 
L 91.262461 147.986053 
L 91.262461 144.052105 
L 92.018531 144.052105 
L 92.018531 141.369868 
L 92.774602 141.369868 
L 92.774602 138.508816 
L 93.530672 138.508816 
L 93.530672 135.826579 
L 94.286742 135.826579 
L 94.286742 134.217237 
L 95.042812 134.217237 
L 95.042812 133.859605 
L 95.798883 133.859605 
L 95.798883 129.925658 
L 96.554953 129.925658 
L 96.554953 127.779868 
L 97.311023 127.779868 
L 97.311023 125.276447 
L 98.067093 125.276447 
L 98.067093 122.236579 
L 98.823164 122.236579 
L 98.823164 119.196711 
L 99.579234 119.196711 
L 99.579234 118.660263 
L 100.335304 118.660263 
L 100.335304 117.587368 
L 101.091374 117.587368 
L 101.091374 112.938158 
L 101.847445 112.938158 
L 101.847445 109.361842 
L 102.603515 109.361842 
L 102.603515 107.037237 
L 103.359585 107.037237 
L 103.359585 105.427895 
L 104.115655 105.427895 
L 104.115655 103.639737 
L 104.871726 103.639737 
L 104.871726 102.745658 
L 105.627796 102.745658 
L 105.627796 102.030395 
L 106.383866 102.030395 
L 106.383866 98.096447 
L 107.139936 98.096447 
L 107.139936 95.056579 
L 107.896006 95.056579 
L 107.896006 93.268421 
L 108.652077 93.268421 
L 108.652077 90.049737 
L 109.408147 90.049737 
L 109.408147 86.652237 
L 110.164217 86.652237 
L 110.164217 85.400526 
L 110.920287 85.400526 
L 110.920287 83.97 
L 111.676358 83.97 
L 111.676358 81.287763 
L 112.432428 81.287763 
L 112.432428 79.320789 
L 113.188498 79.320789 
L 113.188498 77.890263 
L 113.944568 77.890263 
L 113.944568 76.459737 
L 114.700639 76.459737 
L 114.700639 75.208026 
L 115.456709 75.208026 
L 115.456709 75.029211 
L 116.212779 75.029211 
L 116.212779 73.956316 
L 116.968849 73.956316 
L 116.968849 71.989342 
L 117.72492 71.989342 
L 117.72492 70.558816 
L 118.48099 70.558816 
L 118.48099 69.307105 
L 119.23706 69.307105 
L 119.23706 67.518947 
L 119.99313 67.518947 
L 119.99313 66.446053 
L 120.749201 66.446053 
L 120.749201 65.551974 
L 121.505271 65.551974 
L 121.505271 64.836711 
L 122.261341 64.836711 
L 122.261341 63.406184 
L 123.017411 63.406184 
L 123.017411 62.154474 
L 123.773482 62.154474 
L 123.773482 60.902763 
L 124.529552 60.902763 
L 124.529552 59.472237 
L 125.285622 59.472237 
L 125.285622 57.684079 
L 126.041692 57.684079 
L 126.041692 57.326447 
L 126.797763 57.326447 
L 126.797763 56.968816 
L 127.553833 56.968816 
L 127.553833 55.717105 
L 128.309903 55.717105 
L 128.309903 55.001842 
L 129.065973 55.001842 
L 129.065973 53.928947 
L 129.822043 53.928947 
L 129.822043 53.750132 
L 130.578114 53.750132 
L 130.578114 53.213684 
L 131.334184 53.213684 
L 131.334184 52.319605 
L 132.090254 52.319605 
L 132.090254 51.961974 
L 132.846324 51.961974 
L 132.846324 50.531447 
L 133.602395 50.531447 
L 133.602395 48.206842 
L 134.358465 48.206842 
L 134.358465 47.312763 
L 135.114535 47.312763 
L 135.114535 46.5975 
L 135.870605 46.5975 
L 135.870605 45.882237 
L 136.626676 45.882237 
L 136.626676 45.703421 
L 137.382746 45.703421 
L 137.382746 44.988158 
L 138.138816 44.988158 
L 138.138816 43.2 
L 138.138816 43.2 
" style="fill:none;stroke:#023eff;stroke-linecap:square;stroke-width:1.5;"/>
   </g>
   <g id="patch_3">
    <path d="M 43.78125 315 
L 43.78125 43.2 
" style="fill:none;stroke:#000000;stroke-linecap:square;stroke-linejoin:miter;stroke-width:0.8;"/>
   </g>
   <g id="patch_4">
    <path d="M 289.957721 315 
L 289.957721 43.2 
" style="fill:none;stroke:#000000;stroke-linecap:square;stroke-linejoin:miter;stroke-width:0.8;"/>
   </g>
   <g id="patch_5">
    <path d="M 43.78125 315 
L 289.957721 315 
" style="fill:none;stroke:#000000;stroke-linecap:square;stroke-linejoin:miter;stroke-width:0.8;"/>
   </g>
   <g id="patch_6">
    <path d="M 43.78125 43.2 
L 289.957721 43.2 
" style="fill:none;stroke:#000000;stroke-linecap:square;stroke-linejoin:miter;stroke-width:0.8;"/>
   </g>
   <g id="legend_1">
    <g id="patch_7">
     <path d="M 244.595221 310 
L 282.957721 310 
Q 284.957721 310 284.957721 308 
L 284.957721 250.2875 
Q 284.957721 248.2875 282.957721 248.2875 
L 244.595221 248.2875 
Q 242.595221 248.2875 242.595221 250.2875 
L 242.595221 308 
Q 242.595221 310 244.595221 310 
z
" style="fill:#ffffff;opacity:0.8;stroke:#cccccc;stroke-linejoin:miter;"/>
    </g>
    <g id="text_16">
     <!-- cluster -->
     <defs>
      <path d="M 9.421875 75.984375 
L 18.40625 75.984375 
L 18.40625 0 
L 9.421875 0 
z
" id="DejaVuSans-108"/>
      <path d="M 8.5 21.578125 
L 8.5 54.6875 
L 17.484375 54.6875 
L 17.484375 21.921875 
Q 17.484375 14.15625 20.5 10.265625 
Q 23.53125 6.390625 29.59375 6.390625 
Q 36.859375 6.390625 41.078125 11.03125 
Q 45.3125 15.671875 45.3125 23.6875 
L 45.3125 54.6875 
L 54.296875 54.6875 
L 54.296875 0 
L 45.3125 0 
L 45.3125 8.40625 
Q 42.046875 3.421875 37.71875 1 
Q 33.40625 -1.421875 27.6875 -1.421875 
Q 18.265625 -1.421875 13.375 4.4375 
Q 8.5 10.296875 8.5 21.578125 
z
M 31.109375 56 
z
" id="DejaVuSans-117"/>
      <path d="M 44.28125 53.078125 
L 44.28125 44.578125 
Q 40.484375 46.53125 36.375 47.5 
Q 32.28125 48.484375 27.875 48.484375 
Q 21.1875 48.484375 17.84375 46.4375 
Q 14.5 44.390625 14.5 40.28125 
Q 14.5 37.15625 16.890625 35.375 
Q 19.28125 33.59375 26.515625 31.984375 
L 29.59375 31.296875 
Q 39.15625 29.25 43.1875 25.515625 
Q 47.21875 21.78125 47.21875 15.09375 
Q 47.21875 7.46875 41.1875 3.015625 
Q 35.15625 -1.421875 24.609375 -1.421875 
Q 20.21875 -1.421875 15.453125 -0.5625 
Q 10.6875 0.296875 5.421875 2 
L 5.421875 11.28125 
Q 10.40625 8.6875 15.234375 7.390625 
Q 20.0625 6.109375 24.8125 6.109375 
Q 31.15625 6.109375 34.5625 8.28125 
Q 37.984375 10.453125 37.984375 14.40625 
Q 37.984375 18.0625 35.515625 20.015625 
Q 33.0625 21.96875 24.703125 23.78125 
L 21.578125 24.515625 
Q 13.234375 26.265625 9.515625 29.90625 
Q 5.8125 33.546875 5.8125 39.890625 
Q 5.8125 47.609375 11.28125 51.796875 
Q 16.75 56 26.8125 56 
Q 31.78125 56 36.171875 55.265625 
Q 40.578125 54.546875 44.28125 53.078125 
z
" id="DejaVuSans-115"/>
     </defs>
     <g transform="translate(246.772564 259.885937)scale(0.1 -0.1)">
      <use xlink:href="#DejaVuSans-99"/>
      <use x="54.980469" xlink:href="#DejaVuSans-108"/>
      <use x="82.763672" xlink:href="#DejaVuSans-117"/>
      <use x="146.142578" xlink:href="#DejaVuSans-115"/>
      <use x="198.242188" xlink:href="#DejaVuSans-116"/>
      <use x="237.451172" xlink:href="#DejaVuSans-101"/>
      <use x="298.974609" xlink:href="#DejaVuSans-114"/>
     </g>
    </g>
    <g id="line2d_17">
     <path d="M 246.595221 271.064062 
L 266.595221 271.064062 
" style="fill:none;stroke:#023eff;stroke-linecap:square;stroke-width:1.5;"/>
    </g>
    <g id="line2d_18"/>
    <g id="text_17">
     <!-- 0 -->
     <g transform="translate(274.595221 274.564062)scale(0.1 -0.1)">
      <use xlink:href="#DejaVuSans-48"/>
     </g>
    </g>
    <g id="line2d_19">
     <path d="M 246.595221 285.742187 
L 266.595221 285.742187 
" style="fill:none;stroke:#ff7c00;stroke-linecap:square;stroke-width:1.5;"/>
    </g>
    <g id="line2d_20"/>
    <g id="text_18">
     <!-- 1 -->
     <g transform="translate(274.595221 289.242187)scale(0.1 -0.1)">
      <use xlink:href="#DejaVuSans-49"/>
     </g>
    </g>
    <g id="line2d_21">
     <path d="M 246.595221 300.420312 
L 266.595221 300.420312 
" style="fill:none;stroke:#1ac938;stroke-linecap:square;stroke-width:1.5;"/>
    </g>
    <g id="line2d_22"/>
    <g id="text_19">
     <!-- 2 -->
     <g transform="translate(274.595221 303.920312)scale(0.1 -0.1)">
      <use xlink:href="#DejaVuSans-50"/>
     </g>
    </g>
   </g>
  </g>
  <g id="axes_2">
   <g id="patch_8">
    <path d="M 339.193015 315 
L 585.369485 315 
L 585.369485 43.2 
L 339.193015 43.2 
z
" style="fill:#ffffff;"/>
   </g>
   <g id="patch_9">
    <path clip-path="url(#p88147d3dcc)" d="M 350.382854 315 
L 356.777048 315 
L 356.777048 115.138206 
L 350.382854 115.138206 
z
" style="fill:#1ac938;fill-opacity:0.5;stroke:#000000;stroke-linejoin:miter;stroke-width:0.639419;"/>
   </g>
   <g id="patch_10">
    <path clip-path="url(#p88147d3dcc)" d="M 356.777048 315 
L 363.171242 315 
L 363.171242 209.049169 
L 356.777048 209.049169 
z
" style="fill:#1ac938;fill-opacity:0.5;stroke:#000000;stroke-linejoin:miter;stroke-width:0.639419;"/>
   </g>
   <g id="patch_11">
    <path clip-path="url(#p88147d3dcc)" d="M 363.171242 315 
L 369.565436 315 
L 369.565436 224.700997 
L 363.171242 224.700997 
z
" style="fill:#1ac938;fill-opacity:0.5;stroke:#000000;stroke-linejoin:miter;stroke-width:0.639419;"/>
   </g>
   <g id="patch_12">
    <path clip-path="url(#p88147d3dcc)" d="M 369.565436 315 
L 375.95963 315 
L 375.95963 233.128904 
L 369.565436 233.128904 
z
" style="fill:#1ac938;fill-opacity:0.5;stroke:#000000;stroke-linejoin:miter;stroke-width:0.639419;"/>
   </g>
   <g id="patch_13">
    <path clip-path="url(#p88147d3dcc)" d="M 375.95963 315 
L 382.353824 315 
L 382.353824 259.616611 
L 375.95963 259.616611 
z
" style="fill:#1ac938;fill-opacity:0.5;stroke:#000000;stroke-linejoin:miter;stroke-width:0.639419;"/>
   </g>
   <g id="patch_14">
    <path clip-path="url(#p88147d3dcc)" d="M 382.353824 315 
L 388.748019 315 
L 388.748019 274.064452 
L 382.353824 274.064452 
z
" style="fill:#1ac938;fill-opacity:0.5;stroke:#000000;stroke-linejoin:miter;stroke-width:0.639419;"/>
   </g>
   <g id="patch_15">
    <path clip-path="url(#p88147d3dcc)" d="M 388.748019 315 
L 395.142213 315 
L 395.142213 276.472425 
L 388.748019 276.472425 
z
" style="fill:#1ac938;fill-opacity:0.5;stroke:#000000;stroke-linejoin:miter;stroke-width:0.639419;"/>
   </g>
   <g id="patch_16">
    <path clip-path="url(#p88147d3dcc)" d="M 395.142213 315 
L 401.536407 315 
L 401.536407 288.512292 
L 395.142213 288.512292 
z
" style="fill:#1ac938;fill-opacity:0.5;stroke:#000000;stroke-linejoin:miter;stroke-width:0.639419;"/>
   </g>
   <g id="patch_17">
    <path clip-path="url(#p88147d3dcc)" d="M 401.536407 315 
L 407.930601 315 
L 407.930601 284.900332 
L 401.536407 284.900332 
z
" style="fill:#1ac938;fill-opacity:0.5;stroke:#000000;stroke-linejoin:miter;stroke-width:0.639419;"/>
   </g>
   <g id="patch_18">
    <path clip-path="url(#p88147d3dcc)" d="M 407.930601 315 
L 414.324795 315 
L 414.324795 299.348173 
L 407.930601 299.348173 
z
" style="fill:#1ac938;fill-opacity:0.5;stroke:#000000;stroke-linejoin:miter;stroke-width:0.639419;"/>
   </g>
   <g id="patch_19">
    <path clip-path="url(#p88147d3dcc)" d="M 414.324795 315 
L 420.718989 315 
L 420.718989 296.940199 
L 414.324795 296.940199 
z
" style="fill:#1ac938;fill-opacity:0.5;stroke:#000000;stroke-linejoin:miter;stroke-width:0.639419;"/>
   </g>
   <g id="patch_20">
    <path clip-path="url(#p88147d3dcc)" d="M 420.718989 315 
L 427.113183 315 
L 427.113183 308.980066 
L 420.718989 308.980066 
z
" style="fill:#1ac938;fill-opacity:0.5;stroke:#000000;stroke-linejoin:miter;stroke-width:0.639419;"/>
   </g>
   <g id="patch_21">
    <path clip-path="url(#p88147d3dcc)" d="M 427.113183 315 
L 433.507377 315 
L 433.507377 306.572093 
L 427.113183 306.572093 
z
" style="fill:#1ac938;fill-opacity:0.5;stroke:#000000;stroke-linejoin:miter;stroke-width:0.639419;"/>
   </g>
   <g id="patch_22">
    <path clip-path="url(#p88147d3dcc)" d="M 433.507377 315 
L 439.901571 315 
L 439.901571 311.38804 
L 433.507377 311.38804 
z
" style="fill:#1ac938;fill-opacity:0.5;stroke:#000000;stroke-linejoin:miter;stroke-width:0.639419;"/>
   </g>
   <g id="patch_23">
    <path clip-path="url(#p88147d3dcc)" d="M 439.901571 315 
L 446.295765 315 
L 446.295765 315 
L 439.901571 315 
z
" style="fill:#1ac938;fill-opacity:0.5;stroke:#000000;stroke-linejoin:miter;stroke-width:0.639419;"/>
   </g>
   <g id="patch_24">
    <path clip-path="url(#p88147d3dcc)" d="M 446.295765 315 
L 452.689959 315 
L 452.689959 315 
L 446.295765 315 
z
" style="fill:#1ac938;fill-opacity:0.5;stroke:#000000;stroke-linejoin:miter;stroke-width:0.639419;"/>
   </g>
   <g id="patch_25">
    <path clip-path="url(#p88147d3dcc)" d="M 452.689959 315 
L 459.084153 315 
L 459.084153 315 
L 452.689959 315 
z
" style="fill:#1ac938;fill-opacity:0.5;stroke:#000000;stroke-linejoin:miter;stroke-width:0.639419;"/>
   </g>
   <g id="patch_26">
    <path clip-path="url(#p88147d3dcc)" d="M 459.084153 315 
L 465.478347 315 
L 465.478347 315 
L 459.084153 315 
z
" style="fill:#1ac938;fill-opacity:0.5;stroke:#000000;stroke-linejoin:miter;stroke-width:0.639419;"/>
   </g>
   <g id="patch_27">
    <path clip-path="url(#p88147d3dcc)" d="M 465.478347 315 
L 471.872541 315 
L 471.872541 315 
L 465.478347 315 
z
" style="fill:#1ac938;fill-opacity:0.5;stroke:#000000;stroke-linejoin:miter;stroke-width:0.639419;"/>
   </g>
   <g id="patch_28">
    <path clip-path="url(#p88147d3dcc)" d="M 471.872541 315 
L 478.266735 315 
L 478.266735 315 
L 471.872541 315 
z
" style="fill:#1ac938;fill-opacity:0.5;stroke:#000000;stroke-linejoin:miter;stroke-width:0.639419;"/>
   </g>
   <g id="patch_29">
    <path clip-path="url(#p88147d3dcc)" d="M 478.266735 315 
L 484.660929 315 
L 484.660929 315 
L 478.266735 315 
z
" style="fill:#1ac938;fill-opacity:0.5;stroke:#000000;stroke-linejoin:miter;stroke-width:0.639419;"/>
   </g>
   <g id="patch_30">
    <path clip-path="url(#p88147d3dcc)" d="M 484.660929 315 
L 491.055123 315 
L 491.055123 315 
L 484.660929 315 
z
" style="fill:#1ac938;fill-opacity:0.5;stroke:#000000;stroke-linejoin:miter;stroke-width:0.639419;"/>
   </g>
   <g id="patch_31">
    <path clip-path="url(#p88147d3dcc)" d="M 491.055123 315 
L 497.449317 315 
L 497.449317 315 
L 491.055123 315 
z
" style="fill:#1ac938;fill-opacity:0.5;stroke:#000000;stroke-linejoin:miter;stroke-width:0.639419;"/>
   </g>
   <g id="patch_32">
    <path clip-path="url(#p88147d3dcc)" d="M 497.449317 315 
L 503.843511 315 
L 503.843511 315 
L 497.449317 315 
z
" style="fill:#1ac938;fill-opacity:0.5;stroke:#000000;stroke-linejoin:miter;stroke-width:0.639419;"/>
   </g>
   <g id="patch_33">
    <path clip-path="url(#p88147d3dcc)" d="M 503.843511 315 
L 510.237705 315 
L 510.237705 315 
L 503.843511 315 
z
" style="fill:#1ac938;fill-opacity:0.5;stroke:#000000;stroke-linejoin:miter;stroke-width:0.639419;"/>
   </g>
   <g id="patch_34">
    <path clip-path="url(#p88147d3dcc)" d="M 510.237705 315 
L 516.631899 315 
L 516.631899 315 
L 510.237705 315 
z
" style="fill:#1ac938;fill-opacity:0.5;stroke:#000000;stroke-linejoin:miter;stroke-width:0.639419;"/>
   </g>
   <g id="patch_35">
    <path clip-path="url(#p88147d3dcc)" d="M 516.631899 315 
L 523.026093 315 
L 523.026093 315 
L 516.631899 315 
z
" style="fill:#1ac938;fill-opacity:0.5;stroke:#000000;stroke-linejoin:miter;stroke-width:0.639419;"/>
   </g>
   <g id="patch_36">
    <path clip-path="url(#p88147d3dcc)" d="M 523.026093 315 
L 529.420287 315 
L 529.420287 315 
L 523.026093 315 
z
" style="fill:#1ac938;fill-opacity:0.5;stroke:#000000;stroke-linejoin:miter;stroke-width:0.639419;"/>
   </g>
   <g id="patch_37">
    <path clip-path="url(#p88147d3dcc)" d="M 529.420287 315 
L 535.814481 315 
L 535.814481 315 
L 529.420287 315 
z
" style="fill:#1ac938;fill-opacity:0.5;stroke:#000000;stroke-linejoin:miter;stroke-width:0.639419;"/>
   </g>
   <g id="patch_38">
    <path clip-path="url(#p88147d3dcc)" d="M 535.814481 315 
L 542.208676 315 
L 542.208676 315 
L 535.814481 315 
z
" style="fill:#1ac938;fill-opacity:0.5;stroke:#000000;stroke-linejoin:miter;stroke-width:0.639419;"/>
   </g>
   <g id="patch_39">
    <path clip-path="url(#p88147d3dcc)" d="M 542.208676 315 
L 548.60287 315 
L 548.60287 315 
L 542.208676 315 
z
" style="fill:#1ac938;fill-opacity:0.5;stroke:#000000;stroke-linejoin:miter;stroke-width:0.639419;"/>
   </g>
   <g id="patch_40">
    <path clip-path="url(#p88147d3dcc)" d="M 548.60287 315 
L 554.997064 315 
L 554.997064 315 
L 548.60287 315 
z
" style="fill:#1ac938;fill-opacity:0.5;stroke:#000000;stroke-linejoin:miter;stroke-width:0.639419;"/>
   </g>
   <g id="patch_41">
    <path clip-path="url(#p88147d3dcc)" d="M 554.997064 315 
L 561.391258 315 
L 561.391258 315 
L 554.997064 315 
z
" style="fill:#1ac938;fill-opacity:0.5;stroke:#000000;stroke-linejoin:miter;stroke-width:0.639419;"/>
   </g>
   <g id="patch_42">
    <path clip-path="url(#p88147d3dcc)" d="M 561.391258 315 
L 567.785452 315 
L 567.785452 315 
L 561.391258 315 
z
" style="fill:#1ac938;fill-opacity:0.5;stroke:#000000;stroke-linejoin:miter;stroke-width:0.639419;"/>
   </g>
   <g id="patch_43">
    <path clip-path="url(#p88147d3dcc)" d="M 567.785452 315 
L 574.179646 315 
L 574.179646 315 
L 567.785452 315 
z
" style="fill:#1ac938;fill-opacity:0.5;stroke:#000000;stroke-linejoin:miter;stroke-width:0.639419;"/>
   </g>
   <g id="patch_44">
    <path clip-path="url(#p88147d3dcc)" d="M 350.382854 315 
L 356.777048 315 
L 356.777048 315 
L 350.382854 315 
z
" style="fill:#ff7c00;fill-opacity:0.5;stroke:#000000;stroke-linejoin:miter;stroke-width:0.639419;"/>
   </g>
   <g id="patch_45">
    <path clip-path="url(#p88147d3dcc)" d="M 356.777048 315 
L 363.171242 315 
L 363.171242 315 
L 356.777048 315 
z
" style="fill:#ff7c00;fill-opacity:0.5;stroke:#000000;stroke-linejoin:miter;stroke-width:0.639419;"/>
   </g>
   <g id="patch_46">
    <path clip-path="url(#p88147d3dcc)" d="M 363.171242 315 
L 369.565436 315 
L 369.565436 315 
L 363.171242 315 
z
" style="fill:#ff7c00;fill-opacity:0.5;stroke:#000000;stroke-linejoin:miter;stroke-width:0.639419;"/>
   </g>
   <g id="patch_47">
    <path clip-path="url(#p88147d3dcc)" d="M 369.565436 315 
L 375.95963 315 
L 375.95963 315 
L 369.565436 315 
z
" style="fill:#ff7c00;fill-opacity:0.5;stroke:#000000;stroke-linejoin:miter;stroke-width:0.639419;"/>
   </g>
   <g id="patch_48">
    <path clip-path="url(#p88147d3dcc)" d="M 375.95963 315 
L 382.353824 315 
L 382.353824 315 
L 375.95963 315 
z
" style="fill:#ff7c00;fill-opacity:0.5;stroke:#000000;stroke-linejoin:miter;stroke-width:0.639419;"/>
   </g>
   <g id="patch_49">
    <path clip-path="url(#p88147d3dcc)" d="M 382.353824 315 
L 388.748019 315 
L 388.748019 315 
L 382.353824 315 
z
" style="fill:#ff7c00;fill-opacity:0.5;stroke:#000000;stroke-linejoin:miter;stroke-width:0.639419;"/>
   </g>
   <g id="patch_50">
    <path clip-path="url(#p88147d3dcc)" d="M 388.748019 315 
L 395.142213 315 
L 395.142213 315 
L 388.748019 315 
z
" style="fill:#ff7c00;fill-opacity:0.5;stroke:#000000;stroke-linejoin:miter;stroke-width:0.639419;"/>
   </g>
   <g id="patch_51">
    <path clip-path="url(#p88147d3dcc)" d="M 395.142213 315 
L 401.536407 315 
L 401.536407 315 
L 395.142213 315 
z
" style="fill:#ff7c00;fill-opacity:0.5;stroke:#000000;stroke-linejoin:miter;stroke-width:0.639419;"/>
   </g>
   <g id="patch_52">
    <path clip-path="url(#p88147d3dcc)" d="M 401.536407 315 
L 407.930601 315 
L 407.930601 315 
L 401.536407 315 
z
" style="fill:#ff7c00;fill-opacity:0.5;stroke:#000000;stroke-linejoin:miter;stroke-width:0.639419;"/>
   </g>
   <g id="patch_53">
    <path clip-path="url(#p88147d3dcc)" d="M 407.930601 315 
L 414.324795 315 
L 414.324795 315 
L 407.930601 315 
z
" style="fill:#ff7c00;fill-opacity:0.5;stroke:#000000;stroke-linejoin:miter;stroke-width:0.639419;"/>
   </g>
   <g id="patch_54">
    <path clip-path="url(#p88147d3dcc)" d="M 414.324795 315 
L 420.718989 315 
L 420.718989 315 
L 414.324795 315 
z
" style="fill:#ff7c00;fill-opacity:0.5;stroke:#000000;stroke-linejoin:miter;stroke-width:0.639419;"/>
   </g>
   <g id="patch_55">
    <path clip-path="url(#p88147d3dcc)" d="M 420.718989 315 
L 427.113183 315 
L 427.113183 315 
L 420.718989 315 
z
" style="fill:#ff7c00;fill-opacity:0.5;stroke:#000000;stroke-linejoin:miter;stroke-width:0.639419;"/>
   </g>
   <g id="patch_56">
    <path clip-path="url(#p88147d3dcc)" d="M 427.113183 315 
L 433.507377 315 
L 433.507377 315 
L 427.113183 315 
z
" style="fill:#ff7c00;fill-opacity:0.5;stroke:#000000;stroke-linejoin:miter;stroke-width:0.639419;"/>
   </g>
   <g id="patch_57">
    <path clip-path="url(#p88147d3dcc)" d="M 433.507377 315 
L 439.901571 315 
L 439.901571 315 
L 433.507377 315 
z
" style="fill:#ff7c00;fill-opacity:0.5;stroke:#000000;stroke-linejoin:miter;stroke-width:0.639419;"/>
   </g>
   <g id="patch_58">
    <path clip-path="url(#p88147d3dcc)" d="M 439.901571 315 
L 446.295765 315 
L 446.295765 310.184053 
L 439.901571 310.184053 
z
" style="fill:#ff7c00;fill-opacity:0.5;stroke:#000000;stroke-linejoin:miter;stroke-width:0.639419;"/>
   </g>
   <g id="patch_59">
    <path clip-path="url(#p88147d3dcc)" d="M 446.295765 315 
L 452.689959 315 
L 452.689959 278.880399 
L 446.295765 278.880399 
z
" style="fill:#ff7c00;fill-opacity:0.5;stroke:#000000;stroke-linejoin:miter;stroke-width:0.639419;"/>
   </g>
   <g id="patch_60">
    <path clip-path="url(#p88147d3dcc)" d="M 452.689959 315 
L 459.084153 315 
L 459.084153 289.716279 
L 452.689959 289.716279 
z
" style="fill:#ff7c00;fill-opacity:0.5;stroke:#000000;stroke-linejoin:miter;stroke-width:0.639419;"/>
   </g>
   <g id="patch_61">
    <path clip-path="url(#p88147d3dcc)" d="M 459.084153 315 
L 465.478347 315 
L 465.478347 277.676412 
L 459.084153 277.676412 
z
" style="fill:#ff7c00;fill-opacity:0.5;stroke:#000000;stroke-linejoin:miter;stroke-width:0.639419;"/>
   </g>
   <g id="patch_62">
    <path clip-path="url(#p88147d3dcc)" d="M 465.478347 315 
L 471.872541 315 
L 471.872541 268.044518 
L 465.478347 268.044518 
z
" style="fill:#ff7c00;fill-opacity:0.5;stroke:#000000;stroke-linejoin:miter;stroke-width:0.639419;"/>
   </g>
   <g id="patch_63">
    <path clip-path="url(#p88147d3dcc)" d="M 471.872541 315 
L 478.266735 315 
L 478.266735 271.656478 
L 471.872541 271.656478 
z
" style="fill:#ff7c00;fill-opacity:0.5;stroke:#000000;stroke-linejoin:miter;stroke-width:0.639419;"/>
   </g>
   <g id="patch_64">
    <path clip-path="url(#p88147d3dcc)" d="M 478.266735 315 
L 484.660929 315 
L 484.660929 265.636545 
L 478.266735 265.636545 
z
" style="fill:#ff7c00;fill-opacity:0.5;stroke:#000000;stroke-linejoin:miter;stroke-width:0.639419;"/>
   </g>
   <g id="patch_65">
    <path clip-path="url(#p88147d3dcc)" d="M 484.660929 315 
L 491.055123 315 
L 491.055123 270.452492 
L 484.660929 270.452492 
z
" style="fill:#ff7c00;fill-opacity:0.5;stroke:#000000;stroke-linejoin:miter;stroke-width:0.639419;"/>
   </g>
   <g id="patch_66">
    <path clip-path="url(#p88147d3dcc)" d="M 491.055123 315 
L 497.449317 315 
L 497.449317 272.860465 
L 491.055123 272.860465 
z
" style="fill:#ff7c00;fill-opacity:0.5;stroke:#000000;stroke-linejoin:miter;stroke-width:0.639419;"/>
   </g>
   <g id="patch_67">
    <path clip-path="url(#p88147d3dcc)" d="M 497.449317 315 
L 503.843511 315 
L 503.843511 270.452492 
L 497.449317 270.452492 
z
" style="fill:#ff7c00;fill-opacity:0.5;stroke:#000000;stroke-linejoin:miter;stroke-width:0.639419;"/>
   </g>
   <g id="patch_68">
    <path clip-path="url(#p88147d3dcc)" d="M 503.843511 315 
L 510.237705 315 
L 510.237705 271.656478 
L 503.843511 271.656478 
z
" style="fill:#ff7c00;fill-opacity:0.5;stroke:#000000;stroke-linejoin:miter;stroke-width:0.639419;"/>
   </g>
   <g id="patch_69">
    <path clip-path="url(#p88147d3dcc)" d="M 510.237705 315 
L 516.631899 315 
L 516.631899 286.104319 
L 510.237705 286.104319 
z
" style="fill:#ff7c00;fill-opacity:0.5;stroke:#000000;stroke-linejoin:miter;stroke-width:0.639419;"/>
   </g>
   <g id="patch_70">
    <path clip-path="url(#p88147d3dcc)" d="M 516.631899 315 
L 523.026093 315 
L 523.026093 295.736213 
L 516.631899 295.736213 
z
" style="fill:#ff7c00;fill-opacity:0.5;stroke:#000000;stroke-linejoin:miter;stroke-width:0.639419;"/>
   </g>
   <g id="patch_71">
    <path clip-path="url(#p88147d3dcc)" d="M 523.026093 315 
L 529.420287 315 
L 529.420287 271.656478 
L 523.026093 271.656478 
z
" style="fill:#ff7c00;fill-opacity:0.5;stroke:#000000;stroke-linejoin:miter;stroke-width:0.639419;"/>
   </g>
   <g id="patch_72">
    <path clip-path="url(#p88147d3dcc)" d="M 529.420287 315 
L 535.814481 315 
L 535.814481 272.860465 
L 529.420287 272.860465 
z
" style="fill:#ff7c00;fill-opacity:0.5;stroke:#000000;stroke-linejoin:miter;stroke-width:0.639419;"/>
   </g>
   <g id="patch_73">
    <path clip-path="url(#p88147d3dcc)" d="M 535.814481 315 
L 542.208676 315 
L 542.208676 286.104319 
L 535.814481 286.104319 
z
" style="fill:#ff7c00;fill-opacity:0.5;stroke:#000000;stroke-linejoin:miter;stroke-width:0.639419;"/>
   </g>
   <g id="patch_74">
    <path clip-path="url(#p88147d3dcc)" d="M 542.208676 315 
L 548.60287 315 
L 548.60287 268.044518 
L 542.208676 268.044518 
z
" style="fill:#ff7c00;fill-opacity:0.5;stroke:#000000;stroke-linejoin:miter;stroke-width:0.639419;"/>
   </g>
   <g id="patch_75">
    <path clip-path="url(#p88147d3dcc)" d="M 548.60287 315 
L 554.997064 315 
L 554.997064 281.288372 
L 548.60287 281.288372 
z
" style="fill:#ff7c00;fill-opacity:0.5;stroke:#000000;stroke-linejoin:miter;stroke-width:0.639419;"/>
   </g>
   <g id="patch_76">
    <path clip-path="url(#p88147d3dcc)" d="M 554.997064 315 
L 561.391258 315 
L 561.391258 278.880399 
L 554.997064 278.880399 
z
" style="fill:#ff7c00;fill-opacity:0.5;stroke:#000000;stroke-linejoin:miter;stroke-width:0.639419;"/>
   </g>
   <g id="patch_77">
    <path clip-path="url(#p88147d3dcc)" d="M 561.391258 315 
L 567.785452 315 
L 567.785452 286.104319 
L 561.391258 286.104319 
z
" style="fill:#ff7c00;fill-opacity:0.5;stroke:#000000;stroke-linejoin:miter;stroke-width:0.639419;"/>
   </g>
   <g id="patch_78">
    <path clip-path="url(#p88147d3dcc)" d="M 567.785452 315 
L 574.179646 315 
L 574.179646 295.736213 
L 567.785452 295.736213 
z
" style="fill:#ff7c00;fill-opacity:0.5;stroke:#000000;stroke-linejoin:miter;stroke-width:0.639419;"/>
   </g>
   <g id="patch_79">
    <path clip-path="url(#p88147d3dcc)" d="M 350.382854 315 
L 356.777048 315 
L 356.777048 56.142857 
L 350.382854 56.142857 
z
" style="fill:#023eff;fill-opacity:0.5;stroke:#000000;stroke-linejoin:miter;stroke-width:0.639419;"/>
   </g>
   <g id="patch_80">
    <path clip-path="url(#p88147d3dcc)" d="M 356.777048 315 
L 363.171242 315 
L 363.171242 85.038538 
L 356.777048 85.038538 
z
" style="fill:#023eff;fill-opacity:0.5;stroke:#000000;stroke-linejoin:miter;stroke-width:0.639419;"/>
   </g>
   <g id="patch_81">
    <path clip-path="url(#p88147d3dcc)" d="M 363.171242 315 
L 369.565436 315 
L 369.565436 86.242525 
L 363.171242 86.242525 
z
" style="fill:#023eff;fill-opacity:0.5;stroke:#000000;stroke-linejoin:miter;stroke-width:0.639419;"/>
   </g>
   <g id="patch_82">
    <path clip-path="url(#p88147d3dcc)" d="M 369.565436 315 
L 375.95963 315 
L 375.95963 140.421927 
L 369.565436 140.421927 
z
" style="fill:#023eff;fill-opacity:0.5;stroke:#000000;stroke-linejoin:miter;stroke-width:0.639419;"/>
   </g>
   <g id="patch_83">
    <path clip-path="url(#p88147d3dcc)" d="M 375.95963 315 
L 382.353824 315 
L 382.353824 154.869767 
L 375.95963 154.869767 
z
" style="fill:#023eff;fill-opacity:0.5;stroke:#000000;stroke-linejoin:miter;stroke-width:0.639419;"/>
   </g>
   <g id="patch_84">
    <path clip-path="url(#p88147d3dcc)" d="M 382.353824 315 
L 388.748019 315 
L 388.748019 178.949502 
L 382.353824 178.949502 
z
" style="fill:#023eff;fill-opacity:0.5;stroke:#000000;stroke-linejoin:miter;stroke-width:0.639419;"/>
   </g>
   <g id="patch_85">
    <path clip-path="url(#p88147d3dcc)" d="M 388.748019 315 
L 395.142213 315 
L 395.142213 181.357475 
L 388.748019 181.357475 
z
" style="fill:#023eff;fill-opacity:0.5;stroke:#000000;stroke-linejoin:miter;stroke-width:0.639419;"/>
   </g>
   <g id="patch_86">
    <path clip-path="url(#p88147d3dcc)" d="M 395.142213 315 
L 401.536407 315 
L 401.536407 203.029236 
L 395.142213 203.029236 
z
" style="fill:#023eff;fill-opacity:0.5;stroke:#000000;stroke-linejoin:miter;stroke-width:0.639419;"/>
   </g>
   <g id="patch_87">
    <path clip-path="url(#p88147d3dcc)" d="M 401.536407 315 
L 407.930601 315 
L 407.930601 162.093688 
L 401.536407 162.093688 
z
" style="fill:#023eff;fill-opacity:0.5;stroke:#000000;stroke-linejoin:miter;stroke-width:0.639419;"/>
   </g>
   <g id="patch_88">
    <path clip-path="url(#p88147d3dcc)" d="M 407.930601 315 
L 414.324795 315 
L 414.324795 247.576744 
L 407.930601 247.576744 
z
" style="fill:#023eff;fill-opacity:0.5;stroke:#000000;stroke-linejoin:miter;stroke-width:0.639419;"/>
   </g>
   <g id="patch_89">
    <path clip-path="url(#p88147d3dcc)" d="M 414.324795 315 
L 420.718989 315 
L 420.718989 236.740864 
L 414.324795 236.740864 
z
" style="fill:#023eff;fill-opacity:0.5;stroke:#000000;stroke-linejoin:miter;stroke-width:0.639419;"/>
   </g>
   <g id="patch_90">
    <path clip-path="url(#p88147d3dcc)" d="M 420.718989 315 
L 427.113183 315 
L 427.113183 278.880399 
L 420.718989 278.880399 
z
" style="fill:#023eff;fill-opacity:0.5;stroke:#000000;stroke-linejoin:miter;stroke-width:0.639419;"/>
   </g>
   <g id="patch_91">
    <path clip-path="url(#p88147d3dcc)" d="M 427.113183 315 
L 433.507377 315 
L 433.507377 265.636545 
L 427.113183 265.636545 
z
" style="fill:#023eff;fill-opacity:0.5;stroke:#000000;stroke-linejoin:miter;stroke-width:0.639419;"/>
   </g>
   <g id="patch_92">
    <path clip-path="url(#p88147d3dcc)" d="M 433.507377 315 
L 439.901571 315 
L 439.901571 302.960133 
L 433.507377 302.960133 
z
" style="fill:#023eff;fill-opacity:0.5;stroke:#000000;stroke-linejoin:miter;stroke-width:0.639419;"/>
   </g>
   <g id="patch_93">
    <path clip-path="url(#p88147d3dcc)" d="M 439.901571 315 
L 446.295765 315 
L 446.295765 315 
L 439.901571 315 
z
" style="fill:#023eff;fill-opacity:0.5;stroke:#000000;stroke-linejoin:miter;stroke-width:0.639419;"/>
   </g>
   <g id="patch_94">
    <path clip-path="url(#p88147d3dcc)" d="M 446.295765 315 
L 452.689959 315 
L 452.689959 315 
L 446.295765 315 
z
" style="fill:#023eff;fill-opacity:0.5;stroke:#000000;stroke-linejoin:miter;stroke-width:0.639419;"/>
   </g>
   <g id="patch_95">
    <path clip-path="url(#p88147d3dcc)" d="M 452.689959 315 
L 459.084153 315 
L 459.084153 315 
L 452.689959 315 
z
" style="fill:#023eff;fill-opacity:0.5;stroke:#000000;stroke-linejoin:miter;stroke-width:0.639419;"/>
   </g>
   <g id="patch_96">
    <path clip-path="url(#p88147d3dcc)" d="M 459.084153 315 
L 465.478347 315 
L 465.478347 315 
L 459.084153 315 
z
" style="fill:#023eff;fill-opacity:0.5;stroke:#000000;stroke-linejoin:miter;stroke-width:0.639419;"/>
   </g>
   <g id="patch_97">
    <path clip-path="url(#p88147d3dcc)" d="M 465.478347 315 
L 471.872541 315 
L 471.872541 315 
L 465.478347 315 
z
" style="fill:#023eff;fill-opacity:0.5;stroke:#000000;stroke-linejoin:miter;stroke-width:0.639419;"/>
   </g>
   <g id="patch_98">
    <path clip-path="url(#p88147d3dcc)" d="M 471.872541 315 
L 478.266735 315 
L 478.266735 315 
L 471.872541 315 
z
" style="fill:#023eff;fill-opacity:0.5;stroke:#000000;stroke-linejoin:miter;stroke-width:0.639419;"/>
   </g>
   <g id="patch_99">
    <path clip-path="url(#p88147d3dcc)" d="M 478.266735 315 
L 484.660929 315 
L 484.660929 315 
L 478.266735 315 
z
" style="fill:#023eff;fill-opacity:0.5;stroke:#000000;stroke-linejoin:miter;stroke-width:0.639419;"/>
   </g>
   <g id="patch_100">
    <path clip-path="url(#p88147d3dcc)" d="M 484.660929 315 
L 491.055123 315 
L 491.055123 315 
L 484.660929 315 
z
" style="fill:#023eff;fill-opacity:0.5;stroke:#000000;stroke-linejoin:miter;stroke-width:0.639419;"/>
   </g>
   <g id="patch_101">
    <path clip-path="url(#p88147d3dcc)" d="M 491.055123 315 
L 497.449317 315 
L 497.449317 315 
L 491.055123 315 
z
" style="fill:#023eff;fill-opacity:0.5;stroke:#000000;stroke-linejoin:miter;stroke-width:0.639419;"/>
   </g>
   <g id="patch_102">
    <path clip-path="url(#p88147d3dcc)" d="M 497.449317 315 
L 503.843511 315 
L 503.843511 315 
L 497.449317 315 
z
" style="fill:#023eff;fill-opacity:0.5;stroke:#000000;stroke-linejoin:miter;stroke-width:0.639419;"/>
   </g>
   <g id="patch_103">
    <path clip-path="url(#p88147d3dcc)" d="M 503.843511 315 
L 510.237705 315 
L 510.237705 315 
L 503.843511 315 
z
" style="fill:#023eff;fill-opacity:0.5;stroke:#000000;stroke-linejoin:miter;stroke-width:0.639419;"/>
   </g>
   <g id="patch_104">
    <path clip-path="url(#p88147d3dcc)" d="M 510.237705 315 
L 516.631899 315 
L 516.631899 315 
L 510.237705 315 
z
" style="fill:#023eff;fill-opacity:0.5;stroke:#000000;stroke-linejoin:miter;stroke-width:0.639419;"/>
   </g>
   <g id="patch_105">
    <path clip-path="url(#p88147d3dcc)" d="M 516.631899 315 
L 523.026093 315 
L 523.026093 315 
L 516.631899 315 
z
" style="fill:#023eff;fill-opacity:0.5;stroke:#000000;stroke-linejoin:miter;stroke-width:0.639419;"/>
   </g>
   <g id="patch_106">
    <path clip-path="url(#p88147d3dcc)" d="M 523.026093 315 
L 529.420287 315 
L 529.420287 315 
L 523.026093 315 
z
" style="fill:#023eff;fill-opacity:0.5;stroke:#000000;stroke-linejoin:miter;stroke-width:0.639419;"/>
   </g>
   <g id="patch_107">
    <path clip-path="url(#p88147d3dcc)" d="M 529.420287 315 
L 535.814481 315 
L 535.814481 315 
L 529.420287 315 
z
" style="fill:#023eff;fill-opacity:0.5;stroke:#000000;stroke-linejoin:miter;stroke-width:0.639419;"/>
   </g>
   <g id="patch_108">
    <path clip-path="url(#p88147d3dcc)" d="M 535.814481 315 
L 542.208676 315 
L 542.208676 315 
L 535.814481 315 
z
" style="fill:#023eff;fill-opacity:0.5;stroke:#000000;stroke-linejoin:miter;stroke-width:0.639419;"/>
   </g>
   <g id="patch_109">
    <path clip-path="url(#p88147d3dcc)" d="M 542.208676 315 
L 548.60287 315 
L 548.60287 315 
L 542.208676 315 
z
" style="fill:#023eff;fill-opacity:0.5;stroke:#000000;stroke-linejoin:miter;stroke-width:0.639419;"/>
   </g>
   <g id="patch_110">
    <path clip-path="url(#p88147d3dcc)" d="M 548.60287 315 
L 554.997064 315 
L 554.997064 315 
L 548.60287 315 
z
" style="fill:#023eff;fill-opacity:0.5;stroke:#000000;stroke-linejoin:miter;stroke-width:0.639419;"/>
   </g>
   <g id="patch_111">
    <path clip-path="url(#p88147d3dcc)" d="M 554.997064 315 
L 561.391258 315 
L 561.391258 315 
L 554.997064 315 
z
" style="fill:#023eff;fill-opacity:0.5;stroke:#000000;stroke-linejoin:miter;stroke-width:0.639419;"/>
   </g>
   <g id="patch_112">
    <path clip-path="url(#p88147d3dcc)" d="M 561.391258 315 
L 567.785452 315 
L 567.785452 315 
L 561.391258 315 
z
" style="fill:#023eff;fill-opacity:0.5;stroke:#000000;stroke-linejoin:miter;stroke-width:0.639419;"/>
   </g>
   <g id="patch_113">
    <path clip-path="url(#p88147d3dcc)" d="M 567.785452 315 
L 574.179646 315 
L 574.179646 315 
L 567.785452 315 
z
" style="fill:#023eff;fill-opacity:0.5;stroke:#000000;stroke-linejoin:miter;stroke-width:0.639419;"/>
   </g>
   <g id="matplotlib.axis_3">
    <g id="xtick_8">
     <g id="line2d_23">
      <g>
       <use style="stroke:#000000;stroke-width:0.8;" x="348.114644" xlink:href="#me796891981" y="315"/>
      </g>
     </g>
     <g id="text_20">
      <!-- 0 -->
      <g transform="translate(344.933394 329.598437)scale(0.1 -0.1)">
       <use xlink:href="#DejaVuSans-48"/>
      </g>
     </g>
    </g>
    <g id="xtick_9">
     <g id="line2d_24">
      <g>
       <use style="stroke:#000000;stroke-width:0.8;" x="385.918156" xlink:href="#me796891981" y="315"/>
      </g>
     </g>
     <g id="text_21">
      <!-- 50 -->
      <g transform="translate(379.555656 329.598437)scale(0.1 -0.1)">
       <use xlink:href="#DejaVuSans-53"/>
       <use x="63.623047" xlink:href="#DejaVuSans-48"/>
      </g>
     </g>
    </g>
    <g id="xtick_10">
     <g id="line2d_25">
      <g>
       <use style="stroke:#000000;stroke-width:0.8;" x="423.721668" xlink:href="#me796891981" y="315"/>
      </g>
     </g>
     <g id="text_22">
      <!-- 100 -->
      <g transform="translate(414.177918 329.598437)scale(0.1 -0.1)">
       <use xlink:href="#DejaVuSans-49"/>
       <use x="63.623047" xlink:href="#DejaVuSans-48"/>
       <use x="127.246094" xlink:href="#DejaVuSans-48"/>
      </g>
     </g>
    </g>
    <g id="xtick_11">
     <g id="line2d_26">
      <g>
       <use style="stroke:#000000;stroke-width:0.8;" x="461.52518" xlink:href="#me796891981" y="315"/>
      </g>
     </g>
     <g id="text_23">
      <!-- 150 -->
      <g transform="translate(451.98143 329.598437)scale(0.1 -0.1)">
       <use xlink:href="#DejaVuSans-49"/>
       <use x="63.623047" xlink:href="#DejaVuSans-53"/>
       <use x="127.246094" xlink:href="#DejaVuSans-48"/>
      </g>
     </g>
    </g>
    <g id="xtick_12">
     <g id="line2d_27">
      <g>
       <use style="stroke:#000000;stroke-width:0.8;" x="499.328692" xlink:href="#me796891981" y="315"/>
      </g>
     </g>
     <g id="text_24">
      <!-- 200 -->
      <g transform="translate(489.784942 329.598437)scale(0.1 -0.1)">
       <use xlink:href="#DejaVuSans-50"/>
       <use x="63.623047" xlink:href="#DejaVuSans-48"/>
       <use x="127.246094" xlink:href="#DejaVuSans-48"/>
      </g>
     </g>
    </g>
    <g id="xtick_13">
     <g id="line2d_28">
      <g>
       <use style="stroke:#000000;stroke-width:0.8;" x="537.132204" xlink:href="#me796891981" y="315"/>
      </g>
     </g>
     <g id="text_25">
      <!-- 250 -->
      <g transform="translate(527.588454 329.598437)scale(0.1 -0.1)">
       <use xlink:href="#DejaVuSans-50"/>
       <use x="63.623047" xlink:href="#DejaVuSans-53"/>
       <use x="127.246094" xlink:href="#DejaVuSans-48"/>
      </g>
     </g>
    </g>
    <g id="xtick_14">
     <g id="line2d_29">
      <g>
       <use style="stroke:#000000;stroke-width:0.8;" x="574.935716" xlink:href="#me796891981" y="315"/>
      </g>
     </g>
     <g id="text_26">
      <!-- 300 -->
      <g transform="translate(565.391966 329.598437)scale(0.1 -0.1)">
       <use xlink:href="#DejaVuSans-51"/>
       <use x="63.623047" xlink:href="#DejaVuSans-48"/>
       <use x="127.246094" xlink:href="#DejaVuSans-48"/>
      </g>
     </g>
    </g>
    <g id="text_27">
     <!-- Recency -->
     <g transform="translate(441.252344 343.276562)scale(0.1 -0.1)">
      <use xlink:href="#DejaVuSans-82"/>
      <use x="64.982422" xlink:href="#DejaVuSans-101"/>
      <use x="126.505859" xlink:href="#DejaVuSans-99"/>
      <use x="181.486328" xlink:href="#DejaVuSans-101"/>
      <use x="243.009766" xlink:href="#DejaVuSans-110"/>
      <use x="306.388672" xlink:href="#DejaVuSans-99"/>
      <use x="361.369141" xlink:href="#DejaVuSans-121"/>
     </g>
    </g>
   </g>
   <g id="matplotlib.axis_4">
    <g id="ytick_7">
     <g id="line2d_30">
      <g>
       <use style="stroke:#000000;stroke-width:0.8;" x="339.193015" xlink:href="#meb03d5cc2d" y="315"/>
      </g>
     </g>
     <g id="text_28">
      <!-- 0 -->
      <g transform="translate(325.830515 318.799219)scale(0.1 -0.1)">
       <use xlink:href="#DejaVuSans-48"/>
      </g>
     </g>
    </g>
    <g id="ytick_8">
     <g id="line2d_31">
      <g>
       <use style="stroke:#000000;stroke-width:0.8;" x="339.193015" xlink:href="#meb03d5cc2d" y="282.034844"/>
      </g>
     </g>
     <g id="text_29">
      <!-- 1 -->
      <g transform="translate(325.830515 285.834063)scale(0.1 -0.1)">
       <use xlink:href="#DejaVuSans-49"/>
      </g>
     </g>
    </g>
    <g id="ytick_9">
     <g id="line2d_32">
      <g>
       <use style="stroke:#000000;stroke-width:0.8;" x="339.193015" xlink:href="#meb03d5cc2d" y="249.069688"/>
      </g>
     </g>
     <g id="text_30">
      <!-- 2 -->
      <g transform="translate(325.830515 252.868906)scale(0.1 -0.1)">
       <use xlink:href="#DejaVuSans-50"/>
      </g>
     </g>
    </g>
    <g id="ytick_10">
     <g id="line2d_33">
      <g>
       <use style="stroke:#000000;stroke-width:0.8;" x="339.193015" xlink:href="#meb03d5cc2d" y="216.104532"/>
      </g>
     </g>
     <g id="text_31">
      <!-- 3 -->
      <g transform="translate(325.830515 219.90375)scale(0.1 -0.1)">
       <use xlink:href="#DejaVuSans-51"/>
      </g>
     </g>
    </g>
    <g id="ytick_11">
     <g id="line2d_34">
      <g>
       <use style="stroke:#000000;stroke-width:0.8;" x="339.193015" xlink:href="#meb03d5cc2d" y="183.139375"/>
      </g>
     </g>
     <g id="text_32">
      <!-- 4 -->
      <g transform="translate(325.830515 186.938594)scale(0.1 -0.1)">
       <use xlink:href="#DejaVuSans-52"/>
      </g>
     </g>
    </g>
    <g id="ytick_12">
     <g id="line2d_35">
      <g>
       <use style="stroke:#000000;stroke-width:0.8;" x="339.193015" xlink:href="#meb03d5cc2d" y="150.174219"/>
      </g>
     </g>
     <g id="text_33">
      <!-- 5 -->
      <g transform="translate(325.830515 153.973438)scale(0.1 -0.1)">
       <use xlink:href="#DejaVuSans-53"/>
      </g>
     </g>
    </g>
    <g id="ytick_13">
     <g id="line2d_36">
      <g>
       <use style="stroke:#000000;stroke-width:0.8;" x="339.193015" xlink:href="#meb03d5cc2d" y="117.209063"/>
      </g>
     </g>
     <g id="text_34">
      <!-- 6 -->
      <g transform="translate(325.830515 121.008282)scale(0.1 -0.1)">
       <use xlink:href="#DejaVuSans-54"/>
      </g>
     </g>
    </g>
    <g id="ytick_14">
     <g id="line2d_37">
      <g>
       <use style="stroke:#000000;stroke-width:0.8;" x="339.193015" xlink:href="#meb03d5cc2d" y="84.243907"/>
      </g>
     </g>
     <g id="text_35">
      <!-- 7 -->
      <defs>
       <path d="M 8.203125 72.90625 
L 55.078125 72.90625 
L 55.078125 68.703125 
L 28.609375 0 
L 18.3125 0 
L 43.21875 64.59375 
L 8.203125 64.59375 
z
" id="DejaVuSans-55"/>
      </defs>
      <g transform="translate(325.830515 88.043126)scale(0.1 -0.1)">
       <use xlink:href="#DejaVuSans-55"/>
      </g>
     </g>
    </g>
    <g id="ytick_15">
     <g id="line2d_38">
      <g>
       <use style="stroke:#000000;stroke-width:0.8;" x="339.193015" xlink:href="#meb03d5cc2d" y="51.278751"/>
      </g>
     </g>
     <g id="text_36">
      <!-- 8 -->
      <g transform="translate(325.830515 55.07797)scale(0.1 -0.1)">
       <use xlink:href="#DejaVuSans-56"/>
      </g>
     </g>
    </g>
    <g id="text_37">
     <!-- Percent -->
     <g transform="translate(319.750827 197.907812)rotate(-90)scale(0.1 -0.1)">
      <use xlink:href="#DejaVuSans-80"/>
      <use x="56.677734" xlink:href="#DejaVuSans-101"/>
      <use x="118.201172" xlink:href="#DejaVuSans-114"/>
      <use x="157.064453" xlink:href="#DejaVuSans-99"/>
      <use x="212.044922" xlink:href="#DejaVuSans-101"/>
      <use x="273.568359" xlink:href="#DejaVuSans-110"/>
      <use x="336.947266" xlink:href="#DejaVuSans-116"/>
     </g>
    </g>
   </g>
   <g id="patch_114">
    <path d="M 339.193015 315 
L 339.193015 43.2 
" style="fill:none;stroke:#000000;stroke-linecap:square;stroke-linejoin:miter;stroke-width:0.8;"/>
   </g>
   <g id="patch_115">
    <path d="M 585.369485 315 
L 585.369485 43.2 
" style="fill:none;stroke:#000000;stroke-linecap:square;stroke-linejoin:miter;stroke-width:0.8;"/>
   </g>
   <g id="patch_116">
    <path d="M 339.193015 315 
L 585.369485 315 
" style="fill:none;stroke:#000000;stroke-linecap:square;stroke-linejoin:miter;stroke-width:0.8;"/>
   </g>
   <g id="patch_117">
    <path d="M 339.193015 43.2 
L 585.369485 43.2 
" style="fill:none;stroke:#000000;stroke-linecap:square;stroke-linejoin:miter;stroke-width:0.8;"/>
   </g>
   <g id="legend_2">
    <g id="patch_118">
     <path d="M 540.006985 109.9125 
L 578.369485 109.9125 
Q 580.369485 109.9125 580.369485 107.9125 
L 580.369485 50.2 
Q 580.369485 48.2 578.369485 48.2 
L 540.006985 48.2 
Q 538.006985 48.2 538.006985 50.2 
L 538.006985 107.9125 
Q 538.006985 109.9125 540.006985 109.9125 
z
" style="fill:#ffffff;opacity:0.8;stroke:#cccccc;stroke-linejoin:miter;"/>
    </g>
    <g id="text_38">
     <!-- cluster -->
     <g transform="translate(542.184329 59.798437)scale(0.1 -0.1)">
      <use xlink:href="#DejaVuSans-99"/>
      <use x="54.980469" xlink:href="#DejaVuSans-108"/>
      <use x="82.763672" xlink:href="#DejaVuSans-117"/>
      <use x="146.142578" xlink:href="#DejaVuSans-115"/>
      <use x="198.242188" xlink:href="#DejaVuSans-116"/>
      <use x="237.451172" xlink:href="#DejaVuSans-101"/>
      <use x="298.974609" xlink:href="#DejaVuSans-114"/>
     </g>
    </g>
    <g id="patch_119">
     <path d="M 542.006985 74.476562 
L 562.006985 74.476562 
L 562.006985 67.476562 
L 542.006985 67.476562 
z
" style="fill:#023eff;fill-opacity:0.5;stroke:#000000;stroke-linejoin:miter;"/>
    </g>
    <g id="text_39">
     <!-- 0 -->
     <g transform="translate(570.006985 74.476562)scale(0.1 -0.1)">
      <use xlink:href="#DejaVuSans-48"/>
     </g>
    </g>
    <g id="patch_120">
     <path d="M 542.006985 89.154688 
L 562.006985 89.154688 
L 562.006985 82.154688 
L 542.006985 82.154688 
z
" style="fill:#ff7c00;fill-opacity:0.5;stroke:#000000;stroke-linejoin:miter;"/>
    </g>
    <g id="text_40">
     <!-- 1 -->
     <g transform="translate(570.006985 89.154688)scale(0.1 -0.1)">
      <use xlink:href="#DejaVuSans-49"/>
     </g>
    </g>
    <g id="patch_121">
     <path d="M 542.006985 103.832812 
L 562.006985 103.832812 
L 562.006985 96.832812 
L 542.006985 96.832812 
z
" style="fill:#1ac938;fill-opacity:0.5;stroke:#000000;stroke-linejoin:miter;"/>
    </g>
    <g id="text_41">
     <!-- 2 -->
     <g transform="translate(570.006985 103.832812)scale(0.1 -0.1)">
      <use xlink:href="#DejaVuSans-50"/>
     </g>
    </g>
   </g>
  </g>
  <g id="axes_3">
   <g id="patch_122">
    <path d="M 634.604779 315 
L 880.78125 315 
L 880.78125 43.2 
L 634.604779 43.2 
z
" style="fill:#ffffff;"/>
   </g>
   <g id="patch_123">
    <path clip-path="url(#p5c80869611)" d="M 642.810662 289.289189 
L 708.457721 289.289189 
L 708.457721 250.889926 
L 642.810662 250.889926 
L 642.810662 289.289189 
z
" style="fill:#224fdf;stroke:#444444;stroke-linejoin:miter;stroke-width:1.5;"/>
   </g>
   <g id="patch_124">
    <path clip-path="url(#p5c80869611)" d="M 724.869485 162.404668 
L 790.516544 162.404668 
L 790.516544 96.040725 
L 724.869485 96.040725 
L 724.869485 162.404668 
z
" style="fill:#df7d20;stroke:#444444;stroke-linejoin:miter;stroke-width:1.5;"/>
   </g>
   <g id="patch_125">
    <path clip-path="url(#p5c80869611)" d="M 806.928309 295.967322 
L 872.575368 295.967322 
L 872.575368 264.246192 
L 806.928309 264.246192 
L 806.928309 295.967322 
z
" style="fill:#30b346;stroke:#444444;stroke-linejoin:miter;stroke-width:1.5;"/>
   </g>
   <g id="matplotlib.axis_5">
    <g id="xtick_15">
     <g id="line2d_39">
      <g>
       <use style="stroke:#000000;stroke-width:0.8;" x="675.634191" xlink:href="#me796891981" y="315"/>
      </g>
     </g>
     <g id="text_42">
      <!-- 0 -->
      <g transform="translate(672.452941 329.598437)scale(0.1 -0.1)">
       <use xlink:href="#DejaVuSans-48"/>
      </g>
     </g>
    </g>
    <g id="xtick_16">
     <g id="line2d_40">
      <g>
       <use style="stroke:#000000;stroke-width:0.8;" x="757.693015" xlink:href="#me796891981" y="315"/>
      </g>
     </g>
     <g id="text_43">
      <!-- 1 -->
      <g transform="translate(754.511765 329.598437)scale(0.1 -0.1)">
       <use xlink:href="#DejaVuSans-49"/>
      </g>
     </g>
    </g>
    <g id="xtick_17">
     <g id="line2d_41">
      <g>
       <use style="stroke:#000000;stroke-width:0.8;" x="839.751838" xlink:href="#me796891981" y="315"/>
      </g>
     </g>
     <g id="text_44">
      <!-- 2 -->
      <g transform="translate(836.570588 329.598437)scale(0.1 -0.1)">
       <use xlink:href="#DejaVuSans-50"/>
      </g>
     </g>
    </g>
    <g id="text_45">
     <!-- cluster -->
     <g transform="translate(740.689108 343.276562)scale(0.1 -0.1)">
      <use xlink:href="#DejaVuSans-99"/>
      <use x="54.980469" xlink:href="#DejaVuSans-108"/>
      <use x="82.763672" xlink:href="#DejaVuSans-117"/>
      <use x="146.142578" xlink:href="#DejaVuSans-115"/>
      <use x="198.242188" xlink:href="#DejaVuSans-116"/>
      <use x="237.451172" xlink:href="#DejaVuSans-101"/>
      <use x="298.974609" xlink:href="#DejaVuSans-114"/>
     </g>
    </g>
   </g>
   <g id="matplotlib.axis_6">
    <g id="ytick_16">
     <g id="line2d_42">
      <g>
       <use style="stroke:#000000;stroke-width:0.8;" x="634.604779" xlink:href="#meb03d5cc2d" y="305.149754"/>
      </g>
     </g>
     <g id="text_46">
      <!-- 0 -->
      <g transform="translate(621.242279 308.948973)scale(0.1 -0.1)">
       <use xlink:href="#DejaVuSans-48"/>
      </g>
     </g>
    </g>
    <g id="ytick_17">
     <g id="line2d_43">
      <g>
       <use style="stroke:#000000;stroke-width:0.8;" x="634.604779" xlink:href="#meb03d5cc2d" y="263.411425"/>
      </g>
     </g>
     <g id="text_47">
      <!-- 50 -->
      <g transform="translate(614.879779 267.210644)scale(0.1 -0.1)">
       <use xlink:href="#DejaVuSans-53"/>
       <use x="63.623047" xlink:href="#DejaVuSans-48"/>
      </g>
     </g>
    </g>
    <g id="ytick_18">
     <g id="line2d_44">
      <g>
       <use style="stroke:#000000;stroke-width:0.8;" x="634.604779" xlink:href="#meb03d5cc2d" y="221.673096"/>
      </g>
     </g>
     <g id="text_48">
      <!-- 100 -->
      <g transform="translate(608.517279 225.472315)scale(0.1 -0.1)">
       <use xlink:href="#DejaVuSans-49"/>
       <use x="63.623047" xlink:href="#DejaVuSans-48"/>
       <use x="127.246094" xlink:href="#DejaVuSans-48"/>
      </g>
     </g>
    </g>
    <g id="ytick_19">
     <g id="line2d_45">
      <g>
       <use style="stroke:#000000;stroke-width:0.8;" x="634.604779" xlink:href="#meb03d5cc2d" y="179.934767"/>
      </g>
     </g>
     <g id="text_49">
      <!-- 150 -->
      <g transform="translate(608.517279 183.733985)scale(0.1 -0.1)">
       <use xlink:href="#DejaVuSans-49"/>
       <use x="63.623047" xlink:href="#DejaVuSans-53"/>
       <use x="127.246094" xlink:href="#DejaVuSans-48"/>
      </g>
     </g>
    </g>
    <g id="ytick_20">
     <g id="line2d_46">
      <g>
       <use style="stroke:#000000;stroke-width:0.8;" x="634.604779" xlink:href="#meb03d5cc2d" y="138.196437"/>
      </g>
     </g>
     <g id="text_50">
      <!-- 200 -->
      <g transform="translate(608.517279 141.995656)scale(0.1 -0.1)">
       <use xlink:href="#DejaVuSans-50"/>
       <use x="63.623047" xlink:href="#DejaVuSans-48"/>
       <use x="127.246094" xlink:href="#DejaVuSans-48"/>
      </g>
     </g>
    </g>
    <g id="ytick_21">
     <g id="line2d_47">
      <g>
       <use style="stroke:#000000;stroke-width:0.8;" x="634.604779" xlink:href="#meb03d5cc2d" y="96.458108"/>
      </g>
     </g>
     <g id="text_51">
      <!-- 250 -->
      <g transform="translate(608.517279 100.257327)scale(0.1 -0.1)">
       <use xlink:href="#DejaVuSans-50"/>
       <use x="63.623047" xlink:href="#DejaVuSans-53"/>
       <use x="127.246094" xlink:href="#DejaVuSans-48"/>
      </g>
     </g>
    </g>
    <g id="ytick_22">
     <g id="line2d_48">
      <g>
       <use style="stroke:#000000;stroke-width:0.8;" x="634.604779" xlink:href="#meb03d5cc2d" y="54.719779"/>
      </g>
     </g>
     <g id="text_52">
      <!-- 300 -->
      <g transform="translate(608.517279 58.518998)scale(0.1 -0.1)">
       <use xlink:href="#DejaVuSans-51"/>
       <use x="63.623047" xlink:href="#DejaVuSans-48"/>
       <use x="127.246094" xlink:href="#DejaVuSans-48"/>
      </g>
     </g>
    </g>
    <g id="text_53">
     <!-- Recency -->
     <g transform="translate(602.437592 200.128906)rotate(-90)scale(0.1 -0.1)">
      <use xlink:href="#DejaVuSans-82"/>
      <use x="64.982422" xlink:href="#DejaVuSans-101"/>
      <use x="126.505859" xlink:href="#DejaVuSans-99"/>
      <use x="181.486328" xlink:href="#DejaVuSans-101"/>
      <use x="243.009766" xlink:href="#DejaVuSans-110"/>
      <use x="306.388672" xlink:href="#DejaVuSans-99"/>
      <use x="361.369141" xlink:href="#DejaVuSans-121"/>
     </g>
    </g>
   </g>
   <g id="line2d_49">
    <path clip-path="url(#p5c80869611)" d="M 675.634191 289.289189 
L 675.634191 302.645455 
" style="fill:none;stroke:#444444;stroke-linecap:square;stroke-width:1.5;"/>
   </g>
   <g id="line2d_50">
    <path clip-path="url(#p5c80869611)" d="M 675.634191 250.889926 
L 675.634191 210.82113 
" style="fill:none;stroke:#444444;stroke-linecap:square;stroke-width:1.5;"/>
   </g>
   <g id="line2d_51">
    <path clip-path="url(#p5c80869611)" d="M 659.222426 302.645455 
L 692.045956 302.645455 
" style="fill:none;stroke:#444444;stroke-linecap:square;stroke-width:1.5;"/>
   </g>
   <g id="line2d_52">
    <path clip-path="url(#p5c80869611)" d="M 659.222426 210.82113 
L 692.045956 210.82113 
" style="fill:none;stroke:#444444;stroke-linecap:square;stroke-width:1.5;"/>
   </g>
   <g id="line2d_53"/>
   <g id="line2d_54">
    <path clip-path="url(#p5c80869611)" d="M 757.693015 162.404668 
L 757.693015 199.134398 
" style="fill:none;stroke:#444444;stroke-linecap:square;stroke-width:1.5;"/>
   </g>
   <g id="line2d_55">
    <path clip-path="url(#p5c80869611)" d="M 757.693015 96.040725 
L 757.693015 55.554545 
" style="fill:none;stroke:#444444;stroke-linecap:square;stroke-width:1.5;"/>
   </g>
   <g id="line2d_56">
    <path clip-path="url(#p5c80869611)" d="M 741.28125 199.134398 
L 774.104779 199.134398 
" style="fill:none;stroke:#444444;stroke-linecap:square;stroke-width:1.5;"/>
   </g>
   <g id="line2d_57">
    <path clip-path="url(#p5c80869611)" d="M 741.28125 55.554545 
L 774.104779 55.554545 
" style="fill:none;stroke:#444444;stroke-linecap:square;stroke-width:1.5;"/>
   </g>
   <g id="line2d_58"/>
   <g id="line2d_59">
    <path clip-path="url(#p5c80869611)" d="M 839.751838 295.967322 
L 839.751838 302.645455 
" style="fill:none;stroke:#444444;stroke-linecap:square;stroke-width:1.5;"/>
   </g>
   <g id="line2d_60">
    <path clip-path="url(#p5c80869611)" d="M 839.751838 264.246192 
L 839.751838 216.664496 
" style="fill:none;stroke:#444444;stroke-linecap:square;stroke-width:1.5;"/>
   </g>
   <g id="line2d_61">
    <path clip-path="url(#p5c80869611)" d="M 823.340074 302.645455 
L 856.163603 302.645455 
" style="fill:none;stroke:#444444;stroke-linecap:square;stroke-width:1.5;"/>
   </g>
   <g id="line2d_62">
    <path clip-path="url(#p5c80869611)" d="M 823.340074 216.664496 
L 856.163603 216.664496 
" style="fill:none;stroke:#444444;stroke-linecap:square;stroke-width:1.5;"/>
   </g>
   <g id="line2d_63">
    <defs>
     <path d="M -0 3.535534 
L 2.12132 0 
L -0 -3.535534 
L -2.12132 -0 
z
" id="mcec38cc7fd" style="stroke:#444444;stroke-linejoin:miter;"/>
    </defs>
    <g clip-path="url(#p5c80869611)">
     <use style="fill:#444444;stroke:#444444;stroke-linejoin:miter;" x="839.751838" xlink:href="#mcec38cc7fd" y="214.994963"/>
     <use style="fill:#444444;stroke:#444444;stroke-linejoin:miter;" x="839.751838" xlink:href="#mcec38cc7fd" y="214.994963"/>
     <use style="fill:#444444;stroke:#444444;stroke-linejoin:miter;" x="839.751838" xlink:href="#mcec38cc7fd" y="215.82973"/>
     <use style="fill:#444444;stroke:#444444;stroke-linejoin:miter;" x="839.751838" xlink:href="#mcec38cc7fd" y="208.31683"/>
     <use style="fill:#444444;stroke:#444444;stroke-linejoin:miter;" x="839.751838" xlink:href="#mcec38cc7fd" y="209.986364"/>
     <use style="fill:#444444;stroke:#444444;stroke-linejoin:miter;" x="839.751838" xlink:href="#mcec38cc7fd" y="214.160197"/>
     <use style="fill:#444444;stroke:#444444;stroke-linejoin:miter;" x="839.751838" xlink:href="#mcec38cc7fd" y="209.986364"/>
     <use style="fill:#444444;stroke:#444444;stroke-linejoin:miter;" x="839.751838" xlink:href="#mcec38cc7fd" y="214.160197"/>
    </g>
   </g>
   <g id="line2d_64">
    <path clip-path="url(#p5c80869611)" d="M 642.810662 274.263391 
L 708.457721 274.263391 
" style="fill:none;stroke:#444444;stroke-linecap:square;stroke-width:1.5;"/>
   </g>
   <g id="line2d_65">
    <path clip-path="url(#p5c80869611)" d="M 724.869485 134.022604 
L 790.516544 134.022604 
" style="fill:none;stroke:#444444;stroke-linecap:square;stroke-width:1.5;"/>
   </g>
   <g id="line2d_66">
    <path clip-path="url(#p5c80869611)" d="M 806.928309 284.28059 
L 872.575368 284.28059 
" style="fill:none;stroke:#444444;stroke-linecap:square;stroke-width:1.5;"/>
   </g>
   <g id="patch_126">
    <path d="M 634.604779 315 
L 634.604779 43.2 
" style="fill:none;stroke:#000000;stroke-linecap:square;stroke-linejoin:miter;stroke-width:0.8;"/>
   </g>
   <g id="patch_127">
    <path d="M 880.78125 315 
L 880.78125 43.2 
" style="fill:none;stroke:#000000;stroke-linecap:square;stroke-linejoin:miter;stroke-width:0.8;"/>
   </g>
   <g id="patch_128">
    <path d="M 634.604779 315 
L 880.78125 315 
" style="fill:none;stroke:#000000;stroke-linecap:square;stroke-linejoin:miter;stroke-width:0.8;"/>
   </g>
   <g id="patch_129">
    <path d="M 634.604779 43.2 
L 880.78125 43.2 
" style="fill:none;stroke:#000000;stroke-linecap:square;stroke-linejoin:miter;stroke-width:0.8;"/>
   </g>
  </g>
  <g id="text_54">
   <!-- Recency -->
   <g transform="translate(406.723437 22.396875)scale(0.2 -0.2)">
    <use xlink:href="#DejaVuSans-82"/>
    <use x="64.982422" xlink:href="#DejaVuSans-101"/>
    <use x="126.505859" xlink:href="#DejaVuSans-99"/>
    <use x="181.486328" xlink:href="#DejaVuSans-101"/>
    <use x="243.009766" xlink:href="#DejaVuSans-110"/>
    <use x="306.388672" xlink:href="#DejaVuSans-99"/>
    <use x="361.369141" xlink:href="#DejaVuSans-121"/>
   </g>
  </g>
 </g>
 <defs>
  <clipPath id="pe0870c736b">
   <rect height="271.8" width="246.176471" x="43.78125" y="43.2"/>
  </clipPath>
  <clipPath id="p88147d3dcc">
   <rect height="271.8" width="246.176471" x="339.193015" y="43.2"/>
  </clipPath>
  <clipPath id="p5c80869611">
   <rect height="271.8" width="246.176471" x="634.604779" y="43.2"/>
  </clipPath>
 </defs>
</svg>
