<?xml version="1.0" encoding="utf-8" standalone="no"?>
<!DOCTYPE svg PUBLIC "-//W3C//DTD SVG 1.1//EN"
  "http://www.w3.org/Graphics/SVG/1.1/DTD/svg11.dtd">
<!-- Created with matplotlib (https://matplotlib.org/) -->
<svg height="355.678125pt" version="1.1" viewBox="0 0 795.6 355.678125" width="795.6pt" xmlns="http://www.w3.org/2000/svg" xmlns:xlink="http://www.w3.org/1999/xlink">
 <defs>
  <style type="text/css">
*{stroke-linecap:butt;stroke-linejoin:round;}
  </style>
 </defs>
 <g id="figure_1">
  <g id="patch_1">
   <path d="M 0 355.678125 
L 795.6 355.678125 
L 795.6 0 
L 0 0 
z
" style="fill:#ffffff;"/>
  </g>
  <g id="axes_1">
   <g id="text_1">
    <!-- Profiling MVC using Decision Tree -->
    <defs>
     <path d="M 19.671875 64.796875 
L 19.671875 37.40625 
L 32.078125 37.40625 
Q 38.96875 37.40625 42.71875 40.96875 
Q 46.484375 44.53125 46.484375 51.125 
Q 46.484375 57.671875 42.71875 61.234375 
Q 38.96875 64.796875 32.078125 64.796875 
z
M 9.8125 72.90625 
L 32.078125 72.90625 
Q 44.34375 72.90625 50.609375 67.359375 
Q 56.890625 61.8125 56.890625 51.125 
Q 56.890625 40.328125 50.609375 34.8125 
Q 44.34375 29.296875 32.078125 29.296875 
L 19.671875 29.296875 
L 19.671875 0 
L 9.8125 0 
z
" id="DejaVuSans-80"/>
     <path d="M 41.109375 46.296875 
Q 39.59375 47.171875 37.8125 47.578125 
Q 36.03125 48 33.890625 48 
Q 26.265625 48 22.1875 43.046875 
Q 18.109375 38.09375 18.109375 28.8125 
L 18.109375 0 
L 9.078125 0 
L 9.078125 54.6875 
L 18.109375 54.6875 
L 18.109375 46.1875 
Q 20.953125 51.171875 25.484375 53.578125 
Q 30.03125 56 36.53125 56 
Q 37.453125 56 38.578125 55.875 
Q 39.703125 55.765625 41.0625 55.515625 
z
" id="DejaVuSans-114"/>
     <path d="M 30.609375 48.390625 
Q 23.390625 48.390625 19.1875 42.75 
Q 14.984375 37.109375 14.984375 27.296875 
Q 14.984375 17.484375 19.15625 11.84375 
Q 23.34375 6.203125 30.609375 6.203125 
Q 37.796875 6.203125 41.984375 11.859375 
Q 46.1875 17.53125 46.1875 27.296875 
Q 46.1875 37.015625 41.984375 42.703125 
Q 37.796875 48.390625 30.609375 48.390625 
z
M 30.609375 56 
Q 42.328125 56 49.015625 48.375 
Q 55.71875 40.765625 55.71875 27.296875 
Q 55.71875 13.875 49.015625 6.21875 
Q 42.328125 -1.421875 30.609375 -1.421875 
Q 18.84375 -1.421875 12.171875 6.21875 
Q 5.515625 13.875 5.515625 27.296875 
Q 5.515625 40.765625 12.171875 48.375 
Q 18.84375 56 30.609375 56 
z
" id="DejaVuSans-111"/>
     <path d="M 37.109375 75.984375 
L 37.109375 68.5 
L 28.515625 68.5 
Q 23.6875 68.5 21.796875 66.546875 
Q 19.921875 64.59375 19.921875 59.515625 
L 19.921875 54.6875 
L 34.71875 54.6875 
L 34.71875 47.703125 
L 19.921875 47.703125 
L 19.921875 0 
L 10.890625 0 
L 10.890625 47.703125 
L 2.296875 47.703125 
L 2.296875 54.6875 
L 10.890625 54.6875 
L 10.890625 58.5 
Q 10.890625 67.625 15.140625 71.796875 
Q 19.390625 75.984375 28.609375 75.984375 
z
" id="DejaVuSans-102"/>
     <path d="M 9.421875 54.6875 
L 18.40625 54.6875 
L 18.40625 0 
L 9.421875 0 
z
M 9.421875 75.984375 
L 18.40625 75.984375 
L 18.40625 64.59375 
L 9.421875 64.59375 
z
" id="DejaVuSans-105"/>
     <path d="M 9.421875 75.984375 
L 18.40625 75.984375 
L 18.40625 0 
L 9.421875 0 
z
" id="DejaVuSans-108"/>
     <path d="M 54.890625 33.015625 
L 54.890625 0 
L 45.90625 0 
L 45.90625 32.71875 
Q 45.90625 40.484375 42.875 44.328125 
Q 39.84375 48.1875 33.796875 48.1875 
Q 26.515625 48.1875 22.3125 43.546875 
Q 18.109375 38.921875 18.109375 30.90625 
L 18.109375 0 
L 9.078125 0 
L 9.078125 54.6875 
L 18.109375 54.6875 
L 18.109375 46.1875 
Q 21.34375 51.125 25.703125 53.5625 
Q 30.078125 56 35.796875 56 
Q 45.21875 56 50.046875 50.171875 
Q 54.890625 44.34375 54.890625 33.015625 
z
" id="DejaVuSans-110"/>
     <path d="M 45.40625 27.984375 
Q 45.40625 37.75 41.375 43.109375 
Q 37.359375 48.484375 30.078125 48.484375 
Q 22.859375 48.484375 18.828125 43.109375 
Q 14.796875 37.75 14.796875 27.984375 
Q 14.796875 18.265625 18.828125 12.890625 
Q 22.859375 7.515625 30.078125 7.515625 
Q 37.359375 7.515625 41.375 12.890625 
Q 45.40625 18.265625 45.40625 27.984375 
z
M 54.390625 6.78125 
Q 54.390625 -7.171875 48.1875 -13.984375 
Q 42 -20.796875 29.203125 -20.796875 
Q 24.46875 -20.796875 20.265625 -20.09375 
Q 16.0625 -19.390625 12.109375 -17.921875 
L 12.109375 -9.1875 
Q 16.0625 -11.328125 19.921875 -12.34375 
Q 23.78125 -13.375 27.78125 -13.375 
Q 36.625 -13.375 41.015625 -8.765625 
Q 45.40625 -4.15625 45.40625 5.171875 
L 45.40625 9.625 
Q 42.625 4.78125 38.28125 2.390625 
Q 33.9375 0 27.875 0 
Q 17.828125 0 11.671875 7.65625 
Q 5.515625 15.328125 5.515625 27.984375 
Q 5.515625 40.671875 11.671875 48.328125 
Q 17.828125 56 27.875 56 
Q 33.9375 56 38.28125 53.609375 
Q 42.625 51.21875 45.40625 46.390625 
L 45.40625 54.6875 
L 54.390625 54.6875 
z
" id="DejaVuSans-103"/>
     <path id="DejaVuSans-32"/>
     <path d="M 9.8125 72.90625 
L 24.515625 72.90625 
L 43.109375 23.296875 
L 61.8125 72.90625 
L 76.515625 72.90625 
L 76.515625 0 
L 66.890625 0 
L 66.890625 64.015625 
L 48.09375 14.015625 
L 38.1875 14.015625 
L 19.390625 64.015625 
L 19.390625 0 
L 9.8125 0 
z
" id="DejaVuSans-77"/>
     <path d="M 28.609375 0 
L 0.78125 72.90625 
L 11.078125 72.90625 
L 34.1875 11.53125 
L 57.328125 72.90625 
L 67.578125 72.90625 
L 39.796875 0 
z
" id="DejaVuSans-86"/>
     <path d="M 64.40625 67.28125 
L 64.40625 56.890625 
Q 59.421875 61.53125 53.78125 63.8125 
Q 48.140625 66.109375 41.796875 66.109375 
Q 29.296875 66.109375 22.65625 58.46875 
Q 16.015625 50.828125 16.015625 36.375 
Q 16.015625 21.96875 22.65625 14.328125 
Q 29.296875 6.6875 41.796875 6.6875 
Q 48.140625 6.6875 53.78125 8.984375 
Q 59.421875 11.28125 64.40625 15.921875 
L 64.40625 5.609375 
Q 59.234375 2.09375 53.4375 0.328125 
Q 47.65625 -1.421875 41.21875 -1.421875 
Q 24.65625 -1.421875 15.125 8.703125 
Q 5.609375 18.84375 5.609375 36.375 
Q 5.609375 53.953125 15.125 64.078125 
Q 24.65625 74.21875 41.21875 74.21875 
Q 47.75 74.21875 53.53125 72.484375 
Q 59.328125 70.75 64.40625 67.28125 
z
" id="DejaVuSans-67"/>
     <path d="M 8.5 21.578125 
L 8.5 54.6875 
L 17.484375 54.6875 
L 17.484375 21.921875 
Q 17.484375 14.15625 20.5 10.265625 
Q 23.53125 6.390625 29.59375 6.390625 
Q 36.859375 6.390625 41.078125 11.03125 
Q 45.3125 15.671875 45.3125 23.6875 
L 45.3125 54.6875 
L 54.296875 54.6875 
L 54.296875 0 
L 45.3125 0 
L 45.3125 8.40625 
Q 42.046875 3.421875 37.71875 1 
Q 33.40625 -1.421875 27.6875 -1.421875 
Q 18.265625 -1.421875 13.375 4.4375 
Q 8.5 10.296875 8.5 21.578125 
z
M 31.109375 56 
z
" id="DejaVuSans-117"/>
     <path d="M 44.28125 53.078125 
L 44.28125 44.578125 
Q 40.484375 46.53125 36.375 47.5 
Q 32.28125 48.484375 27.875 48.484375 
Q 21.1875 48.484375 17.84375 46.4375 
Q 14.5 44.390625 14.5 40.28125 
Q 14.5 37.15625 16.890625 35.375 
Q 19.28125 33.59375 26.515625 31.984375 
L 29.59375 31.296875 
Q 39.15625 29.25 43.1875 25.515625 
Q 47.21875 21.78125 47.21875 15.09375 
Q 47.21875 7.46875 41.1875 3.015625 
Q 35.15625 -1.421875 24.609375 -1.421875 
Q 20.21875 -1.421875 15.453125 -0.5625 
Q 10.6875 0.296875 5.421875 2 
L 5.421875 11.28125 
Q 10.40625 8.6875 15.234375 7.390625 
Q 20.0625 6.109375 24.8125 6.109375 
Q 31.15625 6.109375 34.5625 8.28125 
Q 37.984375 10.453125 37.984375 14.40625 
Q 37.984375 18.0625 35.515625 20.015625 
Q 33.0625 21.96875 24.703125 23.78125 
L 21.578125 24.515625 
Q 13.234375 26.265625 9.515625 29.90625 
Q 5.8125 33.546875 5.8125 39.890625 
Q 5.8125 47.609375 11.28125 51.796875 
Q 16.75 56 26.8125 56 
Q 31.78125 56 36.171875 55.265625 
Q 40.578125 54.546875 44.28125 53.078125 
z
" id="DejaVuSans-115"/>
     <path d="M 19.671875 64.796875 
L 19.671875 8.109375 
L 31.59375 8.109375 
Q 46.6875 8.109375 53.6875 14.9375 
Q 60.6875 21.78125 60.6875 36.53125 
Q 60.6875 51.171875 53.6875 57.984375 
Q 46.6875 64.796875 31.59375 64.796875 
z
M 9.8125 72.90625 
L 30.078125 72.90625 
Q 51.265625 72.90625 61.171875 64.09375 
Q 71.09375 55.28125 71.09375 36.53125 
Q 71.09375 17.671875 61.125 8.828125 
Q 51.171875 0 30.078125 0 
L 9.8125 0 
z
" id="DejaVuSans-68"/>
     <path d="M 56.203125 29.59375 
L 56.203125 25.203125 
L 14.890625 25.203125 
Q 15.484375 15.921875 20.484375 11.0625 
Q 25.484375 6.203125 34.421875 6.203125 
Q 39.59375 6.203125 44.453125 7.46875 
Q 49.3125 8.734375 54.109375 11.28125 
L 54.109375 2.78125 
Q 49.265625 0.734375 44.1875 -0.34375 
Q 39.109375 -1.421875 33.890625 -1.421875 
Q 20.796875 -1.421875 13.15625 6.1875 
Q 5.515625 13.8125 5.515625 26.8125 
Q 5.515625 40.234375 12.765625 48.109375 
Q 20.015625 56 32.328125 56 
Q 43.359375 56 49.78125 48.890625 
Q 56.203125 41.796875 56.203125 29.59375 
z
M 47.21875 32.234375 
Q 47.125 39.59375 43.09375 43.984375 
Q 39.0625 48.390625 32.421875 48.390625 
Q 24.90625 48.390625 20.390625 44.140625 
Q 15.875 39.890625 15.1875 32.171875 
z
" id="DejaVuSans-101"/>
     <path d="M 48.78125 52.59375 
L 48.78125 44.1875 
Q 44.96875 46.296875 41.140625 47.34375 
Q 37.3125 48.390625 33.40625 48.390625 
Q 24.65625 48.390625 19.8125 42.84375 
Q 14.984375 37.3125 14.984375 27.296875 
Q 14.984375 17.28125 19.8125 11.734375 
Q 24.65625 6.203125 33.40625 6.203125 
Q 37.3125 6.203125 41.140625 7.25 
Q 44.96875 8.296875 48.78125 10.40625 
L 48.78125 2.09375 
Q 45.015625 0.34375 40.984375 -0.53125 
Q 36.96875 -1.421875 32.421875 -1.421875 
Q 20.0625 -1.421875 12.78125 6.34375 
Q 5.515625 14.109375 5.515625 27.296875 
Q 5.515625 40.671875 12.859375 48.328125 
Q 20.21875 56 33.015625 56 
Q 37.15625 56 41.109375 55.140625 
Q 45.0625 54.296875 48.78125 52.59375 
z
" id="DejaVuSans-99"/>
     <path d="M -0.296875 72.90625 
L 61.375 72.90625 
L 61.375 64.59375 
L 35.5 64.59375 
L 35.5 0 
L 25.59375 0 
L 25.59375 64.59375 
L -0.296875 64.59375 
z
" id="DejaVuSans-84"/>
    </defs>
    <g transform="translate(298.215937 16.318125)scale(0.12 -0.12)">
     <use xlink:href="#DejaVuSans-80"/>
     <use x="58.552734" xlink:href="#DejaVuSans-114"/>
     <use x="97.416016" xlink:href="#DejaVuSans-111"/>
     <use x="158.597656" xlink:href="#DejaVuSans-102"/>
     <use x="193.802734" xlink:href="#DejaVuSans-105"/>
     <use x="221.585938" xlink:href="#DejaVuSans-108"/>
     <use x="249.369141" xlink:href="#DejaVuSans-105"/>
     <use x="277.152344" xlink:href="#DejaVuSans-110"/>
     <use x="340.53125" xlink:href="#DejaVuSans-103"/>
     <use x="404.007812" xlink:href="#DejaVuSans-32"/>
     <use x="435.794922" xlink:href="#DejaVuSans-77"/>
     <use x="522.074219" xlink:href="#DejaVuSans-86"/>
     <use x="590.482422" xlink:href="#DejaVuSans-67"/>
     <use x="660.306641" xlink:href="#DejaVuSans-32"/>
     <use x="692.09375" xlink:href="#DejaVuSans-117"/>
     <use x="755.472656" xlink:href="#DejaVuSans-115"/>
     <use x="807.572266" xlink:href="#DejaVuSans-105"/>
     <use x="835.355469" xlink:href="#DejaVuSans-110"/>
     <use x="898.734375" xlink:href="#DejaVuSans-103"/>
     <use x="962.210938" xlink:href="#DejaVuSans-32"/>
     <use x="993.998047" xlink:href="#DejaVuSans-68"/>
     <use x="1071" xlink:href="#DejaVuSans-101"/>
     <use x="1132.523438" xlink:href="#DejaVuSans-99"/>
     <use x="1187.503906" xlink:href="#DejaVuSans-105"/>
     <use x="1215.287109" xlink:href="#DejaVuSans-115"/>
     <use x="1267.386719" xlink:href="#DejaVuSans-105"/>
     <use x="1295.169922" xlink:href="#DejaVuSans-111"/>
     <use x="1356.351562" xlink:href="#DejaVuSans-110"/>
     <use x="1419.730469" xlink:href="#DejaVuSans-32"/>
     <use x="1451.517578" xlink:href="#DejaVuSans-84"/>
     <use x="1497.851562" xlink:href="#DejaVuSans-114"/>
     <use x="1536.714844" xlink:href="#DejaVuSans-101"/>
     <use x="1598.238281" xlink:href="#DejaVuSans-101"/>
    </g>
   </g>
   <g id="patch_2">
    <path d="M 90.612192 284.771472 
Q 113.032733 256.688969 136.150842 227.732738 
" style="fill:none;stroke:#000000;stroke-linecap:round;"/>
    <path d="M 93.778862 283.306136 
L 90.612192 284.771472 
L 91.339925 281.358934 
" style="fill:none;stroke:#000000;stroke-linecap:round;"/>
   </g>
   <g id="text_2">
    <g id="patch_3">
     <path d="M 34.84007 327.709795 
L 109.75993 327.709795 
L 109.75993 287.706455 
L 34.84007 287.706455 
z
" style="fill:#e5833d;stroke:#000000;stroke-linejoin:miter;"/>
    </g>
    <!-- entropy = 0.133 -->
    <defs>
     <path d="M 18.3125 70.21875 
L 18.3125 54.6875 
L 36.8125 54.6875 
L 36.8125 47.703125 
L 18.3125 47.703125 
L 18.3125 18.015625 
Q 18.3125 11.328125 20.140625 9.421875 
Q 21.96875 7.515625 27.59375 7.515625 
L 36.8125 7.515625 
L 36.8125 0 
L 27.59375 0 
Q 17.1875 0 13.234375 3.875 
Q 9.28125 7.765625 9.28125 18.015625 
L 9.28125 47.703125 
L 2.6875 47.703125 
L 2.6875 54.6875 
L 9.28125 54.6875 
L 9.28125 70.21875 
z
" id="DejaVuSans-116"/>
     <path d="M 18.109375 8.203125 
L 18.109375 -20.796875 
L 9.078125 -20.796875 
L 9.078125 54.6875 
L 18.109375 54.6875 
L 18.109375 46.390625 
Q 20.953125 51.265625 25.265625 53.625 
Q 29.59375 56 35.59375 56 
Q 45.5625 56 51.78125 48.09375 
Q 58.015625 40.1875 58.015625 27.296875 
Q 58.015625 14.40625 51.78125 6.484375 
Q 45.5625 -1.421875 35.59375 -1.421875 
Q 29.59375 -1.421875 25.265625 0.953125 
Q 20.953125 3.328125 18.109375 8.203125 
z
M 48.6875 27.296875 
Q 48.6875 37.203125 44.609375 42.84375 
Q 40.53125 48.484375 33.40625 48.484375 
Q 26.265625 48.484375 22.1875 42.84375 
Q 18.109375 37.203125 18.109375 27.296875 
Q 18.109375 17.390625 22.1875 11.75 
Q 26.265625 6.109375 33.40625 6.109375 
Q 40.53125 6.109375 44.609375 11.75 
Q 48.6875 17.390625 48.6875 27.296875 
z
" id="DejaVuSans-112"/>
     <path d="M 32.171875 -5.078125 
Q 28.375 -14.84375 24.75 -17.8125 
Q 21.140625 -20.796875 15.09375 -20.796875 
L 7.90625 -20.796875 
L 7.90625 -13.28125 
L 13.1875 -13.28125 
Q 16.890625 -13.28125 18.9375 -11.515625 
Q 21 -9.765625 23.484375 -3.21875 
L 25.09375 0.875 
L 2.984375 54.6875 
L 12.5 54.6875 
L 29.59375 11.921875 
L 46.6875 54.6875 
L 56.203125 54.6875 
z
" id="DejaVuSans-121"/>
     <path d="M 10.59375 45.40625 
L 73.1875 45.40625 
L 73.1875 37.203125 
L 10.59375 37.203125 
z
M 10.59375 25.484375 
L 73.1875 25.484375 
L 73.1875 17.1875 
L 10.59375 17.1875 
z
" id="DejaVuSans-61"/>
     <path d="M 31.78125 66.40625 
Q 24.171875 66.40625 20.328125 58.90625 
Q 16.5 51.421875 16.5 36.375 
Q 16.5 21.390625 20.328125 13.890625 
Q 24.171875 6.390625 31.78125 6.390625 
Q 39.453125 6.390625 43.28125 13.890625 
Q 47.125 21.390625 47.125 36.375 
Q 47.125 51.421875 43.28125 58.90625 
Q 39.453125 66.40625 31.78125 66.40625 
z
M 31.78125 74.21875 
Q 44.046875 74.21875 50.515625 64.515625 
Q 56.984375 54.828125 56.984375 36.375 
Q 56.984375 17.96875 50.515625 8.265625 
Q 44.046875 -1.421875 31.78125 -1.421875 
Q 19.53125 -1.421875 13.0625 8.265625 
Q 6.59375 17.96875 6.59375 36.375 
Q 6.59375 54.828125 13.0625 64.515625 
Q 19.53125 74.21875 31.78125 74.21875 
z
" id="DejaVuSans-48"/>
     <path d="M 10.6875 12.40625 
L 21 12.40625 
L 21 0 
L 10.6875 0 
z
" id="DejaVuSans-46"/>
     <path d="M 12.40625 8.296875 
L 28.515625 8.296875 
L 28.515625 63.921875 
L 10.984375 60.40625 
L 10.984375 69.390625 
L 28.421875 72.90625 
L 38.28125 72.90625 
L 38.28125 8.296875 
L 54.390625 8.296875 
L 54.390625 0 
L 12.40625 0 
z
" id="DejaVuSans-49"/>
     <path d="M 40.578125 39.3125 
Q 47.65625 37.796875 51.625 33 
Q 55.609375 28.21875 55.609375 21.1875 
Q 55.609375 10.40625 48.1875 4.484375 
Q 40.765625 -1.421875 27.09375 -1.421875 
Q 22.515625 -1.421875 17.65625 -0.515625 
Q 12.796875 0.390625 7.625 2.203125 
L 7.625 11.71875 
Q 11.71875 9.328125 16.59375 8.109375 
Q 21.484375 6.890625 26.8125 6.890625 
Q 36.078125 6.890625 40.9375 10.546875 
Q 45.796875 14.203125 45.796875 21.1875 
Q 45.796875 27.640625 41.28125 31.265625 
Q 36.765625 34.90625 28.71875 34.90625 
L 20.21875 34.90625 
L 20.21875 43.015625 
L 29.109375 43.015625 
Q 36.375 43.015625 40.234375 45.921875 
Q 44.09375 48.828125 44.09375 54.296875 
Q 44.09375 59.90625 40.109375 62.90625 
Q 36.140625 65.921875 28.71875 65.921875 
Q 24.65625 65.921875 20.015625 65.03125 
Q 15.375 64.15625 9.8125 62.3125 
L 9.8125 71.09375 
Q 15.4375 72.65625 20.34375 73.4375 
Q 25.25 74.21875 29.59375 74.21875 
Q 40.828125 74.21875 47.359375 69.109375 
Q 53.90625 64.015625 53.90625 55.328125 
Q 53.90625 49.265625 50.4375 45.09375 
Q 46.96875 40.921875 40.578125 39.3125 
z
" id="DejaVuSans-51"/>
    </defs>
    <g transform="translate(40.2925 296.755842)scale(0.078022 -0.078022)">
     <use xlink:href="#DejaVuSans-101"/>
     <use x="61.523438" xlink:href="#DejaVuSans-110"/>
     <use x="124.902344" xlink:href="#DejaVuSans-116"/>
     <use x="164.111328" xlink:href="#DejaVuSans-114"/>
     <use x="202.974609" xlink:href="#DejaVuSans-111"/>
     <use x="264.15625" xlink:href="#DejaVuSans-112"/>
     <use x="327.632812" xlink:href="#DejaVuSans-121"/>
     <use x="386.8125" xlink:href="#DejaVuSans-32"/>
     <use x="418.599609" xlink:href="#DejaVuSans-61"/>
     <use x="502.388672" xlink:href="#DejaVuSans-32"/>
     <use x="534.175781" xlink:href="#DejaVuSans-48"/>
     <use x="597.798828" xlink:href="#DejaVuSans-46"/>
     <use x="629.585938" xlink:href="#DejaVuSans-49"/>
     <use x="693.208984" xlink:href="#DejaVuSans-51"/>
     <use x="756.832031" xlink:href="#DejaVuSans-51"/>
    </g>
    <!-- samples = 809 -->
    <defs>
     <path d="M 34.28125 27.484375 
Q 23.390625 27.484375 19.1875 25 
Q 14.984375 22.515625 14.984375 16.5 
Q 14.984375 11.71875 18.140625 8.90625 
Q 21.296875 6.109375 26.703125 6.109375 
Q 34.1875 6.109375 38.703125 11.40625 
Q 43.21875 16.703125 43.21875 25.484375 
L 43.21875 27.484375 
z
M 52.203125 31.203125 
L 52.203125 0 
L 43.21875 0 
L 43.21875 8.296875 
Q 40.140625 3.328125 35.546875 0.953125 
Q 30.953125 -1.421875 24.3125 -1.421875 
Q 15.921875 -1.421875 10.953125 3.296875 
Q 6 8.015625 6 15.921875 
Q 6 25.140625 12.171875 29.828125 
Q 18.359375 34.515625 30.609375 34.515625 
L 43.21875 34.515625 
L 43.21875 35.40625 
Q 43.21875 41.609375 39.140625 45 
Q 35.0625 48.390625 27.6875 48.390625 
Q 23 48.390625 18.546875 47.265625 
Q 14.109375 46.140625 10.015625 43.890625 
L 10.015625 52.203125 
Q 14.9375 54.109375 19.578125 55.046875 
Q 24.21875 56 28.609375 56 
Q 40.484375 56 46.34375 49.84375 
Q 52.203125 43.703125 52.203125 31.203125 
z
" id="DejaVuSans-97"/>
     <path d="M 52 44.1875 
Q 55.375 50.25 60.0625 53.125 
Q 64.75 56 71.09375 56 
Q 79.640625 56 84.28125 50.015625 
Q 88.921875 44.046875 88.921875 33.015625 
L 88.921875 0 
L 79.890625 0 
L 79.890625 32.71875 
Q 79.890625 40.578125 77.09375 44.375 
Q 74.3125 48.1875 68.609375 48.1875 
Q 61.625 48.1875 57.5625 43.546875 
Q 53.515625 38.921875 53.515625 30.90625 
L 53.515625 0 
L 44.484375 0 
L 44.484375 32.71875 
Q 44.484375 40.625 41.703125 44.40625 
Q 38.921875 48.1875 33.109375 48.1875 
Q 26.21875 48.1875 22.15625 43.53125 
Q 18.109375 38.875 18.109375 30.90625 
L 18.109375 0 
L 9.078125 0 
L 9.078125 54.6875 
L 18.109375 54.6875 
L 18.109375 46.1875 
Q 21.1875 51.21875 25.484375 53.609375 
Q 29.78125 56 35.6875 56 
Q 41.65625 56 45.828125 52.96875 
Q 50 49.953125 52 44.1875 
z
" id="DejaVuSans-109"/>
     <path d="M 31.78125 34.625 
Q 24.75 34.625 20.71875 30.859375 
Q 16.703125 27.09375 16.703125 20.515625 
Q 16.703125 13.921875 20.71875 10.15625 
Q 24.75 6.390625 31.78125 6.390625 
Q 38.8125 6.390625 42.859375 10.171875 
Q 46.921875 13.96875 46.921875 20.515625 
Q 46.921875 27.09375 42.890625 30.859375 
Q 38.875 34.625 31.78125 34.625 
z
M 21.921875 38.8125 
Q 15.578125 40.375 12.03125 44.71875 
Q 8.5 49.078125 8.5 55.328125 
Q 8.5 64.0625 14.71875 69.140625 
Q 20.953125 74.21875 31.78125 74.21875 
Q 42.671875 74.21875 48.875 69.140625 
Q 55.078125 64.0625 55.078125 55.328125 
Q 55.078125 49.078125 51.53125 44.71875 
Q 48 40.375 41.703125 38.8125 
Q 48.828125 37.15625 52.796875 32.3125 
Q 56.78125 27.484375 56.78125 20.515625 
Q 56.78125 9.90625 50.3125 4.234375 
Q 43.84375 -1.421875 31.78125 -1.421875 
Q 19.734375 -1.421875 13.25 4.234375 
Q 6.78125 9.90625 6.78125 20.515625 
Q 6.78125 27.484375 10.78125 32.3125 
Q 14.796875 37.15625 21.921875 38.8125 
z
M 18.3125 54.390625 
Q 18.3125 48.734375 21.84375 45.5625 
Q 25.390625 42.390625 31.78125 42.390625 
Q 38.140625 42.390625 41.71875 45.5625 
Q 45.3125 48.734375 45.3125 54.390625 
Q 45.3125 60.0625 41.71875 63.234375 
Q 38.140625 66.40625 31.78125 66.40625 
Q 25.390625 66.40625 21.84375 63.234375 
Q 18.3125 60.0625 18.3125 54.390625 
z
" id="DejaVuSans-56"/>
     <path d="M 10.984375 1.515625 
L 10.984375 10.5 
Q 14.703125 8.734375 18.5 7.8125 
Q 22.3125 6.890625 25.984375 6.890625 
Q 35.75 6.890625 40.890625 13.453125 
Q 46.046875 20.015625 46.78125 33.40625 
Q 43.953125 29.203125 39.59375 26.953125 
Q 35.25 24.703125 29.984375 24.703125 
Q 19.046875 24.703125 12.671875 31.3125 
Q 6.296875 37.9375 6.296875 49.421875 
Q 6.296875 60.640625 12.9375 67.421875 
Q 19.578125 74.21875 30.609375 74.21875 
Q 43.265625 74.21875 49.921875 64.515625 
Q 56.59375 54.828125 56.59375 36.375 
Q 56.59375 19.140625 48.40625 8.859375 
Q 40.234375 -1.421875 26.421875 -1.421875 
Q 22.703125 -1.421875 18.890625 -0.6875 
Q 15.09375 0.046875 10.984375 1.515625 
z
M 30.609375 32.421875 
Q 37.25 32.421875 41.125 36.953125 
Q 45.015625 41.5 45.015625 49.421875 
Q 45.015625 57.28125 41.125 61.84375 
Q 37.25 66.40625 30.609375 66.40625 
Q 23.96875 66.40625 20.09375 61.84375 
Q 16.21875 57.28125 16.21875 49.421875 
Q 16.21875 41.5 20.09375 36.953125 
Q 23.96875 32.421875 30.609375 32.421875 
z
" id="DejaVuSans-57"/>
    </defs>
    <g transform="translate(42.889185 305.492653)scale(0.078022 -0.078022)">
     <use xlink:href="#DejaVuSans-115"/>
     <use x="52.099609" xlink:href="#DejaVuSans-97"/>
     <use x="113.378906" xlink:href="#DejaVuSans-109"/>
     <use x="210.791016" xlink:href="#DejaVuSans-112"/>
     <use x="274.267578" xlink:href="#DejaVuSans-108"/>
     <use x="302.050781" xlink:href="#DejaVuSans-101"/>
     <use x="363.574219" xlink:href="#DejaVuSans-115"/>
     <use x="415.673828" xlink:href="#DejaVuSans-32"/>
     <use x="447.460938" xlink:href="#DejaVuSans-61"/>
     <use x="531.25" xlink:href="#DejaVuSans-32"/>
     <use x="563.037109" xlink:href="#DejaVuSans-56"/>
     <use x="626.660156" xlink:href="#DejaVuSans-48"/>
     <use x="690.283203" xlink:href="#DejaVuSans-57"/>
    </g>
    <!-- value = [794, 15] -->
    <defs>
     <path d="M 2.984375 54.6875 
L 12.5 54.6875 
L 29.59375 8.796875 
L 46.6875 54.6875 
L 56.203125 54.6875 
L 35.6875 0 
L 23.484375 0 
z
" id="DejaVuSans-118"/>
     <path d="M 8.59375 75.984375 
L 29.296875 75.984375 
L 29.296875 69 
L 17.578125 69 
L 17.578125 -6.203125 
L 29.296875 -6.203125 
L 29.296875 -13.1875 
L 8.59375 -13.1875 
z
" id="DejaVuSans-91"/>
     <path d="M 8.203125 72.90625 
L 55.078125 72.90625 
L 55.078125 68.703125 
L 28.609375 0 
L 18.3125 0 
L 43.21875 64.59375 
L 8.203125 64.59375 
z
" id="DejaVuSans-55"/>
     <path d="M 37.796875 64.3125 
L 12.890625 25.390625 
L 37.796875 25.390625 
z
M 35.203125 72.90625 
L 47.609375 72.90625 
L 47.609375 25.390625 
L 58.015625 25.390625 
L 58.015625 17.1875 
L 47.609375 17.1875 
L 47.609375 0 
L 37.796875 0 
L 37.796875 17.1875 
L 4.890625 17.1875 
L 4.890625 26.703125 
z
" id="DejaVuSans-52"/>
     <path d="M 11.71875 12.40625 
L 22.015625 12.40625 
L 22.015625 4 
L 14.015625 -11.625 
L 7.71875 -11.625 
L 11.71875 4 
z
" id="DejaVuSans-44"/>
     <path d="M 10.796875 72.90625 
L 49.515625 72.90625 
L 49.515625 64.59375 
L 19.828125 64.59375 
L 19.828125 46.734375 
Q 21.96875 47.46875 24.109375 47.828125 
Q 26.265625 48.1875 28.421875 48.1875 
Q 40.625 48.1875 47.75 41.5 
Q 54.890625 34.8125 54.890625 23.390625 
Q 54.890625 11.625 47.5625 5.09375 
Q 40.234375 -1.421875 26.90625 -1.421875 
Q 22.3125 -1.421875 17.546875 -0.640625 
Q 12.796875 0.140625 7.71875 1.703125 
L 7.71875 11.625 
Q 12.109375 9.234375 16.796875 8.0625 
Q 21.484375 6.890625 26.703125 6.890625 
Q 35.15625 6.890625 40.078125 11.328125 
Q 45.015625 15.765625 45.015625 23.390625 
Q 45.015625 31 40.078125 35.4375 
Q 35.15625 39.890625 26.703125 39.890625 
Q 22.75 39.890625 18.8125 39.015625 
Q 14.890625 38.140625 10.796875 36.28125 
z
" id="DejaVuSans-53"/>
     <path d="M 30.421875 75.984375 
L 30.421875 -13.1875 
L 9.71875 -13.1875 
L 9.71875 -6.203125 
L 21.390625 -6.203125 
L 21.390625 69 
L 9.71875 69 
L 9.71875 75.984375 
z
" id="DejaVuSans-93"/>
    </defs>
    <g transform="translate(37.960969 314.229463)scale(0.078022 -0.078022)">
     <use xlink:href="#DejaVuSans-118"/>
     <use x="59.179688" xlink:href="#DejaVuSans-97"/>
     <use x="120.458984" xlink:href="#DejaVuSans-108"/>
     <use x="148.242188" xlink:href="#DejaVuSans-117"/>
     <use x="211.621094" xlink:href="#DejaVuSans-101"/>
     <use x="273.144531" xlink:href="#DejaVuSans-32"/>
     <use x="304.931641" xlink:href="#DejaVuSans-61"/>
     <use x="388.720703" xlink:href="#DejaVuSans-32"/>
     <use x="420.507812" xlink:href="#DejaVuSans-91"/>
     <use x="459.521484" xlink:href="#DejaVuSans-55"/>
     <use x="523.144531" xlink:href="#DejaVuSans-57"/>
     <use x="586.767578" xlink:href="#DejaVuSans-52"/>
     <use x="650.390625" xlink:href="#DejaVuSans-44"/>
     <use x="682.177734" xlink:href="#DejaVuSans-32"/>
     <use x="713.964844" xlink:href="#DejaVuSans-49"/>
     <use x="777.587891" xlink:href="#DejaVuSans-53"/>
     <use x="841.210938" xlink:href="#DejaVuSans-93"/>
    </g>
    <!-- class = Not MVC -->
    <defs>
     <path d="M 9.8125 72.90625 
L 23.09375 72.90625 
L 55.421875 11.921875 
L 55.421875 72.90625 
L 64.984375 72.90625 
L 64.984375 0 
L 51.703125 0 
L 19.390625 60.984375 
L 19.390625 0 
L 9.8125 0 
z
" id="DejaVuSans-78"/>
    </defs>
    <g transform="translate(40.034051 322.966273)scale(0.078022 -0.078022)">
     <use xlink:href="#DejaVuSans-99"/>
     <use x="54.980469" xlink:href="#DejaVuSans-108"/>
     <use x="82.763672" xlink:href="#DejaVuSans-97"/>
     <use x="144.042969" xlink:href="#DejaVuSans-115"/>
     <use x="196.142578" xlink:href="#DejaVuSans-115"/>
     <use x="248.242188" xlink:href="#DejaVuSans-32"/>
     <use x="280.029297" xlink:href="#DejaVuSans-61"/>
     <use x="363.818359" xlink:href="#DejaVuSans-32"/>
     <use x="395.605469" xlink:href="#DejaVuSans-78"/>
     <use x="470.410156" xlink:href="#DejaVuSans-111"/>
     <use x="531.591797" xlink:href="#DejaVuSans-116"/>
     <use x="570.800781" xlink:href="#DejaVuSans-32"/>
     <use x="602.587891" xlink:href="#DejaVuSans-77"/>
     <use x="688.867188" xlink:href="#DejaVuSans-86"/>
     <use x="757.275391" xlink:href="#DejaVuSans-67"/>
    </g>
   </g>
   <g id="patch_4">
    <path d="M 184.187808 284.771472 
Q 161.767267 256.688969 138.649158 227.732738 
" style="fill:none;stroke:#000000;stroke-linecap:round;"/>
    <path d="M 183.460075 281.358934 
L 184.187808 284.771472 
L 181.021138 283.306136 
" style="fill:none;stroke:#000000;stroke-linecap:round;"/>
   </g>
   <g id="text_3">
    <g id="patch_5">
     <path d="M 165.04007 327.709795 
L 239.95993 327.709795 
L 239.95993 287.706455 
L 165.04007 287.706455 
z
" style="fill:#e88f4f;stroke:#000000;stroke-linejoin:miter;"/>
    </g>
    <!-- entropy = 0.475 -->
    <g transform="translate(170.4925 296.755842)scale(0.078022 -0.078022)">
     <use xlink:href="#DejaVuSans-101"/>
     <use x="61.523438" xlink:href="#DejaVuSans-110"/>
     <use x="124.902344" xlink:href="#DejaVuSans-116"/>
     <use x="164.111328" xlink:href="#DejaVuSans-114"/>
     <use x="202.974609" xlink:href="#DejaVuSans-111"/>
     <use x="264.15625" xlink:href="#DejaVuSans-112"/>
     <use x="327.632812" xlink:href="#DejaVuSans-121"/>
     <use x="386.8125" xlink:href="#DejaVuSans-32"/>
     <use x="418.599609" xlink:href="#DejaVuSans-61"/>
     <use x="502.388672" xlink:href="#DejaVuSans-32"/>
     <use x="534.175781" xlink:href="#DejaVuSans-48"/>
     <use x="597.798828" xlink:href="#DejaVuSans-46"/>
     <use x="629.585938" xlink:href="#DejaVuSans-52"/>
     <use x="693.208984" xlink:href="#DejaVuSans-55"/>
     <use x="756.832031" xlink:href="#DejaVuSans-53"/>
    </g>
    <!-- samples = 314 -->
    <g transform="translate(173.089185 305.492653)scale(0.078022 -0.078022)">
     <use xlink:href="#DejaVuSans-115"/>
     <use x="52.099609" xlink:href="#DejaVuSans-97"/>
     <use x="113.378906" xlink:href="#DejaVuSans-109"/>
     <use x="210.791016" xlink:href="#DejaVuSans-112"/>
     <use x="274.267578" xlink:href="#DejaVuSans-108"/>
     <use x="302.050781" xlink:href="#DejaVuSans-101"/>
     <use x="363.574219" xlink:href="#DejaVuSans-115"/>
     <use x="415.673828" xlink:href="#DejaVuSans-32"/>
     <use x="447.460938" xlink:href="#DejaVuSans-61"/>
     <use x="531.25" xlink:href="#DejaVuSans-32"/>
     <use x="563.037109" xlink:href="#DejaVuSans-51"/>
     <use x="626.660156" xlink:href="#DejaVuSans-49"/>
     <use x="690.283203" xlink:href="#DejaVuSans-52"/>
    </g>
    <!-- value = [282, 32] -->
    <defs>
     <path d="M 19.1875 8.296875 
L 53.609375 8.296875 
L 53.609375 0 
L 7.328125 0 
L 7.328125 8.296875 
Q 12.9375 14.109375 22.625 23.890625 
Q 32.328125 33.6875 34.8125 36.53125 
Q 39.546875 41.84375 41.421875 45.53125 
Q 43.3125 49.21875 43.3125 52.78125 
Q 43.3125 58.59375 39.234375 62.25 
Q 35.15625 65.921875 28.609375 65.921875 
Q 23.96875 65.921875 18.8125 64.3125 
Q 13.671875 62.703125 7.8125 59.421875 
L 7.8125 69.390625 
Q 13.765625 71.78125 18.9375 73 
Q 24.125 74.21875 28.421875 74.21875 
Q 39.75 74.21875 46.484375 68.546875 
Q 53.21875 62.890625 53.21875 53.421875 
Q 53.21875 48.921875 51.53125 44.890625 
Q 49.859375 40.875 45.40625 35.40625 
Q 44.1875 33.984375 37.640625 27.21875 
Q 31.109375 20.453125 19.1875 8.296875 
z
" id="DejaVuSans-50"/>
    </defs>
    <g transform="translate(168.160969 314.229463)scale(0.078022 -0.078022)">
     <use xlink:href="#DejaVuSans-118"/>
     <use x="59.179688" xlink:href="#DejaVuSans-97"/>
     <use x="120.458984" xlink:href="#DejaVuSans-108"/>
     <use x="148.242188" xlink:href="#DejaVuSans-117"/>
     <use x="211.621094" xlink:href="#DejaVuSans-101"/>
     <use x="273.144531" xlink:href="#DejaVuSans-32"/>
     <use x="304.931641" xlink:href="#DejaVuSans-61"/>
     <use x="388.720703" xlink:href="#DejaVuSans-32"/>
     <use x="420.507812" xlink:href="#DejaVuSans-91"/>
     <use x="459.521484" xlink:href="#DejaVuSans-50"/>
     <use x="523.144531" xlink:href="#DejaVuSans-56"/>
     <use x="586.767578" xlink:href="#DejaVuSans-50"/>
     <use x="650.390625" xlink:href="#DejaVuSans-44"/>
     <use x="682.177734" xlink:href="#DejaVuSans-32"/>
     <use x="713.964844" xlink:href="#DejaVuSans-51"/>
     <use x="777.587891" xlink:href="#DejaVuSans-50"/>
     <use x="841.210938" xlink:href="#DejaVuSans-93"/>
    </g>
    <!-- class = Not MVC -->
    <g transform="translate(170.234051 322.966273)scale(0.078022 -0.078022)">
     <use xlink:href="#DejaVuSans-99"/>
     <use x="54.980469" xlink:href="#DejaVuSans-108"/>
     <use x="82.763672" xlink:href="#DejaVuSans-97"/>
     <use x="144.042969" xlink:href="#DejaVuSans-115"/>
     <use x="196.142578" xlink:href="#DejaVuSans-115"/>
     <use x="248.242188" xlink:href="#DejaVuSans-32"/>
     <use x="280.029297" xlink:href="#DejaVuSans-61"/>
     <use x="363.818359" xlink:href="#DejaVuSans-32"/>
     <use x="395.605469" xlink:href="#DejaVuSans-78"/>
     <use x="470.410156" xlink:href="#DejaVuSans-111"/>
     <use x="531.591797" xlink:href="#DejaVuSans-116"/>
     <use x="570.800781" xlink:href="#DejaVuSans-32"/>
     <use x="602.587891" xlink:href="#DejaVuSans-77"/>
     <use x="688.867188" xlink:href="#DejaVuSans-86"/>
     <use x="757.275391" xlink:href="#DejaVuSans-67"/>
    </g>
   </g>
   <g id="patch_6">
    <path d="M 351.012192 284.771472 
Q 373.432733 256.688969 396.550842 227.732738 
" style="fill:none;stroke:#000000;stroke-linecap:round;"/>
    <path d="M 354.178862 283.306136 
L 351.012192 284.771472 
L 351.739925 281.358934 
" style="fill:none;stroke:#000000;stroke-linecap:round;"/>
   </g>
   <g id="text_4">
    <g id="patch_7">
     <path d="M 295.24007 327.709795 
L 370.15993 327.709795 
L 370.15993 287.706455 
L 295.24007 287.706455 
z
" style="fill:#e89152;stroke:#000000;stroke-linejoin:miter;"/>
    </g>
    <!-- entropy = 0.507 -->
    <g transform="translate(300.6925 296.755842)scale(0.078022 -0.078022)">
     <use xlink:href="#DejaVuSans-101"/>
     <use x="61.523438" xlink:href="#DejaVuSans-110"/>
     <use x="124.902344" xlink:href="#DejaVuSans-116"/>
     <use x="164.111328" xlink:href="#DejaVuSans-114"/>
     <use x="202.974609" xlink:href="#DejaVuSans-111"/>
     <use x="264.15625" xlink:href="#DejaVuSans-112"/>
     <use x="327.632812" xlink:href="#DejaVuSans-121"/>
     <use x="386.8125" xlink:href="#DejaVuSans-32"/>
     <use x="418.599609" xlink:href="#DejaVuSans-61"/>
     <use x="502.388672" xlink:href="#DejaVuSans-32"/>
     <use x="534.175781" xlink:href="#DejaVuSans-48"/>
     <use x="597.798828" xlink:href="#DejaVuSans-46"/>
     <use x="629.585938" xlink:href="#DejaVuSans-53"/>
     <use x="693.208984" xlink:href="#DejaVuSans-48"/>
     <use x="756.832031" xlink:href="#DejaVuSans-55"/>
    </g>
    <!-- samples = 694 -->
    <defs>
     <path d="M 33.015625 40.375 
Q 26.375 40.375 22.484375 35.828125 
Q 18.609375 31.296875 18.609375 23.390625 
Q 18.609375 15.53125 22.484375 10.953125 
Q 26.375 6.390625 33.015625 6.390625 
Q 39.65625 6.390625 43.53125 10.953125 
Q 47.40625 15.53125 47.40625 23.390625 
Q 47.40625 31.296875 43.53125 35.828125 
Q 39.65625 40.375 33.015625 40.375 
z
M 52.59375 71.296875 
L 52.59375 62.3125 
Q 48.875 64.0625 45.09375 64.984375 
Q 41.3125 65.921875 37.59375 65.921875 
Q 27.828125 65.921875 22.671875 59.328125 
Q 17.53125 52.734375 16.796875 39.40625 
Q 19.671875 43.65625 24.015625 45.921875 
Q 28.375 48.1875 33.59375 48.1875 
Q 44.578125 48.1875 50.953125 41.515625 
Q 57.328125 34.859375 57.328125 23.390625 
Q 57.328125 12.15625 50.6875 5.359375 
Q 44.046875 -1.421875 33.015625 -1.421875 
Q 20.359375 -1.421875 13.671875 8.265625 
Q 6.984375 17.96875 6.984375 36.375 
Q 6.984375 53.65625 15.1875 63.9375 
Q 23.390625 74.21875 37.203125 74.21875 
Q 40.921875 74.21875 44.703125 73.484375 
Q 48.484375 72.75 52.59375 71.296875 
z
" id="DejaVuSans-54"/>
    </defs>
    <g transform="translate(303.289185 305.492653)scale(0.078022 -0.078022)">
     <use xlink:href="#DejaVuSans-115"/>
     <use x="52.099609" xlink:href="#DejaVuSans-97"/>
     <use x="113.378906" xlink:href="#DejaVuSans-109"/>
     <use x="210.791016" xlink:href="#DejaVuSans-112"/>
     <use x="274.267578" xlink:href="#DejaVuSans-108"/>
     <use x="302.050781" xlink:href="#DejaVuSans-101"/>
     <use x="363.574219" xlink:href="#DejaVuSans-115"/>
     <use x="415.673828" xlink:href="#DejaVuSans-32"/>
     <use x="447.460938" xlink:href="#DejaVuSans-61"/>
     <use x="531.25" xlink:href="#DejaVuSans-32"/>
     <use x="563.037109" xlink:href="#DejaVuSans-54"/>
     <use x="626.660156" xlink:href="#DejaVuSans-57"/>
     <use x="690.283203" xlink:href="#DejaVuSans-52"/>
    </g>
    <!-- value = [616, 78] -->
    <g transform="translate(298.360969 314.229463)scale(0.078022 -0.078022)">
     <use xlink:href="#DejaVuSans-118"/>
     <use x="59.179688" xlink:href="#DejaVuSans-97"/>
     <use x="120.458984" xlink:href="#DejaVuSans-108"/>
     <use x="148.242188" xlink:href="#DejaVuSans-117"/>
     <use x="211.621094" xlink:href="#DejaVuSans-101"/>
     <use x="273.144531" xlink:href="#DejaVuSans-32"/>
     <use x="304.931641" xlink:href="#DejaVuSans-61"/>
     <use x="388.720703" xlink:href="#DejaVuSans-32"/>
     <use x="420.507812" xlink:href="#DejaVuSans-91"/>
     <use x="459.521484" xlink:href="#DejaVuSans-54"/>
     <use x="523.144531" xlink:href="#DejaVuSans-49"/>
     <use x="586.767578" xlink:href="#DejaVuSans-54"/>
     <use x="650.390625" xlink:href="#DejaVuSans-44"/>
     <use x="682.177734" xlink:href="#DejaVuSans-32"/>
     <use x="713.964844" xlink:href="#DejaVuSans-55"/>
     <use x="777.587891" xlink:href="#DejaVuSans-56"/>
     <use x="841.210938" xlink:href="#DejaVuSans-93"/>
    </g>
    <!-- class = Not MVC -->
    <g transform="translate(300.434051 322.966273)scale(0.078022 -0.078022)">
     <use xlink:href="#DejaVuSans-99"/>
     <use x="54.980469" xlink:href="#DejaVuSans-108"/>
     <use x="82.763672" xlink:href="#DejaVuSans-97"/>
     <use x="144.042969" xlink:href="#DejaVuSans-115"/>
     <use x="196.142578" xlink:href="#DejaVuSans-115"/>
     <use x="248.242188" xlink:href="#DejaVuSans-32"/>
     <use x="280.029297" xlink:href="#DejaVuSans-61"/>
     <use x="363.818359" xlink:href="#DejaVuSans-32"/>
     <use x="395.605469" xlink:href="#DejaVuSans-78"/>
     <use x="470.410156" xlink:href="#DejaVuSans-111"/>
     <use x="531.591797" xlink:href="#DejaVuSans-116"/>
     <use x="570.800781" xlink:href="#DejaVuSans-32"/>
     <use x="602.587891" xlink:href="#DejaVuSans-77"/>
     <use x="688.867188" xlink:href="#DejaVuSans-86"/>
     <use x="757.275391" xlink:href="#DejaVuSans-67"/>
    </g>
   </g>
   <g id="patch_8">
    <path d="M 444.587808 284.771472 
Q 422.167267 256.688969 399.049158 227.732738 
" style="fill:none;stroke:#000000;stroke-linecap:round;"/>
    <path d="M 443.860075 281.358934 
L 444.587808 284.771472 
L 441.421138 283.306136 
" style="fill:none;stroke:#000000;stroke-linecap:round;"/>
   </g>
   <g id="text_5">
    <g id="patch_9">
     <path d="M 427.92216 327.709795 
L 497.87784 327.709795 
L 497.87784 287.706455 
L 427.92216 287.706455 
z
" style="fill:#f9fcfe;stroke:#000000;stroke-linejoin:miter;"/>
    </g>
    <!-- entropy = 1.0 -->
    <g transform="translate(435.85668 296.755842)scale(0.078022 -0.078022)">
     <use xlink:href="#DejaVuSans-101"/>
     <use x="61.523438" xlink:href="#DejaVuSans-110"/>
     <use x="124.902344" xlink:href="#DejaVuSans-116"/>
     <use x="164.111328" xlink:href="#DejaVuSans-114"/>
     <use x="202.974609" xlink:href="#DejaVuSans-111"/>
     <use x="264.15625" xlink:href="#DejaVuSans-112"/>
     <use x="327.632812" xlink:href="#DejaVuSans-121"/>
     <use x="386.8125" xlink:href="#DejaVuSans-32"/>
     <use x="418.599609" xlink:href="#DejaVuSans-61"/>
     <use x="502.388672" xlink:href="#DejaVuSans-32"/>
     <use x="534.175781" xlink:href="#DejaVuSans-49"/>
     <use x="597.798828" xlink:href="#DejaVuSans-46"/>
     <use x="629.585938" xlink:href="#DejaVuSans-48"/>
    </g>
    <!-- samples = 69 -->
    <g transform="translate(435.971275 305.492653)scale(0.078022 -0.078022)">
     <use xlink:href="#DejaVuSans-115"/>
     <use x="52.099609" xlink:href="#DejaVuSans-97"/>
     <use x="113.378906" xlink:href="#DejaVuSans-109"/>
     <use x="210.791016" xlink:href="#DejaVuSans-112"/>
     <use x="274.267578" xlink:href="#DejaVuSans-108"/>
     <use x="302.050781" xlink:href="#DejaVuSans-101"/>
     <use x="363.574219" xlink:href="#DejaVuSans-115"/>
     <use x="415.673828" xlink:href="#DejaVuSans-32"/>
     <use x="447.460938" xlink:href="#DejaVuSans-61"/>
     <use x="531.25" xlink:href="#DejaVuSans-32"/>
     <use x="563.037109" xlink:href="#DejaVuSans-54"/>
     <use x="626.660156" xlink:href="#DejaVuSans-57"/>
    </g>
    <!-- value = [34, 35] -->
    <g transform="translate(431.043059 314.229463)scale(0.078022 -0.078022)">
     <use xlink:href="#DejaVuSans-118"/>
     <use x="59.179688" xlink:href="#DejaVuSans-97"/>
     <use x="120.458984" xlink:href="#DejaVuSans-108"/>
     <use x="148.242188" xlink:href="#DejaVuSans-117"/>
     <use x="211.621094" xlink:href="#DejaVuSans-101"/>
     <use x="273.144531" xlink:href="#DejaVuSans-32"/>
     <use x="304.931641" xlink:href="#DejaVuSans-61"/>
     <use x="388.720703" xlink:href="#DejaVuSans-32"/>
     <use x="420.507812" xlink:href="#DejaVuSans-91"/>
     <use x="459.521484" xlink:href="#DejaVuSans-51"/>
     <use x="523.144531" xlink:href="#DejaVuSans-52"/>
     <use x="586.767578" xlink:href="#DejaVuSans-44"/>
     <use x="618.554688" xlink:href="#DejaVuSans-32"/>
     <use x="650.341797" xlink:href="#DejaVuSans-51"/>
     <use x="713.964844" xlink:href="#DejaVuSans-53"/>
     <use x="777.587891" xlink:href="#DejaVuSans-93"/>
    </g>
    <!-- class = MVC -->
    <g transform="translate(438.708767 322.966273)scale(0.078022 -0.078022)">
     <use xlink:href="#DejaVuSans-99"/>
     <use x="54.980469" xlink:href="#DejaVuSans-108"/>
     <use x="82.763672" xlink:href="#DejaVuSans-97"/>
     <use x="144.042969" xlink:href="#DejaVuSans-115"/>
     <use x="196.142578" xlink:href="#DejaVuSans-115"/>
     <use x="248.242188" xlink:href="#DejaVuSans-32"/>
     <use x="280.029297" xlink:href="#DejaVuSans-61"/>
     <use x="363.818359" xlink:href="#DejaVuSans-32"/>
     <use x="395.605469" xlink:href="#DejaVuSans-77"/>
     <use x="481.884766" xlink:href="#DejaVuSans-86"/>
     <use x="550.292969" xlink:href="#DejaVuSans-67"/>
    </g>
   </g>
   <g id="patch_10">
    <path d="M 611.412192 284.771472 
Q 633.832733 256.688969 656.950842 227.732738 
" style="fill:none;stroke:#000000;stroke-linecap:round;"/>
    <path d="M 614.578862 283.306136 
L 611.412192 284.771472 
L 612.139925 281.358934 
" style="fill:none;stroke:#000000;stroke-linecap:round;"/>
   </g>
   <g id="text_6">
    <g id="patch_11">
     <path d="M 553.15798 327.709795 
L 633.04202 327.709795 
L 633.04202 287.706455 
L 553.15798 287.706455 
z
" style="fill:#f5cfb3;stroke:#000000;stroke-linejoin:miter;"/>
    </g>
    <!-- entropy = 0.959 -->
    <g transform="translate(561.0925 296.755842)scale(0.078022 -0.078022)">
     <use xlink:href="#DejaVuSans-101"/>
     <use x="61.523438" xlink:href="#DejaVuSans-110"/>
     <use x="124.902344" xlink:href="#DejaVuSans-116"/>
     <use x="164.111328" xlink:href="#DejaVuSans-114"/>
     <use x="202.974609" xlink:href="#DejaVuSans-111"/>
     <use x="264.15625" xlink:href="#DejaVuSans-112"/>
     <use x="327.632812" xlink:href="#DejaVuSans-121"/>
     <use x="386.8125" xlink:href="#DejaVuSans-32"/>
     <use x="418.599609" xlink:href="#DejaVuSans-61"/>
     <use x="502.388672" xlink:href="#DejaVuSans-32"/>
     <use x="534.175781" xlink:href="#DejaVuSans-48"/>
     <use x="597.798828" xlink:href="#DejaVuSans-46"/>
     <use x="629.585938" xlink:href="#DejaVuSans-57"/>
     <use x="693.208984" xlink:href="#DejaVuSans-53"/>
     <use x="756.832031" xlink:href="#DejaVuSans-57"/>
    </g>
    <!-- samples = 689 -->
    <g transform="translate(563.689185 305.492653)scale(0.078022 -0.078022)">
     <use xlink:href="#DejaVuSans-115"/>
     <use x="52.099609" xlink:href="#DejaVuSans-97"/>
     <use x="113.378906" xlink:href="#DejaVuSans-109"/>
     <use x="210.791016" xlink:href="#DejaVuSans-112"/>
     <use x="274.267578" xlink:href="#DejaVuSans-108"/>
     <use x="302.050781" xlink:href="#DejaVuSans-101"/>
     <use x="363.574219" xlink:href="#DejaVuSans-115"/>
     <use x="415.673828" xlink:href="#DejaVuSans-32"/>
     <use x="447.460938" xlink:href="#DejaVuSans-61"/>
     <use x="531.25" xlink:href="#DejaVuSans-32"/>
     <use x="563.037109" xlink:href="#DejaVuSans-54"/>
     <use x="626.660156" xlink:href="#DejaVuSans-56"/>
     <use x="690.283203" xlink:href="#DejaVuSans-57"/>
    </g>
    <!-- value = [426, 263] -->
    <g transform="translate(556.278879 314.229463)scale(0.078022 -0.078022)">
     <use xlink:href="#DejaVuSans-118"/>
     <use x="59.179688" xlink:href="#DejaVuSans-97"/>
     <use x="120.458984" xlink:href="#DejaVuSans-108"/>
     <use x="148.242188" xlink:href="#DejaVuSans-117"/>
     <use x="211.621094" xlink:href="#DejaVuSans-101"/>
     <use x="273.144531" xlink:href="#DejaVuSans-32"/>
     <use x="304.931641" xlink:href="#DejaVuSans-61"/>
     <use x="388.720703" xlink:href="#DejaVuSans-32"/>
     <use x="420.507812" xlink:href="#DejaVuSans-91"/>
     <use x="459.521484" xlink:href="#DejaVuSans-52"/>
     <use x="523.144531" xlink:href="#DejaVuSans-50"/>
     <use x="586.767578" xlink:href="#DejaVuSans-54"/>
     <use x="650.390625" xlink:href="#DejaVuSans-44"/>
     <use x="682.177734" xlink:href="#DejaVuSans-32"/>
     <use x="713.964844" xlink:href="#DejaVuSans-50"/>
     <use x="777.587891" xlink:href="#DejaVuSans-54"/>
     <use x="841.210938" xlink:href="#DejaVuSans-51"/>
     <use x="904.833984" xlink:href="#DejaVuSans-93"/>
    </g>
    <!-- class = Not MVC -->
    <g transform="translate(560.834051 322.966273)scale(0.078022 -0.078022)">
     <use xlink:href="#DejaVuSans-99"/>
     <use x="54.980469" xlink:href="#DejaVuSans-108"/>
     <use x="82.763672" xlink:href="#DejaVuSans-97"/>
     <use x="144.042969" xlink:href="#DejaVuSans-115"/>
     <use x="196.142578" xlink:href="#DejaVuSans-115"/>
     <use x="248.242188" xlink:href="#DejaVuSans-32"/>
     <use x="280.029297" xlink:href="#DejaVuSans-61"/>
     <use x="363.818359" xlink:href="#DejaVuSans-32"/>
     <use x="395.605469" xlink:href="#DejaVuSans-78"/>
     <use x="470.410156" xlink:href="#DejaVuSans-111"/>
     <use x="531.591797" xlink:href="#DejaVuSans-116"/>
     <use x="570.800781" xlink:href="#DejaVuSans-32"/>
     <use x="602.587891" xlink:href="#DejaVuSans-77"/>
     <use x="688.867188" xlink:href="#DejaVuSans-86"/>
     <use x="757.275391" xlink:href="#DejaVuSans-67"/>
    </g>
   </g>
   <g id="patch_12">
    <path d="M 704.987808 284.771472 
Q 682.567267 256.688969 659.449158 227.732738 
" style="fill:none;stroke:#000000;stroke-linecap:round;"/>
    <path d="M 704.260075 281.358934 
L 704.987808 284.771472 
L 701.821138 283.306136 
" style="fill:none;stroke:#000000;stroke-linecap:round;"/>
   </g>
   <g id="text_7">
    <g id="patch_13">
     <path d="M 685.84007 327.709795 
L 760.75993 327.709795 
L 760.75993 287.706455 
L 685.84007 287.706455 
z
" style="fill:#65b3eb;stroke:#000000;stroke-linejoin:miter;"/>
    </g>
    <!-- entropy = 0.687 -->
    <g transform="translate(691.2925 296.755842)scale(0.078022 -0.078022)">
     <use xlink:href="#DejaVuSans-101"/>
     <use x="61.523438" xlink:href="#DejaVuSans-110"/>
     <use x="124.902344" xlink:href="#DejaVuSans-116"/>
     <use x="164.111328" xlink:href="#DejaVuSans-114"/>
     <use x="202.974609" xlink:href="#DejaVuSans-111"/>
     <use x="264.15625" xlink:href="#DejaVuSans-112"/>
     <use x="327.632812" xlink:href="#DejaVuSans-121"/>
     <use x="386.8125" xlink:href="#DejaVuSans-32"/>
     <use x="418.599609" xlink:href="#DejaVuSans-61"/>
     <use x="502.388672" xlink:href="#DejaVuSans-32"/>
     <use x="534.175781" xlink:href="#DejaVuSans-48"/>
     <use x="597.798828" xlink:href="#DejaVuSans-46"/>
     <use x="629.585938" xlink:href="#DejaVuSans-54"/>
     <use x="693.208984" xlink:href="#DejaVuSans-56"/>
     <use x="756.832031" xlink:href="#DejaVuSans-55"/>
    </g>
    <!-- samples = 229 -->
    <g transform="translate(693.889185 305.492653)scale(0.078022 -0.078022)">
     <use xlink:href="#DejaVuSans-115"/>
     <use x="52.099609" xlink:href="#DejaVuSans-97"/>
     <use x="113.378906" xlink:href="#DejaVuSans-109"/>
     <use x="210.791016" xlink:href="#DejaVuSans-112"/>
     <use x="274.267578" xlink:href="#DejaVuSans-108"/>
     <use x="302.050781" xlink:href="#DejaVuSans-101"/>
     <use x="363.574219" xlink:href="#DejaVuSans-115"/>
     <use x="415.673828" xlink:href="#DejaVuSans-32"/>
     <use x="447.460938" xlink:href="#DejaVuSans-61"/>
     <use x="531.25" xlink:href="#DejaVuSans-32"/>
     <use x="563.037109" xlink:href="#DejaVuSans-50"/>
     <use x="626.660156" xlink:href="#DejaVuSans-50"/>
     <use x="690.283203" xlink:href="#DejaVuSans-57"/>
    </g>
    <!-- value = [42, 187] -->
    <g transform="translate(688.960969 314.229463)scale(0.078022 -0.078022)">
     <use xlink:href="#DejaVuSans-118"/>
     <use x="59.179688" xlink:href="#DejaVuSans-97"/>
     <use x="120.458984" xlink:href="#DejaVuSans-108"/>
     <use x="148.242188" xlink:href="#DejaVuSans-117"/>
     <use x="211.621094" xlink:href="#DejaVuSans-101"/>
     <use x="273.144531" xlink:href="#DejaVuSans-32"/>
     <use x="304.931641" xlink:href="#DejaVuSans-61"/>
     <use x="388.720703" xlink:href="#DejaVuSans-32"/>
     <use x="420.507812" xlink:href="#DejaVuSans-91"/>
     <use x="459.521484" xlink:href="#DejaVuSans-52"/>
     <use x="523.144531" xlink:href="#DejaVuSans-50"/>
     <use x="586.767578" xlink:href="#DejaVuSans-44"/>
     <use x="618.554688" xlink:href="#DejaVuSans-32"/>
     <use x="650.341797" xlink:href="#DejaVuSans-49"/>
     <use x="713.964844" xlink:href="#DejaVuSans-56"/>
     <use x="777.587891" xlink:href="#DejaVuSans-55"/>
     <use x="841.210938" xlink:href="#DejaVuSans-93"/>
    </g>
    <!-- class = MVC -->
    <g transform="translate(699.108767 322.966273)scale(0.078022 -0.078022)">
     <use xlink:href="#DejaVuSans-99"/>
     <use x="54.980469" xlink:href="#DejaVuSans-108"/>
     <use x="82.763672" xlink:href="#DejaVuSans-97"/>
     <use x="144.042969" xlink:href="#DejaVuSans-115"/>
     <use x="196.142578" xlink:href="#DejaVuSans-115"/>
     <use x="248.242188" xlink:href="#DejaVuSans-32"/>
     <use x="280.029297" xlink:href="#DejaVuSans-61"/>
     <use x="363.818359" xlink:href="#DejaVuSans-32"/>
     <use x="395.605469" xlink:href="#DejaVuSans-77"/>
     <use x="481.884766" xlink:href="#DejaVuSans-86"/>
     <use x="550.292969" xlink:href="#DejaVuSans-67"/>
    </g>
   </g>
   <g id="patch_14">
    <path d="M 159.402537 198.609186 
Q 179.978331 172.837294 201.251692 146.191674 
" style="fill:none;stroke:#000000;stroke-linecap:round;"/>
    <path d="M 162.569208 197.14385 
L 159.402537 198.609186 
L 160.13027 195.196648 
" style="fill:none;stroke:#000000;stroke-linecap:round;"/>
   </g>
   <g id="text_8">
    <g id="patch_15">
     <path d="M 80.957447 250.577821 
L 193.842553 250.577821 
L 193.842553 201.541429 
L 80.957447 201.541429 
z
" style="fill:#e68742;stroke:#000000;stroke-linejoin:miter;"/>
    </g>
    <!-- Income_&gt;70K-100K &lt;= 0.5 -->
    <defs>
     <path d="M 9.8125 72.90625 
L 19.671875 72.90625 
L 19.671875 0 
L 9.8125 0 
z
" id="DejaVuSans-73"/>
     <path d="M 50.984375 -16.609375 
L 50.984375 -23.578125 
L -0.984375 -23.578125 
L -0.984375 -16.609375 
z
" id="DejaVuSans-95"/>
     <path d="M 10.59375 49.21875 
L 10.59375 58.109375 
L 73.1875 35.40625 
L 73.1875 27.296875 
L 10.59375 4.59375 
L 10.59375 13.484375 
L 60.890625 31.296875 
z
" id="DejaVuSans-62"/>
     <path d="M 9.8125 72.90625 
L 19.671875 72.90625 
L 19.671875 42.09375 
L 52.390625 72.90625 
L 65.09375 72.90625 
L 28.90625 38.921875 
L 67.671875 0 
L 54.6875 0 
L 19.671875 35.109375 
L 19.671875 0 
L 9.8125 0 
z
" id="DejaVuSans-75"/>
     <path d="M 4.890625 31.390625 
L 31.203125 31.390625 
L 31.203125 23.390625 
L 4.890625 23.390625 
z
" id="DejaVuSans-45"/>
     <path d="M 73.1875 49.21875 
L 22.796875 31.296875 
L 73.1875 13.484375 
L 73.1875 4.59375 
L 10.59375 27.296875 
L 10.59375 35.40625 
L 73.1875 58.109375 
z
" id="DejaVuSans-60"/>
    </defs>
    <g transform="translate(84.078346 210.670058)scale(0.078022 -0.078022)">
     <use xlink:href="#DejaVuSans-73"/>
     <use x="29.492188" xlink:href="#DejaVuSans-110"/>
     <use x="92.871094" xlink:href="#DejaVuSans-99"/>
     <use x="147.851562" xlink:href="#DejaVuSans-111"/>
     <use x="209.033203" xlink:href="#DejaVuSans-109"/>
     <use x="306.445312" xlink:href="#DejaVuSans-101"/>
     <use x="367.96875" xlink:href="#DejaVuSans-95"/>
     <use x="417.96875" xlink:href="#DejaVuSans-62"/>
     <use x="501.757812" xlink:href="#DejaVuSans-55"/>
     <use x="565.380859" xlink:href="#DejaVuSans-48"/>
     <use x="629.003906" xlink:href="#DejaVuSans-75"/>
     <use x="684.080078" xlink:href="#DejaVuSans-45"/>
     <use x="720.164062" xlink:href="#DejaVuSans-49"/>
     <use x="783.787109" xlink:href="#DejaVuSans-48"/>
     <use x="847.410156" xlink:href="#DejaVuSans-48"/>
     <use x="911.033203" xlink:href="#DejaVuSans-75"/>
     <use x="976.609375" xlink:href="#DejaVuSans-32"/>
     <use x="1008.396484" xlink:href="#DejaVuSans-60"/>
     <use x="1092.185547" xlink:href="#DejaVuSans-61"/>
     <use x="1175.974609" xlink:href="#DejaVuSans-32"/>
     <use x="1207.761719" xlink:href="#DejaVuSans-48"/>
     <use x="1271.384766" xlink:href="#DejaVuSans-46"/>
     <use x="1303.171875" xlink:href="#DejaVuSans-53"/>
    </g>
    <!-- entropy = 0.251 -->
    <g transform="translate(105.3925 219.623868)scale(0.078022 -0.078022)">
     <use xlink:href="#DejaVuSans-101"/>
     <use x="61.523438" xlink:href="#DejaVuSans-110"/>
     <use x="124.902344" xlink:href="#DejaVuSans-116"/>
     <use x="164.111328" xlink:href="#DejaVuSans-114"/>
     <use x="202.974609" xlink:href="#DejaVuSans-111"/>
     <use x="264.15625" xlink:href="#DejaVuSans-112"/>
     <use x="327.632812" xlink:href="#DejaVuSans-121"/>
     <use x="386.8125" xlink:href="#DejaVuSans-32"/>
     <use x="418.599609" xlink:href="#DejaVuSans-61"/>
     <use x="502.388672" xlink:href="#DejaVuSans-32"/>
     <use x="534.175781" xlink:href="#DejaVuSans-48"/>
     <use x="597.798828" xlink:href="#DejaVuSans-46"/>
     <use x="629.585938" xlink:href="#DejaVuSans-50"/>
     <use x="693.208984" xlink:href="#DejaVuSans-53"/>
     <use x="756.832031" xlink:href="#DejaVuSans-49"/>
    </g>
    <!-- samples = 1123 -->
    <g transform="translate(105.507096 228.360678)scale(0.078022 -0.078022)">
     <use xlink:href="#DejaVuSans-115"/>
     <use x="52.099609" xlink:href="#DejaVuSans-97"/>
     <use x="113.378906" xlink:href="#DejaVuSans-109"/>
     <use x="210.791016" xlink:href="#DejaVuSans-112"/>
     <use x="274.267578" xlink:href="#DejaVuSans-108"/>
     <use x="302.050781" xlink:href="#DejaVuSans-101"/>
     <use x="363.574219" xlink:href="#DejaVuSans-115"/>
     <use x="415.673828" xlink:href="#DejaVuSans-32"/>
     <use x="447.460938" xlink:href="#DejaVuSans-61"/>
     <use x="531.25" xlink:href="#DejaVuSans-32"/>
     <use x="563.037109" xlink:href="#DejaVuSans-49"/>
     <use x="626.660156" xlink:href="#DejaVuSans-49"/>
     <use x="690.283203" xlink:href="#DejaVuSans-50"/>
     <use x="753.90625" xlink:href="#DejaVuSans-51"/>
    </g>
    <!-- value = [1076, 47] -->
    <g transform="translate(100.578879 237.097488)scale(0.078022 -0.078022)">
     <use xlink:href="#DejaVuSans-118"/>
     <use x="59.179688" xlink:href="#DejaVuSans-97"/>
     <use x="120.458984" xlink:href="#DejaVuSans-108"/>
     <use x="148.242188" xlink:href="#DejaVuSans-117"/>
     <use x="211.621094" xlink:href="#DejaVuSans-101"/>
     <use x="273.144531" xlink:href="#DejaVuSans-32"/>
     <use x="304.931641" xlink:href="#DejaVuSans-61"/>
     <use x="388.720703" xlink:href="#DejaVuSans-32"/>
     <use x="420.507812" xlink:href="#DejaVuSans-91"/>
     <use x="459.521484" xlink:href="#DejaVuSans-49"/>
     <use x="523.144531" xlink:href="#DejaVuSans-48"/>
     <use x="586.767578" xlink:href="#DejaVuSans-55"/>
     <use x="650.390625" xlink:href="#DejaVuSans-54"/>
     <use x="714.013672" xlink:href="#DejaVuSans-44"/>
     <use x="745.800781" xlink:href="#DejaVuSans-32"/>
     <use x="777.587891" xlink:href="#DejaVuSans-52"/>
     <use x="841.210938" xlink:href="#DejaVuSans-55"/>
     <use x="904.833984" xlink:href="#DejaVuSans-93"/>
    </g>
    <!-- class = Not MVC -->
    <g transform="translate(105.134051 245.834299)scale(0.078022 -0.078022)">
     <use xlink:href="#DejaVuSans-99"/>
     <use x="54.980469" xlink:href="#DejaVuSans-108"/>
     <use x="82.763672" xlink:href="#DejaVuSans-97"/>
     <use x="144.042969" xlink:href="#DejaVuSans-115"/>
     <use x="196.142578" xlink:href="#DejaVuSans-115"/>
     <use x="248.242188" xlink:href="#DejaVuSans-32"/>
     <use x="280.029297" xlink:href="#DejaVuSans-61"/>
     <use x="363.818359" xlink:href="#DejaVuSans-32"/>
     <use x="395.605469" xlink:href="#DejaVuSans-78"/>
     <use x="470.410156" xlink:href="#DejaVuSans-111"/>
     <use x="531.591797" xlink:href="#DejaVuSans-116"/>
     <use x="570.800781" xlink:href="#DejaVuSans-32"/>
     <use x="602.587891" xlink:href="#DejaVuSans-77"/>
     <use x="688.867188" xlink:href="#DejaVuSans-86"/>
     <use x="757.275391" xlink:href="#DejaVuSans-67"/>
    </g>
   </g>
   <g id="patch_16">
    <path d="M 249.287808 203.231472 
Q 226.867267 175.148969 203.749158 146.192738 
" style="fill:none;stroke:#000000;stroke-linecap:round;"/>
    <path d="M 248.560075 199.818934 
L 249.287808 203.231472 
L 246.121138 201.766136 
" style="fill:none;stroke:#000000;stroke-linecap:round;"/>
   </g>
   <g id="text_9">
    <g id="patch_17">
     <path d="M 232.213152 246.169795 
L 302.986848 246.169795 
L 302.986848 206.166455 
L 232.213152 206.166455 
z
" style="fill:#f0b489;stroke:#000000;stroke-linejoin:miter;"/>
    </g>
    <!-- entropy = 0.866 -->
    <g transform="translate(235.5925 215.215842)scale(0.078022 -0.078022)">
     <use xlink:href="#DejaVuSans-101"/>
     <use x="61.523438" xlink:href="#DejaVuSans-110"/>
     <use x="124.902344" xlink:href="#DejaVuSans-116"/>
     <use x="164.111328" xlink:href="#DejaVuSans-114"/>
     <use x="202.974609" xlink:href="#DejaVuSans-111"/>
     <use x="264.15625" xlink:href="#DejaVuSans-112"/>
     <use x="327.632812" xlink:href="#DejaVuSans-121"/>
     <use x="386.8125" xlink:href="#DejaVuSans-32"/>
     <use x="418.599609" xlink:href="#DejaVuSans-61"/>
     <use x="502.388672" xlink:href="#DejaVuSans-32"/>
     <use x="534.175781" xlink:href="#DejaVuSans-48"/>
     <use x="597.798828" xlink:href="#DejaVuSans-46"/>
     <use x="629.585938" xlink:href="#DejaVuSans-56"/>
     <use x="693.208984" xlink:href="#DejaVuSans-54"/>
     <use x="756.832031" xlink:href="#DejaVuSans-54"/>
    </g>
    <!-- samples = 73 -->
    <g transform="translate(240.671275 223.952653)scale(0.078022 -0.078022)">
     <use xlink:href="#DejaVuSans-115"/>
     <use x="52.099609" xlink:href="#DejaVuSans-97"/>
     <use x="113.378906" xlink:href="#DejaVuSans-109"/>
     <use x="210.791016" xlink:href="#DejaVuSans-112"/>
     <use x="274.267578" xlink:href="#DejaVuSans-108"/>
     <use x="302.050781" xlink:href="#DejaVuSans-101"/>
     <use x="363.574219" xlink:href="#DejaVuSans-115"/>
     <use x="415.673828" xlink:href="#DejaVuSans-32"/>
     <use x="447.460938" xlink:href="#DejaVuSans-61"/>
     <use x="531.25" xlink:href="#DejaVuSans-32"/>
     <use x="563.037109" xlink:href="#DejaVuSans-55"/>
     <use x="626.660156" xlink:href="#DejaVuSans-51"/>
    </g>
    <!-- value = [52, 21] -->
    <g transform="translate(235.743059 232.689463)scale(0.078022 -0.078022)">
     <use xlink:href="#DejaVuSans-118"/>
     <use x="59.179688" xlink:href="#DejaVuSans-97"/>
     <use x="120.458984" xlink:href="#DejaVuSans-108"/>
     <use x="148.242188" xlink:href="#DejaVuSans-117"/>
     <use x="211.621094" xlink:href="#DejaVuSans-101"/>
     <use x="273.144531" xlink:href="#DejaVuSans-32"/>
     <use x="304.931641" xlink:href="#DejaVuSans-61"/>
     <use x="388.720703" xlink:href="#DejaVuSans-32"/>
     <use x="420.507812" xlink:href="#DejaVuSans-91"/>
     <use x="459.521484" xlink:href="#DejaVuSans-53"/>
     <use x="523.144531" xlink:href="#DejaVuSans-50"/>
     <use x="586.767578" xlink:href="#DejaVuSans-44"/>
     <use x="618.554688" xlink:href="#DejaVuSans-32"/>
     <use x="650.341797" xlink:href="#DejaVuSans-50"/>
     <use x="713.964844" xlink:href="#DejaVuSans-49"/>
     <use x="777.587891" xlink:href="#DejaVuSans-93"/>
    </g>
    <!-- class = Not MVC -->
    <g transform="translate(235.334051 241.426273)scale(0.078022 -0.078022)">
     <use xlink:href="#DejaVuSans-99"/>
     <use x="54.980469" xlink:href="#DejaVuSans-108"/>
     <use x="82.763672" xlink:href="#DejaVuSans-97"/>
     <use x="144.042969" xlink:href="#DejaVuSans-115"/>
     <use x="196.142578" xlink:href="#DejaVuSans-115"/>
     <use x="248.242188" xlink:href="#DejaVuSans-32"/>
     <use x="280.029297" xlink:href="#DejaVuSans-61"/>
     <use x="363.818359" xlink:href="#DejaVuSans-32"/>
     <use x="395.605469" xlink:href="#DejaVuSans-78"/>
     <use x="470.410156" xlink:href="#DejaVuSans-111"/>
     <use x="531.591797" xlink:href="#DejaVuSans-116"/>
     <use x="570.800781" xlink:href="#DejaVuSans-32"/>
     <use x="602.587891" xlink:href="#DejaVuSans-77"/>
     <use x="688.867188" xlink:href="#DejaVuSans-86"/>
     <use x="757.275391" xlink:href="#DejaVuSans-67"/>
    </g>
   </g>
   <g id="patch_18">
    <path d="M 440.563017 199.387047 
Q 482.959438 172.835555 526.30341 145.690644 
" style="fill:none;stroke:#000000;stroke-linecap:round;"/>
    <path d="M 444.036268 199.053069 
L 440.563017 199.387047 
L 442.379785 196.408059 
" style="fill:none;stroke:#000000;stroke-linecap:round;"/>
   </g>
   <g id="text_10">
    <g id="patch_19">
     <path d="M 349.877744 250.577821 
L 445.722256 250.577821 
L 445.722256 201.541429 
L 349.877744 201.541429 
z
" style="fill:#ea975b;stroke:#000000;stroke-linejoin:miter;"/>
    </g>
    <!-- Income_&gt;100K &lt;= 0.5 -->
    <g transform="translate(352.998643 210.670058)scale(0.078022 -0.078022)">
     <use xlink:href="#DejaVuSans-73"/>
     <use x="29.492188" xlink:href="#DejaVuSans-110"/>
     <use x="92.871094" xlink:href="#DejaVuSans-99"/>
     <use x="147.851562" xlink:href="#DejaVuSans-111"/>
     <use x="209.033203" xlink:href="#DejaVuSans-109"/>
     <use x="306.445312" xlink:href="#DejaVuSans-101"/>
     <use x="367.96875" xlink:href="#DejaVuSans-95"/>
     <use x="417.96875" xlink:href="#DejaVuSans-62"/>
     <use x="501.757812" xlink:href="#DejaVuSans-49"/>
     <use x="565.380859" xlink:href="#DejaVuSans-48"/>
     <use x="629.003906" xlink:href="#DejaVuSans-48"/>
     <use x="692.626953" xlink:href="#DejaVuSans-75"/>
     <use x="758.203125" xlink:href="#DejaVuSans-32"/>
     <use x="789.990234" xlink:href="#DejaVuSans-60"/>
     <use x="873.779297" xlink:href="#DejaVuSans-61"/>
     <use x="957.568359" xlink:href="#DejaVuSans-32"/>
     <use x="989.355469" xlink:href="#DejaVuSans-48"/>
     <use x="1052.978516" xlink:href="#DejaVuSans-46"/>
     <use x="1084.765625" xlink:href="#DejaVuSans-53"/>
    </g>
    <!-- entropy = 0.605 -->
    <g transform="translate(365.7925 219.623868)scale(0.078022 -0.078022)">
     <use xlink:href="#DejaVuSans-101"/>
     <use x="61.523438" xlink:href="#DejaVuSans-110"/>
     <use x="124.902344" xlink:href="#DejaVuSans-116"/>
     <use x="164.111328" xlink:href="#DejaVuSans-114"/>
     <use x="202.974609" xlink:href="#DejaVuSans-111"/>
     <use x="264.15625" xlink:href="#DejaVuSans-112"/>
     <use x="327.632812" xlink:href="#DejaVuSans-121"/>
     <use x="386.8125" xlink:href="#DejaVuSans-32"/>
     <use x="418.599609" xlink:href="#DejaVuSans-61"/>
     <use x="502.388672" xlink:href="#DejaVuSans-32"/>
     <use x="534.175781" xlink:href="#DejaVuSans-48"/>
     <use x="597.798828" xlink:href="#DejaVuSans-46"/>
     <use x="629.585938" xlink:href="#DejaVuSans-54"/>
     <use x="693.208984" xlink:href="#DejaVuSans-48"/>
     <use x="756.832031" xlink:href="#DejaVuSans-53"/>
    </g>
    <!-- samples = 763 -->
    <g transform="translate(368.389185 228.360678)scale(0.078022 -0.078022)">
     <use xlink:href="#DejaVuSans-115"/>
     <use x="52.099609" xlink:href="#DejaVuSans-97"/>
     <use x="113.378906" xlink:href="#DejaVuSans-109"/>
     <use x="210.791016" xlink:href="#DejaVuSans-112"/>
     <use x="274.267578" xlink:href="#DejaVuSans-108"/>
     <use x="302.050781" xlink:href="#DejaVuSans-101"/>
     <use x="363.574219" xlink:href="#DejaVuSans-115"/>
     <use x="415.673828" xlink:href="#DejaVuSans-32"/>
     <use x="447.460938" xlink:href="#DejaVuSans-61"/>
     <use x="531.25" xlink:href="#DejaVuSans-32"/>
     <use x="563.037109" xlink:href="#DejaVuSans-55"/>
     <use x="626.660156" xlink:href="#DejaVuSans-54"/>
     <use x="690.283203" xlink:href="#DejaVuSans-51"/>
    </g>
    <!-- value = [650, 113] -->
    <g transform="translate(360.978879 237.097488)scale(0.078022 -0.078022)">
     <use xlink:href="#DejaVuSans-118"/>
     <use x="59.179688" xlink:href="#DejaVuSans-97"/>
     <use x="120.458984" xlink:href="#DejaVuSans-108"/>
     <use x="148.242188" xlink:href="#DejaVuSans-117"/>
     <use x="211.621094" xlink:href="#DejaVuSans-101"/>
     <use x="273.144531" xlink:href="#DejaVuSans-32"/>
     <use x="304.931641" xlink:href="#DejaVuSans-61"/>
     <use x="388.720703" xlink:href="#DejaVuSans-32"/>
     <use x="420.507812" xlink:href="#DejaVuSans-91"/>
     <use x="459.521484" xlink:href="#DejaVuSans-54"/>
     <use x="523.144531" xlink:href="#DejaVuSans-53"/>
     <use x="586.767578" xlink:href="#DejaVuSans-48"/>
     <use x="650.390625" xlink:href="#DejaVuSans-44"/>
     <use x="682.177734" xlink:href="#DejaVuSans-32"/>
     <use x="713.964844" xlink:href="#DejaVuSans-49"/>
     <use x="777.587891" xlink:href="#DejaVuSans-49"/>
     <use x="841.210938" xlink:href="#DejaVuSans-51"/>
     <use x="904.833984" xlink:href="#DejaVuSans-93"/>
    </g>
    <!-- class = Not MVC -->
    <g transform="translate(365.534051 245.834299)scale(0.078022 -0.078022)">
     <use xlink:href="#DejaVuSans-99"/>
     <use x="54.980469" xlink:href="#DejaVuSans-108"/>
     <use x="82.763672" xlink:href="#DejaVuSans-97"/>
     <use x="144.042969" xlink:href="#DejaVuSans-115"/>
     <use x="196.142578" xlink:href="#DejaVuSans-115"/>
     <use x="248.242188" xlink:href="#DejaVuSans-32"/>
     <use x="280.029297" xlink:href="#DejaVuSans-61"/>
     <use x="363.818359" xlink:href="#DejaVuSans-32"/>
     <use x="395.605469" xlink:href="#DejaVuSans-78"/>
     <use x="470.410156" xlink:href="#DejaVuSans-111"/>
     <use x="531.591797" xlink:href="#DejaVuSans-116"/>
     <use x="570.800781" xlink:href="#DejaVuSans-32"/>
     <use x="602.587891" xlink:href="#DejaVuSans-77"/>
     <use x="688.867188" xlink:href="#DejaVuSans-86"/>
     <use x="757.275391" xlink:href="#DejaVuSans-67"/>
    </g>
   </g>
   <g id="patch_20">
    <path d="M 615.436983 199.387047 
Q 573.040562 172.835555 529.69659 145.690644 
" style="fill:none;stroke:#000000;stroke-linecap:round;"/>
    <path d="M 613.620215 196.408059 
L 615.436983 199.387047 
L 611.963732 199.053069 
" style="fill:none;stroke:#000000;stroke-linecap:round;"/>
   </g>
   <g id="text_11">
    <g id="patch_21">
     <path d="M 615.756385 250.577821 
L 700.643615 250.577821 
L 700.643615 201.541429 
L 615.756385 201.541429 
z
" style="fill:#fefaf7;stroke:#000000;stroke-linejoin:miter;"/>
    </g>
    <!-- Age_&gt;18-35 &lt;= 0.5 -->
    <defs>
     <path d="M 34.1875 63.1875 
L 20.796875 26.90625 
L 47.609375 26.90625 
z
M 28.609375 72.90625 
L 39.796875 72.90625 
L 67.578125 0 
L 57.328125 0 
L 50.6875 18.703125 
L 17.828125 18.703125 
L 11.1875 0 
L 0.78125 0 
z
" id="DejaVuSans-65"/>
    </defs>
    <g transform="translate(618.877284 210.670058)scale(0.078022 -0.078022)">
     <use xlink:href="#DejaVuSans-65"/>
     <use x="68.408203" xlink:href="#DejaVuSans-103"/>
     <use x="131.884766" xlink:href="#DejaVuSans-101"/>
     <use x="193.408203" xlink:href="#DejaVuSans-95"/>
     <use x="243.408203" xlink:href="#DejaVuSans-62"/>
     <use x="327.197266" xlink:href="#DejaVuSans-49"/>
     <use x="390.820312" xlink:href="#DejaVuSans-56"/>
     <use x="454.443359" xlink:href="#DejaVuSans-45"/>
     <use x="490.527344" xlink:href="#DejaVuSans-51"/>
     <use x="554.150391" xlink:href="#DejaVuSans-53"/>
     <use x="617.773438" xlink:href="#DejaVuSans-32"/>
     <use x="649.560547" xlink:href="#DejaVuSans-60"/>
     <use x="733.349609" xlink:href="#DejaVuSans-61"/>
     <use x="817.138672" xlink:href="#DejaVuSans-32"/>
     <use x="848.925781" xlink:href="#DejaVuSans-48"/>
     <use x="912.548828" xlink:href="#DejaVuSans-46"/>
     <use x="944.335938" xlink:href="#DejaVuSans-53"/>
    </g>
    <!-- entropy = 1.0 -->
    <g transform="translate(631.15668 219.623868)scale(0.078022 -0.078022)">
     <use xlink:href="#DejaVuSans-101"/>
     <use x="61.523438" xlink:href="#DejaVuSans-110"/>
     <use x="124.902344" xlink:href="#DejaVuSans-116"/>
     <use x="164.111328" xlink:href="#DejaVuSans-114"/>
     <use x="202.974609" xlink:href="#DejaVuSans-111"/>
     <use x="264.15625" xlink:href="#DejaVuSans-112"/>
     <use x="327.632812" xlink:href="#DejaVuSans-121"/>
     <use x="386.8125" xlink:href="#DejaVuSans-32"/>
     <use x="418.599609" xlink:href="#DejaVuSans-61"/>
     <use x="502.388672" xlink:href="#DejaVuSans-32"/>
     <use x="534.175781" xlink:href="#DejaVuSans-49"/>
     <use x="597.798828" xlink:href="#DejaVuSans-46"/>
     <use x="629.585938" xlink:href="#DejaVuSans-48"/>
    </g>
    <!-- samples = 918 -->
    <g transform="translate(628.789185 228.360678)scale(0.078022 -0.078022)">
     <use xlink:href="#DejaVuSans-115"/>
     <use x="52.099609" xlink:href="#DejaVuSans-97"/>
     <use x="113.378906" xlink:href="#DejaVuSans-109"/>
     <use x="210.791016" xlink:href="#DejaVuSans-112"/>
     <use x="274.267578" xlink:href="#DejaVuSans-108"/>
     <use x="302.050781" xlink:href="#DejaVuSans-101"/>
     <use x="363.574219" xlink:href="#DejaVuSans-115"/>
     <use x="415.673828" xlink:href="#DejaVuSans-32"/>
     <use x="447.460938" xlink:href="#DejaVuSans-61"/>
     <use x="531.25" xlink:href="#DejaVuSans-32"/>
     <use x="563.037109" xlink:href="#DejaVuSans-57"/>
     <use x="626.660156" xlink:href="#DejaVuSans-49"/>
     <use x="690.283203" xlink:href="#DejaVuSans-56"/>
    </g>
    <!-- value = [468, 450] -->
    <g transform="translate(621.378879 237.097488)scale(0.078022 -0.078022)">
     <use xlink:href="#DejaVuSans-118"/>
     <use x="59.179688" xlink:href="#DejaVuSans-97"/>
     <use x="120.458984" xlink:href="#DejaVuSans-108"/>
     <use x="148.242188" xlink:href="#DejaVuSans-117"/>
     <use x="211.621094" xlink:href="#DejaVuSans-101"/>
     <use x="273.144531" xlink:href="#DejaVuSans-32"/>
     <use x="304.931641" xlink:href="#DejaVuSans-61"/>
     <use x="388.720703" xlink:href="#DejaVuSans-32"/>
     <use x="420.507812" xlink:href="#DejaVuSans-91"/>
     <use x="459.521484" xlink:href="#DejaVuSans-52"/>
     <use x="523.144531" xlink:href="#DejaVuSans-54"/>
     <use x="586.767578" xlink:href="#DejaVuSans-56"/>
     <use x="650.390625" xlink:href="#DejaVuSans-44"/>
     <use x="682.177734" xlink:href="#DejaVuSans-32"/>
     <use x="713.964844" xlink:href="#DejaVuSans-52"/>
     <use x="777.587891" xlink:href="#DejaVuSans-53"/>
     <use x="841.210938" xlink:href="#DejaVuSans-48"/>
     <use x="904.833984" xlink:href="#DejaVuSans-93"/>
    </g>
    <!-- class = Not MVC -->
    <g transform="translate(625.934051 245.834299)scale(0.078022 -0.078022)">
     <use xlink:href="#DejaVuSans-99"/>
     <use x="54.980469" xlink:href="#DejaVuSans-108"/>
     <use x="82.763672" xlink:href="#DejaVuSans-97"/>
     <use x="144.042969" xlink:href="#DejaVuSans-115"/>
     <use x="196.142578" xlink:href="#DejaVuSans-115"/>
     <use x="248.242188" xlink:href="#DejaVuSans-32"/>
     <use x="280.029297" xlink:href="#DejaVuSans-61"/>
     <use x="363.818359" xlink:href="#DejaVuSans-32"/>
     <use x="395.605469" xlink:href="#DejaVuSans-78"/>
     <use x="470.410156" xlink:href="#DejaVuSans-111"/>
     <use x="531.591797" xlink:href="#DejaVuSans-116"/>
     <use x="570.800781" xlink:href="#DejaVuSans-32"/>
     <use x="602.587891" xlink:href="#DejaVuSans-77"/>
     <use x="688.867188" xlink:href="#DejaVuSans-86"/>
     <use x="757.275391" xlink:href="#DejaVuSans-67"/>
    </g>
   </g>
   <g id="patch_22">
    <path d="M 253.712631 118.969889 
Q 308.086869 91.727644 363.460701 63.984589 
" style="fill:none;stroke:#000000;stroke-linecap:round;"/>
    <path d="M 257.201901 118.96706 
L 253.712631 118.969889 
L 255.80393 116.176776 
" style="fill:none;stroke:#000000;stroke-linecap:round;"/>
   </g>
   <g id="text_12">
    <g id="patch_23">
     <path d="M 154.577744 169.037821 
L 250.422256 169.037821 
L 250.422256 120.001429 
L 154.577744 120.001429 
z
" style="fill:#e78945;stroke:#000000;stroke-linejoin:miter;"/>
    </g>
    <!-- Income_&gt;100K &lt;= 0.5 -->
    <g transform="translate(157.698643 129.130058)scale(0.078022 -0.078022)">
     <use xlink:href="#DejaVuSans-73"/>
     <use x="29.492188" xlink:href="#DejaVuSans-110"/>
     <use x="92.871094" xlink:href="#DejaVuSans-99"/>
     <use x="147.851562" xlink:href="#DejaVuSans-111"/>
     <use x="209.033203" xlink:href="#DejaVuSans-109"/>
     <use x="306.445312" xlink:href="#DejaVuSans-101"/>
     <use x="367.96875" xlink:href="#DejaVuSans-95"/>
     <use x="417.96875" xlink:href="#DejaVuSans-62"/>
     <use x="501.757812" xlink:href="#DejaVuSans-49"/>
     <use x="565.380859" xlink:href="#DejaVuSans-48"/>
     <use x="629.003906" xlink:href="#DejaVuSans-48"/>
     <use x="692.626953" xlink:href="#DejaVuSans-75"/>
     <use x="758.203125" xlink:href="#DejaVuSans-32"/>
     <use x="789.990234" xlink:href="#DejaVuSans-60"/>
     <use x="873.779297" xlink:href="#DejaVuSans-61"/>
     <use x="957.568359" xlink:href="#DejaVuSans-32"/>
     <use x="989.355469" xlink:href="#DejaVuSans-48"/>
     <use x="1052.978516" xlink:href="#DejaVuSans-46"/>
     <use x="1084.765625" xlink:href="#DejaVuSans-53"/>
    </g>
    <!-- entropy = 0.315 -->
    <g transform="translate(170.4925 138.083868)scale(0.078022 -0.078022)">
     <use xlink:href="#DejaVuSans-101"/>
     <use x="61.523438" xlink:href="#DejaVuSans-110"/>
     <use x="124.902344" xlink:href="#DejaVuSans-116"/>
     <use x="164.111328" xlink:href="#DejaVuSans-114"/>
     <use x="202.974609" xlink:href="#DejaVuSans-111"/>
     <use x="264.15625" xlink:href="#DejaVuSans-112"/>
     <use x="327.632812" xlink:href="#DejaVuSans-121"/>
     <use x="386.8125" xlink:href="#DejaVuSans-32"/>
     <use x="418.599609" xlink:href="#DejaVuSans-61"/>
     <use x="502.388672" xlink:href="#DejaVuSans-32"/>
     <use x="534.175781" xlink:href="#DejaVuSans-48"/>
     <use x="597.798828" xlink:href="#DejaVuSans-46"/>
     <use x="629.585938" xlink:href="#DejaVuSans-51"/>
     <use x="693.208984" xlink:href="#DejaVuSans-49"/>
     <use x="756.832031" xlink:href="#DejaVuSans-53"/>
    </g>
    <!-- samples = 1196 -->
    <g transform="translate(170.607096 146.820678)scale(0.078022 -0.078022)">
     <use xlink:href="#DejaVuSans-115"/>
     <use x="52.099609" xlink:href="#DejaVuSans-97"/>
     <use x="113.378906" xlink:href="#DejaVuSans-109"/>
     <use x="210.791016" xlink:href="#DejaVuSans-112"/>
     <use x="274.267578" xlink:href="#DejaVuSans-108"/>
     <use x="302.050781" xlink:href="#DejaVuSans-101"/>
     <use x="363.574219" xlink:href="#DejaVuSans-115"/>
     <use x="415.673828" xlink:href="#DejaVuSans-32"/>
     <use x="447.460938" xlink:href="#DejaVuSans-61"/>
     <use x="531.25" xlink:href="#DejaVuSans-32"/>
     <use x="563.037109" xlink:href="#DejaVuSans-49"/>
     <use x="626.660156" xlink:href="#DejaVuSans-49"/>
     <use x="690.283203" xlink:href="#DejaVuSans-57"/>
     <use x="753.90625" xlink:href="#DejaVuSans-54"/>
    </g>
    <!-- value = [1128, 68] -->
    <g transform="translate(165.678879 155.557488)scale(0.078022 -0.078022)">
     <use xlink:href="#DejaVuSans-118"/>
     <use x="59.179688" xlink:href="#DejaVuSans-97"/>
     <use x="120.458984" xlink:href="#DejaVuSans-108"/>
     <use x="148.242188" xlink:href="#DejaVuSans-117"/>
     <use x="211.621094" xlink:href="#DejaVuSans-101"/>
     <use x="273.144531" xlink:href="#DejaVuSans-32"/>
     <use x="304.931641" xlink:href="#DejaVuSans-61"/>
     <use x="388.720703" xlink:href="#DejaVuSans-32"/>
     <use x="420.507812" xlink:href="#DejaVuSans-91"/>
     <use x="459.521484" xlink:href="#DejaVuSans-49"/>
     <use x="523.144531" xlink:href="#DejaVuSans-49"/>
     <use x="586.767578" xlink:href="#DejaVuSans-50"/>
     <use x="650.390625" xlink:href="#DejaVuSans-56"/>
     <use x="714.013672" xlink:href="#DejaVuSans-44"/>
     <use x="745.800781" xlink:href="#DejaVuSans-32"/>
     <use x="777.587891" xlink:href="#DejaVuSans-54"/>
     <use x="841.210938" xlink:href="#DejaVuSans-56"/>
     <use x="904.833984" xlink:href="#DejaVuSans-93"/>
    </g>
    <!-- class = Not MVC -->
    <g transform="translate(170.234051 164.294299)scale(0.078022 -0.078022)">
     <use xlink:href="#DejaVuSans-99"/>
     <use x="54.980469" xlink:href="#DejaVuSans-108"/>
     <use x="82.763672" xlink:href="#DejaVuSans-97"/>
     <use x="144.042969" xlink:href="#DejaVuSans-115"/>
     <use x="196.142578" xlink:href="#DejaVuSans-115"/>
     <use x="248.242188" xlink:href="#DejaVuSans-32"/>
     <use x="280.029297" xlink:href="#DejaVuSans-61"/>
     <use x="363.818359" xlink:href="#DejaVuSans-32"/>
     <use x="395.605469" xlink:href="#DejaVuSans-78"/>
     <use x="470.410156" xlink:href="#DejaVuSans-111"/>
     <use x="531.591797" xlink:href="#DejaVuSans-116"/>
     <use x="570.800781" xlink:href="#DejaVuSans-32"/>
     <use x="602.587891" xlink:href="#DejaVuSans-77"/>
     <use x="688.867188" xlink:href="#DejaVuSans-86"/>
     <use x="757.275391" xlink:href="#DejaVuSans-67"/>
    </g>
   </g>
   <g id="patch_24">
    <path d="M 474.921657 118.035141 
Q 421.478953 91.259608 367.036654 63.983264 
" style="fill:none;stroke:#000000;stroke-linecap:round;"/>
    <path d="M 472.830358 115.242028 
L 474.921657 118.035141 
L 471.432387 118.032313 
" style="fill:none;stroke:#000000;stroke-linecap:round;"/>
   </g>
   <g id="text_13">
    <g id="patch_25">
     <path d="M 462.66959 169.1067 
L 593.33041 169.1067 
L 593.33041 119.93255 
L 462.66959 119.93255 
z
" style="fill:#f2c09d;stroke:#000000;stroke-linejoin:miter;"/>
    </g>
    <!-- OnlineShopping3M_True &lt;= 0.5 -->
    <defs>
     <path d="M 39.40625 66.21875 
Q 28.65625 66.21875 22.328125 58.203125 
Q 16.015625 50.203125 16.015625 36.375 
Q 16.015625 22.609375 22.328125 14.59375 
Q 28.65625 6.59375 39.40625 6.59375 
Q 50.140625 6.59375 56.421875 14.59375 
Q 62.703125 22.609375 62.703125 36.375 
Q 62.703125 50.203125 56.421875 58.203125 
Q 50.140625 66.21875 39.40625 66.21875 
z
M 39.40625 74.21875 
Q 54.734375 74.21875 63.90625 63.9375 
Q 73.09375 53.65625 73.09375 36.375 
Q 73.09375 19.140625 63.90625 8.859375 
Q 54.734375 -1.421875 39.40625 -1.421875 
Q 24.03125 -1.421875 14.8125 8.828125 
Q 5.609375 19.09375 5.609375 36.375 
Q 5.609375 53.65625 14.8125 63.9375 
Q 24.03125 74.21875 39.40625 74.21875 
z
" id="DejaVuSans-79"/>
     <path d="M 53.515625 70.515625 
L 53.515625 60.890625 
Q 47.90625 63.578125 42.921875 64.890625 
Q 37.9375 66.21875 33.296875 66.21875 
Q 25.25 66.21875 20.875 63.09375 
Q 16.5 59.96875 16.5 54.203125 
Q 16.5 49.359375 19.40625 46.890625 
Q 22.3125 44.4375 30.421875 42.921875 
L 36.375 41.703125 
Q 47.40625 39.59375 52.65625 34.296875 
Q 57.90625 29 57.90625 20.125 
Q 57.90625 9.515625 50.796875 4.046875 
Q 43.703125 -1.421875 29.984375 -1.421875 
Q 24.8125 -1.421875 18.96875 -0.25 
Q 13.140625 0.921875 6.890625 3.21875 
L 6.890625 13.375 
Q 12.890625 10.015625 18.65625 8.296875 
Q 24.421875 6.59375 29.984375 6.59375 
Q 38.421875 6.59375 43.015625 9.90625 
Q 47.609375 13.234375 47.609375 19.390625 
Q 47.609375 24.75 44.3125 27.78125 
Q 41.015625 30.8125 33.5 32.328125 
L 27.484375 33.5 
Q 16.453125 35.6875 11.515625 40.375 
Q 6.59375 45.0625 6.59375 53.421875 
Q 6.59375 63.09375 13.40625 68.65625 
Q 20.21875 74.21875 32.171875 74.21875 
Q 37.3125 74.21875 42.625 73.28125 
Q 47.953125 72.359375 53.515625 70.515625 
z
" id="DejaVuSans-83"/>
     <path d="M 54.890625 33.015625 
L 54.890625 0 
L 45.90625 0 
L 45.90625 32.71875 
Q 45.90625 40.484375 42.875 44.328125 
Q 39.84375 48.1875 33.796875 48.1875 
Q 26.515625 48.1875 22.3125 43.546875 
Q 18.109375 38.921875 18.109375 30.90625 
L 18.109375 0 
L 9.078125 0 
L 9.078125 75.984375 
L 18.109375 75.984375 
L 18.109375 46.1875 
Q 21.34375 51.125 25.703125 53.5625 
Q 30.078125 56 35.796875 56 
Q 45.21875 56 50.046875 50.171875 
Q 54.890625 44.34375 54.890625 33.015625 
z
" id="DejaVuSans-104"/>
    </defs>
    <g transform="translate(465.790489 129.198937)scale(0.078022 -0.078022)">
     <use xlink:href="#DejaVuSans-79"/>
     <use x="78.710938" xlink:href="#DejaVuSans-110"/>
     <use x="142.089844" xlink:href="#DejaVuSans-108"/>
     <use x="169.873047" xlink:href="#DejaVuSans-105"/>
     <use x="197.65625" xlink:href="#DejaVuSans-110"/>
     <use x="261.035156" xlink:href="#DejaVuSans-101"/>
     <use x="322.558594" xlink:href="#DejaVuSans-83"/>
     <use x="386.035156" xlink:href="#DejaVuSans-104"/>
     <use x="449.414062" xlink:href="#DejaVuSans-111"/>
     <use x="510.595703" xlink:href="#DejaVuSans-112"/>
     <use x="574.072266" xlink:href="#DejaVuSans-112"/>
     <use x="637.548828" xlink:href="#DejaVuSans-105"/>
     <use x="665.332031" xlink:href="#DejaVuSans-110"/>
     <use x="728.710938" xlink:href="#DejaVuSans-103"/>
     <use x="792.1875" xlink:href="#DejaVuSans-51"/>
     <use x="855.810547" xlink:href="#DejaVuSans-77"/>
     <use x="942.089844" xlink:href="#DejaVuSans-95"/>
     <use x="992.089844" xlink:href="#DejaVuSans-84"/>
     <use x="1038.423828" xlink:href="#DejaVuSans-114"/>
     <use x="1079.537109" xlink:href="#DejaVuSans-117"/>
     <use x="1142.916016" xlink:href="#DejaVuSans-101"/>
     <use x="1204.439453" xlink:href="#DejaVuSans-32"/>
     <use x="1236.226562" xlink:href="#DejaVuSans-60"/>
     <use x="1320.015625" xlink:href="#DejaVuSans-61"/>
     <use x="1403.804688" xlink:href="#DejaVuSans-32"/>
     <use x="1435.591797" xlink:href="#DejaVuSans-48"/>
     <use x="1499.214844" xlink:href="#DejaVuSans-46"/>
     <use x="1531.001953" xlink:href="#DejaVuSans-53"/>
    </g>
    <!-- entropy = 0.92 -->
    <g transform="translate(498.47459 138.152747)scale(0.078022 -0.078022)">
     <use xlink:href="#DejaVuSans-101"/>
     <use x="61.523438" xlink:href="#DejaVuSans-110"/>
     <use x="124.902344" xlink:href="#DejaVuSans-116"/>
     <use x="164.111328" xlink:href="#DejaVuSans-114"/>
     <use x="202.974609" xlink:href="#DejaVuSans-111"/>
     <use x="264.15625" xlink:href="#DejaVuSans-112"/>
     <use x="327.632812" xlink:href="#DejaVuSans-121"/>
     <use x="386.8125" xlink:href="#DejaVuSans-32"/>
     <use x="418.599609" xlink:href="#DejaVuSans-61"/>
     <use x="502.388672" xlink:href="#DejaVuSans-32"/>
     <use x="534.175781" xlink:href="#DejaVuSans-48"/>
     <use x="597.798828" xlink:href="#DejaVuSans-46"/>
     <use x="629.585938" xlink:href="#DejaVuSans-57"/>
     <use x="693.208984" xlink:href="#DejaVuSans-50"/>
    </g>
    <!-- samples = 1681 -->
    <g transform="translate(496.107096 146.889558)scale(0.078022 -0.078022)">
     <use xlink:href="#DejaVuSans-115"/>
     <use x="52.099609" xlink:href="#DejaVuSans-97"/>
     <use x="113.378906" xlink:href="#DejaVuSans-109"/>
     <use x="210.791016" xlink:href="#DejaVuSans-112"/>
     <use x="274.267578" xlink:href="#DejaVuSans-108"/>
     <use x="302.050781" xlink:href="#DejaVuSans-101"/>
     <use x="363.574219" xlink:href="#DejaVuSans-115"/>
     <use x="415.673828" xlink:href="#DejaVuSans-32"/>
     <use x="447.460938" xlink:href="#DejaVuSans-61"/>
     <use x="531.25" xlink:href="#DejaVuSans-32"/>
     <use x="563.037109" xlink:href="#DejaVuSans-49"/>
     <use x="626.660156" xlink:href="#DejaVuSans-54"/>
     <use x="690.283203" xlink:href="#DejaVuSans-56"/>
     <use x="753.90625" xlink:href="#DejaVuSans-49"/>
    </g>
    <!-- value = [1118, 563] -->
    <g transform="translate(488.696789 155.626368)scale(0.078022 -0.078022)">
     <use xlink:href="#DejaVuSans-118"/>
     <use x="59.179688" xlink:href="#DejaVuSans-97"/>
     <use x="120.458984" xlink:href="#DejaVuSans-108"/>
     <use x="148.242188" xlink:href="#DejaVuSans-117"/>
     <use x="211.621094" xlink:href="#DejaVuSans-101"/>
     <use x="273.144531" xlink:href="#DejaVuSans-32"/>
     <use x="304.931641" xlink:href="#DejaVuSans-61"/>
     <use x="388.720703" xlink:href="#DejaVuSans-32"/>
     <use x="420.507812" xlink:href="#DejaVuSans-91"/>
     <use x="459.521484" xlink:href="#DejaVuSans-49"/>
     <use x="523.144531" xlink:href="#DejaVuSans-49"/>
     <use x="586.767578" xlink:href="#DejaVuSans-49"/>
     <use x="650.390625" xlink:href="#DejaVuSans-56"/>
     <use x="714.013672" xlink:href="#DejaVuSans-44"/>
     <use x="745.800781" xlink:href="#DejaVuSans-32"/>
     <use x="777.587891" xlink:href="#DejaVuSans-53"/>
     <use x="841.210938" xlink:href="#DejaVuSans-54"/>
     <use x="904.833984" xlink:href="#DejaVuSans-51"/>
     <use x="968.457031" xlink:href="#DejaVuSans-93"/>
    </g>
    <!-- class = Not MVC -->
    <g transform="translate(495.734051 164.363178)scale(0.078022 -0.078022)">
     <use xlink:href="#DejaVuSans-99"/>
     <use x="54.980469" xlink:href="#DejaVuSans-108"/>
     <use x="82.763672" xlink:href="#DejaVuSans-97"/>
     <use x="144.042969" xlink:href="#DejaVuSans-115"/>
     <use x="196.142578" xlink:href="#DejaVuSans-115"/>
     <use x="248.242188" xlink:href="#DejaVuSans-32"/>
     <use x="280.029297" xlink:href="#DejaVuSans-61"/>
     <use x="363.818359" xlink:href="#DejaVuSans-32"/>
     <use x="395.605469" xlink:href="#DejaVuSans-78"/>
     <use x="470.410156" xlink:href="#DejaVuSans-111"/>
     <use x="531.591797" xlink:href="#DejaVuSans-116"/>
     <use x="570.800781" xlink:href="#DejaVuSans-32"/>
     <use x="602.587891" xlink:href="#DejaVuSans-77"/>
     <use x="688.867188" xlink:href="#DejaVuSans-86"/>
     <use x="757.275391" xlink:href="#DejaVuSans-67"/>
    </g>
   </g>
   <g id="patch_26">
    <path d="M 365.25 63.088125 
Q 365.25 63.088125 365.25 63.088125 
" style="fill:none;stroke:#000000;stroke-linecap:round;"/>
   </g>
   <g id="text_14">
    <g id="patch_27">
     <path d="M 312.444025 87.5667 
L 418.055975 87.5667 
L 418.055975 38.39255 
L 312.444025 38.39255 
z
" style="fill:#eca471;stroke:#000000;stroke-linejoin:miter;"/>
    </g>
    <!-- YoungFamily_True &lt;= 0.5 -->
    <defs>
     <path d="M -0.203125 72.90625 
L 10.40625 72.90625 
L 30.609375 42.921875 
L 50.6875 72.90625 
L 61.28125 72.90625 
L 35.5 34.71875 
L 35.5 0 
L 25.59375 0 
L 25.59375 34.71875 
z
" id="DejaVuSans-89"/>
     <path d="M 9.8125 72.90625 
L 51.703125 72.90625 
L 51.703125 64.59375 
L 19.671875 64.59375 
L 19.671875 43.109375 
L 48.578125 43.109375 
L 48.578125 34.8125 
L 19.671875 34.8125 
L 19.671875 0 
L 9.8125 0 
z
" id="DejaVuSans-70"/>
    </defs>
    <g transform="translate(315.564924 47.658937)scale(0.078022 -0.078022)">
     <use xlink:href="#DejaVuSans-89"/>
     <use x="47.833984" xlink:href="#DejaVuSans-111"/>
     <use x="109.015625" xlink:href="#DejaVuSans-117"/>
     <use x="172.394531" xlink:href="#DejaVuSans-110"/>
     <use x="235.773438" xlink:href="#DejaVuSans-103"/>
     <use x="299.25" xlink:href="#DejaVuSans-70"/>
     <use x="347.644531" xlink:href="#DejaVuSans-97"/>
     <use x="408.923828" xlink:href="#DejaVuSans-109"/>
     <use x="506.335938" xlink:href="#DejaVuSans-105"/>
     <use x="534.119141" xlink:href="#DejaVuSans-108"/>
     <use x="561.902344" xlink:href="#DejaVuSans-121"/>
     <use x="621.082031" xlink:href="#DejaVuSans-95"/>
     <use x="671.082031" xlink:href="#DejaVuSans-84"/>
     <use x="717.416016" xlink:href="#DejaVuSans-114"/>
     <use x="758.529297" xlink:href="#DejaVuSans-117"/>
     <use x="821.908203" xlink:href="#DejaVuSans-101"/>
     <use x="883.431641" xlink:href="#DejaVuSans-32"/>
     <use x="915.21875" xlink:href="#DejaVuSans-60"/>
     <use x="999.007812" xlink:href="#DejaVuSans-61"/>
     <use x="1082.796875" xlink:href="#DejaVuSans-32"/>
     <use x="1114.583984" xlink:href="#DejaVuSans-48"/>
     <use x="1178.207031" xlink:href="#DejaVuSans-46"/>
     <use x="1209.994141" xlink:href="#DejaVuSans-53"/>
    </g>
    <!-- entropy = 0.759 -->
    <g transform="translate(333.2425 56.612747)scale(0.078022 -0.078022)">
     <use xlink:href="#DejaVuSans-101"/>
     <use x="61.523438" xlink:href="#DejaVuSans-110"/>
     <use x="124.902344" xlink:href="#DejaVuSans-116"/>
     <use x="164.111328" xlink:href="#DejaVuSans-114"/>
     <use x="202.974609" xlink:href="#DejaVuSans-111"/>
     <use x="264.15625" xlink:href="#DejaVuSans-112"/>
     <use x="327.632812" xlink:href="#DejaVuSans-121"/>
     <use x="386.8125" xlink:href="#DejaVuSans-32"/>
     <use x="418.599609" xlink:href="#DejaVuSans-61"/>
     <use x="502.388672" xlink:href="#DejaVuSans-32"/>
     <use x="534.175781" xlink:href="#DejaVuSans-48"/>
     <use x="597.798828" xlink:href="#DejaVuSans-46"/>
     <use x="629.585938" xlink:href="#DejaVuSans-55"/>
     <use x="693.208984" xlink:href="#DejaVuSans-53"/>
     <use x="756.832031" xlink:href="#DejaVuSans-57"/>
    </g>
    <!-- samples = 2877 -->
    <g transform="translate(333.357096 65.349558)scale(0.078022 -0.078022)">
     <use xlink:href="#DejaVuSans-115"/>
     <use x="52.099609" xlink:href="#DejaVuSans-97"/>
     <use x="113.378906" xlink:href="#DejaVuSans-109"/>
     <use x="210.791016" xlink:href="#DejaVuSans-112"/>
     <use x="274.267578" xlink:href="#DejaVuSans-108"/>
     <use x="302.050781" xlink:href="#DejaVuSans-101"/>
     <use x="363.574219" xlink:href="#DejaVuSans-115"/>
     <use x="415.673828" xlink:href="#DejaVuSans-32"/>
     <use x="447.460938" xlink:href="#DejaVuSans-61"/>
     <use x="531.25" xlink:href="#DejaVuSans-32"/>
     <use x="563.037109" xlink:href="#DejaVuSans-50"/>
     <use x="626.660156" xlink:href="#DejaVuSans-56"/>
     <use x="690.283203" xlink:href="#DejaVuSans-55"/>
     <use x="753.90625" xlink:href="#DejaVuSans-55"/>
    </g>
    <!-- value = [2246, 631] -->
    <g transform="translate(325.946789 74.086368)scale(0.078022 -0.078022)">
     <use xlink:href="#DejaVuSans-118"/>
     <use x="59.179688" xlink:href="#DejaVuSans-97"/>
     <use x="120.458984" xlink:href="#DejaVuSans-108"/>
     <use x="148.242188" xlink:href="#DejaVuSans-117"/>
     <use x="211.621094" xlink:href="#DejaVuSans-101"/>
     <use x="273.144531" xlink:href="#DejaVuSans-32"/>
     <use x="304.931641" xlink:href="#DejaVuSans-61"/>
     <use x="388.720703" xlink:href="#DejaVuSans-32"/>
     <use x="420.507812" xlink:href="#DejaVuSans-91"/>
     <use x="459.521484" xlink:href="#DejaVuSans-50"/>
     <use x="523.144531" xlink:href="#DejaVuSans-50"/>
     <use x="586.767578" xlink:href="#DejaVuSans-52"/>
     <use x="650.390625" xlink:href="#DejaVuSans-54"/>
     <use x="714.013672" xlink:href="#DejaVuSans-44"/>
     <use x="745.800781" xlink:href="#DejaVuSans-32"/>
     <use x="777.587891" xlink:href="#DejaVuSans-54"/>
     <use x="841.210938" xlink:href="#DejaVuSans-51"/>
     <use x="904.833984" xlink:href="#DejaVuSans-49"/>
     <use x="968.457031" xlink:href="#DejaVuSans-93"/>
    </g>
    <!-- class = Not MVC -->
    <g transform="translate(332.984051 82.823178)scale(0.078022 -0.078022)">
     <use xlink:href="#DejaVuSans-99"/>
     <use x="54.980469" xlink:href="#DejaVuSans-108"/>
     <use x="82.763672" xlink:href="#DejaVuSans-97"/>
     <use x="144.042969" xlink:href="#DejaVuSans-115"/>
     <use x="196.142578" xlink:href="#DejaVuSans-115"/>
     <use x="248.242188" xlink:href="#DejaVuSans-32"/>
     <use x="280.029297" xlink:href="#DejaVuSans-61"/>
     <use x="363.818359" xlink:href="#DejaVuSans-32"/>
     <use x="395.605469" xlink:href="#DejaVuSans-78"/>
     <use x="470.410156" xlink:href="#DejaVuSans-111"/>
     <use x="531.591797" xlink:href="#DejaVuSans-116"/>
     <use x="570.800781" xlink:href="#DejaVuSans-32"/>
     <use x="602.587891" xlink:href="#DejaVuSans-77"/>
     <use x="688.867188" xlink:href="#DejaVuSans-86"/>
     <use x="757.275391" xlink:href="#DejaVuSans-67"/>
    </g>
   </g>
  </g>
 </g>
</svg>
