<?xml version="1.0" encoding="utf-8" standalone="no"?>
<!DOCTYPE svg PUBLIC "-//W3C//DTD SVG 1.1//EN"
  "http://www.w3.org/Graphics/SVG/1.1/DTD/svg11.dtd">
<!-- Created with matplotlib (https://matplotlib.org/) -->
<svg height="340.8pt" version="1.1" viewBox="0 0 936.340625 340.8" width="936.340625pt" xmlns="http://www.w3.org/2000/svg" xmlns:xlink="http://www.w3.org/1999/xlink">
 <defs>
  <style type="text/css">
*{stroke-linecap:butt;stroke-linejoin:round;}
  </style>
 </defs>
 <g id="figure_1">
  <g id="patch_1">
   <path d="M 0 340.8 
L 936.340625 340.8 
L 936.340625 0 
L 0 0 
z
" style="fill:#ffffff;"/>
  </g>
  <g id="axes_1">
   <g id="patch_2">
    <path d="M 53.328125 300.196875 
L 890.328125 300.196875 
L 890.328125 28.396875 
L 53.328125 28.396875 
z
" style="fill:#ffffff;"/>
   </g>
   <g id="patch_3">
    <path clip-path="url(#pd4bb5def85)" d="M 57.6875 300.196875 
L 66.40625 300.196875 
L 66.40625 296.338571 
L 57.6875 296.338571 
z
" style="fill:#1f77b4;"/>
   </g>
   <g id="patch_4">
    <path clip-path="url(#pd4bb5def85)" d="M 75.125 300.196875 
L 83.84375 300.196875 
L 83.84375 290.901869 
L 75.125 290.901869 
z
" style="fill:#1f77b4;"/>
   </g>
   <g id="patch_5">
    <path clip-path="url(#pd4bb5def85)" d="M 92.5625 300.196875 
L 101.28125 300.196875 
L 101.28125 285.465168 
L 92.5625 285.465168 
z
" style="fill:#1f77b4;"/>
   </g>
   <g id="patch_6">
    <path clip-path="url(#pd4bb5def85)" d="M 110 300.196875 
L 118.71875 300.196875 
L 118.71875 280.203844 
L 110 280.203844 
z
" style="fill:#1f77b4;"/>
   </g>
   <g id="patch_7">
    <path clip-path="url(#pd4bb5def85)" d="M 127.4375 300.196875 
L 136.15625 300.196875 
L 136.15625 274.767142 
L 127.4375 274.767142 
z
" style="fill:#1f77b4;"/>
   </g>
   <g id="patch_8">
    <path clip-path="url(#pd4bb5def85)" d="M 144.875 300.196875 
L 153.59375 300.196875 
L 153.59375 269.505818 
L 144.875 269.505818 
z
" style="fill:#1f77b4;"/>
   </g>
   <g id="patch_9">
    <path clip-path="url(#pd4bb5def85)" d="M 162.3125 300.196875 
L 171.03125 300.196875 
L 171.03125 264.069117 
L 162.3125 264.069117 
z
" style="fill:#1f77b4;"/>
   </g>
   <g id="patch_10">
    <path clip-path="url(#pd4bb5def85)" d="M 179.75 300.196875 
L 188.46875 300.196875 
L 188.46875 258.632415 
L 179.75 258.632415 
z
" style="fill:#1f77b4;"/>
   </g>
   <g id="patch_11">
    <path clip-path="url(#pd4bb5def85)" d="M 197.1875 300.196875 
L 205.90625 300.196875 
L 205.90625 253.721846 
L 197.1875 253.721846 
z
" style="fill:#1f77b4;"/>
   </g>
   <g id="patch_12">
    <path clip-path="url(#pd4bb5def85)" d="M 214.625 300.196875 
L 223.34375 300.196875 
L 223.34375 248.285144 
L 214.625 248.285144 
z
" style="fill:#1f77b4;"/>
   </g>
   <g id="patch_13">
    <path clip-path="url(#pd4bb5def85)" d="M 232.0625 300.196875 
L 240.78125 300.196875 
L 240.78125 243.02382 
L 232.0625 243.02382 
z
" style="fill:#1f77b4;"/>
   </g>
   <g id="patch_14">
    <path clip-path="url(#pd4bb5def85)" d="M 249.5 300.196875 
L 258.21875 300.196875 
L 258.21875 237.587119 
L 249.5 237.587119 
z
" style="fill:#1f77b4;"/>
   </g>
   <g id="patch_15">
    <path clip-path="url(#pd4bb5def85)" d="M 266.9375 300.196875 
L 275.65625 300.196875 
L 275.65625 232.325795 
L 266.9375 232.325795 
z
" style="fill:#1f77b4;"/>
   </g>
   <g id="patch_16">
    <path clip-path="url(#pd4bb5def85)" d="M 284.375 300.196875 
L 293.09375 300.196875 
L 293.09375 226.889093 
L 284.375 226.889093 
z
" style="fill:#1f77b4;"/>
   </g>
   <g id="patch_17">
    <path clip-path="url(#pd4bb5def85)" d="M 301.8125 300.196875 
L 310.53125 300.196875 
L 310.53125 221.452392 
L 301.8125 221.452392 
z
" style="fill:#1f77b4;"/>
   </g>
   <g id="patch_18">
    <path clip-path="url(#pd4bb5def85)" d="M 319.25 300.196875 
L 327.96875 300.196875 
L 327.96875 216.191068 
L 319.25 216.191068 
z
" style="fill:#1f77b4;"/>
   </g>
   <g id="patch_19">
    <path clip-path="url(#pd4bb5def85)" d="M 336.6875 300.196875 
L 345.40625 300.196875 
L 345.40625 210.754366 
L 336.6875 210.754366 
z
" style="fill:#1f77b4;"/>
   </g>
   <g id="patch_20">
    <path clip-path="url(#pd4bb5def85)" d="M 354.125 300.196875 
L 362.84375 300.196875 
L 362.84375 205.493042 
L 354.125 205.493042 
z
" style="fill:#1f77b4;"/>
   </g>
   <g id="patch_21">
    <path clip-path="url(#pd4bb5def85)" d="M 371.5625 300.196875 
L 380.28125 300.196875 
L 380.28125 200.056341 
L 371.5625 200.056341 
z
" style="fill:#1f77b4;"/>
   </g>
   <g id="patch_22">
    <path clip-path="url(#pd4bb5def85)" d="M 389 300.196875 
L 397.71875 300.196875 
L 397.71875 194.619639 
L 389 194.619639 
z
" style="fill:#1f77b4;"/>
   </g>
   <g id="patch_23">
    <path clip-path="url(#pd4bb5def85)" d="M 406.4375 300.196875 
L 415.15625 300.196875 
L 415.15625 189.70907 
L 406.4375 189.70907 
z
" style="fill:#1f77b4;"/>
   </g>
   <g id="patch_24">
    <path clip-path="url(#pd4bb5def85)" d="M 423.875 300.196875 
L 432.59375 300.196875 
L 432.59375 184.272369 
L 423.875 184.272369 
z
" style="fill:#1f77b4;"/>
   </g>
   <g id="patch_25">
    <path clip-path="url(#pd4bb5def85)" d="M 441.3125 300.196875 
L 450.03125 300.196875 
L 450.03125 179.011045 
L 441.3125 179.011045 
z
" style="fill:#1f77b4;"/>
   </g>
   <g id="patch_26">
    <path clip-path="url(#pd4bb5def85)" d="M 458.75 300.196875 
L 467.46875 300.196875 
L 467.46875 173.574343 
L 458.75 173.574343 
z
" style="fill:#1f77b4;"/>
   </g>
   <g id="patch_27">
    <path clip-path="url(#pd4bb5def85)" d="M 476.1875 300.196875 
L 484.90625 300.196875 
L 484.90625 168.313019 
L 476.1875 168.313019 
z
" style="fill:#1f77b4;"/>
   </g>
   <g id="patch_28">
    <path clip-path="url(#pd4bb5def85)" d="M 493.625 300.196875 
L 502.34375 300.196875 
L 502.34375 162.876318 
L 493.625 162.876318 
z
" style="fill:#1f77b4;"/>
   </g>
   <g id="patch_29">
    <path clip-path="url(#pd4bb5def85)" d="M 511.0625 300.196875 
L 519.78125 300.196875 
L 519.78125 157.439616 
L 511.0625 157.439616 
z
" style="fill:#1f77b4;"/>
   </g>
   <g id="patch_30">
    <path clip-path="url(#pd4bb5def85)" d="M 528.5 300.196875 
L 537.21875 300.196875 
L 537.21875 152.178292 
L 528.5 152.178292 
z
" style="fill:#1f77b4;"/>
   </g>
   <g id="patch_31">
    <path clip-path="url(#pd4bb5def85)" d="M 545.9375 300.196875 
L 554.65625 300.196875 
L 554.65625 146.74159 
L 545.9375 146.74159 
z
" style="fill:#1f77b4;"/>
   </g>
   <g id="patch_32">
    <path clip-path="url(#pd4bb5def85)" d="M 563.375 300.196875 
L 572.09375 300.196875 
L 572.09375 141.480266 
L 563.375 141.480266 
z
" style="fill:#1f77b4;"/>
   </g>
   <g id="patch_33">
    <path clip-path="url(#pd4bb5def85)" d="M 580.8125 300.196875 
L 589.53125 300.196875 
L 589.53125 136.043565 
L 580.8125 136.043565 
z
" style="fill:#1f77b4;"/>
   </g>
   <g id="patch_34">
    <path clip-path="url(#pd4bb5def85)" d="M 598.25 300.196875 
L 606.96875 300.196875 
L 606.96875 130.606863 
L 598.25 130.606863 
z
" style="fill:#1f77b4;"/>
   </g>
   <g id="patch_35">
    <path clip-path="url(#pd4bb5def85)" d="M 615.6875 300.196875 
L 624.40625 300.196875 
L 624.40625 125.520917 
L 615.6875 125.520917 
z
" style="fill:#1f77b4;"/>
   </g>
   <g id="patch_36">
    <path clip-path="url(#pd4bb5def85)" d="M 633.125 300.196875 
L 641.84375 300.196875 
L 641.84375 120.084215 
L 633.125 120.084215 
z
" style="fill:#1f77b4;"/>
   </g>
   <g id="patch_37">
    <path clip-path="url(#pd4bb5def85)" d="M 650.5625 300.196875 
L 659.28125 300.196875 
L 659.28125 114.822891 
L 650.5625 114.822891 
z
" style="fill:#1f77b4;"/>
   </g>
   <g id="patch_38">
    <path clip-path="url(#pd4bb5def85)" d="M 668 300.196875 
L 676.71875 300.196875 
L 676.71875 109.38619 
L 668 109.38619 
z
" style="fill:#1f77b4;"/>
   </g>
   <g id="patch_39">
    <path clip-path="url(#pd4bb5def85)" d="M 685.4375 300.196875 
L 694.15625 300.196875 
L 694.15625 104.124866 
L 685.4375 104.124866 
z
" style="fill:#1f77b4;"/>
   </g>
   <g id="patch_40">
    <path clip-path="url(#pd4bb5def85)" d="M 702.875 300.196875 
L 711.59375 300.196875 
L 711.59375 98.688164 
L 702.875 98.688164 
z
" style="fill:#1f77b4;"/>
   </g>
   <g id="patch_41">
    <path clip-path="url(#pd4bb5def85)" d="M 720.3125 300.196875 
L 729.03125 300.196875 
L 729.03125 93.251463 
L 720.3125 93.251463 
z
" style="fill:#1f77b4;"/>
   </g>
   <g id="patch_42">
    <path clip-path="url(#pd4bb5def85)" d="M 737.75 300.196875 
L 746.46875 300.196875 
L 746.46875 87.990139 
L 737.75 87.990139 
z
" style="fill:#1f77b4;"/>
   </g>
   <g id="patch_43">
    <path clip-path="url(#pd4bb5def85)" d="M 755.1875 300.196875 
L 763.90625 300.196875 
L 763.90625 82.553437 
L 755.1875 82.553437 
z
" style="fill:#1f77b4;"/>
   </g>
   <g id="patch_44">
    <path clip-path="url(#pd4bb5def85)" d="M 772.625 300.196875 
L 781.34375 300.196875 
L 781.34375 77.292113 
L 772.625 77.292113 
z
" style="fill:#1f77b4;"/>
   </g>
   <g id="patch_45">
    <path clip-path="url(#pd4bb5def85)" d="M 790.0625 300.196875 
L 798.78125 300.196875 
L 798.78125 71.855412 
L 790.0625 71.855412 
z
" style="fill:#1f77b4;"/>
   </g>
   <g id="patch_46">
    <path clip-path="url(#pd4bb5def85)" d="M 807.5 300.196875 
L 816.21875 300.196875 
L 816.21875 66.41871 
L 807.5 66.41871 
z
" style="fill:#1f77b4;"/>
   </g>
   <g id="patch_47">
    <path clip-path="url(#pd4bb5def85)" d="M 824.9375 300.196875 
L 833.65625 300.196875 
L 833.65625 61.508141 
L 824.9375 61.508141 
z
" style="fill:#1f77b4;"/>
   </g>
   <g id="patch_48">
    <path clip-path="url(#pd4bb5def85)" d="M 842.375 300.196875 
L 851.09375 300.196875 
L 851.09375 56.071439 
L 842.375 56.071439 
z
" style="fill:#1f77b4;"/>
   </g>
   <g id="patch_49">
    <path clip-path="url(#pd4bb5def85)" d="M 859.8125 300.196875 
L 868.53125 300.196875 
L 868.53125 50.810115 
L 859.8125 50.810115 
z
" style="fill:#1f77b4;"/>
   </g>
   <g id="patch_50">
    <path clip-path="url(#pd4bb5def85)" d="M 877.25 300.196875 
L 885.96875 300.196875 
L 885.96875 45.373414 
L 877.25 45.373414 
z
" style="fill:#1f77b4;"/>
   </g>
   <g id="patch_51">
    <path clip-path="url(#pd4bb5def85)" d="M 57.6875 296.338571 
L 66.40625 296.338571 
L 66.40625 292.304889 
L 57.6875 292.304889 
z
" style="fill:#ff7f0e;"/>
   </g>
   <g id="patch_52">
    <path clip-path="url(#pd4bb5def85)" d="M 75.125 290.901869 
L 83.84375 290.901869 
L 83.84375 286.868187 
L 75.125 286.868187 
z
" style="fill:#ff7f0e;"/>
   </g>
   <g id="patch_53">
    <path clip-path="url(#pd4bb5def85)" d="M 92.5625 285.465168 
L 101.28125 285.465168 
L 101.28125 281.431486 
L 92.5625 281.431486 
z
" style="fill:#ff7f0e;"/>
   </g>
   <g id="patch_54">
    <path clip-path="url(#pd4bb5def85)" d="M 110 280.203844 
L 118.71875 280.203844 
L 118.71875 276.170162 
L 110 276.170162 
z
" style="fill:#ff7f0e;"/>
   </g>
   <g id="patch_55">
    <path clip-path="url(#pd4bb5def85)" d="M 127.4375 274.767142 
L 136.15625 274.767142 
L 136.15625 270.73346 
L 127.4375 270.73346 
z
" style="fill:#ff7f0e;"/>
   </g>
   <g id="patch_56">
    <path clip-path="url(#pd4bb5def85)" d="M 144.875 269.505818 
L 153.59375 269.505818 
L 153.59375 265.472136 
L 144.875 265.472136 
z
" style="fill:#ff7f0e;"/>
   </g>
   <g id="patch_57">
    <path clip-path="url(#pd4bb5def85)" d="M 162.3125 264.069117 
L 171.03125 264.069117 
L 171.03125 260.035435 
L 162.3125 260.035435 
z
" style="fill:#ff7f0e;"/>
   </g>
   <g id="patch_58">
    <path clip-path="url(#pd4bb5def85)" d="M 179.75 258.632415 
L 188.46875 258.632415 
L 188.46875 254.598733 
L 179.75 254.598733 
z
" style="fill:#ff7f0e;"/>
   </g>
   <g id="patch_59">
    <path clip-path="url(#pd4bb5def85)" d="M 197.1875 253.721846 
L 205.90625 253.721846 
L 205.90625 249.688164 
L 197.1875 249.688164 
z
" style="fill:#ff7f0e;"/>
   </g>
   <g id="patch_60">
    <path clip-path="url(#pd4bb5def85)" d="M 214.625 248.285144 
L 223.34375 248.285144 
L 223.34375 244.251463 
L 214.625 244.251463 
z
" style="fill:#ff7f0e;"/>
   </g>
   <g id="patch_61">
    <path clip-path="url(#pd4bb5def85)" d="M 232.0625 243.02382 
L 240.78125 243.02382 
L 240.78125 238.990139 
L 232.0625 238.990139 
z
" style="fill:#ff7f0e;"/>
   </g>
   <g id="patch_62">
    <path clip-path="url(#pd4bb5def85)" d="M 249.5 237.587119 
L 258.21875 237.587119 
L 258.21875 233.553437 
L 249.5 233.553437 
z
" style="fill:#ff7f0e;"/>
   </g>
   <g id="patch_63">
    <path clip-path="url(#pd4bb5def85)" d="M 266.9375 232.325795 
L 275.65625 232.325795 
L 275.65625 228.292113 
L 266.9375 228.292113 
z
" style="fill:#ff7f0e;"/>
   </g>
   <g id="patch_64">
    <path clip-path="url(#pd4bb5def85)" d="M 284.375 226.889093 
L 293.09375 226.889093 
L 293.09375 222.855412 
L 284.375 222.855412 
z
" style="fill:#ff7f0e;"/>
   </g>
   <g id="patch_65">
    <path clip-path="url(#pd4bb5def85)" d="M 301.8125 221.452392 
L 310.53125 221.452392 
L 310.53125 217.41871 
L 301.8125 217.41871 
z
" style="fill:#ff7f0e;"/>
   </g>
   <g id="patch_66">
    <path clip-path="url(#pd4bb5def85)" d="M 319.25 216.191068 
L 327.96875 216.191068 
L 327.96875 212.157386 
L 319.25 212.157386 
z
" style="fill:#ff7f0e;"/>
   </g>
   <g id="patch_67">
    <path clip-path="url(#pd4bb5def85)" d="M 336.6875 210.754366 
L 345.40625 210.754366 
L 345.40625 206.720685 
L 336.6875 206.720685 
z
" style="fill:#ff7f0e;"/>
   </g>
   <g id="patch_68">
    <path clip-path="url(#pd4bb5def85)" d="M 354.125 205.493042 
L 362.84375 205.493042 
L 362.84375 201.45936 
L 354.125 201.45936 
z
" style="fill:#ff7f0e;"/>
   </g>
   <g id="patch_69">
    <path clip-path="url(#pd4bb5def85)" d="M 371.5625 200.056341 
L 380.28125 200.056341 
L 380.28125 196.022659 
L 371.5625 196.022659 
z
" style="fill:#ff7f0e;"/>
   </g>
   <g id="patch_70">
    <path clip-path="url(#pd4bb5def85)" d="M 389 194.619639 
L 397.71875 194.619639 
L 397.71875 190.585957 
L 389 190.585957 
z
" style="fill:#ff7f0e;"/>
   </g>
   <g id="patch_71">
    <path clip-path="url(#pd4bb5def85)" d="M 406.4375 189.70907 
L 415.15625 189.70907 
L 415.15625 185.675388 
L 406.4375 185.675388 
z
" style="fill:#ff7f0e;"/>
   </g>
   <g id="patch_72">
    <path clip-path="url(#pd4bb5def85)" d="M 423.875 184.272369 
L 432.59375 184.272369 
L 432.59375 180.238687 
L 423.875 180.238687 
z
" style="fill:#ff7f0e;"/>
   </g>
   <g id="patch_73">
    <path clip-path="url(#pd4bb5def85)" d="M 441.3125 179.011045 
L 450.03125 179.011045 
L 450.03125 174.977363 
L 441.3125 174.977363 
z
" style="fill:#ff7f0e;"/>
   </g>
   <g id="patch_74">
    <path clip-path="url(#pd4bb5def85)" d="M 458.75 173.574343 
L 467.46875 173.574343 
L 467.46875 169.540661 
L 458.75 169.540661 
z
" style="fill:#ff7f0e;"/>
   </g>
   <g id="patch_75">
    <path clip-path="url(#pd4bb5def85)" d="M 476.1875 168.313019 
L 484.90625 168.313019 
L 484.90625 164.279337 
L 476.1875 164.279337 
z
" style="fill:#ff7f0e;"/>
   </g>
   <g id="patch_76">
    <path clip-path="url(#pd4bb5def85)" d="M 493.625 162.876318 
L 502.34375 162.876318 
L 502.34375 158.842636 
L 493.625 158.842636 
z
" style="fill:#ff7f0e;"/>
   </g>
   <g id="patch_77">
    <path clip-path="url(#pd4bb5def85)" d="M 511.0625 157.439616 
L 519.78125 157.439616 
L 519.78125 153.405934 
L 511.0625 153.405934 
z
" style="fill:#ff7f0e;"/>
   </g>
   <g id="patch_78">
    <path clip-path="url(#pd4bb5def85)" d="M 528.5 152.178292 
L 537.21875 152.178292 
L 537.21875 148.14461 
L 528.5 148.14461 
z
" style="fill:#ff7f0e;"/>
   </g>
   <g id="patch_79">
    <path clip-path="url(#pd4bb5def85)" d="M 545.9375 146.74159 
L 554.65625 146.74159 
L 554.65625 142.707909 
L 545.9375 142.707909 
z
" style="fill:#ff7f0e;"/>
   </g>
   <g id="patch_80">
    <path clip-path="url(#pd4bb5def85)" d="M 563.375 141.480266 
L 572.09375 141.480266 
L 572.09375 137.446585 
L 563.375 137.446585 
z
" style="fill:#ff7f0e;"/>
   </g>
   <g id="patch_81">
    <path clip-path="url(#pd4bb5def85)" d="M 580.8125 136.043565 
L 589.53125 136.043565 
L 589.53125 132.009883 
L 580.8125 132.009883 
z
" style="fill:#ff7f0e;"/>
   </g>
   <g id="patch_82">
    <path clip-path="url(#pd4bb5def85)" d="M 598.25 130.606863 
L 606.96875 130.606863 
L 606.96875 126.573182 
L 598.25 126.573182 
z
" style="fill:#ff7f0e;"/>
   </g>
   <g id="patch_83">
    <path clip-path="url(#pd4bb5def85)" d="M 615.6875 125.520917 
L 624.40625 125.520917 
L 624.40625 121.487235 
L 615.6875 121.487235 
z
" style="fill:#ff7f0e;"/>
   </g>
   <g id="patch_84">
    <path clip-path="url(#pd4bb5def85)" d="M 633.125 120.084215 
L 641.84375 120.084215 
L 641.84375 116.050534 
L 633.125 116.050534 
z
" style="fill:#ff7f0e;"/>
   </g>
   <g id="patch_85">
    <path clip-path="url(#pd4bb5def85)" d="M 650.5625 114.822891 
L 659.28125 114.822891 
L 659.28125 110.789209 
L 650.5625 110.789209 
z
" style="fill:#ff7f0e;"/>
   </g>
   <g id="patch_86">
    <path clip-path="url(#pd4bb5def85)" d="M 668 109.38619 
L 676.71875 109.38619 
L 676.71875 105.352508 
L 668 105.352508 
z
" style="fill:#ff7f0e;"/>
   </g>
   <g id="patch_87">
    <path clip-path="url(#pd4bb5def85)" d="M 685.4375 104.124866 
L 694.15625 104.124866 
L 694.15625 100.091184 
L 685.4375 100.091184 
z
" style="fill:#ff7f0e;"/>
   </g>
   <g id="patch_88">
    <path clip-path="url(#pd4bb5def85)" d="M 702.875 98.688164 
L 711.59375 98.688164 
L 711.59375 94.654482 
L 702.875 94.654482 
z
" style="fill:#ff7f0e;"/>
   </g>
   <g id="patch_89">
    <path clip-path="url(#pd4bb5def85)" d="M 720.3125 93.251463 
L 729.03125 93.251463 
L 729.03125 89.217781 
L 720.3125 89.217781 
z
" style="fill:#ff7f0e;"/>
   </g>
   <g id="patch_90">
    <path clip-path="url(#pd4bb5def85)" d="M 737.75 87.990139 
L 746.46875 87.990139 
L 746.46875 83.956457 
L 737.75 83.956457 
z
" style="fill:#ff7f0e;"/>
   </g>
   <g id="patch_91">
    <path clip-path="url(#pd4bb5def85)" d="M 755.1875 82.553437 
L 763.90625 82.553437 
L 763.90625 78.519755 
L 755.1875 78.519755 
z
" style="fill:#ff7f0e;"/>
   </g>
   <g id="patch_92">
    <path clip-path="url(#pd4bb5def85)" d="M 772.625 77.292113 
L 781.34375 77.292113 
L 781.34375 73.258431 
L 772.625 73.258431 
z
" style="fill:#ff7f0e;"/>
   </g>
   <g id="patch_93">
    <path clip-path="url(#pd4bb5def85)" d="M 790.0625 71.855412 
L 798.78125 71.855412 
L 798.78125 67.82173 
L 790.0625 67.82173 
z
" style="fill:#ff7f0e;"/>
   </g>
   <g id="patch_94">
    <path clip-path="url(#pd4bb5def85)" d="M 807.5 66.41871 
L 816.21875 66.41871 
L 816.21875 62.385028 
L 807.5 62.385028 
z
" style="fill:#ff7f0e;"/>
   </g>
   <g id="patch_95">
    <path clip-path="url(#pd4bb5def85)" d="M 824.9375 61.508141 
L 833.65625 61.508141 
L 833.65625 57.474459 
L 824.9375 57.474459 
z
" style="fill:#ff7f0e;"/>
   </g>
   <g id="patch_96">
    <path clip-path="url(#pd4bb5def85)" d="M 842.375 56.071439 
L 851.09375 56.071439 
L 851.09375 52.037758 
L 842.375 52.037758 
z
" style="fill:#ff7f0e;"/>
   </g>
   <g id="patch_97">
    <path clip-path="url(#pd4bb5def85)" d="M 859.8125 50.810115 
L 868.53125 50.810115 
L 868.53125 46.776434 
L 859.8125 46.776434 
z
" style="fill:#ff7f0e;"/>
   </g>
   <g id="patch_98">
    <path clip-path="url(#pd4bb5def85)" d="M 877.25 45.373414 
L 885.96875 45.373414 
L 885.96875 41.339732 
L 877.25 41.339732 
z
" style="fill:#ff7f0e;"/>
   </g>
   <g id="matplotlib.axis_1">
    <g id="xtick_1">
     <g id="line2d_1">
      <defs>
       <path d="M 0 0 
L 0 3.5 
" id="m0a990bd224" style="stroke:#000000;stroke-width:0.8;"/>
      </defs>
      <g>
       <use style="stroke:#000000;stroke-width:0.8;" x="62.046875" xlink:href="#m0a990bd224" y="300.196875"/>
      </g>
     </g>
     <g id="text_1">
      <!-- 0 -->
      <defs>
       <path d="M 31.78125 66.40625 
Q 24.171875 66.40625 20.328125 58.90625 
Q 16.5 51.421875 16.5 36.375 
Q 16.5 21.390625 20.328125 13.890625 
Q 24.171875 6.390625 31.78125 6.390625 
Q 39.453125 6.390625 43.28125 13.890625 
Q 47.125 21.390625 47.125 36.375 
Q 47.125 51.421875 43.28125 58.90625 
Q 39.453125 66.40625 31.78125 66.40625 
z
M 31.78125 74.21875 
Q 44.046875 74.21875 50.515625 64.515625 
Q 56.984375 54.828125 56.984375 36.375 
Q 56.984375 17.96875 50.515625 8.265625 
Q 44.046875 -1.421875 31.78125 -1.421875 
Q 19.53125 -1.421875 13.0625 8.265625 
Q 6.59375 17.96875 6.59375 36.375 
Q 6.59375 54.828125 13.0625 64.515625 
Q 19.53125 74.21875 31.78125 74.21875 
z
" id="DejaVuSans-48"/>
      </defs>
      <g transform="translate(64.80625 313.559375)rotate(-90)scale(0.1 -0.1)">
       <use xlink:href="#DejaVuSans-48"/>
      </g>
     </g>
    </g>
    <g id="xtick_2">
     <g id="line2d_2">
      <g>
       <use style="stroke:#000000;stroke-width:0.8;" x="79.484375" xlink:href="#m0a990bd224" y="300.196875"/>
      </g>
     </g>
     <g id="text_2">
      <!-- 1 -->
      <defs>
       <path d="M 12.40625 8.296875 
L 28.515625 8.296875 
L 28.515625 63.921875 
L 10.984375 60.40625 
L 10.984375 69.390625 
L 28.421875 72.90625 
L 38.28125 72.90625 
L 38.28125 8.296875 
L 54.390625 8.296875 
L 54.390625 0 
L 12.40625 0 
z
" id="DejaVuSans-49"/>
      </defs>
      <g transform="translate(82.24375 313.559375)rotate(-90)scale(0.1 -0.1)">
       <use xlink:href="#DejaVuSans-49"/>
      </g>
     </g>
    </g>
    <g id="xtick_3">
     <g id="line2d_3">
      <g>
       <use style="stroke:#000000;stroke-width:0.8;" x="96.921875" xlink:href="#m0a990bd224" y="300.196875"/>
      </g>
     </g>
     <g id="text_3">
      <!-- 2 -->
      <defs>
       <path d="M 19.1875 8.296875 
L 53.609375 8.296875 
L 53.609375 0 
L 7.328125 0 
L 7.328125 8.296875 
Q 12.9375 14.109375 22.625 23.890625 
Q 32.328125 33.6875 34.8125 36.53125 
Q 39.546875 41.84375 41.421875 45.53125 
Q 43.3125 49.21875 43.3125 52.78125 
Q 43.3125 58.59375 39.234375 62.25 
Q 35.15625 65.921875 28.609375 65.921875 
Q 23.96875 65.921875 18.8125 64.3125 
Q 13.671875 62.703125 7.8125 59.421875 
L 7.8125 69.390625 
Q 13.765625 71.78125 18.9375 73 
Q 24.125 74.21875 28.421875 74.21875 
Q 39.75 74.21875 46.484375 68.546875 
Q 53.21875 62.890625 53.21875 53.421875 
Q 53.21875 48.921875 51.53125 44.890625 
Q 49.859375 40.875 45.40625 35.40625 
Q 44.1875 33.984375 37.640625 27.21875 
Q 31.109375 20.453125 19.1875 8.296875 
z
" id="DejaVuSans-50"/>
      </defs>
      <g transform="translate(99.68125 313.559375)rotate(-90)scale(0.1 -0.1)">
       <use xlink:href="#DejaVuSans-50"/>
      </g>
     </g>
    </g>
    <g id="xtick_4">
     <g id="line2d_4">
      <g>
       <use style="stroke:#000000;stroke-width:0.8;" x="114.359375" xlink:href="#m0a990bd224" y="300.196875"/>
      </g>
     </g>
     <g id="text_4">
      <!-- 3 -->
      <defs>
       <path d="M 40.578125 39.3125 
Q 47.65625 37.796875 51.625 33 
Q 55.609375 28.21875 55.609375 21.1875 
Q 55.609375 10.40625 48.1875 4.484375 
Q 40.765625 -1.421875 27.09375 -1.421875 
Q 22.515625 -1.421875 17.65625 -0.515625 
Q 12.796875 0.390625 7.625 2.203125 
L 7.625 11.71875 
Q 11.71875 9.328125 16.59375 8.109375 
Q 21.484375 6.890625 26.8125 6.890625 
Q 36.078125 6.890625 40.9375 10.546875 
Q 45.796875 14.203125 45.796875 21.1875 
Q 45.796875 27.640625 41.28125 31.265625 
Q 36.765625 34.90625 28.71875 34.90625 
L 20.21875 34.90625 
L 20.21875 43.015625 
L 29.109375 43.015625 
Q 36.375 43.015625 40.234375 45.921875 
Q 44.09375 48.828125 44.09375 54.296875 
Q 44.09375 59.90625 40.109375 62.90625 
Q 36.140625 65.921875 28.71875 65.921875 
Q 24.65625 65.921875 20.015625 65.03125 
Q 15.375 64.15625 9.8125 62.3125 
L 9.8125 71.09375 
Q 15.4375 72.65625 20.34375 73.4375 
Q 25.25 74.21875 29.59375 74.21875 
Q 40.828125 74.21875 47.359375 69.109375 
Q 53.90625 64.015625 53.90625 55.328125 
Q 53.90625 49.265625 50.4375 45.09375 
Q 46.96875 40.921875 40.578125 39.3125 
z
" id="DejaVuSans-51"/>
      </defs>
      <g transform="translate(117.11875 313.559375)rotate(-90)scale(0.1 -0.1)">
       <use xlink:href="#DejaVuSans-51"/>
      </g>
     </g>
    </g>
    <g id="xtick_5">
     <g id="line2d_5">
      <g>
       <use style="stroke:#000000;stroke-width:0.8;" x="131.796875" xlink:href="#m0a990bd224" y="300.196875"/>
      </g>
     </g>
     <g id="text_5">
      <!-- 4 -->
      <defs>
       <path d="M 37.796875 64.3125 
L 12.890625 25.390625 
L 37.796875 25.390625 
z
M 35.203125 72.90625 
L 47.609375 72.90625 
L 47.609375 25.390625 
L 58.015625 25.390625 
L 58.015625 17.1875 
L 47.609375 17.1875 
L 47.609375 0 
L 37.796875 0 
L 37.796875 17.1875 
L 4.890625 17.1875 
L 4.890625 26.703125 
z
" id="DejaVuSans-52"/>
      </defs>
      <g transform="translate(134.55625 313.559375)rotate(-90)scale(0.1 -0.1)">
       <use xlink:href="#DejaVuSans-52"/>
      </g>
     </g>
    </g>
    <g id="xtick_6">
     <g id="line2d_6">
      <g>
       <use style="stroke:#000000;stroke-width:0.8;" x="149.234375" xlink:href="#m0a990bd224" y="300.196875"/>
      </g>
     </g>
     <g id="text_6">
      <!-- 5 -->
      <defs>
       <path d="M 10.796875 72.90625 
L 49.515625 72.90625 
L 49.515625 64.59375 
L 19.828125 64.59375 
L 19.828125 46.734375 
Q 21.96875 47.46875 24.109375 47.828125 
Q 26.265625 48.1875 28.421875 48.1875 
Q 40.625 48.1875 47.75 41.5 
Q 54.890625 34.8125 54.890625 23.390625 
Q 54.890625 11.625 47.5625 5.09375 
Q 40.234375 -1.421875 26.90625 -1.421875 
Q 22.3125 -1.421875 17.546875 -0.640625 
Q 12.796875 0.140625 7.71875 1.703125 
L 7.71875 11.625 
Q 12.109375 9.234375 16.796875 8.0625 
Q 21.484375 6.890625 26.703125 6.890625 
Q 35.15625 6.890625 40.078125 11.328125 
Q 45.015625 15.765625 45.015625 23.390625 
Q 45.015625 31 40.078125 35.4375 
Q 35.15625 39.890625 26.703125 39.890625 
Q 22.75 39.890625 18.8125 39.015625 
Q 14.890625 38.140625 10.796875 36.28125 
z
" id="DejaVuSans-53"/>
      </defs>
      <g transform="translate(151.99375 313.559375)rotate(-90)scale(0.1 -0.1)">
       <use xlink:href="#DejaVuSans-53"/>
      </g>
     </g>
    </g>
    <g id="xtick_7">
     <g id="line2d_7">
      <g>
       <use style="stroke:#000000;stroke-width:0.8;" x="166.671875" xlink:href="#m0a990bd224" y="300.196875"/>
      </g>
     </g>
     <g id="text_7">
      <!-- 6 -->
      <defs>
       <path d="M 33.015625 40.375 
Q 26.375 40.375 22.484375 35.828125 
Q 18.609375 31.296875 18.609375 23.390625 
Q 18.609375 15.53125 22.484375 10.953125 
Q 26.375 6.390625 33.015625 6.390625 
Q 39.65625 6.390625 43.53125 10.953125 
Q 47.40625 15.53125 47.40625 23.390625 
Q 47.40625 31.296875 43.53125 35.828125 
Q 39.65625 40.375 33.015625 40.375 
z
M 52.59375 71.296875 
L 52.59375 62.3125 
Q 48.875 64.0625 45.09375 64.984375 
Q 41.3125 65.921875 37.59375 65.921875 
Q 27.828125 65.921875 22.671875 59.328125 
Q 17.53125 52.734375 16.796875 39.40625 
Q 19.671875 43.65625 24.015625 45.921875 
Q 28.375 48.1875 33.59375 48.1875 
Q 44.578125 48.1875 50.953125 41.515625 
Q 57.328125 34.859375 57.328125 23.390625 
Q 57.328125 12.15625 50.6875 5.359375 
Q 44.046875 -1.421875 33.015625 -1.421875 
Q 20.359375 -1.421875 13.671875 8.265625 
Q 6.984375 17.96875 6.984375 36.375 
Q 6.984375 53.65625 15.1875 63.9375 
Q 23.390625 74.21875 37.203125 74.21875 
Q 40.921875 74.21875 44.703125 73.484375 
Q 48.484375 72.75 52.59375 71.296875 
z
" id="DejaVuSans-54"/>
      </defs>
      <g transform="translate(169.43125 313.559375)rotate(-90)scale(0.1 -0.1)">
       <use xlink:href="#DejaVuSans-54"/>
      </g>
     </g>
    </g>
    <g id="xtick_8">
     <g id="line2d_8">
      <g>
       <use style="stroke:#000000;stroke-width:0.8;" x="184.109375" xlink:href="#m0a990bd224" y="300.196875"/>
      </g>
     </g>
     <g id="text_8">
      <!-- 7 -->
      <defs>
       <path d="M 8.203125 72.90625 
L 55.078125 72.90625 
L 55.078125 68.703125 
L 28.609375 0 
L 18.3125 0 
L 43.21875 64.59375 
L 8.203125 64.59375 
z
" id="DejaVuSans-55"/>
      </defs>
      <g transform="translate(186.86875 313.559375)rotate(-90)scale(0.1 -0.1)">
       <use xlink:href="#DejaVuSans-55"/>
      </g>
     </g>
    </g>
    <g id="xtick_9">
     <g id="line2d_9">
      <g>
       <use style="stroke:#000000;stroke-width:0.8;" x="201.546875" xlink:href="#m0a990bd224" y="300.196875"/>
      </g>
     </g>
     <g id="text_9">
      <!-- 8 -->
      <defs>
       <path d="M 31.78125 34.625 
Q 24.75 34.625 20.71875 30.859375 
Q 16.703125 27.09375 16.703125 20.515625 
Q 16.703125 13.921875 20.71875 10.15625 
Q 24.75 6.390625 31.78125 6.390625 
Q 38.8125 6.390625 42.859375 10.171875 
Q 46.921875 13.96875 46.921875 20.515625 
Q 46.921875 27.09375 42.890625 30.859375 
Q 38.875 34.625 31.78125 34.625 
z
M 21.921875 38.8125 
Q 15.578125 40.375 12.03125 44.71875 
Q 8.5 49.078125 8.5 55.328125 
Q 8.5 64.0625 14.71875 69.140625 
Q 20.953125 74.21875 31.78125 74.21875 
Q 42.671875 74.21875 48.875 69.140625 
Q 55.078125 64.0625 55.078125 55.328125 
Q 55.078125 49.078125 51.53125 44.71875 
Q 48 40.375 41.703125 38.8125 
Q 48.828125 37.15625 52.796875 32.3125 
Q 56.78125 27.484375 56.78125 20.515625 
Q 56.78125 9.90625 50.3125 4.234375 
Q 43.84375 -1.421875 31.78125 -1.421875 
Q 19.734375 -1.421875 13.25 4.234375 
Q 6.78125 9.90625 6.78125 20.515625 
Q 6.78125 27.484375 10.78125 32.3125 
Q 14.796875 37.15625 21.921875 38.8125 
z
M 18.3125 54.390625 
Q 18.3125 48.734375 21.84375 45.5625 
Q 25.390625 42.390625 31.78125 42.390625 
Q 38.140625 42.390625 41.71875 45.5625 
Q 45.3125 48.734375 45.3125 54.390625 
Q 45.3125 60.0625 41.71875 63.234375 
Q 38.140625 66.40625 31.78125 66.40625 
Q 25.390625 66.40625 21.84375 63.234375 
Q 18.3125 60.0625 18.3125 54.390625 
z
" id="DejaVuSans-56"/>
      </defs>
      <g transform="translate(204.30625 313.559375)rotate(-90)scale(0.1 -0.1)">
       <use xlink:href="#DejaVuSans-56"/>
      </g>
     </g>
    </g>
    <g id="xtick_10">
     <g id="line2d_10">
      <g>
       <use style="stroke:#000000;stroke-width:0.8;" x="218.984375" xlink:href="#m0a990bd224" y="300.196875"/>
      </g>
     </g>
     <g id="text_10">
      <!-- 9 -->
      <defs>
       <path d="M 10.984375 1.515625 
L 10.984375 10.5 
Q 14.703125 8.734375 18.5 7.8125 
Q 22.3125 6.890625 25.984375 6.890625 
Q 35.75 6.890625 40.890625 13.453125 
Q 46.046875 20.015625 46.78125 33.40625 
Q 43.953125 29.203125 39.59375 26.953125 
Q 35.25 24.703125 29.984375 24.703125 
Q 19.046875 24.703125 12.671875 31.3125 
Q 6.296875 37.9375 6.296875 49.421875 
Q 6.296875 60.640625 12.9375 67.421875 
Q 19.578125 74.21875 30.609375 74.21875 
Q 43.265625 74.21875 49.921875 64.515625 
Q 56.59375 54.828125 56.59375 36.375 
Q 56.59375 19.140625 48.40625 8.859375 
Q 40.234375 -1.421875 26.421875 -1.421875 
Q 22.703125 -1.421875 18.890625 -0.6875 
Q 15.09375 0.046875 10.984375 1.515625 
z
M 30.609375 32.421875 
Q 37.25 32.421875 41.125 36.953125 
Q 45.015625 41.5 45.015625 49.421875 
Q 45.015625 57.28125 41.125 61.84375 
Q 37.25 66.40625 30.609375 66.40625 
Q 23.96875 66.40625 20.09375 61.84375 
Q 16.21875 57.28125 16.21875 49.421875 
Q 16.21875 41.5 20.09375 36.953125 
Q 23.96875 32.421875 30.609375 32.421875 
z
" id="DejaVuSans-57"/>
      </defs>
      <g transform="translate(221.74375 313.559375)rotate(-90)scale(0.1 -0.1)">
       <use xlink:href="#DejaVuSans-57"/>
      </g>
     </g>
    </g>
    <g id="xtick_11">
     <g id="line2d_11">
      <g>
       <use style="stroke:#000000;stroke-width:0.8;" x="236.421875" xlink:href="#m0a990bd224" y="300.196875"/>
      </g>
     </g>
     <g id="text_11">
      <!-- 10 -->
      <g transform="translate(239.18125 319.921875)rotate(-90)scale(0.1 -0.1)">
       <use xlink:href="#DejaVuSans-49"/>
       <use x="63.623047" xlink:href="#DejaVuSans-48"/>
      </g>
     </g>
    </g>
    <g id="xtick_12">
     <g id="line2d_12">
      <g>
       <use style="stroke:#000000;stroke-width:0.8;" x="253.859375" xlink:href="#m0a990bd224" y="300.196875"/>
      </g>
     </g>
     <g id="text_12">
      <!-- 11 -->
      <g transform="translate(256.61875 319.921875)rotate(-90)scale(0.1 -0.1)">
       <use xlink:href="#DejaVuSans-49"/>
       <use x="63.623047" xlink:href="#DejaVuSans-49"/>
      </g>
     </g>
    </g>
    <g id="xtick_13">
     <g id="line2d_13">
      <g>
       <use style="stroke:#000000;stroke-width:0.8;" x="271.296875" xlink:href="#m0a990bd224" y="300.196875"/>
      </g>
     </g>
     <g id="text_13">
      <!-- 12 -->
      <g transform="translate(274.05625 319.921875)rotate(-90)scale(0.1 -0.1)">
       <use xlink:href="#DejaVuSans-49"/>
       <use x="63.623047" xlink:href="#DejaVuSans-50"/>
      </g>
     </g>
    </g>
    <g id="xtick_14">
     <g id="line2d_14">
      <g>
       <use style="stroke:#000000;stroke-width:0.8;" x="288.734375" xlink:href="#m0a990bd224" y="300.196875"/>
      </g>
     </g>
     <g id="text_14">
      <!-- 13 -->
      <g transform="translate(291.49375 319.921875)rotate(-90)scale(0.1 -0.1)">
       <use xlink:href="#DejaVuSans-49"/>
       <use x="63.623047" xlink:href="#DejaVuSans-51"/>
      </g>
     </g>
    </g>
    <g id="xtick_15">
     <g id="line2d_15">
      <g>
       <use style="stroke:#000000;stroke-width:0.8;" x="306.171875" xlink:href="#m0a990bd224" y="300.196875"/>
      </g>
     </g>
     <g id="text_15">
      <!-- 14 -->
      <g transform="translate(308.93125 319.921875)rotate(-90)scale(0.1 -0.1)">
       <use xlink:href="#DejaVuSans-49"/>
       <use x="63.623047" xlink:href="#DejaVuSans-52"/>
      </g>
     </g>
    </g>
    <g id="xtick_16">
     <g id="line2d_16">
      <g>
       <use style="stroke:#000000;stroke-width:0.8;" x="323.609375" xlink:href="#m0a990bd224" y="300.196875"/>
      </g>
     </g>
     <g id="text_16">
      <!-- 15 -->
      <g transform="translate(326.36875 319.921875)rotate(-90)scale(0.1 -0.1)">
       <use xlink:href="#DejaVuSans-49"/>
       <use x="63.623047" xlink:href="#DejaVuSans-53"/>
      </g>
     </g>
    </g>
    <g id="xtick_17">
     <g id="line2d_17">
      <g>
       <use style="stroke:#000000;stroke-width:0.8;" x="341.046875" xlink:href="#m0a990bd224" y="300.196875"/>
      </g>
     </g>
     <g id="text_17">
      <!-- 16 -->
      <g transform="translate(343.80625 319.921875)rotate(-90)scale(0.1 -0.1)">
       <use xlink:href="#DejaVuSans-49"/>
       <use x="63.623047" xlink:href="#DejaVuSans-54"/>
      </g>
     </g>
    </g>
    <g id="xtick_18">
     <g id="line2d_18">
      <g>
       <use style="stroke:#000000;stroke-width:0.8;" x="358.484375" xlink:href="#m0a990bd224" y="300.196875"/>
      </g>
     </g>
     <g id="text_18">
      <!-- 17 -->
      <g transform="translate(361.24375 319.921875)rotate(-90)scale(0.1 -0.1)">
       <use xlink:href="#DejaVuSans-49"/>
       <use x="63.623047" xlink:href="#DejaVuSans-55"/>
      </g>
     </g>
    </g>
    <g id="xtick_19">
     <g id="line2d_19">
      <g>
       <use style="stroke:#000000;stroke-width:0.8;" x="375.921875" xlink:href="#m0a990bd224" y="300.196875"/>
      </g>
     </g>
     <g id="text_19">
      <!-- 18 -->
      <g transform="translate(378.68125 319.921875)rotate(-90)scale(0.1 -0.1)">
       <use xlink:href="#DejaVuSans-49"/>
       <use x="63.623047" xlink:href="#DejaVuSans-56"/>
      </g>
     </g>
    </g>
    <g id="xtick_20">
     <g id="line2d_20">
      <g>
       <use style="stroke:#000000;stroke-width:0.8;" x="393.359375" xlink:href="#m0a990bd224" y="300.196875"/>
      </g>
     </g>
     <g id="text_20">
      <!-- 19 -->
      <g transform="translate(396.11875 319.921875)rotate(-90)scale(0.1 -0.1)">
       <use xlink:href="#DejaVuSans-49"/>
       <use x="63.623047" xlink:href="#DejaVuSans-57"/>
      </g>
     </g>
    </g>
    <g id="xtick_21">
     <g id="line2d_21">
      <g>
       <use style="stroke:#000000;stroke-width:0.8;" x="410.796875" xlink:href="#m0a990bd224" y="300.196875"/>
      </g>
     </g>
     <g id="text_21">
      <!-- 20 -->
      <g transform="translate(413.55625 319.921875)rotate(-90)scale(0.1 -0.1)">
       <use xlink:href="#DejaVuSans-50"/>
       <use x="63.623047" xlink:href="#DejaVuSans-48"/>
      </g>
     </g>
    </g>
    <g id="xtick_22">
     <g id="line2d_22">
      <g>
       <use style="stroke:#000000;stroke-width:0.8;" x="428.234375" xlink:href="#m0a990bd224" y="300.196875"/>
      </g>
     </g>
     <g id="text_22">
      <!-- 21 -->
      <g transform="translate(430.99375 319.921875)rotate(-90)scale(0.1 -0.1)">
       <use xlink:href="#DejaVuSans-50"/>
       <use x="63.623047" xlink:href="#DejaVuSans-49"/>
      </g>
     </g>
    </g>
    <g id="xtick_23">
     <g id="line2d_23">
      <g>
       <use style="stroke:#000000;stroke-width:0.8;" x="445.671875" xlink:href="#m0a990bd224" y="300.196875"/>
      </g>
     </g>
     <g id="text_23">
      <!-- 22 -->
      <g transform="translate(448.43125 319.921875)rotate(-90)scale(0.1 -0.1)">
       <use xlink:href="#DejaVuSans-50"/>
       <use x="63.623047" xlink:href="#DejaVuSans-50"/>
      </g>
     </g>
    </g>
    <g id="xtick_24">
     <g id="line2d_24">
      <g>
       <use style="stroke:#000000;stroke-width:0.8;" x="463.109375" xlink:href="#m0a990bd224" y="300.196875"/>
      </g>
     </g>
     <g id="text_24">
      <!-- 23 -->
      <g transform="translate(465.86875 319.921875)rotate(-90)scale(0.1 -0.1)">
       <use xlink:href="#DejaVuSans-50"/>
       <use x="63.623047" xlink:href="#DejaVuSans-51"/>
      </g>
     </g>
    </g>
    <g id="xtick_25">
     <g id="line2d_25">
      <g>
       <use style="stroke:#000000;stroke-width:0.8;" x="480.546875" xlink:href="#m0a990bd224" y="300.196875"/>
      </g>
     </g>
     <g id="text_25">
      <!-- 24 -->
      <g transform="translate(483.30625 319.921875)rotate(-90)scale(0.1 -0.1)">
       <use xlink:href="#DejaVuSans-50"/>
       <use x="63.623047" xlink:href="#DejaVuSans-52"/>
      </g>
     </g>
    </g>
    <g id="xtick_26">
     <g id="line2d_26">
      <g>
       <use style="stroke:#000000;stroke-width:0.8;" x="497.984375" xlink:href="#m0a990bd224" y="300.196875"/>
      </g>
     </g>
     <g id="text_26">
      <!-- 25 -->
      <g transform="translate(500.74375 319.921875)rotate(-90)scale(0.1 -0.1)">
       <use xlink:href="#DejaVuSans-50"/>
       <use x="63.623047" xlink:href="#DejaVuSans-53"/>
      </g>
     </g>
    </g>
    <g id="xtick_27">
     <g id="line2d_27">
      <g>
       <use style="stroke:#000000;stroke-width:0.8;" x="515.421875" xlink:href="#m0a990bd224" y="300.196875"/>
      </g>
     </g>
     <g id="text_27">
      <!-- 26 -->
      <g transform="translate(518.18125 319.921875)rotate(-90)scale(0.1 -0.1)">
       <use xlink:href="#DejaVuSans-50"/>
       <use x="63.623047" xlink:href="#DejaVuSans-54"/>
      </g>
     </g>
    </g>
    <g id="xtick_28">
     <g id="line2d_28">
      <g>
       <use style="stroke:#000000;stroke-width:0.8;" x="532.859375" xlink:href="#m0a990bd224" y="300.196875"/>
      </g>
     </g>
     <g id="text_28">
      <!-- 27 -->
      <g transform="translate(535.61875 319.921875)rotate(-90)scale(0.1 -0.1)">
       <use xlink:href="#DejaVuSans-50"/>
       <use x="63.623047" xlink:href="#DejaVuSans-55"/>
      </g>
     </g>
    </g>
    <g id="xtick_29">
     <g id="line2d_29">
      <g>
       <use style="stroke:#000000;stroke-width:0.8;" x="550.296875" xlink:href="#m0a990bd224" y="300.196875"/>
      </g>
     </g>
     <g id="text_29">
      <!-- 28 -->
      <g transform="translate(553.05625 319.921875)rotate(-90)scale(0.1 -0.1)">
       <use xlink:href="#DejaVuSans-50"/>
       <use x="63.623047" xlink:href="#DejaVuSans-56"/>
      </g>
     </g>
    </g>
    <g id="xtick_30">
     <g id="line2d_30">
      <g>
       <use style="stroke:#000000;stroke-width:0.8;" x="567.734375" xlink:href="#m0a990bd224" y="300.196875"/>
      </g>
     </g>
     <g id="text_30">
      <!-- 29 -->
      <g transform="translate(570.49375 319.921875)rotate(-90)scale(0.1 -0.1)">
       <use xlink:href="#DejaVuSans-50"/>
       <use x="63.623047" xlink:href="#DejaVuSans-57"/>
      </g>
     </g>
    </g>
    <g id="xtick_31">
     <g id="line2d_31">
      <g>
       <use style="stroke:#000000;stroke-width:0.8;" x="585.171875" xlink:href="#m0a990bd224" y="300.196875"/>
      </g>
     </g>
     <g id="text_31">
      <!-- 30 -->
      <g transform="translate(587.93125 319.921875)rotate(-90)scale(0.1 -0.1)">
       <use xlink:href="#DejaVuSans-51"/>
       <use x="63.623047" xlink:href="#DejaVuSans-48"/>
      </g>
     </g>
    </g>
    <g id="xtick_32">
     <g id="line2d_32">
      <g>
       <use style="stroke:#000000;stroke-width:0.8;" x="602.609375" xlink:href="#m0a990bd224" y="300.196875"/>
      </g>
     </g>
     <g id="text_32">
      <!-- 31 -->
      <g transform="translate(605.36875 319.921875)rotate(-90)scale(0.1 -0.1)">
       <use xlink:href="#DejaVuSans-51"/>
       <use x="63.623047" xlink:href="#DejaVuSans-49"/>
      </g>
     </g>
    </g>
    <g id="xtick_33">
     <g id="line2d_33">
      <g>
       <use style="stroke:#000000;stroke-width:0.8;" x="620.046875" xlink:href="#m0a990bd224" y="300.196875"/>
      </g>
     </g>
     <g id="text_33">
      <!-- 32 -->
      <g transform="translate(622.80625 319.921875)rotate(-90)scale(0.1 -0.1)">
       <use xlink:href="#DejaVuSans-51"/>
       <use x="63.623047" xlink:href="#DejaVuSans-50"/>
      </g>
     </g>
    </g>
    <g id="xtick_34">
     <g id="line2d_34">
      <g>
       <use style="stroke:#000000;stroke-width:0.8;" x="637.484375" xlink:href="#m0a990bd224" y="300.196875"/>
      </g>
     </g>
     <g id="text_34">
      <!-- 33 -->
      <g transform="translate(640.24375 319.921875)rotate(-90)scale(0.1 -0.1)">
       <use xlink:href="#DejaVuSans-51"/>
       <use x="63.623047" xlink:href="#DejaVuSans-51"/>
      </g>
     </g>
    </g>
    <g id="xtick_35">
     <g id="line2d_35">
      <g>
       <use style="stroke:#000000;stroke-width:0.8;" x="654.921875" xlink:href="#m0a990bd224" y="300.196875"/>
      </g>
     </g>
     <g id="text_35">
      <!-- 34 -->
      <g transform="translate(657.68125 319.921875)rotate(-90)scale(0.1 -0.1)">
       <use xlink:href="#DejaVuSans-51"/>
       <use x="63.623047" xlink:href="#DejaVuSans-52"/>
      </g>
     </g>
    </g>
    <g id="xtick_36">
     <g id="line2d_36">
      <g>
       <use style="stroke:#000000;stroke-width:0.8;" x="672.359375" xlink:href="#m0a990bd224" y="300.196875"/>
      </g>
     </g>
     <g id="text_36">
      <!-- 35 -->
      <g transform="translate(675.11875 319.921875)rotate(-90)scale(0.1 -0.1)">
       <use xlink:href="#DejaVuSans-51"/>
       <use x="63.623047" xlink:href="#DejaVuSans-53"/>
      </g>
     </g>
    </g>
    <g id="xtick_37">
     <g id="line2d_37">
      <g>
       <use style="stroke:#000000;stroke-width:0.8;" x="689.796875" xlink:href="#m0a990bd224" y="300.196875"/>
      </g>
     </g>
     <g id="text_37">
      <!-- 36 -->
      <g transform="translate(692.55625 319.921875)rotate(-90)scale(0.1 -0.1)">
       <use xlink:href="#DejaVuSans-51"/>
       <use x="63.623047" xlink:href="#DejaVuSans-54"/>
      </g>
     </g>
    </g>
    <g id="xtick_38">
     <g id="line2d_38">
      <g>
       <use style="stroke:#000000;stroke-width:0.8;" x="707.234375" xlink:href="#m0a990bd224" y="300.196875"/>
      </g>
     </g>
     <g id="text_38">
      <!-- 37 -->
      <g transform="translate(709.99375 319.921875)rotate(-90)scale(0.1 -0.1)">
       <use xlink:href="#DejaVuSans-51"/>
       <use x="63.623047" xlink:href="#DejaVuSans-55"/>
      </g>
     </g>
    </g>
    <g id="xtick_39">
     <g id="line2d_39">
      <g>
       <use style="stroke:#000000;stroke-width:0.8;" x="724.671875" xlink:href="#m0a990bd224" y="300.196875"/>
      </g>
     </g>
     <g id="text_39">
      <!-- 38 -->
      <g transform="translate(727.43125 319.921875)rotate(-90)scale(0.1 -0.1)">
       <use xlink:href="#DejaVuSans-51"/>
       <use x="63.623047" xlink:href="#DejaVuSans-56"/>
      </g>
     </g>
    </g>
    <g id="xtick_40">
     <g id="line2d_40">
      <g>
       <use style="stroke:#000000;stroke-width:0.8;" x="742.109375" xlink:href="#m0a990bd224" y="300.196875"/>
      </g>
     </g>
     <g id="text_40">
      <!-- 39 -->
      <g transform="translate(744.86875 319.921875)rotate(-90)scale(0.1 -0.1)">
       <use xlink:href="#DejaVuSans-51"/>
       <use x="63.623047" xlink:href="#DejaVuSans-57"/>
      </g>
     </g>
    </g>
    <g id="xtick_41">
     <g id="line2d_41">
      <g>
       <use style="stroke:#000000;stroke-width:0.8;" x="759.546875" xlink:href="#m0a990bd224" y="300.196875"/>
      </g>
     </g>
     <g id="text_41">
      <!-- 40 -->
      <g transform="translate(762.30625 319.921875)rotate(-90)scale(0.1 -0.1)">
       <use xlink:href="#DejaVuSans-52"/>
       <use x="63.623047" xlink:href="#DejaVuSans-48"/>
      </g>
     </g>
    </g>
    <g id="xtick_42">
     <g id="line2d_42">
      <g>
       <use style="stroke:#000000;stroke-width:0.8;" x="776.984375" xlink:href="#m0a990bd224" y="300.196875"/>
      </g>
     </g>
     <g id="text_42">
      <!-- 41 -->
      <g transform="translate(779.74375 319.921875)rotate(-90)scale(0.1 -0.1)">
       <use xlink:href="#DejaVuSans-52"/>
       <use x="63.623047" xlink:href="#DejaVuSans-49"/>
      </g>
     </g>
    </g>
    <g id="xtick_43">
     <g id="line2d_43">
      <g>
       <use style="stroke:#000000;stroke-width:0.8;" x="794.421875" xlink:href="#m0a990bd224" y="300.196875"/>
      </g>
     </g>
     <g id="text_43">
      <!-- 42 -->
      <g transform="translate(797.18125 319.921875)rotate(-90)scale(0.1 -0.1)">
       <use xlink:href="#DejaVuSans-52"/>
       <use x="63.623047" xlink:href="#DejaVuSans-50"/>
      </g>
     </g>
    </g>
    <g id="xtick_44">
     <g id="line2d_44">
      <g>
       <use style="stroke:#000000;stroke-width:0.8;" x="811.859375" xlink:href="#m0a990bd224" y="300.196875"/>
      </g>
     </g>
     <g id="text_44">
      <!-- 43 -->
      <g transform="translate(814.61875 319.921875)rotate(-90)scale(0.1 -0.1)">
       <use xlink:href="#DejaVuSans-52"/>
       <use x="63.623047" xlink:href="#DejaVuSans-51"/>
      </g>
     </g>
    </g>
    <g id="xtick_45">
     <g id="line2d_45">
      <g>
       <use style="stroke:#000000;stroke-width:0.8;" x="829.296875" xlink:href="#m0a990bd224" y="300.196875"/>
      </g>
     </g>
     <g id="text_45">
      <!-- 44 -->
      <g transform="translate(832.05625 319.921875)rotate(-90)scale(0.1 -0.1)">
       <use xlink:href="#DejaVuSans-52"/>
       <use x="63.623047" xlink:href="#DejaVuSans-52"/>
      </g>
     </g>
    </g>
    <g id="xtick_46">
     <g id="line2d_46">
      <g>
       <use style="stroke:#000000;stroke-width:0.8;" x="846.734375" xlink:href="#m0a990bd224" y="300.196875"/>
      </g>
     </g>
     <g id="text_46">
      <!-- 45 -->
      <g transform="translate(849.49375 319.921875)rotate(-90)scale(0.1 -0.1)">
       <use xlink:href="#DejaVuSans-52"/>
       <use x="63.623047" xlink:href="#DejaVuSans-53"/>
      </g>
     </g>
    </g>
    <g id="xtick_47">
     <g id="line2d_47">
      <g>
       <use style="stroke:#000000;stroke-width:0.8;" x="864.171875" xlink:href="#m0a990bd224" y="300.196875"/>
      </g>
     </g>
     <g id="text_47">
      <!-- 46 -->
      <g transform="translate(866.93125 319.921875)rotate(-90)scale(0.1 -0.1)">
       <use xlink:href="#DejaVuSans-52"/>
       <use x="63.623047" xlink:href="#DejaVuSans-54"/>
      </g>
     </g>
    </g>
    <g id="xtick_48">
     <g id="line2d_48">
      <g>
       <use style="stroke:#000000;stroke-width:0.8;" x="881.609375" xlink:href="#m0a990bd224" y="300.196875"/>
      </g>
     </g>
     <g id="text_48">
      <!-- 47 -->
      <g transform="translate(884.36875 319.921875)rotate(-90)scale(0.1 -0.1)">
       <use xlink:href="#DejaVuSans-52"/>
       <use x="63.623047" xlink:href="#DejaVuSans-55"/>
      </g>
     </g>
    </g>
    <g id="text_49">
     <!-- Training Data Segments -->
     <defs>
      <path d="M -0.296875 72.90625 
L 61.375 72.90625 
L 61.375 64.59375 
L 35.5 64.59375 
L 35.5 0 
L 25.59375 0 
L 25.59375 64.59375 
L -0.296875 64.59375 
z
" id="DejaVuSans-84"/>
      <path d="M 41.109375 46.296875 
Q 39.59375 47.171875 37.8125 47.578125 
Q 36.03125 48 33.890625 48 
Q 26.265625 48 22.1875 43.046875 
Q 18.109375 38.09375 18.109375 28.8125 
L 18.109375 0 
L 9.078125 0 
L 9.078125 54.6875 
L 18.109375 54.6875 
L 18.109375 46.1875 
Q 20.953125 51.171875 25.484375 53.578125 
Q 30.03125 56 36.53125 56 
Q 37.453125 56 38.578125 55.875 
Q 39.703125 55.765625 41.0625 55.515625 
z
" id="DejaVuSans-114"/>
      <path d="M 34.28125 27.484375 
Q 23.390625 27.484375 19.1875 25 
Q 14.984375 22.515625 14.984375 16.5 
Q 14.984375 11.71875 18.140625 8.90625 
Q 21.296875 6.109375 26.703125 6.109375 
Q 34.1875 6.109375 38.703125 11.40625 
Q 43.21875 16.703125 43.21875 25.484375 
L 43.21875 27.484375 
z
M 52.203125 31.203125 
L 52.203125 0 
L 43.21875 0 
L 43.21875 8.296875 
Q 40.140625 3.328125 35.546875 0.953125 
Q 30.953125 -1.421875 24.3125 -1.421875 
Q 15.921875 -1.421875 10.953125 3.296875 
Q 6 8.015625 6 15.921875 
Q 6 25.140625 12.171875 29.828125 
Q 18.359375 34.515625 30.609375 34.515625 
L 43.21875 34.515625 
L 43.21875 35.40625 
Q 43.21875 41.609375 39.140625 45 
Q 35.0625 48.390625 27.6875 48.390625 
Q 23 48.390625 18.546875 47.265625 
Q 14.109375 46.140625 10.015625 43.890625 
L 10.015625 52.203125 
Q 14.9375 54.109375 19.578125 55.046875 
Q 24.21875 56 28.609375 56 
Q 40.484375 56 46.34375 49.84375 
Q 52.203125 43.703125 52.203125 31.203125 
z
" id="DejaVuSans-97"/>
      <path d="M 9.421875 54.6875 
L 18.40625 54.6875 
L 18.40625 0 
L 9.421875 0 
z
M 9.421875 75.984375 
L 18.40625 75.984375 
L 18.40625 64.59375 
L 9.421875 64.59375 
z
" id="DejaVuSans-105"/>
      <path d="M 54.890625 33.015625 
L 54.890625 0 
L 45.90625 0 
L 45.90625 32.71875 
Q 45.90625 40.484375 42.875 44.328125 
Q 39.84375 48.1875 33.796875 48.1875 
Q 26.515625 48.1875 22.3125 43.546875 
Q 18.109375 38.921875 18.109375 30.90625 
L 18.109375 0 
L 9.078125 0 
L 9.078125 54.6875 
L 18.109375 54.6875 
L 18.109375 46.1875 
Q 21.34375 51.125 25.703125 53.5625 
Q 30.078125 56 35.796875 56 
Q 45.21875 56 50.046875 50.171875 
Q 54.890625 44.34375 54.890625 33.015625 
z
" id="DejaVuSans-110"/>
      <path d="M 45.40625 27.984375 
Q 45.40625 37.75 41.375 43.109375 
Q 37.359375 48.484375 30.078125 48.484375 
Q 22.859375 48.484375 18.828125 43.109375 
Q 14.796875 37.75 14.796875 27.984375 
Q 14.796875 18.265625 18.828125 12.890625 
Q 22.859375 7.515625 30.078125 7.515625 
Q 37.359375 7.515625 41.375 12.890625 
Q 45.40625 18.265625 45.40625 27.984375 
z
M 54.390625 6.78125 
Q 54.390625 -7.171875 48.1875 -13.984375 
Q 42 -20.796875 29.203125 -20.796875 
Q 24.46875 -20.796875 20.265625 -20.09375 
Q 16.0625 -19.390625 12.109375 -17.921875 
L 12.109375 -9.1875 
Q 16.0625 -11.328125 19.921875 -12.34375 
Q 23.78125 -13.375 27.78125 -13.375 
Q 36.625 -13.375 41.015625 -8.765625 
Q 45.40625 -4.15625 45.40625 5.171875 
L 45.40625 9.625 
Q 42.625 4.78125 38.28125 2.390625 
Q 33.9375 0 27.875 0 
Q 17.828125 0 11.671875 7.65625 
Q 5.515625 15.328125 5.515625 27.984375 
Q 5.515625 40.671875 11.671875 48.328125 
Q 17.828125 56 27.875 56 
Q 33.9375 56 38.28125 53.609375 
Q 42.625 51.21875 45.40625 46.390625 
L 45.40625 54.6875 
L 54.390625 54.6875 
z
" id="DejaVuSans-103"/>
      <path id="DejaVuSans-32"/>
      <path d="M 19.671875 64.796875 
L 19.671875 8.109375 
L 31.59375 8.109375 
Q 46.6875 8.109375 53.6875 14.9375 
Q 60.6875 21.78125 60.6875 36.53125 
Q 60.6875 51.171875 53.6875 57.984375 
Q 46.6875 64.796875 31.59375 64.796875 
z
M 9.8125 72.90625 
L 30.078125 72.90625 
Q 51.265625 72.90625 61.171875 64.09375 
Q 71.09375 55.28125 71.09375 36.53125 
Q 71.09375 17.671875 61.125 8.828125 
Q 51.171875 0 30.078125 0 
L 9.8125 0 
z
" id="DejaVuSans-68"/>
      <path d="M 18.3125 70.21875 
L 18.3125 54.6875 
L 36.8125 54.6875 
L 36.8125 47.703125 
L 18.3125 47.703125 
L 18.3125 18.015625 
Q 18.3125 11.328125 20.140625 9.421875 
Q 21.96875 7.515625 27.59375 7.515625 
L 36.8125 7.515625 
L 36.8125 0 
L 27.59375 0 
Q 17.1875 0 13.234375 3.875 
Q 9.28125 7.765625 9.28125 18.015625 
L 9.28125 47.703125 
L 2.6875 47.703125 
L 2.6875 54.6875 
L 9.28125 54.6875 
L 9.28125 70.21875 
z
" id="DejaVuSans-116"/>
      <path d="M 53.515625 70.515625 
L 53.515625 60.890625 
Q 47.90625 63.578125 42.921875 64.890625 
Q 37.9375 66.21875 33.296875 66.21875 
Q 25.25 66.21875 20.875 63.09375 
Q 16.5 59.96875 16.5 54.203125 
Q 16.5 49.359375 19.40625 46.890625 
Q 22.3125 44.4375 30.421875 42.921875 
L 36.375 41.703125 
Q 47.40625 39.59375 52.65625 34.296875 
Q 57.90625 29 57.90625 20.125 
Q 57.90625 9.515625 50.796875 4.046875 
Q 43.703125 -1.421875 29.984375 -1.421875 
Q 24.8125 -1.421875 18.96875 -0.25 
Q 13.140625 0.921875 6.890625 3.21875 
L 6.890625 13.375 
Q 12.890625 10.015625 18.65625 8.296875 
Q 24.421875 6.59375 29.984375 6.59375 
Q 38.421875 6.59375 43.015625 9.90625 
Q 47.609375 13.234375 47.609375 19.390625 
Q 47.609375 24.75 44.3125 27.78125 
Q 41.015625 30.8125 33.5 32.328125 
L 27.484375 33.5 
Q 16.453125 35.6875 11.515625 40.375 
Q 6.59375 45.0625 6.59375 53.421875 
Q 6.59375 63.09375 13.40625 68.65625 
Q 20.21875 74.21875 32.171875 74.21875 
Q 37.3125 74.21875 42.625 73.28125 
Q 47.953125 72.359375 53.515625 70.515625 
z
" id="DejaVuSans-83"/>
      <path d="M 56.203125 29.59375 
L 56.203125 25.203125 
L 14.890625 25.203125 
Q 15.484375 15.921875 20.484375 11.0625 
Q 25.484375 6.203125 34.421875 6.203125 
Q 39.59375 6.203125 44.453125 7.46875 
Q 49.3125 8.734375 54.109375 11.28125 
L 54.109375 2.78125 
Q 49.265625 0.734375 44.1875 -0.34375 
Q 39.109375 -1.421875 33.890625 -1.421875 
Q 20.796875 -1.421875 13.15625 6.1875 
Q 5.515625 13.8125 5.515625 26.8125 
Q 5.515625 40.234375 12.765625 48.109375 
Q 20.015625 56 32.328125 56 
Q 43.359375 56 49.78125 48.890625 
Q 56.203125 41.796875 56.203125 29.59375 
z
M 47.21875 32.234375 
Q 47.125 39.59375 43.09375 43.984375 
Q 39.0625 48.390625 32.421875 48.390625 
Q 24.90625 48.390625 20.390625 44.140625 
Q 15.875 39.890625 15.1875 32.171875 
z
" id="DejaVuSans-101"/>
      <path d="M 52 44.1875 
Q 55.375 50.25 60.0625 53.125 
Q 64.75 56 71.09375 56 
Q 79.640625 56 84.28125 50.015625 
Q 88.921875 44.046875 88.921875 33.015625 
L 88.921875 0 
L 79.890625 0 
L 79.890625 32.71875 
Q 79.890625 40.578125 77.09375 44.375 
Q 74.3125 48.1875 68.609375 48.1875 
Q 61.625 48.1875 57.5625 43.546875 
Q 53.515625 38.921875 53.515625 30.90625 
L 53.515625 0 
L 44.484375 0 
L 44.484375 32.71875 
Q 44.484375 40.625 41.703125 44.40625 
Q 38.921875 48.1875 33.109375 48.1875 
Q 26.21875 48.1875 22.15625 43.53125 
Q 18.109375 38.875 18.109375 30.90625 
L 18.109375 0 
L 9.078125 0 
L 9.078125 54.6875 
L 18.109375 54.6875 
L 18.109375 46.1875 
Q 21.1875 51.21875 25.484375 53.609375 
Q 29.78125 56 35.6875 56 
Q 41.65625 56 45.828125 52.96875 
Q 50 49.953125 52 44.1875 
z
" id="DejaVuSans-109"/>
      <path d="M 44.28125 53.078125 
L 44.28125 44.578125 
Q 40.484375 46.53125 36.375 47.5 
Q 32.28125 48.484375 27.875 48.484375 
Q 21.1875 48.484375 17.84375 46.4375 
Q 14.5 44.390625 14.5 40.28125 
Q 14.5 37.15625 16.890625 35.375 
Q 19.28125 33.59375 26.515625 31.984375 
L 29.59375 31.296875 
Q 39.15625 29.25 43.1875 25.515625 
Q 47.21875 21.78125 47.21875 15.09375 
Q 47.21875 7.46875 41.1875 3.015625 
Q 35.15625 -1.421875 24.609375 -1.421875 
Q 20.21875 -1.421875 15.453125 -0.5625 
Q 10.6875 0.296875 5.421875 2 
L 5.421875 11.28125 
Q 10.40625 8.6875 15.234375 7.390625 
Q 20.0625 6.109375 24.8125 6.109375 
Q 31.15625 6.109375 34.5625 8.28125 
Q 37.984375 10.453125 37.984375 14.40625 
Q 37.984375 18.0625 35.515625 20.015625 
Q 33.0625 21.96875 24.703125 23.78125 
L 21.578125 24.515625 
Q 13.234375 26.265625 9.515625 29.90625 
Q 5.8125 33.546875 5.8125 39.890625 
Q 5.8125 47.609375 11.28125 51.796875 
Q 16.75 56 26.8125 56 
Q 31.78125 56 36.171875 55.265625 
Q 40.578125 54.546875 44.28125 53.078125 
z
" id="DejaVuSans-115"/>
     </defs>
     <g transform="translate(411.880469 331.520312)scale(0.1 -0.1)">
      <use xlink:href="#DejaVuSans-84"/>
      <use x="46.333984" xlink:href="#DejaVuSans-114"/>
      <use x="87.447266" xlink:href="#DejaVuSans-97"/>
      <use x="148.726562" xlink:href="#DejaVuSans-105"/>
      <use x="176.509766" xlink:href="#DejaVuSans-110"/>
      <use x="239.888672" xlink:href="#DejaVuSans-105"/>
      <use x="267.671875" xlink:href="#DejaVuSans-110"/>
      <use x="331.050781" xlink:href="#DejaVuSans-103"/>
      <use x="394.527344" xlink:href="#DejaVuSans-32"/>
      <use x="426.314453" xlink:href="#DejaVuSans-68"/>
      <use x="503.316406" xlink:href="#DejaVuSans-97"/>
      <use x="564.595703" xlink:href="#DejaVuSans-116"/>
      <use x="603.804688" xlink:href="#DejaVuSans-97"/>
      <use x="665.083984" xlink:href="#DejaVuSans-32"/>
      <use x="696.871094" xlink:href="#DejaVuSans-83"/>
      <use x="760.347656" xlink:href="#DejaVuSans-101"/>
      <use x="821.871094" xlink:href="#DejaVuSans-103"/>
      <use x="885.347656" xlink:href="#DejaVuSans-109"/>
      <use x="982.759766" xlink:href="#DejaVuSans-101"/>
      <use x="1044.283203" xlink:href="#DejaVuSans-110"/>
      <use x="1107.662109" xlink:href="#DejaVuSans-116"/>
      <use x="1146.871094" xlink:href="#DejaVuSans-115"/>
     </g>
    </g>
   </g>
   <g id="matplotlib.axis_2">
    <g id="ytick_1">
     <g id="line2d_49">
      <defs>
       <path d="M 0 0 
L -3.5 0 
" id="m81ebd5f688" style="stroke:#000000;stroke-width:0.8;"/>
      </defs>
      <g>
       <use style="stroke:#000000;stroke-width:0.8;" x="53.328125" xlink:href="#m81ebd5f688" y="300.196875"/>
      </g>
     </g>
     <g id="text_50">
      <!-- 0 -->
      <g transform="translate(39.965625 303.996094)scale(0.1 -0.1)">
       <use xlink:href="#DejaVuSans-48"/>
      </g>
     </g>
    </g>
    <g id="ytick_2">
     <g id="line2d_50">
      <g>
       <use style="stroke:#000000;stroke-width:0.8;" x="53.328125" xlink:href="#m81ebd5f688" y="265.121381"/>
      </g>
     </g>
     <g id="text_51">
      <!-- 200 -->
      <g transform="translate(27.240625 268.9206)scale(0.1 -0.1)">
       <use xlink:href="#DejaVuSans-50"/>
       <use x="63.623047" xlink:href="#DejaVuSans-48"/>
       <use x="127.246094" xlink:href="#DejaVuSans-48"/>
      </g>
     </g>
    </g>
    <g id="ytick_3">
     <g id="line2d_51">
      <g>
       <use style="stroke:#000000;stroke-width:0.8;" x="53.328125" xlink:href="#m81ebd5f688" y="230.045888"/>
      </g>
     </g>
     <g id="text_52">
      <!-- 400 -->
      <g transform="translate(27.240625 233.845107)scale(0.1 -0.1)">
       <use xlink:href="#DejaVuSans-52"/>
       <use x="63.623047" xlink:href="#DejaVuSans-48"/>
       <use x="127.246094" xlink:href="#DejaVuSans-48"/>
      </g>
     </g>
    </g>
    <g id="ytick_4">
     <g id="line2d_52">
      <g>
       <use style="stroke:#000000;stroke-width:0.8;" x="53.328125" xlink:href="#m81ebd5f688" y="194.970394"/>
      </g>
     </g>
     <g id="text_53">
      <!-- 600 -->
      <g transform="translate(27.240625 198.769613)scale(0.1 -0.1)">
       <use xlink:href="#DejaVuSans-54"/>
       <use x="63.623047" xlink:href="#DejaVuSans-48"/>
       <use x="127.246094" xlink:href="#DejaVuSans-48"/>
      </g>
     </g>
    </g>
    <g id="ytick_5">
     <g id="line2d_53">
      <g>
       <use style="stroke:#000000;stroke-width:0.8;" x="53.328125" xlink:href="#m81ebd5f688" y="159.894901"/>
      </g>
     </g>
     <g id="text_54">
      <!-- 800 -->
      <g transform="translate(27.240625 163.694119)scale(0.1 -0.1)">
       <use xlink:href="#DejaVuSans-56"/>
       <use x="63.623047" xlink:href="#DejaVuSans-48"/>
       <use x="127.246094" xlink:href="#DejaVuSans-48"/>
      </g>
     </g>
    </g>
    <g id="ytick_6">
     <g id="line2d_54">
      <g>
       <use style="stroke:#000000;stroke-width:0.8;" x="53.328125" xlink:href="#m81ebd5f688" y="124.819407"/>
      </g>
     </g>
     <g id="text_55">
      <!-- 1000 -->
      <g transform="translate(20.878125 128.618626)scale(0.1 -0.1)">
       <use xlink:href="#DejaVuSans-49"/>
       <use x="63.623047" xlink:href="#DejaVuSans-48"/>
       <use x="127.246094" xlink:href="#DejaVuSans-48"/>
       <use x="190.869141" xlink:href="#DejaVuSans-48"/>
      </g>
     </g>
    </g>
    <g id="ytick_7">
     <g id="line2d_55">
      <g>
       <use style="stroke:#000000;stroke-width:0.8;" x="53.328125" xlink:href="#m81ebd5f688" y="89.743913"/>
      </g>
     </g>
     <g id="text_56">
      <!-- 1200 -->
      <g transform="translate(20.878125 93.543132)scale(0.1 -0.1)">
       <use xlink:href="#DejaVuSans-49"/>
       <use x="63.623047" xlink:href="#DejaVuSans-50"/>
       <use x="127.246094" xlink:href="#DejaVuSans-48"/>
       <use x="190.869141" xlink:href="#DejaVuSans-48"/>
      </g>
     </g>
    </g>
    <g id="ytick_8">
     <g id="line2d_56">
      <g>
       <use style="stroke:#000000;stroke-width:0.8;" x="53.328125" xlink:href="#m81ebd5f688" y="54.66842"/>
      </g>
     </g>
     <g id="text_57">
      <!-- 1400 -->
      <g transform="translate(20.878125 58.467638)scale(0.1 -0.1)">
       <use xlink:href="#DejaVuSans-49"/>
       <use x="63.623047" xlink:href="#DejaVuSans-52"/>
       <use x="127.246094" xlink:href="#DejaVuSans-48"/>
       <use x="190.869141" xlink:href="#DejaVuSans-48"/>
      </g>
     </g>
    </g>
    <g id="text_58">
     <!-- Data Set Timestamps -->
     <defs>
      <path d="M 18.109375 8.203125 
L 18.109375 -20.796875 
L 9.078125 -20.796875 
L 9.078125 54.6875 
L 18.109375 54.6875 
L 18.109375 46.390625 
Q 20.953125 51.265625 25.265625 53.625 
Q 29.59375 56 35.59375 56 
Q 45.5625 56 51.78125 48.09375 
Q 58.015625 40.1875 58.015625 27.296875 
Q 58.015625 14.40625 51.78125 6.484375 
Q 45.5625 -1.421875 35.59375 -1.421875 
Q 29.59375 -1.421875 25.265625 0.953125 
Q 20.953125 3.328125 18.109375 8.203125 
z
M 48.6875 27.296875 
Q 48.6875 37.203125 44.609375 42.84375 
Q 40.53125 48.484375 33.40625 48.484375 
Q 26.265625 48.484375 22.1875 42.84375 
Q 18.109375 37.203125 18.109375 27.296875 
Q 18.109375 17.390625 22.1875 11.75 
Q 26.265625 6.109375 33.40625 6.109375 
Q 40.53125 6.109375 44.609375 11.75 
Q 48.6875 17.390625 48.6875 27.296875 
z
" id="DejaVuSans-112"/>
     </defs>
     <g style="fill:#008000;" transform="translate(14.798438 218.135938)rotate(-90)scale(0.1 -0.1)">
      <use xlink:href="#DejaVuSans-68"/>
      <use x="77.001953" xlink:href="#DejaVuSans-97"/>
      <use x="138.28125" xlink:href="#DejaVuSans-116"/>
      <use x="177.490234" xlink:href="#DejaVuSans-97"/>
      <use x="238.769531" xlink:href="#DejaVuSans-32"/>
      <use x="270.556641" xlink:href="#DejaVuSans-83"/>
      <use x="334.033203" xlink:href="#DejaVuSans-101"/>
      <use x="395.556641" xlink:href="#DejaVuSans-116"/>
      <use x="434.765625" xlink:href="#DejaVuSans-32"/>
      <use x="466.552734" xlink:href="#DejaVuSans-84"/>
      <use x="524.511719" xlink:href="#DejaVuSans-105"/>
      <use x="552.294922" xlink:href="#DejaVuSans-109"/>
      <use x="649.707031" xlink:href="#DejaVuSans-101"/>
      <use x="711.230469" xlink:href="#DejaVuSans-115"/>
      <use x="763.330078" xlink:href="#DejaVuSans-116"/>
      <use x="802.539062" xlink:href="#DejaVuSans-97"/>
      <use x="863.818359" xlink:href="#DejaVuSans-109"/>
      <use x="961.230469" xlink:href="#DejaVuSans-112"/>
      <use x="1024.707031" xlink:href="#DejaVuSans-115"/>
     </g>
    </g>
   </g>
   <g id="patch_99">
    <path d="M 53.328125 300.196875 
L 53.328125 28.396875 
" style="fill:none;stroke:#000000;stroke-linecap:square;stroke-linejoin:miter;stroke-width:0.8;"/>
   </g>
   <g id="patch_100">
    <path d="M 890.328125 300.196875 
L 890.328125 28.396875 
" style="fill:none;stroke:#000000;stroke-linecap:square;stroke-linejoin:miter;stroke-width:0.8;"/>
   </g>
   <g id="patch_101">
    <path d="M 53.328125 300.196875 
L 890.328125 300.196875 
" style="fill:none;stroke:#000000;stroke-linecap:square;stroke-linejoin:miter;stroke-width:0.8;"/>
   </g>
   <g id="patch_102">
    <path d="M 53.328125 28.396875 
L 890.328125 28.396875 
" style="fill:none;stroke:#000000;stroke-linecap:square;stroke-linejoin:miter;stroke-width:0.8;"/>
   </g>
   <g id="legend_1">
    <g id="patch_103">
     <path d="M 60.328125 65.753125 
L 165.173438 65.753125 
Q 167.173438 65.753125 167.173438 63.753125 
L 167.173438 35.396875 
Q 167.173438 33.396875 165.173438 33.396875 
L 60.328125 33.396875 
Q 58.328125 33.396875 58.328125 35.396875 
L 58.328125 63.753125 
Q 58.328125 65.753125 60.328125 65.753125 
z
" style="fill:#ffffff;opacity:0.8;stroke:#cccccc;stroke-linejoin:miter;"/>
    </g>
    <g id="patch_104">
     <path d="M 62.328125 44.995313 
L 82.328125 44.995313 
L 82.328125 37.995313 
L 62.328125 37.995313 
z
" style="fill:#1f77b4;"/>
    </g>
    <g id="text_59">
     <!-- TrainDateDays -->
     <defs>
      <path d="M 32.171875 -5.078125 
Q 28.375 -14.84375 24.75 -17.8125 
Q 21.140625 -20.796875 15.09375 -20.796875 
L 7.90625 -20.796875 
L 7.90625 -13.28125 
L 13.1875 -13.28125 
Q 16.890625 -13.28125 18.9375 -11.515625 
Q 21 -9.765625 23.484375 -3.21875 
L 25.09375 0.875 
L 2.984375 54.6875 
L 12.5 54.6875 
L 29.59375 11.921875 
L 46.6875 54.6875 
L 56.203125 54.6875 
z
" id="DejaVuSans-121"/>
     </defs>
     <g transform="translate(90.328125 44.995313)scale(0.1 -0.1)">
      <use xlink:href="#DejaVuSans-84"/>
      <use x="46.333984" xlink:href="#DejaVuSans-114"/>
      <use x="87.447266" xlink:href="#DejaVuSans-97"/>
      <use x="148.726562" xlink:href="#DejaVuSans-105"/>
      <use x="176.509766" xlink:href="#DejaVuSans-110"/>
      <use x="239.888672" xlink:href="#DejaVuSans-68"/>
      <use x="316.890625" xlink:href="#DejaVuSans-97"/>
      <use x="378.169922" xlink:href="#DejaVuSans-116"/>
      <use x="417.378906" xlink:href="#DejaVuSans-101"/>
      <use x="478.902344" xlink:href="#DejaVuSans-68"/>
      <use x="555.904297" xlink:href="#DejaVuSans-97"/>
      <use x="617.183594" xlink:href="#DejaVuSans-121"/>
      <use x="676.363281" xlink:href="#DejaVuSans-115"/>
     </g>
    </g>
    <g id="patch_105">
     <path d="M 62.328125 59.673438 
L 82.328125 59.673438 
L 82.328125 52.673438 
L 62.328125 52.673438 
z
" style="fill:#ff7f0e;"/>
    </g>
    <g id="text_60">
     <!-- TestDateDays -->
     <g transform="translate(90.328125 59.673438)scale(0.1 -0.1)">
      <use xlink:href="#DejaVuSans-84"/>
      <use x="44.083984" xlink:href="#DejaVuSans-101"/>
      <use x="105.607422" xlink:href="#DejaVuSans-115"/>
      <use x="157.707031" xlink:href="#DejaVuSans-116"/>
      <use x="196.916016" xlink:href="#DejaVuSans-68"/>
      <use x="273.917969" xlink:href="#DejaVuSans-97"/>
      <use x="335.197266" xlink:href="#DejaVuSans-116"/>
      <use x="374.40625" xlink:href="#DejaVuSans-101"/>
      <use x="435.929688" xlink:href="#DejaVuSans-68"/>
      <use x="512.931641" xlink:href="#DejaVuSans-97"/>
      <use x="574.210938" xlink:href="#DejaVuSans-121"/>
      <use x="633.390625" xlink:href="#DejaVuSans-115"/>
     </g>
    </g>
   </g>
  </g>
  <g id="axes_2">
   <g id="patch_106">
    <path d="M 53.328125 300.196875 
L 53.328125 28.396875 
" style="fill:none;stroke:#000000;stroke-linecap:square;stroke-linejoin:miter;stroke-width:0.8;"/>
   </g>
   <g id="patch_107">
    <path d="M 890.328125 300.196875 
L 890.328125 28.396875 
" style="fill:none;stroke:#000000;stroke-linecap:square;stroke-linejoin:miter;stroke-width:0.8;"/>
   </g>
   <g id="patch_108">
    <path d="M 53.328125 300.196875 
L 890.328125 300.196875 
" style="fill:none;stroke:#000000;stroke-linecap:square;stroke-linejoin:miter;stroke-width:0.8;"/>
   </g>
   <g id="patch_109">
    <path d="M 53.328125 28.396875 
L 890.328125 28.396875 
" style="fill:none;stroke:#000000;stroke-linecap:square;stroke-linejoin:miter;stroke-width:0.8;"/>
   </g>
  </g>
  <g id="axes_3">
   <g id="matplotlib.axis_3">
    <g id="ytick_9">
     <g id="line2d_57">
      <defs>
       <path d="M 0 0 
L 3.5 0 
" id="m03b5460ad2" style="stroke:#000000;stroke-width:0.8;"/>
      </defs>
      <g>
       <use style="stroke:#000000;stroke-width:0.8;" x="890.328125" xlink:href="#m03b5460ad2" y="293.099583"/>
      </g>
     </g>
     <g id="text_61">
      <!-- 0 -->
      <g transform="translate(897.328125 296.898802)scale(0.1 -0.1)">
       <use xlink:href="#DejaVuSans-48"/>
      </g>
     </g>
    </g>
    <g id="ytick_10">
     <g id="line2d_58">
      <g>
       <use style="stroke:#000000;stroke-width:0.8;" x="890.328125" xlink:href="#m03b5460ad2" y="245.479534"/>
      </g>
     </g>
     <g id="text_62">
      <!-- 5000 -->
      <g transform="translate(897.328125 249.278753)scale(0.1 -0.1)">
       <use xlink:href="#DejaVuSans-53"/>
       <use x="63.623047" xlink:href="#DejaVuSans-48"/>
       <use x="127.246094" xlink:href="#DejaVuSans-48"/>
       <use x="190.869141" xlink:href="#DejaVuSans-48"/>
      </g>
     </g>
    </g>
    <g id="ytick_11">
     <g id="line2d_59">
      <g>
       <use style="stroke:#000000;stroke-width:0.8;" x="890.328125" xlink:href="#m03b5460ad2" y="197.859485"/>
      </g>
     </g>
     <g id="text_63">
      <!-- 10000 -->
      <g transform="translate(897.328125 201.658704)scale(0.1 -0.1)">
       <use xlink:href="#DejaVuSans-49"/>
       <use x="63.623047" xlink:href="#DejaVuSans-48"/>
       <use x="127.246094" xlink:href="#DejaVuSans-48"/>
       <use x="190.869141" xlink:href="#DejaVuSans-48"/>
       <use x="254.492188" xlink:href="#DejaVuSans-48"/>
      </g>
     </g>
    </g>
    <g id="ytick_12">
     <g id="line2d_60">
      <g>
       <use style="stroke:#000000;stroke-width:0.8;" x="890.328125" xlink:href="#m03b5460ad2" y="150.239437"/>
      </g>
     </g>
     <g id="text_64">
      <!-- 15000 -->
      <g transform="translate(897.328125 154.038655)scale(0.1 -0.1)">
       <use xlink:href="#DejaVuSans-49"/>
       <use x="63.623047" xlink:href="#DejaVuSans-53"/>
       <use x="127.246094" xlink:href="#DejaVuSans-48"/>
       <use x="190.869141" xlink:href="#DejaVuSans-48"/>
       <use x="254.492188" xlink:href="#DejaVuSans-48"/>
      </g>
     </g>
    </g>
    <g id="ytick_13">
     <g id="line2d_61">
      <g>
       <use style="stroke:#000000;stroke-width:0.8;" x="890.328125" xlink:href="#m03b5460ad2" y="102.619388"/>
      </g>
     </g>
     <g id="text_65">
      <!-- 20000 -->
      <g transform="translate(897.328125 106.418607)scale(0.1 -0.1)">
       <use xlink:href="#DejaVuSans-50"/>
       <use x="63.623047" xlink:href="#DejaVuSans-48"/>
       <use x="127.246094" xlink:href="#DejaVuSans-48"/>
       <use x="190.869141" xlink:href="#DejaVuSans-48"/>
       <use x="254.492188" xlink:href="#DejaVuSans-48"/>
      </g>
     </g>
    </g>
    <g id="ytick_14">
     <g id="line2d_62">
      <g>
       <use style="stroke:#000000;stroke-width:0.8;" x="890.328125" xlink:href="#m03b5460ad2" y="54.999339"/>
      </g>
     </g>
     <g id="text_66">
      <!-- 25000 -->
      <g transform="translate(897.328125 58.798558)scale(0.1 -0.1)">
       <use xlink:href="#DejaVuSans-50"/>
       <use x="63.623047" xlink:href="#DejaVuSans-53"/>
       <use x="127.246094" xlink:href="#DejaVuSans-48"/>
       <use x="190.869141" xlink:href="#DejaVuSans-48"/>
       <use x="254.492188" xlink:href="#DejaVuSans-48"/>
      </g>
     </g>
    </g>
   </g>
   <g id="line2d_63">
    <path clip-path="url(#pd4bb5def85)" d="M 62.046875 287.84233 
L 79.484375 282.585076 
L 96.921875 277.327823 
L 114.359375 272.070569 
L 131.796875 266.813316 
L 149.234375 261.556063 
L 166.671875 256.298809 
L 184.109375 251.041556 
L 201.546875 245.784302 
L 218.984375 240.527049 
L 236.421875 235.269796 
L 253.859375 230.012542 
L 271.296875 224.755289 
L 288.734375 219.498036 
L 306.171875 214.240782 
L 323.609375 208.983529 
L 341.046875 203.726275 
L 358.484375 198.469022 
L 375.921875 193.211769 
L 393.359375 187.954515 
L 410.796875 182.697262 
L 428.234375 177.440008 
L 445.671875 172.182755 
L 463.109375 166.925502 
L 480.546875 161.668248 
L 497.984375 156.410995 
L 515.421875 151.153742 
L 532.859375 145.896488 
L 550.296875 140.639235 
L 567.734375 135.381981 
L 585.171875 130.124728 
L 602.609375 124.867475 
L 620.046875 119.610221 
L 637.484375 114.352968 
L 654.921875 109.095714 
L 672.359375 103.838461 
L 689.796875 98.581208 
L 707.234375 93.323954 
L 724.671875 88.066701 
L 742.109375 82.809448 
L 759.546875 77.552194 
L 776.984375 72.294941 
L 794.421875 67.037687 
L 811.859375 61.780434 
L 829.296875 56.523181 
L 846.734375 51.265927 
L 864.171875 46.008674 
L 881.609375 40.75142 
" style="fill:none;stroke:#ff0000;stroke-linecap:square;stroke-width:1.5;"/>
    <defs>
     <path d="M -3 0 
L 3 0 
M 0 3 
L 0 -3 
" id="ma2cd2d6f52" style="stroke:#ff0000;"/>
    </defs>
    <g clip-path="url(#pd4bb5def85)">
     <use style="fill:#ff0000;stroke:#ff0000;" x="62.046875" xlink:href="#ma2cd2d6f52" y="287.84233"/>
     <use style="fill:#ff0000;stroke:#ff0000;" x="79.484375" xlink:href="#ma2cd2d6f52" y="282.585076"/>
     <use style="fill:#ff0000;stroke:#ff0000;" x="96.921875" xlink:href="#ma2cd2d6f52" y="277.327823"/>
     <use style="fill:#ff0000;stroke:#ff0000;" x="114.359375" xlink:href="#ma2cd2d6f52" y="272.070569"/>
     <use style="fill:#ff0000;stroke:#ff0000;" x="131.796875" xlink:href="#ma2cd2d6f52" y="266.813316"/>
     <use style="fill:#ff0000;stroke:#ff0000;" x="149.234375" xlink:href="#ma2cd2d6f52" y="261.556063"/>
     <use style="fill:#ff0000;stroke:#ff0000;" x="166.671875" xlink:href="#ma2cd2d6f52" y="256.298809"/>
     <use style="fill:#ff0000;stroke:#ff0000;" x="184.109375" xlink:href="#ma2cd2d6f52" y="251.041556"/>
     <use style="fill:#ff0000;stroke:#ff0000;" x="201.546875" xlink:href="#ma2cd2d6f52" y="245.784302"/>
     <use style="fill:#ff0000;stroke:#ff0000;" x="218.984375" xlink:href="#ma2cd2d6f52" y="240.527049"/>
     <use style="fill:#ff0000;stroke:#ff0000;" x="236.421875" xlink:href="#ma2cd2d6f52" y="235.269796"/>
     <use style="fill:#ff0000;stroke:#ff0000;" x="253.859375" xlink:href="#ma2cd2d6f52" y="230.012542"/>
     <use style="fill:#ff0000;stroke:#ff0000;" x="271.296875" xlink:href="#ma2cd2d6f52" y="224.755289"/>
     <use style="fill:#ff0000;stroke:#ff0000;" x="288.734375" xlink:href="#ma2cd2d6f52" y="219.498036"/>
     <use style="fill:#ff0000;stroke:#ff0000;" x="306.171875" xlink:href="#ma2cd2d6f52" y="214.240782"/>
     <use style="fill:#ff0000;stroke:#ff0000;" x="323.609375" xlink:href="#ma2cd2d6f52" y="208.983529"/>
     <use style="fill:#ff0000;stroke:#ff0000;" x="341.046875" xlink:href="#ma2cd2d6f52" y="203.726275"/>
     <use style="fill:#ff0000;stroke:#ff0000;" x="358.484375" xlink:href="#ma2cd2d6f52" y="198.469022"/>
     <use style="fill:#ff0000;stroke:#ff0000;" x="375.921875" xlink:href="#ma2cd2d6f52" y="193.211769"/>
     <use style="fill:#ff0000;stroke:#ff0000;" x="393.359375" xlink:href="#ma2cd2d6f52" y="187.954515"/>
     <use style="fill:#ff0000;stroke:#ff0000;" x="410.796875" xlink:href="#ma2cd2d6f52" y="182.697262"/>
     <use style="fill:#ff0000;stroke:#ff0000;" x="428.234375" xlink:href="#ma2cd2d6f52" y="177.440008"/>
     <use style="fill:#ff0000;stroke:#ff0000;" x="445.671875" xlink:href="#ma2cd2d6f52" y="172.182755"/>
     <use style="fill:#ff0000;stroke:#ff0000;" x="463.109375" xlink:href="#ma2cd2d6f52" y="166.925502"/>
     <use style="fill:#ff0000;stroke:#ff0000;" x="480.546875" xlink:href="#ma2cd2d6f52" y="161.668248"/>
     <use style="fill:#ff0000;stroke:#ff0000;" x="497.984375" xlink:href="#ma2cd2d6f52" y="156.410995"/>
     <use style="fill:#ff0000;stroke:#ff0000;" x="515.421875" xlink:href="#ma2cd2d6f52" y="151.153742"/>
     <use style="fill:#ff0000;stroke:#ff0000;" x="532.859375" xlink:href="#ma2cd2d6f52" y="145.896488"/>
     <use style="fill:#ff0000;stroke:#ff0000;" x="550.296875" xlink:href="#ma2cd2d6f52" y="140.639235"/>
     <use style="fill:#ff0000;stroke:#ff0000;" x="567.734375" xlink:href="#ma2cd2d6f52" y="135.381981"/>
     <use style="fill:#ff0000;stroke:#ff0000;" x="585.171875" xlink:href="#ma2cd2d6f52" y="130.124728"/>
     <use style="fill:#ff0000;stroke:#ff0000;" x="602.609375" xlink:href="#ma2cd2d6f52" y="124.867475"/>
     <use style="fill:#ff0000;stroke:#ff0000;" x="620.046875" xlink:href="#ma2cd2d6f52" y="119.610221"/>
     <use style="fill:#ff0000;stroke:#ff0000;" x="637.484375" xlink:href="#ma2cd2d6f52" y="114.352968"/>
     <use style="fill:#ff0000;stroke:#ff0000;" x="654.921875" xlink:href="#ma2cd2d6f52" y="109.095714"/>
     <use style="fill:#ff0000;stroke:#ff0000;" x="672.359375" xlink:href="#ma2cd2d6f52" y="103.838461"/>
     <use style="fill:#ff0000;stroke:#ff0000;" x="689.796875" xlink:href="#ma2cd2d6f52" y="98.581208"/>
     <use style="fill:#ff0000;stroke:#ff0000;" x="707.234375" xlink:href="#ma2cd2d6f52" y="93.323954"/>
     <use style="fill:#ff0000;stroke:#ff0000;" x="724.671875" xlink:href="#ma2cd2d6f52" y="88.066701"/>
     <use style="fill:#ff0000;stroke:#ff0000;" x="742.109375" xlink:href="#ma2cd2d6f52" y="82.809448"/>
     <use style="fill:#ff0000;stroke:#ff0000;" x="759.546875" xlink:href="#ma2cd2d6f52" y="77.552194"/>
     <use style="fill:#ff0000;stroke:#ff0000;" x="776.984375" xlink:href="#ma2cd2d6f52" y="72.294941"/>
     <use style="fill:#ff0000;stroke:#ff0000;" x="794.421875" xlink:href="#ma2cd2d6f52" y="67.037687"/>
     <use style="fill:#ff0000;stroke:#ff0000;" x="811.859375" xlink:href="#ma2cd2d6f52" y="61.780434"/>
     <use style="fill:#ff0000;stroke:#ff0000;" x="829.296875" xlink:href="#ma2cd2d6f52" y="56.523181"/>
     <use style="fill:#ff0000;stroke:#ff0000;" x="846.734375" xlink:href="#ma2cd2d6f52" y="51.265927"/>
     <use style="fill:#ff0000;stroke:#ff0000;" x="864.171875" xlink:href="#ma2cd2d6f52" y="46.008674"/>
     <use style="fill:#ff0000;stroke:#ff0000;" x="881.609375" xlink:href="#ma2cd2d6f52" y="40.75142"/>
    </g>
   </g>
   <g id="patch_110">
    <path d="M 53.328125 300.196875 
L 53.328125 28.396875 
" style="fill:none;stroke:#000000;stroke-linecap:square;stroke-linejoin:miter;stroke-width:0.8;"/>
   </g>
   <g id="patch_111">
    <path d="M 890.328125 300.196875 
L 890.328125 28.396875 
" style="fill:none;stroke:#000000;stroke-linecap:square;stroke-linejoin:miter;stroke-width:0.8;"/>
   </g>
   <g id="patch_112">
    <path d="M 53.328125 300.196875 
L 890.328125 300.196875 
" style="fill:none;stroke:#000000;stroke-linecap:square;stroke-linejoin:miter;stroke-width:0.8;"/>
   </g>
   <g id="patch_113">
    <path d="M 53.328125 28.396875 
L 890.328125 28.396875 
" style="fill:none;stroke:#000000;stroke-linecap:square;stroke-linejoin:miter;stroke-width:0.8;"/>
   </g>
   <g id="text_67">
    <!-- Test set hours stackd on Train set hours -->
    <defs>
     <path d="M 54.890625 33.015625 
L 54.890625 0 
L 45.90625 0 
L 45.90625 32.71875 
Q 45.90625 40.484375 42.875 44.328125 
Q 39.84375 48.1875 33.796875 48.1875 
Q 26.515625 48.1875 22.3125 43.546875 
Q 18.109375 38.921875 18.109375 30.90625 
L 18.109375 0 
L 9.078125 0 
L 9.078125 75.984375 
L 18.109375 75.984375 
L 18.109375 46.1875 
Q 21.34375 51.125 25.703125 53.5625 
Q 30.078125 56 35.796875 56 
Q 45.21875 56 50.046875 50.171875 
Q 54.890625 44.34375 54.890625 33.015625 
z
" id="DejaVuSans-104"/>
     <path d="M 30.609375 48.390625 
Q 23.390625 48.390625 19.1875 42.75 
Q 14.984375 37.109375 14.984375 27.296875 
Q 14.984375 17.484375 19.15625 11.84375 
Q 23.34375 6.203125 30.609375 6.203125 
Q 37.796875 6.203125 41.984375 11.859375 
Q 46.1875 17.53125 46.1875 27.296875 
Q 46.1875 37.015625 41.984375 42.703125 
Q 37.796875 48.390625 30.609375 48.390625 
z
M 30.609375 56 
Q 42.328125 56 49.015625 48.375 
Q 55.71875 40.765625 55.71875 27.296875 
Q 55.71875 13.875 49.015625 6.21875 
Q 42.328125 -1.421875 30.609375 -1.421875 
Q 18.84375 -1.421875 12.171875 6.21875 
Q 5.515625 13.875 5.515625 27.296875 
Q 5.515625 40.765625 12.171875 48.375 
Q 18.84375 56 30.609375 56 
z
" id="DejaVuSans-111"/>
     <path d="M 8.5 21.578125 
L 8.5 54.6875 
L 17.484375 54.6875 
L 17.484375 21.921875 
Q 17.484375 14.15625 20.5 10.265625 
Q 23.53125 6.390625 29.59375 6.390625 
Q 36.859375 6.390625 41.078125 11.03125 
Q 45.3125 15.671875 45.3125 23.6875 
L 45.3125 54.6875 
L 54.296875 54.6875 
L 54.296875 0 
L 45.3125 0 
L 45.3125 8.40625 
Q 42.046875 3.421875 37.71875 1 
Q 33.40625 -1.421875 27.6875 -1.421875 
Q 18.265625 -1.421875 13.375 4.4375 
Q 8.5 10.296875 8.5 21.578125 
z
M 31.109375 56 
z
" id="DejaVuSans-117"/>
     <path d="M 48.78125 52.59375 
L 48.78125 44.1875 
Q 44.96875 46.296875 41.140625 47.34375 
Q 37.3125 48.390625 33.40625 48.390625 
Q 24.65625 48.390625 19.8125 42.84375 
Q 14.984375 37.3125 14.984375 27.296875 
Q 14.984375 17.28125 19.8125 11.734375 
Q 24.65625 6.203125 33.40625 6.203125 
Q 37.3125 6.203125 41.140625 7.25 
Q 44.96875 8.296875 48.78125 10.40625 
L 48.78125 2.09375 
Q 45.015625 0.34375 40.984375 -0.53125 
Q 36.96875 -1.421875 32.421875 -1.421875 
Q 20.0625 -1.421875 12.78125 6.34375 
Q 5.515625 14.109375 5.515625 27.296875 
Q 5.515625 40.671875 12.859375 48.328125 
Q 20.21875 56 33.015625 56 
Q 37.15625 56 41.109375 55.140625 
Q 45.0625 54.296875 48.78125 52.59375 
z
" id="DejaVuSans-99"/>
     <path d="M 9.078125 75.984375 
L 18.109375 75.984375 
L 18.109375 31.109375 
L 44.921875 54.6875 
L 56.390625 54.6875 
L 27.390625 29.109375 
L 57.625 0 
L 45.90625 0 
L 18.109375 26.703125 
L 18.109375 0 
L 9.078125 0 
z
" id="DejaVuSans-107"/>
     <path d="M 45.40625 46.390625 
L 45.40625 75.984375 
L 54.390625 75.984375 
L 54.390625 0 
L 45.40625 0 
L 45.40625 8.203125 
Q 42.578125 3.328125 38.25 0.953125 
Q 33.9375 -1.421875 27.875 -1.421875 
Q 17.96875 -1.421875 11.734375 6.484375 
Q 5.515625 14.40625 5.515625 27.296875 
Q 5.515625 40.1875 11.734375 48.09375 
Q 17.96875 56 27.875 56 
Q 33.9375 56 38.25 53.625 
Q 42.578125 51.265625 45.40625 46.390625 
z
M 14.796875 27.296875 
Q 14.796875 17.390625 18.875 11.75 
Q 22.953125 6.109375 30.078125 6.109375 
Q 37.203125 6.109375 41.296875 11.75 
Q 45.40625 17.390625 45.40625 27.296875 
Q 45.40625 37.203125 41.296875 42.84375 
Q 37.203125 48.484375 30.078125 48.484375 
Q 22.953125 48.484375 18.875 42.84375 
Q 14.796875 37.203125 14.796875 27.296875 
z
" id="DejaVuSans-100"/>
    </defs>
    <g transform="translate(273.757812 22.396875)scale(0.2 -0.2)">
     <use xlink:href="#DejaVuSans-84"/>
     <use x="44.083984" xlink:href="#DejaVuSans-101"/>
     <use x="105.607422" xlink:href="#DejaVuSans-115"/>
     <use x="157.707031" xlink:href="#DejaVuSans-116"/>
     <use x="196.916016" xlink:href="#DejaVuSans-32"/>
     <use x="228.703125" xlink:href="#DejaVuSans-115"/>
     <use x="280.802734" xlink:href="#DejaVuSans-101"/>
     <use x="342.326172" xlink:href="#DejaVuSans-116"/>
     <use x="381.535156" xlink:href="#DejaVuSans-32"/>
     <use x="413.322266" xlink:href="#DejaVuSans-104"/>
     <use x="476.701172" xlink:href="#DejaVuSans-111"/>
     <use x="537.882812" xlink:href="#DejaVuSans-117"/>
     <use x="601.261719" xlink:href="#DejaVuSans-114"/>
     <use x="642.375" xlink:href="#DejaVuSans-115"/>
     <use x="694.474609" xlink:href="#DejaVuSans-32"/>
     <use x="726.261719" xlink:href="#DejaVuSans-115"/>
     <use x="778.361328" xlink:href="#DejaVuSans-116"/>
     <use x="817.570312" xlink:href="#DejaVuSans-97"/>
     <use x="878.849609" xlink:href="#DejaVuSans-99"/>
     <use x="933.830078" xlink:href="#DejaVuSans-107"/>
     <use x="991.740234" xlink:href="#DejaVuSans-100"/>
     <use x="1055.216797" xlink:href="#DejaVuSans-32"/>
     <use x="1087.003906" xlink:href="#DejaVuSans-111"/>
     <use x="1148.185547" xlink:href="#DejaVuSans-110"/>
     <use x="1211.564453" xlink:href="#DejaVuSans-32"/>
     <use x="1243.351562" xlink:href="#DejaVuSans-84"/>
     <use x="1289.685547" xlink:href="#DejaVuSans-114"/>
     <use x="1330.798828" xlink:href="#DejaVuSans-97"/>
     <use x="1392.078125" xlink:href="#DejaVuSans-105"/>
     <use x="1419.861328" xlink:href="#DejaVuSans-110"/>
     <use x="1483.240234" xlink:href="#DejaVuSans-32"/>
     <use x="1515.027344" xlink:href="#DejaVuSans-115"/>
     <use x="1567.126953" xlink:href="#DejaVuSans-101"/>
     <use x="1628.650391" xlink:href="#DejaVuSans-116"/>
     <use x="1667.859375" xlink:href="#DejaVuSans-32"/>
     <use x="1699.646484" xlink:href="#DejaVuSans-104"/>
     <use x="1763.025391" xlink:href="#DejaVuSans-111"/>
     <use x="1824.207031" xlink:href="#DejaVuSans-117"/>
     <use x="1887.585938" xlink:href="#DejaVuSans-114"/>
     <use x="1928.699219" xlink:href="#DejaVuSans-115"/>
    </g>
   </g>
  </g>
 </g>
 <defs>
  <clipPath id="pd4bb5def85">
   <rect height="271.8" width="837" x="53.328125" y="28.396875"/>
  </clipPath>
 </defs>
</svg>
