<?xml version="1.0" encoding="utf-8" standalone="no"?>
<!DOCTYPE svg PUBLIC "-//W3C//DTD SVG 1.1//EN"
  "http://www.w3.org/Graphics/SVG/1.1/DTD/svg11.dtd">
<!-- Created with matplotlib (https://matplotlib.org/) -->
<svg height="327.754062pt" version="1.1" viewBox="0 0 835.365625 327.754062" width="835.365625pt" xmlns="http://www.w3.org/2000/svg" xmlns:xlink="http://www.w3.org/1999/xlink">
 <defs>
  <style type="text/css">
*{stroke-linecap:butt;stroke-linejoin:round;}
  </style>
 </defs>
 <g id="figure_1">
  <g id="patch_1">
   <path d="M 0 327.754062 
L 835.365625 327.754062 
L 835.365625 0 
L 0 0 
z
" style="fill:#ffffff;"/>
  </g>
  <g id="axes_1">
   <g id="patch_2">
    <path d="M 46.965625 279 
L 828.165625 279 
L 828.165625 7.2 
L 46.965625 7.2 
z
" style="fill:#ffffff;"/>
   </g>
   <g id="matplotlib.axis_1">
    <g id="xtick_1">
     <g id="line2d_1">
      <defs>
       <path d="M 0 0 
L 0 3.5 
" id="m9a40c4a6ed" style="stroke:#000000;stroke-width:0.8;"/>
      </defs>
      <g>
       <use style="stroke:#000000;stroke-width:0.8;" x="46.965625" xlink:href="#m9a40c4a6ed" y="279"/>
      </g>
     </g>
     <g id="text_1">
      <!-- Jul -->
      <defs>
       <path d="M 9.8125 72.90625 
L 19.671875 72.90625 
L 19.671875 5.078125 
Q 19.671875 -8.109375 14.671875 -14.0625 
Q 9.671875 -20.015625 -1.421875 -20.015625 
L -5.171875 -20.015625 
L -5.171875 -11.71875 
L -2.09375 -11.71875 
Q 4.4375 -11.71875 7.125 -8.046875 
Q 9.8125 -4.390625 9.8125 5.078125 
z
" id="DejaVuSans-74"/>
       <path d="M 8.5 21.578125 
L 8.5 54.6875 
L 17.484375 54.6875 
L 17.484375 21.921875 
Q 17.484375 14.15625 20.5 10.265625 
Q 23.53125 6.390625 29.59375 6.390625 
Q 36.859375 6.390625 41.078125 11.03125 
Q 45.3125 15.671875 45.3125 23.6875 
L 45.3125 54.6875 
L 54.296875 54.6875 
L 54.296875 0 
L 45.3125 0 
L 45.3125 8.40625 
Q 42.046875 3.421875 37.71875 1 
Q 33.40625 -1.421875 27.6875 -1.421875 
Q 18.265625 -1.421875 13.375 4.4375 
Q 8.5 10.296875 8.5 21.578125 
z
M 31.109375 56 
z
" id="DejaVuSans-117"/>
       <path d="M 9.421875 75.984375 
L 18.40625 75.984375 
L 18.40625 0 
L 9.421875 0 
z
" id="DejaVuSans-108"/>
      </defs>
      <g transform="translate(40.932813 293.598437)scale(0.1 -0.1)">
       <use xlink:href="#DejaVuSans-74"/>
       <use x="29.492188" xlink:href="#DejaVuSans-117"/>
       <use x="92.871094" xlink:href="#DejaVuSans-108"/>
      </g>
     </g>
    </g>
    <g id="xtick_2">
     <g id="line2d_2">
      <g>
       <use style="stroke:#000000;stroke-width:0.8;" x="145.087364" xlink:href="#m9a40c4a6ed" y="279"/>
      </g>
     </g>
     <g id="text_2">
      <!-- Jan -->
      <defs>
       <path d="M 34.28125 27.484375 
Q 23.390625 27.484375 19.1875 25 
Q 14.984375 22.515625 14.984375 16.5 
Q 14.984375 11.71875 18.140625 8.90625 
Q 21.296875 6.109375 26.703125 6.109375 
Q 34.1875 6.109375 38.703125 11.40625 
Q 43.21875 16.703125 43.21875 25.484375 
L 43.21875 27.484375 
z
M 52.203125 31.203125 
L 52.203125 0 
L 43.21875 0 
L 43.21875 8.296875 
Q 40.140625 3.328125 35.546875 0.953125 
Q 30.953125 -1.421875 24.3125 -1.421875 
Q 15.921875 -1.421875 10.953125 3.296875 
Q 6 8.015625 6 15.921875 
Q 6 25.140625 12.171875 29.828125 
Q 18.359375 34.515625 30.609375 34.515625 
L 43.21875 34.515625 
L 43.21875 35.40625 
Q 43.21875 41.609375 39.140625 45 
Q 35.0625 48.390625 27.6875 48.390625 
Q 23 48.390625 18.546875 47.265625 
Q 14.109375 46.140625 10.015625 43.890625 
L 10.015625 52.203125 
Q 14.9375 54.109375 19.578125 55.046875 
Q 24.21875 56 28.609375 56 
Q 40.484375 56 46.34375 49.84375 
Q 52.203125 43.703125 52.203125 31.203125 
z
" id="DejaVuSans-97"/>
       <path d="M 54.890625 33.015625 
L 54.890625 0 
L 45.90625 0 
L 45.90625 32.71875 
Q 45.90625 40.484375 42.875 44.328125 
Q 39.84375 48.1875 33.796875 48.1875 
Q 26.515625 48.1875 22.3125 43.546875 
Q 18.109375 38.921875 18.109375 30.90625 
L 18.109375 0 
L 9.078125 0 
L 9.078125 54.6875 
L 18.109375 54.6875 
L 18.109375 46.1875 
Q 21.34375 51.125 25.703125 53.5625 
Q 30.078125 56 35.796875 56 
Q 45.21875 56 50.046875 50.171875 
Q 54.890625 44.34375 54.890625 33.015625 
z
" id="DejaVuSans-110"/>
      </defs>
      <g transform="translate(137.379552 293.598437)scale(0.1 -0.1)">
       <use xlink:href="#DejaVuSans-74"/>
       <use x="29.492188" xlink:href="#DejaVuSans-97"/>
       <use x="90.771484" xlink:href="#DejaVuSans-110"/>
      </g>
      <!-- 2014 -->
      <defs>
       <path d="M 19.1875 8.296875 
L 53.609375 8.296875 
L 53.609375 0 
L 7.328125 0 
L 7.328125 8.296875 
Q 12.9375 14.109375 22.625 23.890625 
Q 32.328125 33.6875 34.8125 36.53125 
Q 39.546875 41.84375 41.421875 45.53125 
Q 43.3125 49.21875 43.3125 52.78125 
Q 43.3125 58.59375 39.234375 62.25 
Q 35.15625 65.921875 28.609375 65.921875 
Q 23.96875 65.921875 18.8125 64.3125 
Q 13.671875 62.703125 7.8125 59.421875 
L 7.8125 69.390625 
Q 13.765625 71.78125 18.9375 73 
Q 24.125 74.21875 28.421875 74.21875 
Q 39.75 74.21875 46.484375 68.546875 
Q 53.21875 62.890625 53.21875 53.421875 
Q 53.21875 48.921875 51.53125 44.890625 
Q 49.859375 40.875 45.40625 35.40625 
Q 44.1875 33.984375 37.640625 27.21875 
Q 31.109375 20.453125 19.1875 8.296875 
z
" id="DejaVuSans-50"/>
       <path d="M 31.78125 66.40625 
Q 24.171875 66.40625 20.328125 58.90625 
Q 16.5 51.421875 16.5 36.375 
Q 16.5 21.390625 20.328125 13.890625 
Q 24.171875 6.390625 31.78125 6.390625 
Q 39.453125 6.390625 43.28125 13.890625 
Q 47.125 21.390625 47.125 36.375 
Q 47.125 51.421875 43.28125 58.90625 
Q 39.453125 66.40625 31.78125 66.40625 
z
M 31.78125 74.21875 
Q 44.046875 74.21875 50.515625 64.515625 
Q 56.984375 54.828125 56.984375 36.375 
Q 56.984375 17.96875 50.515625 8.265625 
Q 44.046875 -1.421875 31.78125 -1.421875 
Q 19.53125 -1.421875 13.0625 8.265625 
Q 6.59375 17.96875 6.59375 36.375 
Q 6.59375 54.828125 13.0625 64.515625 
Q 19.53125 74.21875 31.78125 74.21875 
z
" id="DejaVuSans-48"/>
       <path d="M 12.40625 8.296875 
L 28.515625 8.296875 
L 28.515625 63.921875 
L 10.984375 60.40625 
L 10.984375 69.390625 
L 28.421875 72.90625 
L 38.28125 72.90625 
L 38.28125 8.296875 
L 54.390625 8.296875 
L 54.390625 0 
L 12.40625 0 
z
" id="DejaVuSans-49"/>
       <path d="M 37.796875 64.3125 
L 12.890625 25.390625 
L 37.796875 25.390625 
z
M 35.203125 72.90625 
L 47.609375 72.90625 
L 47.609375 25.390625 
L 58.015625 25.390625 
L 58.015625 17.1875 
L 47.609375 17.1875 
L 47.609375 0 
L 37.796875 0 
L 37.796875 17.1875 
L 4.890625 17.1875 
L 4.890625 26.703125 
z
" id="DejaVuSans-52"/>
      </defs>
      <g transform="translate(132.362364 304.79625)scale(0.1 -0.1)">
       <use xlink:href="#DejaVuSans-50"/>
       <use x="63.623047" xlink:href="#DejaVuSans-48"/>
       <use x="127.246094" xlink:href="#DejaVuSans-49"/>
       <use x="190.869141" xlink:href="#DejaVuSans-52"/>
      </g>
     </g>
    </g>
    <g id="xtick_3">
     <g id="line2d_3">
      <g>
       <use style="stroke:#000000;stroke-width:0.8;" x="341.330842" xlink:href="#m9a40c4a6ed" y="279"/>
      </g>
     </g>
     <g id="text_3">
      <!-- Jan -->
      <g transform="translate(333.62303 293.598437)scale(0.1 -0.1)">
       <use xlink:href="#DejaVuSans-74"/>
       <use x="29.492188" xlink:href="#DejaVuSans-97"/>
       <use x="90.771484" xlink:href="#DejaVuSans-110"/>
      </g>
      <!-- 2015 -->
      <defs>
       <path d="M 10.796875 72.90625 
L 49.515625 72.90625 
L 49.515625 64.59375 
L 19.828125 64.59375 
L 19.828125 46.734375 
Q 21.96875 47.46875 24.109375 47.828125 
Q 26.265625 48.1875 28.421875 48.1875 
Q 40.625 48.1875 47.75 41.5 
Q 54.890625 34.8125 54.890625 23.390625 
Q 54.890625 11.625 47.5625 5.09375 
Q 40.234375 -1.421875 26.90625 -1.421875 
Q 22.3125 -1.421875 17.546875 -0.640625 
Q 12.796875 0.140625 7.71875 1.703125 
L 7.71875 11.625 
Q 12.109375 9.234375 16.796875 8.0625 
Q 21.484375 6.890625 26.703125 6.890625 
Q 35.15625 6.890625 40.078125 11.328125 
Q 45.015625 15.765625 45.015625 23.390625 
Q 45.015625 31 40.078125 35.4375 
Q 35.15625 39.890625 26.703125 39.890625 
Q 22.75 39.890625 18.8125 39.015625 
Q 14.890625 38.140625 10.796875 36.28125 
z
" id="DejaVuSans-53"/>
      </defs>
      <g transform="translate(328.605842 304.79625)scale(0.1 -0.1)">
       <use xlink:href="#DejaVuSans-50"/>
       <use x="63.623047" xlink:href="#DejaVuSans-48"/>
       <use x="127.246094" xlink:href="#DejaVuSans-49"/>
       <use x="190.869141" xlink:href="#DejaVuSans-53"/>
      </g>
     </g>
    </g>
    <g id="xtick_4">
     <g id="line2d_4">
      <g>
       <use style="stroke:#000000;stroke-width:0.8;" x="537.574321" xlink:href="#m9a40c4a6ed" y="279"/>
      </g>
     </g>
     <g id="text_4">
      <!-- Jan -->
      <g transform="translate(529.866508 293.598437)scale(0.1 -0.1)">
       <use xlink:href="#DejaVuSans-74"/>
       <use x="29.492188" xlink:href="#DejaVuSans-97"/>
       <use x="90.771484" xlink:href="#DejaVuSans-110"/>
      </g>
      <!-- 2016 -->
      <defs>
       <path d="M 33.015625 40.375 
Q 26.375 40.375 22.484375 35.828125 
Q 18.609375 31.296875 18.609375 23.390625 
Q 18.609375 15.53125 22.484375 10.953125 
Q 26.375 6.390625 33.015625 6.390625 
Q 39.65625 6.390625 43.53125 10.953125 
Q 47.40625 15.53125 47.40625 23.390625 
Q 47.40625 31.296875 43.53125 35.828125 
Q 39.65625 40.375 33.015625 40.375 
z
M 52.59375 71.296875 
L 52.59375 62.3125 
Q 48.875 64.0625 45.09375 64.984375 
Q 41.3125 65.921875 37.59375 65.921875 
Q 27.828125 65.921875 22.671875 59.328125 
Q 17.53125 52.734375 16.796875 39.40625 
Q 19.671875 43.65625 24.015625 45.921875 
Q 28.375 48.1875 33.59375 48.1875 
Q 44.578125 48.1875 50.953125 41.515625 
Q 57.328125 34.859375 57.328125 23.390625 
Q 57.328125 12.15625 50.6875 5.359375 
Q 44.046875 -1.421875 33.015625 -1.421875 
Q 20.359375 -1.421875 13.671875 8.265625 
Q 6.984375 17.96875 6.984375 36.375 
Q 6.984375 53.65625 15.1875 63.9375 
Q 23.390625 74.21875 37.203125 74.21875 
Q 40.921875 74.21875 44.703125 73.484375 
Q 48.484375 72.75 52.59375 71.296875 
z
" id="DejaVuSans-54"/>
      </defs>
      <g transform="translate(524.849321 304.79625)scale(0.1 -0.1)">
       <use xlink:href="#DejaVuSans-50"/>
       <use x="63.623047" xlink:href="#DejaVuSans-48"/>
       <use x="127.246094" xlink:href="#DejaVuSans-49"/>
       <use x="190.869141" xlink:href="#DejaVuSans-54"/>
      </g>
     </g>
    </g>
    <g id="xtick_5">
     <g id="line2d_5">
      <g>
       <use style="stroke:#000000;stroke-width:0.8;" x="733.817799" xlink:href="#m9a40c4a6ed" y="279"/>
      </g>
     </g>
     <g id="text_5">
      <!-- Jan -->
      <g transform="translate(726.109986 293.598437)scale(0.1 -0.1)">
       <use xlink:href="#DejaVuSans-74"/>
       <use x="29.492188" xlink:href="#DejaVuSans-97"/>
       <use x="90.771484" xlink:href="#DejaVuSans-110"/>
      </g>
      <!-- 2017 -->
      <defs>
       <path d="M 8.203125 72.90625 
L 55.078125 72.90625 
L 55.078125 68.703125 
L 28.609375 0 
L 18.3125 0 
L 43.21875 64.59375 
L 8.203125 64.59375 
z
" id="DejaVuSans-55"/>
      </defs>
      <g transform="translate(721.092799 304.79625)scale(0.1 -0.1)">
       <use xlink:href="#DejaVuSans-50"/>
       <use x="63.623047" xlink:href="#DejaVuSans-48"/>
       <use x="127.246094" xlink:href="#DejaVuSans-49"/>
       <use x="190.869141" xlink:href="#DejaVuSans-55"/>
      </g>
     </g>
    </g>
    <g id="xtick_6">
     <g id="line2d_6">
      <g>
       <use style="stroke:#000000;stroke-width:0.8;" x="828.165625" xlink:href="#m9a40c4a6ed" y="279"/>
      </g>
     </g>
    </g>
    <g id="xtick_7">
     <g id="line2d_7">
      <defs>
       <path d="M 0 0 
L 0 2 
" id="m21aeb46d15" style="stroke:#000000;stroke-width:0.6;"/>
      </defs>
      <g>
       <use style="stroke:#000000;stroke-width:0.6;" x="62.061277" xlink:href="#m21aeb46d15" y="279"/>
      </g>
     </g>
    </g>
    <g id="xtick_8">
     <g id="line2d_8">
      <g>
       <use style="stroke:#000000;stroke-width:0.6;" x="77.156929" xlink:href="#m21aeb46d15" y="279"/>
      </g>
     </g>
    </g>
    <g id="xtick_9">
     <g id="line2d_9">
      <g>
       <use style="stroke:#000000;stroke-width:0.6;" x="96.026495" xlink:href="#m21aeb46d15" y="279"/>
      </g>
     </g>
    </g>
    <g id="xtick_10">
     <g id="line2d_10">
      <g>
       <use style="stroke:#000000;stroke-width:0.6;" x="111.122147" xlink:href="#m21aeb46d15" y="279"/>
      </g>
     </g>
    </g>
    <g id="xtick_11">
     <g id="line2d_11">
      <g>
       <use style="stroke:#000000;stroke-width:0.6;" x="126.217799" xlink:href="#m21aeb46d15" y="279"/>
      </g>
     </g>
    </g>
    <g id="xtick_12">
     <g id="line2d_12">
      <g>
       <use style="stroke:#000000;stroke-width:0.6;" x="160.183016" xlink:href="#m21aeb46d15" y="279"/>
      </g>
     </g>
    </g>
    <g id="xtick_13">
     <g id="line2d_13">
      <g>
       <use style="stroke:#000000;stroke-width:0.6;" x="175.278668" xlink:href="#m21aeb46d15" y="279"/>
      </g>
     </g>
    </g>
    <g id="xtick_14">
     <g id="line2d_14">
      <g>
       <use style="stroke:#000000;stroke-width:0.6;" x="194.148234" xlink:href="#m21aeb46d15" y="279"/>
      </g>
     </g>
    </g>
    <g id="xtick_15">
     <g id="line2d_15">
      <g>
       <use style="stroke:#000000;stroke-width:0.6;" x="209.243886" xlink:href="#m21aeb46d15" y="279"/>
      </g>
     </g>
    </g>
    <g id="xtick_16">
     <g id="line2d_16">
      <g>
       <use style="stroke:#000000;stroke-width:0.6;" x="224.339538" xlink:href="#m21aeb46d15" y="279"/>
      </g>
     </g>
    </g>
    <g id="xtick_17">
     <g id="line2d_17">
      <g>
       <use style="stroke:#000000;stroke-width:0.6;" x="243.209103" xlink:href="#m21aeb46d15" y="279"/>
      </g>
     </g>
     <g id="text_6">
      <!-- Jul -->
      <g transform="translate(237.176291 291.998437)scale(0.1 -0.1)">
       <use xlink:href="#DejaVuSans-74"/>
       <use x="29.492188" xlink:href="#DejaVuSans-117"/>
       <use x="92.871094" xlink:href="#DejaVuSans-108"/>
      </g>
     </g>
    </g>
    <g id="xtick_18">
     <g id="line2d_18">
      <g>
       <use style="stroke:#000000;stroke-width:0.6;" x="258.304755" xlink:href="#m21aeb46d15" y="279"/>
      </g>
     </g>
    </g>
    <g id="xtick_19">
     <g id="line2d_19">
      <g>
       <use style="stroke:#000000;stroke-width:0.6;" x="277.174321" xlink:href="#m21aeb46d15" y="279"/>
      </g>
     </g>
    </g>
    <g id="xtick_20">
     <g id="line2d_20">
      <g>
       <use style="stroke:#000000;stroke-width:0.6;" x="292.269973" xlink:href="#m21aeb46d15" y="279"/>
      </g>
     </g>
    </g>
    <g id="xtick_21">
     <g id="line2d_21">
      <g>
       <use style="stroke:#000000;stroke-width:0.6;" x="307.365625" xlink:href="#m21aeb46d15" y="279"/>
      </g>
     </g>
    </g>
    <g id="xtick_22">
     <g id="line2d_22">
      <g>
       <use style="stroke:#000000;stroke-width:0.6;" x="326.23519" xlink:href="#m21aeb46d15" y="279"/>
      </g>
     </g>
    </g>
    <g id="xtick_23">
     <g id="line2d_23">
      <g>
       <use style="stroke:#000000;stroke-width:0.6;" x="356.426495" xlink:href="#m21aeb46d15" y="279"/>
      </g>
     </g>
    </g>
    <g id="xtick_24">
     <g id="line2d_24">
      <g>
       <use style="stroke:#000000;stroke-width:0.6;" x="371.522147" xlink:href="#m21aeb46d15" y="279"/>
      </g>
     </g>
    </g>
    <g id="xtick_25">
     <g id="line2d_25">
      <g>
       <use style="stroke:#000000;stroke-width:0.6;" x="390.391712" xlink:href="#m21aeb46d15" y="279"/>
      </g>
     </g>
    </g>
    <g id="xtick_26">
     <g id="line2d_26">
      <g>
       <use style="stroke:#000000;stroke-width:0.6;" x="405.487364" xlink:href="#m21aeb46d15" y="279"/>
      </g>
     </g>
    </g>
    <g id="xtick_27">
     <g id="line2d_27">
      <g>
       <use style="stroke:#000000;stroke-width:0.6;" x="424.356929" xlink:href="#m21aeb46d15" y="279"/>
      </g>
     </g>
    </g>
    <g id="xtick_28">
     <g id="line2d_28">
      <g>
       <use style="stroke:#000000;stroke-width:0.6;" x="439.452582" xlink:href="#m21aeb46d15" y="279"/>
      </g>
     </g>
     <g id="text_7">
      <!-- Jul -->
      <g transform="translate(433.419769 291.998437)scale(0.1 -0.1)">
       <use xlink:href="#DejaVuSans-74"/>
       <use x="29.492188" xlink:href="#DejaVuSans-117"/>
       <use x="92.871094" xlink:href="#DejaVuSans-108"/>
      </g>
     </g>
    </g>
    <g id="xtick_29">
     <g id="line2d_29">
      <g>
       <use style="stroke:#000000;stroke-width:0.6;" x="454.548234" xlink:href="#m21aeb46d15" y="279"/>
      </g>
     </g>
    </g>
    <g id="xtick_30">
     <g id="line2d_30">
      <g>
       <use style="stroke:#000000;stroke-width:0.6;" x="473.417799" xlink:href="#m21aeb46d15" y="279"/>
      </g>
     </g>
    </g>
    <g id="xtick_31">
     <g id="line2d_31">
      <g>
       <use style="stroke:#000000;stroke-width:0.6;" x="488.513451" xlink:href="#m21aeb46d15" y="279"/>
      </g>
     </g>
    </g>
    <g id="xtick_32">
     <g id="line2d_32">
      <g>
       <use style="stroke:#000000;stroke-width:0.6;" x="503.609103" xlink:href="#m21aeb46d15" y="279"/>
      </g>
     </g>
    </g>
    <g id="xtick_33">
     <g id="line2d_33">
      <g>
       <use style="stroke:#000000;stroke-width:0.6;" x="522.478668" xlink:href="#m21aeb46d15" y="279"/>
      </g>
     </g>
    </g>
    <g id="xtick_34">
     <g id="line2d_34">
      <g>
       <use style="stroke:#000000;stroke-width:0.6;" x="556.443886" xlink:href="#m21aeb46d15" y="279"/>
      </g>
     </g>
    </g>
    <g id="xtick_35">
     <g id="line2d_35">
      <g>
       <use style="stroke:#000000;stroke-width:0.6;" x="571.539538" xlink:href="#m21aeb46d15" y="279"/>
      </g>
     </g>
    </g>
    <g id="xtick_36">
     <g id="line2d_36">
      <g>
       <use style="stroke:#000000;stroke-width:0.6;" x="586.63519" xlink:href="#m21aeb46d15" y="279"/>
      </g>
     </g>
    </g>
    <g id="xtick_37">
     <g id="line2d_37">
      <g>
       <use style="stroke:#000000;stroke-width:0.6;" x="601.730842" xlink:href="#m21aeb46d15" y="279"/>
      </g>
     </g>
    </g>
    <g id="xtick_38">
     <g id="line2d_38">
      <g>
       <use style="stroke:#000000;stroke-width:0.6;" x="620.600408" xlink:href="#m21aeb46d15" y="279"/>
      </g>
     </g>
    </g>
    <g id="xtick_39">
     <g id="line2d_39">
      <g>
       <use style="stroke:#000000;stroke-width:0.6;" x="635.69606" xlink:href="#m21aeb46d15" y="279"/>
      </g>
     </g>
     <g id="text_8">
      <!-- Jul -->
      <g transform="translate(629.663247 291.998437)scale(0.1 -0.1)">
       <use xlink:href="#DejaVuSans-74"/>
       <use x="29.492188" xlink:href="#DejaVuSans-117"/>
       <use x="92.871094" xlink:href="#DejaVuSans-108"/>
      </g>
     </g>
    </g>
    <g id="xtick_40">
     <g id="line2d_40">
      <g>
       <use style="stroke:#000000;stroke-width:0.6;" x="654.565625" xlink:href="#m21aeb46d15" y="279"/>
      </g>
     </g>
    </g>
    <g id="xtick_41">
     <g id="line2d_41">
      <g>
       <use style="stroke:#000000;stroke-width:0.6;" x="669.661277" xlink:href="#m21aeb46d15" y="279"/>
      </g>
     </g>
    </g>
    <g id="xtick_42">
     <g id="line2d_42">
      <g>
       <use style="stroke:#000000;stroke-width:0.6;" x="684.756929" xlink:href="#m21aeb46d15" y="279"/>
      </g>
     </g>
    </g>
    <g id="xtick_43">
     <g id="line2d_43">
      <g>
       <use style="stroke:#000000;stroke-width:0.6;" x="703.626495" xlink:href="#m21aeb46d15" y="279"/>
      </g>
     </g>
    </g>
    <g id="xtick_44">
     <g id="line2d_44">
      <g>
       <use style="stroke:#000000;stroke-width:0.6;" x="718.722147" xlink:href="#m21aeb46d15" y="279"/>
      </g>
     </g>
    </g>
    <g id="xtick_45">
     <g id="line2d_45">
      <g>
       <use style="stroke:#000000;stroke-width:0.6;" x="752.687364" xlink:href="#m21aeb46d15" y="279"/>
      </g>
     </g>
    </g>
    <g id="xtick_46">
     <g id="line2d_46">
      <g>
       <use style="stroke:#000000;stroke-width:0.6;" x="767.783016" xlink:href="#m21aeb46d15" y="279"/>
      </g>
     </g>
    </g>
    <g id="xtick_47">
     <g id="line2d_47">
      <g>
       <use style="stroke:#000000;stroke-width:0.6;" x="782.878668" xlink:href="#m21aeb46d15" y="279"/>
      </g>
     </g>
    </g>
    <g id="xtick_48">
     <g id="line2d_48">
      <g>
       <use style="stroke:#000000;stroke-width:0.6;" x="801.748234" xlink:href="#m21aeb46d15" y="279"/>
      </g>
     </g>
    </g>
    <g id="xtick_49">
     <g id="line2d_49">
      <g>
       <use style="stroke:#000000;stroke-width:0.6;" x="816.843886" xlink:href="#m21aeb46d15" y="279"/>
      </g>
     </g>
    </g>
    <g id="text_9">
     <!-- datetime -->
     <defs>
      <path d="M 45.40625 46.390625 
L 45.40625 75.984375 
L 54.390625 75.984375 
L 54.390625 0 
L 45.40625 0 
L 45.40625 8.203125 
Q 42.578125 3.328125 38.25 0.953125 
Q 33.9375 -1.421875 27.875 -1.421875 
Q 17.96875 -1.421875 11.734375 6.484375 
Q 5.515625 14.40625 5.515625 27.296875 
Q 5.515625 40.1875 11.734375 48.09375 
Q 17.96875 56 27.875 56 
Q 33.9375 56 38.25 53.625 
Q 42.578125 51.265625 45.40625 46.390625 
z
M 14.796875 27.296875 
Q 14.796875 17.390625 18.875 11.75 
Q 22.953125 6.109375 30.078125 6.109375 
Q 37.203125 6.109375 41.296875 11.75 
Q 45.40625 17.390625 45.40625 27.296875 
Q 45.40625 37.203125 41.296875 42.84375 
Q 37.203125 48.484375 30.078125 48.484375 
Q 22.953125 48.484375 18.875 42.84375 
Q 14.796875 37.203125 14.796875 27.296875 
z
" id="DejaVuSans-100"/>
      <path d="M 18.3125 70.21875 
L 18.3125 54.6875 
L 36.8125 54.6875 
L 36.8125 47.703125 
L 18.3125 47.703125 
L 18.3125 18.015625 
Q 18.3125 11.328125 20.140625 9.421875 
Q 21.96875 7.515625 27.59375 7.515625 
L 36.8125 7.515625 
L 36.8125 0 
L 27.59375 0 
Q 17.1875 0 13.234375 3.875 
Q 9.28125 7.765625 9.28125 18.015625 
L 9.28125 47.703125 
L 2.6875 47.703125 
L 2.6875 54.6875 
L 9.28125 54.6875 
L 9.28125 70.21875 
z
" id="DejaVuSans-116"/>
      <path d="M 56.203125 29.59375 
L 56.203125 25.203125 
L 14.890625 25.203125 
Q 15.484375 15.921875 20.484375 11.0625 
Q 25.484375 6.203125 34.421875 6.203125 
Q 39.59375 6.203125 44.453125 7.46875 
Q 49.3125 8.734375 54.109375 11.28125 
L 54.109375 2.78125 
Q 49.265625 0.734375 44.1875 -0.34375 
Q 39.109375 -1.421875 33.890625 -1.421875 
Q 20.796875 -1.421875 13.15625 6.1875 
Q 5.515625 13.8125 5.515625 26.8125 
Q 5.515625 40.234375 12.765625 48.109375 
Q 20.015625 56 32.328125 56 
Q 43.359375 56 49.78125 48.890625 
Q 56.203125 41.796875 56.203125 29.59375 
z
M 47.21875 32.234375 
Q 47.125 39.59375 43.09375 43.984375 
Q 39.0625 48.390625 32.421875 48.390625 
Q 24.90625 48.390625 20.390625 44.140625 
Q 15.875 39.890625 15.1875 32.171875 
z
" id="DejaVuSans-101"/>
      <path d="M 9.421875 54.6875 
L 18.40625 54.6875 
L 18.40625 0 
L 9.421875 0 
z
M 9.421875 75.984375 
L 18.40625 75.984375 
L 18.40625 64.59375 
L 9.421875 64.59375 
z
" id="DejaVuSans-105"/>
      <path d="M 52 44.1875 
Q 55.375 50.25 60.0625 53.125 
Q 64.75 56 71.09375 56 
Q 79.640625 56 84.28125 50.015625 
Q 88.921875 44.046875 88.921875 33.015625 
L 88.921875 0 
L 79.890625 0 
L 79.890625 32.71875 
Q 79.890625 40.578125 77.09375 44.375 
Q 74.3125 48.1875 68.609375 48.1875 
Q 61.625 48.1875 57.5625 43.546875 
Q 53.515625 38.921875 53.515625 30.90625 
L 53.515625 0 
L 44.484375 0 
L 44.484375 32.71875 
Q 44.484375 40.625 41.703125 44.40625 
Q 38.921875 48.1875 33.109375 48.1875 
Q 26.21875 48.1875 22.15625 43.53125 
Q 18.109375 38.875 18.109375 30.90625 
L 18.109375 0 
L 9.078125 0 
L 9.078125 54.6875 
L 18.109375 54.6875 
L 18.109375 46.1875 
Q 21.1875 51.21875 25.484375 53.609375 
Q 29.78125 56 35.6875 56 
Q 41.65625 56 45.828125 52.96875 
Q 50 49.953125 52 44.1875 
z
" id="DejaVuSans-109"/>
     </defs>
     <g transform="translate(414.994531 318.474375)scale(0.1 -0.1)">
      <use xlink:href="#DejaVuSans-100"/>
      <use x="63.476562" xlink:href="#DejaVuSans-97"/>
      <use x="124.755859" xlink:href="#DejaVuSans-116"/>
      <use x="163.964844" xlink:href="#DejaVuSans-101"/>
      <use x="225.488281" xlink:href="#DejaVuSans-116"/>
      <use x="264.697266" xlink:href="#DejaVuSans-105"/>
      <use x="292.480469" xlink:href="#DejaVuSans-109"/>
      <use x="389.892578" xlink:href="#DejaVuSans-101"/>
     </g>
    </g>
   </g>
   <g id="matplotlib.axis_2">
    <g id="ytick_1">
     <g id="line2d_50">
      <defs>
       <path d="M 0 0 
L -3.5 0 
" id="m38bb41a8f4" style="stroke:#000000;stroke-width:0.8;"/>
      </defs>
      <g>
       <use style="stroke:#000000;stroke-width:0.8;" x="46.965625" xlink:href="#m38bb41a8f4" y="266.645455"/>
      </g>
     </g>
     <g id="text_10">
      <!-- 0 -->
      <g transform="translate(33.603125 270.444673)scale(0.1 -0.1)">
       <use xlink:href="#DejaVuSans-48"/>
      </g>
     </g>
    </g>
    <g id="ytick_2">
     <g id="line2d_51">
      <g>
       <use style="stroke:#000000;stroke-width:0.8;" x="46.965625" xlink:href="#m38bb41a8f4" y="225.463636"/>
      </g>
     </g>
     <g id="text_11">
      <!-- 100 -->
      <g transform="translate(20.878125 229.262855)scale(0.1 -0.1)">
       <use xlink:href="#DejaVuSans-49"/>
       <use x="63.623047" xlink:href="#DejaVuSans-48"/>
       <use x="127.246094" xlink:href="#DejaVuSans-48"/>
      </g>
     </g>
    </g>
    <g id="ytick_3">
     <g id="line2d_52">
      <g>
       <use style="stroke:#000000;stroke-width:0.8;" x="46.965625" xlink:href="#m38bb41a8f4" y="184.281818"/>
      </g>
     </g>
     <g id="text_12">
      <!-- 200 -->
      <g transform="translate(20.878125 188.081037)scale(0.1 -0.1)">
       <use xlink:href="#DejaVuSans-50"/>
       <use x="63.623047" xlink:href="#DejaVuSans-48"/>
       <use x="127.246094" xlink:href="#DejaVuSans-48"/>
      </g>
     </g>
    </g>
    <g id="ytick_4">
     <g id="line2d_53">
      <g>
       <use style="stroke:#000000;stroke-width:0.8;" x="46.965625" xlink:href="#m38bb41a8f4" y="143.1"/>
      </g>
     </g>
     <g id="text_13">
      <!-- 300 -->
      <defs>
       <path d="M 40.578125 39.3125 
Q 47.65625 37.796875 51.625 33 
Q 55.609375 28.21875 55.609375 21.1875 
Q 55.609375 10.40625 48.1875 4.484375 
Q 40.765625 -1.421875 27.09375 -1.421875 
Q 22.515625 -1.421875 17.65625 -0.515625 
Q 12.796875 0.390625 7.625 2.203125 
L 7.625 11.71875 
Q 11.71875 9.328125 16.59375 8.109375 
Q 21.484375 6.890625 26.8125 6.890625 
Q 36.078125 6.890625 40.9375 10.546875 
Q 45.796875 14.203125 45.796875 21.1875 
Q 45.796875 27.640625 41.28125 31.265625 
Q 36.765625 34.90625 28.71875 34.90625 
L 20.21875 34.90625 
L 20.21875 43.015625 
L 29.109375 43.015625 
Q 36.375 43.015625 40.234375 45.921875 
Q 44.09375 48.828125 44.09375 54.296875 
Q 44.09375 59.90625 40.109375 62.90625 
Q 36.140625 65.921875 28.71875 65.921875 
Q 24.65625 65.921875 20.015625 65.03125 
Q 15.375 64.15625 9.8125 62.3125 
L 9.8125 71.09375 
Q 15.4375 72.65625 20.34375 73.4375 
Q 25.25 74.21875 29.59375 74.21875 
Q 40.828125 74.21875 47.359375 69.109375 
Q 53.90625 64.015625 53.90625 55.328125 
Q 53.90625 49.265625 50.4375 45.09375 
Q 46.96875 40.921875 40.578125 39.3125 
z
" id="DejaVuSans-51"/>
      </defs>
      <g transform="translate(20.878125 146.899219)scale(0.1 -0.1)">
       <use xlink:href="#DejaVuSans-51"/>
       <use x="63.623047" xlink:href="#DejaVuSans-48"/>
       <use x="127.246094" xlink:href="#DejaVuSans-48"/>
      </g>
     </g>
    </g>
    <g id="ytick_5">
     <g id="line2d_54">
      <g>
       <use style="stroke:#000000;stroke-width:0.8;" x="46.965625" xlink:href="#m38bb41a8f4" y="101.918182"/>
      </g>
     </g>
     <g id="text_14">
      <!-- 400 -->
      <g transform="translate(20.878125 105.717401)scale(0.1 -0.1)">
       <use xlink:href="#DejaVuSans-52"/>
       <use x="63.623047" xlink:href="#DejaVuSans-48"/>
       <use x="127.246094" xlink:href="#DejaVuSans-48"/>
      </g>
     </g>
    </g>
    <g id="ytick_6">
     <g id="line2d_55">
      <g>
       <use style="stroke:#000000;stroke-width:0.8;" x="46.965625" xlink:href="#m38bb41a8f4" y="60.736364"/>
      </g>
     </g>
     <g id="text_15">
      <!-- 500 -->
      <g transform="translate(20.878125 64.535582)scale(0.1 -0.1)">
       <use xlink:href="#DejaVuSans-53"/>
       <use x="63.623047" xlink:href="#DejaVuSans-48"/>
       <use x="127.246094" xlink:href="#DejaVuSans-48"/>
      </g>
     </g>
    </g>
    <g id="ytick_7">
     <g id="line2d_56">
      <g>
       <use style="stroke:#000000;stroke-width:0.8;" x="46.965625" xlink:href="#m38bb41a8f4" y="19.554545"/>
      </g>
     </g>
     <g id="text_16">
      <!-- 600 -->
      <g transform="translate(20.878125 23.353764)scale(0.1 -0.1)">
       <use xlink:href="#DejaVuSans-54"/>
       <use x="63.623047" xlink:href="#DejaVuSans-48"/>
       <use x="127.246094" xlink:href="#DejaVuSans-48"/>
      </g>
     </g>
    </g>
    <g id="text_17">
     <!-- Consumption -->
     <defs>
      <path d="M 64.40625 67.28125 
L 64.40625 56.890625 
Q 59.421875 61.53125 53.78125 63.8125 
Q 48.140625 66.109375 41.796875 66.109375 
Q 29.296875 66.109375 22.65625 58.46875 
Q 16.015625 50.828125 16.015625 36.375 
Q 16.015625 21.96875 22.65625 14.328125 
Q 29.296875 6.6875 41.796875 6.6875 
Q 48.140625 6.6875 53.78125 8.984375 
Q 59.421875 11.28125 64.40625 15.921875 
L 64.40625 5.609375 
Q 59.234375 2.09375 53.4375 0.328125 
Q 47.65625 -1.421875 41.21875 -1.421875 
Q 24.65625 -1.421875 15.125 8.703125 
Q 5.609375 18.84375 5.609375 36.375 
Q 5.609375 53.953125 15.125 64.078125 
Q 24.65625 74.21875 41.21875 74.21875 
Q 47.75 74.21875 53.53125 72.484375 
Q 59.328125 70.75 64.40625 67.28125 
z
" id="DejaVuSans-67"/>
      <path d="M 30.609375 48.390625 
Q 23.390625 48.390625 19.1875 42.75 
Q 14.984375 37.109375 14.984375 27.296875 
Q 14.984375 17.484375 19.15625 11.84375 
Q 23.34375 6.203125 30.609375 6.203125 
Q 37.796875 6.203125 41.984375 11.859375 
Q 46.1875 17.53125 46.1875 27.296875 
Q 46.1875 37.015625 41.984375 42.703125 
Q 37.796875 48.390625 30.609375 48.390625 
z
M 30.609375 56 
Q 42.328125 56 49.015625 48.375 
Q 55.71875 40.765625 55.71875 27.296875 
Q 55.71875 13.875 49.015625 6.21875 
Q 42.328125 -1.421875 30.609375 -1.421875 
Q 18.84375 -1.421875 12.171875 6.21875 
Q 5.515625 13.875 5.515625 27.296875 
Q 5.515625 40.765625 12.171875 48.375 
Q 18.84375 56 30.609375 56 
z
" id="DejaVuSans-111"/>
      <path d="M 44.28125 53.078125 
L 44.28125 44.578125 
Q 40.484375 46.53125 36.375 47.5 
Q 32.28125 48.484375 27.875 48.484375 
Q 21.1875 48.484375 17.84375 46.4375 
Q 14.5 44.390625 14.5 40.28125 
Q 14.5 37.15625 16.890625 35.375 
Q 19.28125 33.59375 26.515625 31.984375 
L 29.59375 31.296875 
Q 39.15625 29.25 43.1875 25.515625 
Q 47.21875 21.78125 47.21875 15.09375 
Q 47.21875 7.46875 41.1875 3.015625 
Q 35.15625 -1.421875 24.609375 -1.421875 
Q 20.21875 -1.421875 15.453125 -0.5625 
Q 10.6875 0.296875 5.421875 2 
L 5.421875 11.28125 
Q 10.40625 8.6875 15.234375 7.390625 
Q 20.0625 6.109375 24.8125 6.109375 
Q 31.15625 6.109375 34.5625 8.28125 
Q 37.984375 10.453125 37.984375 14.40625 
Q 37.984375 18.0625 35.515625 20.015625 
Q 33.0625 21.96875 24.703125 23.78125 
L 21.578125 24.515625 
Q 13.234375 26.265625 9.515625 29.90625 
Q 5.8125 33.546875 5.8125 39.890625 
Q 5.8125 47.609375 11.28125 51.796875 
Q 16.75 56 26.8125 56 
Q 31.78125 56 36.171875 55.265625 
Q 40.578125 54.546875 44.28125 53.078125 
z
" id="DejaVuSans-115"/>
      <path d="M 18.109375 8.203125 
L 18.109375 -20.796875 
L 9.078125 -20.796875 
L 9.078125 54.6875 
L 18.109375 54.6875 
L 18.109375 46.390625 
Q 20.953125 51.265625 25.265625 53.625 
Q 29.59375 56 35.59375 56 
Q 45.5625 56 51.78125 48.09375 
Q 58.015625 40.1875 58.015625 27.296875 
Q 58.015625 14.40625 51.78125 6.484375 
Q 45.5625 -1.421875 35.59375 -1.421875 
Q 29.59375 -1.421875 25.265625 0.953125 
Q 20.953125 3.328125 18.109375 8.203125 
z
M 48.6875 27.296875 
Q 48.6875 37.203125 44.609375 42.84375 
Q 40.53125 48.484375 33.40625 48.484375 
Q 26.265625 48.484375 22.1875 42.84375 
Q 18.109375 37.203125 18.109375 27.296875 
Q 18.109375 17.390625 22.1875 11.75 
Q 26.265625 6.109375 33.40625 6.109375 
Q 40.53125 6.109375 44.609375 11.75 
Q 48.6875 17.390625 48.6875 27.296875 
z
" id="DejaVuSans-112"/>
     </defs>
     <g transform="translate(14.798438 176.214844)rotate(-90)scale(0.1 -0.1)">
      <use xlink:href="#DejaVuSans-67"/>
      <use x="69.824219" xlink:href="#DejaVuSans-111"/>
      <use x="131.005859" xlink:href="#DejaVuSans-110"/>
      <use x="194.384766" xlink:href="#DejaVuSans-115"/>
      <use x="246.484375" xlink:href="#DejaVuSans-117"/>
      <use x="309.863281" xlink:href="#DejaVuSans-109"/>
      <use x="407.275391" xlink:href="#DejaVuSans-112"/>
      <use x="470.751953" xlink:href="#DejaVuSans-116"/>
      <use x="509.960938" xlink:href="#DejaVuSans-105"/>
      <use x="537.744141" xlink:href="#DejaVuSans-111"/>
      <use x="598.925781" xlink:href="#DejaVuSans-110"/>
     </g>
    </g>
   </g>
   <g id="LineCollection_1">
    <path clip-path="url(#p2f9334cd81)" d="M 58.287364 266.645455 
L 58.287364 19.554545 
" style="fill:none;stroke:#4169e1;stroke-dasharray:1.85,0.8;stroke-dashoffset:0;stroke-width:0.5;"/>
    <path clip-path="url(#p2f9334cd81)" d="M 73.383016 266.645455 
L 73.383016 19.554545 
" style="fill:none;stroke:#4169e1;stroke-dasharray:1.85,0.8;stroke-dashoffset:0;stroke-width:0.5;"/>
    <path clip-path="url(#p2f9334cd81)" d="M 92.252582 266.645455 
L 92.252582 19.554545 
" style="fill:none;stroke:#4169e1;stroke-dasharray:1.85,0.8;stroke-dashoffset:0;stroke-width:0.5;"/>
    <path clip-path="url(#p2f9334cd81)" d="M 107.348234 266.645455 
L 107.348234 19.554545 
" style="fill:none;stroke:#4169e1;stroke-dasharray:1.85,0.8;stroke-dashoffset:0;stroke-width:0.5;"/>
    <path clip-path="url(#p2f9334cd81)" d="M 122.443886 266.645455 
L 122.443886 19.554545 
" style="fill:none;stroke:#4169e1;stroke-dasharray:1.85,0.8;stroke-dashoffset:0;stroke-width:0.5;"/>
    <path clip-path="url(#p2f9334cd81)" d="M 141.313451 266.645455 
L 141.313451 19.554545 
" style="fill:none;stroke:#4169e1;stroke-dasharray:1.85,0.8;stroke-dashoffset:0;stroke-width:0.5;"/>
    <path clip-path="url(#p2f9334cd81)" d="M 156.409103 266.645455 
L 156.409103 19.554545 
" style="fill:none;stroke:#4169e1;stroke-dasharray:1.85,0.8;stroke-dashoffset:0;stroke-width:0.5;"/>
    <path clip-path="url(#p2f9334cd81)" d="M 175.278668 266.645455 
L 175.278668 19.554545 
" style="fill:none;stroke:#4169e1;stroke-dasharray:1.85,0.8;stroke-dashoffset:0;stroke-width:0.5;"/>
    <path clip-path="url(#p2f9334cd81)" d="M 190.374321 266.645455 
L 190.374321 19.554545 
" style="fill:none;stroke:#4169e1;stroke-dasharray:1.85,0.8;stroke-dashoffset:0;stroke-width:0.5;"/>
    <path clip-path="url(#p2f9334cd81)" d="M 205.469973 266.645455 
L 205.469973 19.554545 
" style="fill:none;stroke:#4169e1;stroke-dasharray:1.85,0.8;stroke-dashoffset:0;stroke-width:0.5;"/>
    <path clip-path="url(#p2f9334cd81)" d="M 220.565625 266.645455 
L 220.565625 19.554545 
" style="fill:none;stroke:#4169e1;stroke-dasharray:1.85,0.8;stroke-dashoffset:0;stroke-width:0.5;"/>
    <path clip-path="url(#p2f9334cd81)" d="M 239.43519 266.645455 
L 239.43519 19.554545 
" style="fill:none;stroke:#4169e1;stroke-dasharray:1.85,0.8;stroke-dashoffset:0;stroke-width:0.5;"/>
    <path clip-path="url(#p2f9334cd81)" d="M 254.530842 266.645455 
L 254.530842 19.554545 
" style="fill:none;stroke:#4169e1;stroke-dasharray:1.85,0.8;stroke-dashoffset:0;stroke-width:0.5;"/>
    <path clip-path="url(#p2f9334cd81)" d="M 269.626495 266.645455 
L 269.626495 19.554545 
" style="fill:none;stroke:#4169e1;stroke-dasharray:1.85,0.8;stroke-dashoffset:0;stroke-width:0.5;"/>
    <path clip-path="url(#p2f9334cd81)" d="M 288.49606 266.645455 
L 288.49606 19.554545 
" style="fill:none;stroke:#4169e1;stroke-dasharray:1.85,0.8;stroke-dashoffset:0;stroke-width:0.5;"/>
    <path clip-path="url(#p2f9334cd81)" d="M 303.591712 266.645455 
L 303.591712 19.554545 
" style="fill:none;stroke:#4169e1;stroke-dasharray:1.85,0.8;stroke-dashoffset:0;stroke-width:0.5;"/>
    <path clip-path="url(#p2f9334cd81)" d="M 322.461277 266.645455 
L 322.461277 19.554545 
" style="fill:none;stroke:#4169e1;stroke-dasharray:1.85,0.8;stroke-dashoffset:0;stroke-width:0.5;"/>
    <path clip-path="url(#p2f9334cd81)" d="M 337.556929 266.645455 
L 337.556929 19.554545 
" style="fill:none;stroke:#4169e1;stroke-dasharray:1.85,0.8;stroke-dashoffset:0;stroke-width:0.5;"/>
    <path clip-path="url(#p2f9334cd81)" d="M 352.652582 266.645455 
L 352.652582 19.554545 
" style="fill:none;stroke:#4169e1;stroke-dasharray:1.85,0.8;stroke-dashoffset:0;stroke-width:0.5;"/>
    <path clip-path="url(#p2f9334cd81)" d="M 371.522147 266.645455 
L 371.522147 19.554545 
" style="fill:none;stroke:#4169e1;stroke-dasharray:1.85,0.8;stroke-dashoffset:0;stroke-width:0.5;"/>
    <path clip-path="url(#p2f9334cd81)" d="M 386.617799 266.645455 
L 386.617799 19.554545 
" style="fill:none;stroke:#4169e1;stroke-dasharray:1.85,0.8;stroke-dashoffset:0;stroke-width:0.5;"/>
    <path clip-path="url(#p2f9334cd81)" d="M 401.713451 266.645455 
L 401.713451 19.554545 
" style="fill:none;stroke:#4169e1;stroke-dasharray:1.85,0.8;stroke-dashoffset:0;stroke-width:0.5;"/>
    <path clip-path="url(#p2f9334cd81)" d="M 416.809103 266.645455 
L 416.809103 19.554545 
" style="fill:none;stroke:#4169e1;stroke-dasharray:1.85,0.8;stroke-dashoffset:0;stroke-width:0.5;"/>
    <path clip-path="url(#p2f9334cd81)" d="M 435.678668 266.645455 
L 435.678668 19.554545 
" style="fill:none;stroke:#4169e1;stroke-dasharray:1.85,0.8;stroke-dashoffset:0;stroke-width:0.5;"/>
    <path clip-path="url(#p2f9334cd81)" d="M 450.774321 266.645455 
L 450.774321 19.554545 
" style="fill:none;stroke:#4169e1;stroke-dasharray:1.85,0.8;stroke-dashoffset:0;stroke-width:0.5;"/>
    <path clip-path="url(#p2f9334cd81)" d="M 469.643886 266.645455 
L 469.643886 19.554545 
" style="fill:none;stroke:#4169e1;stroke-dasharray:1.85,0.8;stroke-dashoffset:0;stroke-width:0.5;"/>
    <path clip-path="url(#p2f9334cd81)" d="M 484.739538 266.645455 
L 484.739538 19.554545 
" style="fill:none;stroke:#4169e1;stroke-dasharray:1.85,0.8;stroke-dashoffset:0;stroke-width:0.5;"/>
    <path clip-path="url(#p2f9334cd81)" d="M 499.83519 266.645455 
L 499.83519 19.554545 
" style="fill:none;stroke:#4169e1;stroke-dasharray:1.85,0.8;stroke-dashoffset:0;stroke-width:0.5;"/>
    <path clip-path="url(#p2f9334cd81)" d="M 518.704755 266.645455 
L 518.704755 19.554545 
" style="fill:none;stroke:#4169e1;stroke-dasharray:1.85,0.8;stroke-dashoffset:0;stroke-width:0.5;"/>
    <path clip-path="url(#p2f9334cd81)" d="M 533.800408 266.645455 
L 533.800408 19.554545 
" style="fill:none;stroke:#4169e1;stroke-dasharray:1.85,0.8;stroke-dashoffset:0;stroke-width:0.5;"/>
    <path clip-path="url(#p2f9334cd81)" d="M 548.89606 266.645455 
L 548.89606 19.554545 
" style="fill:none;stroke:#4169e1;stroke-dasharray:1.85,0.8;stroke-dashoffset:0;stroke-width:0.5;"/>
    <path clip-path="url(#p2f9334cd81)" d="M 567.765625 266.645455 
L 567.765625 19.554545 
" style="fill:none;stroke:#4169e1;stroke-dasharray:1.85,0.8;stroke-dashoffset:0;stroke-width:0.5;"/>
    <path clip-path="url(#p2f9334cd81)" d="M 582.861277 266.645455 
L 582.861277 19.554545 
" style="fill:none;stroke:#4169e1;stroke-dasharray:1.85,0.8;stroke-dashoffset:0;stroke-width:0.5;"/>
    <path clip-path="url(#p2f9334cd81)" d="M 597.956929 266.645455 
L 597.956929 19.554545 
" style="fill:none;stroke:#4169e1;stroke-dasharray:1.85,0.8;stroke-dashoffset:0;stroke-width:0.5;"/>
    <path clip-path="url(#p2f9334cd81)" d="M 616.826495 266.645455 
L 616.826495 19.554545 
" style="fill:none;stroke:#4169e1;stroke-dasharray:1.85,0.8;stroke-dashoffset:0;stroke-width:0.5;"/>
    <path clip-path="url(#p2f9334cd81)" d="M 631.922147 266.645455 
L 631.922147 19.554545 
" style="fill:none;stroke:#4169e1;stroke-dasharray:1.85,0.8;stroke-dashoffset:0;stroke-width:0.5;"/>
    <path clip-path="url(#p2f9334cd81)" d="M 647.017799 266.645455 
L 647.017799 19.554545 
" style="fill:none;stroke:#4169e1;stroke-dasharray:1.85,0.8;stroke-dashoffset:0;stroke-width:0.5;"/>
    <path clip-path="url(#p2f9334cd81)" d="M 665.887364 266.645455 
L 665.887364 19.554545 
" style="fill:none;stroke:#4169e1;stroke-dasharray:1.85,0.8;stroke-dashoffset:0;stroke-width:0.5;"/>
    <path clip-path="url(#p2f9334cd81)" d="M 680.983016 266.645455 
L 680.983016 19.554545 
" style="fill:none;stroke:#4169e1;stroke-dasharray:1.85,0.8;stroke-dashoffset:0;stroke-width:0.5;"/>
    <path clip-path="url(#p2f9334cd81)" d="M 699.852582 266.645455 
L 699.852582 19.554545 
" style="fill:none;stroke:#4169e1;stroke-dasharray:1.85,0.8;stroke-dashoffset:0;stroke-width:0.5;"/>
    <path clip-path="url(#p2f9334cd81)" d="M 714.948234 266.645455 
L 714.948234 19.554545 
" style="fill:none;stroke:#4169e1;stroke-dasharray:1.85,0.8;stroke-dashoffset:0;stroke-width:0.5;"/>
    <path clip-path="url(#p2f9334cd81)" d="M 730.043886 266.645455 
L 730.043886 19.554545 
" style="fill:none;stroke:#4169e1;stroke-dasharray:1.85,0.8;stroke-dashoffset:0;stroke-width:0.5;"/>
    <path clip-path="url(#p2f9334cd81)" d="M 748.913451 266.645455 
L 748.913451 19.554545 
" style="fill:none;stroke:#4169e1;stroke-dasharray:1.85,0.8;stroke-dashoffset:0;stroke-width:0.5;"/>
    <path clip-path="url(#p2f9334cd81)" d="M 764.009103 266.645455 
L 764.009103 19.554545 
" style="fill:none;stroke:#4169e1;stroke-dasharray:1.85,0.8;stroke-dashoffset:0;stroke-width:0.5;"/>
    <path clip-path="url(#p2f9334cd81)" d="M 779.104755 266.645455 
L 779.104755 19.554545 
" style="fill:none;stroke:#4169e1;stroke-dasharray:1.85,0.8;stroke-dashoffset:0;stroke-width:0.5;"/>
    <path clip-path="url(#p2f9334cd81)" d="M 797.974321 266.645455 
L 797.974321 19.554545 
" style="fill:none;stroke:#4169e1;stroke-dasharray:1.85,0.8;stroke-dashoffset:0;stroke-width:0.5;"/>
    <path clip-path="url(#p2f9334cd81)" d="M 813.069973 266.645455 
L 813.069973 19.554545 
" style="fill:none;stroke:#4169e1;stroke-dasharray:1.85,0.8;stroke-dashoffset:0;stroke-width:0.5;"/>
    <path clip-path="url(#p2f9334cd81)" d="M 828.165625 266.645455 
L 828.165625 19.554545 
" style="fill:none;stroke:#4169e1;stroke-dasharray:1.85,0.8;stroke-dashoffset:0;stroke-width:0.5;"/>
   </g>
   <g id="LineCollection_2">
    <path clip-path="url(#p2f9334cd81)" d="M 62.061277 266.645455 
L 62.061277 19.554545 
" style="fill:none;stroke:#b8860b;stroke-width:0.5;"/>
    <path clip-path="url(#p2f9334cd81)" d="M 77.156929 266.645455 
L 77.156929 19.554545 
" style="fill:none;stroke:#b8860b;stroke-width:0.5;"/>
    <path clip-path="url(#p2f9334cd81)" d="M 96.026495 266.645455 
L 96.026495 19.554545 
" style="fill:none;stroke:#b8860b;stroke-width:0.5;"/>
    <path clip-path="url(#p2f9334cd81)" d="M 111.122147 266.645455 
L 111.122147 19.554545 
" style="fill:none;stroke:#b8860b;stroke-width:0.5;"/>
    <path clip-path="url(#p2f9334cd81)" d="M 126.217799 266.645455 
L 126.217799 19.554545 
" style="fill:none;stroke:#b8860b;stroke-width:0.5;"/>
    <path clip-path="url(#p2f9334cd81)" d="M 145.087364 266.645455 
L 145.087364 19.554545 
" style="fill:none;stroke:#b8860b;stroke-width:0.5;"/>
    <path clip-path="url(#p2f9334cd81)" d="M 160.183016 266.645455 
L 160.183016 19.554545 
" style="fill:none;stroke:#b8860b;stroke-width:0.5;"/>
    <path clip-path="url(#p2f9334cd81)" d="M 175.278668 266.645455 
L 175.278668 19.554545 
" style="fill:none;stroke:#b8860b;stroke-width:0.5;"/>
    <path clip-path="url(#p2f9334cd81)" d="M 194.148234 266.645455 
L 194.148234 19.554545 
" style="fill:none;stroke:#b8860b;stroke-width:0.5;"/>
    <path clip-path="url(#p2f9334cd81)" d="M 209.243886 266.645455 
L 209.243886 19.554545 
" style="fill:none;stroke:#b8860b;stroke-width:0.5;"/>
    <path clip-path="url(#p2f9334cd81)" d="M 224.339538 266.645455 
L 224.339538 19.554545 
" style="fill:none;stroke:#b8860b;stroke-width:0.5;"/>
    <path clip-path="url(#p2f9334cd81)" d="M 243.209103 266.645455 
L 243.209103 19.554545 
" style="fill:none;stroke:#b8860b;stroke-width:0.5;"/>
    <path clip-path="url(#p2f9334cd81)" d="M 258.304755 266.645455 
L 258.304755 19.554545 
" style="fill:none;stroke:#b8860b;stroke-width:0.5;"/>
    <path clip-path="url(#p2f9334cd81)" d="M 273.400408 266.645455 
L 273.400408 19.554545 
" style="fill:none;stroke:#b8860b;stroke-width:0.5;"/>
    <path clip-path="url(#p2f9334cd81)" d="M 292.269973 266.645455 
L 292.269973 19.554545 
" style="fill:none;stroke:#b8860b;stroke-width:0.5;"/>
    <path clip-path="url(#p2f9334cd81)" d="M 307.365625 266.645455 
L 307.365625 19.554545 
" style="fill:none;stroke:#b8860b;stroke-width:0.5;"/>
    <path clip-path="url(#p2f9334cd81)" d="M 322.461277 266.645455 
L 322.461277 19.554545 
" style="fill:none;stroke:#b8860b;stroke-width:0.5;"/>
    <path clip-path="url(#p2f9334cd81)" d="M 341.330842 266.645455 
L 341.330842 19.554545 
" style="fill:none;stroke:#b8860b;stroke-width:0.5;"/>
    <path clip-path="url(#p2f9334cd81)" d="M 356.426495 266.645455 
L 356.426495 19.554545 
" style="fill:none;stroke:#b8860b;stroke-width:0.5;"/>
    <path clip-path="url(#p2f9334cd81)" d="M 371.522147 266.645455 
L 371.522147 19.554545 
" style="fill:none;stroke:#b8860b;stroke-width:0.5;"/>
    <path clip-path="url(#p2f9334cd81)" d="M 390.391712 266.645455 
L 390.391712 19.554545 
" style="fill:none;stroke:#b8860b;stroke-width:0.5;"/>
    <path clip-path="url(#p2f9334cd81)" d="M 405.487364 266.645455 
L 405.487364 19.554545 
" style="fill:none;stroke:#b8860b;stroke-width:0.5;"/>
    <path clip-path="url(#p2f9334cd81)" d="M 420.583016 266.645455 
L 420.583016 19.554545 
" style="fill:none;stroke:#b8860b;stroke-width:0.5;"/>
    <path clip-path="url(#p2f9334cd81)" d="M 439.452582 266.645455 
L 439.452582 19.554545 
" style="fill:none;stroke:#b8860b;stroke-width:0.5;"/>
    <path clip-path="url(#p2f9334cd81)" d="M 454.548234 266.645455 
L 454.548234 19.554545 
" style="fill:none;stroke:#b8860b;stroke-width:0.5;"/>
    <path clip-path="url(#p2f9334cd81)" d="M 473.417799 266.645455 
L 473.417799 19.554545 
" style="fill:none;stroke:#b8860b;stroke-width:0.5;"/>
    <path clip-path="url(#p2f9334cd81)" d="M 488.513451 266.645455 
L 488.513451 19.554545 
" style="fill:none;stroke:#b8860b;stroke-width:0.5;"/>
    <path clip-path="url(#p2f9334cd81)" d="M 503.609103 266.645455 
L 503.609103 19.554545 
" style="fill:none;stroke:#b8860b;stroke-width:0.5;"/>
    <path clip-path="url(#p2f9334cd81)" d="M 522.478668 266.645455 
L 522.478668 19.554545 
" style="fill:none;stroke:#b8860b;stroke-width:0.5;"/>
    <path clip-path="url(#p2f9334cd81)" d="M 537.574321 266.645455 
L 537.574321 19.554545 
" style="fill:none;stroke:#b8860b;stroke-width:0.5;"/>
    <path clip-path="url(#p2f9334cd81)" d="M 552.669973 266.645455 
L 552.669973 19.554545 
" style="fill:none;stroke:#b8860b;stroke-width:0.5;"/>
    <path clip-path="url(#p2f9334cd81)" d="M 571.539538 266.645455 
L 571.539538 19.554545 
" style="fill:none;stroke:#b8860b;stroke-width:0.5;"/>
    <path clip-path="url(#p2f9334cd81)" d="M 586.63519 266.645455 
L 586.63519 19.554545 
" style="fill:none;stroke:#b8860b;stroke-width:0.5;"/>
    <path clip-path="url(#p2f9334cd81)" d="M 601.730842 266.645455 
L 601.730842 19.554545 
" style="fill:none;stroke:#b8860b;stroke-width:0.5;"/>
    <path clip-path="url(#p2f9334cd81)" d="M 620.600408 266.645455 
L 620.600408 19.554545 
" style="fill:none;stroke:#b8860b;stroke-width:0.5;"/>
    <path clip-path="url(#p2f9334cd81)" d="M 635.69606 266.645455 
L 635.69606 19.554545 
" style="fill:none;stroke:#b8860b;stroke-width:0.5;"/>
    <path clip-path="url(#p2f9334cd81)" d="M 650.791712 266.645455 
L 650.791712 19.554545 
" style="fill:none;stroke:#b8860b;stroke-width:0.5;"/>
    <path clip-path="url(#p2f9334cd81)" d="M 669.661277 266.645455 
L 669.661277 19.554545 
" style="fill:none;stroke:#b8860b;stroke-width:0.5;"/>
    <path clip-path="url(#p2f9334cd81)" d="M 684.756929 266.645455 
L 684.756929 19.554545 
" style="fill:none;stroke:#b8860b;stroke-width:0.5;"/>
    <path clip-path="url(#p2f9334cd81)" d="M 703.626495 266.645455 
L 703.626495 19.554545 
" style="fill:none;stroke:#b8860b;stroke-width:0.5;"/>
    <path clip-path="url(#p2f9334cd81)" d="M 718.722147 266.645455 
L 718.722147 19.554545 
" style="fill:none;stroke:#b8860b;stroke-width:0.5;"/>
    <path clip-path="url(#p2f9334cd81)" d="M 733.817799 266.645455 
L 733.817799 19.554545 
" style="fill:none;stroke:#b8860b;stroke-width:0.5;"/>
    <path clip-path="url(#p2f9334cd81)" d="M 752.687364 266.645455 
L 752.687364 19.554545 
" style="fill:none;stroke:#b8860b;stroke-width:0.5;"/>
    <path clip-path="url(#p2f9334cd81)" d="M 767.783016 266.645455 
L 767.783016 19.554545 
" style="fill:none;stroke:#b8860b;stroke-width:0.5;"/>
    <path clip-path="url(#p2f9334cd81)" d="M 782.878668 266.645455 
L 782.878668 19.554545 
" style="fill:none;stroke:#b8860b;stroke-width:0.5;"/>
    <path clip-path="url(#p2f9334cd81)" d="M 797.974321 266.645455 
L 797.974321 19.554545 
" style="fill:none;stroke:#b8860b;stroke-width:0.5;"/>
    <path clip-path="url(#p2f9334cd81)" d="M 816.843886 266.645455 
L 816.843886 19.554545 
" style="fill:none;stroke:#b8860b;stroke-width:0.5;"/>
    <path clip-path="url(#p2f9334cd81)" d="M 831.939538 266.645455 
L 831.939538 19.554545 
" style="fill:none;stroke:#b8860b;stroke-width:0.5;"/>
   </g>
   <g id="line2d_57">
    <path clip-path="url(#p2f9334cd81)" d="M 46.965625 162.327224 
L 50.739538 165.683815 
L 54.513451 173.449529 
L 58.287364 173.034034 
L 62.061277 149.70196 
L 65.83519 143.477295 
L 69.609103 119.56718 
L 73.383016 50.103967 
L 77.156929 160.0875 
L 80.930842 168.002596 
L 84.704755 138.582632 
L 88.478668 160.162833 
L 92.252582 159.418295 
L 96.026495 115.705511 
L 99.800408 153.138993 
L 103.574321 154.680526 
L 107.348234 163.279091 
L 111.122147 152.880682 
L 114.89606 165.18375 
L 118.669973 154.751742 
L 122.443886 153.318239 
L 126.217799 174.861477 
L 129.991712 145.673864 
L 133.765625 141.379188 
L 137.539538 115.165 
L 141.313451 174.707045 
L 145.087364 149.544955 
L 148.861277 142.291071 
L 152.63519 141.960146 
L 156.409103 112.059205 
L 160.183016 127.167784 
L 163.956929 136.518263 
L 167.730842 154.886085 
L 171.504755 141.849838 
L 175.278668 167.320057 
L 179.052582 147.649728 
L 182.826495 144.357516 
L 186.600408 167.981306 
M 194.148234 178.233239 
L 197.922147 118.624014 
L 201.69606 127.06197 
L 205.469973 115.135584 
L 209.243886 138.75017 
L 213.017799 157.594529 
L 216.791712 129.701201 
L 220.565625 149.81124 
L 224.339538 47.228727 
L 228.113451 121.884806 
L 231.887364 163.015231 
L 235.661277 160.929015 
L 239.43519 169.198977 
L 243.209103 155.315339 
L 246.983016 131.777606 
L 250.756929 127.921558 
L 254.530842 162.485735 
L 258.304755 170.640341 
L 262.078668 165.583784 
L 265.852582 143.769825 
L 269.626495 144.670057 
M 277.174321 151.932029 
L 280.948234 144.476862 
L 284.722147 123.46589 
L 288.49606 176.32858 
L 292.269973 177.651199 
L 296.043886 160.697873 
L 299.817799 140.945308 
L 303.591712 106.11358 
L 307.365625 143.511818 
L 311.139538 132.319188 
L 314.913451 155.814886 
L 318.687364 145.615032 
M 326.23519 136.981558 
L 330.009103 170.008997 
L 333.783016 125.421234 
L 337.556929 106.911477 
L 341.330842 148.415028 
L 345.104755 150.498019 
L 348.878668 145.276753 
L 352.652582 153.416045 
L 356.426495 163.279091 
L 360.200408 162.646656 
L 363.974321 154.16026 
L 367.748234 129.39092 
L 371.522147 113.423352 
L 375.29606 159.363074 
L 379.069973 157.352927 
L 382.843886 156.770893 
L 386.617799 139.084773 
L 390.391712 156.53427 
L 394.165625 127.862727 
L 397.939538 155.499471 
L 401.713451 145.75108 
L 405.487364 143.361012 
L 409.261277 154.426233 
L 413.03519 160.245698 
L 416.809103 132.531975 
M 424.356929 145.985193 
L 428.130842 129.171721 
L 431.904755 116.934838 
L 435.678668 181.42483 
L 439.452582 168.426818 
L 443.226495 119.948998 
L 447.000408 103.454817 
L 450.774321 114.014246 
L 454.548234 134.451818 
L 458.322147 152.537087 
L 462.09606 133.500893 
L 465.869973 140.384959 
M 473.417799 105.1831 
L 477.191712 136.745177 
L 480.965625 127.586444 
L 484.739538 158.243143 
L 488.513451 141.812526 
L 492.287364 174.994434 
L 496.061277 166.020335 
L 499.83519 123.991636 
L 503.609103 158.543182 
L 507.383016 128.156883 
L 511.156929 154.380877 
L 514.930842 150.270049 
L 518.704755 158.903523 
L 522.478668 119.617784 
L 526.252582 146.66664 
L 530.026495 147.534399 
L 533.800408 151.302045 
L 537.574321 177.298068 
L 541.348234 156.579692 
L 545.122147 148.549237 
L 548.89606 158.302955 
M 556.443886 162.720195 
L 560.217799 147.056396 
L 563.991712 157.697484 
L 567.765625 170.048352 
L 571.539538 158.045568 
L 575.313451 142.93086 
L 582.861277 158.032885 
L 586.63519 153.548416 
L 590.409103 121.531023 
L 594.183016 143.44443 
L 597.956929 156.482651 
L 601.730842 81.224318 
L 605.504755 124.568182 
L 609.278668 146.618032 
L 613.052582 154.075959 
L 616.826495 74.738182 
L 620.600408 136.222636 
L 624.374321 150.621985 
L 628.148234 153.227768 
L 631.922147 104.495367 
L 635.69606 144.541364 
L 639.469973 143.241407 
L 643.243886 126.237715 
L 647.017799 131.693796 
M 654.565625 145.055505 
L 658.339538 130.652795 
L 662.113451 95.033825 
L 665.887364 33.968182 
L 669.661277 169.110968 
L 673.43519 142.641328 
L 677.209103 157.54816 
L 680.983016 93.3049 
L 684.756929 174.906383 
L 688.530842 146.221927 
L 692.304755 125.362403 
L 696.078668 146.438669 
M 703.626495 153.772955 
L 707.400408 163.933588 
L 711.174321 142.717597 
L 714.948234 159.286245 
L 718.722147 160.955569 
L 722.49606 168.307877 
L 726.269973 146.554834 
L 730.043886 163.742386 
L 733.817799 89.769545 
L 737.591712 145.274992 
L 741.365625 155.498933 
L 745.139538 167.098889 
L 748.913451 143.460341 
L 752.687364 168.748881 
L 756.461277 171.277295 
L 760.23519 154.219091 
L 764.009103 167.277713 
L 767.783016 162.2755 
L 771.556929 149.823868 
L 775.330842 163.451306 
L 779.104755 140.770653 
L 782.878668 142.791136 
L 786.652582 107.096463 
L 790.426495 154.360735 
L 794.200408 105.092926 
M 801.748234 163.978405 
L 805.522147 164.78488 
L 809.29606 101.878726 
L 813.069973 146.490928 
L 816.843886 174.563804 
L 820.617799 144.879643 
L 824.391712 148.064146 
L 828.165625 165.572492 
L 828.165625 165.572492 
" style="fill:none;stroke:#0000ff;stroke-linecap:square;stroke-width:1.5;"/>
   </g>
   <g id="line2d_58">
    <path clip-path="url(#p2f9334cd81)" d="M 46.965625 242.528763 
L 62.061277 211.478455 
L 77.156929 230.204602 
L 96.026495 234.141449 
L 111.122147 241.134767 
L 126.217799 232.842272 
L 145.087364 226.947065 
L 160.183016 244.688971 
L 175.278668 237.51039 
L 194.148234 209.384359 
L 209.243886 226.434186 
L 224.339538 217.958256 
L 243.209103 215.065043 
L 258.304755 231.345235 
L 277.174321 224.145072 
L 292.269973 232.364048 
L 307.365625 239.872695 
L 326.23519 229.318348 
L 341.330842 237.559371 
L 356.426495 239.117261 
L 371.522147 237.056261 
L 390.391712 225.246162 
L 405.487364 228.508466 
L 424.356929 217.793047 
L 439.452582 210.420641 
L 454.548234 220.717811 
L 473.417799 218.306318 
L 488.513451 237.060094 
L 503.609103 236.593969 
L 522.478668 238.793314 
L 537.574321 245.413111 
L 556.443886 245.204201 
L 571.539538 244.393818 
L 586.63519 222.911691 
L 601.730842 218.608472 
L 620.600408 217.77298 
L 635.69606 222.85008 
L 654.565625 209.986542 
L 669.661277 221.903553 
L 684.756929 237.820652 
L 703.626495 243.927011 
L 718.722147 245.78806 
L 733.817799 234.835096 
L 752.687364 247.203035 
L 767.783016 243.620991 
L 782.878668 211.810603 
L 801.748234 214.582404 
L 816.843886 225.228815 
" style="fill:none;stroke:#ff0000;stroke-linecap:square;stroke-width:1.5;"/>
   </g>
   <g id="line2d_59">
    <path clip-path="url(#p2f9334cd81)" d="M 46.965625 150.130732 
L 96.026495 146.792103 
L 145.087364 145.252856 
L 194.148234 142.509463 
L 243.209103 146.272175 
L 292.269973 144.536348 
L 341.330842 150.692007 
L 390.391712 143.236602 
L 439.452582 132.214897 
L 488.513451 146.997878 
L 537.574321 155.158216 
L 586.63519 139.167825 
L 635.69606 130.834087 
L 684.756929 151.928007 
L 733.817799 157.441229 
L 782.878668 141.013677 
" style="fill:none;stroke:#8b4513;stroke-linecap:square;stroke-width:1.5;"/>
   </g>
   <g id="line2d_60">
    <path clip-path="url(#p2f9334cd81)" d="M 46.965625 167.674559 
L 62.061277 124.207011 
L 77.156929 156.030025 
L 96.026495 145.116334 
L 111.122147 157.313333 
L 126.217799 137.8595 
L 145.087364 138.50957 
L 160.183016 142.808641 
L 175.278668 154.485119 
L 194.148234 137.05376 
L 209.243886 144.115319 
L 224.339538 146.242904 
L 243.209103 141.221629 
L 258.304755 154.144693 
L 277.174321 143.151759 
L 292.269973 148.82659 
L 307.365625 144.489886 
L 326.23519 140.198172 
L 341.330842 149.181033 
L 356.426495 148.531507 
L 371.522147 154.402709 
L 390.391712 145.641183 
L 405.487364 149.11285 
L 424.356929 135.088604 
L 439.452582 125.98712 
L 454.548234 141.490509 
L 473.417799 128.637778 
L 488.513451 155.15082 
L 503.609103 145.526146 
L 522.478668 140.479135 
L 537.574321 157.287584 
L 556.443886 157.061532 
L 571.539538 151.08867 
L 586.63519 141.411998 
L 601.730842 136.064075 
L 620.600408 140.028946 
L 635.69606 135.54688 
L 654.565625 115.640274 
L 669.661277 141.043932 
L 684.756929 142.367712 
L 703.626495 154.192086 
L 718.722147 159.322451 
L 733.817799 152.517809 
L 752.687364 164.781773 
L 767.783016 155.073708 
L 782.878668 123.864561 
L 801.748234 143.34202 
L 816.843886 155.322338 
" style="fill:none;stroke:#008000;stroke-linecap:square;stroke-width:1.5;"/>
   </g>
   <g id="line2d_61">
    <path clip-path="url(#p2f9334cd81)" d="M 46.965625 242.528763 
L 62.061277 211.478455 
L 77.156929 230.204602 
L 96.026495 234.141449 
L 111.122147 241.134767 
L 126.217799 232.842272 
L 145.087364 226.947065 
L 160.183016 244.688971 
L 175.278668 237.51039 
L 194.148234 209.384359 
L 209.243886 226.434186 
L 224.339538 217.958256 
L 243.209103 215.065043 
L 258.304755 231.345235 
L 277.174321 224.145072 
L 292.269973 232.364048 
L 307.365625 239.872695 
L 326.23519 229.318348 
L 341.330842 237.559371 
L 356.426495 239.117261 
L 371.522147 237.056261 
L 390.391712 225.246162 
L 405.487364 228.508466 
L 424.356929 217.793047 
L 439.452582 210.420641 
L 454.548234 220.717811 
L 473.417799 218.306318 
L 488.513451 237.060094 
L 503.609103 236.593969 
L 522.478668 238.793314 
L 537.574321 245.413111 
L 556.443886 245.204201 
L 571.539538 244.393818 
L 586.63519 222.911691 
L 601.730842 218.608472 
L 620.600408 217.77298 
L 635.69606 222.85008 
L 654.565625 209.986542 
L 669.661277 221.903553 
L 684.756929 237.820652 
L 703.626495 243.927011 
L 718.722147 245.78806 
L 733.817799 234.835096 
L 752.687364 247.203035 
L 767.783016 243.620991 
L 782.878668 211.810603 
L 801.748234 214.582404 
L 816.843886 225.228815 
" style="fill:none;stroke:#a52a2a;stroke-linecap:square;stroke-width:1.5;"/>
   </g>
   <g id="line2d_62">
    <path clip-path="url(#p2f9334cd81)" d="M 46.965625 256.97794 
L 62.061277 248.414136 
L 77.156929 257.138144 
L 96.026495 251.855739 
L 111.122147 255.8532 
L 126.217799 253.932214 
L 145.087364 255.361492 
L 160.183016 256.472242 
L 175.278668 255.887787 
L 194.148234 253.908436 
L 209.243886 253.912803 
L 224.339538 253.035542 
L 243.209103 252.342043 
L 258.304755 254.380669 
L 277.174321 255.263886 
L 292.269973 255.805421 
L 307.365625 252.806394 
L 326.23519 252.336226 
L 341.330842 257.101245 
L 356.426495 257.787006 
L 371.522147 257.78946 
L 390.391712 254.128794 
L 405.487364 255.153878 
L 424.356929 253.225922 
L 439.452582 247.523015 
L 454.548234 252.564594 
L 473.417799 252.733167 
L 488.513451 257.558539 
L 503.609103 254.626601 
L 522.478668 255.570509 
L 537.574321 257.435356 
L 556.443886 257.390722 
L 571.539538 255.754275 
L 586.63519 256.192438 
L 601.730842 252.859097 
L 620.600408 250.78914 
L 635.69606 249.979974 
L 654.565625 255.269389 
L 669.661277 255.593197 
L 684.756929 256.420141 
L 703.626495 254.649052 
L 718.722147 256.792418 
L 733.817799 257.6701 
L 752.687364 256.873828 
L 767.783016 257.428125 
L 782.878668 256.026821 
L 801.748234 254.514117 
L 816.843886 253.378138 
" style="fill:none;stroke:#708090;stroke-linecap:square;stroke-width:1.5;"/>
   </g>
   <g id="patch_3">
    <path d="M 46.965625 279 
L 46.965625 7.2 
" style="fill:none;stroke:#000000;stroke-linecap:square;stroke-linejoin:miter;stroke-width:0.8;"/>
   </g>
   <g id="patch_4">
    <path d="M 828.165625 279 
L 828.165625 7.2 
" style="fill:none;stroke:#000000;stroke-linecap:square;stroke-linejoin:miter;stroke-width:0.8;"/>
   </g>
   <g id="patch_5">
    <path d="M 46.965625 279 
L 828.165625 279 
" style="fill:none;stroke:#000000;stroke-linecap:square;stroke-linejoin:miter;stroke-width:0.8;"/>
   </g>
   <g id="patch_6">
    <path d="M 46.965625 7.2 
L 828.165625 7.2 
" style="fill:none;stroke:#000000;stroke-linecap:square;stroke-linejoin:miter;stroke-width:0.8;"/>
   </g>
   <g id="legend_1">
    <g id="patch_7">
     <path d="M 53.965625 44.834375 
L 570.664062 44.834375 
Q 572.664062 44.834375 572.664062 42.834375 
L 572.664062 14.2 
Q 572.664062 12.2 570.664062 12.2 
L 53.965625 12.2 
Q 51.965625 12.2 51.965625 14.2 
L 51.965625 42.834375 
Q 51.965625 44.834375 53.965625 44.834375 
z
" style="fill:#ffffff;opacity:0.8;stroke:#cccccc;stroke-linejoin:miter;"/>
    </g>
    <g id="line2d_63">
     <path d="M 55.965625 20.298438 
L 75.965625 20.298438 
" style="fill:none;stroke:#0000ff;stroke-linecap:square;stroke-width:1.5;"/>
    </g>
    <g id="line2d_64"/>
    <g id="text_18">
     <!-- Weekly Resample- mean() -->
     <defs>
      <path d="M 3.328125 72.90625 
L 13.28125 72.90625 
L 28.609375 11.28125 
L 43.890625 72.90625 
L 54.984375 72.90625 
L 70.3125 11.28125 
L 85.59375 72.90625 
L 95.609375 72.90625 
L 77.296875 0 
L 64.890625 0 
L 49.515625 63.28125 
L 33.984375 0 
L 21.578125 0 
z
" id="DejaVuSans-87"/>
      <path d="M 9.078125 75.984375 
L 18.109375 75.984375 
L 18.109375 31.109375 
L 44.921875 54.6875 
L 56.390625 54.6875 
L 27.390625 29.109375 
L 57.625 0 
L 45.90625 0 
L 18.109375 26.703125 
L 18.109375 0 
L 9.078125 0 
z
" id="DejaVuSans-107"/>
      <path d="M 32.171875 -5.078125 
Q 28.375 -14.84375 24.75 -17.8125 
Q 21.140625 -20.796875 15.09375 -20.796875 
L 7.90625 -20.796875 
L 7.90625 -13.28125 
L 13.1875 -13.28125 
Q 16.890625 -13.28125 18.9375 -11.515625 
Q 21 -9.765625 23.484375 -3.21875 
L 25.09375 0.875 
L 2.984375 54.6875 
L 12.5 54.6875 
L 29.59375 11.921875 
L 46.6875 54.6875 
L 56.203125 54.6875 
z
" id="DejaVuSans-121"/>
      <path id="DejaVuSans-32"/>
      <path d="M 44.390625 34.1875 
Q 47.5625 33.109375 50.5625 29.59375 
Q 53.5625 26.078125 56.59375 19.921875 
L 66.609375 0 
L 56 0 
L 46.6875 18.703125 
Q 43.0625 26.03125 39.671875 28.421875 
Q 36.28125 30.8125 30.421875 30.8125 
L 19.671875 30.8125 
L 19.671875 0 
L 9.8125 0 
L 9.8125 72.90625 
L 32.078125 72.90625 
Q 44.578125 72.90625 50.734375 67.671875 
Q 56.890625 62.453125 56.890625 51.90625 
Q 56.890625 45.015625 53.6875 40.46875 
Q 50.484375 35.9375 44.390625 34.1875 
z
M 19.671875 64.796875 
L 19.671875 38.921875 
L 32.078125 38.921875 
Q 39.203125 38.921875 42.84375 42.21875 
Q 46.484375 45.515625 46.484375 51.90625 
Q 46.484375 58.296875 42.84375 61.546875 
Q 39.203125 64.796875 32.078125 64.796875 
z
" id="DejaVuSans-82"/>
      <path d="M 4.890625 31.390625 
L 31.203125 31.390625 
L 31.203125 23.390625 
L 4.890625 23.390625 
z
" id="DejaVuSans-45"/>
      <path d="M 31 75.875 
Q 24.46875 64.65625 21.28125 53.65625 
Q 18.109375 42.671875 18.109375 31.390625 
Q 18.109375 20.125 21.3125 9.0625 
Q 24.515625 -2 31 -13.1875 
L 23.1875 -13.1875 
Q 15.875 -1.703125 12.234375 9.375 
Q 8.59375 20.453125 8.59375 31.390625 
Q 8.59375 42.28125 12.203125 53.3125 
Q 15.828125 64.359375 23.1875 75.875 
z
" id="DejaVuSans-40"/>
      <path d="M 8.015625 75.875 
L 15.828125 75.875 
Q 23.140625 64.359375 26.78125 53.3125 
Q 30.421875 42.28125 30.421875 31.390625 
Q 30.421875 20.453125 26.78125 9.375 
Q 23.140625 -1.703125 15.828125 -13.1875 
L 8.015625 -13.1875 
Q 14.5 -2 17.703125 9.0625 
Q 20.90625 20.125 20.90625 31.390625 
Q 20.90625 42.671875 17.703125 53.65625 
Q 14.5 64.65625 8.015625 75.875 
z
" id="DejaVuSans-41"/>
     </defs>
     <g transform="translate(83.965625 23.798438)scale(0.1 -0.1)">
      <use xlink:href="#DejaVuSans-87"/>
      <use x="93.001953" xlink:href="#DejaVuSans-101"/>
      <use x="154.525391" xlink:href="#DejaVuSans-101"/>
      <use x="216.048828" xlink:href="#DejaVuSans-107"/>
      <use x="273.958984" xlink:href="#DejaVuSans-108"/>
      <use x="301.742188" xlink:href="#DejaVuSans-121"/>
      <use x="360.921875" xlink:href="#DejaVuSans-32"/>
      <use x="392.708984" xlink:href="#DejaVuSans-82"/>
      <use x="457.691406" xlink:href="#DejaVuSans-101"/>
      <use x="519.214844" xlink:href="#DejaVuSans-115"/>
      <use x="571.314453" xlink:href="#DejaVuSans-97"/>
      <use x="632.59375" xlink:href="#DejaVuSans-109"/>
      <use x="730.005859" xlink:href="#DejaVuSans-112"/>
      <use x="793.482422" xlink:href="#DejaVuSans-108"/>
      <use x="821.265625" xlink:href="#DejaVuSans-101"/>
      <use x="882.789062" xlink:href="#DejaVuSans-45"/>
      <use x="918.873047" xlink:href="#DejaVuSans-32"/>
      <use x="950.660156" xlink:href="#DejaVuSans-109"/>
      <use x="1048.072266" xlink:href="#DejaVuSans-101"/>
      <use x="1109.595703" xlink:href="#DejaVuSans-97"/>
      <use x="1170.875" xlink:href="#DejaVuSans-110"/>
      <use x="1234.253906" xlink:href="#DejaVuSans-40"/>
      <use x="1273.267578" xlink:href="#DejaVuSans-41"/>
     </g>
    </g>
    <g id="line2d_65">
     <path d="M 55.965625 34.976563 
L 75.965625 34.976563 
" style="fill:none;stroke:#ff0000;stroke-linecap:square;stroke-width:1.5;"/>
    </g>
    <g id="line2d_66"/>
    <g id="text_19">
     <!-- Monthly Resample- std() -->
     <defs>
      <path d="M 9.8125 72.90625 
L 24.515625 72.90625 
L 43.109375 23.296875 
L 61.8125 72.90625 
L 76.515625 72.90625 
L 76.515625 0 
L 66.890625 0 
L 66.890625 64.015625 
L 48.09375 14.015625 
L 38.1875 14.015625 
L 19.390625 64.015625 
L 19.390625 0 
L 9.8125 0 
z
" id="DejaVuSans-77"/>
      <path d="M 54.890625 33.015625 
L 54.890625 0 
L 45.90625 0 
L 45.90625 32.71875 
Q 45.90625 40.484375 42.875 44.328125 
Q 39.84375 48.1875 33.796875 48.1875 
Q 26.515625 48.1875 22.3125 43.546875 
Q 18.109375 38.921875 18.109375 30.90625 
L 18.109375 0 
L 9.078125 0 
L 9.078125 75.984375 
L 18.109375 75.984375 
L 18.109375 46.1875 
Q 21.34375 51.125 25.703125 53.5625 
Q 30.078125 56 35.796875 56 
Q 45.21875 56 50.046875 50.171875 
Q 54.890625 44.34375 54.890625 33.015625 
z
" id="DejaVuSans-104"/>
     </defs>
     <g transform="translate(83.965625 38.476563)scale(0.1 -0.1)">
      <use xlink:href="#DejaVuSans-77"/>
      <use x="86.279297" xlink:href="#DejaVuSans-111"/>
      <use x="147.460938" xlink:href="#DejaVuSans-110"/>
      <use x="210.839844" xlink:href="#DejaVuSans-116"/>
      <use x="250.048828" xlink:href="#DejaVuSans-104"/>
      <use x="313.427734" xlink:href="#DejaVuSans-108"/>
      <use x="341.210938" xlink:href="#DejaVuSans-121"/>
      <use x="400.390625" xlink:href="#DejaVuSans-32"/>
      <use x="432.177734" xlink:href="#DejaVuSans-82"/>
      <use x="497.160156" xlink:href="#DejaVuSans-101"/>
      <use x="558.683594" xlink:href="#DejaVuSans-115"/>
      <use x="610.783203" xlink:href="#DejaVuSans-97"/>
      <use x="672.0625" xlink:href="#DejaVuSans-109"/>
      <use x="769.474609" xlink:href="#DejaVuSans-112"/>
      <use x="832.951172" xlink:href="#DejaVuSans-108"/>
      <use x="860.734375" xlink:href="#DejaVuSans-101"/>
      <use x="922.257812" xlink:href="#DejaVuSans-45"/>
      <use x="958.341797" xlink:href="#DejaVuSans-32"/>
      <use x="990.128906" xlink:href="#DejaVuSans-115"/>
      <use x="1042.228516" xlink:href="#DejaVuSans-116"/>
      <use x="1081.4375" xlink:href="#DejaVuSans-100"/>
      <use x="1144.914062" xlink:href="#DejaVuSans-40"/>
      <use x="1183.927734" xlink:href="#DejaVuSans-41"/>
     </g>
    </g>
    <g id="line2d_67">
     <path d="M 235.195313 20.298438 
L 255.195313 20.298438 
" style="fill:none;stroke:#8b4513;stroke-linecap:square;stroke-width:1.5;"/>
    </g>
    <g id="line2d_68"/>
    <g id="text_20">
     <!-- Quarterly Resample -->
     <defs>
      <path d="M 39.40625 66.21875 
Q 28.65625 66.21875 22.328125 58.203125 
Q 16.015625 50.203125 16.015625 36.375 
Q 16.015625 22.609375 22.328125 14.59375 
Q 28.65625 6.59375 39.40625 6.59375 
Q 50.140625 6.59375 56.421875 14.59375 
Q 62.703125 22.609375 62.703125 36.375 
Q 62.703125 50.203125 56.421875 58.203125 
Q 50.140625 66.21875 39.40625 66.21875 
z
M 53.21875 1.3125 
L 66.21875 -12.890625 
L 54.296875 -12.890625 
L 43.5 -1.21875 
Q 41.890625 -1.3125 41.03125 -1.359375 
Q 40.1875 -1.421875 39.40625 -1.421875 
Q 24.03125 -1.421875 14.8125 8.859375 
Q 5.609375 19.140625 5.609375 36.375 
Q 5.609375 53.65625 14.8125 63.9375 
Q 24.03125 74.21875 39.40625 74.21875 
Q 54.734375 74.21875 63.90625 63.9375 
Q 73.09375 53.65625 73.09375 36.375 
Q 73.09375 23.6875 67.984375 14.640625 
Q 62.890625 5.609375 53.21875 1.3125 
z
" id="DejaVuSans-81"/>
      <path d="M 41.109375 46.296875 
Q 39.59375 47.171875 37.8125 47.578125 
Q 36.03125 48 33.890625 48 
Q 26.265625 48 22.1875 43.046875 
Q 18.109375 38.09375 18.109375 28.8125 
L 18.109375 0 
L 9.078125 0 
L 9.078125 54.6875 
L 18.109375 54.6875 
L 18.109375 46.1875 
Q 20.953125 51.171875 25.484375 53.578125 
Q 30.03125 56 36.53125 56 
Q 37.453125 56 38.578125 55.875 
Q 39.703125 55.765625 41.0625 55.515625 
z
" id="DejaVuSans-114"/>
     </defs>
     <g transform="translate(263.195313 23.798438)scale(0.1 -0.1)">
      <use xlink:href="#DejaVuSans-81"/>
      <use x="78.710938" xlink:href="#DejaVuSans-117"/>
      <use x="142.089844" xlink:href="#DejaVuSans-97"/>
      <use x="203.369141" xlink:href="#DejaVuSans-114"/>
      <use x="244.482422" xlink:href="#DejaVuSans-116"/>
      <use x="283.691406" xlink:href="#DejaVuSans-101"/>
      <use x="345.214844" xlink:href="#DejaVuSans-114"/>
      <use x="386.328125" xlink:href="#DejaVuSans-108"/>
      <use x="414.111328" xlink:href="#DejaVuSans-121"/>
      <use x="473.291016" xlink:href="#DejaVuSans-32"/>
      <use x="505.078125" xlink:href="#DejaVuSans-82"/>
      <use x="570.060547" xlink:href="#DejaVuSans-101"/>
      <use x="631.583984" xlink:href="#DejaVuSans-115"/>
      <use x="683.683594" xlink:href="#DejaVuSans-97"/>
      <use x="744.962891" xlink:href="#DejaVuSans-109"/>
      <use x="842.375" xlink:href="#DejaVuSans-112"/>
      <use x="905.851562" xlink:href="#DejaVuSans-108"/>
      <use x="933.634766" xlink:href="#DejaVuSans-101"/>
     </g>
    </g>
    <g id="line2d_69">
     <path d="M 235.195313 34.976563 
L 255.195313 34.976563 
" style="fill:none;stroke:#008000;stroke-linecap:square;stroke-width:1.5;"/>
    </g>
    <g id="line2d_70"/>
    <g id="text_21">
     <!-- Monthly Resample- mean() -->
     <g transform="translate(263.195313 38.476563)scale(0.1 -0.1)">
      <use xlink:href="#DejaVuSans-77"/>
      <use x="86.279297" xlink:href="#DejaVuSans-111"/>
      <use x="147.460938" xlink:href="#DejaVuSans-110"/>
      <use x="210.839844" xlink:href="#DejaVuSans-116"/>
      <use x="250.048828" xlink:href="#DejaVuSans-104"/>
      <use x="313.427734" xlink:href="#DejaVuSans-108"/>
      <use x="341.210938" xlink:href="#DejaVuSans-121"/>
      <use x="400.390625" xlink:href="#DejaVuSans-32"/>
      <use x="432.177734" xlink:href="#DejaVuSans-82"/>
      <use x="497.160156" xlink:href="#DejaVuSans-101"/>
      <use x="558.683594" xlink:href="#DejaVuSans-115"/>
      <use x="610.783203" xlink:href="#DejaVuSans-97"/>
      <use x="672.0625" xlink:href="#DejaVuSans-109"/>
      <use x="769.474609" xlink:href="#DejaVuSans-112"/>
      <use x="832.951172" xlink:href="#DejaVuSans-108"/>
      <use x="860.734375" xlink:href="#DejaVuSans-101"/>
      <use x="922.257812" xlink:href="#DejaVuSans-45"/>
      <use x="958.341797" xlink:href="#DejaVuSans-32"/>
      <use x="990.128906" xlink:href="#DejaVuSans-109"/>
      <use x="1087.541016" xlink:href="#DejaVuSans-101"/>
      <use x="1149.064453" xlink:href="#DejaVuSans-97"/>
      <use x="1210.34375" xlink:href="#DejaVuSans-110"/>
      <use x="1273.722656" xlink:href="#DejaVuSans-40"/>
      <use x="1312.736328" xlink:href="#DejaVuSans-41"/>
     </g>
    </g>
    <g id="line2d_71">
     <path d="M 418.370313 20.298438 
L 438.370313 20.298438 
" style="fill:none;stroke:#a52a2a;stroke-linecap:square;stroke-width:1.5;"/>
    </g>
    <g id="line2d_72"/>
    <g id="text_22">
     <!-- Monthly Resample- std() -->
     <g transform="translate(446.370313 23.798438)scale(0.1 -0.1)">
      <use xlink:href="#DejaVuSans-77"/>
      <use x="86.279297" xlink:href="#DejaVuSans-111"/>
      <use x="147.460938" xlink:href="#DejaVuSans-110"/>
      <use x="210.839844" xlink:href="#DejaVuSans-116"/>
      <use x="250.048828" xlink:href="#DejaVuSans-104"/>
      <use x="313.427734" xlink:href="#DejaVuSans-108"/>
      <use x="341.210938" xlink:href="#DejaVuSans-121"/>
      <use x="400.390625" xlink:href="#DejaVuSans-32"/>
      <use x="432.177734" xlink:href="#DejaVuSans-82"/>
      <use x="497.160156" xlink:href="#DejaVuSans-101"/>
      <use x="558.683594" xlink:href="#DejaVuSans-115"/>
      <use x="610.783203" xlink:href="#DejaVuSans-97"/>
      <use x="672.0625" xlink:href="#DejaVuSans-109"/>
      <use x="769.474609" xlink:href="#DejaVuSans-112"/>
      <use x="832.951172" xlink:href="#DejaVuSans-108"/>
      <use x="860.734375" xlink:href="#DejaVuSans-101"/>
      <use x="922.257812" xlink:href="#DejaVuSans-45"/>
      <use x="958.341797" xlink:href="#DejaVuSans-32"/>
      <use x="990.128906" xlink:href="#DejaVuSans-115"/>
      <use x="1042.228516" xlink:href="#DejaVuSans-116"/>
      <use x="1081.4375" xlink:href="#DejaVuSans-100"/>
      <use x="1144.914062" xlink:href="#DejaVuSans-40"/>
      <use x="1183.927734" xlink:href="#DejaVuSans-41"/>
     </g>
    </g>
    <g id="line2d_73">
     <path d="M 418.370313 34.976563 
L 438.370313 34.976563 
" style="fill:none;stroke:#708090;stroke-linecap:square;stroke-width:1.5;"/>
    </g>
    <g id="line2d_74"/>
    <g id="text_23">
     <!-- electricity_consumption -->
     <defs>
      <path d="M 48.78125 52.59375 
L 48.78125 44.1875 
Q 44.96875 46.296875 41.140625 47.34375 
Q 37.3125 48.390625 33.40625 48.390625 
Q 24.65625 48.390625 19.8125 42.84375 
Q 14.984375 37.3125 14.984375 27.296875 
Q 14.984375 17.28125 19.8125 11.734375 
Q 24.65625 6.203125 33.40625 6.203125 
Q 37.3125 6.203125 41.140625 7.25 
Q 44.96875 8.296875 48.78125 10.40625 
L 48.78125 2.09375 
Q 45.015625 0.34375 40.984375 -0.53125 
Q 36.96875 -1.421875 32.421875 -1.421875 
Q 20.0625 -1.421875 12.78125 6.34375 
Q 5.515625 14.109375 5.515625 27.296875 
Q 5.515625 40.671875 12.859375 48.328125 
Q 20.21875 56 33.015625 56 
Q 37.15625 56 41.109375 55.140625 
Q 45.0625 54.296875 48.78125 52.59375 
z
" id="DejaVuSans-99"/>
      <path d="M 50.984375 -16.609375 
L 50.984375 -23.578125 
L -0.984375 -23.578125 
L -0.984375 -16.609375 
z
" id="DejaVuSans-95"/>
     </defs>
     <g transform="translate(446.370313 38.476563)scale(0.1 -0.1)">
      <use xlink:href="#DejaVuSans-101"/>
      <use x="61.523438" xlink:href="#DejaVuSans-108"/>
      <use x="89.306641" xlink:href="#DejaVuSans-101"/>
      <use x="150.830078" xlink:href="#DejaVuSans-99"/>
      <use x="205.810547" xlink:href="#DejaVuSans-116"/>
      <use x="245.019531" xlink:href="#DejaVuSans-114"/>
      <use x="286.132812" xlink:href="#DejaVuSans-105"/>
      <use x="313.916016" xlink:href="#DejaVuSans-99"/>
      <use x="368.896484" xlink:href="#DejaVuSans-105"/>
      <use x="396.679688" xlink:href="#DejaVuSans-116"/>
      <use x="435.888672" xlink:href="#DejaVuSans-121"/>
      <use x="495.068359" xlink:href="#DejaVuSans-95"/>
      <use x="545.068359" xlink:href="#DejaVuSans-99"/>
      <use x="600.048828" xlink:href="#DejaVuSans-111"/>
      <use x="661.230469" xlink:href="#DejaVuSans-110"/>
      <use x="724.609375" xlink:href="#DejaVuSans-115"/>
      <use x="776.708984" xlink:href="#DejaVuSans-117"/>
      <use x="840.087891" xlink:href="#DejaVuSans-109"/>
      <use x="937.5" xlink:href="#DejaVuSans-112"/>
      <use x="1000.976562" xlink:href="#DejaVuSans-116"/>
      <use x="1040.185547" xlink:href="#DejaVuSans-105"/>
      <use x="1067.96875" xlink:href="#DejaVuSans-111"/>
      <use x="1129.150391" xlink:href="#DejaVuSans-110"/>
     </g>
    </g>
   </g>
  </g>
 </g>
 <defs>
  <clipPath id="p2f9334cd81">
   <rect height="271.8" width="781.2" x="46.965625" y="7.2"/>
  </clipPath>
 </defs>
</svg>
