<?xml version="1.0" encoding="utf-8" standalone="no"?>
<!DOCTYPE svg PUBLIC "-//W3C//DTD SVG 1.1//EN"
  "http://www.w3.org/Graphics/SVG/1.1/DTD/svg11.dtd">
<!-- Created with matplotlib (https://matplotlib.org/) -->
<svg height="440.394375pt" version="1.1" viewBox="0 0 826.882812 440.394375" width="826.882812pt" xmlns="http://www.w3.org/2000/svg" xmlns:xlink="http://www.w3.org/1999/xlink">
 <defs>
  <style type="text/css">
*{stroke-linecap:butt;stroke-linejoin:round;}
  </style>
 </defs>
 <g id="figure_1">
  <g id="patch_1">
   <path d="M 0 440.394375 
L 826.882812 440.394375 
L 826.882812 0 
L 0 0 
z
" style="fill:#ffffff;"/>
  </g>
  <g id="axes_1">
   <g id="patch_2">
    <path d="M 38.482813 195.281761 
L 819.682813 195.281761 
L 819.682813 22.318125 
L 38.482813 22.318125 
z
" style="fill:#ffffff;"/>
   </g>
   <g id="matplotlib.axis_1">
    <g id="xtick_1">
     <g id="line2d_1">
      <defs>
       <path d="M 0 0 
L 0 3.5 
" id="mfc84d17101" style="stroke:#000000;stroke-width:0.8;"/>
      </defs>
      <g>
       <use style="stroke:#000000;stroke-width:0.8;" x="73.991903" xlink:href="#mfc84d17101" y="195.281761"/>
      </g>
     </g>
    </g>
    <g id="xtick_2">
     <g id="line2d_2">
      <g>
       <use style="stroke:#000000;stroke-width:0.8;" x="210.56533" xlink:href="#mfc84d17101" y="195.281761"/>
      </g>
     </g>
    </g>
    <g id="xtick_3">
     <g id="line2d_3">
      <g>
       <use style="stroke:#000000;stroke-width:0.8;" x="347.138757" xlink:href="#mfc84d17101" y="195.281761"/>
      </g>
     </g>
    </g>
    <g id="xtick_4">
     <g id="line2d_4">
      <g>
       <use style="stroke:#000000;stroke-width:0.8;" x="483.712183" xlink:href="#mfc84d17101" y="195.281761"/>
      </g>
     </g>
    </g>
    <g id="xtick_5">
     <g id="line2d_5">
      <g>
       <use style="stroke:#000000;stroke-width:0.8;" x="620.28561" xlink:href="#mfc84d17101" y="195.281761"/>
      </g>
     </g>
    </g>
    <g id="xtick_6">
     <g id="line2d_6">
      <g>
       <use style="stroke:#000000;stroke-width:0.8;" x="756.859036" xlink:href="#mfc84d17101" y="195.281761"/>
      </g>
     </g>
    </g>
   </g>
   <g id="matplotlib.axis_2">
    <g id="ytick_1">
     <g id="line2d_7">
      <defs>
       <path d="M 0 0 
L -3.5 0 
" id="m7d559f2457" style="stroke:#000000;stroke-width:0.8;"/>
      </defs>
      <g>
       <use style="stroke:#000000;stroke-width:0.8;" x="38.482813" xlink:href="#m7d559f2457" y="187.419778"/>
      </g>
     </g>
     <g id="text_1">
      <!-- −1.0 -->
      <defs>
       <path d="M 10.59375 35.5 
L 73.1875 35.5 
L 73.1875 27.203125 
L 10.59375 27.203125 
z
" id="DejaVuSans-8722"/>
       <path d="M 12.40625 8.296875 
L 28.515625 8.296875 
L 28.515625 63.921875 
L 10.984375 60.40625 
L 10.984375 69.390625 
L 28.421875 72.90625 
L 38.28125 72.90625 
L 38.28125 8.296875 
L 54.390625 8.296875 
L 54.390625 0 
L 12.40625 0 
z
" id="DejaVuSans-49"/>
       <path d="M 10.6875 12.40625 
L 21 12.40625 
L 21 0 
L 10.6875 0 
z
" id="DejaVuSans-46"/>
       <path d="M 31.78125 66.40625 
Q 24.171875 66.40625 20.328125 58.90625 
Q 16.5 51.421875 16.5 36.375 
Q 16.5 21.390625 20.328125 13.890625 
Q 24.171875 6.390625 31.78125 6.390625 
Q 39.453125 6.390625 43.28125 13.890625 
Q 47.125 21.390625 47.125 36.375 
Q 47.125 51.421875 43.28125 58.90625 
Q 39.453125 66.40625 31.78125 66.40625 
z
M 31.78125 74.21875 
Q 44.046875 74.21875 50.515625 64.515625 
Q 56.984375 54.828125 56.984375 36.375 
Q 56.984375 17.96875 50.515625 8.265625 
Q 44.046875 -1.421875 31.78125 -1.421875 
Q 19.53125 -1.421875 13.0625 8.265625 
Q 6.59375 17.96875 6.59375 36.375 
Q 6.59375 54.828125 13.0625 64.515625 
Q 19.53125 74.21875 31.78125 74.21875 
z
" id="DejaVuSans-48"/>
      </defs>
      <g transform="translate(7.2 191.218997)scale(0.1 -0.1)">
       <use xlink:href="#DejaVuSans-8722"/>
       <use x="83.789062" xlink:href="#DejaVuSans-49"/>
       <use x="147.412109" xlink:href="#DejaVuSans-46"/>
       <use x="179.199219" xlink:href="#DejaVuSans-48"/>
      </g>
     </g>
    </g>
    <g id="ytick_2">
     <g id="line2d_8">
      <g>
       <use style="stroke:#000000;stroke-width:0.8;" x="38.482813" xlink:href="#m7d559f2457" y="148.109861"/>
      </g>
     </g>
     <g id="text_2">
      <!-- −0.5 -->
      <defs>
       <path d="M 10.796875 72.90625 
L 49.515625 72.90625 
L 49.515625 64.59375 
L 19.828125 64.59375 
L 19.828125 46.734375 
Q 21.96875 47.46875 24.109375 47.828125 
Q 26.265625 48.1875 28.421875 48.1875 
Q 40.625 48.1875 47.75 41.5 
Q 54.890625 34.8125 54.890625 23.390625 
Q 54.890625 11.625 47.5625 5.09375 
Q 40.234375 -1.421875 26.90625 -1.421875 
Q 22.3125 -1.421875 17.546875 -0.640625 
Q 12.796875 0.140625 7.71875 1.703125 
L 7.71875 11.625 
Q 12.109375 9.234375 16.796875 8.0625 
Q 21.484375 6.890625 26.703125 6.890625 
Q 35.15625 6.890625 40.078125 11.328125 
Q 45.015625 15.765625 45.015625 23.390625 
Q 45.015625 31 40.078125 35.4375 
Q 35.15625 39.890625 26.703125 39.890625 
Q 22.75 39.890625 18.8125 39.015625 
Q 14.890625 38.140625 10.796875 36.28125 
z
" id="DejaVuSans-53"/>
      </defs>
      <g transform="translate(7.2 151.909079)scale(0.1 -0.1)">
       <use xlink:href="#DejaVuSans-8722"/>
       <use x="83.789062" xlink:href="#DejaVuSans-48"/>
       <use x="147.412109" xlink:href="#DejaVuSans-46"/>
       <use x="179.199219" xlink:href="#DejaVuSans-53"/>
      </g>
     </g>
    </g>
    <g id="ytick_3">
     <g id="line2d_9">
      <g>
       <use style="stroke:#000000;stroke-width:0.8;" x="38.482813" xlink:href="#m7d559f2457" y="108.799943"/>
      </g>
     </g>
     <g id="text_3">
      <!-- 0.0 -->
      <g transform="translate(15.579688 112.599162)scale(0.1 -0.1)">
       <use xlink:href="#DejaVuSans-48"/>
       <use x="63.623047" xlink:href="#DejaVuSans-46"/>
       <use x="95.410156" xlink:href="#DejaVuSans-48"/>
      </g>
     </g>
    </g>
    <g id="ytick_4">
     <g id="line2d_10">
      <g>
       <use style="stroke:#000000;stroke-width:0.8;" x="38.482813" xlink:href="#m7d559f2457" y="69.490026"/>
      </g>
     </g>
     <g id="text_4">
      <!-- 0.5 -->
      <g transform="translate(15.579688 73.289245)scale(0.1 -0.1)">
       <use xlink:href="#DejaVuSans-48"/>
       <use x="63.623047" xlink:href="#DejaVuSans-46"/>
       <use x="95.410156" xlink:href="#DejaVuSans-53"/>
      </g>
     </g>
    </g>
    <g id="ytick_5">
     <g id="line2d_11">
      <g>
       <use style="stroke:#000000;stroke-width:0.8;" x="38.482813" xlink:href="#m7d559f2457" y="30.180108"/>
      </g>
     </g>
     <g id="text_5">
      <!-- 1.0 -->
      <g transform="translate(15.579688 33.979327)scale(0.1 -0.1)">
       <use xlink:href="#DejaVuSans-49"/>
       <use x="63.623047" xlink:href="#DejaVuSans-46"/>
       <use x="95.410156" xlink:href="#DejaVuSans-48"/>
      </g>
     </g>
    </g>
   </g>
   <g id="line2d_12">
    <path clip-path="url(#pbbdf1cf774)" d="M 73.991903 108.799943 
L 101.306589 88.451633 
L 128.621274 69.490026 
L 155.935959 53.207325 
L 183.250645 40.713169 
L 210.56533 32.859014 
L 237.880015 30.180108 
L 265.194701 32.859014 
L 292.509386 40.713169 
L 319.824071 53.207325 
L 347.138757 69.490026 
L 374.453442 88.451633 
L 401.768127 108.799943 
L 429.082812 129.148254 
L 456.397498 148.109861 
L 483.712183 164.392561 
L 511.026868 176.886717 
L 538.341554 184.740872 
L 565.656239 187.419778 
L 592.970924 184.740872 
L 620.28561 176.886717 
L 647.600295 164.392561 
L 674.91498 148.109861 
L 702.229666 129.148254 
L 729.544351 108.799943 
L 756.859036 88.451633 
" style="fill:none;stroke:#1f77b4;stroke-linecap:square;stroke-width:1.5;"/>
   </g>
   <g id="line2d_13">
    <path clip-path="url(#pbbdf1cf774)" d="M 73.991903 30.180108 
L 101.306589 32.859014 
L 128.621274 40.713169 
L 155.935959 53.207325 
L 183.250645 69.490026 
L 210.56533 88.451633 
L 237.880015 108.799943 
L 265.194701 129.148254 
L 292.509386 148.109861 
L 319.824071 164.392561 
L 347.138757 176.886717 
L 374.453442 184.740872 
L 401.768127 187.419778 
L 429.082812 184.740872 
L 456.397498 176.886717 
L 483.712183 164.392561 
L 511.026868 148.109861 
L 538.341554 129.148254 
L 565.656239 108.799943 
L 592.970924 88.451633 
L 620.28561 69.490026 
L 647.600295 53.207325 
L 674.91498 40.713169 
L 702.229666 32.859014 
L 729.544351 30.180108 
L 756.859036 32.859014 
" style="fill:none;stroke:#ff7f0e;stroke-linecap:square;stroke-width:1.5;"/>
   </g>
   <g id="patch_3">
    <path d="M 38.482813 195.281761 
L 38.482813 22.318125 
" style="fill:none;stroke:#000000;stroke-linecap:square;stroke-linejoin:miter;stroke-width:0.8;"/>
   </g>
   <g id="patch_4">
    <path d="M 819.682813 195.281761 
L 819.682813 22.318125 
" style="fill:none;stroke:#000000;stroke-linecap:square;stroke-linejoin:miter;stroke-width:0.8;"/>
   </g>
   <g id="patch_5">
    <path d="M 38.482813 195.281761 
L 819.682812 195.281761 
" style="fill:none;stroke:#000000;stroke-linecap:square;stroke-linejoin:miter;stroke-width:0.8;"/>
   </g>
   <g id="patch_6">
    <path d="M 38.482813 22.318125 
L 819.682812 22.318125 
" style="fill:none;stroke:#000000;stroke-linecap:square;stroke-linejoin:miter;stroke-width:0.8;"/>
   </g>
   <g id="text_6">
    <!-- Trigonometric encoding for the 'hour' feature -->
    <defs>
     <path d="M -0.296875 72.90625 
L 61.375 72.90625 
L 61.375 64.59375 
L 35.5 64.59375 
L 35.5 0 
L 25.59375 0 
L 25.59375 64.59375 
L -0.296875 64.59375 
z
" id="DejaVuSans-84"/>
     <path d="M 41.109375 46.296875 
Q 39.59375 47.171875 37.8125 47.578125 
Q 36.03125 48 33.890625 48 
Q 26.265625 48 22.1875 43.046875 
Q 18.109375 38.09375 18.109375 28.8125 
L 18.109375 0 
L 9.078125 0 
L 9.078125 54.6875 
L 18.109375 54.6875 
L 18.109375 46.1875 
Q 20.953125 51.171875 25.484375 53.578125 
Q 30.03125 56 36.53125 56 
Q 37.453125 56 38.578125 55.875 
Q 39.703125 55.765625 41.0625 55.515625 
z
" id="DejaVuSans-114"/>
     <path d="M 9.421875 54.6875 
L 18.40625 54.6875 
L 18.40625 0 
L 9.421875 0 
z
M 9.421875 75.984375 
L 18.40625 75.984375 
L 18.40625 64.59375 
L 9.421875 64.59375 
z
" id="DejaVuSans-105"/>
     <path d="M 45.40625 27.984375 
Q 45.40625 37.75 41.375 43.109375 
Q 37.359375 48.484375 30.078125 48.484375 
Q 22.859375 48.484375 18.828125 43.109375 
Q 14.796875 37.75 14.796875 27.984375 
Q 14.796875 18.265625 18.828125 12.890625 
Q 22.859375 7.515625 30.078125 7.515625 
Q 37.359375 7.515625 41.375 12.890625 
Q 45.40625 18.265625 45.40625 27.984375 
z
M 54.390625 6.78125 
Q 54.390625 -7.171875 48.1875 -13.984375 
Q 42 -20.796875 29.203125 -20.796875 
Q 24.46875 -20.796875 20.265625 -20.09375 
Q 16.0625 -19.390625 12.109375 -17.921875 
L 12.109375 -9.1875 
Q 16.0625 -11.328125 19.921875 -12.34375 
Q 23.78125 -13.375 27.78125 -13.375 
Q 36.625 -13.375 41.015625 -8.765625 
Q 45.40625 -4.15625 45.40625 5.171875 
L 45.40625 9.625 
Q 42.625 4.78125 38.28125 2.390625 
Q 33.9375 0 27.875 0 
Q 17.828125 0 11.671875 7.65625 
Q 5.515625 15.328125 5.515625 27.984375 
Q 5.515625 40.671875 11.671875 48.328125 
Q 17.828125 56 27.875 56 
Q 33.9375 56 38.28125 53.609375 
Q 42.625 51.21875 45.40625 46.390625 
L 45.40625 54.6875 
L 54.390625 54.6875 
z
" id="DejaVuSans-103"/>
     <path d="M 30.609375 48.390625 
Q 23.390625 48.390625 19.1875 42.75 
Q 14.984375 37.109375 14.984375 27.296875 
Q 14.984375 17.484375 19.15625 11.84375 
Q 23.34375 6.203125 30.609375 6.203125 
Q 37.796875 6.203125 41.984375 11.859375 
Q 46.1875 17.53125 46.1875 27.296875 
Q 46.1875 37.015625 41.984375 42.703125 
Q 37.796875 48.390625 30.609375 48.390625 
z
M 30.609375 56 
Q 42.328125 56 49.015625 48.375 
Q 55.71875 40.765625 55.71875 27.296875 
Q 55.71875 13.875 49.015625 6.21875 
Q 42.328125 -1.421875 30.609375 -1.421875 
Q 18.84375 -1.421875 12.171875 6.21875 
Q 5.515625 13.875 5.515625 27.296875 
Q 5.515625 40.765625 12.171875 48.375 
Q 18.84375 56 30.609375 56 
z
" id="DejaVuSans-111"/>
     <path d="M 54.890625 33.015625 
L 54.890625 0 
L 45.90625 0 
L 45.90625 32.71875 
Q 45.90625 40.484375 42.875 44.328125 
Q 39.84375 48.1875 33.796875 48.1875 
Q 26.515625 48.1875 22.3125 43.546875 
Q 18.109375 38.921875 18.109375 30.90625 
L 18.109375 0 
L 9.078125 0 
L 9.078125 54.6875 
L 18.109375 54.6875 
L 18.109375 46.1875 
Q 21.34375 51.125 25.703125 53.5625 
Q 30.078125 56 35.796875 56 
Q 45.21875 56 50.046875 50.171875 
Q 54.890625 44.34375 54.890625 33.015625 
z
" id="DejaVuSans-110"/>
     <path d="M 52 44.1875 
Q 55.375 50.25 60.0625 53.125 
Q 64.75 56 71.09375 56 
Q 79.640625 56 84.28125 50.015625 
Q 88.921875 44.046875 88.921875 33.015625 
L 88.921875 0 
L 79.890625 0 
L 79.890625 32.71875 
Q 79.890625 40.578125 77.09375 44.375 
Q 74.3125 48.1875 68.609375 48.1875 
Q 61.625 48.1875 57.5625 43.546875 
Q 53.515625 38.921875 53.515625 30.90625 
L 53.515625 0 
L 44.484375 0 
L 44.484375 32.71875 
Q 44.484375 40.625 41.703125 44.40625 
Q 38.921875 48.1875 33.109375 48.1875 
Q 26.21875 48.1875 22.15625 43.53125 
Q 18.109375 38.875 18.109375 30.90625 
L 18.109375 0 
L 9.078125 0 
L 9.078125 54.6875 
L 18.109375 54.6875 
L 18.109375 46.1875 
Q 21.1875 51.21875 25.484375 53.609375 
Q 29.78125 56 35.6875 56 
Q 41.65625 56 45.828125 52.96875 
Q 50 49.953125 52 44.1875 
z
" id="DejaVuSans-109"/>
     <path d="M 56.203125 29.59375 
L 56.203125 25.203125 
L 14.890625 25.203125 
Q 15.484375 15.921875 20.484375 11.0625 
Q 25.484375 6.203125 34.421875 6.203125 
Q 39.59375 6.203125 44.453125 7.46875 
Q 49.3125 8.734375 54.109375 11.28125 
L 54.109375 2.78125 
Q 49.265625 0.734375 44.1875 -0.34375 
Q 39.109375 -1.421875 33.890625 -1.421875 
Q 20.796875 -1.421875 13.15625 6.1875 
Q 5.515625 13.8125 5.515625 26.8125 
Q 5.515625 40.234375 12.765625 48.109375 
Q 20.015625 56 32.328125 56 
Q 43.359375 56 49.78125 48.890625 
Q 56.203125 41.796875 56.203125 29.59375 
z
M 47.21875 32.234375 
Q 47.125 39.59375 43.09375 43.984375 
Q 39.0625 48.390625 32.421875 48.390625 
Q 24.90625 48.390625 20.390625 44.140625 
Q 15.875 39.890625 15.1875 32.171875 
z
" id="DejaVuSans-101"/>
     <path d="M 18.3125 70.21875 
L 18.3125 54.6875 
L 36.8125 54.6875 
L 36.8125 47.703125 
L 18.3125 47.703125 
L 18.3125 18.015625 
Q 18.3125 11.328125 20.140625 9.421875 
Q 21.96875 7.515625 27.59375 7.515625 
L 36.8125 7.515625 
L 36.8125 0 
L 27.59375 0 
Q 17.1875 0 13.234375 3.875 
Q 9.28125 7.765625 9.28125 18.015625 
L 9.28125 47.703125 
L 2.6875 47.703125 
L 2.6875 54.6875 
L 9.28125 54.6875 
L 9.28125 70.21875 
z
" id="DejaVuSans-116"/>
     <path d="M 48.78125 52.59375 
L 48.78125 44.1875 
Q 44.96875 46.296875 41.140625 47.34375 
Q 37.3125 48.390625 33.40625 48.390625 
Q 24.65625 48.390625 19.8125 42.84375 
Q 14.984375 37.3125 14.984375 27.296875 
Q 14.984375 17.28125 19.8125 11.734375 
Q 24.65625 6.203125 33.40625 6.203125 
Q 37.3125 6.203125 41.140625 7.25 
Q 44.96875 8.296875 48.78125 10.40625 
L 48.78125 2.09375 
Q 45.015625 0.34375 40.984375 -0.53125 
Q 36.96875 -1.421875 32.421875 -1.421875 
Q 20.0625 -1.421875 12.78125 6.34375 
Q 5.515625 14.109375 5.515625 27.296875 
Q 5.515625 40.671875 12.859375 48.328125 
Q 20.21875 56 33.015625 56 
Q 37.15625 56 41.109375 55.140625 
Q 45.0625 54.296875 48.78125 52.59375 
z
" id="DejaVuSans-99"/>
     <path id="DejaVuSans-32"/>
     <path d="M 45.40625 46.390625 
L 45.40625 75.984375 
L 54.390625 75.984375 
L 54.390625 0 
L 45.40625 0 
L 45.40625 8.203125 
Q 42.578125 3.328125 38.25 0.953125 
Q 33.9375 -1.421875 27.875 -1.421875 
Q 17.96875 -1.421875 11.734375 6.484375 
Q 5.515625 14.40625 5.515625 27.296875 
Q 5.515625 40.1875 11.734375 48.09375 
Q 17.96875 56 27.875 56 
Q 33.9375 56 38.25 53.625 
Q 42.578125 51.265625 45.40625 46.390625 
z
M 14.796875 27.296875 
Q 14.796875 17.390625 18.875 11.75 
Q 22.953125 6.109375 30.078125 6.109375 
Q 37.203125 6.109375 41.296875 11.75 
Q 45.40625 17.390625 45.40625 27.296875 
Q 45.40625 37.203125 41.296875 42.84375 
Q 37.203125 48.484375 30.078125 48.484375 
Q 22.953125 48.484375 18.875 42.84375 
Q 14.796875 37.203125 14.796875 27.296875 
z
" id="DejaVuSans-100"/>
     <path d="M 37.109375 75.984375 
L 37.109375 68.5 
L 28.515625 68.5 
Q 23.6875 68.5 21.796875 66.546875 
Q 19.921875 64.59375 19.921875 59.515625 
L 19.921875 54.6875 
L 34.71875 54.6875 
L 34.71875 47.703125 
L 19.921875 47.703125 
L 19.921875 0 
L 10.890625 0 
L 10.890625 47.703125 
L 2.296875 47.703125 
L 2.296875 54.6875 
L 10.890625 54.6875 
L 10.890625 58.5 
Q 10.890625 67.625 15.140625 71.796875 
Q 19.390625 75.984375 28.609375 75.984375 
z
" id="DejaVuSans-102"/>
     <path d="M 54.890625 33.015625 
L 54.890625 0 
L 45.90625 0 
L 45.90625 32.71875 
Q 45.90625 40.484375 42.875 44.328125 
Q 39.84375 48.1875 33.796875 48.1875 
Q 26.515625 48.1875 22.3125 43.546875 
Q 18.109375 38.921875 18.109375 30.90625 
L 18.109375 0 
L 9.078125 0 
L 9.078125 75.984375 
L 18.109375 75.984375 
L 18.109375 46.1875 
Q 21.34375 51.125 25.703125 53.5625 
Q 30.078125 56 35.796875 56 
Q 45.21875 56 50.046875 50.171875 
Q 54.890625 44.34375 54.890625 33.015625 
z
" id="DejaVuSans-104"/>
     <path d="M 17.921875 72.90625 
L 17.921875 45.796875 
L 9.625 45.796875 
L 9.625 72.90625 
z
" id="DejaVuSans-39"/>
     <path d="M 8.5 21.578125 
L 8.5 54.6875 
L 17.484375 54.6875 
L 17.484375 21.921875 
Q 17.484375 14.15625 20.5 10.265625 
Q 23.53125 6.390625 29.59375 6.390625 
Q 36.859375 6.390625 41.078125 11.03125 
Q 45.3125 15.671875 45.3125 23.6875 
L 45.3125 54.6875 
L 54.296875 54.6875 
L 54.296875 0 
L 45.3125 0 
L 45.3125 8.40625 
Q 42.046875 3.421875 37.71875 1 
Q 33.40625 -1.421875 27.6875 -1.421875 
Q 18.265625 -1.421875 13.375 4.4375 
Q 8.5 10.296875 8.5 21.578125 
z
M 31.109375 56 
z
" id="DejaVuSans-117"/>
     <path d="M 34.28125 27.484375 
Q 23.390625 27.484375 19.1875 25 
Q 14.984375 22.515625 14.984375 16.5 
Q 14.984375 11.71875 18.140625 8.90625 
Q 21.296875 6.109375 26.703125 6.109375 
Q 34.1875 6.109375 38.703125 11.40625 
Q 43.21875 16.703125 43.21875 25.484375 
L 43.21875 27.484375 
z
M 52.203125 31.203125 
L 52.203125 0 
L 43.21875 0 
L 43.21875 8.296875 
Q 40.140625 3.328125 35.546875 0.953125 
Q 30.953125 -1.421875 24.3125 -1.421875 
Q 15.921875 -1.421875 10.953125 3.296875 
Q 6 8.015625 6 15.921875 
Q 6 25.140625 12.171875 29.828125 
Q 18.359375 34.515625 30.609375 34.515625 
L 43.21875 34.515625 
L 43.21875 35.40625 
Q 43.21875 41.609375 39.140625 45 
Q 35.0625 48.390625 27.6875 48.390625 
Q 23 48.390625 18.546875 47.265625 
Q 14.109375 46.140625 10.015625 43.890625 
L 10.015625 52.203125 
Q 14.9375 54.109375 19.578125 55.046875 
Q 24.21875 56 28.609375 56 
Q 40.484375 56 46.34375 49.84375 
Q 52.203125 43.703125 52.203125 31.203125 
z
" id="DejaVuSans-97"/>
    </defs>
    <g transform="translate(294.011563 16.318125)scale(0.12 -0.12)">
     <use xlink:href="#DejaVuSans-84"/>
     <use x="46.333984" xlink:href="#DejaVuSans-114"/>
     <use x="87.447266" xlink:href="#DejaVuSans-105"/>
     <use x="115.230469" xlink:href="#DejaVuSans-103"/>
     <use x="178.707031" xlink:href="#DejaVuSans-111"/>
     <use x="239.888672" xlink:href="#DejaVuSans-110"/>
     <use x="303.267578" xlink:href="#DejaVuSans-111"/>
     <use x="364.449219" xlink:href="#DejaVuSans-109"/>
     <use x="461.861328" xlink:href="#DejaVuSans-101"/>
     <use x="523.384766" xlink:href="#DejaVuSans-116"/>
     <use x="562.59375" xlink:href="#DejaVuSans-114"/>
     <use x="603.707031" xlink:href="#DejaVuSans-105"/>
     <use x="631.490234" xlink:href="#DejaVuSans-99"/>
     <use x="686.470703" xlink:href="#DejaVuSans-32"/>
     <use x="718.257812" xlink:href="#DejaVuSans-101"/>
     <use x="779.78125" xlink:href="#DejaVuSans-110"/>
     <use x="843.160156" xlink:href="#DejaVuSans-99"/>
     <use x="898.140625" xlink:href="#DejaVuSans-111"/>
     <use x="959.322266" xlink:href="#DejaVuSans-100"/>
     <use x="1022.798828" xlink:href="#DejaVuSans-105"/>
     <use x="1050.582031" xlink:href="#DejaVuSans-110"/>
     <use x="1113.960938" xlink:href="#DejaVuSans-103"/>
     <use x="1177.4375" xlink:href="#DejaVuSans-32"/>
     <use x="1209.224609" xlink:href="#DejaVuSans-102"/>
     <use x="1244.429688" xlink:href="#DejaVuSans-111"/>
     <use x="1305.611328" xlink:href="#DejaVuSans-114"/>
     <use x="1346.724609" xlink:href="#DejaVuSans-32"/>
     <use x="1378.511719" xlink:href="#DejaVuSans-116"/>
     <use x="1417.720703" xlink:href="#DejaVuSans-104"/>
     <use x="1481.099609" xlink:href="#DejaVuSans-101"/>
     <use x="1542.623047" xlink:href="#DejaVuSans-32"/>
     <use x="1574.410156" xlink:href="#DejaVuSans-39"/>
     <use x="1601.900391" xlink:href="#DejaVuSans-104"/>
     <use x="1665.279297" xlink:href="#DejaVuSans-111"/>
     <use x="1726.460938" xlink:href="#DejaVuSans-117"/>
     <use x="1789.839844" xlink:href="#DejaVuSans-114"/>
     <use x="1830.953125" xlink:href="#DejaVuSans-39"/>
     <use x="1858.443359" xlink:href="#DejaVuSans-32"/>
     <use x="1890.230469" xlink:href="#DejaVuSans-102"/>
     <use x="1925.435547" xlink:href="#DejaVuSans-101"/>
     <use x="1986.958984" xlink:href="#DejaVuSans-97"/>
     <use x="2048.238281" xlink:href="#DejaVuSans-116"/>
     <use x="2087.447266" xlink:href="#DejaVuSans-117"/>
     <use x="2150.826172" xlink:href="#DejaVuSans-114"/>
     <use x="2189.689453" xlink:href="#DejaVuSans-101"/>
    </g>
   </g>
   <g id="legend_1">
    <g id="patch_7">
     <path d="M 45.482813 190.281761 
L 122.214063 190.281761 
Q 124.214063 190.281761 124.214063 188.281761 
L 124.214063 159.369261 
Q 124.214063 157.369261 122.214063 157.369261 
L 45.482813 157.369261 
Q 43.482813 157.369261 43.482813 159.369261 
L 43.482813 188.281761 
Q 43.482813 190.281761 45.482813 190.281761 
z
" style="fill:#ffffff;opacity:0.8;stroke:#cccccc;stroke-linejoin:miter;"/>
    </g>
    <g id="line2d_14">
     <path d="M 47.482813 165.467699 
L 67.482813 165.467699 
" style="fill:none;stroke:#1f77b4;stroke-linecap:square;stroke-width:1.5;"/>
    </g>
    <g id="line2d_15"/>
    <g id="text_7">
     <!-- hour_sin -->
     <defs>
      <path d="M 50.984375 -16.609375 
L 50.984375 -23.578125 
L -0.984375 -23.578125 
L -0.984375 -16.609375 
z
" id="DejaVuSans-95"/>
      <path d="M 44.28125 53.078125 
L 44.28125 44.578125 
Q 40.484375 46.53125 36.375 47.5 
Q 32.28125 48.484375 27.875 48.484375 
Q 21.1875 48.484375 17.84375 46.4375 
Q 14.5 44.390625 14.5 40.28125 
Q 14.5 37.15625 16.890625 35.375 
Q 19.28125 33.59375 26.515625 31.984375 
L 29.59375 31.296875 
Q 39.15625 29.25 43.1875 25.515625 
Q 47.21875 21.78125 47.21875 15.09375 
Q 47.21875 7.46875 41.1875 3.015625 
Q 35.15625 -1.421875 24.609375 -1.421875 
Q 20.21875 -1.421875 15.453125 -0.5625 
Q 10.6875 0.296875 5.421875 2 
L 5.421875 11.28125 
Q 10.40625 8.6875 15.234375 7.390625 
Q 20.0625 6.109375 24.8125 6.109375 
Q 31.15625 6.109375 34.5625 8.28125 
Q 37.984375 10.453125 37.984375 14.40625 
Q 37.984375 18.0625 35.515625 20.015625 
Q 33.0625 21.96875 24.703125 23.78125 
L 21.578125 24.515625 
Q 13.234375 26.265625 9.515625 29.90625 
Q 5.8125 33.546875 5.8125 39.890625 
Q 5.8125 47.609375 11.28125 51.796875 
Q 16.75 56 26.8125 56 
Q 31.78125 56 36.171875 55.265625 
Q 40.578125 54.546875 44.28125 53.078125 
z
" id="DejaVuSans-115"/>
     </defs>
     <g transform="translate(75.482813 168.967699)scale(0.1 -0.1)">
      <use xlink:href="#DejaVuSans-104"/>
      <use x="63.378906" xlink:href="#DejaVuSans-111"/>
      <use x="124.560547" xlink:href="#DejaVuSans-117"/>
      <use x="187.939453" xlink:href="#DejaVuSans-114"/>
      <use x="229.052734" xlink:href="#DejaVuSans-95"/>
      <use x="279.052734" xlink:href="#DejaVuSans-115"/>
      <use x="331.152344" xlink:href="#DejaVuSans-105"/>
      <use x="358.935547" xlink:href="#DejaVuSans-110"/>
     </g>
    </g>
    <g id="line2d_16">
     <path d="M 47.482813 180.423949 
L 67.482813 180.423949 
" style="fill:none;stroke:#ff7f0e;stroke-linecap:square;stroke-width:1.5;"/>
    </g>
    <g id="line2d_17"/>
    <g id="text_8">
     <!-- hour_cos -->
     <g transform="translate(75.482813 183.923949)scale(0.1 -0.1)">
      <use xlink:href="#DejaVuSans-104"/>
      <use x="63.378906" xlink:href="#DejaVuSans-111"/>
      <use x="124.560547" xlink:href="#DejaVuSans-117"/>
      <use x="187.939453" xlink:href="#DejaVuSans-114"/>
      <use x="229.052734" xlink:href="#DejaVuSans-95"/>
      <use x="279.052734" xlink:href="#DejaVuSans-99"/>
      <use x="334.033203" xlink:href="#DejaVuSans-111"/>
      <use x="395.214844" xlink:href="#DejaVuSans-115"/>
     </g>
    </g>
   </g>
  </g>
  <g id="axes_2">
   <g id="patch_8">
    <path d="M 38.482813 402.838125 
L 819.682813 402.838125 
L 819.682813 229.874489 
L 38.482813 229.874489 
z
" style="fill:#ffffff;"/>
   </g>
   <g id="matplotlib.axis_3">
    <g id="xtick_7">
     <g id="line2d_18">
      <g>
       <use style="stroke:#000000;stroke-width:0.8;" x="73.991903" xlink:href="#mfc84d17101" y="402.838125"/>
      </g>
     </g>
     <g id="text_9">
      <!-- 0 -->
      <g transform="translate(70.810653 417.436562)scale(0.1 -0.1)">
       <use xlink:href="#DejaVuSans-48"/>
      </g>
     </g>
    </g>
    <g id="xtick_8">
     <g id="line2d_19">
      <g>
       <use style="stroke:#000000;stroke-width:0.8;" x="210.56533" xlink:href="#mfc84d17101" y="402.838125"/>
      </g>
     </g>
     <g id="text_10">
      <!-- 5 -->
      <g transform="translate(207.38408 417.436562)scale(0.1 -0.1)">
       <use xlink:href="#DejaVuSans-53"/>
      </g>
     </g>
    </g>
    <g id="xtick_9">
     <g id="line2d_20">
      <g>
       <use style="stroke:#000000;stroke-width:0.8;" x="347.138757" xlink:href="#mfc84d17101" y="402.838125"/>
      </g>
     </g>
     <g id="text_11">
      <!-- 10 -->
      <g transform="translate(340.776257 417.436562)scale(0.1 -0.1)">
       <use xlink:href="#DejaVuSans-49"/>
       <use x="63.623047" xlink:href="#DejaVuSans-48"/>
      </g>
     </g>
    </g>
    <g id="xtick_10">
     <g id="line2d_21">
      <g>
       <use style="stroke:#000000;stroke-width:0.8;" x="483.712183" xlink:href="#mfc84d17101" y="402.838125"/>
      </g>
     </g>
     <g id="text_12">
      <!-- 15 -->
      <g transform="translate(477.349683 417.436562)scale(0.1 -0.1)">
       <use xlink:href="#DejaVuSans-49"/>
       <use x="63.623047" xlink:href="#DejaVuSans-53"/>
      </g>
     </g>
    </g>
    <g id="xtick_11">
     <g id="line2d_22">
      <g>
       <use style="stroke:#000000;stroke-width:0.8;" x="620.28561" xlink:href="#mfc84d17101" y="402.838125"/>
      </g>
     </g>
     <g id="text_13">
      <!-- 20 -->
      <defs>
       <path d="M 19.1875 8.296875 
L 53.609375 8.296875 
L 53.609375 0 
L 7.328125 0 
L 7.328125 8.296875 
Q 12.9375 14.109375 22.625 23.890625 
Q 32.328125 33.6875 34.8125 36.53125 
Q 39.546875 41.84375 41.421875 45.53125 
Q 43.3125 49.21875 43.3125 52.78125 
Q 43.3125 58.59375 39.234375 62.25 
Q 35.15625 65.921875 28.609375 65.921875 
Q 23.96875 65.921875 18.8125 64.3125 
Q 13.671875 62.703125 7.8125 59.421875 
L 7.8125 69.390625 
Q 13.765625 71.78125 18.9375 73 
Q 24.125 74.21875 28.421875 74.21875 
Q 39.75 74.21875 46.484375 68.546875 
Q 53.21875 62.890625 53.21875 53.421875 
Q 53.21875 48.921875 51.53125 44.890625 
Q 49.859375 40.875 45.40625 35.40625 
Q 44.1875 33.984375 37.640625 27.21875 
Q 31.109375 20.453125 19.1875 8.296875 
z
" id="DejaVuSans-50"/>
      </defs>
      <g transform="translate(613.92311 417.436562)scale(0.1 -0.1)">
       <use xlink:href="#DejaVuSans-50"/>
       <use x="63.623047" xlink:href="#DejaVuSans-48"/>
      </g>
     </g>
    </g>
    <g id="xtick_12">
     <g id="line2d_23">
      <g>
       <use style="stroke:#000000;stroke-width:0.8;" x="756.859036" xlink:href="#mfc84d17101" y="402.838125"/>
      </g>
     </g>
     <g id="text_14">
      <!-- 25 -->
      <g transform="translate(750.496536 417.436562)scale(0.1 -0.1)">
       <use xlink:href="#DejaVuSans-50"/>
       <use x="63.623047" xlink:href="#DejaVuSans-53"/>
      </g>
     </g>
    </g>
    <g id="text_15">
     <!-- hour -->
     <g transform="translate(417.630469 431.114687)scale(0.1 -0.1)">
      <use xlink:href="#DejaVuSans-104"/>
      <use x="63.378906" xlink:href="#DejaVuSans-111"/>
      <use x="124.560547" xlink:href="#DejaVuSans-117"/>
      <use x="187.939453" xlink:href="#DejaVuSans-114"/>
     </g>
    </g>
   </g>
   <g id="matplotlib.axis_4">
    <g id="ytick_6">
     <g id="line2d_24">
      <g>
       <use style="stroke:#000000;stroke-width:0.8;" x="38.482813" xlink:href="#m7d559f2457" y="394.976142"/>
      </g>
     </g>
     <g id="text_16">
      <!-- 0.0 -->
      <g transform="translate(15.579688 398.77536)scale(0.1 -0.1)">
       <use xlink:href="#DejaVuSans-48"/>
       <use x="63.623047" xlink:href="#DejaVuSans-46"/>
       <use x="95.410156" xlink:href="#DejaVuSans-48"/>
      </g>
     </g>
    </g>
    <g id="ytick_7">
     <g id="line2d_25">
      <g>
       <use style="stroke:#000000;stroke-width:0.8;" x="38.482813" xlink:href="#m7d559f2457" y="371.390191"/>
      </g>
     </g>
     <g id="text_17">
      <!-- 0.1 -->
      <g transform="translate(15.579688 375.18941)scale(0.1 -0.1)">
       <use xlink:href="#DejaVuSans-48"/>
       <use x="63.623047" xlink:href="#DejaVuSans-46"/>
       <use x="95.410156" xlink:href="#DejaVuSans-49"/>
      </g>
     </g>
    </g>
    <g id="ytick_8">
     <g id="line2d_26">
      <g>
       <use style="stroke:#000000;stroke-width:0.8;" x="38.482813" xlink:href="#m7d559f2457" y="347.804241"/>
      </g>
     </g>
     <g id="text_18">
      <!-- 0.2 -->
      <g transform="translate(15.579688 351.603459)scale(0.1 -0.1)">
       <use xlink:href="#DejaVuSans-48"/>
       <use x="63.623047" xlink:href="#DejaVuSans-46"/>
       <use x="95.410156" xlink:href="#DejaVuSans-50"/>
      </g>
     </g>
    </g>
    <g id="ytick_9">
     <g id="line2d_27">
      <g>
       <use style="stroke:#000000;stroke-width:0.8;" x="38.482813" xlink:href="#m7d559f2457" y="324.21829"/>
      </g>
     </g>
     <g id="text_19">
      <!-- 0.3 -->
      <defs>
       <path d="M 40.578125 39.3125 
Q 47.65625 37.796875 51.625 33 
Q 55.609375 28.21875 55.609375 21.1875 
Q 55.609375 10.40625 48.1875 4.484375 
Q 40.765625 -1.421875 27.09375 -1.421875 
Q 22.515625 -1.421875 17.65625 -0.515625 
Q 12.796875 0.390625 7.625 2.203125 
L 7.625 11.71875 
Q 11.71875 9.328125 16.59375 8.109375 
Q 21.484375 6.890625 26.8125 6.890625 
Q 36.078125 6.890625 40.9375 10.546875 
Q 45.796875 14.203125 45.796875 21.1875 
Q 45.796875 27.640625 41.28125 31.265625 
Q 36.765625 34.90625 28.71875 34.90625 
L 20.21875 34.90625 
L 20.21875 43.015625 
L 29.109375 43.015625 
Q 36.375 43.015625 40.234375 45.921875 
Q 44.09375 48.828125 44.09375 54.296875 
Q 44.09375 59.90625 40.109375 62.90625 
Q 36.140625 65.921875 28.71875 65.921875 
Q 24.65625 65.921875 20.015625 65.03125 
Q 15.375 64.15625 9.8125 62.3125 
L 9.8125 71.09375 
Q 15.4375 72.65625 20.34375 73.4375 
Q 25.25 74.21875 29.59375 74.21875 
Q 40.828125 74.21875 47.359375 69.109375 
Q 53.90625 64.015625 53.90625 55.328125 
Q 53.90625 49.265625 50.4375 45.09375 
Q 46.96875 40.921875 40.578125 39.3125 
z
" id="DejaVuSans-51"/>
      </defs>
      <g transform="translate(15.579688 328.017509)scale(0.1 -0.1)">
       <use xlink:href="#DejaVuSans-48"/>
       <use x="63.623047" xlink:href="#DejaVuSans-46"/>
       <use x="95.410156" xlink:href="#DejaVuSans-51"/>
      </g>
     </g>
    </g>
    <g id="ytick_10">
     <g id="line2d_28">
      <g>
       <use style="stroke:#000000;stroke-width:0.8;" x="38.482813" xlink:href="#m7d559f2457" y="300.63234"/>
      </g>
     </g>
     <g id="text_20">
      <!-- 0.4 -->
      <defs>
       <path d="M 37.796875 64.3125 
L 12.890625 25.390625 
L 37.796875 25.390625 
z
M 35.203125 72.90625 
L 47.609375 72.90625 
L 47.609375 25.390625 
L 58.015625 25.390625 
L 58.015625 17.1875 
L 47.609375 17.1875 
L 47.609375 0 
L 37.796875 0 
L 37.796875 17.1875 
L 4.890625 17.1875 
L 4.890625 26.703125 
z
" id="DejaVuSans-52"/>
      </defs>
      <g transform="translate(15.579688 304.431559)scale(0.1 -0.1)">
       <use xlink:href="#DejaVuSans-48"/>
       <use x="63.623047" xlink:href="#DejaVuSans-46"/>
       <use x="95.410156" xlink:href="#DejaVuSans-52"/>
      </g>
     </g>
    </g>
    <g id="ytick_11">
     <g id="line2d_29">
      <g>
       <use style="stroke:#000000;stroke-width:0.8;" x="38.482813" xlink:href="#m7d559f2457" y="277.046389"/>
      </g>
     </g>
     <g id="text_21">
      <!-- 0.5 -->
      <g transform="translate(15.579688 280.845608)scale(0.1 -0.1)">
       <use xlink:href="#DejaVuSans-48"/>
       <use x="63.623047" xlink:href="#DejaVuSans-46"/>
       <use x="95.410156" xlink:href="#DejaVuSans-53"/>
      </g>
     </g>
    </g>
    <g id="ytick_12">
     <g id="line2d_30">
      <g>
       <use style="stroke:#000000;stroke-width:0.8;" x="38.482813" xlink:href="#m7d559f2457" y="253.460439"/>
      </g>
     </g>
     <g id="text_22">
      <!-- 0.6 -->
      <defs>
       <path d="M 33.015625 40.375 
Q 26.375 40.375 22.484375 35.828125 
Q 18.609375 31.296875 18.609375 23.390625 
Q 18.609375 15.53125 22.484375 10.953125 
Q 26.375 6.390625 33.015625 6.390625 
Q 39.65625 6.390625 43.53125 10.953125 
Q 47.40625 15.53125 47.40625 23.390625 
Q 47.40625 31.296875 43.53125 35.828125 
Q 39.65625 40.375 33.015625 40.375 
z
M 52.59375 71.296875 
L 52.59375 62.3125 
Q 48.875 64.0625 45.09375 64.984375 
Q 41.3125 65.921875 37.59375 65.921875 
Q 27.828125 65.921875 22.671875 59.328125 
Q 17.53125 52.734375 16.796875 39.40625 
Q 19.671875 43.65625 24.015625 45.921875 
Q 28.375 48.1875 33.59375 48.1875 
Q 44.578125 48.1875 50.953125 41.515625 
Q 57.328125 34.859375 57.328125 23.390625 
Q 57.328125 12.15625 50.6875 5.359375 
Q 44.046875 -1.421875 33.015625 -1.421875 
Q 20.359375 -1.421875 13.671875 8.265625 
Q 6.984375 17.96875 6.984375 36.375 
Q 6.984375 53.65625 15.1875 63.9375 
Q 23.390625 74.21875 37.203125 74.21875 
Q 40.921875 74.21875 44.703125 73.484375 
Q 48.484375 72.75 52.59375 71.296875 
z
" id="DejaVuSans-54"/>
      </defs>
      <g transform="translate(15.579688 257.259658)scale(0.1 -0.1)">
       <use xlink:href="#DejaVuSans-48"/>
       <use x="63.623047" xlink:href="#DejaVuSans-46"/>
       <use x="95.410156" xlink:href="#DejaVuSans-54"/>
      </g>
     </g>
    </g>
    <g id="ytick_13">
     <g id="line2d_31">
      <g>
       <use style="stroke:#000000;stroke-width:0.8;" x="38.482813" xlink:href="#m7d559f2457" y="229.874489"/>
      </g>
     </g>
     <g id="text_23">
      <!-- 0.7 -->
      <defs>
       <path d="M 8.203125 72.90625 
L 55.078125 72.90625 
L 55.078125 68.703125 
L 28.609375 0 
L 18.3125 0 
L 43.21875 64.59375 
L 8.203125 64.59375 
z
" id="DejaVuSans-55"/>
      </defs>
      <g transform="translate(15.579688 233.673707)scale(0.1 -0.1)">
       <use xlink:href="#DejaVuSans-48"/>
       <use x="63.623047" xlink:href="#DejaVuSans-46"/>
       <use x="95.410156" xlink:href="#DejaVuSans-55"/>
      </g>
     </g>
    </g>
   </g>
   <g id="line2d_32">
    <path clip-path="url(#p8eb5df7975)" d="M 73.991903 355.666224 
L 76.835474 361.490733 
L 79.679045 366.709464 
L 82.522616 371.355679 
L 85.366187 375.462644 
L 88.209758 379.063621 
L 90.342436 381.452309 
L 92.475114 383.589123 
L 94.607792 385.488095 
L 96.74047 387.163258 
L 99.584041 389.072918 
L 102.427612 390.642907 
L 105.271183 391.906488 
L 108.114754 392.896926 
L 110.958324 393.647483 
L 113.801895 394.191424 
L 117.356359 394.631468 
L 121.621715 394.893455 
L 127.308857 394.975596 
L 287.970609 394.976142 
L 573.038586 394.879134 
L 577.303943 394.595124 
L 580.858406 394.129031 
L 583.701977 393.559214 
L 586.545548 392.778303 
L 589.389119 391.753034 
L 592.23269 390.450142 
L 595.07626 388.836366 
L 597.208939 387.402005 
L 599.341617 385.760028 
L 601.474295 383.896402 
L 603.606973 381.797092 
L 605.739651 379.448068 
L 607.872329 376.835294 
L 610.005007 373.944739 
L 612.137686 370.76237 
L 614.270364 367.274153 
L 617.113935 362.123179 
L 619.957505 356.370266 
L 622.801076 349.9975 
L 625.644647 343.074002 
L 629.199111 333.79714 
L 633.464467 322.009193 
L 649.104107 277.949377 
L 652.65857 268.909997 
L 655.502141 262.2283 
L 658.345712 256.143424 
L 660.47839 252.031462 
L 662.611068 248.353445 
L 664.743746 245.151469 
L 666.876424 242.467636 
L 668.29821 240.98706 
L 669.719995 239.767954 
L 671.141781 238.822791 
L 672.563566 238.164045 
L 673.985351 237.804191 
L 675.407137 237.755529 
L 676.828922 238.020907 
L 678.250708 238.589015 
L 679.672493 239.447378 
L 681.094279 240.583523 
L 682.516064 241.984975 
L 683.937849 243.639261 
L 686.070527 246.567468 
L 688.203206 249.994387 
L 690.335884 253.877917 
L 692.468562 258.175962 
L 695.312133 264.478722 
L 698.155704 271.343763 
L 701.710167 280.563745 
L 705.975523 292.307185 
L 714.506236 316.726721 
L 720.193378 332.616206 
L 723.747841 341.966323 
L 726.591412 348.965697 
L 729.434983 355.429657 
L 732.278554 361.278128 
L 735.122125 366.519542 
L 737.965695 371.187163 
L 740.809266 375.314253 
L 743.652837 378.934076 
L 745.785515 381.336059 
L 747.918193 383.485448 
L 750.050871 385.396276 
L 752.18355 387.082575 
L 755.02712 389.005963 
L 757.870691 390.588401 
L 760.714262 391.863153 
L 763.557833 392.863481 
L 766.401404 393.622649 
L 769.244975 394.173921 
L 772.799438 394.621332 
L 777.064794 394.889518 
L 782.751936 394.975449 
L 784.173722 394.976142 
L 784.173722 394.976142 
" style="fill:none;stroke:#393b79;stroke-linecap:square;stroke-width:1.5;"/>
   </g>
   <g id="line2d_33">
    <path clip-path="url(#p8eb5df7975)" d="M 73.991903 237.736472 
L 75.413689 237.894154 
L 76.835474 238.358882 
L 78.25726 239.118184 
L 79.679045 240.159585 
L 81.100831 241.470611 
L 82.522616 243.03879 
L 83.944401 244.851646 
L 86.077079 248.002416 
L 88.209758 251.633547 
L 90.342436 255.702939 
L 93.186007 261.737771 
L 96.029577 268.377103 
L 99.584041 277.374319 
L 103.849397 288.937517 
L 109.536539 305.102901 
L 118.067251 329.331787 
L 122.332608 340.707878 
L 125.887071 349.483205 
L 128.730642 355.901847 
L 131.574213 361.702442 
L 134.417784 366.898538 
L 137.261355 371.523398 
L 140.104926 375.610287 
L 142.948496 379.192467 
L 145.081174 381.567897 
L 147.213853 383.692172 
L 149.346531 385.579325 
L 151.479209 387.24339 
L 154.32278 389.13937 
L 157.166351 390.696959 
L 160.009921 391.94942 
L 162.853492 392.930017 
L 165.697063 393.672012 
L 168.540634 394.20867 
L 172.095098 394.64141 
L 176.360454 394.897271 
L 182.047595 394.975722 
L 384.652018 394.976142 
L 627.777325 394.874758 
L 632.042681 394.58429 
L 635.597145 394.110616 
L 638.440716 393.533296 
L 641.284287 392.743601 
L 644.127858 391.708269 
L 646.971428 390.394036 
L 649.814999 388.767638 
L 651.947677 387.322972 
L 654.080355 385.669969 
L 656.213034 383.794598 
L 658.345712 381.682824 
L 660.47839 379.320615 
L 662.611068 376.693938 
L 664.743746 373.788759 
L 666.876424 370.591047 
L 669.009102 367.086767 
L 671.852673 361.913257 
L 674.696244 356.136527 
L 677.539815 349.740757 
L 680.383386 342.798069 
L 683.937849 333.502616 
L 688.203206 321.700276 
L 703.842845 277.66157 
L 707.397309 268.64318 
L 710.24088 261.982591 
L 713.084451 255.922663 
L 715.217129 251.831931 
L 717.349807 248.177302 
L 719.482485 245.000874 
L 721.615163 242.344747 
L 723.036948 240.883841 
L 724.458734 239.685364 
L 725.880519 238.761791 
L 727.302305 238.125594 
L 728.72409 237.789248 
L 730.145876 237.764911 
L 731.567661 238.054019 
L 732.989446 238.644897 
L 734.411232 239.525071 
L 735.833017 240.682066 
L 737.254803 242.10341 
L 738.676588 243.776629 
L 740.809266 246.731435 
L 742.941944 250.182793 
L 745.074622 254.088605 
L 747.207301 258.406772 
L 750.050871 264.733004 
L 752.894442 271.617678 
L 756.448906 280.856804 
L 760.714262 292.615302 
L 769.955867 319.064741 
L 774.932116 332.912143 
L 778.48658 342.244224 
L 781.330151 349.22485 
L 784.173722 355.666224 
L 784.173722 355.666224 
" style="fill:none;stroke:#5254a3;stroke-linecap:square;stroke-width:1.5;"/>
   </g>
   <g id="line2d_34">
    <path clip-path="url(#p8eb5df7975)" d="M 73.991903 355.666224 
L 76.835474 349.22485 
L 79.679045 342.244224 
L 83.233509 332.912143 
L 87.498865 321.081682 
L 102.427612 278.961003 
L 105.982075 269.849613 
L 108.825646 263.095194 
L 111.669217 256.924165 
L 113.801895 252.738772 
L 115.934573 248.979767 
L 118.067251 245.689248 
L 120.19993 242.909315 
L 121.621715 241.360474 
L 123.0435 240.069745 
L 124.465286 239.049601 
L 125.887071 238.312516 
L 127.308857 237.870964 
L 128.730642 237.737416 
L 130.152428 237.91916 
L 131.574213 238.406991 
L 132.995998 239.188435 
L 134.417784 240.251019 
L 135.839569 241.58227 
L 137.261355 243.169712 
L 139.394033 246.003951 
L 141.526711 249.344457 
L 143.659389 253.149132 
L 145.792067 257.375876 
L 148.635638 263.595324 
L 151.479209 270.390486 
L 155.033672 279.54201 
L 159.299029 291.231006 
L 166.407956 311.553848 
L 172.80599 329.632471 
L 177.071346 340.988634 
L 180.62581 349.740757 
L 183.469381 356.136527 
L 186.312952 361.913257 
L 189.156523 367.086767 
L 192.000093 371.690321 
L 194.843664 375.757182 
L 197.687235 379.320615 
L 199.819913 381.682824 
L 201.952591 383.794598 
L 204.08527 385.669969 
L 206.217948 387.322972 
L 209.061518 389.205322 
L 211.905089 390.75056 
L 214.74866 391.991949 
L 217.592231 392.962754 
L 220.435802 393.696237 
L 223.279373 394.225661 
L 226.833836 394.651159 
L 231.099193 394.900967 
L 236.786334 394.975826 
L 499.105745 394.976142 
L 682.516064 394.870253 
L 686.78142 394.573253 
L 690.335884 394.091936 
L 693.179455 393.507063 
L 696.023025 392.708536 
L 698.866596 391.663091 
L 701.710167 390.337467 
L 704.553738 388.698399 
L 706.686416 387.24339 
L 708.819094 385.579325 
L 710.951772 383.692172 
L 713.084451 381.567897 
L 715.217129 379.192467 
L 717.349807 376.551849 
L 719.482485 373.63201 
L 721.615163 370.418917 
L 723.747841 366.898538 
L 726.591412 361.702442 
L 729.434983 355.901847 
L 732.278554 349.483205 
L 735.122125 342.521474 
L 738.676588 333.207615 
L 742.941944 321.391104 
L 758.581584 277.374319 
L 762.136048 268.377103 
L 764.979618 261.737771 
L 767.823189 255.702939 
L 769.955867 251.633547 
L 772.088546 248.002416 
L 774.221224 244.851646 
L 776.353902 242.223336 
L 777.775687 240.782174 
L 779.197473 239.604401 
L 780.619258 238.702491 
L 782.041043 238.088916 
L 783.462829 237.776152 
L 784.173722 237.736472 
L 784.173722 237.736472 
" style="fill:none;stroke:#9c9ede;stroke-linecap:square;stroke-width:1.5;"/>
   </g>
   <g id="line2d_35">
    <path clip-path="url(#p8eb5df7975)" d="M 73.991903 394.976142 
L 81.100831 394.889518 
L 85.366187 394.621332 
L 88.92065 394.173921 
L 91.764221 393.622649 
L 94.607792 392.863481 
L 97.451363 391.863153 
L 100.294934 390.588401 
L 103.138505 389.005963 
L 105.271183 387.597205 
L 107.403861 385.98263 
L 109.536539 384.148204 
L 111.669217 382.079895 
L 113.801895 379.763669 
L 115.934573 377.185494 
L 118.067251 374.331336 
L 120.19993 371.187163 
L 122.332608 367.738941 
L 125.176179 362.644094 
L 128.019749 356.950504 
L 130.86332 350.63578 
L 133.706891 343.760904 
L 137.261355 334.531327 
L 141.526711 322.78033 
L 150.057423 298.358636 
L 155.744565 282.477307 
L 159.299029 273.136185 
L 162.1426 266.146167 
L 164.98617 259.693481 
L 167.829741 253.877917 
L 169.962419 249.994387 
L 172.095098 246.567468 
L 174.227776 243.639261 
L 175.649561 241.984975 
L 177.071346 240.583523 
L 178.493132 239.447378 
L 179.914917 238.589015 
L 181.336703 238.020907 
L 182.758488 237.755529 
L 184.180274 237.804191 
L 185.602059 238.164045 
L 187.023844 238.822791 
L 188.44563 239.767954 
L 189.867415 240.98706 
L 191.289201 242.467636 
L 192.710986 244.197208 
L 194.843664 247.231147 
L 196.976342 250.755162 
L 199.109021 254.727153 
L 201.241699 259.105022 
L 204.08527 265.500783 
L 206.92884 272.44347 
L 210.483304 281.738923 
L 214.74866 293.541263 
L 230.3883 337.579969 
L 233.942763 346.59836 
L 236.786334 353.258948 
L 239.629905 359.324044 
L 242.473476 364.771829 
L 245.317047 369.634307 
L 248.160618 373.944739 
L 251.004188 377.73639 
L 253.136867 380.259688 
L 255.269545 382.523915 
L 257.402223 384.543104 
L 259.534901 386.331289 
L 262.378472 388.380448 
L 265.222043 390.077143 
L 268.065613 391.454637 
L 270.909184 392.546194 
L 273.752755 393.385076 
L 276.596326 394.004548 
L 280.15079 394.521016 
L 283.705253 394.811597 
L 288.681502 394.962618 
L 302.899356 394.976142 
L 737.254803 394.865616 
L 741.520159 394.56201 
L 745.074622 394.07299 
L 747.918193 393.480514 
L 750.761764 392.673105 
L 753.605335 391.6175 
L 756.448906 390.280435 
L 759.292477 388.628647 
L 761.425155 387.163258 
L 763.557833 385.488095 
L 765.690511 383.589123 
L 767.823189 381.452309 
L 769.955867 379.063621 
L 772.088546 376.409025 
L 774.221224 373.474489 
L 776.353902 370.24598 
L 778.48658 366.709464 
L 781.330151 361.490733 
L 784.173722 355.666224 
L 784.173722 355.666224 
" style="fill:none;stroke:#8ca252;stroke-linecap:square;stroke-width:1.5;"/>
   </g>
   <g id="line2d_36">
    <path clip-path="url(#p8eb5df7975)" d="M 73.991903 394.976142 
L 135.839569 394.885458 
L 140.104926 394.610998 
L 143.659389 394.156161 
L 146.50296 393.597508 
L 149.346531 392.829679 
L 152.190102 391.819411 
L 155.033672 390.533441 
L 157.877243 388.938504 
L 160.009921 387.519533 
L 162.1426 385.894025 
L 164.275278 384.047946 
L 166.407956 381.967265 
L 168.540634 379.637947 
L 170.673312 377.04596 
L 172.80599 374.177271 
L 174.938668 371.017847 
L 177.071346 367.553655 
L 179.914917 362.436394 
L 182.758488 356.719112 
L 185.602059 350.381084 
L 188.44563 343.486649 
L 192.000093 334.23802 
L 196.26545 322.472077 
L 212.615982 276.515962 
L 216.170446 267.583375 
L 219.014016 261.0087 
L 221.857587 255.050039 
L 223.990265 251.045331 
L 226.122944 247.485362 
L 228.255622 244.412231 
L 229.677407 242.654731 
L 231.099193 241.144788 
L 232.520978 239.894876 
L 233.942763 238.917467 
L 235.364549 238.225037 
L 236.786334 237.830059 
L 238.20812 237.744955 
L 239.629905 237.9746 
L 241.05169 238.508414 
L 242.473476 239.333923 
L 243.895261 240.438652 
L 245.317047 241.810129 
L 246.738832 243.435879 
L 248.87151 246.323979 
L 251.004188 249.71403 
L 253.136867 253.563931 
L 255.269545 257.831585 
L 258.113116 264.098861 
L 260.956686 270.934175 
L 264.51115 280.125095 
L 268.776506 291.845534 
L 276.596326 314.222683 
L 282.283468 330.232625 
L 286.548824 341.548266 
L 290.103288 350.253428 
L 292.946858 356.603064 
L 295.790429 362.332211 
L 298.634 367.460698 
L 301.477571 372.021787 
L 304.321142 376.048742 
L 306.45382 378.738443 
L 308.586498 381.160438 
L 310.719176 383.328759 
L 312.851854 385.257439 
L 314.984532 386.960512 
L 317.828103 388.904585 
L 320.671674 390.505789 
L 323.515245 391.797388 
L 326.358816 392.812644 
L 329.202387 393.584821 
L 332.045957 394.147183 
L 335.600421 394.605757 
L 339.865777 394.883382 
L 345.552919 394.97518 
L 445.077898 394.976142 
L 784.173722 394.976142 
L 784.173722 394.976142 
" style="fill:none;stroke:#cedb9c;stroke-linecap:square;stroke-width:1.5;"/>
   </g>
   <g id="line2d_37">
    <path clip-path="url(#p8eb5df7975)" d="M 73.991903 394.976142 
L 190.578308 394.881273 
L 194.843664 394.600466 
L 198.398128 394.13814 
L 201.241699 393.572057 
L 204.08527 392.795519 
L 206.92884 391.775262 
L 209.772411 390.478023 
L 212.615982 388.870539 
L 214.74866 387.441317 
L 216.881338 385.804839 
L 219.014016 383.947071 
L 221.146695 381.85398 
L 223.279373 379.511534 
L 225.412051 376.905698 
L 227.544729 374.022441 
L 229.677407 370.84773 
L 231.810085 367.36753 
L 234.653656 362.227806 
L 237.497227 356.486782 
L 240.340798 350.125566 
L 243.184369 343.211719 
L 246.738832 333.944222 
L 251.004188 322.163554 
L 266.643828 278.093488 
L 270.198292 269.043682 
L 273.041862 262.351485 
L 275.885433 256.254191 
L 278.018111 252.131656 
L 280.15079 248.441986 
L 282.283468 245.227279 
L 284.416146 242.529634 
L 285.837931 241.03925 
L 287.259717 239.809857 
L 288.681502 238.853927 
L 290.103288 238.183935 
L 291.525073 237.812354 
L 292.946858 237.751537 
L 294.368644 238.005023 
L 295.790429 238.561718 
L 297.212215 239.409148 
L 298.634 240.534839 
L 300.055785 241.926318 
L 301.477571 243.571111 
L 303.610249 246.485976 
L 305.742927 249.900633 
L 307.875605 253.772982 
L 310.008283 258.060924 
L 312.851854 264.351893 
L 315.695425 271.207062 
L 319.249889 280.417403 
L 323.515245 292.153231 
L 331.335065 314.536165 
L 337.022206 330.532083 
L 341.287563 341.827131 
L 344.131134 348.835823 
L 346.974704 355.31102 
L 349.818275 361.171489 
L 352.661846 366.424264 
L 355.505417 371.102605 
L 358.348988 375.239776 
L 361.192559 378.869041 
L 363.325237 381.277685 
L 365.457915 383.433375 
L 367.590593 385.350145 
L 369.723271 387.042026 
L 372.566842 388.972297 
L 375.410413 390.560978 
L 378.253984 391.841333 
L 381.097555 392.846625 
L 383.941125 393.610117 
L 386.784696 394.165073 
L 390.33916 394.61619 
L 394.604516 394.887504 
L 400.291658 394.975365 
L 519.01074 394.976142 
L 784.173722 394.976142 
L 784.173722 394.976142 
" style="fill:none;stroke:#bd9e39;stroke-linecap:square;stroke-width:1.5;"/>
   </g>
   <g id="line2d_38">
    <path clip-path="url(#p8eb5df7975)" d="M 73.991903 394.976142 
L 245.317047 394.876962 
L 249.582403 394.589733 
L 253.136867 394.119857 
L 255.980437 393.546294 
L 258.824008 392.760997 
L 261.667579 391.730703 
L 264.51115 390.422147 
L 267.354721 388.802066 
L 269.487399 387.362557 
L 271.620077 385.715072 
L 273.752755 383.845577 
L 275.885433 381.74004 
L 278.018111 379.384428 
L 280.15079 376.764707 
L 282.283468 373.866845 
L 284.416146 370.676809 
L 286.548824 367.180565 
L 289.392395 362.018329 
L 292.235966 356.253514 
L 295.079536 349.86923 
L 297.923107 342.936118 
L 301.477571 333.649938 
L 305.742927 321.854767 
L 321.382567 277.805405 
L 324.93703 268.776496 
L 327.780601 262.105335 
L 330.624172 256.032915 
L 332.75685 251.931554 
L 334.889528 248.265216 
L 337.022206 245.076001 
L 339.154885 242.406007 
L 340.57667 240.935257 
L 341.998455 239.726456 
L 343.420241 238.792079 
L 344.842026 238.144598 
L 346.263812 237.796489 
L 347.685597 237.759987 
L 349.107383 238.03724 
L 350.529168 238.616742 
L 351.950953 239.486019 
L 353.372739 240.632599 
L 354.794524 242.044006 
L 356.21631 243.707768 
L 358.348988 246.649288 
L 360.481666 250.08844 
L 362.614344 253.983126 
L 364.747022 258.291245 
L 367.590593 264.60576 
L 370.434164 271.480635 
L 373.988627 280.710213 
L 378.253984 292.461209 
L 386.784696 316.882903 
L 392.471838 332.764232 
L 396.026301 342.105354 
L 398.869872 349.095372 
L 401.713443 355.548058 
L 404.557014 361.384542 
L 407.400585 366.614609 
L 410.244156 371.271521 
L 413.087727 375.388542 
L 415.931297 378.998936 
L 418.063975 381.394267 
L 420.196654 383.537363 
L 422.329332 385.442259 
L 424.46201 387.122986 
L 427.305581 389.039504 
L 430.149152 390.615711 
L 432.992722 391.884871 
L 435.836293 392.880248 
L 438.679864 393.635105 
L 441.523435 394.182705 
L 445.077898 394.626425 
L 449.343255 394.891502 
L 455.030396 394.975525 
L 599.341617 394.976142 
L 784.173722 394.976142 
L 784.173722 394.976142 
" style="fill:none;stroke:#e7ba52;stroke-linecap:square;stroke-width:1.5;"/>
   </g>
   <g id="line2d_39">
    <path clip-path="url(#p8eb5df7975)" d="M 73.991903 394.976142 
L 300.055785 394.872522 
L 304.321142 394.578797 
L 307.875605 394.10131 
L 310.719176 393.520219 
L 313.562747 392.726114 
L 316.406318 391.685732 
L 319.249889 390.365809 
L 322.09346 388.733082 
L 324.226138 387.283249 
L 326.358816 385.62472 
L 328.491494 383.743463 
L 330.624172 381.625443 
L 332.75685 379.256628 
L 334.889528 376.622985 
L 337.022206 373.710481 
L 339.154885 370.505083 
L 341.287563 366.992758 
L 344.131134 361.807961 
L 346.974704 356.019305 
L 349.818275 349.612082 
L 352.661846 342.659854 
L 356.21631 333.355175 
L 360.481666 321.545722 
L 376.121306 277.517875 
L 379.675769 268.510048 
L 382.51934 261.86007 
L 385.362911 255.812671 
L 387.495589 251.732595 
L 389.628267 248.089701 
L 391.760945 244.926089 
L 393.893623 242.283856 
L 395.315409 240.832813 
L 396.737194 239.644679 
L 398.15898 238.731928 
L 399.580765 238.107033 
L 401.00255 237.782469 
L 402.424336 237.7703 
L 403.846121 238.071245 
L 405.267907 238.67348 
L 406.689692 239.564532 
L 408.111478 240.731925 
L 409.533263 242.163187 
L 410.955048 243.845844 
L 413.087727 246.813908 
L 415.220405 250.277445 
L 417.353083 254.194356 
L 419.485761 258.522543 
L 422.329332 264.860455 
L 425.172903 271.75489 
L 428.727366 281.003519 
L 432.992722 292.769462 
L 449.343255 338.725578 
L 452.897718 347.658165 
L 455.741289 354.232839 
L 458.58486 360.201594 
L 461.428431 365.557167 
L 464.272002 370.33255 
L 467.115573 374.561004 
L 469.959143 378.275795 
L 472.091822 380.744806 
L 474.2245 382.957625 
L 476.357178 384.928285 
L 478.489856 386.670818 
L 481.333427 388.663587 
L 484.176998 390.309009 
L 487.020568 391.640348 
L 489.864139 392.690866 
L 492.70771 393.493828 
L 495.551281 394.082497 
L 499.105745 394.567657 
L 502.660208 394.834927 
L 507.636457 394.966745 
L 525.408775 394.976142 
L 784.173722 394.976142 
L 784.173722 394.976142 
" style="fill:none;stroke:#843c39;stroke-linecap:square;stroke-width:1.5;"/>
   </g>
   <g id="line2d_40">
    <path clip-path="url(#p8eb5df7975)" d="M 73.991903 394.976142 
L 354.794524 394.867951 
L 359.05988 394.567657 
L 362.614344 394.082497 
L 365.457915 393.493828 
L 368.301486 392.690866 
L 371.145057 391.640348 
L 373.988627 390.309009 
L 376.832198 388.663587 
L 378.964876 387.203393 
L 381.097555 385.533783 
L 383.230233 383.640725 
L 385.362911 381.510185 
L 387.495589 379.128131 
L 389.628267 376.480529 
L 391.760945 373.553346 
L 393.893623 370.33255 
L 396.026301 366.804106 
L 398.869872 361.596699 
L 401.713443 355.784154 
L 404.557014 349.354127 
L 407.400585 342.38293 
L 410.955048 333.059938 
L 415.220405 321.236424 
L 430.149152 279.106057 
L 433.703615 269.984564 
L 436.547186 263.219905 
L 439.390757 257.036715 
L 441.523435 252.840943 
L 443.656113 249.070479 
L 445.788791 245.767422 
L 447.921469 242.973871 
L 449.343255 241.415352 
L 450.76504 240.114465 
L 452.186826 239.083683 
L 453.608611 238.335481 
L 455.030396 237.882331 
L 456.452182 237.736708 
L 457.873967 237.90643 
L 459.295753 238.382719 
L 460.717538 239.153101 
L 462.139324 240.205103 
L 463.561109 241.526251 
L 464.982894 243.10407 
L 467.115573 245.924774 
L 469.248251 249.252825 
L 471.380929 253.046124 
L 473.513607 257.262572 
L 476.357178 263.469971 
L 479.200749 270.255002 
L 482.755212 279.396562 
L 487.020568 291.077559 
L 494.129496 311.396664 
L 500.52753 329.482179 
L 504.792886 340.848333 
L 508.34735 349.612082 
L 511.190921 356.019305 
L 514.034491 361.807961 
L 516.878062 366.992758 
L 519.721633 371.606959 
L 522.565204 375.683828 
L 525.408775 379.256628 
L 527.541453 381.625443 
L 529.674131 383.743463 
L 531.806809 385.62472 
L 533.939487 387.283249 
L 536.783058 389.172408 
L 539.626629 390.723816 
L 542.4702 391.970735 
L 545.313771 392.946429 
L 548.157342 393.684162 
L 551.000912 394.217197 
L 554.555376 394.646309 
L 558.820732 394.899134 
L 564.507874 394.975776 
L 784.173722 394.976142 
L 784.173722 394.976142 
" style="fill:none;stroke:#d6616b;stroke-linecap:square;stroke-width:1.5;"/>
   </g>
   <g id="line2d_41">
    <path clip-path="url(#p8eb5df7975)" d="M 73.991903 394.976142 
L 408.82237 394.891502 
L 413.087727 394.626425 
L 416.64219 394.182705 
L 419.485761 393.635105 
L 422.329332 392.880248 
L 425.172903 391.884871 
L 428.016473 390.615711 
L 430.860044 389.039504 
L 432.992722 387.635838 
L 435.125401 386.026716 
L 437.258079 384.198102 
L 439.390757 382.135965 
L 441.523435 379.826272 
L 443.656113 377.254989 
L 445.788791 374.408083 
L 447.921469 371.271521 
L 450.054147 367.831271 
L 452.897718 362.747611 
L 455.741289 357.06585 
L 458.58486 350.762817 
L 461.428431 343.897776 
L 464.982894 334.677794 
L 469.248251 322.934354 
L 477.778963 298.514818 
L 483.466105 282.625334 
L 487.020568 273.275216 
L 489.864139 266.275843 
L 492.70771 259.811882 
L 495.551281 253.983126 
L 497.683959 250.08844 
L 499.816637 246.649288 
L 501.949315 243.707768 
L 503.371101 242.044006 
L 504.792886 240.632599 
L 506.214672 239.486019 
L 507.636457 238.616742 
L 509.058242 238.03724 
L 510.480028 237.759987 
L 511.901813 237.796489 
L 513.323599 238.144598 
L 514.745384 238.792079 
L 516.16717 239.726456 
L 517.588955 240.935257 
L 519.01074 242.406007 
L 520.432526 244.126233 
L 522.565204 247.147052 
L 524.697882 250.659026 
L 526.83056 254.620057 
L 528.963238 258.988045 
L 531.806809 265.37231 
L 534.65038 272.305421 
L 538.204844 281.591601 
L 542.4702 293.386772 
L 558.10984 337.436135 
L 561.664303 346.465043 
L 564.507874 353.136205 
L 567.351445 359.213323 
L 570.195016 364.672691 
L 573.038586 369.54611 
L 575.882157 373.866845 
L 578.725728 377.668159 
L 580.858406 380.198285 
L 582.991084 382.468979 
L 585.123763 384.494276 
L 587.256441 386.288208 
L 590.100012 388.344472 
L 592.943582 390.047631 
L 595.787153 391.43095 
L 598.630724 392.527692 
L 601.474295 393.37112 
L 604.317866 393.994497 
L 607.872329 394.514948 
L 611.426793 394.808512 
L 616.403042 394.96203 
L 629.910003 394.976142 
L 784.173722 394.976142 
L 784.173722 394.976142 
" style="fill:none;stroke:#7b4173;stroke-linecap:square;stroke-width:1.5;"/>
   </g>
   <g id="line2d_42">
    <path clip-path="url(#p8eb5df7975)" d="M 73.991903 394.976142 
L 463.561109 394.887504 
L 467.826465 394.61619 
L 471.380929 394.165073 
L 474.2245 393.610117 
L 477.06807 392.846625 
L 479.911641 391.841333 
L 482.755212 390.560978 
L 485.598783 388.972297 
L 487.731461 387.558437 
L 489.864139 385.9384 
L 491.996817 384.098152 
L 494.129496 382.023661 
L 496.262174 379.700894 
L 498.394852 377.115818 
L 500.52753 374.254399 
L 502.660208 371.102605 
L 504.792886 367.646403 
L 507.636457 362.540355 
L 510.480028 356.834925 
L 513.323599 350.508535 
L 516.16717 343.623862 
L 519.721633 334.384735 
L 523.986989 322.626238 
L 533.228595 296.176798 
L 538.204844 282.329396 
L 541.759307 272.997316 
L 544.602878 266.01669 
L 547.446449 259.575315 
L 550.29002 253.772982 
L 552.422698 249.900633 
L 554.555376 246.485976 
L 556.688054 243.571111 
L 558.10984 241.926318 
L 559.531625 240.534839 
L 560.95341 239.409148 
L 562.375196 238.561718 
L 563.796981 238.005023 
L 565.218767 237.751537 
L 566.640552 237.812354 
L 568.062337 238.183935 
L 569.484123 238.853927 
L 570.905908 239.809857 
L 572.327694 241.03925 
L 573.749479 242.529634 
L 575.171265 244.268533 
L 577.303943 247.315564 
L 579.436621 250.851591 
L 581.569299 254.834516 
L 583.701977 259.222238 
L 586.545548 265.629458 
L 589.389119 272.581686 
L 592.943582 281.886364 
L 597.208939 293.695817 
L 612.848578 337.723665 
L 616.403042 346.731491 
L 619.246613 353.381469 
L 622.090184 359.434536 
L 624.933754 364.870752 
L 627.777325 369.722299 
L 630.620896 374.022441 
L 633.464467 377.804442 
L 635.597145 380.320922 
L 637.729823 382.57869 
L 639.862501 384.591781 
L 641.995179 386.374227 
L 644.83875 388.416294 
L 647.682321 390.106537 
L 650.525892 391.478219 
L 653.369463 392.564602 
L 656.213034 393.398952 
L 659.056604 394.01453 
L 662.611068 394.527031 
L 666.165532 394.814644 
L 671.141781 394.963189 
L 685.359635 394.976142 
L 784.173722 394.976142 
L 784.173722 394.976142 
" style="fill:none;stroke:#ce6dbd;stroke-linecap:square;stroke-width:1.5;"/>
   </g>
   <g id="line2d_43">
    <path clip-path="url(#p8eb5df7975)" d="M 73.991903 394.976142 
L 518.299848 394.883382 
L 522.565204 394.605757 
L 526.119668 394.147183 
L 528.963238 393.584821 
L 531.806809 392.812644 
L 534.65038 391.797388 
L 537.493951 390.505789 
L 540.337522 388.904585 
L 542.4702 387.480493 
L 544.602878 385.849504 
L 546.735556 383.997586 
L 548.868234 381.910704 
L 551.000912 379.574827 
L 553.133591 376.97592 
L 555.266269 374.099952 
L 557.398947 370.932889 
L 559.531625 367.460698 
L 562.375196 362.332211 
L 565.218767 356.603064 
L 568.062337 350.253428 
L 570.905908 343.349268 
L 574.460372 334.091182 
L 578.725728 322.317849 
L 595.07626 276.373405 
L 598.630724 267.451751 
L 601.474295 260.887982 
L 604.317866 254.942145 
L 606.450544 250.948315 
L 608.583222 247.400303 
L 610.7159 244.340208 
L 612.137686 242.591999 
L 613.559471 241.091827 
L 614.981256 239.852164 
L 616.403042 238.885486 
L 617.824827 238.204266 
L 619.246613 237.820977 
L 620.668398 237.748012 
L 622.090184 237.989587 
L 623.511969 238.53485 
L 624.933754 239.371329 
L 626.35554 240.486549 
L 627.777325 241.868036 
L 629.199111 243.503316 
L 631.331789 246.404813 
L 633.464467 249.807181 
L 635.597145 253.66832 
L 637.729823 257.946131 
L 640.573394 264.225273 
L 643.416965 271.070532 
L 646.971428 280.271186 
L 651.236785 291.999347 
L 659.056604 314.379439 
L 664.743746 330.382406 
L 669.009102 341.687778 
L 672.563566 350.381084 
L 675.407137 356.719112 
L 678.250708 362.436394 
L 681.094279 367.553655 
L 683.937849 372.104159 
L 686.78142 376.121168 
L 688.914098 378.80383 
L 691.046776 381.219144 
L 693.179455 383.381146 
L 695.312133 385.303866 
L 697.444811 387.001338 
L 700.288382 388.938504 
L 703.131953 390.533441 
L 705.975523 391.819411 
L 708.819094 392.829679 
L 711.662665 393.597508 
L 714.506236 394.156161 
L 718.060699 394.610998 
L 722.326056 394.885458 
L 728.013197 394.975276 
L 784.173722 394.976142 
L 784.173722 394.976142 
" style="fill:none;stroke:#de9ed6;stroke-linecap:square;stroke-width:1.5;"/>
   </g>
   <g id="patch_9">
    <path d="M 38.482813 402.838125 
L 38.482813 229.874489 
" style="fill:none;stroke:#000000;stroke-linecap:square;stroke-linejoin:miter;stroke-width:0.8;"/>
   </g>
   <g id="patch_10">
    <path d="M 819.682813 402.838125 
L 819.682813 229.874489 
" style="fill:none;stroke:#000000;stroke-linecap:square;stroke-linejoin:miter;stroke-width:0.8;"/>
   </g>
   <g id="patch_11">
    <path d="M 38.482813 402.838125 
L 819.682812 402.838125 
" style="fill:none;stroke:#000000;stroke-linecap:square;stroke-linejoin:miter;stroke-width:0.8;"/>
   </g>
   <g id="patch_12">
    <path d="M 38.482813 229.874489 
L 819.682812 229.874489 
" style="fill:none;stroke:#000000;stroke-linecap:square;stroke-linejoin:miter;stroke-width:0.8;"/>
   </g>
   <g id="text_24">
    <!-- Periodic spline-based encoding for the 'hour' feature -->
    <defs>
     <path d="M 19.671875 64.796875 
L 19.671875 37.40625 
L 32.078125 37.40625 
Q 38.96875 37.40625 42.71875 40.96875 
Q 46.484375 44.53125 46.484375 51.125 
Q 46.484375 57.671875 42.71875 61.234375 
Q 38.96875 64.796875 32.078125 64.796875 
z
M 9.8125 72.90625 
L 32.078125 72.90625 
Q 44.34375 72.90625 50.609375 67.359375 
Q 56.890625 61.8125 56.890625 51.125 
Q 56.890625 40.328125 50.609375 34.8125 
Q 44.34375 29.296875 32.078125 29.296875 
L 19.671875 29.296875 
L 19.671875 0 
L 9.8125 0 
z
" id="DejaVuSans-80"/>
     <path d="M 18.109375 8.203125 
L 18.109375 -20.796875 
L 9.078125 -20.796875 
L 9.078125 54.6875 
L 18.109375 54.6875 
L 18.109375 46.390625 
Q 20.953125 51.265625 25.265625 53.625 
Q 29.59375 56 35.59375 56 
Q 45.5625 56 51.78125 48.09375 
Q 58.015625 40.1875 58.015625 27.296875 
Q 58.015625 14.40625 51.78125 6.484375 
Q 45.5625 -1.421875 35.59375 -1.421875 
Q 29.59375 -1.421875 25.265625 0.953125 
Q 20.953125 3.328125 18.109375 8.203125 
z
M 48.6875 27.296875 
Q 48.6875 37.203125 44.609375 42.84375 
Q 40.53125 48.484375 33.40625 48.484375 
Q 26.265625 48.484375 22.1875 42.84375 
Q 18.109375 37.203125 18.109375 27.296875 
Q 18.109375 17.390625 22.1875 11.75 
Q 26.265625 6.109375 33.40625 6.109375 
Q 40.53125 6.109375 44.609375 11.75 
Q 48.6875 17.390625 48.6875 27.296875 
z
" id="DejaVuSans-112"/>
     <path d="M 9.421875 75.984375 
L 18.40625 75.984375 
L 18.40625 0 
L 9.421875 0 
z
" id="DejaVuSans-108"/>
     <path d="M 4.890625 31.390625 
L 31.203125 31.390625 
L 31.203125 23.390625 
L 4.890625 23.390625 
z
" id="DejaVuSans-45"/>
     <path d="M 48.6875 27.296875 
Q 48.6875 37.203125 44.609375 42.84375 
Q 40.53125 48.484375 33.40625 48.484375 
Q 26.265625 48.484375 22.1875 42.84375 
Q 18.109375 37.203125 18.109375 27.296875 
Q 18.109375 17.390625 22.1875 11.75 
Q 26.265625 6.109375 33.40625 6.109375 
Q 40.53125 6.109375 44.609375 11.75 
Q 48.6875 17.390625 48.6875 27.296875 
z
M 18.109375 46.390625 
Q 20.953125 51.265625 25.265625 53.625 
Q 29.59375 56 35.59375 56 
Q 45.5625 56 51.78125 48.09375 
Q 58.015625 40.1875 58.015625 27.296875 
Q 58.015625 14.40625 51.78125 6.484375 
Q 45.5625 -1.421875 35.59375 -1.421875 
Q 29.59375 -1.421875 25.265625 0.953125 
Q 20.953125 3.328125 18.109375 8.203125 
L 18.109375 0 
L 9.078125 0 
L 9.078125 75.984375 
L 18.109375 75.984375 
z
" id="DejaVuSans-98"/>
    </defs>
    <g transform="translate(271.580938 223.874489)scale(0.12 -0.12)">
     <use xlink:href="#DejaVuSans-80"/>
     <use x="56.677734" xlink:href="#DejaVuSans-101"/>
     <use x="118.201172" xlink:href="#DejaVuSans-114"/>
     <use x="159.314453" xlink:href="#DejaVuSans-105"/>
     <use x="187.097656" xlink:href="#DejaVuSans-111"/>
     <use x="248.279297" xlink:href="#DejaVuSans-100"/>
     <use x="311.755859" xlink:href="#DejaVuSans-105"/>
     <use x="339.539062" xlink:href="#DejaVuSans-99"/>
     <use x="394.519531" xlink:href="#DejaVuSans-32"/>
     <use x="426.306641" xlink:href="#DejaVuSans-115"/>
     <use x="478.40625" xlink:href="#DejaVuSans-112"/>
     <use x="541.882812" xlink:href="#DejaVuSans-108"/>
     <use x="569.666016" xlink:href="#DejaVuSans-105"/>
     <use x="597.449219" xlink:href="#DejaVuSans-110"/>
     <use x="660.828125" xlink:href="#DejaVuSans-101"/>
     <use x="722.351562" xlink:href="#DejaVuSans-45"/>
     <use x="758.435547" xlink:href="#DejaVuSans-98"/>
     <use x="821.912109" xlink:href="#DejaVuSans-97"/>
     <use x="883.191406" xlink:href="#DejaVuSans-115"/>
     <use x="935.291016" xlink:href="#DejaVuSans-101"/>
     <use x="996.814453" xlink:href="#DejaVuSans-100"/>
     <use x="1060.291016" xlink:href="#DejaVuSans-32"/>
     <use x="1092.078125" xlink:href="#DejaVuSans-101"/>
     <use x="1153.601562" xlink:href="#DejaVuSans-110"/>
     <use x="1216.980469" xlink:href="#DejaVuSans-99"/>
     <use x="1271.960938" xlink:href="#DejaVuSans-111"/>
     <use x="1333.142578" xlink:href="#DejaVuSans-100"/>
     <use x="1396.619141" xlink:href="#DejaVuSans-105"/>
     <use x="1424.402344" xlink:href="#DejaVuSans-110"/>
     <use x="1487.78125" xlink:href="#DejaVuSans-103"/>
     <use x="1551.257812" xlink:href="#DejaVuSans-32"/>
     <use x="1583.044922" xlink:href="#DejaVuSans-102"/>
     <use x="1618.25" xlink:href="#DejaVuSans-111"/>
     <use x="1679.431641" xlink:href="#DejaVuSans-114"/>
     <use x="1720.544922" xlink:href="#DejaVuSans-32"/>
     <use x="1752.332031" xlink:href="#DejaVuSans-116"/>
     <use x="1791.541016" xlink:href="#DejaVuSans-104"/>
     <use x="1854.919922" xlink:href="#DejaVuSans-101"/>
     <use x="1916.443359" xlink:href="#DejaVuSans-32"/>
     <use x="1948.230469" xlink:href="#DejaVuSans-39"/>
     <use x="1975.720703" xlink:href="#DejaVuSans-104"/>
     <use x="2039.099609" xlink:href="#DejaVuSans-111"/>
     <use x="2100.28125" xlink:href="#DejaVuSans-117"/>
     <use x="2163.660156" xlink:href="#DejaVuSans-114"/>
     <use x="2204.773438" xlink:href="#DejaVuSans-39"/>
     <use x="2232.263672" xlink:href="#DejaVuSans-32"/>
     <use x="2264.050781" xlink:href="#DejaVuSans-102"/>
     <use x="2299.255859" xlink:href="#DejaVuSans-101"/>
     <use x="2360.779297" xlink:href="#DejaVuSans-97"/>
     <use x="2422.058594" xlink:href="#DejaVuSans-116"/>
     <use x="2461.267578" xlink:href="#DejaVuSans-117"/>
     <use x="2524.646484" xlink:href="#DejaVuSans-114"/>
     <use x="2563.509766" xlink:href="#DejaVuSans-101"/>
    </g>
   </g>
   <g id="legend_2">
    <g id="patch_13">
     <path d="M 733.353125 417.349489 
L 812.682813 417.349489 
Q 814.682813 417.349489 814.682813 415.349489 
L 814.682813 236.874489 
Q 814.682813 234.874489 812.682813 234.874489 
L 733.353125 234.874489 
Q 731.353125 234.874489 731.353125 236.874489 
L 731.353125 415.349489 
Q 731.353125 417.349489 733.353125 417.349489 
z
" style="fill:#ffffff;opacity:0.8;stroke:#cccccc;stroke-linejoin:miter;"/>
    </g>
    <g id="line2d_44">
     <path d="M 735.353125 242.972926 
L 755.353125 242.972926 
" style="fill:none;stroke:#393b79;stroke-linecap:square;stroke-width:1.5;"/>
    </g>
    <g id="line2d_45"/>
    <g id="text_25">
     <!-- spline_0 -->
     <g transform="translate(763.353125 246.472926)scale(0.1 -0.1)">
      <use xlink:href="#DejaVuSans-115"/>
      <use x="52.099609" xlink:href="#DejaVuSans-112"/>
      <use x="115.576172" xlink:href="#DejaVuSans-108"/>
      <use x="143.359375" xlink:href="#DejaVuSans-105"/>
      <use x="171.142578" xlink:href="#DejaVuSans-110"/>
      <use x="234.521484" xlink:href="#DejaVuSans-101"/>
      <use x="296.044922" xlink:href="#DejaVuSans-95"/>
      <use x="346.044922" xlink:href="#DejaVuSans-48"/>
     </g>
    </g>
    <g id="line2d_46">
     <path d="M 735.353125 257.929176 
L 755.353125 257.929176 
" style="fill:none;stroke:#5254a3;stroke-linecap:square;stroke-width:1.5;"/>
    </g>
    <g id="line2d_47"/>
    <g id="text_26">
     <!-- spline_1 -->
     <g transform="translate(763.353125 261.429176)scale(0.1 -0.1)">
      <use xlink:href="#DejaVuSans-115"/>
      <use x="52.099609" xlink:href="#DejaVuSans-112"/>
      <use x="115.576172" xlink:href="#DejaVuSans-108"/>
      <use x="143.359375" xlink:href="#DejaVuSans-105"/>
      <use x="171.142578" xlink:href="#DejaVuSans-110"/>
      <use x="234.521484" xlink:href="#DejaVuSans-101"/>
      <use x="296.044922" xlink:href="#DejaVuSans-95"/>
      <use x="346.044922" xlink:href="#DejaVuSans-49"/>
     </g>
    </g>
    <g id="line2d_48">
     <path d="M 735.353125 272.885426 
L 755.353125 272.885426 
" style="fill:none;stroke:#9c9ede;stroke-linecap:square;stroke-width:1.5;"/>
    </g>
    <g id="line2d_49"/>
    <g id="text_27">
     <!-- spline_2 -->
     <g transform="translate(763.353125 276.385426)scale(0.1 -0.1)">
      <use xlink:href="#DejaVuSans-115"/>
      <use x="52.099609" xlink:href="#DejaVuSans-112"/>
      <use x="115.576172" xlink:href="#DejaVuSans-108"/>
      <use x="143.359375" xlink:href="#DejaVuSans-105"/>
      <use x="171.142578" xlink:href="#DejaVuSans-110"/>
      <use x="234.521484" xlink:href="#DejaVuSans-101"/>
      <use x="296.044922" xlink:href="#DejaVuSans-95"/>
      <use x="346.044922" xlink:href="#DejaVuSans-50"/>
     </g>
    </g>
    <g id="line2d_50">
     <path d="M 735.353125 287.841676 
L 755.353125 287.841676 
" style="fill:none;stroke:#8ca252;stroke-linecap:square;stroke-width:1.5;"/>
    </g>
    <g id="line2d_51"/>
    <g id="text_28">
     <!-- spline_3 -->
     <g transform="translate(763.353125 291.341676)scale(0.1 -0.1)">
      <use xlink:href="#DejaVuSans-115"/>
      <use x="52.099609" xlink:href="#DejaVuSans-112"/>
      <use x="115.576172" xlink:href="#DejaVuSans-108"/>
      <use x="143.359375" xlink:href="#DejaVuSans-105"/>
      <use x="171.142578" xlink:href="#DejaVuSans-110"/>
      <use x="234.521484" xlink:href="#DejaVuSans-101"/>
      <use x="296.044922" xlink:href="#DejaVuSans-95"/>
      <use x="346.044922" xlink:href="#DejaVuSans-51"/>
     </g>
    </g>
    <g id="line2d_52">
     <path d="M 735.353125 302.797926 
L 755.353125 302.797926 
" style="fill:none;stroke:#cedb9c;stroke-linecap:square;stroke-width:1.5;"/>
    </g>
    <g id="line2d_53"/>
    <g id="text_29">
     <!-- spline_4 -->
     <g transform="translate(763.353125 306.297926)scale(0.1 -0.1)">
      <use xlink:href="#DejaVuSans-115"/>
      <use x="52.099609" xlink:href="#DejaVuSans-112"/>
      <use x="115.576172" xlink:href="#DejaVuSans-108"/>
      <use x="143.359375" xlink:href="#DejaVuSans-105"/>
      <use x="171.142578" xlink:href="#DejaVuSans-110"/>
      <use x="234.521484" xlink:href="#DejaVuSans-101"/>
      <use x="296.044922" xlink:href="#DejaVuSans-95"/>
      <use x="346.044922" xlink:href="#DejaVuSans-52"/>
     </g>
    </g>
    <g id="line2d_54">
     <path d="M 735.353125 317.754176 
L 755.353125 317.754176 
" style="fill:none;stroke:#bd9e39;stroke-linecap:square;stroke-width:1.5;"/>
    </g>
    <g id="line2d_55"/>
    <g id="text_30">
     <!-- spline_5 -->
     <g transform="translate(763.353125 321.254176)scale(0.1 -0.1)">
      <use xlink:href="#DejaVuSans-115"/>
      <use x="52.099609" xlink:href="#DejaVuSans-112"/>
      <use x="115.576172" xlink:href="#DejaVuSans-108"/>
      <use x="143.359375" xlink:href="#DejaVuSans-105"/>
      <use x="171.142578" xlink:href="#DejaVuSans-110"/>
      <use x="234.521484" xlink:href="#DejaVuSans-101"/>
      <use x="296.044922" xlink:href="#DejaVuSans-95"/>
      <use x="346.044922" xlink:href="#DejaVuSans-53"/>
     </g>
    </g>
    <g id="line2d_56">
     <path d="M 735.353125 332.710426 
L 755.353125 332.710426 
" style="fill:none;stroke:#e7ba52;stroke-linecap:square;stroke-width:1.5;"/>
    </g>
    <g id="line2d_57"/>
    <g id="text_31">
     <!-- spline_6 -->
     <g transform="translate(763.353125 336.210426)scale(0.1 -0.1)">
      <use xlink:href="#DejaVuSans-115"/>
      <use x="52.099609" xlink:href="#DejaVuSans-112"/>
      <use x="115.576172" xlink:href="#DejaVuSans-108"/>
      <use x="143.359375" xlink:href="#DejaVuSans-105"/>
      <use x="171.142578" xlink:href="#DejaVuSans-110"/>
      <use x="234.521484" xlink:href="#DejaVuSans-101"/>
      <use x="296.044922" xlink:href="#DejaVuSans-95"/>
      <use x="346.044922" xlink:href="#DejaVuSans-54"/>
     </g>
    </g>
    <g id="line2d_58">
     <path d="M 735.353125 347.666676 
L 755.353125 347.666676 
" style="fill:none;stroke:#843c39;stroke-linecap:square;stroke-width:1.5;"/>
    </g>
    <g id="line2d_59"/>
    <g id="text_32">
     <!-- spline_7 -->
     <g transform="translate(763.353125 351.166676)scale(0.1 -0.1)">
      <use xlink:href="#DejaVuSans-115"/>
      <use x="52.099609" xlink:href="#DejaVuSans-112"/>
      <use x="115.576172" xlink:href="#DejaVuSans-108"/>
      <use x="143.359375" xlink:href="#DejaVuSans-105"/>
      <use x="171.142578" xlink:href="#DejaVuSans-110"/>
      <use x="234.521484" xlink:href="#DejaVuSans-101"/>
      <use x="296.044922" xlink:href="#DejaVuSans-95"/>
      <use x="346.044922" xlink:href="#DejaVuSans-55"/>
     </g>
    </g>
    <g id="line2d_60">
     <path d="M 735.353125 362.622926 
L 755.353125 362.622926 
" style="fill:none;stroke:#d6616b;stroke-linecap:square;stroke-width:1.5;"/>
    </g>
    <g id="line2d_61"/>
    <g id="text_33">
     <!-- spline_8 -->
     <defs>
      <path d="M 31.78125 34.625 
Q 24.75 34.625 20.71875 30.859375 
Q 16.703125 27.09375 16.703125 20.515625 
Q 16.703125 13.921875 20.71875 10.15625 
Q 24.75 6.390625 31.78125 6.390625 
Q 38.8125 6.390625 42.859375 10.171875 
Q 46.921875 13.96875 46.921875 20.515625 
Q 46.921875 27.09375 42.890625 30.859375 
Q 38.875 34.625 31.78125 34.625 
z
M 21.921875 38.8125 
Q 15.578125 40.375 12.03125 44.71875 
Q 8.5 49.078125 8.5 55.328125 
Q 8.5 64.0625 14.71875 69.140625 
Q 20.953125 74.21875 31.78125 74.21875 
Q 42.671875 74.21875 48.875 69.140625 
Q 55.078125 64.0625 55.078125 55.328125 
Q 55.078125 49.078125 51.53125 44.71875 
Q 48 40.375 41.703125 38.8125 
Q 48.828125 37.15625 52.796875 32.3125 
Q 56.78125 27.484375 56.78125 20.515625 
Q 56.78125 9.90625 50.3125 4.234375 
Q 43.84375 -1.421875 31.78125 -1.421875 
Q 19.734375 -1.421875 13.25 4.234375 
Q 6.78125 9.90625 6.78125 20.515625 
Q 6.78125 27.484375 10.78125 32.3125 
Q 14.796875 37.15625 21.921875 38.8125 
z
M 18.3125 54.390625 
Q 18.3125 48.734375 21.84375 45.5625 
Q 25.390625 42.390625 31.78125 42.390625 
Q 38.140625 42.390625 41.71875 45.5625 
Q 45.3125 48.734375 45.3125 54.390625 
Q 45.3125 60.0625 41.71875 63.234375 
Q 38.140625 66.40625 31.78125 66.40625 
Q 25.390625 66.40625 21.84375 63.234375 
Q 18.3125 60.0625 18.3125 54.390625 
z
" id="DejaVuSans-56"/>
     </defs>
     <g transform="translate(763.353125 366.122926)scale(0.1 -0.1)">
      <use xlink:href="#DejaVuSans-115"/>
      <use x="52.099609" xlink:href="#DejaVuSans-112"/>
      <use x="115.576172" xlink:href="#DejaVuSans-108"/>
      <use x="143.359375" xlink:href="#DejaVuSans-105"/>
      <use x="171.142578" xlink:href="#DejaVuSans-110"/>
      <use x="234.521484" xlink:href="#DejaVuSans-101"/>
      <use x="296.044922" xlink:href="#DejaVuSans-95"/>
      <use x="346.044922" xlink:href="#DejaVuSans-56"/>
     </g>
    </g>
    <g id="line2d_62">
     <path d="M 735.353125 377.579176 
L 755.353125 377.579176 
" style="fill:none;stroke:#7b4173;stroke-linecap:square;stroke-width:1.5;"/>
    </g>
    <g id="line2d_63"/>
    <g id="text_34">
     <!-- spline_9 -->
     <defs>
      <path d="M 10.984375 1.515625 
L 10.984375 10.5 
Q 14.703125 8.734375 18.5 7.8125 
Q 22.3125 6.890625 25.984375 6.890625 
Q 35.75 6.890625 40.890625 13.453125 
Q 46.046875 20.015625 46.78125 33.40625 
Q 43.953125 29.203125 39.59375 26.953125 
Q 35.25 24.703125 29.984375 24.703125 
Q 19.046875 24.703125 12.671875 31.3125 
Q 6.296875 37.9375 6.296875 49.421875 
Q 6.296875 60.640625 12.9375 67.421875 
Q 19.578125 74.21875 30.609375 74.21875 
Q 43.265625 74.21875 49.921875 64.515625 
Q 56.59375 54.828125 56.59375 36.375 
Q 56.59375 19.140625 48.40625 8.859375 
Q 40.234375 -1.421875 26.421875 -1.421875 
Q 22.703125 -1.421875 18.890625 -0.6875 
Q 15.09375 0.046875 10.984375 1.515625 
z
M 30.609375 32.421875 
Q 37.25 32.421875 41.125 36.953125 
Q 45.015625 41.5 45.015625 49.421875 
Q 45.015625 57.28125 41.125 61.84375 
Q 37.25 66.40625 30.609375 66.40625 
Q 23.96875 66.40625 20.09375 61.84375 
Q 16.21875 57.28125 16.21875 49.421875 
Q 16.21875 41.5 20.09375 36.953125 
Q 23.96875 32.421875 30.609375 32.421875 
z
" id="DejaVuSans-57"/>
     </defs>
     <g transform="translate(763.353125 381.079176)scale(0.1 -0.1)">
      <use xlink:href="#DejaVuSans-115"/>
      <use x="52.099609" xlink:href="#DejaVuSans-112"/>
      <use x="115.576172" xlink:href="#DejaVuSans-108"/>
      <use x="143.359375" xlink:href="#DejaVuSans-105"/>
      <use x="171.142578" xlink:href="#DejaVuSans-110"/>
      <use x="234.521484" xlink:href="#DejaVuSans-101"/>
      <use x="296.044922" xlink:href="#DejaVuSans-95"/>
      <use x="346.044922" xlink:href="#DejaVuSans-57"/>
     </g>
    </g>
    <g id="line2d_64">
     <path d="M 735.353125 392.535426 
L 755.353125 392.535426 
" style="fill:none;stroke:#ce6dbd;stroke-linecap:square;stroke-width:1.5;"/>
    </g>
    <g id="line2d_65"/>
    <g id="text_35">
     <!-- spline_10 -->
     <g transform="translate(763.353125 396.035426)scale(0.1 -0.1)">
      <use xlink:href="#DejaVuSans-115"/>
      <use x="52.099609" xlink:href="#DejaVuSans-112"/>
      <use x="115.576172" xlink:href="#DejaVuSans-108"/>
      <use x="143.359375" xlink:href="#DejaVuSans-105"/>
      <use x="171.142578" xlink:href="#DejaVuSans-110"/>
      <use x="234.521484" xlink:href="#DejaVuSans-101"/>
      <use x="296.044922" xlink:href="#DejaVuSans-95"/>
      <use x="346.044922" xlink:href="#DejaVuSans-49"/>
      <use x="409.667969" xlink:href="#DejaVuSans-48"/>
     </g>
    </g>
    <g id="line2d_66">
     <path d="M 735.353125 407.491676 
L 755.353125 407.491676 
" style="fill:none;stroke:#de9ed6;stroke-linecap:square;stroke-width:1.5;"/>
    </g>
    <g id="line2d_67"/>
    <g id="text_36">
     <!-- spline_11 -->
     <g transform="translate(763.353125 410.991676)scale(0.1 -0.1)">
      <use xlink:href="#DejaVuSans-115"/>
      <use x="52.099609" xlink:href="#DejaVuSans-112"/>
      <use x="115.576172" xlink:href="#DejaVuSans-108"/>
      <use x="143.359375" xlink:href="#DejaVuSans-105"/>
      <use x="171.142578" xlink:href="#DejaVuSans-110"/>
      <use x="234.521484" xlink:href="#DejaVuSans-101"/>
      <use x="296.044922" xlink:href="#DejaVuSans-95"/>
      <use x="346.044922" xlink:href="#DejaVuSans-49"/>
      <use x="409.667969" xlink:href="#DejaVuSans-49"/>
     </g>
    </g>
   </g>
  </g>
 </g>
 <defs>
  <clipPath id="pbbdf1cf774">
   <rect height="172.963636" width="781.2" x="38.482813" y="22.318125"/>
  </clipPath>
  <clipPath id="p8eb5df7975">
   <rect height="172.963636" width="781.2" x="38.482813" y="229.874489"/>
  </clipPath>
 </defs>
</svg>
