<?xml version="1.0" encoding="utf-8" standalone="no"?>
<!DOCTYPE svg PUBLIC "-//W3C//DTD SVG 1.1//EN"
  "http://www.w3.org/Graphics/SVG/1.1/DTD/svg11.dtd">
<!-- Created with matplotlib (https://matplotlib.org/) -->
<svg height="331.674375pt" version="1.1" viewBox="0 0 833.245312 331.674375" width="833.245312pt" xmlns="http://www.w3.org/2000/svg" xmlns:xlink="http://www.w3.org/1999/xlink">
 <defs>
  <style type="text/css">
*{stroke-linecap:butt;stroke-linejoin:round;}
  </style>
 </defs>
 <g id="figure_1">
  <g id="patch_1">
   <path d="M 0 331.674375 
L 833.245312 331.674375 
L 833.245312 0 
L 0 0 
z
" style="fill:#ffffff;"/>
  </g>
  <g id="axes_1">
   <g id="patch_2">
    <path d="M 44.845313 294.118125 
L 399.936222 294.118125 
L 399.936222 22.318125 
L 44.845313 22.318125 
z
" style="fill:#ffffff;"/>
   </g>
   <g id="matplotlib.axis_1">
    <g id="xtick_1">
     <g id="line2d_1">
      <defs>
       <path d="M 0 0 
L 0 3.5 
" id="mad289eebca" style="stroke:#000000;stroke-width:0.8;"/>
      </defs>
      <g>
       <use style="stroke:#000000;stroke-width:0.8;" x="60.985808" xlink:href="#mad289eebca" y="294.118125"/>
      </g>
     </g>
     <g id="text_1">
      <!-- 0 -->
      <defs>
       <path d="M 31.78125 66.40625 
Q 24.171875 66.40625 20.328125 58.90625 
Q 16.5 51.421875 16.5 36.375 
Q 16.5 21.390625 20.328125 13.890625 
Q 24.171875 6.390625 31.78125 6.390625 
Q 39.453125 6.390625 43.28125 13.890625 
Q 47.125 21.390625 47.125 36.375 
Q 47.125 51.421875 43.28125 58.90625 
Q 39.453125 66.40625 31.78125 66.40625 
z
M 31.78125 74.21875 
Q 44.046875 74.21875 50.515625 64.515625 
Q 56.984375 54.828125 56.984375 36.375 
Q 56.984375 17.96875 50.515625 8.265625 
Q 44.046875 -1.421875 31.78125 -1.421875 
Q 19.53125 -1.421875 13.0625 8.265625 
Q 6.59375 17.96875 6.59375 36.375 
Q 6.59375 54.828125 13.0625 64.515625 
Q 19.53125 74.21875 31.78125 74.21875 
z
" id="DejaVuSans-48"/>
      </defs>
      <g transform="translate(57.804558 308.716563)scale(0.1 -0.1)">
       <use xlink:href="#DejaVuSans-48"/>
      </g>
     </g>
    </g>
    <g id="xtick_2">
     <g id="line2d_2">
      <g>
       <use style="stroke:#000000;stroke-width:0.8;" x="125.547792" xlink:href="#mad289eebca" y="294.118125"/>
      </g>
     </g>
     <g id="text_2">
      <!-- 5 -->
      <defs>
       <path d="M 10.796875 72.90625 
L 49.515625 72.90625 
L 49.515625 64.59375 
L 19.828125 64.59375 
L 19.828125 46.734375 
Q 21.96875 47.46875 24.109375 47.828125 
Q 26.265625 48.1875 28.421875 48.1875 
Q 40.625 48.1875 47.75 41.5 
Q 54.890625 34.8125 54.890625 23.390625 
Q 54.890625 11.625 47.5625 5.09375 
Q 40.234375 -1.421875 26.90625 -1.421875 
Q 22.3125 -1.421875 17.546875 -0.640625 
Q 12.796875 0.140625 7.71875 1.703125 
L 7.71875 11.625 
Q 12.109375 9.234375 16.796875 8.0625 
Q 21.484375 6.890625 26.703125 6.890625 
Q 35.15625 6.890625 40.078125 11.328125 
Q 45.015625 15.765625 45.015625 23.390625 
Q 45.015625 31 40.078125 35.4375 
Q 35.15625 39.890625 26.703125 39.890625 
Q 22.75 39.890625 18.8125 39.015625 
Q 14.890625 38.140625 10.796875 36.28125 
z
" id="DejaVuSans-53"/>
      </defs>
      <g transform="translate(122.366542 308.716563)scale(0.1 -0.1)">
       <use xlink:href="#DejaVuSans-53"/>
      </g>
     </g>
    </g>
    <g id="xtick_3">
     <g id="line2d_3">
      <g>
       <use style="stroke:#000000;stroke-width:0.8;" x="190.109775" xlink:href="#mad289eebca" y="294.118125"/>
      </g>
     </g>
     <g id="text_3">
      <!-- 10 -->
      <defs>
       <path d="M 12.40625 8.296875 
L 28.515625 8.296875 
L 28.515625 63.921875 
L 10.984375 60.40625 
L 10.984375 69.390625 
L 28.421875 72.90625 
L 38.28125 72.90625 
L 38.28125 8.296875 
L 54.390625 8.296875 
L 54.390625 0 
L 12.40625 0 
z
" id="DejaVuSans-49"/>
      </defs>
      <g transform="translate(183.747275 308.716563)scale(0.1 -0.1)">
       <use xlink:href="#DejaVuSans-49"/>
       <use x="63.623047" xlink:href="#DejaVuSans-48"/>
      </g>
     </g>
    </g>
    <g id="xtick_4">
     <g id="line2d_4">
      <g>
       <use style="stroke:#000000;stroke-width:0.8;" x="254.671759" xlink:href="#mad289eebca" y="294.118125"/>
      </g>
     </g>
     <g id="text_4">
      <!-- 15 -->
      <g transform="translate(248.309259 308.716563)scale(0.1 -0.1)">
       <use xlink:href="#DejaVuSans-49"/>
       <use x="63.623047" xlink:href="#DejaVuSans-53"/>
      </g>
     </g>
    </g>
    <g id="xtick_5">
     <g id="line2d_5">
      <g>
       <use style="stroke:#000000;stroke-width:0.8;" x="319.233742" xlink:href="#mad289eebca" y="294.118125"/>
      </g>
     </g>
     <g id="text_5">
      <!-- 20 -->
      <defs>
       <path d="M 19.1875 8.296875 
L 53.609375 8.296875 
L 53.609375 0 
L 7.328125 0 
L 7.328125 8.296875 
Q 12.9375 14.109375 22.625 23.890625 
Q 32.328125 33.6875 34.8125 36.53125 
Q 39.546875 41.84375 41.421875 45.53125 
Q 43.3125 49.21875 43.3125 52.78125 
Q 43.3125 58.59375 39.234375 62.25 
Q 35.15625 65.921875 28.609375 65.921875 
Q 23.96875 65.921875 18.8125 64.3125 
Q 13.671875 62.703125 7.8125 59.421875 
L 7.8125 69.390625 
Q 13.765625 71.78125 18.9375 73 
Q 24.125 74.21875 28.421875 74.21875 
Q 39.75 74.21875 46.484375 68.546875 
Q 53.21875 62.890625 53.21875 53.421875 
Q 53.21875 48.921875 51.53125 44.890625 
Q 49.859375 40.875 45.40625 35.40625 
Q 44.1875 33.984375 37.640625 27.21875 
Q 31.109375 20.453125 19.1875 8.296875 
z
" id="DejaVuSans-50"/>
      </defs>
      <g transform="translate(312.871242 308.716563)scale(0.1 -0.1)">
       <use xlink:href="#DejaVuSans-50"/>
       <use x="63.623047" xlink:href="#DejaVuSans-48"/>
      </g>
     </g>
    </g>
    <g id="xtick_6">
     <g id="line2d_6">
      <g>
       <use style="stroke:#000000;stroke-width:0.8;" x="383.795726" xlink:href="#mad289eebca" y="294.118125"/>
      </g>
     </g>
     <g id="text_6">
      <!-- 25 -->
      <g transform="translate(377.433226 308.716563)scale(0.1 -0.1)">
       <use xlink:href="#DejaVuSans-50"/>
       <use x="63.623047" xlink:href="#DejaVuSans-53"/>
      </g>
     </g>
    </g>
    <g id="text_7">
     <!-- hour -->
     <defs>
      <path d="M 54.890625 33.015625 
L 54.890625 0 
L 45.90625 0 
L 45.90625 32.71875 
Q 45.90625 40.484375 42.875 44.328125 
Q 39.84375 48.1875 33.796875 48.1875 
Q 26.515625 48.1875 22.3125 43.546875 
Q 18.109375 38.921875 18.109375 30.90625 
L 18.109375 0 
L 9.078125 0 
L 9.078125 75.984375 
L 18.109375 75.984375 
L 18.109375 46.1875 
Q 21.34375 51.125 25.703125 53.5625 
Q 30.078125 56 35.796875 56 
Q 45.21875 56 50.046875 50.171875 
Q 54.890625 44.34375 54.890625 33.015625 
z
" id="DejaVuSans-104"/>
      <path d="M 30.609375 48.390625 
Q 23.390625 48.390625 19.1875 42.75 
Q 14.984375 37.109375 14.984375 27.296875 
Q 14.984375 17.484375 19.15625 11.84375 
Q 23.34375 6.203125 30.609375 6.203125 
Q 37.796875 6.203125 41.984375 11.859375 
Q 46.1875 17.53125 46.1875 27.296875 
Q 46.1875 37.015625 41.984375 42.703125 
Q 37.796875 48.390625 30.609375 48.390625 
z
M 30.609375 56 
Q 42.328125 56 49.015625 48.375 
Q 55.71875 40.765625 55.71875 27.296875 
Q 55.71875 13.875 49.015625 6.21875 
Q 42.328125 -1.421875 30.609375 -1.421875 
Q 18.84375 -1.421875 12.171875 6.21875 
Q 5.515625 13.875 5.515625 27.296875 
Q 5.515625 40.765625 12.171875 48.375 
Q 18.84375 56 30.609375 56 
z
" id="DejaVuSans-111"/>
      <path d="M 8.5 21.578125 
L 8.5 54.6875 
L 17.484375 54.6875 
L 17.484375 21.921875 
Q 17.484375 14.15625 20.5 10.265625 
Q 23.53125 6.390625 29.59375 6.390625 
Q 36.859375 6.390625 41.078125 11.03125 
Q 45.3125 15.671875 45.3125 23.6875 
L 45.3125 54.6875 
L 54.296875 54.6875 
L 54.296875 0 
L 45.3125 0 
L 45.3125 8.40625 
Q 42.046875 3.421875 37.71875 1 
Q 33.40625 -1.421875 27.6875 -1.421875 
Q 18.265625 -1.421875 13.375 4.4375 
Q 8.5 10.296875 8.5 21.578125 
z
M 31.109375 56 
z
" id="DejaVuSans-117"/>
      <path d="M 41.109375 46.296875 
Q 39.59375 47.171875 37.8125 47.578125 
Q 36.03125 48 33.890625 48 
Q 26.265625 48 22.1875 43.046875 
Q 18.109375 38.09375 18.109375 28.8125 
L 18.109375 0 
L 9.078125 0 
L 9.078125 54.6875 
L 18.109375 54.6875 
L 18.109375 46.1875 
Q 20.953125 51.171875 25.484375 53.578125 
Q 30.03125 56 36.53125 56 
Q 37.453125 56 38.578125 55.875 
Q 39.703125 55.765625 41.0625 55.515625 
z
" id="DejaVuSans-114"/>
     </defs>
     <g transform="translate(210.938423 322.394687)scale(0.1 -0.1)">
      <use xlink:href="#DejaVuSans-104"/>
      <use x="63.378906" xlink:href="#DejaVuSans-111"/>
      <use x="124.560547" xlink:href="#DejaVuSans-117"/>
      <use x="187.939453" xlink:href="#DejaVuSans-114"/>
     </g>
    </g>
   </g>
   <g id="matplotlib.axis_2">
    <g id="ytick_1">
     <g id="line2d_7">
      <defs>
       <path d="M 0 0 
L -3.5 0 
" id="mac9b39cd9e" style="stroke:#000000;stroke-width:0.8;"/>
      </defs>
      <g>
       <use style="stroke:#000000;stroke-width:0.8;" x="44.845313" xlink:href="#mac9b39cd9e" y="281.76358"/>
      </g>
     </g>
     <g id="text_8">
      <!-- −1.00 -->
      <defs>
       <path d="M 10.59375 35.5 
L 73.1875 35.5 
L 73.1875 27.203125 
L 10.59375 27.203125 
z
" id="DejaVuSans-8722"/>
       <path d="M 10.6875 12.40625 
L 21 12.40625 
L 21 0 
L 10.6875 0 
z
" id="DejaVuSans-46"/>
      </defs>
      <g transform="translate(7.2 285.562798)scale(0.1 -0.1)">
       <use xlink:href="#DejaVuSans-8722"/>
       <use x="83.789062" xlink:href="#DejaVuSans-49"/>
       <use x="147.412109" xlink:href="#DejaVuSans-46"/>
       <use x="179.199219" xlink:href="#DejaVuSans-48"/>
       <use x="242.822266" xlink:href="#DejaVuSans-48"/>
      </g>
     </g>
    </g>
    <g id="ytick_2">
     <g id="line2d_8">
      <g>
       <use style="stroke:#000000;stroke-width:0.8;" x="44.845313" xlink:href="#mac9b39cd9e" y="250.877216"/>
      </g>
     </g>
     <g id="text_9">
      <!-- −0.75 -->
      <defs>
       <path d="M 8.203125 72.90625 
L 55.078125 72.90625 
L 55.078125 68.703125 
L 28.609375 0 
L 18.3125 0 
L 43.21875 64.59375 
L 8.203125 64.59375 
z
" id="DejaVuSans-55"/>
      </defs>
      <g transform="translate(7.2 254.676435)scale(0.1 -0.1)">
       <use xlink:href="#DejaVuSans-8722"/>
       <use x="83.789062" xlink:href="#DejaVuSans-48"/>
       <use x="147.412109" xlink:href="#DejaVuSans-46"/>
       <use x="179.199219" xlink:href="#DejaVuSans-55"/>
       <use x="242.822266" xlink:href="#DejaVuSans-53"/>
      </g>
     </g>
    </g>
    <g id="ytick_3">
     <g id="line2d_9">
      <g>
       <use style="stroke:#000000;stroke-width:0.8;" x="44.845313" xlink:href="#mac9b39cd9e" y="219.990852"/>
      </g>
     </g>
     <g id="text_10">
      <!-- −0.50 -->
      <g transform="translate(7.2 223.790071)scale(0.1 -0.1)">
       <use xlink:href="#DejaVuSans-8722"/>
       <use x="83.789062" xlink:href="#DejaVuSans-48"/>
       <use x="147.412109" xlink:href="#DejaVuSans-46"/>
       <use x="179.199219" xlink:href="#DejaVuSans-53"/>
       <use x="242.822266" xlink:href="#DejaVuSans-48"/>
      </g>
     </g>
    </g>
    <g id="ytick_4">
     <g id="line2d_10">
      <g>
       <use style="stroke:#000000;stroke-width:0.8;" x="44.845313" xlink:href="#mac9b39cd9e" y="189.104489"/>
      </g>
     </g>
     <g id="text_11">
      <!-- −0.25 -->
      <g transform="translate(7.2 192.903707)scale(0.1 -0.1)">
       <use xlink:href="#DejaVuSans-8722"/>
       <use x="83.789062" xlink:href="#DejaVuSans-48"/>
       <use x="147.412109" xlink:href="#DejaVuSans-46"/>
       <use x="179.199219" xlink:href="#DejaVuSans-50"/>
       <use x="242.822266" xlink:href="#DejaVuSans-53"/>
      </g>
     </g>
    </g>
    <g id="ytick_5">
     <g id="line2d_11">
      <g>
       <use style="stroke:#000000;stroke-width:0.8;" x="44.845313" xlink:href="#mac9b39cd9e" y="158.218125"/>
      </g>
     </g>
     <g id="text_12">
      <!-- 0.00 -->
      <g transform="translate(15.579688 162.017344)scale(0.1 -0.1)">
       <use xlink:href="#DejaVuSans-48"/>
       <use x="63.623047" xlink:href="#DejaVuSans-46"/>
       <use x="95.410156" xlink:href="#DejaVuSans-48"/>
       <use x="159.033203" xlink:href="#DejaVuSans-48"/>
      </g>
     </g>
    </g>
    <g id="ytick_6">
     <g id="line2d_12">
      <g>
       <use style="stroke:#000000;stroke-width:0.8;" x="44.845313" xlink:href="#mac9b39cd9e" y="127.331761"/>
      </g>
     </g>
     <g id="text_13">
      <!-- 0.25 -->
      <g transform="translate(15.579688 131.13098)scale(0.1 -0.1)">
       <use xlink:href="#DejaVuSans-48"/>
       <use x="63.623047" xlink:href="#DejaVuSans-46"/>
       <use x="95.410156" xlink:href="#DejaVuSans-50"/>
       <use x="159.033203" xlink:href="#DejaVuSans-53"/>
      </g>
     </g>
    </g>
    <g id="ytick_7">
     <g id="line2d_13">
      <g>
       <use style="stroke:#000000;stroke-width:0.8;" x="44.845313" xlink:href="#mac9b39cd9e" y="96.445398"/>
      </g>
     </g>
     <g id="text_14">
      <!-- 0.50 -->
      <g transform="translate(15.579688 100.244616)scale(0.1 -0.1)">
       <use xlink:href="#DejaVuSans-48"/>
       <use x="63.623047" xlink:href="#DejaVuSans-46"/>
       <use x="95.410156" xlink:href="#DejaVuSans-53"/>
       <use x="159.033203" xlink:href="#DejaVuSans-48"/>
      </g>
     </g>
    </g>
    <g id="ytick_8">
     <g id="line2d_14">
      <g>
       <use style="stroke:#000000;stroke-width:0.8;" x="44.845313" xlink:href="#mac9b39cd9e" y="65.559034"/>
      </g>
     </g>
     <g id="text_15">
      <!-- 0.75 -->
      <g transform="translate(15.579688 69.358253)scale(0.1 -0.1)">
       <use xlink:href="#DejaVuSans-48"/>
       <use x="63.623047" xlink:href="#DejaVuSans-46"/>
       <use x="95.410156" xlink:href="#DejaVuSans-55"/>
       <use x="159.033203" xlink:href="#DejaVuSans-53"/>
      </g>
     </g>
    </g>
    <g id="ytick_9">
     <g id="line2d_15">
      <g>
       <use style="stroke:#000000;stroke-width:0.8;" x="44.845313" xlink:href="#mac9b39cd9e" y="34.67267"/>
      </g>
     </g>
     <g id="text_16">
      <!-- 1.00 -->
      <g transform="translate(15.579688 38.471889)scale(0.1 -0.1)">
       <use xlink:href="#DejaVuSans-49"/>
       <use x="63.623047" xlink:href="#DejaVuSans-46"/>
       <use x="95.410156" xlink:href="#DejaVuSans-48"/>
       <use x="159.033203" xlink:href="#DejaVuSans-48"/>
      </g>
     </g>
    </g>
   </g>
   <g id="line2d_16">
    <path clip-path="url(#pfc1c82180c)" d="M 60.985808 158.218125 
L 73.898205 126.242208 
L 86.810602 96.445398 
L 99.722998 70.858296 
L 112.635395 51.224623 
L 125.547792 38.88238 
L 138.460189 34.67267 
L 151.372585 38.88238 
L 164.284982 51.224623 
L 177.197379 70.858296 
L 190.109775 96.445398 
L 203.022172 126.242208 
L 215.934569 158.218125 
L 228.846965 190.194042 
L 241.759362 219.990852 
L 254.671759 245.577954 
L 267.584155 265.211627 
L 280.496552 277.55387 
L 293.408949 281.76358 
L 306.321346 277.55387 
L 319.233742 265.211627 
L 332.146139 245.577954 
L 345.058536 219.990852 
L 357.970932 190.194042 
L 370.883329 158.218125 
L 383.795726 126.242208 
" style="fill:none;stroke:#1f77b4;stroke-linecap:square;stroke-width:1.5;"/>
   </g>
   <g id="line2d_17">
    <path clip-path="url(#pfc1c82180c)" d="M 60.985808 34.67267 
L 73.898205 38.88238 
L 86.810602 51.224623 
L 99.722998 70.858296 
L 112.635395 96.445398 
L 125.547792 126.242208 
L 138.460189 158.218125 
L 151.372585 190.194042 
L 164.284982 219.990852 
L 177.197379 245.577954 
L 190.109775 265.211627 
L 203.022172 277.55387 
L 215.934569 281.76358 
L 228.846965 277.55387 
L 241.759362 265.211627 
L 254.671759 245.577954 
L 267.584155 219.990852 
L 280.496552 190.194042 
L 293.408949 158.218125 
L 306.321346 126.242208 
L 319.233742 96.445398 
L 332.146139 70.858296 
L 345.058536 51.224623 
L 357.970932 38.88238 
L 370.883329 34.67267 
L 383.795726 38.88238 
" style="fill:none;stroke:#ff7f0e;stroke-linecap:square;stroke-width:1.5;"/>
   </g>
   <g id="patch_3">
    <path d="M 44.845313 294.118125 
L 44.845313 22.318125 
" style="fill:none;stroke:#000000;stroke-linecap:square;stroke-linejoin:miter;stroke-width:0.8;"/>
   </g>
   <g id="patch_4">
    <path d="M 399.936222 294.118125 
L 399.936222 22.318125 
" style="fill:none;stroke:#000000;stroke-linecap:square;stroke-linejoin:miter;stroke-width:0.8;"/>
   </g>
   <g id="patch_5">
    <path d="M 44.845313 294.118125 
L 399.936222 294.118125 
" style="fill:none;stroke:#000000;stroke-linecap:square;stroke-linejoin:miter;stroke-width:0.8;"/>
   </g>
   <g id="patch_6">
    <path d="M 44.845313 22.318125 
L 399.936222 22.318125 
" style="fill:none;stroke:#000000;stroke-linecap:square;stroke-linejoin:miter;stroke-width:0.8;"/>
   </g>
   <g id="text_17">
    <!-- Trigonometric encoding for the 'hour' feature -->
    <defs>
     <path d="M -0.296875 72.90625 
L 61.375 72.90625 
L 61.375 64.59375 
L 35.5 64.59375 
L 35.5 0 
L 25.59375 0 
L 25.59375 64.59375 
L -0.296875 64.59375 
z
" id="DejaVuSans-84"/>
     <path d="M 9.421875 54.6875 
L 18.40625 54.6875 
L 18.40625 0 
L 9.421875 0 
z
M 9.421875 75.984375 
L 18.40625 75.984375 
L 18.40625 64.59375 
L 9.421875 64.59375 
z
" id="DejaVuSans-105"/>
     <path d="M 45.40625 27.984375 
Q 45.40625 37.75 41.375 43.109375 
Q 37.359375 48.484375 30.078125 48.484375 
Q 22.859375 48.484375 18.828125 43.109375 
Q 14.796875 37.75 14.796875 27.984375 
Q 14.796875 18.265625 18.828125 12.890625 
Q 22.859375 7.515625 30.078125 7.515625 
Q 37.359375 7.515625 41.375 12.890625 
Q 45.40625 18.265625 45.40625 27.984375 
z
M 54.390625 6.78125 
Q 54.390625 -7.171875 48.1875 -13.984375 
Q 42 -20.796875 29.203125 -20.796875 
Q 24.46875 -20.796875 20.265625 -20.09375 
Q 16.0625 -19.390625 12.109375 -17.921875 
L 12.109375 -9.1875 
Q 16.0625 -11.328125 19.921875 -12.34375 
Q 23.78125 -13.375 27.78125 -13.375 
Q 36.625 -13.375 41.015625 -8.765625 
Q 45.40625 -4.15625 45.40625 5.171875 
L 45.40625 9.625 
Q 42.625 4.78125 38.28125 2.390625 
Q 33.9375 0 27.875 0 
Q 17.828125 0 11.671875 7.65625 
Q 5.515625 15.328125 5.515625 27.984375 
Q 5.515625 40.671875 11.671875 48.328125 
Q 17.828125 56 27.875 56 
Q 33.9375 56 38.28125 53.609375 
Q 42.625 51.21875 45.40625 46.390625 
L 45.40625 54.6875 
L 54.390625 54.6875 
z
" id="DejaVuSans-103"/>
     <path d="M 54.890625 33.015625 
L 54.890625 0 
L 45.90625 0 
L 45.90625 32.71875 
Q 45.90625 40.484375 42.875 44.328125 
Q 39.84375 48.1875 33.796875 48.1875 
Q 26.515625 48.1875 22.3125 43.546875 
Q 18.109375 38.921875 18.109375 30.90625 
L 18.109375 0 
L 9.078125 0 
L 9.078125 54.6875 
L 18.109375 54.6875 
L 18.109375 46.1875 
Q 21.34375 51.125 25.703125 53.5625 
Q 30.078125 56 35.796875 56 
Q 45.21875 56 50.046875 50.171875 
Q 54.890625 44.34375 54.890625 33.015625 
z
" id="DejaVuSans-110"/>
     <path d="M 52 44.1875 
Q 55.375 50.25 60.0625 53.125 
Q 64.75 56 71.09375 56 
Q 79.640625 56 84.28125 50.015625 
Q 88.921875 44.046875 88.921875 33.015625 
L 88.921875 0 
L 79.890625 0 
L 79.890625 32.71875 
Q 79.890625 40.578125 77.09375 44.375 
Q 74.3125 48.1875 68.609375 48.1875 
Q 61.625 48.1875 57.5625 43.546875 
Q 53.515625 38.921875 53.515625 30.90625 
L 53.515625 0 
L 44.484375 0 
L 44.484375 32.71875 
Q 44.484375 40.625 41.703125 44.40625 
Q 38.921875 48.1875 33.109375 48.1875 
Q 26.21875 48.1875 22.15625 43.53125 
Q 18.109375 38.875 18.109375 30.90625 
L 18.109375 0 
L 9.078125 0 
L 9.078125 54.6875 
L 18.109375 54.6875 
L 18.109375 46.1875 
Q 21.1875 51.21875 25.484375 53.609375 
Q 29.78125 56 35.6875 56 
Q 41.65625 56 45.828125 52.96875 
Q 50 49.953125 52 44.1875 
z
" id="DejaVuSans-109"/>
     <path d="M 56.203125 29.59375 
L 56.203125 25.203125 
L 14.890625 25.203125 
Q 15.484375 15.921875 20.484375 11.0625 
Q 25.484375 6.203125 34.421875 6.203125 
Q 39.59375 6.203125 44.453125 7.46875 
Q 49.3125 8.734375 54.109375 11.28125 
L 54.109375 2.78125 
Q 49.265625 0.734375 44.1875 -0.34375 
Q 39.109375 -1.421875 33.890625 -1.421875 
Q 20.796875 -1.421875 13.15625 6.1875 
Q 5.515625 13.8125 5.515625 26.8125 
Q 5.515625 40.234375 12.765625 48.109375 
Q 20.015625 56 32.328125 56 
Q 43.359375 56 49.78125 48.890625 
Q 56.203125 41.796875 56.203125 29.59375 
z
M 47.21875 32.234375 
Q 47.125 39.59375 43.09375 43.984375 
Q 39.0625 48.390625 32.421875 48.390625 
Q 24.90625 48.390625 20.390625 44.140625 
Q 15.875 39.890625 15.1875 32.171875 
z
" id="DejaVuSans-101"/>
     <path d="M 18.3125 70.21875 
L 18.3125 54.6875 
L 36.8125 54.6875 
L 36.8125 47.703125 
L 18.3125 47.703125 
L 18.3125 18.015625 
Q 18.3125 11.328125 20.140625 9.421875 
Q 21.96875 7.515625 27.59375 7.515625 
L 36.8125 7.515625 
L 36.8125 0 
L 27.59375 0 
Q 17.1875 0 13.234375 3.875 
Q 9.28125 7.765625 9.28125 18.015625 
L 9.28125 47.703125 
L 2.6875 47.703125 
L 2.6875 54.6875 
L 9.28125 54.6875 
L 9.28125 70.21875 
z
" id="DejaVuSans-116"/>
     <path d="M 48.78125 52.59375 
L 48.78125 44.1875 
Q 44.96875 46.296875 41.140625 47.34375 
Q 37.3125 48.390625 33.40625 48.390625 
Q 24.65625 48.390625 19.8125 42.84375 
Q 14.984375 37.3125 14.984375 27.296875 
Q 14.984375 17.28125 19.8125 11.734375 
Q 24.65625 6.203125 33.40625 6.203125 
Q 37.3125 6.203125 41.140625 7.25 
Q 44.96875 8.296875 48.78125 10.40625 
L 48.78125 2.09375 
Q 45.015625 0.34375 40.984375 -0.53125 
Q 36.96875 -1.421875 32.421875 -1.421875 
Q 20.0625 -1.421875 12.78125 6.34375 
Q 5.515625 14.109375 5.515625 27.296875 
Q 5.515625 40.671875 12.859375 48.328125 
Q 20.21875 56 33.015625 56 
Q 37.15625 56 41.109375 55.140625 
Q 45.0625 54.296875 48.78125 52.59375 
z
" id="DejaVuSans-99"/>
     <path id="DejaVuSans-32"/>
     <path d="M 45.40625 46.390625 
L 45.40625 75.984375 
L 54.390625 75.984375 
L 54.390625 0 
L 45.40625 0 
L 45.40625 8.203125 
Q 42.578125 3.328125 38.25 0.953125 
Q 33.9375 -1.421875 27.875 -1.421875 
Q 17.96875 -1.421875 11.734375 6.484375 
Q 5.515625 14.40625 5.515625 27.296875 
Q 5.515625 40.1875 11.734375 48.09375 
Q 17.96875 56 27.875 56 
Q 33.9375 56 38.25 53.625 
Q 42.578125 51.265625 45.40625 46.390625 
z
M 14.796875 27.296875 
Q 14.796875 17.390625 18.875 11.75 
Q 22.953125 6.109375 30.078125 6.109375 
Q 37.203125 6.109375 41.296875 11.75 
Q 45.40625 17.390625 45.40625 27.296875 
Q 45.40625 37.203125 41.296875 42.84375 
Q 37.203125 48.484375 30.078125 48.484375 
Q 22.953125 48.484375 18.875 42.84375 
Q 14.796875 37.203125 14.796875 27.296875 
z
" id="DejaVuSans-100"/>
     <path d="M 37.109375 75.984375 
L 37.109375 68.5 
L 28.515625 68.5 
Q 23.6875 68.5 21.796875 66.546875 
Q 19.921875 64.59375 19.921875 59.515625 
L 19.921875 54.6875 
L 34.71875 54.6875 
L 34.71875 47.703125 
L 19.921875 47.703125 
L 19.921875 0 
L 10.890625 0 
L 10.890625 47.703125 
L 2.296875 47.703125 
L 2.296875 54.6875 
L 10.890625 54.6875 
L 10.890625 58.5 
Q 10.890625 67.625 15.140625 71.796875 
Q 19.390625 75.984375 28.609375 75.984375 
z
" id="DejaVuSans-102"/>
     <path d="M 17.921875 72.90625 
L 17.921875 45.796875 
L 9.625 45.796875 
L 9.625 72.90625 
z
" id="DejaVuSans-39"/>
     <path d="M 34.28125 27.484375 
Q 23.390625 27.484375 19.1875 25 
Q 14.984375 22.515625 14.984375 16.5 
Q 14.984375 11.71875 18.140625 8.90625 
Q 21.296875 6.109375 26.703125 6.109375 
Q 34.1875 6.109375 38.703125 11.40625 
Q 43.21875 16.703125 43.21875 25.484375 
L 43.21875 27.484375 
z
M 52.203125 31.203125 
L 52.203125 0 
L 43.21875 0 
L 43.21875 8.296875 
Q 40.140625 3.328125 35.546875 0.953125 
Q 30.953125 -1.421875 24.3125 -1.421875 
Q 15.921875 -1.421875 10.953125 3.296875 
Q 6 8.015625 6 15.921875 
Q 6 25.140625 12.171875 29.828125 
Q 18.359375 34.515625 30.609375 34.515625 
L 43.21875 34.515625 
L 43.21875 35.40625 
Q 43.21875 41.609375 39.140625 45 
Q 35.0625 48.390625 27.6875 48.390625 
Q 23 48.390625 18.546875 47.265625 
Q 14.109375 46.140625 10.015625 43.890625 
L 10.015625 52.203125 
Q 14.9375 54.109375 19.578125 55.046875 
Q 24.21875 56 28.609375 56 
Q 40.484375 56 46.34375 49.84375 
Q 52.203125 43.703125 52.203125 31.203125 
z
" id="DejaVuSans-97"/>
    </defs>
    <g transform="translate(87.319517 16.318125)scale(0.12 -0.12)">
     <use xlink:href="#DejaVuSans-84"/>
     <use x="46.333984" xlink:href="#DejaVuSans-114"/>
     <use x="87.447266" xlink:href="#DejaVuSans-105"/>
     <use x="115.230469" xlink:href="#DejaVuSans-103"/>
     <use x="178.707031" xlink:href="#DejaVuSans-111"/>
     <use x="239.888672" xlink:href="#DejaVuSans-110"/>
     <use x="303.267578" xlink:href="#DejaVuSans-111"/>
     <use x="364.449219" xlink:href="#DejaVuSans-109"/>
     <use x="461.861328" xlink:href="#DejaVuSans-101"/>
     <use x="523.384766" xlink:href="#DejaVuSans-116"/>
     <use x="562.59375" xlink:href="#DejaVuSans-114"/>
     <use x="603.707031" xlink:href="#DejaVuSans-105"/>
     <use x="631.490234" xlink:href="#DejaVuSans-99"/>
     <use x="686.470703" xlink:href="#DejaVuSans-32"/>
     <use x="718.257812" xlink:href="#DejaVuSans-101"/>
     <use x="779.78125" xlink:href="#DejaVuSans-110"/>
     <use x="843.160156" xlink:href="#DejaVuSans-99"/>
     <use x="898.140625" xlink:href="#DejaVuSans-111"/>
     <use x="959.322266" xlink:href="#DejaVuSans-100"/>
     <use x="1022.798828" xlink:href="#DejaVuSans-105"/>
     <use x="1050.582031" xlink:href="#DejaVuSans-110"/>
     <use x="1113.960938" xlink:href="#DejaVuSans-103"/>
     <use x="1177.4375" xlink:href="#DejaVuSans-32"/>
     <use x="1209.224609" xlink:href="#DejaVuSans-102"/>
     <use x="1244.429688" xlink:href="#DejaVuSans-111"/>
     <use x="1305.611328" xlink:href="#DejaVuSans-114"/>
     <use x="1346.724609" xlink:href="#DejaVuSans-32"/>
     <use x="1378.511719" xlink:href="#DejaVuSans-116"/>
     <use x="1417.720703" xlink:href="#DejaVuSans-104"/>
     <use x="1481.099609" xlink:href="#DejaVuSans-101"/>
     <use x="1542.623047" xlink:href="#DejaVuSans-32"/>
     <use x="1574.410156" xlink:href="#DejaVuSans-39"/>
     <use x="1601.900391" xlink:href="#DejaVuSans-104"/>
     <use x="1665.279297" xlink:href="#DejaVuSans-111"/>
     <use x="1726.460938" xlink:href="#DejaVuSans-117"/>
     <use x="1789.839844" xlink:href="#DejaVuSans-114"/>
     <use x="1830.953125" xlink:href="#DejaVuSans-39"/>
     <use x="1858.443359" xlink:href="#DejaVuSans-32"/>
     <use x="1890.230469" xlink:href="#DejaVuSans-102"/>
     <use x="1925.435547" xlink:href="#DejaVuSans-101"/>
     <use x="1986.958984" xlink:href="#DejaVuSans-97"/>
     <use x="2048.238281" xlink:href="#DejaVuSans-116"/>
     <use x="2087.447266" xlink:href="#DejaVuSans-117"/>
     <use x="2150.826172" xlink:href="#DejaVuSans-114"/>
     <use x="2189.689453" xlink:href="#DejaVuSans-101"/>
    </g>
   </g>
   <g id="legend_1">
    <g id="patch_7">
     <path d="M 51.845313 289.118125 
L 128.576563 289.118125 
Q 130.576563 289.118125 130.576563 287.118125 
L 130.576563 258.205625 
Q 130.576563 256.205625 128.576563 256.205625 
L 51.845313 256.205625 
Q 49.845313 256.205625 49.845313 258.205625 
L 49.845313 287.118125 
Q 49.845313 289.118125 51.845313 289.118125 
z
" style="fill:#ffffff;opacity:0.8;stroke:#cccccc;stroke-linejoin:miter;"/>
    </g>
    <g id="line2d_18">
     <path d="M 53.845313 264.304062 
L 73.845313 264.304062 
" style="fill:none;stroke:#1f77b4;stroke-linecap:square;stroke-width:1.5;"/>
    </g>
    <g id="line2d_19"/>
    <g id="text_18">
     <!-- hour_sin -->
     <defs>
      <path d="M 50.984375 -16.609375 
L 50.984375 -23.578125 
L -0.984375 -23.578125 
L -0.984375 -16.609375 
z
" id="DejaVuSans-95"/>
      <path d="M 44.28125 53.078125 
L 44.28125 44.578125 
Q 40.484375 46.53125 36.375 47.5 
Q 32.28125 48.484375 27.875 48.484375 
Q 21.1875 48.484375 17.84375 46.4375 
Q 14.5 44.390625 14.5 40.28125 
Q 14.5 37.15625 16.890625 35.375 
Q 19.28125 33.59375 26.515625 31.984375 
L 29.59375 31.296875 
Q 39.15625 29.25 43.1875 25.515625 
Q 47.21875 21.78125 47.21875 15.09375 
Q 47.21875 7.46875 41.1875 3.015625 
Q 35.15625 -1.421875 24.609375 -1.421875 
Q 20.21875 -1.421875 15.453125 -0.5625 
Q 10.6875 0.296875 5.421875 2 
L 5.421875 11.28125 
Q 10.40625 8.6875 15.234375 7.390625 
Q 20.0625 6.109375 24.8125 6.109375 
Q 31.15625 6.109375 34.5625 8.28125 
Q 37.984375 10.453125 37.984375 14.40625 
Q 37.984375 18.0625 35.515625 20.015625 
Q 33.0625 21.96875 24.703125 23.78125 
L 21.578125 24.515625 
Q 13.234375 26.265625 9.515625 29.90625 
Q 5.8125 33.546875 5.8125 39.890625 
Q 5.8125 47.609375 11.28125 51.796875 
Q 16.75 56 26.8125 56 
Q 31.78125 56 36.171875 55.265625 
Q 40.578125 54.546875 44.28125 53.078125 
z
" id="DejaVuSans-115"/>
     </defs>
     <g transform="translate(81.845313 267.804062)scale(0.1 -0.1)">
      <use xlink:href="#DejaVuSans-104"/>
      <use x="63.378906" xlink:href="#DejaVuSans-111"/>
      <use x="124.560547" xlink:href="#DejaVuSans-117"/>
      <use x="187.939453" xlink:href="#DejaVuSans-114"/>
      <use x="229.052734" xlink:href="#DejaVuSans-95"/>
      <use x="279.052734" xlink:href="#DejaVuSans-115"/>
      <use x="331.152344" xlink:href="#DejaVuSans-105"/>
      <use x="358.935547" xlink:href="#DejaVuSans-110"/>
     </g>
    </g>
    <g id="line2d_20">
     <path d="M 53.845313 279.260312 
L 73.845313 279.260312 
" style="fill:none;stroke:#ff7f0e;stroke-linecap:square;stroke-width:1.5;"/>
    </g>
    <g id="line2d_21"/>
    <g id="text_19">
     <!-- hour_cos -->
     <g transform="translate(81.845313 282.760312)scale(0.1 -0.1)">
      <use xlink:href="#DejaVuSans-104"/>
      <use x="63.378906" xlink:href="#DejaVuSans-111"/>
      <use x="124.560547" xlink:href="#DejaVuSans-117"/>
      <use x="187.939453" xlink:href="#DejaVuSans-114"/>
      <use x="229.052734" xlink:href="#DejaVuSans-95"/>
      <use x="279.052734" xlink:href="#DejaVuSans-99"/>
      <use x="334.033203" xlink:href="#DejaVuSans-111"/>
      <use x="395.214844" xlink:href="#DejaVuSans-115"/>
     </g>
    </g>
   </g>
  </g>
  <g id="axes_2">
   <g id="patch_8">
    <path d="M 470.954403 294.118125 
L 826.045312 294.118125 
L 826.045312 22.318125 
L 470.954403 22.318125 
z
" style="fill:#ffffff;"/>
   </g>
   <g id="matplotlib.axis_3">
    <g id="xtick_7">
     <g id="line2d_22">
      <g>
       <use style="stroke:#000000;stroke-width:0.8;" x="487.094899" xlink:href="#mad289eebca" y="294.118125"/>
      </g>
     </g>
     <g id="text_20">
      <!-- 0 -->
      <g transform="translate(483.913649 308.716563)scale(0.1 -0.1)">
       <use xlink:href="#DejaVuSans-48"/>
      </g>
     </g>
    </g>
    <g id="xtick_8">
     <g id="line2d_23">
      <g>
       <use style="stroke:#000000;stroke-width:0.8;" x="549.17373" xlink:href="#mad289eebca" y="294.118125"/>
      </g>
     </g>
     <g id="text_21">
      <!-- 5 -->
      <g transform="translate(545.99248 308.716563)scale(0.1 -0.1)">
       <use xlink:href="#DejaVuSans-53"/>
      </g>
     </g>
    </g>
    <g id="xtick_9">
     <g id="line2d_24">
      <g>
       <use style="stroke:#000000;stroke-width:0.8;" x="611.25256" xlink:href="#mad289eebca" y="294.118125"/>
      </g>
     </g>
     <g id="text_22">
      <!-- 10 -->
      <g transform="translate(604.89006 308.716563)scale(0.1 -0.1)">
       <use xlink:href="#DejaVuSans-49"/>
       <use x="63.623047" xlink:href="#DejaVuSans-48"/>
      </g>
     </g>
    </g>
    <g id="xtick_10">
     <g id="line2d_25">
      <g>
       <use style="stroke:#000000;stroke-width:0.8;" x="673.33139" xlink:href="#mad289eebca" y="294.118125"/>
      </g>
     </g>
     <g id="text_23">
      <!-- 15 -->
      <g transform="translate(666.96889 308.716563)scale(0.1 -0.1)">
       <use xlink:href="#DejaVuSans-49"/>
       <use x="63.623047" xlink:href="#DejaVuSans-53"/>
      </g>
     </g>
    </g>
    <g id="xtick_11">
     <g id="line2d_26">
      <g>
       <use style="stroke:#000000;stroke-width:0.8;" x="735.41022" xlink:href="#mad289eebca" y="294.118125"/>
      </g>
     </g>
     <g id="text_24">
      <!-- 20 -->
      <g transform="translate(729.04772 308.716563)scale(0.1 -0.1)">
       <use xlink:href="#DejaVuSans-50"/>
       <use x="63.623047" xlink:href="#DejaVuSans-48"/>
      </g>
     </g>
    </g>
    <g id="xtick_12">
     <g id="line2d_27">
      <g>
       <use style="stroke:#000000;stroke-width:0.8;" x="797.489051" xlink:href="#mad289eebca" y="294.118125"/>
      </g>
     </g>
     <g id="text_25">
      <!-- 25 -->
      <g transform="translate(791.126551 308.716563)scale(0.1 -0.1)">
       <use xlink:href="#DejaVuSans-50"/>
       <use x="63.623047" xlink:href="#DejaVuSans-53"/>
      </g>
     </g>
    </g>
    <g id="text_26">
     <!-- hour -->
     <g transform="translate(637.047514 322.394687)scale(0.1 -0.1)">
      <use xlink:href="#DejaVuSans-104"/>
      <use x="63.378906" xlink:href="#DejaVuSans-111"/>
      <use x="124.560547" xlink:href="#DejaVuSans-117"/>
      <use x="187.939453" xlink:href="#DejaVuSans-114"/>
     </g>
    </g>
   </g>
   <g id="matplotlib.axis_4">
    <g id="ytick_10">
     <g id="line2d_28">
      <g>
       <use style="stroke:#000000;stroke-width:0.8;" x="470.954403" xlink:href="#mac9b39cd9e" y="281.76358"/>
      </g>
     </g>
     <g id="text_27">
      <!-- 0.0 -->
      <g transform="translate(448.051278 285.562798)scale(0.1 -0.1)">
       <use xlink:href="#DejaVuSans-48"/>
       <use x="63.623047" xlink:href="#DejaVuSans-46"/>
       <use x="95.410156" xlink:href="#DejaVuSans-48"/>
      </g>
     </g>
    </g>
    <g id="ytick_11">
     <g id="line2d_29">
      <g>
       <use style="stroke:#000000;stroke-width:0.8;" x="470.954403" xlink:href="#mac9b39cd9e" y="244.699943"/>
      </g>
     </g>
     <g id="text_28">
      <!-- 0.1 -->
      <g transform="translate(448.051278 248.499162)scale(0.1 -0.1)">
       <use xlink:href="#DejaVuSans-48"/>
       <use x="63.623047" xlink:href="#DejaVuSans-46"/>
       <use x="95.410156" xlink:href="#DejaVuSans-49"/>
      </g>
     </g>
    </g>
    <g id="ytick_12">
     <g id="line2d_30">
      <g>
       <use style="stroke:#000000;stroke-width:0.8;" x="470.954403" xlink:href="#mac9b39cd9e" y="207.636307"/>
      </g>
     </g>
     <g id="text_29">
      <!-- 0.2 -->
      <g transform="translate(448.051278 211.435526)scale(0.1 -0.1)">
       <use xlink:href="#DejaVuSans-48"/>
       <use x="63.623047" xlink:href="#DejaVuSans-46"/>
       <use x="95.410156" xlink:href="#DejaVuSans-50"/>
      </g>
     </g>
    </g>
    <g id="ytick_13">
     <g id="line2d_31">
      <g>
       <use style="stroke:#000000;stroke-width:0.8;" x="470.954403" xlink:href="#mac9b39cd9e" y="170.57267"/>
      </g>
     </g>
     <g id="text_30">
      <!-- 0.3 -->
      <defs>
       <path d="M 40.578125 39.3125 
Q 47.65625 37.796875 51.625 33 
Q 55.609375 28.21875 55.609375 21.1875 
Q 55.609375 10.40625 48.1875 4.484375 
Q 40.765625 -1.421875 27.09375 -1.421875 
Q 22.515625 -1.421875 17.65625 -0.515625 
Q 12.796875 0.390625 7.625 2.203125 
L 7.625 11.71875 
Q 11.71875 9.328125 16.59375 8.109375 
Q 21.484375 6.890625 26.8125 6.890625 
Q 36.078125 6.890625 40.9375 10.546875 
Q 45.796875 14.203125 45.796875 21.1875 
Q 45.796875 27.640625 41.28125 31.265625 
Q 36.765625 34.90625 28.71875 34.90625 
L 20.21875 34.90625 
L 20.21875 43.015625 
L 29.109375 43.015625 
Q 36.375 43.015625 40.234375 45.921875 
Q 44.09375 48.828125 44.09375 54.296875 
Q 44.09375 59.90625 40.109375 62.90625 
Q 36.140625 65.921875 28.71875 65.921875 
Q 24.65625 65.921875 20.015625 65.03125 
Q 15.375 64.15625 9.8125 62.3125 
L 9.8125 71.09375 
Q 15.4375 72.65625 20.34375 73.4375 
Q 25.25 74.21875 29.59375 74.21875 
Q 40.828125 74.21875 47.359375 69.109375 
Q 53.90625 64.015625 53.90625 55.328125 
Q 53.90625 49.265625 50.4375 45.09375 
Q 46.96875 40.921875 40.578125 39.3125 
z
" id="DejaVuSans-51"/>
      </defs>
      <g transform="translate(448.051278 174.371889)scale(0.1 -0.1)">
       <use xlink:href="#DejaVuSans-48"/>
       <use x="63.623047" xlink:href="#DejaVuSans-46"/>
       <use x="95.410156" xlink:href="#DejaVuSans-51"/>
      </g>
     </g>
    </g>
    <g id="ytick_14">
     <g id="line2d_32">
      <g>
       <use style="stroke:#000000;stroke-width:0.8;" x="470.954403" xlink:href="#mac9b39cd9e" y="133.509034"/>
      </g>
     </g>
     <g id="text_31">
      <!-- 0.4 -->
      <defs>
       <path d="M 37.796875 64.3125 
L 12.890625 25.390625 
L 37.796875 25.390625 
z
M 35.203125 72.90625 
L 47.609375 72.90625 
L 47.609375 25.390625 
L 58.015625 25.390625 
L 58.015625 17.1875 
L 47.609375 17.1875 
L 47.609375 0 
L 37.796875 0 
L 37.796875 17.1875 
L 4.890625 17.1875 
L 4.890625 26.703125 
z
" id="DejaVuSans-52"/>
      </defs>
      <g transform="translate(448.051278 137.308253)scale(0.1 -0.1)">
       <use xlink:href="#DejaVuSans-48"/>
       <use x="63.623047" xlink:href="#DejaVuSans-46"/>
       <use x="95.410156" xlink:href="#DejaVuSans-52"/>
      </g>
     </g>
    </g>
    <g id="ytick_15">
     <g id="line2d_33">
      <g>
       <use style="stroke:#000000;stroke-width:0.8;" x="470.954403" xlink:href="#mac9b39cd9e" y="96.445398"/>
      </g>
     </g>
     <g id="text_32">
      <!-- 0.5 -->
      <g transform="translate(448.051278 100.244616)scale(0.1 -0.1)">
       <use xlink:href="#DejaVuSans-48"/>
       <use x="63.623047" xlink:href="#DejaVuSans-46"/>
       <use x="95.410156" xlink:href="#DejaVuSans-53"/>
      </g>
     </g>
    </g>
    <g id="ytick_16">
     <g id="line2d_34">
      <g>
       <use style="stroke:#000000;stroke-width:0.8;" x="470.954403" xlink:href="#mac9b39cd9e" y="59.381761"/>
      </g>
     </g>
     <g id="text_33">
      <!-- 0.6 -->
      <defs>
       <path d="M 33.015625 40.375 
Q 26.375 40.375 22.484375 35.828125 
Q 18.609375 31.296875 18.609375 23.390625 
Q 18.609375 15.53125 22.484375 10.953125 
Q 26.375 6.390625 33.015625 6.390625 
Q 39.65625 6.390625 43.53125 10.953125 
Q 47.40625 15.53125 47.40625 23.390625 
Q 47.40625 31.296875 43.53125 35.828125 
Q 39.65625 40.375 33.015625 40.375 
z
M 52.59375 71.296875 
L 52.59375 62.3125 
Q 48.875 64.0625 45.09375 64.984375 
Q 41.3125 65.921875 37.59375 65.921875 
Q 27.828125 65.921875 22.671875 59.328125 
Q 17.53125 52.734375 16.796875 39.40625 
Q 19.671875 43.65625 24.015625 45.921875 
Q 28.375 48.1875 33.59375 48.1875 
Q 44.578125 48.1875 50.953125 41.515625 
Q 57.328125 34.859375 57.328125 23.390625 
Q 57.328125 12.15625 50.6875 5.359375 
Q 44.046875 -1.421875 33.015625 -1.421875 
Q 20.359375 -1.421875 13.671875 8.265625 
Q 6.984375 17.96875 6.984375 36.375 
Q 6.984375 53.65625 15.1875 63.9375 
Q 23.390625 74.21875 37.203125 74.21875 
Q 40.921875 74.21875 44.703125 73.484375 
Q 48.484375 72.75 52.59375 71.296875 
z
" id="DejaVuSans-54"/>
      </defs>
      <g transform="translate(448.051278 63.18098)scale(0.1 -0.1)">
       <use xlink:href="#DejaVuSans-48"/>
       <use x="63.623047" xlink:href="#DejaVuSans-46"/>
       <use x="95.410156" xlink:href="#DejaVuSans-54"/>
      </g>
     </g>
    </g>
    <g id="ytick_17">
     <g id="line2d_35">
      <g>
       <use style="stroke:#000000;stroke-width:0.8;" x="470.954403" xlink:href="#mac9b39cd9e" y="22.318125"/>
      </g>
     </g>
     <g id="text_34">
      <!-- 0.7 -->
      <g transform="translate(448.051278 26.117344)scale(0.1 -0.1)">
       <use xlink:href="#DejaVuSans-48"/>
       <use x="63.623047" xlink:href="#DejaVuSans-46"/>
       <use x="95.410156" xlink:href="#DejaVuSans-55"/>
      </g>
     </g>
    </g>
   </g>
   <g id="line2d_36">
    <path clip-path="url(#p8f5e4123d9)" d="M 487.094899 219.990852 
L 488.710565 231.28107 
L 490.32623 241.104304 
L 491.941895 249.562646 
L 493.55756 256.75819 
L 495.173226 262.793026 
L 496.465758 266.853792 
L 497.75829 270.289314 
L 499.050822 273.151866 
L 500.343354 275.493716 
L 501.635887 277.367138 
L 502.928419 278.824401 
L 504.220951 279.917776 
L 505.513483 280.699536 
L 506.806015 281.22195 
L 508.421681 281.589896 
L 510.360479 281.748087 
L 515.530608 281.76358 
L 713.288035 281.683342 
L 714.9037 281.437181 
L 716.196232 281.048383 
L 717.488764 280.432406 
L 718.781296 279.53698 
L 720.073829 278.309834 
L 721.366361 276.698696 
L 722.658893 274.651295 
L 723.951425 272.115361 
L 725.243957 269.038622 
L 726.53649 265.368807 
L 727.829022 261.053645 
L 729.121554 256.040865 
L 730.414086 250.278196 
L 732.029751 241.940696 
L 733.645417 232.247729 
L 735.261082 221.097203 
L 736.876747 208.437925 
L 738.815546 191.569594 
L 741.40061 167.101232 
L 749.155803 92.055638 
L 751.094601 75.702981 
L 752.710267 63.597881 
L 754.325932 53.203214 
L 755.618464 46.324809 
L 756.587863 42.107357 
L 757.557262 38.770283 
L 758.526662 36.379743 
L 759.172928 35.344571 
L 759.819194 34.779086 
L 760.142327 34.678601 
L 760.46546 34.702617 
L 761.111726 35.11964 
L 761.757992 36.012381 
L 762.404258 37.361237 
L 763.050524 39.146607 
L 764.019923 42.600247 
L 764.989323 46.925784 
L 766.281855 53.935108 
L 767.574387 62.220047 
L 769.190052 74.131161 
L 771.128851 90.300791 
L 773.390782 111.083463 
L 777.268379 149.189004 
L 781.145975 186.77887 
L 783.407906 206.78445 
L 785.346705 222.009007 
L 786.96237 233.043789 
L 788.578035 242.628865 
L 790.193701 250.866326 
L 791.809366 257.858266 
L 793.425031 263.706775 
L 794.717563 267.630919 
L 796.010095 270.940877 
L 797.302628 273.688921 
L 798.59516 275.927321 
L 799.887692 277.70835 
L 801.180224 279.084278 
L 802.472756 280.107375 
L 803.765289 280.829914 
L 805.057821 281.304166 
L 806.673486 281.627457 
L 808.612284 281.754868 
L 809.904817 281.76358 
L 809.904817 281.76358 
" style="fill:none;stroke:#393b79;stroke-linecap:square;stroke-width:1.5;"/>
   </g>
   <g id="line2d_37">
    <path clip-path="url(#p8f5e4123d9)" d="M 487.094899 34.67267 
L 487.418032 34.735025 
L 488.064298 35.226512 
L 488.710565 36.1907 
L 489.356831 37.607988 
L 490.32623 40.540603 
L 491.295629 44.382435 
L 492.265028 49.067326 
L 493.55756 56.510931 
L 495.173226 67.518802 
L 496.788891 80.133444 
L 498.727689 96.960716 
L 501.312753 121.395442 
L 509.39108 199.334816 
L 511.329878 215.434376 
L 512.945543 227.28863 
L 514.561209 237.641631 
L 516.176874 246.592045 
L 517.792539 254.241964 
L 519.408204 260.69348 
L 520.700737 265.060449 
L 521.993269 268.778051 
L 523.285801 271.898555 
L 524.578333 274.474234 
L 525.870865 276.557358 
L 527.163398 278.200199 
L 528.45593 279.455027 
L 529.748462 280.374114 
L 531.040994 281.009731 
L 532.333526 281.414149 
L 533.949192 281.67418 
L 536.211123 281.76292 
L 594.698205 281.76358 
L 738.169279 281.678843 
L 739.784945 281.425796 
L 741.077477 281.029227 
L 742.370009 280.403468 
L 743.662541 279.49625 
L 744.955074 278.255302 
L 746.247606 276.628351 
L 747.540138 274.563127 
L 748.83267 272.007359 
L 750.125202 268.908776 
L 751.417735 265.215107 
L 752.710267 260.87408 
L 754.002799 255.833425 
L 755.295331 250.04087 
L 756.910996 241.663186 
L 758.526662 231.926893 
L 760.142327 220.7299 
L 761.757992 208.026367 
L 763.69679 191.117326 
L 766.604988 163.451039 
L 773.713915 94.494075 
L 775.975846 75.30801 
L 777.591512 63.250971 
L 779.207177 52.913789 
L 780.499709 46.088159 
L 781.469108 41.914245 
L 782.438507 38.624102 
L 783.084773 36.954326 
L 783.73104 35.726342 
L 784.377306 34.959751 
L 785.023572 34.674154 
L 785.346705 34.71736 
L 785.992971 35.171673 
L 786.639237 36.100195 
L 787.285503 37.483325 
L 787.931769 39.301461 
L 788.901168 42.801423 
L 789.870568 47.16989 
L 791.1631 54.231175 
L 792.455632 62.562045 
L 794.071297 74.522091 
L 796.010095 90.737999 
L 798.59516 114.653107 
L 803.442156 162.474236 
L 806.673486 193.145591 
L 808.935417 212.484801 
L 809.904817 219.990852 
L 809.904817 219.990852 
" style="fill:none;stroke:#5254a3;stroke-linecap:square;stroke-width:1.5;"/>
   </g>
   <g id="line2d_38">
    <path clip-path="url(#p8f5e4123d9)" d="M 487.094899 219.990852 
L 488.710565 207.199621 
L 490.972496 187.239 
L 493.880693 159.290998 
L 500.020221 99.454076 
L 502.282153 79.72434 
L 504.220951 64.824759 
L 505.836616 54.231175 
L 507.129148 47.16989 
L 508.098548 42.801423 
L 509.067947 39.301461 
L 510.037346 36.736159 
L 510.683612 35.577883 
L 511.329878 34.884015 
L 511.976144 34.674154 
L 512.299277 34.755603 
L 512.945543 35.284147 
L 513.591809 36.283885 
L 514.238076 37.735215 
L 515.207475 40.716067 
L 516.176874 44.602741 
L 517.146273 49.329083 
L 518.438805 56.822678 
L 520.05447 67.884555 
L 521.670136 80.54378 
L 523.608934 97.41211 
L 526.193998 121.880472 
L 533.949192 196.926067 
L 535.88799 213.278723 
L 537.503655 225.390515 
L 539.11932 235.990977 
L 540.734986 245.171576 
L 542.350651 253.034402 
L 543.966316 259.681548 
L 545.258848 264.192582 
L 546.551381 268.04319 
L 547.843913 271.285644 
L 549.136445 273.972216 
L 550.428977 276.155175 
L 551.721509 277.886794 
L 553.014042 279.219342 
L 554.306574 280.205093 
L 555.599106 280.896315 
L 556.891638 281.345282 
L 558.507303 281.645448 
L 560.446102 281.757549 
L 570.140093 281.76358 
L 763.050524 281.67418 
L 764.66619 281.414149 
L 765.958722 281.009731 
L 767.251254 280.374114 
L 768.543786 279.455027 
L 769.836318 278.200199 
L 771.128851 276.557358 
L 772.421383 274.474234 
L 773.713915 271.898555 
L 775.006447 268.778051 
L 776.298979 265.060449 
L 777.591512 260.69348 
L 778.884044 255.624872 
L 780.499709 248.222801 
L 782.115374 239.540653 
L 783.73104 229.476337 
L 785.346705 217.928091 
L 787.285503 202.141215 
L 789.547434 181.667878 
L 793.101898 146.964049 
L 797.625761 102.89449 
L 799.887692 82.822233 
L 801.82649 67.518802 
L 803.442156 56.510931 
L 804.734688 49.067326 
L 806.02722 43.004884 
L 806.996619 39.458774 
L 807.966018 36.843931 
L 808.612284 35.650743 
L 809.258551 34.920456 
L 809.904817 34.67267 
L 809.904817 34.67267 
" style="fill:none;stroke:#9c9ede;stroke-linecap:square;stroke-width:1.5;"/>
   </g>
   <g id="line2d_39">
    <path clip-path="url(#p8f5e4123d9)" d="M 487.094899 281.76358 
L 490.003097 281.664346 
L 491.618762 281.390059 
L 492.911294 280.969712 
L 494.203826 280.314146 
L 495.496359 279.371088 
L 496.788891 278.088268 
L 498.081423 276.413415 
L 499.373955 274.294258 
L 500.666487 271.678525 
L 501.95902 268.513946 
L 503.251552 264.748249 
L 504.544084 260.329164 
L 505.836616 255.204419 
L 507.452281 247.726521 
L 509.067947 238.962265 
L 510.683612 228.809558 
L 512.299277 217.167144 
L 514.238076 201.282492 
L 516.500007 180.729385 
L 520.05447 145.974842 
L 524.578333 101.972671 
L 526.840264 81.98952 
L 528.779063 66.791869 
L 530.394728 55.892879 
L 531.68726 48.54995 
L 532.979792 42.600247 
L 533.949192 39.146607 
L 534.918591 36.631019 
L 535.564857 35.507771 
L 536.211123 34.850439 
L 536.534256 34.702617 
L 536.857389 34.678601 
L 537.180522 34.779086 
L 537.826788 35.344571 
L 538.473054 36.379743 
L 539.11932 37.864999 
L 540.08872 40.893912 
L 541.058119 44.825256 
L 542.027518 49.592874 
L 543.32005 57.136227 
L 544.935715 68.25182 
L 546.551381 80.955337 
L 548.490179 97.864379 
L 551.398376 125.530665 
L 558.507303 194.48763 
L 560.769235 213.673695 
L 562.3849 225.738855 
L 564.000565 236.294106 
L 565.616231 245.432635 
L 567.231896 253.256534 
L 568.847561 259.867894 
L 570.140093 264.35256 
L 571.432625 268.178811 
L 572.725158 271.398918 
L 574.01769 274.065153 
L 575.310222 276.229787 
L 576.602754 277.94509 
L 577.895286 279.263334 
L 579.187819 280.23679 
L 580.480351 280.917728 
L 581.772883 281.358421 
L 583.388548 281.651072 
L 585.327347 281.758302 
L 595.990737 281.76358 
L 787.931769 281.669349 
L 789.547434 281.402238 
L 790.839967 280.989894 
L 792.132499 280.344341 
L 793.425031 279.413307 
L 794.717563 278.144522 
L 796.010095 276.485714 
L 797.302628 274.384612 
L 798.59516 271.788945 
L 799.887692 268.646441 
L 801.180224 264.904831 
L 802.472756 260.511843 
L 803.765289 255.415205 
L 805.380954 247.975269 
L 806.996619 239.252115 
L 808.612284 229.143652 
L 809.904817 219.990852 
L 809.904817 219.990852 
" style="fill:none;stroke:#8ca252;stroke-linecap:square;stroke-width:1.5;"/>
   </g>
   <g id="line2d_40">
    <path clip-path="url(#p8f5e4123d9)" d="M 487.094899 281.76358 
L 514.884342 281.65917 
L 516.500007 281.377609 
L 517.792539 280.949182 
L 519.085071 280.283525 
L 520.377603 279.328366 
L 521.670136 278.031435 
L 522.962668 276.340459 
L 524.2552 274.20317 
L 525.547732 271.567294 
L 526.840264 268.380562 
L 528.132797 264.590701 
L 529.425329 260.145441 
L 530.717861 254.992512 
L 532.333526 247.476556 
L 533.949192 238.671101 
L 535.564857 228.474053 
L 537.180522 216.784539 
L 539.11932 200.85152 
L 541.381252 180.259138 
L 544.935715 145.480193 
L 549.459578 101.512935 
L 551.721509 81.574946 
L 553.660308 66.430706 
L 555.275973 55.586592 
L 556.568505 48.294349 
L 557.861037 42.401363 
L 558.830436 38.994219 
L 559.799836 36.52852 
L 560.446102 35.440416 
L 561.092368 34.819735 
L 561.415501 34.690804 
L 561.738634 34.686 
L 562.061767 34.805463 
L 562.708033 35.407775 
L 563.354299 36.478264 
L 564.000565 37.99733 
L 564.969964 41.074131 
L 565.939364 45.049969 
L 567.231896 51.635248 
L 568.524428 59.544392 
L 570.140093 71.053614 
L 572.078892 86.84049 
L 574.340823 107.313827 
L 577.895286 142.017656 
L 582.419149 186.087214 
L 584.68108 206.159472 
L 586.619879 221.463029 
L 588.235544 232.567186 
L 589.851209 242.216924 
L 591.466875 250.514336 
L 593.08254 257.561513 
L 594.698205 263.460549 
L 595.990737 267.421721 
L 597.283269 270.765692 
L 598.575802 273.544734 
L 599.868334 275.811116 
L 601.160866 277.617111 
L 602.453398 279.014989 
L 603.74593 280.057021 
L 605.038463 280.795479 
L 606.330995 281.282634 
L 607.94666 281.617814 
L 609.885458 281.753271 
L 616.671252 281.76358 
L 809.904817 281.76358 
L 809.904817 281.76358 
" style="fill:none;stroke:#cedb9c;stroke-linecap:square;stroke-width:1.5;"/>
   </g>
   <g id="line2d_41">
    <path clip-path="url(#p8f5e4123d9)" d="M 487.094899 281.76358 
L 539.765586 281.653816 
L 541.381252 281.364886 
L 542.673784 280.928301 
L 543.966316 280.252476 
L 545.258848 279.285138 
L 546.551381 277.974018 
L 547.843913 276.266843 
L 549.136445 274.111344 
L 550.428977 271.455248 
L 551.721509 268.246285 
L 553.014042 264.432183 
L 554.306574 259.960672 
L 555.599106 254.77948 
L 557.214771 247.22537 
L 558.830436 238.378619 
L 560.446102 228.137134 
L 562.061767 216.400523 
L 564.000565 200.419487 
L 566.262497 179.788234 
L 569.81696 144.985527 
L 574.340823 101.053992 
L 576.602754 81.161571 
L 578.541553 66.071091 
L 580.157218 55.282143 
L 581.44975 48.040818 
L 582.742282 42.204782 
L 583.711681 38.844308 
L 584.68108 36.428671 
L 585.327347 35.375826 
L 585.973613 34.791913 
L 586.296746 34.681932 
L 586.619879 34.696344 
L 586.943012 34.834727 
L 587.589278 35.473748 
L 588.235544 36.579439 
L 588.88181 38.132199 
L 589.851209 41.256714 
L 590.820608 45.276874 
L 592.113141 51.91597 
L 593.405673 59.8729 
L 595.021338 71.433373 
L 596.960136 87.269311 
L 599.222068 107.782736 
L 602.776531 142.512241 
L 607.300394 186.548512 
L 609.562325 206.576419 
L 611.501124 221.827382 
L 613.116789 232.885265 
L 614.732454 242.49187 
L 616.348119 250.749291 
L 617.963785 257.759619 
L 619.57945 263.624947 
L 620.871982 267.561414 
L 622.164514 270.88269 
L 623.457047 273.641047 
L 624.749579 275.888756 
L 626.042111 277.678087 
L 627.334643 279.061312 
L 628.627175 280.090702 
L 629.919708 280.818528 
L 631.21224 281.297061 
L 632.827905 281.624291 
L 634.766703 281.754355 
L 641.87563 281.76358 
L 809.904817 281.76358 
L 809.904817 281.76358 
" style="fill:none;stroke:#bd9e39;stroke-linecap:square;stroke-width:1.5;"/>
   </g>
   <g id="line2d_42">
    <path clip-path="url(#p8f5e4123d9)" d="M 487.094899 281.76358 
L 564.323698 281.681113 
L 565.939364 281.431521 
L 567.231896 281.038847 
L 568.524428 280.417989 
L 569.81696 279.516677 
L 571.109492 278.282639 
L 572.402025 276.663604 
L 573.694557 274.607302 
L 574.987089 272.06146 
L 576.279621 268.973809 
L 577.572153 265.292077 
L 578.864686 260.963992 
L 580.157218 255.937284 
L 581.44975 250.159682 
L 583.065415 241.802102 
L 584.68108 232.087484 
L 586.296746 220.913736 
L 587.912411 208.232298 
L 589.851209 191.343569 
L 592.436274 166.858563 
L 600.191467 91.835411 
L 602.130265 75.505329 
L 603.74593 63.424223 
L 605.361596 53.058262 
L 606.654128 46.206216 
L 607.623527 42.010511 
L 608.592926 38.696881 
L 609.562325 36.331481 
L 610.208591 35.314011 
L 610.854858 34.766982 
L 611.177991 34.676008 
L 611.501124 34.709622 
L 612.14739 35.145305 
L 612.793656 36.055951 
L 613.439922 37.421959 
L 614.086188 39.223726 
L 615.055587 42.700549 
L 616.024986 47.047572 
L 617.317519 54.082906 
L 618.610051 62.39084 
L 620.225716 74.326456 
L 622.164514 90.519268 
L 624.426446 111.320412 
L 628.304042 149.43613 
L 632.181639 187.009034 
L 634.44357 206.992185 
L 636.382369 222.190264 
L 637.998034 233.20197 
L 639.613699 242.76554 
L 641.229364 250.983066 
L 642.84503 257.956641 
L 644.460695 263.788357 
L 645.753227 267.700196 
L 647.045759 270.998855 
L 648.338291 273.736605 
L 649.630824 275.965718 
L 650.923356 277.738463 
L 652.215888 279.107112 
L 653.50842 280.123937 
L 654.800952 280.841209 
L 656.093485 281.311197 
L 657.70915 281.630574 
L 659.647948 281.755361 
L 667.403141 281.76358 
L 809.904817 281.76358 
L 809.904817 281.76358 
" style="fill:none;stroke:#e7ba52;stroke-linecap:square;stroke-width:1.5;"/>
   </g>
   <g id="line2d_43">
    <path clip-path="url(#p8f5e4123d9)" d="M 487.094899 281.76358 
L 589.204943 281.676532 
L 590.820608 281.420006 
L 592.113141 281.019522 
L 593.405673 280.388844 
L 594.698205 279.475701 
L 595.990737 278.227822 
L 597.283269 276.592936 
L 598.575802 274.518771 
L 599.868334 271.953058 
L 601.160866 268.843524 
L 602.453398 265.137898 
L 603.74593 260.78391 
L 605.038463 255.729288 
L 606.654128 248.346113 
L 608.269793 239.684432 
L 609.885458 229.642153 
L 611.501124 218.117432 
L 613.439922 202.355218 
L 615.701853 181.902077 
L 618.933184 150.424401 
L 623.78018 103.125427 
L 626.042111 83.031147 
L 627.980909 67.701489 
L 629.596575 56.666578 
L 630.889107 49.197949 
L 632.181639 43.107468 
L 633.151038 39.538349 
L 634.120437 36.898801 
L 634.766703 35.688201 
L 635.412969 34.939747 
L 636.059236 34.673042 
L 636.382369 34.725828 
L 637.028635 35.198742 
L 637.674901 36.145112 
L 638.321167 37.545335 
L 639.290566 40.453768 
L 640.259965 44.273112 
L 641.229364 48.937213 
L 642.521897 56.355736 
L 643.814429 65.001624 
L 645.430094 77.296072 
L 647.368892 93.826187 
L 649.953957 118.012471 
L 658.678549 201.92694 
L 660.617347 217.73839 
L 662.233013 229.31017 
L 663.848678 239.396548 
L 665.464343 248.099187 
L 667.080008 255.520178 
L 668.695674 261.761615 
L 669.988206 265.97409 
L 671.280738 269.54926 
L 672.57327 272.539396 
L 673.865802 274.996769 
L 675.158335 276.97365 
L 676.450867 278.52231 
L 677.743399 279.69502 
L 679.035931 280.544052 
L 680.328463 281.121676 
L 681.620996 281.480163 
L 683.236661 281.699744 
L 685.821725 281.76358 
L 809.904817 281.76358 
L 809.904817 281.76358 
" style="fill:none;stroke:#843c39;stroke-linecap:square;stroke-width:1.5;"/>
   </g>
   <g id="line2d_44">
    <path clip-path="url(#p8f5e4123d9)" d="M 487.094899 281.76358 
L 614.086188 281.671785 
L 615.701853 281.408227 
L 616.994386 280.999856 
L 618.286918 280.35928 
L 619.57945 279.43423 
L 620.871982 278.172432 
L 622.164514 276.521618 
L 623.457047 274.429514 
L 624.749579 271.843851 
L 626.042111 268.712357 
L 627.334643 264.982761 
L 628.627175 260.602791 
L 629.919708 255.520178 
L 631.535373 248.099187 
L 633.151038 239.396548 
L 634.766703 229.31017 
L 636.382369 217.73839 
L 638.321167 201.92694 
L 640.583098 181.433508 
L 644.137562 146.716761 
L 648.661424 102.663745 
L 650.923356 82.613612 
L 652.862154 67.336495 
L 654.477819 56.355736 
L 655.770352 48.937213 
L 657.062884 42.902869 
L 658.032283 39.379811 
L 659.001682 36.789717 
L 659.647948 35.61397 
L 660.294214 34.901878 
L 660.94048 34.673042 
L 661.263613 34.744951 
L 661.90988 35.25498 
L 662.556146 36.236958 
L 663.202412 37.671281 
L 664.171811 40.628037 
L 665.14121 44.492311 
L 666.110609 49.197949 
L 667.403141 56.666578 
L 669.018807 67.701489 
L 670.634472 80.338459 
L 672.57327 97.186303 
L 675.158335 121.637905 
L 682.913528 196.705595 
L 684.852326 213.080738 
L 686.467991 225.215805 
L 688.083657 235.838909 
L 689.699322 245.040578 
L 691.314987 252.922905 
L 692.930652 259.587981 
L 694.223185 264.112227 
L 695.515717 267.975043 
L 696.808249 271.228699 
L 698.100781 273.925468 
L 699.393313 276.117619 
L 700.685846 277.857424 
L 701.978378 279.197154 
L 703.27091 280.189081 
L 704.563442 280.885475 
L 705.855974 281.338607 
L 707.47164 281.642567 
L 709.410438 281.757147 
L 718.781296 281.76358 
L 809.904817 281.76358 
L 809.904817 281.76358 
" style="fill:none;stroke:#d6616b;stroke-linecap:square;stroke-width:1.5;"/>
   </g>
   <g id="line2d_45">
    <path clip-path="url(#p8f5e4123d9)" d="M 487.094899 281.76358 
L 638.967433 281.666869 
L 640.583098 281.396182 
L 641.87563 280.979847 
L 643.168163 280.329296 
L 644.460695 279.39226 
L 645.753227 278.116467 
L 647.045759 276.449646 
L 648.338291 274.339526 
L 649.630824 271.733836 
L 650.923356 268.580305 
L 652.215888 264.826661 
L 653.50842 260.420634 
L 654.800952 255.309952 
L 656.416618 247.851047 
L 658.032283 239.107354 
L 659.647948 228.976781 
L 661.263613 217.357916 
L 663.202412 201.497577 
L 665.464343 180.96426 
L 669.018807 146.222156 
L 673.542669 102.202834 
L 675.804601 82.197254 
L 677.743399 66.973028 
L 679.359064 56.046709 
L 680.651596 48.678524 
L 681.944129 42.700549 
L 682.913528 39.223726 
L 683.882927 36.68326 
L 684.529193 35.542483 
L 685.175459 34.866868 
L 685.498592 34.709622 
L 685.821725 34.676008 
L 686.144858 34.766982 
L 686.791124 35.314011 
L 687.437391 36.331481 
L 688.083657 37.799788 
L 689.053056 40.804692 
L 690.022455 44.713723 
L 690.991854 49.460724 
L 692.284386 56.979227 
L 693.900052 68.067999 
L 695.515717 80.749406 
L 697.454515 97.638136 
L 700.039579 122.123142 
L 707.794773 197.146293 
L 709.733571 213.476376 
L 711.349236 225.564865 
L 712.964902 236.14271 
L 714.580567 245.302261 
L 716.196232 253.145612 
L 717.811897 259.774853 
L 719.104429 264.272693 
L 720.396962 268.111113 
L 721.689494 271.342384 
L 722.982026 274.018777 
L 724.274558 276.192564 
L 725.56709 277.916015 
L 726.859623 279.241402 
L 728.152155 280.220995 
L 729.444687 280.907066 
L 730.737219 281.351886 
L 732.352885 281.648283 
L 734.291683 281.757934 
L 744.63194 281.76358 
L 809.904817 281.76358 
L 809.904817 281.76358 
" style="fill:none;stroke:#7b4173;stroke-linecap:square;stroke-width:1.5;"/>
   </g>
   <g id="line2d_46">
    <path clip-path="url(#p8f5e4123d9)" d="M 487.094899 281.76358 
L 663.848678 281.66178 
L 665.464343 281.383868 
L 666.756875 280.959491 
L 668.049408 280.298889 
L 669.34194 279.34979 
L 670.634472 278.059924 
L 671.927004 276.37702 
L 673.219536 274.248806 
L 674.512069 271.623011 
L 675.804601 268.447365 
L 677.097133 264.669596 
L 678.389665 260.237433 
L 679.682197 255.098605 
L 681.297863 247.601691 
L 682.913528 238.816847 
L 684.529193 228.641982 
L 686.144858 216.976018 
L 688.083657 201.06714 
L 690.345588 180.494344 
L 693.900052 145.72752 
L 698.423914 101.742704 
L 700.685846 81.782083 
L 702.624644 66.611094 
L 704.240309 55.739506 
L 705.532841 48.421892 
L 706.825374 42.500518 
L 707.794773 39.070104 
L 708.764172 36.579439 
L 709.410438 35.473748 
L 710.056704 34.834727 
L 710.379837 34.696344 
L 710.70297 34.681932 
L 711.026103 34.791913 
L 711.672369 35.375826 
L 712.318635 36.428671 
L 712.964902 37.930846 
L 713.934301 40.983725 
L 714.9037 44.937338 
L 715.873099 49.725529 
L 717.165631 57.293674 
L 718.781296 68.436017 
L 720.396962 81.161571 
L 722.658893 101.053992 
L 725.56709 128.95502 
L 732.029751 191.795401 
L 734.291683 211.284103 
L 736.230481 225.912485 
L 737.846146 236.445167 
L 739.461812 245.562698 
L 741.077477 253.367169 
L 742.693142 259.960672 
L 743.985674 264.432183 
L 745.278207 268.246285 
L 746.570739 271.455248 
L 747.863271 274.111344 
L 749.155803 276.266843 
L 750.448335 277.974018 
L 751.740868 279.285138 
L 753.0334 280.252476 
L 754.325932 280.928301 
L 755.618464 281.364886 
L 757.234129 281.653816 
L 759.172928 281.758653 
L 770.482584 281.76358 
L 809.904817 281.76358 
L 809.904817 281.76358 
" style="fill:none;stroke:#ce6dbd;stroke-linecap:square;stroke-width:1.5;"/>
   </g>
   <g id="line2d_47">
    <path clip-path="url(#p8f5e4123d9)" d="M 487.094899 281.76358 
L 688.729923 281.656515 
L 690.345588 281.371282 
L 691.63812 280.938786 
L 692.930652 280.268054 
L 694.223185 279.306815 
L 695.515717 278.002799 
L 696.808249 276.303734 
L 698.100781 274.157349 
L 699.393313 271.511373 
L 700.685846 268.313535 
L 701.978378 264.511563 
L 703.27091 260.053188 
L 704.563442 254.886137 
L 706.179107 247.351116 
L 707.794773 238.525025 
L 709.410438 228.30577 
L 711.026103 216.592707 
L 712.964902 200.635636 
L 715.226833 180.023767 
L 718.781296 145.232862 
L 723.305159 101.283364 
L 725.56709 81.368108 
L 727.505889 66.250704 
L 729.121554 55.434138 
L 730.414086 48.167325 
L 731.706618 42.302784 
L 732.676018 38.918953 
L 733.645417 36.478264 
L 734.291683 35.407775 
L 734.937949 34.805463 
L 735.261082 34.686 
L 735.584215 34.690804 
L 735.907348 34.819735 
L 736.553614 35.440416 
L 737.19988 36.52852 
L 737.846146 38.064448 
L 738.815546 41.165127 
L 739.784945 45.163148 
L 741.077477 51.775364 
L 742.370009 59.708431 
L 743.985674 71.243315 
L 745.924473 87.054765 
L 748.186404 107.548197 
L 751.740868 142.264944 
L 756.26473 186.31796 
L 758.526662 206.368093 
L 760.46546 221.64539 
L 762.081125 232.726397 
L 763.69679 242.354557 
L 765.312456 250.631961 
L 766.928121 257.660702 
L 768.543786 263.542872 
L 769.836318 267.491681 
L 771.128851 270.824296 
L 772.421383 273.592985 
L 773.713915 275.850021 
L 775.006447 277.647674 
L 776.298979 279.038216 
L 777.591512 280.073918 
L 778.884044 280.80705 
L 780.176576 281.289884 
L 781.792241 281.621077 
L 783.73104 281.753823 
L 790.839967 281.76358 
L 809.904817 281.76358 
L 809.904817 281.76358 
" style="fill:none;stroke:#de9ed6;stroke-linecap:square;stroke-width:1.5;"/>
   </g>
   <g id="patch_9">
    <path d="M 470.954403 294.118125 
L 470.954403 22.318125 
" style="fill:none;stroke:#000000;stroke-linecap:square;stroke-linejoin:miter;stroke-width:0.8;"/>
   </g>
   <g id="patch_10">
    <path d="M 826.045312 294.118125 
L 826.045312 22.318125 
" style="fill:none;stroke:#000000;stroke-linecap:square;stroke-linejoin:miter;stroke-width:0.8;"/>
   </g>
   <g id="patch_11">
    <path d="M 470.954403 294.118125 
L 826.045312 294.118125 
" style="fill:none;stroke:#000000;stroke-linecap:square;stroke-linejoin:miter;stroke-width:0.8;"/>
   </g>
   <g id="patch_12">
    <path d="M 470.954403 22.318125 
L 826.045312 22.318125 
" style="fill:none;stroke:#000000;stroke-linecap:square;stroke-linejoin:miter;stroke-width:0.8;"/>
   </g>
   <g id="text_35">
    <!-- Periodic spline-based encoding for the 'hour' feature -->
    <defs>
     <path d="M 19.671875 64.796875 
L 19.671875 37.40625 
L 32.078125 37.40625 
Q 38.96875 37.40625 42.71875 40.96875 
Q 46.484375 44.53125 46.484375 51.125 
Q 46.484375 57.671875 42.71875 61.234375 
Q 38.96875 64.796875 32.078125 64.796875 
z
M 9.8125 72.90625 
L 32.078125 72.90625 
Q 44.34375 72.90625 50.609375 67.359375 
Q 56.890625 61.8125 56.890625 51.125 
Q 56.890625 40.328125 50.609375 34.8125 
Q 44.34375 29.296875 32.078125 29.296875 
L 19.671875 29.296875 
L 19.671875 0 
L 9.8125 0 
z
" id="DejaVuSans-80"/>
     <path d="M 18.109375 8.203125 
L 18.109375 -20.796875 
L 9.078125 -20.796875 
L 9.078125 54.6875 
L 18.109375 54.6875 
L 18.109375 46.390625 
Q 20.953125 51.265625 25.265625 53.625 
Q 29.59375 56 35.59375 56 
Q 45.5625 56 51.78125 48.09375 
Q 58.015625 40.1875 58.015625 27.296875 
Q 58.015625 14.40625 51.78125 6.484375 
Q 45.5625 -1.421875 35.59375 -1.421875 
Q 29.59375 -1.421875 25.265625 0.953125 
Q 20.953125 3.328125 18.109375 8.203125 
z
M 48.6875 27.296875 
Q 48.6875 37.203125 44.609375 42.84375 
Q 40.53125 48.484375 33.40625 48.484375 
Q 26.265625 48.484375 22.1875 42.84375 
Q 18.109375 37.203125 18.109375 27.296875 
Q 18.109375 17.390625 22.1875 11.75 
Q 26.265625 6.109375 33.40625 6.109375 
Q 40.53125 6.109375 44.609375 11.75 
Q 48.6875 17.390625 48.6875 27.296875 
z
" id="DejaVuSans-112"/>
     <path d="M 9.421875 75.984375 
L 18.40625 75.984375 
L 18.40625 0 
L 9.421875 0 
z
" id="DejaVuSans-108"/>
     <path d="M 4.890625 31.390625 
L 31.203125 31.390625 
L 31.203125 23.390625 
L 4.890625 23.390625 
z
" id="DejaVuSans-45"/>
     <path d="M 48.6875 27.296875 
Q 48.6875 37.203125 44.609375 42.84375 
Q 40.53125 48.484375 33.40625 48.484375 
Q 26.265625 48.484375 22.1875 42.84375 
Q 18.109375 37.203125 18.109375 27.296875 
Q 18.109375 17.390625 22.1875 11.75 
Q 26.265625 6.109375 33.40625 6.109375 
Q 40.53125 6.109375 44.609375 11.75 
Q 48.6875 17.390625 48.6875 27.296875 
z
M 18.109375 46.390625 
Q 20.953125 51.265625 25.265625 53.625 
Q 29.59375 56 35.59375 56 
Q 45.5625 56 51.78125 48.09375 
Q 58.015625 40.1875 58.015625 27.296875 
Q 58.015625 14.40625 51.78125 6.484375 
Q 45.5625 -1.421875 35.59375 -1.421875 
Q 29.59375 -1.421875 25.265625 0.953125 
Q 20.953125 3.328125 18.109375 8.203125 
L 18.109375 0 
L 9.078125 0 
L 9.078125 75.984375 
L 18.109375 75.984375 
z
" id="DejaVuSans-98"/>
    </defs>
    <g transform="translate(490.997983 16.318125)scale(0.12 -0.12)">
     <use xlink:href="#DejaVuSans-80"/>
     <use x="56.677734" xlink:href="#DejaVuSans-101"/>
     <use x="118.201172" xlink:href="#DejaVuSans-114"/>
     <use x="159.314453" xlink:href="#DejaVuSans-105"/>
     <use x="187.097656" xlink:href="#DejaVuSans-111"/>
     <use x="248.279297" xlink:href="#DejaVuSans-100"/>
     <use x="311.755859" xlink:href="#DejaVuSans-105"/>
     <use x="339.539062" xlink:href="#DejaVuSans-99"/>
     <use x="394.519531" xlink:href="#DejaVuSans-32"/>
     <use x="426.306641" xlink:href="#DejaVuSans-115"/>
     <use x="478.40625" xlink:href="#DejaVuSans-112"/>
     <use x="541.882812" xlink:href="#DejaVuSans-108"/>
     <use x="569.666016" xlink:href="#DejaVuSans-105"/>
     <use x="597.449219" xlink:href="#DejaVuSans-110"/>
     <use x="660.828125" xlink:href="#DejaVuSans-101"/>
     <use x="722.351562" xlink:href="#DejaVuSans-45"/>
     <use x="758.435547" xlink:href="#DejaVuSans-98"/>
     <use x="821.912109" xlink:href="#DejaVuSans-97"/>
     <use x="883.191406" xlink:href="#DejaVuSans-115"/>
     <use x="935.291016" xlink:href="#DejaVuSans-101"/>
     <use x="996.814453" xlink:href="#DejaVuSans-100"/>
     <use x="1060.291016" xlink:href="#DejaVuSans-32"/>
     <use x="1092.078125" xlink:href="#DejaVuSans-101"/>
     <use x="1153.601562" xlink:href="#DejaVuSans-110"/>
     <use x="1216.980469" xlink:href="#DejaVuSans-99"/>
     <use x="1271.960938" xlink:href="#DejaVuSans-111"/>
     <use x="1333.142578" xlink:href="#DejaVuSans-100"/>
     <use x="1396.619141" xlink:href="#DejaVuSans-105"/>
     <use x="1424.402344" xlink:href="#DejaVuSans-110"/>
     <use x="1487.78125" xlink:href="#DejaVuSans-103"/>
     <use x="1551.257812" xlink:href="#DejaVuSans-32"/>
     <use x="1583.044922" xlink:href="#DejaVuSans-102"/>
     <use x="1618.25" xlink:href="#DejaVuSans-111"/>
     <use x="1679.431641" xlink:href="#DejaVuSans-114"/>
     <use x="1720.544922" xlink:href="#DejaVuSans-32"/>
     <use x="1752.332031" xlink:href="#DejaVuSans-116"/>
     <use x="1791.541016" xlink:href="#DejaVuSans-104"/>
     <use x="1854.919922" xlink:href="#DejaVuSans-101"/>
     <use x="1916.443359" xlink:href="#DejaVuSans-32"/>
     <use x="1948.230469" xlink:href="#DejaVuSans-39"/>
     <use x="1975.720703" xlink:href="#DejaVuSans-104"/>
     <use x="2039.099609" xlink:href="#DejaVuSans-111"/>
     <use x="2100.28125" xlink:href="#DejaVuSans-117"/>
     <use x="2163.660156" xlink:href="#DejaVuSans-114"/>
     <use x="2204.773438" xlink:href="#DejaVuSans-39"/>
     <use x="2232.263672" xlink:href="#DejaVuSans-32"/>
     <use x="2264.050781" xlink:href="#DejaVuSans-102"/>
     <use x="2299.255859" xlink:href="#DejaVuSans-101"/>
     <use x="2360.779297" xlink:href="#DejaVuSans-97"/>
     <use x="2422.058594" xlink:href="#DejaVuSans-116"/>
     <use x="2461.267578" xlink:href="#DejaVuSans-117"/>
     <use x="2524.646484" xlink:href="#DejaVuSans-114"/>
     <use x="2563.509766" xlink:href="#DejaVuSans-101"/>
    </g>
   </g>
   <g id="legend_2">
    <g id="patch_13">
     <path d="M 739.715625 249.455625 
L 819.045312 249.455625 
Q 821.045312 249.455625 821.045312 247.455625 
L 821.045312 68.980625 
Q 821.045312 66.980625 819.045312 66.980625 
L 739.715625 66.980625 
Q 737.715625 66.980625 737.715625 68.980625 
L 737.715625 247.455625 
Q 737.715625 249.455625 739.715625 249.455625 
z
" style="fill:#ffffff;opacity:0.8;stroke:#cccccc;stroke-linejoin:miter;"/>
    </g>
    <g id="line2d_48">
     <path d="M 741.715625 75.079062 
L 761.715625 75.079062 
" style="fill:none;stroke:#393b79;stroke-linecap:square;stroke-width:1.5;"/>
    </g>
    <g id="line2d_49"/>
    <g id="text_36">
     <!-- spline_0 -->
     <g transform="translate(769.715625 78.579062)scale(0.1 -0.1)">
      <use xlink:href="#DejaVuSans-115"/>
      <use x="52.099609" xlink:href="#DejaVuSans-112"/>
      <use x="115.576172" xlink:href="#DejaVuSans-108"/>
      <use x="143.359375" xlink:href="#DejaVuSans-105"/>
      <use x="171.142578" xlink:href="#DejaVuSans-110"/>
      <use x="234.521484" xlink:href="#DejaVuSans-101"/>
      <use x="296.044922" xlink:href="#DejaVuSans-95"/>
      <use x="346.044922" xlink:href="#DejaVuSans-48"/>
     </g>
    </g>
    <g id="line2d_50">
     <path d="M 741.715625 90.035313 
L 761.715625 90.035313 
" style="fill:none;stroke:#5254a3;stroke-linecap:square;stroke-width:1.5;"/>
    </g>
    <g id="line2d_51"/>
    <g id="text_37">
     <!-- spline_1 -->
     <g transform="translate(769.715625 93.535313)scale(0.1 -0.1)">
      <use xlink:href="#DejaVuSans-115"/>
      <use x="52.099609" xlink:href="#DejaVuSans-112"/>
      <use x="115.576172" xlink:href="#DejaVuSans-108"/>
      <use x="143.359375" xlink:href="#DejaVuSans-105"/>
      <use x="171.142578" xlink:href="#DejaVuSans-110"/>
      <use x="234.521484" xlink:href="#DejaVuSans-101"/>
      <use x="296.044922" xlink:href="#DejaVuSans-95"/>
      <use x="346.044922" xlink:href="#DejaVuSans-49"/>
     </g>
    </g>
    <g id="line2d_52">
     <path d="M 741.715625 104.991563 
L 761.715625 104.991563 
" style="fill:none;stroke:#9c9ede;stroke-linecap:square;stroke-width:1.5;"/>
    </g>
    <g id="line2d_53"/>
    <g id="text_38">
     <!-- spline_2 -->
     <g transform="translate(769.715625 108.491563)scale(0.1 -0.1)">
      <use xlink:href="#DejaVuSans-115"/>
      <use x="52.099609" xlink:href="#DejaVuSans-112"/>
      <use x="115.576172" xlink:href="#DejaVuSans-108"/>
      <use x="143.359375" xlink:href="#DejaVuSans-105"/>
      <use x="171.142578" xlink:href="#DejaVuSans-110"/>
      <use x="234.521484" xlink:href="#DejaVuSans-101"/>
      <use x="296.044922" xlink:href="#DejaVuSans-95"/>
      <use x="346.044922" xlink:href="#DejaVuSans-50"/>
     </g>
    </g>
    <g id="line2d_54">
     <path d="M 741.715625 119.947812 
L 761.715625 119.947812 
" style="fill:none;stroke:#8ca252;stroke-linecap:square;stroke-width:1.5;"/>
    </g>
    <g id="line2d_55"/>
    <g id="text_39">
     <!-- spline_3 -->
     <g transform="translate(769.715625 123.447812)scale(0.1 -0.1)">
      <use xlink:href="#DejaVuSans-115"/>
      <use x="52.099609" xlink:href="#DejaVuSans-112"/>
      <use x="115.576172" xlink:href="#DejaVuSans-108"/>
      <use x="143.359375" xlink:href="#DejaVuSans-105"/>
      <use x="171.142578" xlink:href="#DejaVuSans-110"/>
      <use x="234.521484" xlink:href="#DejaVuSans-101"/>
      <use x="296.044922" xlink:href="#DejaVuSans-95"/>
      <use x="346.044922" xlink:href="#DejaVuSans-51"/>
     </g>
    </g>
    <g id="line2d_56">
     <path d="M 741.715625 134.904063 
L 761.715625 134.904063 
" style="fill:none;stroke:#cedb9c;stroke-linecap:square;stroke-width:1.5;"/>
    </g>
    <g id="line2d_57"/>
    <g id="text_40">
     <!-- spline_4 -->
     <g transform="translate(769.715625 138.404063)scale(0.1 -0.1)">
      <use xlink:href="#DejaVuSans-115"/>
      <use x="52.099609" xlink:href="#DejaVuSans-112"/>
      <use x="115.576172" xlink:href="#DejaVuSans-108"/>
      <use x="143.359375" xlink:href="#DejaVuSans-105"/>
      <use x="171.142578" xlink:href="#DejaVuSans-110"/>
      <use x="234.521484" xlink:href="#DejaVuSans-101"/>
      <use x="296.044922" xlink:href="#DejaVuSans-95"/>
      <use x="346.044922" xlink:href="#DejaVuSans-52"/>
     </g>
    </g>
    <g id="line2d_58">
     <path d="M 741.715625 149.860313 
L 761.715625 149.860313 
" style="fill:none;stroke:#bd9e39;stroke-linecap:square;stroke-width:1.5;"/>
    </g>
    <g id="line2d_59"/>
    <g id="text_41">
     <!-- spline_5 -->
     <g transform="translate(769.715625 153.360313)scale(0.1 -0.1)">
      <use xlink:href="#DejaVuSans-115"/>
      <use x="52.099609" xlink:href="#DejaVuSans-112"/>
      <use x="115.576172" xlink:href="#DejaVuSans-108"/>
      <use x="143.359375" xlink:href="#DejaVuSans-105"/>
      <use x="171.142578" xlink:href="#DejaVuSans-110"/>
      <use x="234.521484" xlink:href="#DejaVuSans-101"/>
      <use x="296.044922" xlink:href="#DejaVuSans-95"/>
      <use x="346.044922" xlink:href="#DejaVuSans-53"/>
     </g>
    </g>
    <g id="line2d_60">
     <path d="M 741.715625 164.816563 
L 761.715625 164.816563 
" style="fill:none;stroke:#e7ba52;stroke-linecap:square;stroke-width:1.5;"/>
    </g>
    <g id="line2d_61"/>
    <g id="text_42">
     <!-- spline_6 -->
     <g transform="translate(769.715625 168.316563)scale(0.1 -0.1)">
      <use xlink:href="#DejaVuSans-115"/>
      <use x="52.099609" xlink:href="#DejaVuSans-112"/>
      <use x="115.576172" xlink:href="#DejaVuSans-108"/>
      <use x="143.359375" xlink:href="#DejaVuSans-105"/>
      <use x="171.142578" xlink:href="#DejaVuSans-110"/>
      <use x="234.521484" xlink:href="#DejaVuSans-101"/>
      <use x="296.044922" xlink:href="#DejaVuSans-95"/>
      <use x="346.044922" xlink:href="#DejaVuSans-54"/>
     </g>
    </g>
    <g id="line2d_62">
     <path d="M 741.715625 179.772812 
L 761.715625 179.772812 
" style="fill:none;stroke:#843c39;stroke-linecap:square;stroke-width:1.5;"/>
    </g>
    <g id="line2d_63"/>
    <g id="text_43">
     <!-- spline_7 -->
     <g transform="translate(769.715625 183.272812)scale(0.1 -0.1)">
      <use xlink:href="#DejaVuSans-115"/>
      <use x="52.099609" xlink:href="#DejaVuSans-112"/>
      <use x="115.576172" xlink:href="#DejaVuSans-108"/>
      <use x="143.359375" xlink:href="#DejaVuSans-105"/>
      <use x="171.142578" xlink:href="#DejaVuSans-110"/>
      <use x="234.521484" xlink:href="#DejaVuSans-101"/>
      <use x="296.044922" xlink:href="#DejaVuSans-95"/>
      <use x="346.044922" xlink:href="#DejaVuSans-55"/>
     </g>
    </g>
    <g id="line2d_64">
     <path d="M 741.715625 194.729062 
L 761.715625 194.729062 
" style="fill:none;stroke:#d6616b;stroke-linecap:square;stroke-width:1.5;"/>
    </g>
    <g id="line2d_65"/>
    <g id="text_44">
     <!-- spline_8 -->
     <defs>
      <path d="M 31.78125 34.625 
Q 24.75 34.625 20.71875 30.859375 
Q 16.703125 27.09375 16.703125 20.515625 
Q 16.703125 13.921875 20.71875 10.15625 
Q 24.75 6.390625 31.78125 6.390625 
Q 38.8125 6.390625 42.859375 10.171875 
Q 46.921875 13.96875 46.921875 20.515625 
Q 46.921875 27.09375 42.890625 30.859375 
Q 38.875 34.625 31.78125 34.625 
z
M 21.921875 38.8125 
Q 15.578125 40.375 12.03125 44.71875 
Q 8.5 49.078125 8.5 55.328125 
Q 8.5 64.0625 14.71875 69.140625 
Q 20.953125 74.21875 31.78125 74.21875 
Q 42.671875 74.21875 48.875 69.140625 
Q 55.078125 64.0625 55.078125 55.328125 
Q 55.078125 49.078125 51.53125 44.71875 
Q 48 40.375 41.703125 38.8125 
Q 48.828125 37.15625 52.796875 32.3125 
Q 56.78125 27.484375 56.78125 20.515625 
Q 56.78125 9.90625 50.3125 4.234375 
Q 43.84375 -1.421875 31.78125 -1.421875 
Q 19.734375 -1.421875 13.25 4.234375 
Q 6.78125 9.90625 6.78125 20.515625 
Q 6.78125 27.484375 10.78125 32.3125 
Q 14.796875 37.15625 21.921875 38.8125 
z
M 18.3125 54.390625 
Q 18.3125 48.734375 21.84375 45.5625 
Q 25.390625 42.390625 31.78125 42.390625 
Q 38.140625 42.390625 41.71875 45.5625 
Q 45.3125 48.734375 45.3125 54.390625 
Q 45.3125 60.0625 41.71875 63.234375 
Q 38.140625 66.40625 31.78125 66.40625 
Q 25.390625 66.40625 21.84375 63.234375 
Q 18.3125 60.0625 18.3125 54.390625 
z
" id="DejaVuSans-56"/>
     </defs>
     <g transform="translate(769.715625 198.229062)scale(0.1 -0.1)">
      <use xlink:href="#DejaVuSans-115"/>
      <use x="52.099609" xlink:href="#DejaVuSans-112"/>
      <use x="115.576172" xlink:href="#DejaVuSans-108"/>
      <use x="143.359375" xlink:href="#DejaVuSans-105"/>
      <use x="171.142578" xlink:href="#DejaVuSans-110"/>
      <use x="234.521484" xlink:href="#DejaVuSans-101"/>
      <use x="296.044922" xlink:href="#DejaVuSans-95"/>
      <use x="346.044922" xlink:href="#DejaVuSans-56"/>
     </g>
    </g>
    <g id="line2d_66">
     <path d="M 741.715625 209.685312 
L 761.715625 209.685312 
" style="fill:none;stroke:#7b4173;stroke-linecap:square;stroke-width:1.5;"/>
    </g>
    <g id="line2d_67"/>
    <g id="text_45">
     <!-- spline_9 -->
     <defs>
      <path d="M 10.984375 1.515625 
L 10.984375 10.5 
Q 14.703125 8.734375 18.5 7.8125 
Q 22.3125 6.890625 25.984375 6.890625 
Q 35.75 6.890625 40.890625 13.453125 
Q 46.046875 20.015625 46.78125 33.40625 
Q 43.953125 29.203125 39.59375 26.953125 
Q 35.25 24.703125 29.984375 24.703125 
Q 19.046875 24.703125 12.671875 31.3125 
Q 6.296875 37.9375 6.296875 49.421875 
Q 6.296875 60.640625 12.9375 67.421875 
Q 19.578125 74.21875 30.609375 74.21875 
Q 43.265625 74.21875 49.921875 64.515625 
Q 56.59375 54.828125 56.59375 36.375 
Q 56.59375 19.140625 48.40625 8.859375 
Q 40.234375 -1.421875 26.421875 -1.421875 
Q 22.703125 -1.421875 18.890625 -0.6875 
Q 15.09375 0.046875 10.984375 1.515625 
z
M 30.609375 32.421875 
Q 37.25 32.421875 41.125 36.953125 
Q 45.015625 41.5 45.015625 49.421875 
Q 45.015625 57.28125 41.125 61.84375 
Q 37.25 66.40625 30.609375 66.40625 
Q 23.96875 66.40625 20.09375 61.84375 
Q 16.21875 57.28125 16.21875 49.421875 
Q 16.21875 41.5 20.09375 36.953125 
Q 23.96875 32.421875 30.609375 32.421875 
z
" id="DejaVuSans-57"/>
     </defs>
     <g transform="translate(769.715625 213.185312)scale(0.1 -0.1)">
      <use xlink:href="#DejaVuSans-115"/>
      <use x="52.099609" xlink:href="#DejaVuSans-112"/>
      <use x="115.576172" xlink:href="#DejaVuSans-108"/>
      <use x="143.359375" xlink:href="#DejaVuSans-105"/>
      <use x="171.142578" xlink:href="#DejaVuSans-110"/>
      <use x="234.521484" xlink:href="#DejaVuSans-101"/>
      <use x="296.044922" xlink:href="#DejaVuSans-95"/>
      <use x="346.044922" xlink:href="#DejaVuSans-57"/>
     </g>
    </g>
    <g id="line2d_68">
     <path d="M 741.715625 224.641562 
L 761.715625 224.641562 
" style="fill:none;stroke:#ce6dbd;stroke-linecap:square;stroke-width:1.5;"/>
    </g>
    <g id="line2d_69"/>
    <g id="text_46">
     <!-- spline_10 -->
     <g transform="translate(769.715625 228.141562)scale(0.1 -0.1)">
      <use xlink:href="#DejaVuSans-115"/>
      <use x="52.099609" xlink:href="#DejaVuSans-112"/>
      <use x="115.576172" xlink:href="#DejaVuSans-108"/>
      <use x="143.359375" xlink:href="#DejaVuSans-105"/>
      <use x="171.142578" xlink:href="#DejaVuSans-110"/>
      <use x="234.521484" xlink:href="#DejaVuSans-101"/>
      <use x="296.044922" xlink:href="#DejaVuSans-95"/>
      <use x="346.044922" xlink:href="#DejaVuSans-49"/>
      <use x="409.667969" xlink:href="#DejaVuSans-48"/>
     </g>
    </g>
    <g id="line2d_70">
     <path d="M 741.715625 239.597813 
L 761.715625 239.597813 
" style="fill:none;stroke:#de9ed6;stroke-linecap:square;stroke-width:1.5;"/>
    </g>
    <g id="line2d_71"/>
    <g id="text_47">
     <!-- spline_11 -->
     <g transform="translate(769.715625 243.097813)scale(0.1 -0.1)">
      <use xlink:href="#DejaVuSans-115"/>
      <use x="52.099609" xlink:href="#DejaVuSans-112"/>
      <use x="115.576172" xlink:href="#DejaVuSans-108"/>
      <use x="143.359375" xlink:href="#DejaVuSans-105"/>
      <use x="171.142578" xlink:href="#DejaVuSans-110"/>
      <use x="234.521484" xlink:href="#DejaVuSans-101"/>
      <use x="296.044922" xlink:href="#DejaVuSans-95"/>
      <use x="346.044922" xlink:href="#DejaVuSans-49"/>
      <use x="409.667969" xlink:href="#DejaVuSans-49"/>
     </g>
    </g>
   </g>
  </g>
 </g>
 <defs>
  <clipPath id="pfc1c82180c">
   <rect height="271.8" width="355.090909" x="44.845313" y="22.318125"/>
  </clipPath>
  <clipPath id="p8f5e4123d9">
   <rect height="271.8" width="355.090909" x="470.954403" y="22.318125"/>
  </clipPath>
 </defs>
</svg>
