<?xml version="1.0" encoding="utf-8" standalone="no"?>
<!DOCTYPE svg PUBLIC "-//W3C//DTD SVG 1.1//EN"
  "http://www.w3.org/Graphics/SVG/1.1/DTD/svg11.dtd">
<!-- Created with matplotlib (https://matplotlib.org/) -->
<svg height="331.674375pt" version="1.1" viewBox="0 0 832.18125 331.674375" width="832.18125pt" xmlns="http://www.w3.org/2000/svg" xmlns:xlink="http://www.w3.org/1999/xlink">
 <defs>
  <style type="text/css">
*{stroke-linecap:butt;stroke-linejoin:round;}
  </style>
 </defs>
 <g id="figure_1">
  <g id="patch_1">
   <path d="M 0 331.674375 
L 832.18125 331.674375 
L 832.18125 0 
L 0 0 
z
" style="fill:#ffffff;"/>
  </g>
  <g id="axes_1">
   <g id="patch_2">
    <path d="M 43.78125 294.118125 
L 824.98125 294.118125 
L 824.98125 22.318125 
L 43.78125 22.318125 
z
" style="fill:#ffffff;"/>
   </g>
   <g id="matplotlib.axis_1">
    <g id="xtick_1">
     <g id="line2d_1">
      <path clip-path="url(#p1b03f9d96d)" d="M 79.290341 294.118125 
L 79.290341 22.318125 
" style="fill:none;stroke:#b0b0b0;stroke-linecap:square;stroke-width:0.8;"/>
     </g>
     <g id="line2d_2">
      <defs>
       <path d="M 0 0 
L 0 3.5 
" id="mb61ad5e8f0" style="stroke:#000000;stroke-width:0.8;"/>
      </defs>
      <g>
       <use style="stroke:#000000;stroke-width:0.8;" x="79.290341" xlink:href="#mb61ad5e8f0" y="294.118125"/>
      </g>
     </g>
     <g id="text_1">
      <!-- 0 -->
      <defs>
       <path d="M 31.78125 66.40625 
Q 24.171875 66.40625 20.328125 58.90625 
Q 16.5 51.421875 16.5 36.375 
Q 16.5 21.390625 20.328125 13.890625 
Q 24.171875 6.390625 31.78125 6.390625 
Q 39.453125 6.390625 43.28125 13.890625 
Q 47.125 21.390625 47.125 36.375 
Q 47.125 51.421875 43.28125 58.90625 
Q 39.453125 66.40625 31.78125 66.40625 
z
M 31.78125 74.21875 
Q 44.046875 74.21875 50.515625 64.515625 
Q 56.984375 54.828125 56.984375 36.375 
Q 56.984375 17.96875 50.515625 8.265625 
Q 44.046875 -1.421875 31.78125 -1.421875 
Q 19.53125 -1.421875 13.0625 8.265625 
Q 6.59375 17.96875 6.59375 36.375 
Q 6.59375 54.828125 13.0625 64.515625 
Q 19.53125 74.21875 31.78125 74.21875 
z
" id="DejaVuSans-48"/>
      </defs>
      <g transform="translate(76.109091 308.716563)scale(0.1 -0.1)">
       <use xlink:href="#DejaVuSans-48"/>
      </g>
     </g>
    </g>
    <g id="xtick_2">
     <g id="line2d_3">
      <path clip-path="url(#p1b03f9d96d)" d="M 230.392855 294.118125 
L 230.392855 22.318125 
" style="fill:none;stroke:#b0b0b0;stroke-linecap:square;stroke-width:0.8;"/>
     </g>
     <g id="line2d_4">
      <g>
       <use style="stroke:#000000;stroke-width:0.8;" x="230.392855" xlink:href="#mb61ad5e8f0" y="294.118125"/>
      </g>
     </g>
     <g id="text_2">
      <!-- 10 -->
      <defs>
       <path d="M 12.40625 8.296875 
L 28.515625 8.296875 
L 28.515625 63.921875 
L 10.984375 60.40625 
L 10.984375 69.390625 
L 28.421875 72.90625 
L 38.28125 72.90625 
L 38.28125 8.296875 
L 54.390625 8.296875 
L 54.390625 0 
L 12.40625 0 
z
" id="DejaVuSans-49"/>
      </defs>
      <g transform="translate(224.030355 308.716563)scale(0.1 -0.1)">
       <use xlink:href="#DejaVuSans-49"/>
       <use x="63.623047" xlink:href="#DejaVuSans-48"/>
      </g>
     </g>
    </g>
    <g id="xtick_3">
     <g id="line2d_5">
      <path clip-path="url(#p1b03f9d96d)" d="M 381.49537 294.118125 
L 381.49537 22.318125 
" style="fill:none;stroke:#b0b0b0;stroke-linecap:square;stroke-width:0.8;"/>
     </g>
     <g id="line2d_6">
      <g>
       <use style="stroke:#000000;stroke-width:0.8;" x="381.49537" xlink:href="#mb61ad5e8f0" y="294.118125"/>
      </g>
     </g>
     <g id="text_3">
      <!-- 20 -->
      <defs>
       <path d="M 19.1875 8.296875 
L 53.609375 8.296875 
L 53.609375 0 
L 7.328125 0 
L 7.328125 8.296875 
Q 12.9375 14.109375 22.625 23.890625 
Q 32.328125 33.6875 34.8125 36.53125 
Q 39.546875 41.84375 41.421875 45.53125 
Q 43.3125 49.21875 43.3125 52.78125 
Q 43.3125 58.59375 39.234375 62.25 
Q 35.15625 65.921875 28.609375 65.921875 
Q 23.96875 65.921875 18.8125 64.3125 
Q 13.671875 62.703125 7.8125 59.421875 
L 7.8125 69.390625 
Q 13.765625 71.78125 18.9375 73 
Q 24.125 74.21875 28.421875 74.21875 
Q 39.75 74.21875 46.484375 68.546875 
Q 53.21875 62.890625 53.21875 53.421875 
Q 53.21875 48.921875 51.53125 44.890625 
Q 49.859375 40.875 45.40625 35.40625 
Q 44.1875 33.984375 37.640625 27.21875 
Q 31.109375 20.453125 19.1875 8.296875 
z
" id="DejaVuSans-50"/>
      </defs>
      <g transform="translate(375.13287 308.716563)scale(0.1 -0.1)">
       <use xlink:href="#DejaVuSans-50"/>
       <use x="63.623047" xlink:href="#DejaVuSans-48"/>
      </g>
     </g>
    </g>
    <g id="xtick_4">
     <g id="line2d_7">
      <path clip-path="url(#p1b03f9d96d)" d="M 532.597884 294.118125 
L 532.597884 22.318125 
" style="fill:none;stroke:#b0b0b0;stroke-linecap:square;stroke-width:0.8;"/>
     </g>
     <g id="line2d_8">
      <g>
       <use style="stroke:#000000;stroke-width:0.8;" x="532.597884" xlink:href="#mb61ad5e8f0" y="294.118125"/>
      </g>
     </g>
     <g id="text_4">
      <!-- 30 -->
      <defs>
       <path d="M 40.578125 39.3125 
Q 47.65625 37.796875 51.625 33 
Q 55.609375 28.21875 55.609375 21.1875 
Q 55.609375 10.40625 48.1875 4.484375 
Q 40.765625 -1.421875 27.09375 -1.421875 
Q 22.515625 -1.421875 17.65625 -0.515625 
Q 12.796875 0.390625 7.625 2.203125 
L 7.625 11.71875 
Q 11.71875 9.328125 16.59375 8.109375 
Q 21.484375 6.890625 26.8125 6.890625 
Q 36.078125 6.890625 40.9375 10.546875 
Q 45.796875 14.203125 45.796875 21.1875 
Q 45.796875 27.640625 41.28125 31.265625 
Q 36.765625 34.90625 28.71875 34.90625 
L 20.21875 34.90625 
L 20.21875 43.015625 
L 29.109375 43.015625 
Q 36.375 43.015625 40.234375 45.921875 
Q 44.09375 48.828125 44.09375 54.296875 
Q 44.09375 59.90625 40.109375 62.90625 
Q 36.140625 65.921875 28.71875 65.921875 
Q 24.65625 65.921875 20.015625 65.03125 
Q 15.375 64.15625 9.8125 62.3125 
L 9.8125 71.09375 
Q 15.4375 72.65625 20.34375 73.4375 
Q 25.25 74.21875 29.59375 74.21875 
Q 40.828125 74.21875 47.359375 69.109375 
Q 53.90625 64.015625 53.90625 55.328125 
Q 53.90625 49.265625 50.4375 45.09375 
Q 46.96875 40.921875 40.578125 39.3125 
z
" id="DejaVuSans-51"/>
      </defs>
      <g transform="translate(526.235384 308.716563)scale(0.1 -0.1)">
       <use xlink:href="#DejaVuSans-51"/>
       <use x="63.623047" xlink:href="#DejaVuSans-48"/>
      </g>
     </g>
    </g>
    <g id="xtick_5">
     <g id="line2d_9">
      <path clip-path="url(#p1b03f9d96d)" d="M 683.700399 294.118125 
L 683.700399 22.318125 
" style="fill:none;stroke:#b0b0b0;stroke-linecap:square;stroke-width:0.8;"/>
     </g>
     <g id="line2d_10">
      <g>
       <use style="stroke:#000000;stroke-width:0.8;" x="683.700399" xlink:href="#mb61ad5e8f0" y="294.118125"/>
      </g>
     </g>
     <g id="text_5">
      <!-- 40 -->
      <defs>
       <path d="M 37.796875 64.3125 
L 12.890625 25.390625 
L 37.796875 25.390625 
z
M 35.203125 72.90625 
L 47.609375 72.90625 
L 47.609375 25.390625 
L 58.015625 25.390625 
L 58.015625 17.1875 
L 47.609375 17.1875 
L 47.609375 0 
L 37.796875 0 
L 37.796875 17.1875 
L 4.890625 17.1875 
L 4.890625 26.703125 
z
" id="DejaVuSans-52"/>
      </defs>
      <g transform="translate(677.337899 308.716563)scale(0.1 -0.1)">
       <use xlink:href="#DejaVuSans-52"/>
       <use x="63.623047" xlink:href="#DejaVuSans-48"/>
      </g>
     </g>
    </g>
    <g id="text_6">
     <!-- Training Time Segment Number -->
     <defs>
      <path d="M -0.296875 72.90625 
L 61.375 72.90625 
L 61.375 64.59375 
L 35.5 64.59375 
L 35.5 0 
L 25.59375 0 
L 25.59375 64.59375 
L -0.296875 64.59375 
z
" id="DejaVuSans-84"/>
      <path d="M 41.109375 46.296875 
Q 39.59375 47.171875 37.8125 47.578125 
Q 36.03125 48 33.890625 48 
Q 26.265625 48 22.1875 43.046875 
Q 18.109375 38.09375 18.109375 28.8125 
L 18.109375 0 
L 9.078125 0 
L 9.078125 54.6875 
L 18.109375 54.6875 
L 18.109375 46.1875 
Q 20.953125 51.171875 25.484375 53.578125 
Q 30.03125 56 36.53125 56 
Q 37.453125 56 38.578125 55.875 
Q 39.703125 55.765625 41.0625 55.515625 
z
" id="DejaVuSans-114"/>
      <path d="M 34.28125 27.484375 
Q 23.390625 27.484375 19.1875 25 
Q 14.984375 22.515625 14.984375 16.5 
Q 14.984375 11.71875 18.140625 8.90625 
Q 21.296875 6.109375 26.703125 6.109375 
Q 34.1875 6.109375 38.703125 11.40625 
Q 43.21875 16.703125 43.21875 25.484375 
L 43.21875 27.484375 
z
M 52.203125 31.203125 
L 52.203125 0 
L 43.21875 0 
L 43.21875 8.296875 
Q 40.140625 3.328125 35.546875 0.953125 
Q 30.953125 -1.421875 24.3125 -1.421875 
Q 15.921875 -1.421875 10.953125 3.296875 
Q 6 8.015625 6 15.921875 
Q 6 25.140625 12.171875 29.828125 
Q 18.359375 34.515625 30.609375 34.515625 
L 43.21875 34.515625 
L 43.21875 35.40625 
Q 43.21875 41.609375 39.140625 45 
Q 35.0625 48.390625 27.6875 48.390625 
Q 23 48.390625 18.546875 47.265625 
Q 14.109375 46.140625 10.015625 43.890625 
L 10.015625 52.203125 
Q 14.9375 54.109375 19.578125 55.046875 
Q 24.21875 56 28.609375 56 
Q 40.484375 56 46.34375 49.84375 
Q 52.203125 43.703125 52.203125 31.203125 
z
" id="DejaVuSans-97"/>
      <path d="M 9.421875 54.6875 
L 18.40625 54.6875 
L 18.40625 0 
L 9.421875 0 
z
M 9.421875 75.984375 
L 18.40625 75.984375 
L 18.40625 64.59375 
L 9.421875 64.59375 
z
" id="DejaVuSans-105"/>
      <path d="M 54.890625 33.015625 
L 54.890625 0 
L 45.90625 0 
L 45.90625 32.71875 
Q 45.90625 40.484375 42.875 44.328125 
Q 39.84375 48.1875 33.796875 48.1875 
Q 26.515625 48.1875 22.3125 43.546875 
Q 18.109375 38.921875 18.109375 30.90625 
L 18.109375 0 
L 9.078125 0 
L 9.078125 54.6875 
L 18.109375 54.6875 
L 18.109375 46.1875 
Q 21.34375 51.125 25.703125 53.5625 
Q 30.078125 56 35.796875 56 
Q 45.21875 56 50.046875 50.171875 
Q 54.890625 44.34375 54.890625 33.015625 
z
" id="DejaVuSans-110"/>
      <path d="M 45.40625 27.984375 
Q 45.40625 37.75 41.375 43.109375 
Q 37.359375 48.484375 30.078125 48.484375 
Q 22.859375 48.484375 18.828125 43.109375 
Q 14.796875 37.75 14.796875 27.984375 
Q 14.796875 18.265625 18.828125 12.890625 
Q 22.859375 7.515625 30.078125 7.515625 
Q 37.359375 7.515625 41.375 12.890625 
Q 45.40625 18.265625 45.40625 27.984375 
z
M 54.390625 6.78125 
Q 54.390625 -7.171875 48.1875 -13.984375 
Q 42 -20.796875 29.203125 -20.796875 
Q 24.46875 -20.796875 20.265625 -20.09375 
Q 16.0625 -19.390625 12.109375 -17.921875 
L 12.109375 -9.1875 
Q 16.0625 -11.328125 19.921875 -12.34375 
Q 23.78125 -13.375 27.78125 -13.375 
Q 36.625 -13.375 41.015625 -8.765625 
Q 45.40625 -4.15625 45.40625 5.171875 
L 45.40625 9.625 
Q 42.625 4.78125 38.28125 2.390625 
Q 33.9375 0 27.875 0 
Q 17.828125 0 11.671875 7.65625 
Q 5.515625 15.328125 5.515625 27.984375 
Q 5.515625 40.671875 11.671875 48.328125 
Q 17.828125 56 27.875 56 
Q 33.9375 56 38.28125 53.609375 
Q 42.625 51.21875 45.40625 46.390625 
L 45.40625 54.6875 
L 54.390625 54.6875 
z
" id="DejaVuSans-103"/>
      <path id="DejaVuSans-32"/>
      <path d="M 52 44.1875 
Q 55.375 50.25 60.0625 53.125 
Q 64.75 56 71.09375 56 
Q 79.640625 56 84.28125 50.015625 
Q 88.921875 44.046875 88.921875 33.015625 
L 88.921875 0 
L 79.890625 0 
L 79.890625 32.71875 
Q 79.890625 40.578125 77.09375 44.375 
Q 74.3125 48.1875 68.609375 48.1875 
Q 61.625 48.1875 57.5625 43.546875 
Q 53.515625 38.921875 53.515625 30.90625 
L 53.515625 0 
L 44.484375 0 
L 44.484375 32.71875 
Q 44.484375 40.625 41.703125 44.40625 
Q 38.921875 48.1875 33.109375 48.1875 
Q 26.21875 48.1875 22.15625 43.53125 
Q 18.109375 38.875 18.109375 30.90625 
L 18.109375 0 
L 9.078125 0 
L 9.078125 54.6875 
L 18.109375 54.6875 
L 18.109375 46.1875 
Q 21.1875 51.21875 25.484375 53.609375 
Q 29.78125 56 35.6875 56 
Q 41.65625 56 45.828125 52.96875 
Q 50 49.953125 52 44.1875 
z
" id="DejaVuSans-109"/>
      <path d="M 56.203125 29.59375 
L 56.203125 25.203125 
L 14.890625 25.203125 
Q 15.484375 15.921875 20.484375 11.0625 
Q 25.484375 6.203125 34.421875 6.203125 
Q 39.59375 6.203125 44.453125 7.46875 
Q 49.3125 8.734375 54.109375 11.28125 
L 54.109375 2.78125 
Q 49.265625 0.734375 44.1875 -0.34375 
Q 39.109375 -1.421875 33.890625 -1.421875 
Q 20.796875 -1.421875 13.15625 6.1875 
Q 5.515625 13.8125 5.515625 26.8125 
Q 5.515625 40.234375 12.765625 48.109375 
Q 20.015625 56 32.328125 56 
Q 43.359375 56 49.78125 48.890625 
Q 56.203125 41.796875 56.203125 29.59375 
z
M 47.21875 32.234375 
Q 47.125 39.59375 43.09375 43.984375 
Q 39.0625 48.390625 32.421875 48.390625 
Q 24.90625 48.390625 20.390625 44.140625 
Q 15.875 39.890625 15.1875 32.171875 
z
" id="DejaVuSans-101"/>
      <path d="M 53.515625 70.515625 
L 53.515625 60.890625 
Q 47.90625 63.578125 42.921875 64.890625 
Q 37.9375 66.21875 33.296875 66.21875 
Q 25.25 66.21875 20.875 63.09375 
Q 16.5 59.96875 16.5 54.203125 
Q 16.5 49.359375 19.40625 46.890625 
Q 22.3125 44.4375 30.421875 42.921875 
L 36.375 41.703125 
Q 47.40625 39.59375 52.65625 34.296875 
Q 57.90625 29 57.90625 20.125 
Q 57.90625 9.515625 50.796875 4.046875 
Q 43.703125 -1.421875 29.984375 -1.421875 
Q 24.8125 -1.421875 18.96875 -0.25 
Q 13.140625 0.921875 6.890625 3.21875 
L 6.890625 13.375 
Q 12.890625 10.015625 18.65625 8.296875 
Q 24.421875 6.59375 29.984375 6.59375 
Q 38.421875 6.59375 43.015625 9.90625 
Q 47.609375 13.234375 47.609375 19.390625 
Q 47.609375 24.75 44.3125 27.78125 
Q 41.015625 30.8125 33.5 32.328125 
L 27.484375 33.5 
Q 16.453125 35.6875 11.515625 40.375 
Q 6.59375 45.0625 6.59375 53.421875 
Q 6.59375 63.09375 13.40625 68.65625 
Q 20.21875 74.21875 32.171875 74.21875 
Q 37.3125 74.21875 42.625 73.28125 
Q 47.953125 72.359375 53.515625 70.515625 
z
" id="DejaVuSans-83"/>
      <path d="M 18.3125 70.21875 
L 18.3125 54.6875 
L 36.8125 54.6875 
L 36.8125 47.703125 
L 18.3125 47.703125 
L 18.3125 18.015625 
Q 18.3125 11.328125 20.140625 9.421875 
Q 21.96875 7.515625 27.59375 7.515625 
L 36.8125 7.515625 
L 36.8125 0 
L 27.59375 0 
Q 17.1875 0 13.234375 3.875 
Q 9.28125 7.765625 9.28125 18.015625 
L 9.28125 47.703125 
L 2.6875 47.703125 
L 2.6875 54.6875 
L 9.28125 54.6875 
L 9.28125 70.21875 
z
" id="DejaVuSans-116"/>
      <path d="M 9.8125 72.90625 
L 23.09375 72.90625 
L 55.421875 11.921875 
L 55.421875 72.90625 
L 64.984375 72.90625 
L 64.984375 0 
L 51.703125 0 
L 19.390625 60.984375 
L 19.390625 0 
L 9.8125 0 
z
" id="DejaVuSans-78"/>
      <path d="M 8.5 21.578125 
L 8.5 54.6875 
L 17.484375 54.6875 
L 17.484375 21.921875 
Q 17.484375 14.15625 20.5 10.265625 
Q 23.53125 6.390625 29.59375 6.390625 
Q 36.859375 6.390625 41.078125 11.03125 
Q 45.3125 15.671875 45.3125 23.6875 
L 45.3125 54.6875 
L 54.296875 54.6875 
L 54.296875 0 
L 45.3125 0 
L 45.3125 8.40625 
Q 42.046875 3.421875 37.71875 1 
Q 33.40625 -1.421875 27.6875 -1.421875 
Q 18.265625 -1.421875 13.375 4.4375 
Q 8.5 10.296875 8.5 21.578125 
z
M 31.109375 56 
z
" id="DejaVuSans-117"/>
      <path d="M 48.6875 27.296875 
Q 48.6875 37.203125 44.609375 42.84375 
Q 40.53125 48.484375 33.40625 48.484375 
Q 26.265625 48.484375 22.1875 42.84375 
Q 18.109375 37.203125 18.109375 27.296875 
Q 18.109375 17.390625 22.1875 11.75 
Q 26.265625 6.109375 33.40625 6.109375 
Q 40.53125 6.109375 44.609375 11.75 
Q 48.6875 17.390625 48.6875 27.296875 
z
M 18.109375 46.390625 
Q 20.953125 51.265625 25.265625 53.625 
Q 29.59375 56 35.59375 56 
Q 45.5625 56 51.78125 48.09375 
Q 58.015625 40.1875 58.015625 27.296875 
Q 58.015625 14.40625 51.78125 6.484375 
Q 45.5625 -1.421875 35.59375 -1.421875 
Q 29.59375 -1.421875 25.265625 0.953125 
Q 20.953125 3.328125 18.109375 8.203125 
L 18.109375 0 
L 9.078125 0 
L 9.078125 75.984375 
L 18.109375 75.984375 
z
" id="DejaVuSans-98"/>
     </defs>
     <g transform="translate(355.067969 322.394687)scale(0.1 -0.1)">
      <use xlink:href="#DejaVuSans-84"/>
      <use x="46.333984" xlink:href="#DejaVuSans-114"/>
      <use x="87.447266" xlink:href="#DejaVuSans-97"/>
      <use x="148.726562" xlink:href="#DejaVuSans-105"/>
      <use x="176.509766" xlink:href="#DejaVuSans-110"/>
      <use x="239.888672" xlink:href="#DejaVuSans-105"/>
      <use x="267.671875" xlink:href="#DejaVuSans-110"/>
      <use x="331.050781" xlink:href="#DejaVuSans-103"/>
      <use x="394.527344" xlink:href="#DejaVuSans-32"/>
      <use x="426.314453" xlink:href="#DejaVuSans-84"/>
      <use x="484.273438" xlink:href="#DejaVuSans-105"/>
      <use x="512.056641" xlink:href="#DejaVuSans-109"/>
      <use x="609.46875" xlink:href="#DejaVuSans-101"/>
      <use x="670.992188" xlink:href="#DejaVuSans-32"/>
      <use x="702.779297" xlink:href="#DejaVuSans-83"/>
      <use x="766.255859" xlink:href="#DejaVuSans-101"/>
      <use x="827.779297" xlink:href="#DejaVuSans-103"/>
      <use x="891.255859" xlink:href="#DejaVuSans-109"/>
      <use x="988.667969" xlink:href="#DejaVuSans-101"/>
      <use x="1050.191406" xlink:href="#DejaVuSans-110"/>
      <use x="1113.570312" xlink:href="#DejaVuSans-116"/>
      <use x="1152.779297" xlink:href="#DejaVuSans-32"/>
      <use x="1184.566406" xlink:href="#DejaVuSans-78"/>
      <use x="1259.371094" xlink:href="#DejaVuSans-117"/>
      <use x="1322.75" xlink:href="#DejaVuSans-109"/>
      <use x="1420.162109" xlink:href="#DejaVuSans-98"/>
      <use x="1483.638672" xlink:href="#DejaVuSans-101"/>
      <use x="1545.162109" xlink:href="#DejaVuSans-114"/>
     </g>
    </g>
   </g>
   <g id="matplotlib.axis_2">
    <g id="ytick_1">
     <g id="line2d_11">
      <path clip-path="url(#p1b03f9d96d)" d="M 43.78125 281.763725 
L 824.98125 281.763725 
" style="fill:none;stroke:#b0b0b0;stroke-linecap:square;stroke-width:0.8;"/>
     </g>
     <g id="line2d_12">
      <defs>
       <path d="M 0 0 
L -3.5 0 
" id="me383248cb3" style="stroke:#000000;stroke-width:0.8;"/>
      </defs>
      <g>
       <use style="stroke:#000000;stroke-width:0.8;" x="43.78125" xlink:href="#me383248cb3" y="281.763725"/>
      </g>
     </g>
     <g id="text_7">
      <!-- 0.0 -->
      <defs>
       <path d="M 10.6875 12.40625 
L 21 12.40625 
L 21 0 
L 10.6875 0 
z
" id="DejaVuSans-46"/>
      </defs>
      <g transform="translate(20.878125 285.562943)scale(0.1 -0.1)">
       <use xlink:href="#DejaVuSans-48"/>
       <use x="63.623047" xlink:href="#DejaVuSans-46"/>
       <use x="95.410156" xlink:href="#DejaVuSans-48"/>
      </g>
     </g>
    </g>
    <g id="ytick_2">
     <g id="line2d_13">
      <path clip-path="url(#p1b03f9d96d)" d="M 43.78125 244.124591 
L 824.98125 244.124591 
" style="fill:none;stroke:#b0b0b0;stroke-linecap:square;stroke-width:0.8;"/>
     </g>
     <g id="line2d_14">
      <g>
       <use style="stroke:#000000;stroke-width:0.8;" x="43.78125" xlink:href="#me383248cb3" y="244.124591"/>
      </g>
     </g>
     <g id="text_8">
      <!-- 0.1 -->
      <g transform="translate(20.878125 247.92381)scale(0.1 -0.1)">
       <use xlink:href="#DejaVuSans-48"/>
       <use x="63.623047" xlink:href="#DejaVuSans-46"/>
       <use x="95.410156" xlink:href="#DejaVuSans-49"/>
      </g>
     </g>
    </g>
    <g id="ytick_3">
     <g id="line2d_15">
      <path clip-path="url(#p1b03f9d96d)" d="M 43.78125 206.485457 
L 824.98125 206.485457 
" style="fill:none;stroke:#b0b0b0;stroke-linecap:square;stroke-width:0.8;"/>
     </g>
     <g id="line2d_16">
      <g>
       <use style="stroke:#000000;stroke-width:0.8;" x="43.78125" xlink:href="#me383248cb3" y="206.485457"/>
      </g>
     </g>
     <g id="text_9">
      <!-- 0.2 -->
      <g transform="translate(20.878125 210.284676)scale(0.1 -0.1)">
       <use xlink:href="#DejaVuSans-48"/>
       <use x="63.623047" xlink:href="#DejaVuSans-46"/>
       <use x="95.410156" xlink:href="#DejaVuSans-50"/>
      </g>
     </g>
    </g>
    <g id="ytick_4">
     <g id="line2d_17">
      <path clip-path="url(#p1b03f9d96d)" d="M 43.78125 168.846323 
L 824.98125 168.846323 
" style="fill:none;stroke:#b0b0b0;stroke-linecap:square;stroke-width:0.8;"/>
     </g>
     <g id="line2d_18">
      <g>
       <use style="stroke:#000000;stroke-width:0.8;" x="43.78125" xlink:href="#me383248cb3" y="168.846323"/>
      </g>
     </g>
     <g id="text_10">
      <!-- 0.3 -->
      <g transform="translate(20.878125 172.645542)scale(0.1 -0.1)">
       <use xlink:href="#DejaVuSans-48"/>
       <use x="63.623047" xlink:href="#DejaVuSans-46"/>
       <use x="95.410156" xlink:href="#DejaVuSans-51"/>
      </g>
     </g>
    </g>
    <g id="ytick_5">
     <g id="line2d_19">
      <path clip-path="url(#p1b03f9d96d)" d="M 43.78125 131.20719 
L 824.98125 131.20719 
" style="fill:none;stroke:#b0b0b0;stroke-linecap:square;stroke-width:0.8;"/>
     </g>
     <g id="line2d_20">
      <g>
       <use style="stroke:#000000;stroke-width:0.8;" x="43.78125" xlink:href="#me383248cb3" y="131.20719"/>
      </g>
     </g>
     <g id="text_11">
      <!-- 0.4 -->
      <g transform="translate(20.878125 135.006408)scale(0.1 -0.1)">
       <use xlink:href="#DejaVuSans-48"/>
       <use x="63.623047" xlink:href="#DejaVuSans-46"/>
       <use x="95.410156" xlink:href="#DejaVuSans-52"/>
      </g>
     </g>
    </g>
    <g id="ytick_6">
     <g id="line2d_21">
      <path clip-path="url(#p1b03f9d96d)" d="M 43.78125 93.568056 
L 824.98125 93.568056 
" style="fill:none;stroke:#b0b0b0;stroke-linecap:square;stroke-width:0.8;"/>
     </g>
     <g id="line2d_22">
      <g>
       <use style="stroke:#000000;stroke-width:0.8;" x="43.78125" xlink:href="#me383248cb3" y="93.568056"/>
      </g>
     </g>
     <g id="text_12">
      <!-- 0.5 -->
      <defs>
       <path d="M 10.796875 72.90625 
L 49.515625 72.90625 
L 49.515625 64.59375 
L 19.828125 64.59375 
L 19.828125 46.734375 
Q 21.96875 47.46875 24.109375 47.828125 
Q 26.265625 48.1875 28.421875 48.1875 
Q 40.625 48.1875 47.75 41.5 
Q 54.890625 34.8125 54.890625 23.390625 
Q 54.890625 11.625 47.5625 5.09375 
Q 40.234375 -1.421875 26.90625 -1.421875 
Q 22.3125 -1.421875 17.546875 -0.640625 
Q 12.796875 0.140625 7.71875 1.703125 
L 7.71875 11.625 
Q 12.109375 9.234375 16.796875 8.0625 
Q 21.484375 6.890625 26.703125 6.890625 
Q 35.15625 6.890625 40.078125 11.328125 
Q 45.015625 15.765625 45.015625 23.390625 
Q 45.015625 31 40.078125 35.4375 
Q 35.15625 39.890625 26.703125 39.890625 
Q 22.75 39.890625 18.8125 39.015625 
Q 14.890625 38.140625 10.796875 36.28125 
z
" id="DejaVuSans-53"/>
      </defs>
      <g transform="translate(20.878125 97.367275)scale(0.1 -0.1)">
       <use xlink:href="#DejaVuSans-48"/>
       <use x="63.623047" xlink:href="#DejaVuSans-46"/>
       <use x="95.410156" xlink:href="#DejaVuSans-53"/>
      </g>
     </g>
    </g>
    <g id="ytick_7">
     <g id="line2d_23">
      <path clip-path="url(#p1b03f9d96d)" d="M 43.78125 55.928922 
L 824.98125 55.928922 
" style="fill:none;stroke:#b0b0b0;stroke-linecap:square;stroke-width:0.8;"/>
     </g>
     <g id="line2d_24">
      <g>
       <use style="stroke:#000000;stroke-width:0.8;" x="43.78125" xlink:href="#me383248cb3" y="55.928922"/>
      </g>
     </g>
     <g id="text_13">
      <!-- 0.6 -->
      <defs>
       <path d="M 33.015625 40.375 
Q 26.375 40.375 22.484375 35.828125 
Q 18.609375 31.296875 18.609375 23.390625 
Q 18.609375 15.53125 22.484375 10.953125 
Q 26.375 6.390625 33.015625 6.390625 
Q 39.65625 6.390625 43.53125 10.953125 
Q 47.40625 15.53125 47.40625 23.390625 
Q 47.40625 31.296875 43.53125 35.828125 
Q 39.65625 40.375 33.015625 40.375 
z
M 52.59375 71.296875 
L 52.59375 62.3125 
Q 48.875 64.0625 45.09375 64.984375 
Q 41.3125 65.921875 37.59375 65.921875 
Q 27.828125 65.921875 22.671875 59.328125 
Q 17.53125 52.734375 16.796875 39.40625 
Q 19.671875 43.65625 24.015625 45.921875 
Q 28.375 48.1875 33.59375 48.1875 
Q 44.578125 48.1875 50.953125 41.515625 
Q 57.328125 34.859375 57.328125 23.390625 
Q 57.328125 12.15625 50.6875 5.359375 
Q 44.046875 -1.421875 33.015625 -1.421875 
Q 20.359375 -1.421875 13.671875 8.265625 
Q 6.984375 17.96875 6.984375 36.375 
Q 6.984375 53.65625 15.1875 63.9375 
Q 23.390625 74.21875 37.203125 74.21875 
Q 40.921875 74.21875 44.703125 73.484375 
Q 48.484375 72.75 52.59375 71.296875 
z
" id="DejaVuSans-54"/>
      </defs>
      <g transform="translate(20.878125 59.728141)scale(0.1 -0.1)">
       <use xlink:href="#DejaVuSans-48"/>
       <use x="63.623047" xlink:href="#DejaVuSans-46"/>
       <use x="95.410156" xlink:href="#DejaVuSans-54"/>
      </g>
     </g>
    </g>
    <g id="text_14">
     <!-- Error -->
     <defs>
      <path d="M 9.8125 72.90625 
L 55.90625 72.90625 
L 55.90625 64.59375 
L 19.671875 64.59375 
L 19.671875 43.015625 
L 54.390625 43.015625 
L 54.390625 34.71875 
L 19.671875 34.71875 
L 19.671875 8.296875 
L 56.78125 8.296875 
L 56.78125 0 
L 9.8125 0 
z
" id="DejaVuSans-69"/>
      <path d="M 30.609375 48.390625 
Q 23.390625 48.390625 19.1875 42.75 
Q 14.984375 37.109375 14.984375 27.296875 
Q 14.984375 17.484375 19.15625 11.84375 
Q 23.34375 6.203125 30.609375 6.203125 
Q 37.796875 6.203125 41.984375 11.859375 
Q 46.1875 17.53125 46.1875 27.296875 
Q 46.1875 37.015625 41.984375 42.703125 
Q 37.796875 48.390625 30.609375 48.390625 
z
M 30.609375 56 
Q 42.328125 56 49.015625 48.375 
Q 55.71875 40.765625 55.71875 27.296875 
Q 55.71875 13.875 49.015625 6.21875 
Q 42.328125 -1.421875 30.609375 -1.421875 
Q 18.84375 -1.421875 12.171875 6.21875 
Q 5.515625 13.875 5.515625 27.296875 
Q 5.515625 40.765625 12.171875 48.375 
Q 18.84375 56 30.609375 56 
z
" id="DejaVuSans-111"/>
     </defs>
     <g transform="translate(14.798438 170.403281)rotate(-90)scale(0.1 -0.1)">
      <use xlink:href="#DejaVuSans-69"/>
      <use x="63.183594" xlink:href="#DejaVuSans-114"/>
      <use x="102.546875" xlink:href="#DejaVuSans-114"/>
      <use x="141.410156" xlink:href="#DejaVuSans-111"/>
      <use x="202.591797" xlink:href="#DejaVuSans-114"/>
     </g>
    </g>
   </g>
   <g id="line2d_25">
    <path clip-path="url(#p1b03f9d96d)" d="M 79.290341 258.630575 
L 94.400592 254.003756 
L 109.510844 255.899327 
L 124.621095 253.130654 
L 139.731347 255.758331 
L 154.841598 253.990867 
L 169.95185 248.021678 
L 185.062101 250.018604 
L 200.172353 256.356954 
L 215.282604 248.458927 
L 230.392855 248.579452 
L 245.503107 250.598288 
L 260.613358 258.91209 
L 275.72361 260.224876 
L 290.833861 262.864145 
L 305.944113 264.484742 
L 321.054364 264.807735 
L 336.164616 264.816541 
L 351.274867 264.931307 
L 366.385118 264.923443 
L 381.49537 265.161456 
L 396.605621 265.061084 
L 411.715873 265.12632 
L 426.826124 265.233541 
L 441.936376 264.211167 
L 457.046627 264.374535 
L 472.156879 263.992767 
L 487.26713 264.24461 
L 502.377382 264.374637 
L 517.487633 264.582388 
L 532.597884 264.633744 
L 547.708136 265.029955 
L 562.818387 265.253581 
L 577.928639 265.16205 
L 593.03889 264.873097 
L 608.149142 264.697999 
L 623.259393 264.540954 
L 638.369645 264.28573 
L 653.479896 264.365025 
L 668.590147 264.467132 
L 683.700399 264.570491 
L 698.81065 264.628505 
L 713.920902 264.699284 
L 729.031153 264.872798 
L 744.141405 265.008566 
L 759.251656 264.822773 
L 774.361908 264.723136 
L 789.472159 264.779655 
" style="fill:none;stroke:#ff0000;stroke-linecap:square;stroke-width:1.5;"/>
    <defs>
     <path d="M -3 0 
L 3 0 
M 0 3 
L 0 -3 
" id="mf0aaa1ab63" style="stroke:#ff0000;"/>
    </defs>
    <g clip-path="url(#p1b03f9d96d)">
     <use style="fill:#ff0000;stroke:#ff0000;" x="79.290341" xlink:href="#mf0aaa1ab63" y="258.630575"/>
     <use style="fill:#ff0000;stroke:#ff0000;" x="94.400592" xlink:href="#mf0aaa1ab63" y="254.003756"/>
     <use style="fill:#ff0000;stroke:#ff0000;" x="109.510844" xlink:href="#mf0aaa1ab63" y="255.899327"/>
     <use style="fill:#ff0000;stroke:#ff0000;" x="124.621095" xlink:href="#mf0aaa1ab63" y="253.130654"/>
     <use style="fill:#ff0000;stroke:#ff0000;" x="139.731347" xlink:href="#mf0aaa1ab63" y="255.758331"/>
     <use style="fill:#ff0000;stroke:#ff0000;" x="154.841598" xlink:href="#mf0aaa1ab63" y="253.990867"/>
     <use style="fill:#ff0000;stroke:#ff0000;" x="169.95185" xlink:href="#mf0aaa1ab63" y="248.021678"/>
     <use style="fill:#ff0000;stroke:#ff0000;" x="185.062101" xlink:href="#mf0aaa1ab63" y="250.018604"/>
     <use style="fill:#ff0000;stroke:#ff0000;" x="200.172353" xlink:href="#mf0aaa1ab63" y="256.356954"/>
     <use style="fill:#ff0000;stroke:#ff0000;" x="215.282604" xlink:href="#mf0aaa1ab63" y="248.458927"/>
     <use style="fill:#ff0000;stroke:#ff0000;" x="230.392855" xlink:href="#mf0aaa1ab63" y="248.579452"/>
     <use style="fill:#ff0000;stroke:#ff0000;" x="245.503107" xlink:href="#mf0aaa1ab63" y="250.598288"/>
     <use style="fill:#ff0000;stroke:#ff0000;" x="260.613358" xlink:href="#mf0aaa1ab63" y="258.91209"/>
     <use style="fill:#ff0000;stroke:#ff0000;" x="275.72361" xlink:href="#mf0aaa1ab63" y="260.224876"/>
     <use style="fill:#ff0000;stroke:#ff0000;" x="290.833861" xlink:href="#mf0aaa1ab63" y="262.864145"/>
     <use style="fill:#ff0000;stroke:#ff0000;" x="305.944113" xlink:href="#mf0aaa1ab63" y="264.484742"/>
     <use style="fill:#ff0000;stroke:#ff0000;" x="321.054364" xlink:href="#mf0aaa1ab63" y="264.807735"/>
     <use style="fill:#ff0000;stroke:#ff0000;" x="336.164616" xlink:href="#mf0aaa1ab63" y="264.816541"/>
     <use style="fill:#ff0000;stroke:#ff0000;" x="351.274867" xlink:href="#mf0aaa1ab63" y="264.931307"/>
     <use style="fill:#ff0000;stroke:#ff0000;" x="366.385118" xlink:href="#mf0aaa1ab63" y="264.923443"/>
     <use style="fill:#ff0000;stroke:#ff0000;" x="381.49537" xlink:href="#mf0aaa1ab63" y="265.161456"/>
     <use style="fill:#ff0000;stroke:#ff0000;" x="396.605621" xlink:href="#mf0aaa1ab63" y="265.061084"/>
     <use style="fill:#ff0000;stroke:#ff0000;" x="411.715873" xlink:href="#mf0aaa1ab63" y="265.12632"/>
     <use style="fill:#ff0000;stroke:#ff0000;" x="426.826124" xlink:href="#mf0aaa1ab63" y="265.233541"/>
     <use style="fill:#ff0000;stroke:#ff0000;" x="441.936376" xlink:href="#mf0aaa1ab63" y="264.211167"/>
     <use style="fill:#ff0000;stroke:#ff0000;" x="457.046627" xlink:href="#mf0aaa1ab63" y="264.374535"/>
     <use style="fill:#ff0000;stroke:#ff0000;" x="472.156879" xlink:href="#mf0aaa1ab63" y="263.992767"/>
     <use style="fill:#ff0000;stroke:#ff0000;" x="487.26713" xlink:href="#mf0aaa1ab63" y="264.24461"/>
     <use style="fill:#ff0000;stroke:#ff0000;" x="502.377382" xlink:href="#mf0aaa1ab63" y="264.374637"/>
     <use style="fill:#ff0000;stroke:#ff0000;" x="517.487633" xlink:href="#mf0aaa1ab63" y="264.582388"/>
     <use style="fill:#ff0000;stroke:#ff0000;" x="532.597884" xlink:href="#mf0aaa1ab63" y="264.633744"/>
     <use style="fill:#ff0000;stroke:#ff0000;" x="547.708136" xlink:href="#mf0aaa1ab63" y="265.029955"/>
     <use style="fill:#ff0000;stroke:#ff0000;" x="562.818387" xlink:href="#mf0aaa1ab63" y="265.253581"/>
     <use style="fill:#ff0000;stroke:#ff0000;" x="577.928639" xlink:href="#mf0aaa1ab63" y="265.16205"/>
     <use style="fill:#ff0000;stroke:#ff0000;" x="593.03889" xlink:href="#mf0aaa1ab63" y="264.873097"/>
     <use style="fill:#ff0000;stroke:#ff0000;" x="608.149142" xlink:href="#mf0aaa1ab63" y="264.697999"/>
     <use style="fill:#ff0000;stroke:#ff0000;" x="623.259393" xlink:href="#mf0aaa1ab63" y="264.540954"/>
     <use style="fill:#ff0000;stroke:#ff0000;" x="638.369645" xlink:href="#mf0aaa1ab63" y="264.28573"/>
     <use style="fill:#ff0000;stroke:#ff0000;" x="653.479896" xlink:href="#mf0aaa1ab63" y="264.365025"/>
     <use style="fill:#ff0000;stroke:#ff0000;" x="668.590147" xlink:href="#mf0aaa1ab63" y="264.467132"/>
     <use style="fill:#ff0000;stroke:#ff0000;" x="683.700399" xlink:href="#mf0aaa1ab63" y="264.570491"/>
     <use style="fill:#ff0000;stroke:#ff0000;" x="698.81065" xlink:href="#mf0aaa1ab63" y="264.628505"/>
     <use style="fill:#ff0000;stroke:#ff0000;" x="713.920902" xlink:href="#mf0aaa1ab63" y="264.699284"/>
     <use style="fill:#ff0000;stroke:#ff0000;" x="729.031153" xlink:href="#mf0aaa1ab63" y="264.872798"/>
     <use style="fill:#ff0000;stroke:#ff0000;" x="744.141405" xlink:href="#mf0aaa1ab63" y="265.008566"/>
     <use style="fill:#ff0000;stroke:#ff0000;" x="759.251656" xlink:href="#mf0aaa1ab63" y="264.822773"/>
     <use style="fill:#ff0000;stroke:#ff0000;" x="774.361908" xlink:href="#mf0aaa1ab63" y="264.723136"/>
     <use style="fill:#ff0000;stroke:#ff0000;" x="789.472159" xlink:href="#mf0aaa1ab63" y="264.779655"/>
    </g>
   </g>
   <g id="line2d_26">
    <path clip-path="url(#p1b03f9d96d)" d="M 79.290341 235.514342 
L 94.400592 199.322012 
L 109.510844 205.066928 
L 124.621095 228.936247 
L 139.731347 232.548418 
L 154.841598 213.083217 
L 169.95185 180.411261 
L 185.062101 185.904015 
L 200.172353 231.416672 
L 215.282604 181.027092 
L 230.392855 181.294094 
L 245.503107 199.499625 
L 260.613358 176.373969 
L 275.72361 231.748792 
L 290.833861 195.383435 
L 305.944113 202.004613 
L 321.054364 204.10741 
L 336.164616 203.889768 
L 351.274867 204.230041 
L 366.385118 204.044942 
L 381.49537 204.842284 
L 396.605621 204.255411 
L 411.715873 204.423502 
L 426.826124 204.288834 
L 441.936376 201.423059 
L 457.046627 201.828976 
L 472.156879 200.716096 
L 487.26713 201.616047 
L 502.377382 202.160305 
L 517.487633 202.70291 
L 532.597884 203.095894 
L 547.708136 204.448976 
L 562.818387 205.361577 
L 577.928639 204.948636 
L 593.03889 203.844509 
L 608.149142 203.185726 
L 623.259393 202.720639 
L 638.369645 201.89412 
L 653.479896 202.217158 
L 668.590147 202.703554 
L 683.700399 203.034514 
L 698.81065 203.056001 
L 713.920902 203.277586 
L 729.031153 203.869999 
L 744.141405 204.363025 
L 759.251656 203.774588 
L 774.361908 203.325572 
L 789.472159 203.448197 
" style="fill:none;stroke:#0000ff;stroke-linecap:square;stroke-width:1.5;"/>
    <defs>
     <path d="M -3 3 
L 3 -3 
M -3 -3 
L 3 3 
" id="maffdf8e7ac" style="stroke:#0000ff;"/>
    </defs>
    <g clip-path="url(#p1b03f9d96d)">
     <use style="fill:#0000ff;stroke:#0000ff;" x="79.290341" xlink:href="#maffdf8e7ac" y="235.514342"/>
     <use style="fill:#0000ff;stroke:#0000ff;" x="94.400592" xlink:href="#maffdf8e7ac" y="199.322012"/>
     <use style="fill:#0000ff;stroke:#0000ff;" x="109.510844" xlink:href="#maffdf8e7ac" y="205.066928"/>
     <use style="fill:#0000ff;stroke:#0000ff;" x="124.621095" xlink:href="#maffdf8e7ac" y="228.936247"/>
     <use style="fill:#0000ff;stroke:#0000ff;" x="139.731347" xlink:href="#maffdf8e7ac" y="232.548418"/>
     <use style="fill:#0000ff;stroke:#0000ff;" x="154.841598" xlink:href="#maffdf8e7ac" y="213.083217"/>
     <use style="fill:#0000ff;stroke:#0000ff;" x="169.95185" xlink:href="#maffdf8e7ac" y="180.411261"/>
     <use style="fill:#0000ff;stroke:#0000ff;" x="185.062101" xlink:href="#maffdf8e7ac" y="185.904015"/>
     <use style="fill:#0000ff;stroke:#0000ff;" x="200.172353" xlink:href="#maffdf8e7ac" y="231.416672"/>
     <use style="fill:#0000ff;stroke:#0000ff;" x="215.282604" xlink:href="#maffdf8e7ac" y="181.027092"/>
     <use style="fill:#0000ff;stroke:#0000ff;" x="230.392855" xlink:href="#maffdf8e7ac" y="181.294094"/>
     <use style="fill:#0000ff;stroke:#0000ff;" x="245.503107" xlink:href="#maffdf8e7ac" y="199.499625"/>
     <use style="fill:#0000ff;stroke:#0000ff;" x="260.613358" xlink:href="#maffdf8e7ac" y="176.373969"/>
     <use style="fill:#0000ff;stroke:#0000ff;" x="275.72361" xlink:href="#maffdf8e7ac" y="231.748792"/>
     <use style="fill:#0000ff;stroke:#0000ff;" x="290.833861" xlink:href="#maffdf8e7ac" y="195.383435"/>
     <use style="fill:#0000ff;stroke:#0000ff;" x="305.944113" xlink:href="#maffdf8e7ac" y="202.004613"/>
     <use style="fill:#0000ff;stroke:#0000ff;" x="321.054364" xlink:href="#maffdf8e7ac" y="204.10741"/>
     <use style="fill:#0000ff;stroke:#0000ff;" x="336.164616" xlink:href="#maffdf8e7ac" y="203.889768"/>
     <use style="fill:#0000ff;stroke:#0000ff;" x="351.274867" xlink:href="#maffdf8e7ac" y="204.230041"/>
     <use style="fill:#0000ff;stroke:#0000ff;" x="366.385118" xlink:href="#maffdf8e7ac" y="204.044942"/>
     <use style="fill:#0000ff;stroke:#0000ff;" x="381.49537" xlink:href="#maffdf8e7ac" y="204.842284"/>
     <use style="fill:#0000ff;stroke:#0000ff;" x="396.605621" xlink:href="#maffdf8e7ac" y="204.255411"/>
     <use style="fill:#0000ff;stroke:#0000ff;" x="411.715873" xlink:href="#maffdf8e7ac" y="204.423502"/>
     <use style="fill:#0000ff;stroke:#0000ff;" x="426.826124" xlink:href="#maffdf8e7ac" y="204.288834"/>
     <use style="fill:#0000ff;stroke:#0000ff;" x="441.936376" xlink:href="#maffdf8e7ac" y="201.423059"/>
     <use style="fill:#0000ff;stroke:#0000ff;" x="457.046627" xlink:href="#maffdf8e7ac" y="201.828976"/>
     <use style="fill:#0000ff;stroke:#0000ff;" x="472.156879" xlink:href="#maffdf8e7ac" y="200.716096"/>
     <use style="fill:#0000ff;stroke:#0000ff;" x="487.26713" xlink:href="#maffdf8e7ac" y="201.616047"/>
     <use style="fill:#0000ff;stroke:#0000ff;" x="502.377382" xlink:href="#maffdf8e7ac" y="202.160305"/>
     <use style="fill:#0000ff;stroke:#0000ff;" x="517.487633" xlink:href="#maffdf8e7ac" y="202.70291"/>
     <use style="fill:#0000ff;stroke:#0000ff;" x="532.597884" xlink:href="#maffdf8e7ac" y="203.095894"/>
     <use style="fill:#0000ff;stroke:#0000ff;" x="547.708136" xlink:href="#maffdf8e7ac" y="204.448976"/>
     <use style="fill:#0000ff;stroke:#0000ff;" x="562.818387" xlink:href="#maffdf8e7ac" y="205.361577"/>
     <use style="fill:#0000ff;stroke:#0000ff;" x="577.928639" xlink:href="#maffdf8e7ac" y="204.948636"/>
     <use style="fill:#0000ff;stroke:#0000ff;" x="593.03889" xlink:href="#maffdf8e7ac" y="203.844509"/>
     <use style="fill:#0000ff;stroke:#0000ff;" x="608.149142" xlink:href="#maffdf8e7ac" y="203.185726"/>
     <use style="fill:#0000ff;stroke:#0000ff;" x="623.259393" xlink:href="#maffdf8e7ac" y="202.720639"/>
     <use style="fill:#0000ff;stroke:#0000ff;" x="638.369645" xlink:href="#maffdf8e7ac" y="201.89412"/>
     <use style="fill:#0000ff;stroke:#0000ff;" x="653.479896" xlink:href="#maffdf8e7ac" y="202.217158"/>
     <use style="fill:#0000ff;stroke:#0000ff;" x="668.590147" xlink:href="#maffdf8e7ac" y="202.703554"/>
     <use style="fill:#0000ff;stroke:#0000ff;" x="683.700399" xlink:href="#maffdf8e7ac" y="203.034514"/>
     <use style="fill:#0000ff;stroke:#0000ff;" x="698.81065" xlink:href="#maffdf8e7ac" y="203.056001"/>
     <use style="fill:#0000ff;stroke:#0000ff;" x="713.920902" xlink:href="#maffdf8e7ac" y="203.277586"/>
     <use style="fill:#0000ff;stroke:#0000ff;" x="729.031153" xlink:href="#maffdf8e7ac" y="203.869999"/>
     <use style="fill:#0000ff;stroke:#0000ff;" x="744.141405" xlink:href="#maffdf8e7ac" y="204.363025"/>
     <use style="fill:#0000ff;stroke:#0000ff;" x="759.251656" xlink:href="#maffdf8e7ac" y="203.774588"/>
     <use style="fill:#0000ff;stroke:#0000ff;" x="774.361908" xlink:href="#maffdf8e7ac" y="203.325572"/>
     <use style="fill:#0000ff;stroke:#0000ff;" x="789.472159" xlink:href="#maffdf8e7ac" y="203.448197"/>
    </g>
   </g>
   <g id="line2d_27">
    <path clip-path="url(#p1b03f9d96d)" d="M 79.290341 149.677135 
L 94.400592 34.67267 
L 109.510844 52.776699 
L 124.621095 60.160471 
L 139.731347 131.318606 
L 154.841598 161.442669 
L 169.95185 281.7635 
L 185.062101 281.763542 
L 200.172353 76.494596 
L 215.282604 281.76358 
L 230.392855 281.763573 
L 245.503107 72.439841 
L 260.613358 275.449314 
L 275.72361 35.792901 
L 290.833861 183.716865 
L 305.944113 144.913811 
L 321.054364 152.25359 
L 336.164616 152.193172 
L 351.274867 155.07104 
L 366.385118 160.148427 
L 381.49537 158.62246 
L 396.605621 159.604773 
L 411.715873 158.976206 
L 426.826124 144.334726 
L 441.936376 156.597391 
L 457.046627 149.666645 
L 472.156879 154.311615 
L 487.26713 152.901649 
L 502.377382 154.051565 
L 517.487633 150.034771 
L 532.597884 156.343077 
L 547.708136 150.034781 
L 562.818387 149.859099 
L 577.928639 150.848537 
L 593.03889 156.004703 
L 608.149142 155.471523 
L 623.259393 155.823051 
L 638.369645 152.170897 
L 653.479896 149.416237 
L 668.590147 150.19417 
L 683.700399 151.575538 
L 698.81065 153.235728 
L 713.920902 153.30159 
L 729.031153 152.512389 
L 744.141405 152.678002 
L 759.251656 151.395933 
L 774.361908 151.926797 
L 789.472159 150.954235 
" style="fill:none;stroke:#008000;stroke-linecap:square;stroke-width:1.5;"/>
    <defs>
     <path d="M 0 3 
C 0.795609 3 1.55874 2.683901 2.12132 2.12132 
C 2.683901 1.55874 3 0.795609 3 0 
C 3 -0.795609 2.683901 -1.55874 2.12132 -2.12132 
C 1.55874 -2.683901 0.795609 -3 0 -3 
C -0.795609 -3 -1.55874 -2.683901 -2.12132 -2.12132 
C -2.683901 -1.55874 -3 -0.795609 -3 0 
C -3 0.795609 -2.683901 1.55874 -2.12132 2.12132 
C -1.55874 2.683901 -0.795609 3 0 3 
z
" id="m5114e628fb" style="stroke:#008000;"/>
    </defs>
    <g clip-path="url(#p1b03f9d96d)">
     <use style="fill:#008000;stroke:#008000;" x="79.290341" xlink:href="#m5114e628fb" y="149.677135"/>
     <use style="fill:#008000;stroke:#008000;" x="94.400592" xlink:href="#m5114e628fb" y="34.67267"/>
     <use style="fill:#008000;stroke:#008000;" x="109.510844" xlink:href="#m5114e628fb" y="52.776699"/>
     <use style="fill:#008000;stroke:#008000;" x="124.621095" xlink:href="#m5114e628fb" y="60.160471"/>
     <use style="fill:#008000;stroke:#008000;" x="139.731347" xlink:href="#m5114e628fb" y="131.318606"/>
     <use style="fill:#008000;stroke:#008000;" x="154.841598" xlink:href="#m5114e628fb" y="161.442669"/>
     <use style="fill:#008000;stroke:#008000;" x="169.95185" xlink:href="#m5114e628fb" y="281.7635"/>
     <use style="fill:#008000;stroke:#008000;" x="185.062101" xlink:href="#m5114e628fb" y="281.763542"/>
     <use style="fill:#008000;stroke:#008000;" x="200.172353" xlink:href="#m5114e628fb" y="76.494596"/>
     <use style="fill:#008000;stroke:#008000;" x="215.282604" xlink:href="#m5114e628fb" y="281.76358"/>
     <use style="fill:#008000;stroke:#008000;" x="230.392855" xlink:href="#m5114e628fb" y="281.763573"/>
     <use style="fill:#008000;stroke:#008000;" x="245.503107" xlink:href="#m5114e628fb" y="72.439841"/>
     <use style="fill:#008000;stroke:#008000;" x="260.613358" xlink:href="#m5114e628fb" y="275.449314"/>
     <use style="fill:#008000;stroke:#008000;" x="275.72361" xlink:href="#m5114e628fb" y="35.792901"/>
     <use style="fill:#008000;stroke:#008000;" x="290.833861" xlink:href="#m5114e628fb" y="183.716865"/>
     <use style="fill:#008000;stroke:#008000;" x="305.944113" xlink:href="#m5114e628fb" y="144.913811"/>
     <use style="fill:#008000;stroke:#008000;" x="321.054364" xlink:href="#m5114e628fb" y="152.25359"/>
     <use style="fill:#008000;stroke:#008000;" x="336.164616" xlink:href="#m5114e628fb" y="152.193172"/>
     <use style="fill:#008000;stroke:#008000;" x="351.274867" xlink:href="#m5114e628fb" y="155.07104"/>
     <use style="fill:#008000;stroke:#008000;" x="366.385118" xlink:href="#m5114e628fb" y="160.148427"/>
     <use style="fill:#008000;stroke:#008000;" x="381.49537" xlink:href="#m5114e628fb" y="158.62246"/>
     <use style="fill:#008000;stroke:#008000;" x="396.605621" xlink:href="#m5114e628fb" y="159.604773"/>
     <use style="fill:#008000;stroke:#008000;" x="411.715873" xlink:href="#m5114e628fb" y="158.976206"/>
     <use style="fill:#008000;stroke:#008000;" x="426.826124" xlink:href="#m5114e628fb" y="144.334726"/>
     <use style="fill:#008000;stroke:#008000;" x="441.936376" xlink:href="#m5114e628fb" y="156.597391"/>
     <use style="fill:#008000;stroke:#008000;" x="457.046627" xlink:href="#m5114e628fb" y="149.666645"/>
     <use style="fill:#008000;stroke:#008000;" x="472.156879" xlink:href="#m5114e628fb" y="154.311615"/>
     <use style="fill:#008000;stroke:#008000;" x="487.26713" xlink:href="#m5114e628fb" y="152.901649"/>
     <use style="fill:#008000;stroke:#008000;" x="502.377382" xlink:href="#m5114e628fb" y="154.051565"/>
     <use style="fill:#008000;stroke:#008000;" x="517.487633" xlink:href="#m5114e628fb" y="150.034771"/>
     <use style="fill:#008000;stroke:#008000;" x="532.597884" xlink:href="#m5114e628fb" y="156.343077"/>
     <use style="fill:#008000;stroke:#008000;" x="547.708136" xlink:href="#m5114e628fb" y="150.034781"/>
     <use style="fill:#008000;stroke:#008000;" x="562.818387" xlink:href="#m5114e628fb" y="149.859099"/>
     <use style="fill:#008000;stroke:#008000;" x="577.928639" xlink:href="#m5114e628fb" y="150.848537"/>
     <use style="fill:#008000;stroke:#008000;" x="593.03889" xlink:href="#m5114e628fb" y="156.004703"/>
     <use style="fill:#008000;stroke:#008000;" x="608.149142" xlink:href="#m5114e628fb" y="155.471523"/>
     <use style="fill:#008000;stroke:#008000;" x="623.259393" xlink:href="#m5114e628fb" y="155.823051"/>
     <use style="fill:#008000;stroke:#008000;" x="638.369645" xlink:href="#m5114e628fb" y="152.170897"/>
     <use style="fill:#008000;stroke:#008000;" x="653.479896" xlink:href="#m5114e628fb" y="149.416237"/>
     <use style="fill:#008000;stroke:#008000;" x="668.590147" xlink:href="#m5114e628fb" y="150.19417"/>
     <use style="fill:#008000;stroke:#008000;" x="683.700399" xlink:href="#m5114e628fb" y="151.575538"/>
     <use style="fill:#008000;stroke:#008000;" x="698.81065" xlink:href="#m5114e628fb" y="153.235728"/>
     <use style="fill:#008000;stroke:#008000;" x="713.920902" xlink:href="#m5114e628fb" y="153.30159"/>
     <use style="fill:#008000;stroke:#008000;" x="729.031153" xlink:href="#m5114e628fb" y="152.512389"/>
     <use style="fill:#008000;stroke:#008000;" x="744.141405" xlink:href="#m5114e628fb" y="152.678002"/>
     <use style="fill:#008000;stroke:#008000;" x="759.251656" xlink:href="#m5114e628fb" y="151.395933"/>
     <use style="fill:#008000;stroke:#008000;" x="774.361908" xlink:href="#m5114e628fb" y="151.926797"/>
     <use style="fill:#008000;stroke:#008000;" x="789.472159" xlink:href="#m5114e628fb" y="150.954235"/>
    </g>
   </g>
   <g id="patch_3">
    <path d="M 43.78125 294.118125 
L 43.78125 22.318125 
" style="fill:none;stroke:#000000;stroke-linecap:square;stroke-linejoin:miter;stroke-width:0.8;"/>
   </g>
   <g id="patch_4">
    <path d="M 824.98125 294.118125 
L 824.98125 22.318125 
" style="fill:none;stroke:#000000;stroke-linecap:square;stroke-linejoin:miter;stroke-width:0.8;"/>
   </g>
   <g id="patch_5">
    <path d="M 43.78125 294.118125 
L 824.98125 294.118125 
" style="fill:none;stroke:#000000;stroke-linecap:square;stroke-linejoin:miter;stroke-width:0.8;"/>
   </g>
   <g id="patch_6">
    <path d="M 43.78125 22.318125 
L 824.98125 22.318125 
" style="fill:none;stroke:#000000;stroke-linecap:square;stroke-linejoin:miter;stroke-width:0.8;"/>
   </g>
   <g id="text_15">
    <!-- Ridge Regression Errors across time segments- Max 1 year training window -->
    <defs>
     <path d="M 44.390625 34.1875 
Q 47.5625 33.109375 50.5625 29.59375 
Q 53.5625 26.078125 56.59375 19.921875 
L 66.609375 0 
L 56 0 
L 46.6875 18.703125 
Q 43.0625 26.03125 39.671875 28.421875 
Q 36.28125 30.8125 30.421875 30.8125 
L 19.671875 30.8125 
L 19.671875 0 
L 9.8125 0 
L 9.8125 72.90625 
L 32.078125 72.90625 
Q 44.578125 72.90625 50.734375 67.671875 
Q 56.890625 62.453125 56.890625 51.90625 
Q 56.890625 45.015625 53.6875 40.46875 
Q 50.484375 35.9375 44.390625 34.1875 
z
M 19.671875 64.796875 
L 19.671875 38.921875 
L 32.078125 38.921875 
Q 39.203125 38.921875 42.84375 42.21875 
Q 46.484375 45.515625 46.484375 51.90625 
Q 46.484375 58.296875 42.84375 61.546875 
Q 39.203125 64.796875 32.078125 64.796875 
z
" id="DejaVuSans-82"/>
     <path d="M 45.40625 46.390625 
L 45.40625 75.984375 
L 54.390625 75.984375 
L 54.390625 0 
L 45.40625 0 
L 45.40625 8.203125 
Q 42.578125 3.328125 38.25 0.953125 
Q 33.9375 -1.421875 27.875 -1.421875 
Q 17.96875 -1.421875 11.734375 6.484375 
Q 5.515625 14.40625 5.515625 27.296875 
Q 5.515625 40.1875 11.734375 48.09375 
Q 17.96875 56 27.875 56 
Q 33.9375 56 38.25 53.625 
Q 42.578125 51.265625 45.40625 46.390625 
z
M 14.796875 27.296875 
Q 14.796875 17.390625 18.875 11.75 
Q 22.953125 6.109375 30.078125 6.109375 
Q 37.203125 6.109375 41.296875 11.75 
Q 45.40625 17.390625 45.40625 27.296875 
Q 45.40625 37.203125 41.296875 42.84375 
Q 37.203125 48.484375 30.078125 48.484375 
Q 22.953125 48.484375 18.875 42.84375 
Q 14.796875 37.203125 14.796875 27.296875 
z
" id="DejaVuSans-100"/>
     <path d="M 44.28125 53.078125 
L 44.28125 44.578125 
Q 40.484375 46.53125 36.375 47.5 
Q 32.28125 48.484375 27.875 48.484375 
Q 21.1875 48.484375 17.84375 46.4375 
Q 14.5 44.390625 14.5 40.28125 
Q 14.5 37.15625 16.890625 35.375 
Q 19.28125 33.59375 26.515625 31.984375 
L 29.59375 31.296875 
Q 39.15625 29.25 43.1875 25.515625 
Q 47.21875 21.78125 47.21875 15.09375 
Q 47.21875 7.46875 41.1875 3.015625 
Q 35.15625 -1.421875 24.609375 -1.421875 
Q 20.21875 -1.421875 15.453125 -0.5625 
Q 10.6875 0.296875 5.421875 2 
L 5.421875 11.28125 
Q 10.40625 8.6875 15.234375 7.390625 
Q 20.0625 6.109375 24.8125 6.109375 
Q 31.15625 6.109375 34.5625 8.28125 
Q 37.984375 10.453125 37.984375 14.40625 
Q 37.984375 18.0625 35.515625 20.015625 
Q 33.0625 21.96875 24.703125 23.78125 
L 21.578125 24.515625 
Q 13.234375 26.265625 9.515625 29.90625 
Q 5.8125 33.546875 5.8125 39.890625 
Q 5.8125 47.609375 11.28125 51.796875 
Q 16.75 56 26.8125 56 
Q 31.78125 56 36.171875 55.265625 
Q 40.578125 54.546875 44.28125 53.078125 
z
" id="DejaVuSans-115"/>
     <path d="M 48.78125 52.59375 
L 48.78125 44.1875 
Q 44.96875 46.296875 41.140625 47.34375 
Q 37.3125 48.390625 33.40625 48.390625 
Q 24.65625 48.390625 19.8125 42.84375 
Q 14.984375 37.3125 14.984375 27.296875 
Q 14.984375 17.28125 19.8125 11.734375 
Q 24.65625 6.203125 33.40625 6.203125 
Q 37.3125 6.203125 41.140625 7.25 
Q 44.96875 8.296875 48.78125 10.40625 
L 48.78125 2.09375 
Q 45.015625 0.34375 40.984375 -0.53125 
Q 36.96875 -1.421875 32.421875 -1.421875 
Q 20.0625 -1.421875 12.78125 6.34375 
Q 5.515625 14.109375 5.515625 27.296875 
Q 5.515625 40.671875 12.859375 48.328125 
Q 20.21875 56 33.015625 56 
Q 37.15625 56 41.109375 55.140625 
Q 45.0625 54.296875 48.78125 52.59375 
z
" id="DejaVuSans-99"/>
     <path d="M 4.890625 31.390625 
L 31.203125 31.390625 
L 31.203125 23.390625 
L 4.890625 23.390625 
z
" id="DejaVuSans-45"/>
     <path d="M 9.8125 72.90625 
L 24.515625 72.90625 
L 43.109375 23.296875 
L 61.8125 72.90625 
L 76.515625 72.90625 
L 76.515625 0 
L 66.890625 0 
L 66.890625 64.015625 
L 48.09375 14.015625 
L 38.1875 14.015625 
L 19.390625 64.015625 
L 19.390625 0 
L 9.8125 0 
z
" id="DejaVuSans-77"/>
     <path d="M 54.890625 54.6875 
L 35.109375 28.078125 
L 55.90625 0 
L 45.3125 0 
L 29.390625 21.484375 
L 13.484375 0 
L 2.875 0 
L 24.125 28.609375 
L 4.6875 54.6875 
L 15.28125 54.6875 
L 29.78125 35.203125 
L 44.28125 54.6875 
z
" id="DejaVuSans-120"/>
     <path d="M 32.171875 -5.078125 
Q 28.375 -14.84375 24.75 -17.8125 
Q 21.140625 -20.796875 15.09375 -20.796875 
L 7.90625 -20.796875 
L 7.90625 -13.28125 
L 13.1875 -13.28125 
Q 16.890625 -13.28125 18.9375 -11.515625 
Q 21 -9.765625 23.484375 -3.21875 
L 25.09375 0.875 
L 2.984375 54.6875 
L 12.5 54.6875 
L 29.59375 11.921875 
L 46.6875 54.6875 
L 56.203125 54.6875 
z
" id="DejaVuSans-121"/>
     <path d="M 4.203125 54.6875 
L 13.1875 54.6875 
L 24.421875 12.015625 
L 35.59375 54.6875 
L 46.1875 54.6875 
L 57.421875 12.015625 
L 68.609375 54.6875 
L 77.59375 54.6875 
L 63.28125 0 
L 52.6875 0 
L 40.921875 44.828125 
L 29.109375 0 
L 18.5 0 
z
" id="DejaVuSans-119"/>
    </defs>
    <g transform="translate(207.594375 16.318125)scale(0.12 -0.12)">
     <use xlink:href="#DejaVuSans-82"/>
     <use x="69.482422" xlink:href="#DejaVuSans-105"/>
     <use x="97.265625" xlink:href="#DejaVuSans-100"/>
     <use x="160.742188" xlink:href="#DejaVuSans-103"/>
     <use x="224.21875" xlink:href="#DejaVuSans-101"/>
     <use x="285.742188" xlink:href="#DejaVuSans-32"/>
     <use x="317.529297" xlink:href="#DejaVuSans-82"/>
     <use x="382.511719" xlink:href="#DejaVuSans-101"/>
     <use x="444.035156" xlink:href="#DejaVuSans-103"/>
     <use x="507.511719" xlink:href="#DejaVuSans-114"/>
     <use x="546.375" xlink:href="#DejaVuSans-101"/>
     <use x="607.898438" xlink:href="#DejaVuSans-115"/>
     <use x="659.998047" xlink:href="#DejaVuSans-115"/>
     <use x="712.097656" xlink:href="#DejaVuSans-105"/>
     <use x="739.880859" xlink:href="#DejaVuSans-111"/>
     <use x="801.0625" xlink:href="#DejaVuSans-110"/>
     <use x="864.441406" xlink:href="#DejaVuSans-32"/>
     <use x="896.228516" xlink:href="#DejaVuSans-69"/>
     <use x="959.412109" xlink:href="#DejaVuSans-114"/>
     <use x="998.775391" xlink:href="#DejaVuSans-114"/>
     <use x="1037.638672" xlink:href="#DejaVuSans-111"/>
     <use x="1098.820312" xlink:href="#DejaVuSans-114"/>
     <use x="1139.933594" xlink:href="#DejaVuSans-115"/>
     <use x="1192.033203" xlink:href="#DejaVuSans-32"/>
     <use x="1223.820312" xlink:href="#DejaVuSans-97"/>
     <use x="1285.099609" xlink:href="#DejaVuSans-99"/>
     <use x="1340.080078" xlink:href="#DejaVuSans-114"/>
     <use x="1378.943359" xlink:href="#DejaVuSans-111"/>
     <use x="1440.125" xlink:href="#DejaVuSans-115"/>
     <use x="1492.224609" xlink:href="#DejaVuSans-115"/>
     <use x="1544.324219" xlink:href="#DejaVuSans-32"/>
     <use x="1576.111328" xlink:href="#DejaVuSans-116"/>
     <use x="1615.320312" xlink:href="#DejaVuSans-105"/>
     <use x="1643.103516" xlink:href="#DejaVuSans-109"/>
     <use x="1740.515625" xlink:href="#DejaVuSans-101"/>
     <use x="1802.039062" xlink:href="#DejaVuSans-32"/>
     <use x="1833.826172" xlink:href="#DejaVuSans-115"/>
     <use x="1885.925781" xlink:href="#DejaVuSans-101"/>
     <use x="1947.449219" xlink:href="#DejaVuSans-103"/>
     <use x="2010.925781" xlink:href="#DejaVuSans-109"/>
     <use x="2108.337891" xlink:href="#DejaVuSans-101"/>
     <use x="2169.861328" xlink:href="#DejaVuSans-110"/>
     <use x="2233.240234" xlink:href="#DejaVuSans-116"/>
     <use x="2272.449219" xlink:href="#DejaVuSans-115"/>
     <use x="2324.548828" xlink:href="#DejaVuSans-45"/>
     <use x="2360.632812" xlink:href="#DejaVuSans-32"/>
     <use x="2392.419922" xlink:href="#DejaVuSans-77"/>
     <use x="2478.699219" xlink:href="#DejaVuSans-97"/>
     <use x="2539.978516" xlink:href="#DejaVuSans-120"/>
     <use x="2599.158203" xlink:href="#DejaVuSans-32"/>
     <use x="2630.945312" xlink:href="#DejaVuSans-49"/>
     <use x="2694.568359" xlink:href="#DejaVuSans-32"/>
     <use x="2726.355469" xlink:href="#DejaVuSans-121"/>
     <use x="2785.535156" xlink:href="#DejaVuSans-101"/>
     <use x="2847.058594" xlink:href="#DejaVuSans-97"/>
     <use x="2908.337891" xlink:href="#DejaVuSans-114"/>
     <use x="2949.451172" xlink:href="#DejaVuSans-32"/>
     <use x="2981.238281" xlink:href="#DejaVuSans-116"/>
     <use x="3020.447266" xlink:href="#DejaVuSans-114"/>
     <use x="3061.560547" xlink:href="#DejaVuSans-97"/>
     <use x="3122.839844" xlink:href="#DejaVuSans-105"/>
     <use x="3150.623047" xlink:href="#DejaVuSans-110"/>
     <use x="3214.001953" xlink:href="#DejaVuSans-105"/>
     <use x="3241.785156" xlink:href="#DejaVuSans-110"/>
     <use x="3305.164062" xlink:href="#DejaVuSans-103"/>
     <use x="3368.640625" xlink:href="#DejaVuSans-32"/>
     <use x="3400.427734" xlink:href="#DejaVuSans-119"/>
     <use x="3482.214844" xlink:href="#DejaVuSans-105"/>
     <use x="3509.998047" xlink:href="#DejaVuSans-110"/>
     <use x="3573.376953" xlink:href="#DejaVuSans-100"/>
     <use x="3636.853516" xlink:href="#DejaVuSans-111"/>
     <use x="3698.035156" xlink:href="#DejaVuSans-119"/>
    </g>
   </g>
   <g id="legend_1">
    <g id="patch_7">
     <path d="M 624.878125 74.3525 
L 817.98125 74.3525 
Q 819.98125 74.3525 819.98125 72.3525 
L 819.98125 29.318125 
Q 819.98125 27.318125 817.98125 27.318125 
L 624.878125 27.318125 
Q 622.878125 27.318125 622.878125 29.318125 
L 622.878125 72.3525 
Q 622.878125 74.3525 624.878125 74.3525 
z
" style="fill:#ffffff;opacity:0.8;stroke:#cccccc;stroke-linejoin:miter;"/>
    </g>
    <g id="line2d_28">
     <path d="M 626.878125 35.416562 
L 646.878125 35.416562 
" style="fill:none;stroke:#ff0000;stroke-linecap:square;stroke-width:1.5;"/>
    </g>
    <g id="line2d_29">
     <g>
      <use style="fill:#ff0000;stroke:#ff0000;" x="636.878125" xlink:href="#mf0aaa1ab63" y="35.416562"/>
     </g>
    </g>
    <g id="text_16">
     <!-- Mean Absolute Error -->
     <defs>
      <path d="M 34.1875 63.1875 
L 20.796875 26.90625 
L 47.609375 26.90625 
z
M 28.609375 72.90625 
L 39.796875 72.90625 
L 67.578125 0 
L 57.328125 0 
L 50.6875 18.703125 
L 17.828125 18.703125 
L 11.1875 0 
L 0.78125 0 
z
" id="DejaVuSans-65"/>
      <path d="M 9.421875 75.984375 
L 18.40625 75.984375 
L 18.40625 0 
L 9.421875 0 
z
" id="DejaVuSans-108"/>
     </defs>
     <g transform="translate(654.878125 38.916562)scale(0.1 -0.1)">
      <use xlink:href="#DejaVuSans-77"/>
      <use x="86.279297" xlink:href="#DejaVuSans-101"/>
      <use x="147.802734" xlink:href="#DejaVuSans-97"/>
      <use x="209.082031" xlink:href="#DejaVuSans-110"/>
      <use x="272.460938" xlink:href="#DejaVuSans-32"/>
      <use x="304.248047" xlink:href="#DejaVuSans-65"/>
      <use x="372.65625" xlink:href="#DejaVuSans-98"/>
      <use x="436.132812" xlink:href="#DejaVuSans-115"/>
      <use x="488.232422" xlink:href="#DejaVuSans-111"/>
      <use x="549.414062" xlink:href="#DejaVuSans-108"/>
      <use x="577.197266" xlink:href="#DejaVuSans-117"/>
      <use x="640.576172" xlink:href="#DejaVuSans-116"/>
      <use x="679.785156" xlink:href="#DejaVuSans-101"/>
      <use x="741.308594" xlink:href="#DejaVuSans-32"/>
      <use x="773.095703" xlink:href="#DejaVuSans-69"/>
      <use x="836.279297" xlink:href="#DejaVuSans-114"/>
      <use x="875.642578" xlink:href="#DejaVuSans-114"/>
      <use x="914.505859" xlink:href="#DejaVuSans-111"/>
      <use x="975.6875" xlink:href="#DejaVuSans-114"/>
     </g>
    </g>
    <g id="line2d_30">
     <path d="M 626.878125 50.094688 
L 646.878125 50.094688 
" style="fill:none;stroke:#0000ff;stroke-linecap:square;stroke-width:1.5;"/>
    </g>
    <g id="line2d_31">
     <g>
      <use style="fill:#0000ff;stroke:#0000ff;" x="636.878125" xlink:href="#maffdf8e7ac" y="50.094688"/>
     </g>
    </g>
    <g id="text_17">
     <!-- Mean Absolute Percentage Error -->
     <defs>
      <path d="M 19.671875 64.796875 
L 19.671875 37.40625 
L 32.078125 37.40625 
Q 38.96875 37.40625 42.71875 40.96875 
Q 46.484375 44.53125 46.484375 51.125 
Q 46.484375 57.671875 42.71875 61.234375 
Q 38.96875 64.796875 32.078125 64.796875 
z
M 9.8125 72.90625 
L 32.078125 72.90625 
Q 44.34375 72.90625 50.609375 67.359375 
Q 56.890625 61.8125 56.890625 51.125 
Q 56.890625 40.328125 50.609375 34.8125 
Q 44.34375 29.296875 32.078125 29.296875 
L 19.671875 29.296875 
L 19.671875 0 
L 9.8125 0 
z
" id="DejaVuSans-80"/>
     </defs>
     <g transform="translate(654.878125 53.594688)scale(0.1 -0.1)">
      <use xlink:href="#DejaVuSans-77"/>
      <use x="86.279297" xlink:href="#DejaVuSans-101"/>
      <use x="147.802734" xlink:href="#DejaVuSans-97"/>
      <use x="209.082031" xlink:href="#DejaVuSans-110"/>
      <use x="272.460938" xlink:href="#DejaVuSans-32"/>
      <use x="304.248047" xlink:href="#DejaVuSans-65"/>
      <use x="372.65625" xlink:href="#DejaVuSans-98"/>
      <use x="436.132812" xlink:href="#DejaVuSans-115"/>
      <use x="488.232422" xlink:href="#DejaVuSans-111"/>
      <use x="549.414062" xlink:href="#DejaVuSans-108"/>
      <use x="577.197266" xlink:href="#DejaVuSans-117"/>
      <use x="640.576172" xlink:href="#DejaVuSans-116"/>
      <use x="679.785156" xlink:href="#DejaVuSans-101"/>
      <use x="741.308594" xlink:href="#DejaVuSans-32"/>
      <use x="773.095703" xlink:href="#DejaVuSans-80"/>
      <use x="829.773438" xlink:href="#DejaVuSans-101"/>
      <use x="891.296875" xlink:href="#DejaVuSans-114"/>
      <use x="930.160156" xlink:href="#DejaVuSans-99"/>
      <use x="985.140625" xlink:href="#DejaVuSans-101"/>
      <use x="1046.664062" xlink:href="#DejaVuSans-110"/>
      <use x="1110.042969" xlink:href="#DejaVuSans-116"/>
      <use x="1149.251953" xlink:href="#DejaVuSans-97"/>
      <use x="1210.53125" xlink:href="#DejaVuSans-103"/>
      <use x="1274.007812" xlink:href="#DejaVuSans-101"/>
      <use x="1335.53125" xlink:href="#DejaVuSans-32"/>
      <use x="1367.318359" xlink:href="#DejaVuSans-69"/>
      <use x="1430.501953" xlink:href="#DejaVuSans-114"/>
      <use x="1469.865234" xlink:href="#DejaVuSans-114"/>
      <use x="1508.728516" xlink:href="#DejaVuSans-111"/>
      <use x="1569.910156" xlink:href="#DejaVuSans-114"/>
     </g>
    </g>
    <g id="line2d_32">
     <path d="M 626.878125 64.772812 
L 646.878125 64.772812 
" style="fill:none;stroke:#008000;stroke-linecap:square;stroke-width:1.5;"/>
    </g>
    <g id="line2d_33">
     <g>
      <use style="fill:#008000;stroke:#008000;" x="636.878125" xlink:href="#m5114e628fb" y="64.772812"/>
     </g>
    </g>
    <g id="text_18">
     <!-- Explained Variance -->
     <defs>
      <path d="M 18.109375 8.203125 
L 18.109375 -20.796875 
L 9.078125 -20.796875 
L 9.078125 54.6875 
L 18.109375 54.6875 
L 18.109375 46.390625 
Q 20.953125 51.265625 25.265625 53.625 
Q 29.59375 56 35.59375 56 
Q 45.5625 56 51.78125 48.09375 
Q 58.015625 40.1875 58.015625 27.296875 
Q 58.015625 14.40625 51.78125 6.484375 
Q 45.5625 -1.421875 35.59375 -1.421875 
Q 29.59375 -1.421875 25.265625 0.953125 
Q 20.953125 3.328125 18.109375 8.203125 
z
M 48.6875 27.296875 
Q 48.6875 37.203125 44.609375 42.84375 
Q 40.53125 48.484375 33.40625 48.484375 
Q 26.265625 48.484375 22.1875 42.84375 
Q 18.109375 37.203125 18.109375 27.296875 
Q 18.109375 17.390625 22.1875 11.75 
Q 26.265625 6.109375 33.40625 6.109375 
Q 40.53125 6.109375 44.609375 11.75 
Q 48.6875 17.390625 48.6875 27.296875 
z
" id="DejaVuSans-112"/>
      <path d="M 28.609375 0 
L 0.78125 72.90625 
L 11.078125 72.90625 
L 34.1875 11.53125 
L 57.328125 72.90625 
L 67.578125 72.90625 
L 39.796875 0 
z
" id="DejaVuSans-86"/>
     </defs>
     <g transform="translate(654.878125 68.272812)scale(0.1 -0.1)">
      <use xlink:href="#DejaVuSans-69"/>
      <use x="63.183594" xlink:href="#DejaVuSans-120"/>
      <use x="122.363281" xlink:href="#DejaVuSans-112"/>
      <use x="185.839844" xlink:href="#DejaVuSans-108"/>
      <use x="213.623047" xlink:href="#DejaVuSans-97"/>
      <use x="274.902344" xlink:href="#DejaVuSans-105"/>
      <use x="302.685547" xlink:href="#DejaVuSans-110"/>
      <use x="366.064453" xlink:href="#DejaVuSans-101"/>
      <use x="427.587891" xlink:href="#DejaVuSans-100"/>
      <use x="491.064453" xlink:href="#DejaVuSans-32"/>
      <use x="522.851562" xlink:href="#DejaVuSans-86"/>
      <use x="583.509766" xlink:href="#DejaVuSans-97"/>
      <use x="644.789062" xlink:href="#DejaVuSans-114"/>
      <use x="685.902344" xlink:href="#DejaVuSans-105"/>
      <use x="713.685547" xlink:href="#DejaVuSans-97"/>
      <use x="774.964844" xlink:href="#DejaVuSans-110"/>
      <use x="838.34375" xlink:href="#DejaVuSans-99"/>
      <use x="893.324219" xlink:href="#DejaVuSans-101"/>
     </g>
    </g>
   </g>
  </g>
 </g>
 <defs>
  <clipPath id="p1b03f9d96d">
   <rect height="271.8" width="781.2" x="43.78125" y="22.318125"/>
  </clipPath>
 </defs>
</svg>
